<svg width="103" height="137" viewBox="0 0 103 137" fill="none" xmlns="http://www.w3.org/2000/svg">
<path d="M17.745 86.9841C33.1986 86.2433 48.5959 89.3353 62.5721 95.9861C66.8976 94.3006 71.4664 93.3268 76.1018 93.1023C84.9903 87.8226 91.9925 79.8691 96.1132 70.3723C100.234 60.8754 101.264 50.3182 99.0559 40.2012C96.8482 30.0842 91.5154 20.922 83.8154 14.0167C76.1153 7.11148 66.4399 2.81448 56.164 1.73641C45.8882 0.658353 35.5347 2.85408 26.5751 8.01154C17.6154 13.169 10.5055 21.0258 6.25559 30.4653C2.00572 39.9049 0.832189 50.4469 2.90177 60.5933C4.97134 70.7396 10.1787 79.974 17.7839 86.9841H17.745Z" fill="white"/>
<path d="M50.9086 0.00342268C40.7491 -0.0703974 30.8032 2.92649 22.3683 8.60315C13.9335 14.2798 7.4012 22.3727 3.62361 31.8262C-0.153978 41.2797 -1.0015 51.6549 1.19159 61.5984C3.38468 71.5419 8.51657 80.5921 15.9178 87.5684C17.5119 87.5684 19.1059 87.5684 20.7388 87.3346C12.7994 80.7424 7.22537 71.7313 4.86456 61.6721C2.50375 51.6129 3.48536 41.0561 7.66009 31.6075C11.8348 22.1588 18.9742 14.3354 27.9922 9.32738C37.0102 4.31931 47.4134 2.40064 57.6192 3.86319C67.825 5.32575 77.275 10.0895 84.5317 17.4298C91.7884 24.7701 96.4547 34.2853 97.8207 44.528C99.1867 54.7707 97.1778 65.1803 92.0994 74.1734C87.021 83.1665 79.1512 90.251 69.687 94.3492C72.491 93.7132 75.3704 93.4771 78.2403 93.6477C87.5989 87.7979 94.7917 79.0402 98.7213 68.7106C102.651 58.381 103.102 47.0464 100.005 36.4361C96.9081 25.8257 90.4336 16.5219 81.5693 9.94392C72.7049 3.36597 61.9371 -0.125043 50.9086 0.00342268Z" fill="#D5A73B"/>
<path d="M60.4339 34.7644L63.8941 43.6884C67.4452 43.0406 71.0265 42.5724 74.6246 42.2855C72.3867 35.1649 67.9139 28.9594 61.8724 24.5933C58.3733 26.0741 59.5008 32.1144 60.4339 34.7644Z" fill="#2A2C73"/>
<path d="M48.7703 57.8739L56.546 55.8085L62.5722 48.2484L71.7087 48.794L74.7801 59.5496L69.3371 61.7319L69.8037 63.1349L77.0351 62.3555L76.5685 60.7967L78.3569 60.1732L74.8579 47.6639V44.5073C58.7651 46.6258 42.9678 50.5876 27.7759 56.3152C28.3106 58.9512 28.9986 61.5536 29.8364 64.1091C31.1972 63.4856 34.8129 62.0047 36.4069 61.4592C32.1397 64.2176 28.6361 68.0108 26.2207 72.4876L27.5815 77.9434L24.1602 84.1006L32.5191 84.5292L35.6293 77.9434L33.0245 74.0464C34.8715 68.0573 38.6794 62.8675 43.8327 59.3158L47.2152 58.3805C41.9874 62.0185 38.3002 67.479 36.8735 73.6957L40.2948 78.5279L36.9512 85.0748L47.3707 86.8674L50.5199 80.3595L44.1438 74.0464C44.0643 68.3166 45.6737 62.6908 48.7703 57.8739Z" fill="#2A2C73"/>
<path d="M61.6002 44.1559L58.8787 36.362C57.2847 31.8415 56.0017 25.5674 61.0171 23.8917C53.2413 18.5528 45.4656 16.7602 43.4439 14.3831H43.1329C42.783 19.605 23.9269 32.6209 27.3482 53.9763C38.4719 49.7498 49.9293 46.4648 61.6002 44.1559Z" fill="#2A2C73"/>
<path d="M67.9765 54.8726L70.2703 50.5859L63.3499 49.9624L60.1619 53.7814L66.1103 51.9888L63.7387 54.8336L67.9765 54.8726Z" fill="#2A2C73"/>
<path d="M79.6401 77.7478L75.6356 72.0583L76.2188 69.0186L67.9765 69.5642L71.1646 67.4209L76.6853 66.6804L75.7522 63.407L68.2098 64.2643L63.0001 68.0833L47.8374 64.693L47.2153 71.7465L56.3518 81.1382L52.3473 93.4526L62.5724 98.09L69.6872 94.8166L67.5877 82.8919L77.4629 82.658L79.6401 77.7478Z" fill="#2A2C73"/>
<path d="M62.5723 95.2845C46.9661 87.7949 29.5744 84.8512 12.3799 86.7891L8.842 92.05C21.2443 90.8809 43.3273 90.764 52.5027 95.0507V95.6352C37.1065 94.0016 21.5772 94.08 6.19825 95.869L0.366455 104.637C14.289 109.203 29.2041 109.797 43.444 106.352C55.7296 104.092 65.9936 101.286 74.5469 105.222L86.2105 95.5573C80.8452 90.4133 70.1147 92.4787 62.5723 95.2845Z" fill="#D22514"/>
<path d="M79.5232 111.729C79.5232 113.952 78.6425 116.083 77.0749 117.654C75.5073 119.225 73.3812 120.108 71.1643 120.108C68.9473 120.108 66.8212 119.225 65.2536 117.654C63.686 116.083 62.8054 113.952 62.8054 111.729H59.4229C59.4229 112.83 59.2067 113.919 58.7866 114.936C58.3666 115.952 57.7508 116.876 56.9747 117.654C56.1985 118.432 55.277 119.049 54.2628 119.47C53.2487 119.891 52.1617 120.108 51.064 120.108C49.9663 120.108 48.8793 119.891 47.8652 119.47C46.8511 119.049 45.9296 118.432 45.1534 117.654C44.3772 116.876 43.7615 115.952 43.3414 114.936C42.9213 113.919 42.7051 112.83 42.7051 111.729H39.2449C39.2449 113.952 38.3642 116.083 36.7966 117.654C35.229 119.225 33.1029 120.108 30.886 120.108C28.6691 120.108 26.543 119.225 24.9754 117.654C23.4078 116.083 22.5271 113.952 22.5271 111.729H19.2224C19.1667 114.326 19.9749 116.867 21.5196 118.952C23.0643 121.036 25.2576 122.546 27.7533 123.243C30.2491 123.94 32.9053 123.784 35.3029 122.8C37.7005 121.816 39.703 120.06 40.9945 117.809C42.0223 119.571 43.4927 121.033 45.2593 122.049C47.0259 123.065 49.0272 123.6 51.064 123.6C53.1008 123.6 55.1021 123.065 56.8687 122.049C58.6353 121.033 60.1057 119.571 61.1336 117.809C62.425 120.06 64.4275 121.816 66.8251 122.8C69.2227 123.784 71.8789 123.94 74.3747 123.243C76.8704 122.546 79.0637 121.036 80.6084 118.952C82.1531 116.867 82.9613 114.326 82.9056 111.729H79.5232Z" fill="white"/>
<path d="M61.1336 133.475C58.9064 133.475 56.7703 132.588 55.1955 131.01C53.6206 129.431 52.7358 127.29 52.7358 125.058H49.3922C49.4705 126.209 49.3119 127.363 48.9263 128.45C48.5407 129.537 47.9363 130.533 47.1506 131.376C46.3649 132.219 45.4148 132.891 44.3591 133.351C43.3035 133.81 42.1648 134.047 41.0139 134.047C39.863 134.047 38.7243 133.81 37.6687 133.351C36.613 132.891 35.6628 132.219 34.8772 131.376C34.0915 130.533 33.4871 129.537 33.1015 128.45C32.7159 127.363 32.5573 126.209 32.6356 125.058H29.292C29.2955 127.605 30.1289 130.081 31.6655 132.11C33.2021 134.139 35.3578 135.61 37.8047 136.298C40.2516 136.986 42.8558 136.854 45.2211 135.923C47.5865 134.991 49.5835 133.311 50.9085 131.137C52.2 133.388 54.2025 135.144 56.6001 136.128C58.9976 137.112 61.6539 137.268 64.1496 136.571C66.6454 135.874 68.8386 134.364 70.3833 132.28C71.928 130.195 72.7363 127.654 72.6805 125.058H69.337C69.3376 127.257 68.4795 129.369 66.9464 130.942C65.4133 132.515 63.327 133.424 61.1336 133.475Z" fill="white"/>
</svg>
