<svg width="123" height="163" viewBox="0 0 123 163" fill="none" xmlns="http://www.w3.org/2000/svg">
<path d="M55.1385 162.644C84.0842 162.644 107.549 160.233 107.549 157.258C107.549 154.283 84.0842 151.872 55.1385 151.872C26.1929 151.872 2.72778 154.283 2.72778 157.258C2.72778 160.233 26.1929 162.644 55.1385 162.644Z" fill="#B7D9F4"/>
<path d="M14.9768 156.195C15.5138 150.626 21.7215 147.179 28.6756 146.228L23.3056 139.328L20.9428 140.364L20.6206 136.202L19.1815 137.427C20.0674 129.419 23.6992 121.966 29.4596 116.333L29.8462 112.118L67.7849 109.433C67.7849 109.433 73.6919 122.144 74.8196 125.978C76.977 128.835 78.8561 131.892 80.4312 135.107L78.4443 135.144L80.3721 138.05L78.9007 138.587L81.0058 146.523C91.0529 145.82 96.6216 148.838 96.9115 156.216C90.677 158.455 80.1734 158.241 66.523 156.216C65.6262 154.401 66.0182 150.669 66.8989 148.161C66.8989 148.161 61.2497 134.688 48.2383 128.615C48.2383 128.615 40.3069 137.045 39.539 141.647C39.539 141.647 44.5975 147.909 44.7371 156.211C29.6314 159.014 18.8539 158.949 14.9768 156.195Z" fill="#9E5429"/>
<path d="M85.3823 146.448C84.9097 146.421 84.421 146.411 83.9216 146.405V146.518C84.4318 146.486 84.9097 146.464 85.3823 146.448Z" fill="#9E5429"/>
<path d="M68.6388 156.211C67.7474 154.401 68.1394 150.669 69.0147 148.156H66.8667C65.986 150.658 65.594 154.39 66.4908 156.211C67.2695 156.624 67.4789 156.409 68.6388 156.211Z" fill="#C87D36"/>
<path d="M20.0997 139.956L22.4839 138.919L23.0209 139.623L22.7256 135.81L22.108 136.213C22.108 136.213 22.0167 125.119 31.5752 115.941H29.4273C23.6669 121.571 20.0349 129.023 19.1492 137.029L19.7613 135.81L20.0997 139.956Z" fill="#C87D36"/>
<path d="M17.9357 156.211C18.4726 150.647 23.5902 149.01 30.5443 148.059L29.4703 146.228C22.4894 147.179 15.5084 150.626 14.9714 156.195C17.0711 157.666 17.5007 156.995 17.9357 156.211Z" fill="#C87D36"/>
<path d="M63.0969 110.62C63.0969 110.62 68.977 123.336 70.1316 127.165C72.2893 130.022 74.1684 133.079 75.7432 136.294L73.7563 136.326L75.6841 139.237L74.2127 139.742L76.3177 149.327C86.3434 148.629 92.3202 149.982 92.6316 157.328C94.0876 157.109 95.5154 156.733 96.89 156.206C96.6 148.828 91.0314 145.81 80.9842 146.513L78.8792 138.544L80.3506 138.007L78.4013 135.15L80.3882 135.113C78.8131 131.898 76.934 128.841 74.7766 125.984C73.6274 122.15 67.7419 109.439 67.7419 109.439L29.8032 112.124L29.7227 112.967L63.0969 110.62Z" fill="#6E3B19"/>
<path d="M46.0366 131.069C45.2418 130.607 44.4256 130.166 43.5503 129.764C43.5503 129.764 35.6135 138.2 34.851 142.797C34.851 142.797 39.7537 148.875 40.033 156.995C41.5419 156.758 43.1046 156.495 44.7156 156.195C44.5759 147.893 39.5174 141.631 39.5174 141.631C40.0222 138.603 43.6308 133.92 46.0366 131.069Z" fill="#6E3B19"/>
<path d="M25.8134 159.089C20.5079 159.089 16.6147 158.342 14.5043 156.86L14.1123 156.586L14.1606 156.114C14.7674 150.046 21.0503 146.786 27.1828 145.643L23.0533 140.332L20.1965 141.572L19.9065 137.861L18.2579 139.284L18.3707 137.378C19.2307 129.262 22.8737 121.693 28.681 115.957L29.0998 111.355L68.3005 108.584L68.5368 109.095C68.773 109.632 74.3148 121.59 75.566 125.596C77.7145 128.474 79.5829 131.551 81.1454 134.784L81.6824 135.939L79.9103 135.966L81.6019 138.511L79.862 139.08L81.6019 145.632C87.5518 145.315 91.9068 146.351 94.5596 148.73C96.525 150.492 97.5828 152.989 97.7064 156.152L97.7332 156.748L97.1694 156.952C91.0637 159.148 80.9897 159.159 66.3834 156.989L65.9592 156.925L65.7712 156.544C64.7832 154.541 65.143 150.819 66.0022 148.177C65.1269 146.282 59.5958 135.08 48.4102 129.586C46.8529 131.299 41.2843 137.641 40.3929 141.4C41.4293 142.791 45.403 148.617 45.5319 156.152V156.844L44.8553 156.968C37.4125 158.412 30.9525 159.089 25.8134 159.089ZM15.8522 155.786C19.8635 158.106 30.2168 158.015 43.8726 155.518C43.4859 147.946 38.9269 142.2 38.8785 142.141L38.653 141.857L38.7121 141.497C39.5068 136.707 47.304 128.389 47.6262 128.04L48.0289 127.61L48.5659 127.857C61.7062 133.995 67.393 147.264 67.6293 147.828L67.7528 148.118L67.6454 148.413C66.8936 150.561 66.5284 153.783 67.1084 155.453C80.5332 157.419 90.2797 157.473 96.0631 155.62C95.8591 153.177 94.9892 151.324 93.4963 149.96C91.0852 147.812 86.902 146.91 81.0649 147.313L80.3936 147.361L77.9181 138.039L79.1156 137.631L76.9676 134.355L79.1156 134.317C77.7034 131.569 76.0521 128.951 74.1806 126.493L74.0839 126.37L74.0356 126.219C73.0475 122.917 68.3864 112.698 67.2802 110.292L30.5927 112.886L30.249 116.715L30.0288 116.924C23.0909 123.556 20.9429 131.697 20.2502 135.429L21.2866 134.543L21.6463 139.161L23.5634 138.329L30.1899 146.845L28.783 147.039C23.3057 147.785 16.749 150.524 15.8522 155.786Z" fill="#372420"/>
<path d="M67.7634 109.439L29.8247 112.124L29.438 116.339C25.4106 120.206 22.5162 124.265 21.0233 128.003C25.3622 130.484 39.2812 136.595 42.3689 137.266C43.9107 134.124 45.8786 131.209 48.2168 128.604C51.8307 130.29 53.9143 133.174 56.567 135.585C63.2204 134.721 72.1399 132.498 78.2187 129.941C76.7903 124.974 67.7634 109.439 67.7634 109.439Z" fill="#D22514"/>
<path d="M31.1458 117.601L31.527 113.385L30.2382 112.124L29.857 116.339C25.8295 120.205 22.9351 124.265 21.4369 128.002C21.8504 128.239 22.3498 128.507 22.919 128.803C24.4602 125.189 27.2794 121.306 31.1458 117.601Z" fill="#E77F6E"/>
<path d="M54.0216 133.061C54.6982 133.743 55.3748 134.436 56.0729 135.096C55.3963 134.414 54.7251 133.711 54.0216 133.061Z" fill="#D22514"/>
<path d="M63.097 110.62C63.097 110.62 72.1454 126.145 73.5684 131.08C70.6404 132.274 67.6398 133.282 64.5845 134.098C69.2428 133.082 73.8087 131.681 78.2349 129.909C76.828 124.974 67.7796 109.439 67.7796 109.439L29.8409 112.124L29.7604 112.967L63.097 110.62Z" fill="#A8210C"/>
<path d="M45.9132 126.424C45.9132 126.424 41.3487 131.165 38.9323 136.09C40.0595 136.546 41.2146 136.93 42.3905 137.239C43.4376 134.957 47.2235 129.474 48.4263 127.895C47.6398 127.322 46.7979 126.829 45.9132 126.424Z" fill="#A8210C"/>
<path d="M42.8415 138.194L42.2024 138.06C39.0449 137.4 24.9703 131.197 20.6152 128.706L19.9977 128.341L20.2608 127.68C21.802 123.841 24.7018 119.786 28.654 115.947L29.0729 111.345L68.1984 108.584L68.4561 109.025C68.8267 109.664 77.585 124.71 78.992 129.688L79.1907 130.381L78.5194 130.666C72.7199 133.098 63.7306 135.445 56.6583 136.358L56.2878 136.406L56.0086 136.159C55.2407 135.466 54.5104 134.731 53.8069 134.011C52.1476 132.33 50.5849 130.736 48.3994 129.597C46.2907 132.017 44.5088 134.704 43.0992 137.588L42.8415 138.194ZM22.0597 127.637C26.6349 130.118 38.1374 135.198 41.9286 136.304C43.4678 133.318 45.3845 130.542 47.6315 128.045L48.0342 127.605L48.5712 127.857C51.2884 129.13 53.1732 131.031 55.0151 132.873C55.6112 133.48 56.2288 134.102 56.8678 134.688C63.8324 133.699 70.6656 131.94 77.2414 129.441C75.5176 124.571 68.7407 112.719 67.3392 110.287L30.598 112.886L30.2543 116.715L30.0341 116.924C26.3396 120.447 23.6278 124.136 22.0597 127.637Z" fill="#372420"/>
<path d="M92.2505 151.308C93.0059 151.915 93.5979 152.701 93.973 153.595C94.348 154.488 94.4943 155.461 94.3985 156.426" fill="#9E5429"/>
<path d="M95.2253 156.511L93.6144 156.345C93.6963 155.523 93.5729 154.694 93.2551 153.932C92.9374 153.17 92.4353 152.499 91.7939 151.979L92.7337 150.637C93.6073 151.329 94.2931 152.23 94.7284 153.256C95.1637 154.283 95.3346 155.402 95.2253 156.511Z" fill="#372420"/>
<path d="M87.0739 151.877C88.1689 152.284 89.1214 153.002 89.8147 153.943C90.5081 154.883 90.9123 156.005 90.9778 157.172" fill="#9E5429"/>
<path d="M90.1614 157.236C90.1121 156.226 89.7673 155.252 89.1698 154.436C88.5722 153.62 87.7481 152.997 86.7998 152.645L87.3368 151.104C88.5778 151.568 89.6581 152.381 90.4471 153.446C91.2361 154.51 91.7001 155.78 91.7831 157.102L90.1614 157.236Z" fill="#372420"/>
<path d="M21.0825 151.625C19.7722 152.387 17.6189 154.39 17.9787 156.994Z" fill="#9E5429"/>
<path d="M17.1838 157.129C16.7542 154.116 19.1707 151.797 20.6689 150.895L21.4798 152.328C20.3306 153 18.4726 154.723 18.7679 156.909L17.1838 157.129Z" fill="#372420"/>
<path d="M26.259 151.936C23.8103 152.903 22.1456 154.573 22.0114 158.058Z" fill="#9E5429"/>
<path d="M22.8277 158.09L21.2167 158.026C21.3509 154.578 22.8653 152.404 25.9852 151.179L26.5813 152.699C24.052 153.687 22.9351 155.298 22.8277 158.09Z" fill="#372420"/>
<path d="M100.74 50.8578C105.439 49.1716 108.258 46.5618 110.25 44.7897C111.276 43.8661 112.833 42.9049 112.463 40.9234C112.028 38.5659 108.591 39.1191 108.591 39.1191C109.274 38.5432 109.707 37.7252 109.799 36.8368C109.848 35.4943 108.725 34.4955 107.114 34.1518C105.82 33.878 103.984 35.3171 103.984 35.3171C103.984 35.3171 105.595 33.5075 103.984 32.1972C102.91 31.295 101.777 31.0212 99.9562 32.122C97.4377 33.6524 94.5111 39.5218 94.5111 39.5218C89.9252 33.8511 86.6065 38.5767 86.6065 38.5767L90.3172 43.8231C87.7128 49.1286 84.625 50.4335 78.5033 56.5392C74.0892 59.1866 49.9996 72.3322 47.0783 77.3531C41.1714 73.1538 37.4983 70.9682 27.4082 67.8805C11.7709 74.6896 1.68612 89.6557 0.918213 95.8043L3.34543 94.2362L2.5829 97.1951L4.75773 96.2983C7.06144 101.282 11.7709 106.85 14.5901 107.892C14.5387 109.252 14.0721 110.564 13.253 111.651L11.2446 111.909L10.2941 114.025C11.207 116.172 15.8467 119.276 18.2041 120.06C22.978 118.653 26.6134 113.788 27.5424 108.504C26.3342 104.165 23.9392 100.906 20.1051 97.4528C21.798 96.9532 23.3642 96.0965 24.6981 94.9405C26.032 93.7844 27.1026 92.3559 27.8378 90.7511L30.4476 114.486H69.9382L73.6972 85.0107C78.1933 82.1238 82.273 78.635 85.8225 74.6413L90.2635 71.5052L89.6352 69.1639L92.6477 67.5046L91.9926 66.4843C94.7957 62.4676 99.0917 56.0613 100.74 50.8578Z" fill="#9E5429"/>
<path d="M96.1597 40.7569C96.1597 40.7569 99.081 34.9036 101.605 33.3571C102.797 32.6375 103.683 32.5086 104.467 32.7557C104.338 32.5499 104.175 32.3682 103.984 32.2187C102.91 31.3165 101.777 31.0427 99.9563 32.1435C97.7761 33.4699 95.2952 38.0504 94.6615 39.2479C95.2096 39.7001 95.7115 40.2056 96.1597 40.7569Z" fill="#9E5429"/>
<path d="M29.0569 69.1154C39.1524 72.2031 42.8469 74.3887 48.727 78.588C51.6536 73.5671 75.7433 60.4214 80.1574 57.7741C86.2684 51.6684 89.3561 50.3635 91.9713 45.058L88.2606 39.8116C88.2606 39.8116 90.4086 36.799 93.5661 38.4798C89.4796 34.4953 86.6174 38.5765 86.6174 38.5765L90.3227 43.8229C87.7183 49.1284 84.6305 50.4333 78.5088 56.539C74.0947 59.1864 50.0051 72.332 47.0838 77.3529C41.1769 73.1536 37.5038 70.968 27.4137 67.8803C11.7764 74.6894 1.69161 89.6555 0.923706 95.8041L3.32944 94.2414C6.04127 87.1584 15.4441 75.0492 29.0569 69.1154Z" fill="#C87D36"/>
<path d="M105.622 36.5522C105.622 36.5522 107.453 35.113 108.752 35.3869C108.994 35.4381 109.231 35.5082 109.461 35.5963C109.184 35.2112 108.832 34.8851 108.428 34.6371C108.023 34.3891 107.573 34.2241 107.104 34.1518C106.807 34.1003 106.503 34.1132 106.212 34.1894C106.685 35.3439 105.622 36.5522 105.622 36.5522Z" fill="#9E5429"/>
<path d="M110.234 40.3543C110.925 40.261 111.626 40.2882 112.307 40.4348C112.186 40.1768 112.015 39.9458 111.803 39.7557C111.59 39.5656 111.342 39.4203 111.072 39.3286C110.853 39.7157 110.57 40.0626 110.234 40.3543Z" fill="#9E5429"/>
<path d="M11.379 115.238L13.9619 113.944L15.1433 112.87C15.734 112.161 16.3784 109.992 16.4804 108.289C15.8806 108.045 15.3169 107.72 14.805 107.323C14.6546 108.896 14.0532 110.969 13.4947 111.619L11.4917 111.876L10.5359 113.992L11.379 115.238Z" fill="#C87D36"/>
<path d="M20.105 97.4202C22.1232 96.8476 23.9538 95.7508 25.4105 94.2412L23.1712 91.9214C19.1867 94.8588 17.4576 95.8898 15.025 96.5288C18.8645 99.9817 22.9027 105.303 24.111 109.642C23.4183 113.573 19.9869 117.278 16.9421 119.491C17.3509 119.696 17.7724 119.876 18.204 120.028C22.9779 118.621 26.6134 113.756 27.5424 108.472C26.3127 104.133 23.9391 100.873 20.105 97.4202Z" fill="#713915"/>
<path d="M42.4227 78.5182C43.1177 77.4979 43.9674 76.592 44.9413 75.8333C40.1674 72.5683 36.2312 70.56 27.4191 67.8643C26.2914 68.3583 25.1959 68.8953 24.1273 69.4752C33.1864 72.3428 36.8111 74.5176 42.4227 78.5182Z" fill="#6E3B19"/>
<path d="M112.463 40.9234C112.028 38.566 108.591 39.1191 108.591 39.1191C109.274 38.5432 109.707 37.7252 109.799 36.8368C109.848 35.4944 108.725 34.4955 107.114 34.1519C105.82 33.878 103.984 35.3172 103.984 35.3172C103.984 35.3172 105.595 33.2497 103.984 31.9395C103.382 33.733 101.224 34.7587 100.273 36.9979L101.787 37.8679C103.769 35.3225 107.222 33.6202 108.575 35.2312C109.44 36.2623 104.145 40.4132 104.145 40.4132L105.369 41.2617C107.254 39.3768 109.483 39.6507 109.799 41.2617C110.197 43.2432 106.658 45.0851 105.584 45.955C103.339 47.7754 102.008 48.2802 97.3089 49.9664C95.6603 55.1699 90.1293 62.8113 87.3262 66.8173L87.9813 67.8376L84.9687 69.4969L85.597 71.0166L81.1561 74.9743C77.5367 78.9695 73.7992 83.1258 69.0361 86.1867L65.4167 114.492H69.9383L73.6972 85.0161C78.1937 82.1276 82.2734 78.6369 85.8226 74.6413L90.2635 71.5053L89.6352 69.164L92.6478 67.5046L91.9926 66.4844C94.7958 62.4784 99.0917 56.072 100.74 50.8685C105.439 49.1824 108.258 46.5726 110.25 44.8005C111.276 43.8661 112.833 42.9049 112.463 40.9234Z" fill="#713915"/>
<path d="M18.2954 120.882L18.0538 120.801C15.7393 120.034 10.7399 116.844 9.66591 114.309L9.53167 113.982L10.8151 111.125L12.9362 110.856C13.4229 110.107 13.7332 109.257 13.8437 108.37C10.944 106.883 6.8628 102.055 4.48391 97.3187L1.50896 98.543L2.14798 96.046L0 97.4261L0.214798 95.6916C0.993441 89.4893 10.9547 74.2118 27.1881 67.1342L27.4673 67.0107L27.7573 67.1019C37.6273 70.1199 41.4131 72.2625 46.9925 76.2309C50.2144 72.1873 62.184 65.0399 74.7283 57.8603C76.2104 57.0118 77.4132 56.3352 78.106 55.911C80.0714 53.9509 81.7038 52.5064 83.143 51.2284C85.9407 48.7475 87.8309 47.072 89.4688 43.9145L85.7098 38.6036L86.0374 38.1311C86.1018 38.0451 87.5463 36.0207 89.9467 35.9401C91.4718 35.8918 92.9807 36.6221 94.4413 38.1203C95.4402 36.2999 97.6042 32.6752 99.6341 31.4455C101.546 30.2856 103.082 30.3285 104.601 31.5905C104.882 31.8076 105.116 32.0803 105.287 32.3917C105.458 32.7031 105.562 33.0464 105.595 33.4001C105.595 33.4592 105.595 33.5129 105.595 33.5666C106.155 33.3435 106.766 33.2767 107.361 33.3733C109.45 33.819 110.766 35.1937 110.707 36.8906C110.685 37.3863 110.556 37.8715 110.331 38.3136C111.657 38.4908 113.048 39.1352 113.354 40.7946C113.762 42.9801 112.345 44.1776 111.308 45.0583C111.163 45.1764 111.018 45.2999 110.89 45.4181L110.793 45.504C108.121 48.0977 104.959 50.1331 101.492 51.4915C99.8274 56.4426 95.9825 62.3119 93.072 66.4898L93.9097 67.7893L90.6878 69.5614L91.2999 71.8382L86.467 75.2428C82.9727 79.1742 78.971 82.6233 74.5672 85.4994L70.7545 115.308H29.8193L27.3975 93.2912C25.9703 95.2675 24.0192 96.8056 21.7644 97.7322C25.3301 101.147 27.3492 104.348 28.4339 108.23L28.4822 108.413L28.45 108.596C27.4243 114.449 23.4398 119.335 18.5424 120.791L18.2954 120.882ZM11.3145 113.976C12.3885 115.781 16.185 118.358 18.3384 119.164C22.4303 117.832 25.8563 113.509 26.8229 108.515C25.7113 104.681 23.5634 101.534 19.6755 98.0275L18.5478 97.018L20.0138 96.6313C21.5867 96.1623 23.0423 95.365 24.2845 94.2922C25.5267 93.2194 26.5273 91.8954 27.2203 90.4075L28.4554 87.8085L31.2907 113.676H69.3315L73.0314 84.5382L73.3482 84.3288C77.7887 81.4844 81.818 78.0442 85.3232 74.1044L85.4574 73.9862L89.4312 71.1777L88.7868 68.772L91.5953 67.2201L91.112 66.479L91.4288 66.028C94.3769 61.8125 98.4849 55.6317 100.064 50.6323L100.187 50.251L100.568 50.1114C105.042 48.5004 107.743 46.0678 109.697 44.2904L109.794 44.2045L110.25 43.8071C111.324 42.8996 111.969 42.2605 111.749 41.0953C111.464 39.5541 108.833 39.9407 108.806 39.9461L105.793 40.4133L108.167 38.5016C108.666 38.0764 108.989 37.4814 109.074 36.8315C109.112 35.7898 108.038 35.1883 107.023 34.9735C106.389 34.8393 105.208 35.5105 104.564 35.9831L103.452 34.8017C103.759 34.4446 103.937 33.9943 103.957 33.5236C103.941 33.3888 103.897 33.2588 103.828 33.1422C103.759 33.0256 103.665 32.925 103.554 32.847C102.706 32.1489 101.943 31.9395 100.472 32.847C98.5708 34.0016 96.1168 38.3405 95.3274 39.9139L94.7797 41.0255L93.9742 40.0374C92.6102 38.3512 91.2892 37.5189 90.0165 37.5511C89.1517 37.6127 88.3414 37.9958 87.745 38.6251L91.3644 43.7427L91.1496 44.1776C89.313 47.9366 87.2886 49.7033 84.2223 52.4259C82.7832 53.7039 81.1454 55.1538 79.1853 57.1138L79.1155 57.1836L79.0296 57.2373C78.31 57.6669 77.0857 58.365 75.5338 59.2564C67.9621 63.5846 50.2305 73.7553 47.8892 77.7613L47.4382 78.5346L46.7078 77.9976C40.962 73.911 37.3802 71.7684 27.564 68.7344C13.7471 74.8669 4.47317 87.4218 2.29297 93.9732L4.77926 92.3622L3.89322 95.7453L5.27866 95.1761L5.60623 95.8849C7.81328 100.664 12.367 106.088 14.9768 107.054L15.546 107.264L15.5084 107.935C15.4333 109.463 14.8937 110.932 13.9619 112.145L13.7578 112.392L11.8837 112.628L11.3145 113.976Z" fill="#372420"/>
<path d="M101.814 37.8304C102.628 36.5811 103.661 35.4895 104.864 34.6084Z" fill="#9E5429"/>
<path d="M102.507 38.2652L101.127 37.3953C102 36.0578 103.113 34.8928 104.408 33.9585L105.321 35.3117C104.217 36.1232 103.264 37.123 102.507 38.2652Z" fill="#372420"/>
<path d="M105.788 41.2347C106.773 40.3079 107.927 39.5788 109.187 39.0867Z" fill="#9E5429"/>
<path d="M106.357 41.8201L105.214 40.6494C106.284 39.6374 107.54 38.8423 108.913 38.3081L109.45 39.8547C108.304 40.3077 107.254 40.9747 106.357 41.8201Z" fill="#372420"/>
<path d="M105.321 43.2858C104.521 41.2077 101.841 38.5388 99.6877 37.6904L100.295 36.1707C102.877 37.1963 105.879 40.182 106.846 42.6951L105.321 43.2858Z" fill="#372420"/>
<path d="M103.329 44.0826C104.075 42.6488 103.108 40.6685 101.169 39.6596C99.2305 38.6507 97.0538 38.9951 96.3077 40.429C95.5616 41.8628 96.5286 43.843 98.4676 44.852C100.407 45.8609 102.583 45.5165 103.329 44.0826Z" fill="#C87D36"/>
<path d="M32.4507 25.0389C37.0921 25.0389 40.8547 21.2763 40.8547 16.6349C40.8547 11.9935 37.0921 8.23096 32.4507 8.23096C27.8093 8.23096 24.0468 11.9935 24.0468 16.6349C24.0468 21.2763 27.8093 25.0389 32.4507 25.0389Z" fill="#9E5429"/>
<path d="M24.5246 17.5962C24.7946 15.659 25.7648 13.8878 27.2518 12.6173C28.7389 11.3468 30.6398 10.6649 32.5953 10.7006C34.5509 10.7363 36.4256 11.4871 37.8653 12.811C39.305 14.135 40.2099 15.9404 40.409 17.8861C40.5249 16.7716 40.4055 15.6451 40.0584 14.5796C39.7113 13.5142 39.1442 12.5335 38.394 11.7011C37.6437 10.8688 36.727 10.2033 35.7032 9.74777C34.6794 9.29226 33.5713 9.05688 32.4507 9.05688C31.3301 9.05688 30.222 9.29226 29.1982 9.74777C28.1744 10.2033 27.2577 10.8688 26.5074 11.7011C25.7572 12.5335 25.1901 13.5142 24.843 14.5796C24.4959 15.6451 24.3765 16.7716 24.4924 17.8861C24.5032 17.8056 24.5085 17.7197 24.5246 17.5962Z" fill="#C87D36"/>
<path d="M33.6213 8.31145C31.7974 8.053 29.9392 8.40612 28.3373 9.31563C29.9654 9.68108 31.4671 10.473 32.6883 11.6102C33.9095 12.7473 34.8063 14.1889 35.2867 15.7869C35.7671 17.3849 35.8138 19.082 35.4221 20.704C35.0303 22.326 34.2142 23.8147 33.0575 25.0174C35.1276 24.8653 37.0682 23.9525 38.5054 22.4548C39.9425 20.9571 40.7746 18.9806 40.8413 16.906C40.908 14.8314 40.2046 12.8055 38.8665 11.2186C37.5285 9.63172 35.6505 8.59617 33.5945 8.31145H33.6213Z" fill="#713915"/>
<path d="M32.4613 25.8552C32.0303 25.856 31.5997 25.8273 31.1726 25.7692C28.7983 25.4432 26.6434 24.2082 25.1619 22.3244C23.6805 20.4406 22.9882 18.0552 23.2311 15.671C23.474 13.2868 24.633 11.0901 26.4639 9.5437C28.2947 7.99733 30.6544 7.22217 33.0457 7.38158C35.4369 7.541 37.6728 8.62254 39.2822 10.3983C40.8916 12.174 41.7488 14.5052 41.673 16.9005C41.5972 19.2958 40.5945 21.5682 38.8761 23.2386C37.1577 24.9091 34.8579 25.8472 32.4613 25.8552ZM32.4613 9.04721C31.0504 9.04596 29.667 9.43815 28.4667 10.1797C27.2663 10.9213 26.2965 11.9829 25.6661 13.2452C25.0358 14.5075 24.7699 15.9206 24.8984 17.3257C25.0268 18.7308 25.5445 20.0723 26.3933 21.1994C26.9888 22.0012 27.7381 22.6762 28.5974 23.1852C29.4567 23.6941 30.4088 24.0267 31.3981 24.1636C33.3918 24.4473 35.4166 23.928 37.0276 22.7197C38.6386 21.5114 39.7041 19.7131 39.99 17.7197C40.1312 16.7324 40.0765 15.727 39.8291 14.7608C39.5816 13.7947 39.1463 12.8867 38.5479 12.0889C37.9495 11.291 37.1998 10.6188 36.3415 10.1108C35.4833 9.60268 34.5334 9.26866 33.5461 9.12776C33.1815 9.07533 32.8136 9.04841 32.4452 9.04721H32.4613Z" fill="#372420"/>
<path d="M72.4567 53.58C71.4638 52.9002 70.6596 51.9795 70.1196 50.9041C69.5795 49.8287 69.3213 48.6339 69.369 47.4314L69.6751 41.1325C70.082 38.2644 69.9159 35.344 69.1864 32.5406C70.7585 32.2612 72.2328 31.5841 73.4691 30.5737C74.7054 29.5633 75.6625 28.2533 76.2493 26.7684C76.8361 25.2835 77.0331 23.6731 76.8215 22.0906C76.6098 20.508 75.9967 19.0059 75.0403 17.7274C74.084 16.4488 72.8163 15.4364 71.3579 14.7863C69.8996 14.1363 68.2992 13.8704 66.709 14.0138C65.1188 14.1573 63.5918 14.7054 62.2733 15.606C60.9549 16.5065 59.8889 17.7296 59.1768 19.1586C58.1067 18.5258 56.9837 17.9868 55.8206 17.5477C55.7079 15.2654 53.5599 12.7147 53.5599 12.7147L52.1905 16.5059L51.9811 16.4576C50.8212 13.4987 49.4411 10.368 47.1052 8.59058L45.8647 16.0494C44.9068 14.1408 43.5122 12.485 41.7943 11.2165L41.5795 16.8335C37.4475 17.9245 33.745 20.2465 30.9635 23.4912C28.1821 26.7358 26.4533 30.7497 26.0067 35L22.2745 60.6254L27.1451 64.6207L25.9154 66.2639L28.5627 67.1392L25.4965 70.2215C33.9434 73.4113 41.4184 76.9179 46.7991 81.1118C54.1935 72.6595 61.2228 66.2692 71.7425 63.1708L73.6865 56.8289L70.3464 56.2059L72.4567 53.58Z" fill="#9E5429"/>
<path d="M48.6035 78.2389C43.298 74.1041 35.9519 70.6404 27.6607 67.499L25.561 69.6094C34.008 72.7992 41.4776 76.3057 46.8583 80.4997L48.6035 78.2389Z" fill="#713915"/>
<path d="M42.4656 18.6004L42.3582 16.7961C34.2657 19.0354 27.1075 25.8821 26.055 35.1399L25.7758 37.0516C26.2922 37.2427 26.7871 37.4875 27.2525 37.7819L27.4297 36.5146C28.4607 27.2622 34.3677 20.8397 42.4656 18.6004Z" fill="#C87D36"/>
<path d="M68.8428 14.3904C66.8449 14.1122 64.8139 14.5686 63.1271 15.6747C61.4403 16.7808 60.2122 18.4615 59.6709 20.4047C59.8535 20.5121 60.0199 20.6142 60.181 20.7216C60.9645 19.0861 62.2609 17.7514 63.873 16.9208C65.485 16.0902 67.3244 15.8091 69.1109 16.1205C70.8974 16.4318 72.5333 17.3185 73.7693 18.6454C75.0054 19.9723 75.7739 21.6669 75.958 23.471C76.1762 21.3311 75.557 19.1899 74.2303 17.4968C72.9037 15.8037 70.9727 14.6903 68.8428 14.3904Z" fill="#C87D36"/>
<path d="M72.0272 53.5805C71.0356 52.8997 70.2328 51.9786 69.6938 50.9033C69.1547 49.8281 68.8971 48.6337 68.9449 47.4319L69.2724 41.1329C69.6763 38.2647 69.5103 35.3449 68.7838 32.541C70.1184 32.3042 71.3857 31.78 72.4976 31.0047C73.6095 30.2295 74.5396 29.2217 75.2233 28.0512C75.907 26.8808 76.328 25.5756 76.4571 24.2263C76.5863 22.8769 76.4204 21.5157 75.9711 20.2368C75.5218 18.9579 74.7998 17.792 73.8551 16.8199C72.9104 15.8478 71.7656 15.0928 70.5 14.6072C69.2345 14.1215 67.8785 13.9169 66.526 14.0075C65.1735 14.098 63.8569 14.4816 62.6674 15.1316C63.8663 15.147 65.0503 15.3984 66.152 15.8715C67.2537 16.3446 68.2514 17.03 69.0881 17.8887C69.9249 18.7474 70.5843 19.7625 71.0287 20.8761C71.4731 21.9896 71.6938 23.1798 71.6782 24.3787C71.6684 26.5176 70.9118 28.5858 69.5391 30.2262C68.1664 31.8665 66.2639 32.9759 64.1603 33.3626C64.8735 36.1212 65.0359 38.9934 64.6382 41.8149L64.3375 47.985C64.2878 49.1645 64.5381 50.3374 65.0649 51.3939C65.5918 52.4504 66.378 53.3561 67.35 54.0262L64.563 58.1825L68.2575 59.0363L67.5487 61.485C58.017 64.3043 50.773 71.9135 43.9209 79.3294C44.7908 79.9165 45.6214 80.5143 46.4126 81.1229C53.8016 72.6706 60.8309 66.2804 71.356 63.1819L73.2999 56.84L69.9222 56.2064L72.0272 53.5805Z" fill="#713915"/>
<path d="M50.048 16.9948L51.2187 17.1773L51.7557 17.1129C50.7408 14.7877 49.0707 11.0019 47.2396 9.59497L46.9174 11.5282C48.2775 13.1498 49.3377 15.001 50.048 16.9948Z" fill="#713915"/>
<path d="M54.0486 17.795C55.0366 18.0367 56.1428 18.332 56.1428 18.332C56.0301 16.0498 53.7049 13.6602 53.7049 13.6602L53.3129 15.1906C53.8189 15.963 54.0757 16.872 54.0486 17.795Z" fill="#713915"/>
<path d="M43.9585 17.2365L45.8058 16.8713C45.0648 15.9316 42.9973 13.0426 41.9448 12.2263L41.8857 14.2562C42.7521 15.1153 43.4545 16.1253 43.9585 17.2365Z" fill="#713915"/>
<path d="M63.3655 23.5459L61.7921 23.3257C62.023 21.7148 62.9628 19.5668 64.9067 18.4498C66.029 17.8162 67.9353 17.3007 70.6257 18.4498L69.9974 19.9104C67.6078 20.1682 65.4115 21.4785 63.3655 23.5459Z" fill="#372420"/>
<path d="M73.6489 53.403L72.9133 52.9036C72.0334 52.3041 71.3214 51.4897 70.8449 50.5376C70.3684 49.5855 70.1432 48.5274 70.1907 47.4638L70.4914 41.2078C70.8678 38.5255 70.7605 35.7974 70.1746 33.1529C72.3082 32.5756 74.1942 31.3157 75.5445 29.5658C76.397 28.4749 77.0174 27.2212 77.3679 25.8818C77.7183 24.5424 77.7913 23.1456 77.5823 21.7769C77.3734 20.4083 76.8869 19.0968 76.1528 17.923C75.4187 16.7492 74.4525 15.7378 73.3134 14.9509C72.1743 14.164 70.8863 13.6182 69.5287 13.3471C68.171 13.0759 66.7723 13.0851 65.4183 13.374C64.0643 13.663 62.7836 14.2256 61.655 15.0274C60.5263 15.8292 59.5734 16.8532 58.8547 18.0365C58.1131 17.6276 57.3494 17.2601 56.5671 16.9357C56.2073 14.6534 54.4191 12.4464 54.1668 12.151L53.2539 11.077L52.0349 14.4601C50.934 11.9094 49.6023 9.49291 47.5832 7.96785L46.5092 7.15698L45.4352 13.7513C44.5442 12.5578 43.4904 11.4949 42.3045 10.5938L41.0533 9.62179L40.8117 16.2268C38.1874 17.0162 35.729 18.2773 33.5569 19.9482C31.2356 21.7533 29.3025 24.0082 27.8733 26.5779C26.444 29.1476 25.548 31.9794 25.2388 34.9035L21.4423 60.9854L25.996 64.7443L24.4494 66.7151L27.0646 67.5743L24.0735 70.5815L25.2549 71.0326C34.8671 74.6627 41.5688 78.0833 46.3427 81.7993L46.9495 82.2719L47.4865 81.6919C55.4126 72.6328 62.3881 66.844 72.0487 64.0033L72.4353 63.8852L74.8948 56.19L71.9359 55.6154L73.6489 53.403ZM72.5749 57.5164L71.1465 62.5158C61.5504 65.4263 54.6017 71.1561 46.7186 80.0111C42.0682 76.526 35.7532 73.2933 26.9894 69.9156L30.1362 66.7527L27.4512 65.8667L28.3749 64.5564L23.1875 60.2927L26.8498 35.1022C27.1321 32.3938 27.9582 29.7702 29.2787 27.3887C30.5991 25.0071 32.3866 22.9166 34.5342 21.2424C36.8141 19.4905 39.4297 18.2257 42.2186 17.5264L42.369 17.4888L42.4227 15.7919L42.5301 12.9458C43.3133 13.6763 43.9992 14.5047 44.5706 15.4106C44.7662 15.7307 44.9454 16.0605 45.1076 16.3987L45.3761 16.9357C45.7574 16.8981 46.144 16.8659 46.536 16.8497L46.8099 15.2012L47.6691 10.2017C48.9526 11.7459 49.969 13.4938 50.6763 15.373C50.9072 15.91 51.122 16.447 51.3422 16.984L51.3851 17.1075C51.8362 17.1827 52.2819 17.274 52.7222 17.376L53.2592 15.8295L53.7962 14.3796C54.2098 14.9393 54.5241 15.566 54.7252 16.2322C54.877 16.8205 54.9635 17.4238 54.983 18.0311C55.3052 18.1493 55.6274 18.2728 55.9442 18.407C56.9173 18.823 57.8579 19.3112 58.7581 19.8677L59.5206 20.3295L59.9126 19.5347C60.562 18.2309 61.5343 17.1151 62.737 16.2935C63.9397 15.4718 65.3327 14.9717 66.7833 14.8408C68.234 14.7098 69.694 14.9524 71.0244 15.5454C72.3548 16.1384 73.5112 17.0621 74.3836 18.2285C75.2559 19.3949 75.8152 20.7652 76.0081 22.2089C76.201 23.6527 76.0212 25.1217 75.4857 26.4763C74.9501 27.8308 74.0768 29.0257 72.9488 29.9472C71.8208 30.8687 70.4757 31.4861 69.0415 31.7406L68.177 31.8964L68.3971 32.7502C69.0968 35.4526 69.2555 38.2667 68.8643 41.0306L68.5529 47.4101C68.5025 48.6013 68.7227 49.7884 69.1971 50.8821C69.6714 51.9759 70.3875 52.948 71.2915 53.7252L68.773 56.8452L72.5749 57.5164Z" fill="#372420"/>
<path d="M37.1732 33.9604C37.4671 31.8634 36.2293 29.9564 34.4083 29.7012C32.5874 29.4459 30.8729 30.939 30.5789 33.036C30.2849 35.133 31.5228 37.0399 33.3438 37.2952C35.1647 37.5505 36.8792 36.0574 37.1732 33.9604Z" fill="white"/>
<path d="M34.0026 29.6731C34.1393 29.6729 34.2757 29.6837 34.4107 29.7053C36.2311 29.9577 37.4716 31.8533 37.1762 33.9637C36.9024 35.9022 35.4149 37.3253 33.7556 37.3253C33.6191 37.3243 33.4828 37.3154 33.3474 37.2984C31.527 37.0407 30.2866 35.1504 30.5819 33.0401C30.8558 31.0961 32.3433 29.6731 34.0026 29.6731ZM34.0026 28.5078C31.7418 28.5078 29.7764 30.3873 29.4274 32.8736C29.0407 35.6069 30.7269 38.1093 33.1864 38.453C33.3748 38.4808 33.565 38.4952 33.7556 38.4959C36.0163 38.4959 37.9817 36.6164 38.3361 34.1248C38.7174 31.3915 37.0312 28.8891 34.5772 28.5454C34.3992 28.5208 34.2198 28.5082 34.0402 28.5078H34.0026Z" fill="#372420"/>
<path d="M36.9384 34.9025C37.1447 33.4311 36.3428 32.1024 35.1475 31.9348C33.9521 31.7672 32.8159 32.8242 32.6096 34.2957C32.4033 35.7671 33.2051 37.0958 34.4005 37.2634C35.5959 37.431 36.7321 36.3739 36.9384 34.9025Z" fill="#372420"/>
<path d="M34.1582 33.0456C34.4904 33.0456 34.7596 32.7764 34.7596 32.4442C34.7596 32.112 34.4904 31.8428 34.1582 31.8428C33.826 31.8428 33.5568 32.112 33.5568 32.4442C33.5568 32.7764 33.826 33.0456 34.1582 33.0456Z" fill="white"/>
<path d="M51.1938 36.6981C51.4899 34.6047 50.2565 32.6993 48.4391 32.4422C46.6217 32.1852 44.9084 33.6739 44.6123 35.7674C44.3163 37.8608 45.5496 39.7662 47.3671 40.0232C49.1845 40.2802 50.8978 38.7915 51.1938 36.6981Z" fill="white"/>
<path d="M47.9913 32.3635C48.1272 32.3557 48.2635 32.3557 48.3994 32.3635C50.2145 32.6213 51.4496 34.5115 51.1596 36.6165C50.8857 38.5819 49.4036 40.005 47.7389 40.005C47.604 40.0049 47.4694 39.9941 47.3362 39.9727C45.5158 39.7204 44.2807 37.8248 44.5707 35.7197C44.8445 33.7866 46.332 32.3635 47.9913 32.3635ZM47.9913 31.1929C45.7306 31.1929 43.7652 33.0724 43.4161 35.5586C43.0348 38.2866 44.7156 40.789 47.1751 41.1327C47.3637 41.1585 47.5539 41.1711 47.7443 41.1702C50.005 41.1702 51.9704 39.2961 52.3195 36.8045C52.5058 35.5467 52.2332 34.2639 51.5516 33.1905C51.2244 32.6675 50.7874 32.2218 50.271 31.8843C49.7545 31.5468 49.1709 31.3255 48.5605 31.2358C48.372 31.2082 48.1818 31.1938 47.9913 31.1929Z" fill="#372420"/>
<path d="M50.8904 37.5534C51.0967 36.0819 50.2972 34.7536 49.1048 34.5864C47.9124 34.4192 46.7785 35.4766 46.5722 36.948C46.3659 38.4195 47.1654 39.7478 48.3578 39.915C49.5502 40.0821 50.6841 39.0248 50.8904 37.5534Z" fill="#372420"/>
<path d="M48.2008 35.6555C48.533 35.6555 48.8022 35.3862 48.8022 35.0541C48.8022 34.7219 48.533 34.4526 48.2008 34.4526C47.8686 34.4526 47.5994 34.7219 47.5994 35.0541C47.5994 35.3862 47.8686 35.6555 48.2008 35.6555Z" fill="white"/>
<path d="M34.0079 64.5029C34.8607 65.4466 35.9153 66.1859 37.0932 66.6656C38.2712 67.1453 39.5422 67.3532 40.8117 67.2738C48.974 67.1234 51.326 60.5291 53.2324 60.1425H53.3827C56.7658 59.3155 60.949 56.5607 61.3732 51.5237C61.7276 47.2707 59.7139 43.1734 56.1536 41.7826C51.6536 39.7528 48.9525 43.2379 40.0438 40.7086C32.9608 38.6949 25.663 35.4407 23.2841 35.2205C15.7286 34.1465 9.41892 38.2331 8.97321 46.4974C8.82285 49.2415 9.21486 52.211 10.5198 54.4074C10.8194 53.8854 11.2083 53.4201 11.6689 53.0327C13.0329 58.5798 16.7274 60.9426 20.9428 61.5333L34.0079 64.5029Z" fill="#E9BC6E"/>
<path d="M56.0676 41.7073C54.3546 40.6817 52.2066 41.2187 50.2036 41.5033C58.033 43.7909 58.7204 53.6931 51.5246 60.4055C52.0419 60.21 52.5843 60.0889 53.1356 60.0457H53.2913C56.6744 59.2188 60.8576 56.464 61.2765 51.4216C61.6416 47.1901 58.8063 42.9585 56.0676 41.7073Z" fill="#C87D36"/>
<path d="M24.1648 61.066C21.5174 60.427 19.5359 60.0619 17.1839 58.2092C15.9621 57.2484 14.9539 56.0435 14.2235 54.6715C13.4931 53.2995 13.0565 51.7903 12.9416 50.2402C10.3264 50.7772 9.40281 44.5212 9.86999 42.1531C9.34235 43.5388 9.0396 45 8.97321 46.4813C8.82285 49.2253 9.21486 52.1949 10.5198 54.3912C10.8194 53.8692 11.2083 53.4039 11.6689 53.0165C13.0329 58.5637 16.7274 60.9264 20.9428 61.5171L33.2561 64.331L33.2884 64.2451C32.8588 63.9014 26.6081 61.6514 24.1648 61.066Z" fill="#C87D36"/>
<g style="mix-blend-mode:multiply">
<path d="M24.3957 52.4685C27.7734 51.3945 30.265 48.672 30.1039 44.2901C30.0806 43.1736 29.7877 42.0792 29.2501 41.1003C29.0353 44.0753 26.9196 47.2543 24.7018 49.0693C22.9082 50.5568 20.2984 51.2818 17.7745 51.3301C17.839 51.5073 17.9088 51.6684 17.9786 51.8295C19.3318 52.4632 20.7012 53.1129 24.3957 52.4685Z" fill="#D79E49"/>
</g>
<path d="M40.5538 68.0953C39.255 68.1388 37.9616 67.9073 36.7585 67.4158C35.5554 66.9244 34.4698 66.1842 33.5729 65.2438L20.7763 62.3226C16.0776 61.6513 12.8234 59.02 11.2929 54.6758C11.2607 54.7241 11.2285 54.7724 11.2017 54.8207L10.4875 55.9753L9.8001 54.81C8.5489 52.705 7.96357 49.73 8.14078 46.4329C8.36632 42.4752 9.88065 39.2318 12.5334 37.0516C15.315 34.7586 19.176 33.8296 23.3968 34.4149C24.691 34.5438 27.2417 35.4889 30.469 36.6381C33.4709 37.7121 36.8754 38.9633 40.2907 39.9299C43.5128 40.9151 46.9214 41.1284 50.2412 40.5528C52.3892 40.2682 54.2203 40.0158 56.4865 41.0468C60.2454 42.5021 62.5814 46.8517 62.184 51.5988C61.7329 57.06 57.2651 60.0457 53.5921 60.9479C53.4681 60.9843 53.3462 61.0273 53.2269 61.0767C52.7188 61.4717 52.2528 61.918 51.8361 62.4085C49.9405 64.4867 46.8528 67.9718 40.8116 68.0899L40.5538 68.0953ZM12.1736 51.6417L12.4636 52.8178C13.5913 57.4144 16.4803 60.0672 21.0555 60.7062H21.1253L34.4213 63.7402L34.5932 63.9174C35.3695 64.7745 36.3285 65.4462 37.3992 65.8831C38.4699 66.3199 39.625 66.5107 40.7794 66.4413C46.1064 66.3339 48.8343 63.3053 50.601 61.2969C51.5407 60.2229 52.0616 59.6859 52.9262 59.4282L53.3397 59.2993C56.465 58.4831 60.181 55.9645 60.5569 51.443C60.8898 47.4102 58.9459 43.7425 55.8528 42.5343C53.9733 41.6858 52.4966 41.8792 50.456 42.153C46.9131 42.7558 43.2784 42.526 39.8396 41.4818C36.3706 40.4991 32.9392 39.2533 29.9106 38.1524C26.8819 37.0516 24.3312 36.1279 23.2035 36.0044C19.4069 35.4674 15.997 36.2837 13.5698 38.2867C11.2822 40.1661 9.97731 43.0068 9.81084 46.4973C9.64539 48.6386 9.94206 50.7904 10.6808 52.807C10.844 52.6292 11.0238 52.4674 11.2178 52.3237L12.1736 51.6417Z" fill="#372420"/>
<path d="M29.567 43.0872C29.3253 47.3832 25.1314 52.3665 19.3319 52.1248C15.1218 51.953 11.6904 46.9858 11.8999 43.302C12.1469 39.006 15.5085 36.4338 20.2233 36.5788C24.9381 36.7238 29.814 38.7912 29.567 43.0872Z" fill="#372420"/>
<path d="M21.1147 37.9643C20.498 37.8481 19.8732 37.7799 19.2459 37.7603C15.7984 37.6583 13.339 39.5431 13.1564 42.6845C13.1373 43.0438 13.1589 43.4041 13.2208 43.7585C14.0908 40.2734 17.0711 38.1577 21.1147 37.9643Z" fill="white"/>
<path d="M37.5145 60.3521C35.6352 60.3181 33.7923 59.8279 32.1445 58.9237L32.848 57.5758C36.2955 59.3801 39.641 59.2244 42.0145 57.1516C44.1625 55.3043 45.0593 52.2327 44.2054 49.8431L45.3492 48.9624C46.4232 49.682 48.2061 50.7076 48.2275 50.7184L47.4757 52.0394C47.4274 52.0394 46.7777 51.642 46.0259 51.1856C46.1004 52.5221 45.8676 53.8579 45.3454 55.0904C44.8232 56.3229 44.0254 57.4193 43.0133 58.2954C41.4952 59.633 39.5378 60.3651 37.5145 60.3521Z" fill="#372420"/>
<path d="M46.6648 28.4597L45.172 26.9776C46.1781 25.965 47.4556 25.2651 48.8505 24.9621C50.2454 24.6591 51.6981 24.766 53.0336 25.2699L52.2872 27.2354C51.3316 26.8764 50.2928 26.8009 49.2954 27.0181C48.298 27.2353 47.3846 27.7359 46.6648 28.4597Z" fill="#372420"/>
<path d="M37.9065 28.5186C37.4183 27.6203 36.6801 26.883 35.7813 26.396C34.8825 25.9089 33.8617 25.693 32.8426 25.7745L32.6708 23.6749C34.0927 23.5662 35.5159 23.8702 36.7694 24.5503C38.0229 25.2303 39.0535 26.2577 39.7376 27.509L37.9065 28.5186Z" fill="#372420"/>
<path d="M75.9311 57.4092C71.4526 58.365 51.1166 71.806 46.7454 78.0244C40.6989 74.3299 34.6469 71.806 26.3933 68.5626C20.1266 71.2905 13.7739 74.6951 9.74646 78.9481C12.759 85.2953 17.8014 91.7876 22.3981 97.0233C23.9525 95.7902 25.4235 94.4556 26.8014 93.0281L28.4607 103.102L28.9226 114.943C43.1467 116.365 57.4809 116.287 71.6889 114.712L72.0111 101.384L73.3052 85.6766C77.1286 83.7595 80.7695 80.7631 84.2009 76.9075C81.2259 71.516 77.9878 62.9993 75.9311 57.4092Z" fill="#F2F5F8"/>
<path d="M82.128 73.1807C82.128 73.1807 73.0528 82.0411 68.2413 83.985L67.3553 102.565L67.0546 115.195C68.6226 115.056 70.1727 114.9 71.7049 114.728L72.0271 101.4L73.3213 85.6927C77.1447 83.7756 84.2169 76.9235 84.2169 76.9235L82.128 73.1807Z" fill="#D0D0D0"/>
<path d="M71.7641 101.491C71.6836 104.713 71.3238 109.487 71.6191 114.336C57.4498 116.349 43.0715 116.412 28.885 114.524L28.4286 102.645C42.3582 103.048 56.7551 103.322 71.7641 101.491Z" fill="#2D2F7B"/>
<path d="M71.764 101.491C70.2014 101.684 68.6494 101.845 67.0975 101.99C67.0224 104.804 66.8237 110.367 66.9579 114.926C68.5098 114.755 70.0617 114.561 71.619 114.336C71.3237 109.492 71.6835 104.713 71.764 101.491Z" fill="#22225C"/>
<path d="M19.9977 94.2845L26.0711 89.0273L27.3545 91.2237L26.9249 93.275L22.586 96.8836L19.9977 94.2845Z" fill="#D0D0D0"/>
<path d="M9.42432 79.0925C10.0184 79.5648 10.6368 80.0058 11.277 80.4135C17.1839 75.4409 23.0264 72.5412 28.6273 69.926L28.0903 68.6855C21.1636 70.7037 14.7826 74.2613 9.42432 79.0925Z" fill="white"/>
<path d="M49.3338 116.795C42.4958 116.798 35.662 116.458 28.8582 115.775L28.1493 115.705L27.666 103.204L26.2752 94.7463C25.3301 95.8525 23.6493 97.0929 22.1296 98.226L21.6785 97.689C15.7716 91.0034 11.6045 84.7205 9.02155 79.2862L8.77991 78.7814L9.16654 78.3733C12.6302 74.7056 18.1612 71.2473 26.0658 67.7998L26.3772 67.6656L26.6887 67.7891C34.2066 70.7426 40.468 73.3094 46.5575 76.918C51.8201 70.3559 71.3076 57.5379 75.7808 56.582L76.4735 56.4316L76.7205 57.0975C78.8685 62.9078 82.0422 71.242 84.9527 76.5045L85.2319 77.0147L84.8453 77.4443C81.3817 81.3429 77.7784 84.2802 74.1054 86.1919L72.8488 101.421L72.4944 115.453L71.7855 115.533C64.3314 116.377 56.8355 116.798 49.3338 116.795ZM29.7281 114.218C43.4255 115.544 57.2224 115.47 70.9049 113.998L71.211 101.335L72.5427 85.1716L72.9562 84.9676C76.4306 83.2277 79.8834 80.4837 83.2182 76.8106C80.4527 71.6608 77.5099 64.0301 75.4264 58.4078C69.992 60.3195 51.412 72.8046 47.4167 78.4968L46.9764 79.1251L46.3212 78.7223C40.2478 75.0117 33.9704 72.418 26.4095 69.4484C19.1654 72.6274 14.0586 75.7903 10.7453 79.1143C13.2047 84.1299 17.0013 89.8542 22.3551 95.976C23.7085 94.888 24.9977 93.7226 26.2161 92.4855L27.3492 91.2343L29.2985 103.102L29.7281 114.218Z" fill="#372420"/>
<path d="M73.3643 57.7847C61.5504 62.5317 52.0026 69.5986 46.1601 75.4303C39.786 71.1773 32.8749 67.515 27.9023 66.4571L24.2668 69.1421C32.7138 72.3319 41.2627 77.9811 46.6434 82.175C54.5265 74.2543 65.7658 65.2972 73.9443 62.0323L73.3643 57.7847Z" fill="#D22514"/>
<path d="M69.2724 64.336C70.7819 63.4742 72.3461 62.7118 73.955 62.0538L73.3696 57.7578C71.8016 58.3861 70.2765 59.0627 68.7891 59.7662L69.2724 64.336Z" fill="#A8210C"/>
<path d="M46.7186 83.2868L46.1494 82.8411C43.4967 80.7737 34.0563 73.7122 23.9822 69.9264L22.5861 69.3894L27.7144 65.5713L28.0741 65.6465C32.5419 66.597 39.0664 69.7653 46.0581 74.3727C53.8736 66.9231 63.0371 61.031 73.0582 57.0116L74.0302 56.625L74.8464 62.5642L74.2557 62.8004C66.0505 66.0922 54.7736 75.1782 47.2556 82.7713L46.7186 83.2868ZM25.9423 68.9383C35.0712 72.6597 43.4376 78.7009 46.5844 81.1066C54.0486 73.7014 64.8798 64.9968 73.0529 61.5385L72.6985 58.9395C63.0353 62.9328 54.219 68.7259 46.7186 76.0105L46.2407 76.4831L45.7037 76.1126C38.8624 71.5427 32.4775 68.3637 28.0956 67.3381L25.9423 68.9383Z" fill="#372420"/>
<path d="M13.2906 111.791C13.4305 112.259 13.6767 112.689 14.0102 113.047" stroke="#372420" stroke-width="2.72" stroke-miterlimit="10"/>
<path d="M12.5442 116.216C13.575 116.087 14.5437 115.653 15.3258 114.97" stroke="#372420" stroke-width="2.72" stroke-miterlimit="10"/>
<path d="M15.3258 118.745C16.3695 118.626 17.3433 118.161 18.0913 117.424" stroke="#372420" stroke-width="2.72" stroke-miterlimit="10"/>
<path d="M35.4417 78.9746C34.1586 78.9797 32.9062 79.3676 31.845 80.0888C30.7838 80.81 29.962 81.8317 29.485 83.0228C29.0079 84.2139 28.8974 85.5203 29.1674 86.7747C29.4374 88.0291 30.0758 89.1742 31.0007 90.0636C31.2012 90.0636 31.4053 90.0528 31.6129 90.0313C30.6062 89.1962 29.8999 88.0551 29.6012 86.7816C29.3026 85.5082 29.428 84.172 29.9584 82.9764C30.4888 81.7808 31.3952 80.7911 32.5397 80.1578C33.6842 79.5245 35.0042 79.2824 36.2989 79.4681C37.5936 79.6539 38.7923 80.2574 39.7126 81.1869C40.6329 82.1164 41.2244 83.321 41.3972 84.6176C41.5701 85.9141 41.3148 87.2316 40.6701 88.3697C40.0255 89.5078 39.0268 90.4043 37.8259 90.9228C38.178 90.8432 38.5394 90.8125 38.8999 90.8315C40.0657 90.0785 40.9572 88.9693 41.4419 87.6689C41.9266 86.3685 41.9785 84.9464 41.5899 83.6141C41.2013 82.2819 40.393 81.1106 39.2852 80.2747C38.1775 79.4388 36.8294 78.9828 35.4417 78.9746Z" fill="#D5A73B"/>
<path d="M36.6124 83.3728L37.0527 84.5058C37.536 84.4199 38.03 84.3555 38.4113 84.3286C38.1287 83.4286 37.5638 82.6434 36.8003 82.0894C36.3492 82.2773 36.5157 83.0398 36.6124 83.3728Z" fill="#2D2F7B"/>
<path d="M35.1302 86.3048L36.1075 86.0417L36.8539 85.0805L38.0192 85.1503L38.4059 86.5196L37.7185 86.7935L37.7776 86.9653L38.7173 86.8526L38.6582 86.6539L38.8838 86.5733L38.4434 84.9892V84.5918C36.3928 84.8632 34.3802 85.3695 32.4452 86.1008C32.5121 86.4348 32.5982 86.7647 32.703 87.0888C32.8802 87.0083 33.3366 86.8257 33.5407 86.7505C32.9966 87.0972 32.551 87.578 32.2465 88.1467L32.3915 88.8233L31.9619 89.6073L33.0359 89.661L33.4601 88.8555L33.1272 88.3185C33.3635 87.5608 33.8477 86.9046 34.5019 86.4552L34.9369 86.337C34.2706 86.7952 33.801 87.4872 33.6212 88.2756L34.0562 88.8878L33.6266 89.7147L34.953 89.9456L35.3504 89.1187L34.5449 88.3239C34.5359 87.6078 34.7396 86.9051 35.1302 86.3048Z" fill="#2D2F7B"/>
<path d="M36.7627 84.5651L36.4137 83.5878C36.2096 83.0186 36.0485 82.2238 36.6822 82.009C35.7156 81.3324 34.706 81.1069 34.4536 80.8008H34.416C34.3731 81.4613 31.9727 83.1099 32.413 85.8163C33.8254 85.2784 35.2804 84.8599 36.7627 84.5651Z" fill="#2D2F7B"/>
<path d="M37.5683 85.9232L37.8582 85.3808L36.9829 85.3003L36.5748 85.7836L37.332 85.558L37.0313 85.9178L37.5683 85.9232Z" fill="#2D2F7B"/>
<path d="M39.045 88.818L38.5402 88.0984L38.6154 87.7118L37.5683 87.7816L37.9764 87.5131L38.6745 87.4164L38.5564 87.0083L37.5951 87.1157L36.9346 87.5936L35.0122 87.164L34.937 88.0608L36.0916 89.2476L35.5868 90.8102L36.8809 91.3956L37.7831 90.9821L37.5146 89.4731L38.7712 89.4409L39.045 88.818Z" fill="#2D2F7B"/>
<path d="M36.897 91.0412C34.9118 90.0906 32.699 89.7184 30.5121 89.9672L30.0718 90.6277C31.6452 90.4827 34.4483 90.4666 35.6136 91.0143V91.0841C33.6602 90.8777 31.6899 90.8885 29.7389 91.1164L28.9978 92.2226C30.7643 92.8016 32.6571 92.8779 34.4644 92.4427C36.0217 92.1528 37.3266 91.8037 38.4167 92.3031L39.9042 91.0734C39.2007 90.4236 37.8421 90.6868 36.897 91.0412Z" fill="#D22514"/>
<path d="M39.0341 93.1245C39.0341 93.4094 38.921 93.6825 38.7196 93.8839C38.5182 94.0854 38.245 94.1985 37.9602 94.1985C37.6753 94.1985 37.4021 94.0854 37.2007 93.8839C36.9993 93.6825 36.8862 93.4094 36.8862 93.1245H36.4566C36.4566 93.4094 36.3434 93.6825 36.142 93.8839C35.9406 94.0854 35.6674 94.1985 35.3826 94.1985C35.0977 94.1985 34.8246 94.0854 34.6231 93.8839C34.4217 93.6825 34.3086 93.4094 34.3086 93.1245H33.8844C33.8844 93.4094 33.7712 93.6825 33.5698 93.8839C33.3684 94.0854 33.0952 94.1985 32.8104 94.1985C32.5255 94.1985 32.2524 94.0854 32.0509 93.8839C31.8495 93.6825 31.7364 93.4094 31.7364 93.1245H31.3121C31.3106 93.4508 31.4165 93.7686 31.6133 94.0288C31.8102 94.2891 32.0872 94.4773 32.4016 94.5647C32.7161 94.652 33.0505 94.6335 33.3533 94.512C33.6562 94.3905 33.9107 94.1728 34.0777 93.8924C34.2098 94.1126 34.3968 94.2948 34.6203 94.4214C34.8438 94.5479 35.0962 94.6144 35.353 94.6144C35.6099 94.6144 35.8623 94.5479 36.0858 94.4214C36.3093 94.2948 36.4962 94.1126 36.6284 93.8924C36.7954 94.1728 37.0499 94.3905 37.3527 94.512C37.6556 94.6335 37.99 94.652 38.3044 94.5647C38.6189 94.4773 38.8959 94.2891 39.0927 94.0288C39.2896 93.7686 39.3954 93.4508 39.3939 93.1245H39.0341Z" fill="#2D2F7B"/>
<path d="M36.6983 95.8738C36.4134 95.8738 36.1403 95.7606 35.9388 95.5592C35.7374 95.3578 35.6243 95.0846 35.6243 94.7998H35.2001C35.2001 95.0846 35.0869 95.3578 34.8855 95.5592C34.6841 95.7606 34.4109 95.8738 34.1261 95.8738C33.8412 95.8738 33.568 95.7606 33.3666 95.5592C33.1652 95.3578 33.0521 95.0846 33.0521 94.7998H32.6225C32.5912 95.1464 32.6824 95.493 32.8803 95.7792C33.0782 96.0655 33.3701 96.2733 33.7054 96.3666C34.0407 96.4598 34.398 96.4325 34.7152 96.2895C35.0325 96.1465 35.2895 95.8968 35.4417 95.5838C35.6086 95.8642 35.8632 96.0819 36.166 96.2034C36.4689 96.3249 36.8033 96.3434 37.1177 96.2561C37.4322 96.1688 37.7091 95.9805 37.906 95.7202C38.1029 95.46 38.2087 95.1422 38.2072 94.8159H37.783C37.7788 95.0998 37.6623 95.3705 37.459 95.5687C37.2557 95.767 36.9822 95.8767 36.6983 95.8738Z" fill="#2D2F7B"/>
<path d="M101.771 40.4401C112.697 40.4401 121.554 31.583 121.554 20.6572C121.554 9.73138 112.697 0.874268 101.771 0.874268C90.8455 0.874268 81.9884 9.73138 81.9884 20.6572C81.9884 31.583 90.8455 40.4401 101.771 40.4401Z" fill="#EE7203"/>
<path d="M101.771 40.4401C112.697 40.4401 121.554 31.583 121.554 20.6572C121.554 9.73138 112.697 0.874268 101.771 0.874268C90.8455 0.874268 81.9884 9.73138 81.9884 20.6572C81.9884 31.583 90.8455 40.4401 101.771 40.4401Z" fill="#EE7203"/>
<path d="M82.8799 21.5163C84.3566 12.5485 93.3191 2.52275 104.209 3.41416C107.855 3.71103 111.347 5.01369 114.296 7.17717C117.246 9.34066 119.537 12.2801 120.915 15.6684C120.235 13.0452 119.023 10.5898 117.355 8.45429C115.687 6.31882 113.597 4.54888 111.217 3.25424C108.836 1.95959 106.215 1.16786 103.516 0.928143C100.816 0.688423 98.0965 1.00583 95.525 1.86067C92.9535 2.71552 90.585 4.08957 88.5664 5.89762C86.5479 7.70567 84.9223 9.90915 83.7906 12.3714C82.6588 14.8337 82.045 17.5022 81.9872 20.2115C81.9294 22.9207 82.4288 25.613 83.4545 28.1213C82.9068 26.027 82.504 23.777 82.8799 21.5163Z" fill="#FBBE5E"/>
<path d="M103.382 0.943964C100.42 0.696345 97.4408 1.12226 94.6669 2.18979C99.4733 1.57349 104.339 2.74221 108.341 5.47436C112.343 8.20651 115.203 12.3122 116.38 17.0129C117.556 21.7137 116.967 26.6827 114.724 30.9779C112.481 35.2732 108.739 38.596 104.209 40.3165C109.07 39.7149 113.534 37.3319 116.739 33.6283C119.944 29.9248 121.661 25.1642 121.558 20.2677C121.455 15.3711 119.54 10.6868 116.182 7.12124C112.825 3.55564 108.264 1.36222 103.382 0.965444V0.943964Z" fill="#C05E01"/>
<path d="M101.787 41.3475C101.224 41.3475 100.66 41.3475 100.091 41.2777C97.3847 41.0566 94.7489 40.3047 92.3337 39.065C89.9184 37.8253 87.771 36.122 86.014 34.0524C84.257 31.9827 82.9249 29.5873 82.0937 27.0028C81.2624 24.4184 80.9484 21.6955 81.1695 18.9897C81.3906 16.2839 82.1424 13.6481 83.3822 11.2328C84.6219 8.81758 86.3252 6.67016 88.3948 4.91318C90.4644 3.1562 92.8599 1.82407 95.4443 0.992846C98.0288 0.161621 100.752 -0.152417 103.457 0.0686609C108.88 0.361937 113.969 2.7784 117.623 6.79518C121.277 10.812 123.203 16.106 122.983 21.5318C122.764 26.9576 120.417 32.0788 116.45 35.7873C112.483 39.4957 107.216 41.4932 101.787 41.3475ZM101.761 1.74946C96.8721 1.73976 92.1698 3.62381 88.6404 7.00628C85.1111 10.3888 83.029 15.0067 82.831 19.8912C82.633 24.7757 84.3345 29.5471 87.5785 33.2041C90.8225 36.8611 95.3569 39.1196 100.23 39.5056C100.767 39.5486 101.272 39.5647 101.787 39.5647C106.664 39.5558 111.349 37.6632 114.863 34.2821C118.377 30.901 120.449 26.2929 120.645 21.4203C120.842 16.5477 119.149 11.7875 115.919 8.13397C112.689 4.48041 108.172 2.21607 103.312 1.8139C102.792 1.77094 102.271 1.74946 101.761 1.74946Z" fill="#372420"/>
<path d="M100.037 27.7832C89.4526 27.7832 81.3064 24.5021 81.1292 20.0021L82.8798 19.9323C83.0033 23.1543 90.8863 26.4192 101.991 25.9896C107.13 25.7909 111.931 24.8351 115.508 23.3046C118.789 21.8923 120.631 20.1471 120.566 18.52L122.322 18.4556C122.413 20.8828 120.239 23.1758 116.2 24.8995C112.441 26.5105 107.41 27.5308 102.061 27.7348C101.379 27.7671 100.703 27.7832 100.037 27.7832Z" fill="#372420"/>
<path d="M101.873 41.1004C99.6127 41.1004 97.8299 37.2072 96.9653 34.8659C95.3775 30.325 94.4955 25.5674 94.3502 20.7591C94.1178 16.006 94.6325 11.2458 95.8752 6.65219C96.5679 4.28942 98.0662 0.310281 100.37 0.208252L100.418 1.97497C99.8812 1.97497 98.6246 3.41411 97.5399 7.14086C96.3631 11.5553 95.8848 16.1268 96.1222 20.6892C96.2738 25.3126 97.1192 29.887 98.63 34.2591C100.058 38.1201 101.438 39.3498 101.895 39.3498L101.959 41.1004H101.873Z" fill="#372420"/>
<path d="M95.9611 19.1911H95.3059C89.0016 18.9118 86.4348 12.6666 85.0601 9.31037L86.671 8.6445C88.3733 12.7901 90.5857 17.2364 95.3704 17.4405C100.901 17.6929 104.585 14.3796 108.151 11.1791C110.401 9.15464 112.527 7.24294 115.067 6.1958L115.733 7.80679C113.472 8.74116 111.437 10.5508 109.322 12.4679C105.815 15.6254 101.841 19.1911 95.9611 19.1911Z" fill="#372420"/>
<path d="M112.968 37.4867C111.244 36.9497 109.483 36.2945 107.78 35.6287C104.306 34.2808 100.703 32.8846 97.3894 32.9437C91.9336 33.0511 90.7575 34.0768 90.6233 35.7038L88.8781 35.5589C89.1788 31.8643 93.1311 31.2629 97.3518 31.1877C101.036 31.1179 104.784 32.5732 108.414 33.9855C110.084 34.6352 111.813 35.3065 113.467 35.7951L112.968 37.4867Z" fill="#372420"/>
</svg>
