<svg width="53" height="53" viewBox="0 0 53 53" fill="none" xmlns="http://www.w3.org/2000/svg">
<path opacity="0.15" d="M7.1333 48.5458C7.1333 48.7805 7.62619 49.013 8.58384 49.2298C9.54149 49.4467 10.9451 49.6438 12.7146 49.8098C14.4841 49.9757 16.5848 50.1074 18.8968 50.1972C21.2087 50.2871 23.6867 50.3333 26.1891 50.3333C28.6916 50.3333 31.1695 50.2871 33.4815 50.1972C35.7934 50.1074 37.8941 49.9757 39.6636 49.8098C41.4331 49.6438 42.8368 49.4467 43.7944 49.2298C44.7521 49.013 45.245 48.7805 45.245 48.5458C45.245 48.0717 43.2373 47.6171 39.6636 47.2818C36.09 46.9466 31.2431 46.7583 26.1891 46.7583C21.1352 46.7583 16.2883 46.9466 12.7146 47.2818C9.14096 47.6171 7.1333 48.0717 7.1333 48.5458Z" fill="#45413C"/>
<path d="M9.5166 39.2834H42.8616V44.0501C42.8616 44.9983 42.485 45.9076 41.8145 46.578C41.1441 47.2485 40.2348 47.6251 39.2866 47.6251H13.0916C12.1435 47.6251 11.2341 47.2485 10.5637 46.578C9.89325 45.9076 9.5166 44.9983 9.5166 44.0501V39.2834Z" fill="#BDBEC0" stroke="#45413C" stroke-width="0.5" stroke-linecap="round" stroke-linejoin="round"/>
<path d="M9.5166 36.8999H42.8616V41.6666C42.8616 42.6147 42.485 43.524 41.8145 44.1945C41.1441 44.8649 40.2348 45.2416 39.2866 45.2416H13.0916C12.1435 45.2416 11.2341 44.8649 10.5637 44.1945C9.89325 43.524 9.5166 42.6147 9.5166 41.6666V36.8999Z" fill="#BDBEC0" stroke="#45413C" stroke-width="0.5" stroke-linecap="round" stroke-linejoin="round"/>
<path d="M9.5166 17.8333H42.8616V39.2833C42.8616 40.2314 42.485 41.1407 41.8145 41.8112C41.1441 42.4816 40.2348 42.8583 39.2866 42.8583H13.0916C12.1435 42.8583 11.2341 42.4816 10.5637 41.8112C9.89325 41.1407 9.5166 40.2314 9.5166 39.2833V17.8333Z" fill="white" stroke="#45413C" stroke-width="0.5" stroke-linecap="round" stroke-linejoin="round"/>
<path d="M13.0917 7.72583H39.2867C40.2349 7.72583 41.1442 8.10248 41.8147 8.77292C42.4851 9.44337 42.8617 10.3527 42.8617 11.3008V17.8008H9.51675V11.3333C9.51246 10.8611 9.60176 10.3928 9.7795 9.95525C9.95723 9.51776 10.2199 9.11981 10.5523 8.78439C10.8847 8.44897 11.2802 8.18273 11.7161 8.00104C12.152 7.81935 12.6195 7.72581 13.0917 7.72583Z" fill="#D43024"/>
<path d="M39.2866 7.72585H13.0916C12.619 7.72438 12.1508 7.81692 11.7143 7.9981C11.2777 8.17928 10.8816 8.44547 10.5489 8.78118C10.2162 9.11689 9.95362 9.51542 9.7764 9.95357C9.59918 10.3917 9.51087 10.8607 9.51662 11.3333V14.3125C9.51519 13.8426 9.60668 13.3771 9.78584 12.9427C9.96499 12.5083 10.2283 12.1137 10.5605 11.7814C10.8928 11.4492 11.2875 11.1859 11.7218 11.0067C12.1562 10.8276 12.6217 10.7361 13.0916 10.7375H39.2866C39.7565 10.7361 40.222 10.8276 40.6564 11.0067C41.0908 11.1859 41.4855 11.4492 41.8177 11.7814C42.15 12.1137 42.4132 12.5083 42.5924 12.9427C42.7716 13.3771 42.8631 13.8426 42.8616 14.3125V11.3333C42.8674 10.8607 42.7791 10.3917 42.6018 9.95357C42.4246 9.51542 42.162 9.11689 41.8293 8.78118C41.4967 8.44547 41.1005 8.17928 40.664 7.9981C40.2275 7.81692 39.7593 7.72438 39.2866 7.72585Z" fill="#D43024"/>
<path d="M13.0917 7.72583H39.2867C40.2349 7.72583 41.1442 8.10248 41.8147 8.77292C42.4851 9.44337 42.8617 10.3527 42.8617 11.3008V17.8008H9.51675V11.3333C9.51246 10.8611 9.60176 10.3928 9.7795 9.95525C9.95723 9.51776 10.2199 9.11981 10.5523 8.78439C10.8847 8.44897 11.2802 8.18273 11.7161 8.00104C12.152 7.81935 12.6195 7.72581 13.0917 7.72583Z" stroke="#45413C" stroke-width="0.5" stroke-linecap="round" stroke-linejoin="round"/>
<path d="M16.6558 10.7051C16.3406 10.7023 16.0391 10.5758 15.8163 10.3529C15.5934 10.1301 15.4669 9.82861 15.4641 9.51343V5.91676C15.4641 5.60071 15.5897 5.29761 15.8131 5.07413C16.0366 4.85065 16.3397 4.7251 16.6558 4.7251C16.9718 4.7251 17.2749 4.85065 17.4984 5.07413C17.7219 5.29761 17.8474 5.60071 17.8474 5.91676V9.49176C17.8503 9.65007 17.8216 9.80736 17.763 9.95445C17.7044 10.1015 17.6171 10.2355 17.5062 10.3484C17.3952 10.4614 17.2629 10.5511 17.1169 10.6124C16.9709 10.6736 16.8141 10.7051 16.6558 10.7051ZM26.1891 10.7051C25.8731 10.7051 25.57 10.5795 25.3465 10.3561C25.123 10.1326 24.9974 9.82948 24.9974 9.51343V5.91676C25.0031 5.60448 25.1312 5.30692 25.354 5.0881C25.5769 4.86928 25.8768 4.74671 26.1891 4.74676C26.5014 4.74671 26.8013 4.86928 27.0242 5.0881C27.247 5.30692 27.3751 5.60448 27.3808 5.91676V9.49176C27.3837 9.65007 27.355 9.80736 27.2964 9.95445C27.2378 10.1015 27.1504 10.2355 27.0395 10.3484C26.9286 10.4614 26.7962 10.5511 26.6502 10.6124C26.5042 10.6736 26.3474 10.7051 26.1891 10.7051ZM35.7224 10.7051C35.4064 10.7051 35.1033 10.5795 34.8798 10.3561C34.6563 10.1326 34.5308 9.82948 34.5308 9.51343V5.91676C34.5308 5.60071 34.6563 5.29761 34.8798 5.07413C35.1033 4.85065 35.4064 4.7251 35.7224 4.7251C36.0385 4.7251 36.3416 4.85065 36.5651 5.07413C36.7886 5.29761 36.9141 5.60071 36.9141 5.91676V9.49176C36.9155 9.64968 36.8858 9.80633 36.8267 9.95277C36.7676 10.0992 36.6802 10.2326 36.5696 10.3452C36.4589 10.4579 36.3272 10.5477 36.1818 10.6094C36.0365 10.6712 35.8804 10.7037 35.7224 10.7051Z" fill="#E8F4FA"/>
<path d="M16.6558 4.74658C16.3434 4.74653 16.0436 4.8691 15.8207 5.08792C15.5978 5.30673 15.4698 5.6043 15.4641 5.91658V7.72575C15.4641 7.4097 15.5897 7.10659 15.8131 6.88311C16.0366 6.65963 16.3397 6.53408 16.6558 6.53408C16.9718 6.53408 17.2749 6.65963 17.4984 6.88311C17.7219 7.10659 17.8474 7.4097 17.8474 7.72575V5.91658C17.8418 5.6043 17.7137 5.30673 17.4908 5.08792C17.268 4.8691 16.9681 4.74653 16.6558 4.74658ZM26.1891 4.74658C25.8768 4.74653 25.5769 4.8691 25.354 5.08792C25.1312 5.30673 25.0031 5.6043 24.9974 5.91658V7.72575C24.9974 7.4097 25.123 7.10659 25.3465 6.88311C25.57 6.65963 25.8731 6.53408 26.1891 6.53408C26.5052 6.53408 26.8083 6.65963 27.0317 6.88311C27.2552 7.10659 27.3808 7.4097 27.3808 7.72575V5.91658C27.3751 5.6043 27.247 5.30673 27.0242 5.08792C26.8013 4.8691 26.5014 4.74653 26.1891 4.74658ZM35.7224 4.74658C35.4101 4.74653 35.1102 4.8691 34.8874 5.08792C34.6645 5.30673 34.5365 5.6043 34.5308 5.91658V7.72575C34.5308 7.4097 34.6563 7.10659 34.8798 6.88311C35.1033 6.65963 35.4064 6.53408 35.7224 6.53408C36.0385 6.53408 36.3416 6.65963 36.5651 6.88311C36.7886 7.10659 36.9141 7.4097 36.9141 7.72575V5.91658C36.9084 5.6043 36.7804 5.30673 36.5575 5.08792C36.3346 4.8691 36.0348 4.74653 35.7224 4.74658Z" fill="white"/>
<path d="M16.6558 10.7051C16.3406 10.7023 16.0391 10.5758 15.8163 10.3529C15.5934 10.1301 15.4669 9.82861 15.4641 9.51343V5.91676C15.4641 5.60071 15.5897 5.29761 15.8131 5.07413C16.0366 4.85065 16.3397 4.7251 16.6558 4.7251C16.9718 4.7251 17.2749 4.85065 17.4984 5.07413C17.7219 5.29761 17.8474 5.60071 17.8474 5.91676V9.49176C17.8503 9.65007 17.8216 9.80736 17.763 9.95445C17.7044 10.1015 17.6171 10.2355 17.5062 10.3484C17.3952 10.4614 17.2629 10.5511 17.1169 10.6124C16.9709 10.6736 16.8141 10.7051 16.6558 10.7051ZM26.1891 10.7051C25.8731 10.7051 25.57 10.5795 25.3465 10.3561C25.123 10.1326 24.9974 9.82948 24.9974 9.51343V5.91676C25.0031 5.60448 25.1312 5.30692 25.354 5.0881C25.5769 4.86928 25.8768 4.74671 26.1891 4.74676C26.5014 4.74671 26.8013 4.86928 27.0242 5.0881C27.247 5.30692 27.3751 5.60448 27.3808 5.91676V9.49176C27.3837 9.65007 27.355 9.80736 27.2964 9.95445C27.2378 10.1015 27.1504 10.2355 27.0395 10.3484C26.9286 10.4614 26.7962 10.5511 26.6502 10.6124C26.5042 10.6736 26.3474 10.7051 26.1891 10.7051ZM35.7224 10.7051C35.4064 10.7051 35.1033 10.5795 34.8798 10.3561C34.6563 10.1326 34.5308 9.82948 34.5308 9.51343V5.91676C34.5308 5.60071 34.6563 5.29761 34.8798 5.07413C35.1033 4.85065 35.4064 4.7251 35.7224 4.7251C36.0385 4.7251 36.3416 4.85065 36.5651 5.07413C36.7886 5.29761 36.9141 5.60071 36.9141 5.91676V9.49176C36.9155 9.64968 36.8858 9.80633 36.8267 9.95277C36.7676 10.0992 36.6802 10.2326 36.5696 10.3452C36.4589 10.4579 36.3272 10.5477 36.1818 10.6094C36.0365 10.6712 35.8804 10.7037 35.7224 10.7051Z" stroke="#45413C" stroke-width="0.5" stroke-linecap="round" stroke-linejoin="round"/>
</svg>
