<svg width="98" height="141" viewBox="0 0 98 141" fill="none" xmlns="http://www.w3.org/2000/svg">
<path d="M51.2237 141C76.9862 141 97.8708 138.868 97.8708 136.239C97.8708 133.609 76.9862 131.478 51.2237 131.478C25.4613 131.478 4.57666 133.609 4.57666 136.239C4.57666 138.868 25.4613 141 51.2237 141Z" fill="#B7D9F4"/>
<path d="M46.1995 95.5342L45.1263 98.1681C37.2628 106.161 37.4986 116.811 37.4986 116.811L38.899 115.75L39.2792 119.364L41.0406 118.164L43.6971 125.492C37.5756 126.319 31.4975 128.198 31.4975 134.15C35.1453 136.54 42.672 136.607 55.887 134.15C55.5492 130.32 54.9544 126.518 54.1064 122.768C54.4529 118.771 58.9188 107.853 58.9188 107.853L46.1995 95.5342Z" fill="#9E592A"/>
<path d="M38.899 115.746L39.3129 117.945C39.3129 117.945 39.0771 107.299 46.9406 99.3014L47.8358 97.1073L46.1995 95.5298L45.1263 98.1637C37.2628 106.156 37.4986 116.807 37.4986 116.807L38.899 115.746Z" fill="#C87D36"/>
<path d="M58.9428 107.848L46.1994 95.5342L45.2369 97.8335L55.7281 107.973C55.7281 107.973 51.2381 118.891 50.9156 122.887C51.7636 126.637 52.3585 130.44 52.6962 134.269C48.6415 135.063 44.5442 135.625 40.4245 135.952C44.3755 135.952 49.4671 135.345 55.911 134.145C55.5732 130.316 54.9784 126.513 54.1304 122.763C54.4528 118.766 58.9428 107.848 58.9428 107.848Z" fill="#713915"/>
<path d="M45.3525 127.089L44.2072 125.616C38.3071 126.472 31.3724 127.6 31.9884 134.565C32.4603 134.828 32.9547 135.048 33.4658 135.225C33.4177 128.982 39.6931 127.911 45.3525 127.089Z" fill="#C87D36"/>
<path d="M40.2033 136.717C36.0357 136.717 33.0809 136.072 31.0933 134.805L30.7565 134.585V134.188C30.7565 127.701 37.3206 125.756 42.6962 124.934L40.6701 119.345L38.6778 120.708L38.3024 117.118L36.7913 118.265L36.7624 116.831C36.7624 116.386 36.6084 105.874 44.496 97.7671L45.9397 94.2583L59.8237 107.681L59.636 108.136C59.5927 108.245 55.2759 118.781 54.862 122.72C55.6982 126.466 56.2898 130.262 56.633 134.083L56.7004 134.752L56.0314 134.877C49.4576 136.086 44.2746 136.717 40.2033 136.717ZM32.2435 133.744C35.8432 135.785 43.1389 135.718 55.0834 133.548C54.7461 129.981 54.1803 126.44 53.3894 122.945L53.3605 122.825V122.701C53.6782 119.068 57.2105 110.182 58.0623 108.03L46.4643 96.8205L45.7472 98.5749L45.6462 98.6801C39.8279 104.593 38.5671 112.098 38.3024 115.268L39.4863 114.369L39.8761 118.059L41.4016 117.017L44.6885 126.1L43.7934 126.2C36.0502 127.262 32.4601 129.59 32.2435 133.744Z" fill="#372420"/>
<path d="M32.561 135.283C32.2145 132.759 33.716 130.981 34.6159 129.92L34.741 129.771L35.8575 130.694L35.7276 130.847C34.9383 131.803 33.7448 133.199 34.0047 135.087L32.561 135.283Z" fill="#372420"/>
<path d="M37.3879 136.181L35.9442 136.019C36.2281 133.476 37.1858 131.559 38.7931 130.316L39.6882 131.458C38.4033 132.448 37.6285 134.04 37.3879 136.181Z" fill="#372420"/>
<path d="M60.5598 95.3477L61.5223 99.1337C56.5463 107.15 58.6349 114.541 59.0728 117.342L59.9968 116.658L61.2288 120.004L62.3549 119.048L66.4262 126.314C60.531 127.17 53.962 128.298 54.5732 135.263C58.861 137.711 69.5206 137.797 82.0811 135.263C81.6767 130.88 80.2675 126.646 77.9616 122.887C76.3543 116.061 80.3101 113.049 81.5229 108.068C82.7115 103.235 80.1946 97.6422 77.6729 96.3706L60.5598 95.3477Z" fill="#9E592A"/>
<path d="M67.9229 127.749L63.8515 120.464L63.3703 120.865L66.4117 126.277C60.5165 127.132 53.9475 128.261 54.5587 135.225C55.0306 135.488 55.525 135.709 56.0361 135.885C55.988 129.647 62.2634 128.59 67.9229 127.749Z" fill="#C87D36"/>
<path d="M77.7452 123.179C76.1378 116.352 80.0937 113.341 81.3064 108.36C82.4951 103.527 79.9782 97.9339 77.4564 96.6623L60.3434 95.625L60.3819 95.778L74.3957 96.6241C76.8982 97.8957 79.4151 103.489 78.2457 108.326C77.0281 113.288 73.0771 116.305 74.6845 123.145C76.9828 126.894 78.3916 131.113 78.8039 135.483C73.617 136.57 68.3421 137.19 63.0432 137.338C68.1492 137.553 74.7085 136.965 81.8935 135.512C81.474 131.141 80.0551 126.922 77.7452 123.179Z" fill="#713915"/>
<path d="M65.3673 137.826C60.4057 137.826 56.4691 137.171 54.188 135.871L53.8463 135.675L53.8126 135.288C53.1678 127.945 59.8138 126.516 65.2326 125.699L62.1334 120.173L60.8821 121.248L59.6261 117.849L58.5 118.681L58.3171 117.453C58.2738 117.156 58.2112 116.817 58.139 116.425C57.5423 113.131 56.3055 106.315 60.7041 99.015L59.5876 94.5454L77.8749 95.6544L78.0144 95.7214C80.9308 97.208 83.4525 103.284 82.235 108.26C81.7872 109.88 81.1594 111.444 80.3629 112.926C78.9866 115.722 77.6872 118.366 78.6449 122.596C80.9739 126.42 82.3989 130.718 82.8125 135.168L82.8654 135.823L82.2157 135.952C76.6744 137.12 71.0315 137.748 65.3673 137.826ZM55.2612 134.767C59.5924 136.942 69.6552 136.889 81.2484 134.628C80.7579 130.617 79.4144 126.755 77.307 123.299L77.2348 123.189L77.2059 123.06C76.0702 118.241 77.5669 115.206 79.0106 112.271C79.7565 110.887 80.3456 109.424 80.7672 107.911C81.8788 103.379 79.5544 98.3505 77.4514 97.1172L61.5222 96.1612L62.297 99.2684L62.1334 99.5313C57.8984 106.362 58.9572 112.605 59.578 116.033L60.3287 115.478L61.5318 118.724L62.5328 117.859L67.5859 126.87L66.5127 127.023C59.9918 127.96 55.0061 129.141 55.2804 134.767H55.2612Z" fill="#372420"/>
<path d="M56.0169 136.205C55.5645 133.667 56.9794 131.874 57.8504 130.803L57.9659 130.655L59.1113 131.549L58.9862 131.702C58.2402 132.658 57.1093 134.054 57.451 135.952L56.0169 136.205Z" fill="#372420"/>
<path d="M61.0892 137.052L59.6455 136.951C59.8188 134.389 60.7042 132.458 62.2635 131.215L63.1778 132.338C61.941 133.318 61.2384 134.905 61.0892 137.052Z" fill="#372420"/>
<path d="M19.0188 59.4575C26.1509 62.1393 28.2683 65.7484 28.2683 65.7484C28.2683 65.7484 31.7285 63.798 32.8931 63.4825C36.7767 65.3612 38.9905 72.8567 37.6045 79.9842C35.9298 80.9737 24.9622 80.6725 24.9622 80.6725L26.1364 78.9946L22.9891 79.4344L23.7158 77.8043C19.784 76.6523 13.7684 66.8718 13.7684 66.8718L19.0188 59.4575Z" fill="#9E592A"/>
<path d="M28.6822 78.2489L29.8613 76.2077L25.9776 76.6475L26.3385 75.744C22.4068 74.592 16.757 65.1748 16.757 65.1748L20.4096 60.0216C19.9669 59.8304 19.5049 59.6392 19.0188 59.4575L13.7684 66.8718C13.7684 66.8718 19.784 76.6523 23.7158 77.8043L22.9891 79.4344L26.1364 78.9946L24.9622 80.6725C24.9622 80.6725 35.9298 80.9737 37.6045 79.9842C37.6767 79.597 38.0857 78.1199 38.1627 77.7279C34.3657 78.0481 28.6822 78.2489 28.6822 78.2489Z" fill="#713915"/>
<path d="M28.6726 81.4424C26.9738 81.4424 25.5541 81.409 24.9429 81.3946L23.581 81.3564L24.5724 79.9223L21.7715 80.3095L22.734 78.1727C18.6483 76.1459 13.369 67.613 13.1091 67.2306L12.8589 66.8243L18.7686 58.583L19.2979 58.7838C24.9622 60.9158 27.5754 63.6262 28.5042 64.8022C29.5725 64.2142 31.767 63.0478 32.7247 62.7897L32.9845 62.718L33.2348 62.8327C37.5034 64.8978 39.7893 72.6562 38.336 80.1231L38.2734 80.4434L37.9943 80.6059C36.7864 81.3038 32.152 81.4424 28.6726 81.4424ZM26.3337 79.9797C30.381 80.0418 35.4774 79.9319 36.9596 79.4777C38.0761 73.1008 36.1944 66.1789 32.8257 64.2668C31.3879 64.8933 29.9854 65.5971 28.6245 66.3749L28.0037 66.7287L27.6427 66.112C27.6427 66.0833 25.6263 62.8518 19.2883 60.3374L14.6395 66.896C16.4778 69.8024 21.0593 76.2749 23.9227 77.1115L24.7168 77.3457L24.1874 78.536L27.686 78.058L26.3337 79.9797Z" fill="#372420"/>
<path d="M15.1593 109.986C22.378 110.029 26.3963 109.111 28.2828 108.494C28.6755 108.363 29.0171 108.114 29.2597 107.78C29.5022 107.447 29.6335 107.046 29.6351 106.635L29.6832 98.4028C29.7073 94.8272 23.5811 93.3118 23.5811 93.3118L23.5474 91.8777C23.5263 91.3403 23.2975 90.8317 22.9084 90.4578C22.5194 90.0838 22.0001 89.8733 21.4588 89.87L9.11004 89.7935C8.56162 89.7907 8.0337 90.0003 7.63834 90.3778C7.24299 90.7554 7.01133 91.2711 6.99256 91.8156L6.94443 93.2497C6.94443 93.2497 0.798939 94.6837 0.779689 98.269L0.726752 106.491C0.723326 106.904 0.850652 107.308 1.09073 107.645C1.33081 107.982 1.67149 108.235 2.06461 108.37C3.95109 108.991 7.98874 109.947 15.1593 109.986Z" fill="#463B35"/>
<path d="M15.6405 110.707H15.1592C7.78657 110.664 3.64305 109.627 1.83357 109.015C1.29538 108.834 0.828431 108.489 0.499218 108.029C0.170005 107.569 -0.00468262 107.017 3.19427e-05 106.453L0.0481564 98.2259C0.0481564 94.7745 4.62961 93.1253 6.23215 92.6568L6.25621 91.782C6.27755 91.0516 6.58538 90.3584 7.11403 89.8502C7.64267 89.3421 8.35029 89.0592 9.08593 89.062L21.4347 89.1385C22.1722 89.1397 22.8799 89.4283 23.4055 89.9423C23.931 90.4563 24.2325 91.1547 24.2451 91.8872V92.7763C25.8477 93.2544 30.3858 94.9705 30.3618 98.4219L30.3136 106.654C30.3115 107.217 30.1316 107.765 29.7992 108.221C29.4668 108.677 28.9987 109.019 28.4608 109.197C26.7428 109.756 22.7533 110.707 15.6405 110.707ZM15.1592 109.273C22.3779 109.321 26.3289 108.379 28.047 107.839C28.2962 107.756 28.5129 107.597 28.6666 107.386C28.8202 107.174 28.9031 106.919 28.9036 106.658L28.9517 98.4267C28.9517 95.5011 23.4559 94.0527 23.3982 94.0383L22.8592 93.9093L22.8158 91.935C22.8108 91.5783 22.6646 91.2378 22.4088 90.9874C22.153 90.7369 21.8083 90.5965 21.4491 90.5965L9.10037 90.52C8.74303 90.5121 8.3967 90.6431 8.13513 90.8851C7.87356 91.127 7.71742 91.4609 7.69995 91.8155L7.63257 93.785L7.09358 93.9141C5.53916 94.2821 1.50152 95.7736 1.48708 98.2163L1.44377 106.458C1.4419 106.718 1.52204 106.973 1.67302 107.187C1.824 107.4 2.03827 107.561 2.28594 107.648C4.02324 108.231 7.99351 109.221 15.1641 109.264L15.1592 109.273Z" fill="#372420"/>
<path d="M0.750793 102.514C0.750793 102.514 4.47082 104.65 15.1881 104.713C25.9055 104.775 29.6544 102.686 29.6544 102.686" fill="#463B35"/>
<path d="M15.679 105.439H15.1978C4.39865 105.373 0.543882 103.226 0.385071 103.135L1.11175 101.888C1.15025 101.888 4.87508 103.929 15.1978 103.991C25.6937 104.058 29.2598 102.079 29.2983 102.079L30.0201 103.331C29.8661 103.398 26.1702 105.439 15.679 105.439Z" fill="#372420"/>
<path d="M6.88177 93.2925C6.88177 93.2925 9.03775 94.5306 15.2554 94.5688C21.4731 94.6071 23.6387 93.3929 23.6387 93.3929" fill="#463B35"/>
<path d="M15.5345 95.2904H15.2506C8.9126 95.2522 6.58819 93.971 6.52081 93.9185L7.24268 92.666C7.24268 92.666 9.39384 93.8133 15.2602 93.8468H15.5345C21.2228 93.8468 23.2633 92.776 23.2826 92.7616L23.9996 94.0188C23.9082 94.0714 21.6993 95.2904 15.5345 95.2904Z" fill="#372420"/>
<path d="M15.2555 90.9406C17.0172 91.0115 18.7813 90.8881 20.5155 90.5725C20.8036 90.5173 21.0744 90.3952 21.306 90.2163C21.5375 90.0374 21.7233 89.8067 21.848 89.5429C21.9728 89.2792 22.0331 88.9899 22.024 88.6986C22.0149 88.4074 21.9366 88.1224 21.7956 87.8668C18.3884 81.5903 20.2123 75.156 20.2123 75.156L10.5249 75.0986C10.5249 75.0986 12.2718 81.5568 8.78759 87.7903C8.64464 88.0439 8.56385 88.3274 8.55176 88.6178C8.53967 88.9082 8.59664 89.1973 8.71803 89.4617C8.83942 89.7262 9.02182 89.9585 9.25046 90.1398C9.4791 90.3212 9.74754 90.4465 10.034 90.5056C11.765 90.8489 13.5297 90.9948 15.294 90.9406" fill="#463B35"/>
<path d="M16.1987 91.6814C15.8955 91.6814 15.5827 91.6814 15.2747 91.6814C13.4699 91.7282 11.6654 91.5759 9.89439 91.2273C9.49548 91.1458 9.12153 90.972 8.80294 90.72C8.48434 90.4681 8.23008 90.145 8.06082 89.777C7.89155 89.4091 7.81206 89.0067 7.82878 88.6025C7.84551 88.1983 7.958 87.8037 8.1571 87.4508C11.4488 81.5615 9.84145 75.3614 9.82702 75.2993L9.58158 74.3862L21.1748 74.4532L20.9149 75.3662C20.9149 75.4283 19.2161 81.6093 22.4356 87.5369C22.6317 87.8929 22.7404 88.2899 22.7528 88.6955C22.7651 89.1011 22.6809 89.5039 22.5069 89.8711C22.3328 90.2383 22.074 90.5594 21.7513 90.8084C21.4287 91.0573 21.0514 91.2271 20.6502 91.3037C19.1818 91.5699 17.6912 91.6963 16.1987 91.6814ZM15.2795 90.2186C16.9881 90.2886 18.6991 90.1684 20.3807 89.8601C20.5528 89.8271 20.7145 89.754 20.8525 89.6467C20.9905 89.5395 21.101 89.4013 21.1748 89.2434C21.2535 89.0816 21.2919 88.9033 21.2869 88.7237C21.2819 88.544 21.2335 88.3681 21.1459 88.2109C19.1643 84.4172 18.5156 80.0747 19.3027 75.8729L11.4151 75.8251C12.1538 80.0361 11.4506 84.3716 9.41796 88.1392C9.32995 88.2961 9.28059 88.4714 9.2739 88.6509C9.26721 88.8303 9.30338 89.0088 9.37946 89.1717C9.45281 89.3317 9.56357 89.472 9.70252 89.581C9.84147 89.6899 10.0046 89.7643 10.1783 89.798C11.8541 90.1284 13.5622 90.2695 15.2699 90.2186H15.2795Z" fill="#372420"/>
<path d="M23.5377 74.339V73.1918C23.5401 72.9605 23.4581 72.7362 23.3068 72.5604C23.1555 72.3846 22.9451 72.2692 22.7147 72.2357C20.8642 71.8636 19.08 71.2191 17.421 70.3236L13.3593 70.271C11.6979 71.1483 9.91353 71.7735 8.06565 72.1258C7.83263 72.1561 7.61884 72.2701 7.46459 72.4462C7.31034 72.6223 7.22629 72.8484 7.22828 73.0818V74.2243C7.22212 74.4434 7.2919 74.6579 7.42594 74.8319C7.55998 75.0059 7.75014 75.129 7.96458 75.1804C12.8346 76.3902 17.9256 76.423 22.811 75.276C23.0204 75.2234 23.2059 75.1025 23.3377 74.9325C23.4695 74.7626 23.5399 74.5535 23.5377 74.339Z" fill="#463B35"/>
<path d="M15.6693 76.8286C13.0129 76.8195 10.367 76.4986 7.78648 75.8725C7.41375 75.783 7.08249 75.5708 6.84658 75.2705C6.61066 74.9702 6.48397 74.5994 6.48712 74.2185V73.076C6.48941 72.674 6.6361 72.2861 6.90078 71.982C7.16546 71.6779 7.53074 71.4776 7.93085 71.4173C9.69665 71.0801 11.4026 70.4857 12.9935 69.6533L13.1572 69.5625L17.6231 69.5912L17.7867 69.682C19.3665 70.535 21.0644 71.152 22.8254 71.5129C23.2275 71.5765 23.5937 71.7803 23.8582 72.0878C24.1228 72.3953 24.2685 72.7863 24.2691 73.1908V74.3428C24.2682 74.7198 24.1402 75.0856 23.9056 75.3819C23.6709 75.6782 23.3432 75.888 22.9746 75.9777C20.5816 76.5457 18.1296 76.8313 15.6693 76.8286ZM13.5374 71.0109C11.8528 71.8827 10.0479 72.5029 8.1811 72.8513C8.1202 72.8582 8.06382 72.8866 8.02229 72.9314C7.98075 72.9762 7.95684 73.0343 7.95491 73.0951V74.2329C7.95281 74.2874 7.96922 74.3411 8.00151 74.3853C8.0338 74.4295 8.08009 74.4617 8.13297 74.4767C12.8853 75.6509 17.8508 75.6837 22.6184 74.5723C22.6705 74.5575 22.7162 74.5261 22.7484 74.4828C22.7806 74.4396 22.7975 74.387 22.7965 74.3332V73.186C22.7969 73.1247 22.7745 73.0655 22.7337 73.0196C22.6928 72.9737 22.6364 72.9445 22.5751 72.9374C20.7106 72.566 18.912 71.9216 17.2381 71.0253L13.5374 71.0109Z" fill="#372420"/>
<path d="M15.4481 71.2986C20.0727 71.2986 23.8217 67.5746 23.8217 62.9808C23.8217 58.3871 20.0727 54.6631 15.4481 54.6631C10.8234 54.6631 7.0744 58.3871 7.0744 62.9808C7.0744 67.5746 10.8234 71.2986 15.4481 71.2986Z" fill="#463B35"/>
<path d="M15.4481 72.0196H15.4C12.9864 72.0126 10.6745 71.0536 8.9728 69.3534C7.27112 67.6532 6.31907 65.3512 6.32609 62.9537C6.33311 60.5563 7.29862 58.2598 9.01023 56.5695C10.7218 54.8792 13.0393 53.9335 15.4529 53.9405H15.5106C17.9221 53.9556 20.2291 54.9205 21.9253 56.6232C23.6214 58.326 24.5683 60.6276 24.558 63.0231C24.5428 65.4135 23.5764 67.701 21.8698 69.3864C20.1631 71.0718 17.8547 72.0184 15.4481 72.0196ZM15.4481 55.3841C13.42 55.3778 11.4724 56.172 10.0338 57.592C8.5952 59.012 7.78342 60.9416 7.77704 62.9561C7.77066 64.9707 8.5702 66.9053 9.99977 68.3343C11.4293 69.7632 13.3719 70.5696 15.4 70.5759H15.4481C17.4683 70.576 19.4066 69.7824 20.8401 68.3684C22.2736 66.9543 23.0859 65.0345 23.0999 63.0278C23.1068 62.0299 22.9158 61.0404 22.5376 60.1159C22.1595 59.1913 21.6016 58.3499 20.8959 57.6396C20.1902 56.9293 19.3506 56.3641 18.4249 55.9763C17.4992 55.5884 16.5056 55.3856 15.501 55.3793L15.4481 55.3841Z" fill="#372420"/>
<path d="M23.196 93.3118L23.1624 91.8777C23.1451 91.3724 22.9439 90.8904 22.5961 90.5212C22.2483 90.152 21.7775 89.9206 21.2711 89.87C21.483 89.5864 21.6088 89.2484 21.6336 88.896C21.6583 88.5436 21.5809 88.1915 21.4106 87.8814C18.6435 82.7856 19.3268 77.5846 19.683 75.8111C20.5941 75.6773 21.5053 75.5036 22.4164 75.2901C22.6309 75.2386 22.821 75.1156 22.9551 74.9416C23.0891 74.7675 23.1589 74.553 23.1527 74.334V73.1867C23.1552 72.9554 23.0732 72.7311 22.9219 72.5553C22.7705 72.3795 22.5602 72.2642 22.3298 72.2307C20.8292 71.9425 19.3731 71.4603 17.9986 70.7966C19.837 70.1179 21.3773 68.8198 22.3508 67.1286C23.3244 65.4373 23.6694 63.4603 23.3257 61.5423C22.982 59.6242 21.9714 57.8869 20.4702 56.6332C18.969 55.3795 17.0724 54.689 15.1111 54.6821C14.603 54.6811 14.0958 54.7243 13.5952 54.8112C15.4036 55.132 17.0557 56.0346 18.2968 57.38C19.5378 58.7253 20.2991 60.4387 20.4633 62.2562C20.6274 64.0736 20.1853 65.8943 19.2051 67.4376C18.2249 68.9809 16.761 70.1612 15.0389 70.7966C16.4133 71.4608 17.8695 71.9429 19.3702 72.2307C19.5993 72.2678 19.808 72.384 19.9594 72.5589C20.1108 72.7338 20.1953 72.9561 20.1979 73.1867V74.334C20.2041 74.553 20.1343 74.7675 20.0002 74.9416C19.8662 75.1156 19.676 75.2386 19.4616 75.2901C18.5536 75.5036 17.6441 75.6773 16.7329 75.8111C16.3768 77.5846 15.6886 82.7856 18.4606 87.8814C18.6291 88.1923 18.705 88.5444 18.6794 88.8965C18.6538 89.2487 18.5279 89.5863 18.3162 89.87C18.8256 89.9209 19.2989 90.1541 19.6478 90.5262C19.9967 90.8983 20.1974 91.3838 20.2123 91.8921L20.2412 93.3262C20.2412 93.3262 26.3675 94.8415 26.3482 98.4172L26.2953 106.649C26.2967 107.059 26.169 107.459 25.9299 107.794C25.6909 108.128 25.3525 108.38 24.9622 108.513C23.2538 109.073 19.7696 109.876 13.7637 109.99H14.7743C21.9929 110.033 26.0113 109.116 27.8978 108.499C28.2905 108.368 28.6321 108.118 28.8746 107.785C29.1172 107.451 29.2485 107.051 29.2501 106.639L29.2982 98.4076C29.3223 94.8272 23.196 93.3118 23.196 93.3118Z" fill="#372420"/>
<path d="M4.19646 108.231C3.80334 108.096 3.46266 107.843 3.22258 107.506C2.9825 107.168 2.85518 106.765 2.8586 106.352L2.91154 98.1251C2.91154 94.5494 9.07629 93.1058 9.07629 93.1058L9.12441 91.6717C9.1435 91.1609 9.34961 90.6746 9.70403 90.3041C10.0585 89.9335 10.5368 89.7042 11.0494 89.6592C10.8423 89.3727 10.7214 89.0336 10.701 88.6815C10.6805 88.3294 10.7613 87.9788 10.9339 87.6705C13.778 82.5843 13.138 77.3499 12.8059 75.5955C11.9012 75.4569 11.0013 75.2752 10.0965 75.0601C9.88208 75.0087 9.69192 74.8857 9.55788 74.7116C9.42384 74.5376 9.35406 74.3231 9.36022 74.104V72.9615C9.36022 72.4835 9.30728 71.8812 9.78372 71.8047C11.2958 71.5324 12.765 71.0631 14.1534 70.4088C11.0013 69.1994 9.18697 66.3599 9.21103 62.8034C9.22393 60.7537 9.9983 58.7809 11.3856 57.2635C12.7729 55.746 14.6754 54.7909 16.7281 54.5812C16.4612 54.5525 16.1929 54.5381 15.9244 54.5382C13.9659 54.5273 12.0655 55.1986 10.5537 56.4354C9.04187 57.6723 8.01437 59.3964 7.64987 61.3079C7.28538 63.2193 7.60695 65.1973 8.55865 66.8976C9.51036 68.598 11.032 69.9131 12.8589 70.6144C11.4705 71.2686 10.0012 71.738 8.48917 72.0102C8.25615 72.0406 8.04236 72.1546 7.88811 72.3307C7.73386 72.5068 7.64981 72.7329 7.6518 72.9663V74.1088C7.64589 74.3285 7.71635 74.5435 7.85134 74.7176C7.98632 74.8918 8.17758 75.0144 8.39292 75.0649C9.29285 75.28 10.1976 75.4616 11.0975 75.6003C11.4296 77.3546 12.06 82.5891 9.23028 87.6753C9.0554 87.9829 8.9733 88.3339 8.99378 88.6865C9.01426 89.0391 9.13646 89.3784 9.34578 89.6639C8.83323 89.709 8.35485 89.9383 8.00042 90.3088C7.646 90.6794 7.4399 91.1657 7.4208 91.6764L7.37268 93.1105C7.37268 93.1105 1.232 94.5446 1.20794 98.1299L1.15981 106.357C1.15604 106.769 1.28267 107.172 1.52183 107.509C1.761 107.846 2.10064 108.1 2.49286 108.235C4.38415 108.871 8.42179 109.842 15.5923 109.885C16.0736 109.885 16.5548 109.885 16.9879 109.885C10.0099 109.808 6.05407 108.857 4.19646 108.231Z" fill="#AAA5A4"/>
<path d="M15.6405 110.707H15.1592C7.78657 110.664 3.64305 109.627 1.83357 109.015C1.29538 108.834 0.828431 108.489 0.499218 108.028C0.170005 107.568 -0.00468262 107.017 3.19427e-05 106.453L0.0481564 98.2256C0.0481564 94.7742 4.62961 93.1298 6.23215 92.6565L6.25621 91.7817C6.27339 91.2619 6.43543 90.757 6.72431 90.3232C7.01318 89.8894 7.41756 89.5437 7.89245 89.3247C7.7358 88.6905 7.82694 88.0209 8.14751 87.4508C9.97691 84.0555 10.6361 80.1584 10.0244 76.3557C9.27362 76.2266 8.51806 76.0736 7.77695 75.8777C7.4038 75.7889 7.07204 75.5769 6.83599 75.2764C6.59994 74.976 6.47358 74.6048 6.47759 74.2237V73.0812C6.47988 72.6792 6.62657 72.2912 6.89125 71.9871C7.15593 71.683 7.52121 71.4828 7.92132 71.4224C8.8553 71.2653 9.77105 71.0155 10.6548 70.6767C9.32596 69.8597 8.23012 68.718 7.47187 67.3606C6.71363 66.0032 6.31829 64.4754 6.32359 62.923C6.33631 60.5351 7.3002 58.2494 9.00456 56.5653C10.7089 54.8813 13.0151 53.936 15.4191 53.936H15.4769C17.4701 53.9375 19.4077 54.589 20.992 55.7903C22.5764 56.9917 23.7198 58.6765 24.2467 60.586C24.7736 62.4955 24.6548 64.524 23.9086 66.3599C23.1624 68.1958 21.83 69.7376 20.1161 70.7484C20.9963 71.0946 21.9086 71.354 22.8399 71.5228C23.2429 71.5846 23.6102 71.7879 23.8751 72.0957C24.14 72.4036 24.285 72.7957 24.2836 73.2007V74.3527C24.2836 74.7299 24.1559 75.0962 23.9211 75.3926C23.6864 75.6891 23.3581 75.8987 22.9891 75.9876C22.2384 76.1645 21.478 76.3174 20.7128 76.4417C20.0602 80.2283 20.672 84.123 22.4549 87.532C22.759 88.1032 22.8346 88.7674 22.6667 89.3916C23.1386 89.6154 23.5388 89.9649 23.8226 90.4012C24.1064 90.8376 24.2627 91.3436 24.274 91.863V92.7521C25.8766 93.2302 30.4147 94.9463 30.3906 98.3977L30.3425 106.629C30.3404 107.193 30.1604 107.741 29.8281 108.197C29.4957 108.653 29.0276 108.994 28.4897 109.173C26.7428 109.756 22.7533 110.707 15.6405 110.707ZM15.4432 55.3845C13.4234 55.3857 11.4861 56.1806 10.0543 57.5957C8.6225 59.0108 7.81245 60.9311 7.80101 62.9374C7.79908 64.4774 8.26524 65.9822 9.1385 67.2548C10.0118 68.5274 11.2514 69.5084 12.6953 70.0696L14.2978 70.6815L12.7338 71.3985C11.2845 72.0729 9.75222 72.555 8.17638 72.8326C8.11548 72.8395 8.0591 72.8679 8.01757 72.9126C7.97603 72.9574 7.95212 73.0155 7.9502 73.0764V74.2141C7.94809 74.2687 7.9645 74.3224 7.99679 74.3666C8.02908 74.4108 8.07537 74.4429 8.12826 74.4579C9.00893 74.6682 9.89924 74.8451 10.7799 74.9837L11.2852 75.0602L11.3815 75.5622C11.7665 77.5986 12.344 82.8999 9.43243 88.12C9.32658 88.309 9.27715 88.5241 9.28994 88.7399C9.30272 88.9558 9.37719 89.1636 9.50462 89.339L10.2457 90.3668L8.97525 90.4815C8.64126 90.5116 8.32982 90.6618 8.09943 90.9038C7.86904 91.1459 7.73554 91.4632 7.72401 91.7961L7.65664 93.7656L7.11283 93.8946C5.55841 94.2627 1.52558 95.7542 1.51114 98.1969L1.44377 106.457C1.44045 106.718 1.52003 106.974 1.6712 107.188C1.82238 107.401 2.03747 107.562 2.28594 107.648C4.01361 108.231 7.98388 109.22 15.1544 109.263C22.325 109.306 26.3241 108.369 28.0422 107.829C28.2914 107.746 28.5081 107.588 28.6617 107.376C28.8154 107.164 28.8983 106.91 28.8988 106.649L28.9469 98.4168C28.9469 95.955 24.9429 94.4157 23.3933 94.0285L22.8543 93.8946L22.811 91.9252C22.8035 91.5914 22.6737 91.2719 22.4461 91.0264C22.2184 90.7809 21.9084 90.6262 21.5742 90.5914L20.3037 90.4672L21.0593 89.4442C21.1902 89.2717 21.2681 89.0653 21.2834 88.8498C21.2988 88.6343 21.2511 88.4191 21.1459 88.23C18.3018 82.9716 18.9418 77.7133 19.3461 75.6721L19.4471 75.1941L19.9284 75.1176C20.8235 74.9885 21.7234 74.8164 22.5945 74.6109C22.6474 74.597 22.6942 74.566 22.7273 74.5226C22.7605 74.4793 22.7781 74.4263 22.7773 74.3719V73.2246C22.7767 73.1636 22.754 73.1049 22.7133 73.0593C22.6727 73.0136 22.6168 72.9841 22.556 72.976C20.9807 72.6755 19.4529 72.1675 18.013 71.4654L16.4634 70.734L18.0756 70.1365C19.7519 69.5162 21.1562 68.3317 22.0442 66.7892C22.9323 65.2467 23.2478 63.4438 22.9359 61.6941C22.624 59.9444 21.7045 58.3587 20.3372 57.2129C18.97 56.067 17.2416 55.4336 15.4528 55.4227L15.4432 55.3845Z" fill="#372420"/>
<path d="M12.6952 58.7598C11.0541 59.5724 10.4622 60.4616 10.2504 62.1921C10.0772 63.6261 10.6017 65.8442 12.1369 66.3987C10.9579 63.5305 12.7288 59.8306 15.7174 58.9271C15.2627 58.664 14.7518 58.5117 14.2265 58.4827C13.7012 58.4536 13.1764 58.5485 12.6952 58.7598Z" fill="white"/>
<path d="M5.43815 95.161C4.51909 95.581 3.80338 96.3434 3.44579 97.2835C2.96455 98.3256 3.29179 99.5971 4.32647 99.8744C3.91741 98.1057 5.50071 95.8255 7.53156 95.2662C6.93482 95.1275 5.95308 94.9363 5.43815 95.161Z" fill="white"/>
<path d="M10.2361 72.3164C9.5383 72.5076 9.10037 72.5984 8.79237 73.2103C8.72606 73.3483 8.69041 73.4988 8.68783 73.6517C8.68526 73.8046 8.71582 73.9562 8.77744 74.0963C8.83907 74.2364 8.93031 74.3617 9.04498 74.4637C9.15966 74.5657 9.29508 74.642 9.44205 74.6874C9.21105 73.6692 10.3179 72.5554 11.4681 72.2351C11.0563 72.1756 10.6364 72.2033 10.2361 72.3164Z" fill="white"/>
<path d="M3.9318 60.7383C2.34369 62.1724 1.8047 63.6065 3.16181 65.8006C4.40342 67.8084 6.5979 67.4355 7.31014 65.9775C7.92613 64.7346 7.84913 63.5873 6.74708 62.6313" fill="#9E592A"/>
<path d="M4.65852 66.9247C3.3014 64.7353 3.8404 63.2821 5.42369 61.8575L6.80005 62.7801C6.71152 62.6802 6.61668 62.586 6.51612 62.4981L3.70084 60.6099C2.11754 62.044 1.57855 63.478 2.93566 65.677C3.12165 66.0124 3.37683 66.3049 3.6845 66.5356C3.99217 66.7662 4.3454 66.9298 4.72108 67.0155C4.70183 66.9916 4.67776 66.9677 4.65852 66.9247Z" fill="#C87D36"/>
<path d="M5.36108 67.9143C4.78071 67.8918 4.21606 67.7206 3.72193 67.4174C3.2278 67.1142 2.82099 66.6892 2.54099 66.1838C1.12131 63.8844 1.39562 62.0393 3.44091 60.2036L4.4034 61.2744C2.88748 62.6224 2.72867 63.7267 3.7826 65.4237C3.93688 65.7292 4.17312 65.9864 4.46525 66.1669C4.75738 66.3474 5.09404 66.4442 5.43808 66.4467C5.69544 66.4334 5.94453 66.3519 6.15947 66.2107C6.37442 66.0695 6.5474 65.8737 6.66044 65.6436C7.17056 64.6015 7.05025 63.851 6.2562 63.1435L7.21869 62.0679C8.10418 62.8662 8.95598 64.2382 7.95018 66.2794C7.72357 66.7424 7.37566 67.1364 6.94297 67.4198C6.51027 67.7033 6.00875 67.8658 5.49102 67.8904L5.36108 67.9143Z" fill="#372420"/>
<path d="M8.18122 54.7397C2.47366 55.9874 2.95972 63.7506 6.63162 63.1005C9.14853 62.6225 8.79722 60.9828 9.2159 59.2763" fill="#9E592A"/>
<path d="M8.33993 56.3263L7.94531 54.6245C2.57943 55.7957 2.69493 62.751 5.79414 62.9948C4.83647 61.1353 5.44284 57.7269 8.33993 56.3263Z" fill="#C87D36"/>
<path d="M6.20325 63.8459C4.75952 63.8459 3.60453 62.7847 3.25322 61.0542C2.94778 59.4937 3.27782 57.8766 4.17095 56.5576C5.06407 55.2385 6.44739 54.325 8.01754 54.0176L8.33035 55.4278C7.1387 55.6572 6.08662 56.3452 5.40335 57.3418C4.72008 58.3384 4.46099 59.5628 4.68252 60.7483C4.76914 61.188 5.16376 62.5982 6.50162 62.3544C8.00792 62.082 8.10898 61.4271 8.3111 60.1316C8.36404 59.7874 8.41698 59.4337 8.50841 59.0608L9.92327 59.4002C9.84627 59.7157 9.79334 60.036 9.74521 60.3563C9.54309 61.6756 9.28803 63.3201 6.7615 63.779C6.57777 63.8176 6.39096 63.84 6.20325 63.8459Z" fill="#372420"/>
<path d="M13.3257 55.9297C12.0841 56.6324 13.0659 58.1669 10.6019 58.9317C9.6394 59.2233 8.46517 58.6784 7.83955 57.8275C6.80006 56.3934 8.23417 53.2097 9.52391 52.3493C10.6238 51.571 11.9131 51.099 13.2584 50.9821C15.6646 50.8196 17.2383 52.6887 19.2787 54.0893C22.4261 56.2452 25.8862 58.9795 26.4974 60.8773C27.9123 65.0123 25.0248 68.3585 22.4165 66.7571C20.1402 65.323 22.633 61.7139 22.633 61.7139C23.6869 59.5245 18.3596 53.095 13.3257 55.9297Z" fill="#9E592A"/>
<path d="M23.9275 64.8405C22.3394 65.4619 22.4838 64.9457 22.0025 64.8787C21.117 64.7544 21.6705 64.482 21.0641 63.9227C22.0266 65.0604 20.9775 66.1216 22.4501 66.3128C22.9024 66.3797 23.2152 67.5318 24.7985 66.9104C25.9583 66.4323 27.6379 63.0861 27.0604 61.7954C26.8383 61.3093 26.4611 60.9095 25.9872 60.6577C26.3915 61.958 25.0488 64.3959 23.9275 64.8405Z" fill="#713915"/>
<path d="M11.0157 53.4966C12.1138 52.715 13.4041 52.2426 14.7502 52.1294C15.7915 52.0825 16.82 52.3727 17.681 52.9564C16.2372 51.8187 14.8705 50.7527 13.0322 50.8817C11.6858 50.9938 10.3952 51.4663 9.2977 52.2489C8.00796 53.1046 6.56904 56.3122 7.61334 57.7224C8.01758 58.2644 8.59407 58.6551 9.24958 58.8314C8.38815 57.3638 9.76932 54.3236 11.0157 53.4966Z" fill="#C87D36"/>
<path d="M23.7879 67.8799C23.1647 67.8739 22.5558 67.6933 22.0313 67.3589C21.7166 67.1697 21.4446 66.9179 21.2326 66.6192C21.0206 66.3206 20.8731 65.9816 20.7993 65.6236C20.424 63.8453 21.7089 61.7994 21.9928 61.3548C22.2142 60.7812 21.6848 59.218 20.1063 57.76C19.346 57.0573 16.6366 54.8918 13.6865 56.5649C13.4411 56.7035 13.3689 56.8948 13.2294 57.3106C12.9839 58.0468 12.6519 59.0555 10.8231 59.6243C9.63446 59.9924 8.1041 59.4044 7.25711 58.2571C7.01781 57.8852 6.85727 57.4687 6.78528 57.0332C6.7133 56.5976 6.73138 56.152 6.83843 55.7236C7.11755 54.1413 8.09929 52.4395 9.12434 51.7559C10.3297 50.9098 11.7397 50.3967 13.2101 50.2693C15.3324 50.1211 16.8628 51.3257 18.345 52.4873C18.7829 52.8267 19.2353 53.1805 19.6973 53.496C24.1103 56.5219 26.6368 58.9312 27.2143 60.6664C28.2105 63.6254 27.2143 66.0634 25.8043 67.1724C25.2331 67.6299 24.5216 67.8796 23.7879 67.8799ZM15.9965 54.495C17.9183 54.5578 19.7432 55.3479 21.0977 56.7035C22.7291 58.2093 23.9852 60.5278 23.2874 62.0145L23.2344 62.1101C22.8735 62.6359 21.9928 64.2421 22.2238 65.3272C22.256 65.4952 22.3243 65.6543 22.4239 65.7937C22.5236 65.9331 22.6523 66.0495 22.8013 66.1351C23.1149 66.3476 23.49 66.452 23.8691 66.4321C24.2482 66.4123 24.6102 66.2693 24.8995 66.0251C25.862 65.2555 26.5983 63.3864 25.8332 61.111C25.5637 60.3127 24.3028 58.4149 18.8647 54.6863C18.3835 54.3421 17.9022 53.974 17.421 53.6202C16.0398 52.5399 14.8415 51.603 13.2871 51.7081C12.0736 51.8239 10.912 52.2542 9.9184 52.9558C9.31203 53.3573 8.47466 54.6958 8.25329 55.9722C8.12071 56.4533 8.17929 56.9667 8.41691 57.4062C8.89816 58.042 9.78365 58.4292 10.3756 58.2476C11.4873 57.8986 11.6364 57.4636 11.8193 56.8565C11.8918 56.5367 12.0285 56.2348 12.2211 55.9686C12.4138 55.7025 12.6585 55.4777 12.9406 55.3077C13.8693 54.7738 14.9236 54.4935 15.9965 54.495Z" fill="#372420"/>
<path d="M35.6699 17.9499C39.7949 17.9499 43.1388 14.6283 43.1388 10.5309C43.1388 6.43343 39.7949 3.11182 35.6699 3.11182C31.5449 3.11182 28.201 6.43343 28.201 10.5309C28.201 14.6283 31.5449 17.9499 35.6699 17.9499Z" fill="#9E5429"/>
<path d="M28.9035 12.6633C28.8168 10.9359 29.371 9.23698 30.461 7.88834C31.551 6.53969 33.1011 5.63503 34.8177 5.34573C36.5343 5.05644 38.2981 5.40261 39.7749 6.31867C41.2518 7.23473 42.339 8.65704 42.8307 10.3161C42.6524 8.48604 41.7628 6.79712 40.351 5.60804C38.9392 4.41896 37.1164 3.8234 35.2696 3.94786C33.4229 4.07231 31.6977 4.90696 30.4605 6.27456C29.2233 7.64215 28.5715 9.43495 28.6436 11.2722C28.6737 11.8427 28.7722 12.4076 28.9372 12.9549C28.9228 12.8449 28.9083 12.7541 28.9035 12.6633Z" fill="#C87D36"/>
<path d="M35.3186 3.12175C33.6851 3.20062 32.1228 3.81028 30.8719 4.857C32.3523 4.90687 33.7926 5.34699 35.0452 6.13224C36.2978 6.91749 37.3176 8.01958 37.9999 9.32548C38.6822 10.6314 39.0025 12.0941 38.928 13.5635C38.8534 15.0329 38.3867 16.4562 37.5757 17.6874C39.3547 17.2158 40.8956 16.1081 41.9027 14.577C42.9097 13.0459 43.312 11.1993 43.0321 9.39157C42.7523 7.58388 41.8101 5.94257 40.3865 4.78273C38.9628 3.62289 37.1581 3.02627 35.3186 3.10741V3.12175Z" fill="#713915"/>
<path d="M37.1955 18.5286C36.819 18.6002 36.4378 18.6449 36.0549 18.6624C33.9373 18.7621 31.8633 18.0413 30.2702 16.652C28.677 15.2626 27.689 13.3132 27.5143 11.2145C27.3397 9.11576 27.992 7.03165 29.3339 5.4013C30.6758 3.77095 32.6024 2.72169 34.7078 2.47461C36.8132 2.22753 38.9329 2.80194 40.6204 4.07678C42.3078 5.35163 43.4311 7.22736 43.7536 9.30872C44.0761 11.3901 43.5727 13.5145 42.3493 15.2344C41.1259 16.9543 39.2782 18.1353 37.1955 18.5286ZM34.4187 3.95342C33.149 4.1923 31.9752 4.78887 31.0373 5.672C30.0995 6.55513 29.4371 7.68754 29.1291 8.93423C28.8212 10.1809 28.8807 11.4893 29.3006 12.7033C29.7205 13.9173 30.483 14.9858 31.4972 15.7813C32.5114 16.5768 33.7345 17.0658 35.0208 17.19C36.307 17.3142 37.6021 17.0683 38.7515 16.4816C39.901 15.895 40.8563 14.9924 41.5037 13.8814C42.151 12.7704 42.463 11.4979 42.4025 10.2156C42.3636 9.33562 42.1502 8.47191 41.7745 7.67402C41.3989 6.87613 40.8683 6.15975 40.2133 5.56597C39.5583 4.97219 38.7918 4.51269 37.9576 4.21383C37.1234 3.91496 36.2381 3.7826 35.3523 3.82435C35.0384 3.8452 34.7264 3.88834 34.4187 3.95342Z" fill="#372420"/>
<path d="M75.6372 39.5383C73.6497 38.6682 73.2888 35.8144 72.9711 33.6776L72.1867 25.6897C72.0688 23.1342 71.4424 20.6273 70.3435 18.3137C71.6689 17.8142 72.8436 16.986 73.7556 15.908C74.6677 14.8301 75.2869 13.5382 75.5542 12.1553C75.8215 10.7724 75.728 9.34463 75.2827 8.00778C74.8375 6.67093 74.0551 5.46953 73.0103 4.51792C71.9654 3.56631 70.6927 2.89617 69.3133 2.57128C67.934 2.2464 66.4939 2.27757 65.1301 2.66185C63.7663 3.04612 62.5243 3.7707 61.5221 4.76662C60.52 5.76254 59.7911 6.99666 59.4048 8.35151C58.3644 7.97343 57.2939 7.68242 56.2046 7.4815C55.7233 5.52635 53.4326 3.65725 53.4326 3.65725L52.8792 7.17078H52.6867C51.1948 4.8093 49.472 2.31876 47.162 1.17627L47.3064 7.83046C46.1583 6.33851 44.6751 5.1337 42.9752 4.31215L43.7115 9.22153C40.2884 10.8461 37.4431 13.4655 35.5524 16.7325C33.6617 19.9995 32.8148 23.76 33.1241 27.5158L34.0866 50.3513L38.9808 53.0235L37.9125 54.6966L40.6363 54.9691L38.4659 58.1432C46.3631 59.5295 53.4663 61.3508 58.8562 64.1043C63.9189 55.5666 65.8872 52.5933 74.5641 48.1858L77.1916 42.4495L74.2368 42.1435L75.6372 39.5383Z" fill="#9E5429"/>
<path d="M59.9102 61.3173C54.6165 58.5973 47.6192 56.7903 39.8519 55.4136L38.3649 57.5886C46.2669 58.9701 53.3701 60.7914 58.7552 63.5497L59.9102 61.3173Z" fill="#713915"/>
<path d="M44.7558 10.5978L44.366 9.05371C37.6526 12.3187 32.5274 19.427 33.1289 27.63L33.2059 29.3127C33.6864 29.3939 34.1572 29.5237 34.6112 29.6999L34.5631 28.5956C33.9567 20.3974 38.0425 13.8627 44.7558 10.5978Z" fill="#C87D36"/>
<path d="M67.0711 2.63367C65.2847 2.71809 63.5895 3.44257 62.2995 4.67301C61.0095 5.90344 60.212 7.55649 60.0546 9.3261C60.2278 9.38825 60.3914 9.45039 60.5358 9.51731C60.9489 7.96959 61.8603 6.59856 63.131 5.61337C64.4017 4.62817 65.962 4.08288 67.5738 4.06067C69.1856 4.03846 70.7605 4.54056 72.0582 5.49037C73.3559 6.44018 74.3053 7.78557 74.7614 9.32132C74.5934 7.43731 73.7 5.69034 72.2674 4.44448C70.8347 3.19861 68.9733 2.54995 67.0711 2.63367Z" fill="#C87D36"/>
<path d="M75.2667 39.6049C73.2744 38.7397 72.9134 35.8859 72.6006 33.7491L71.8306 25.7564C71.7122 23.2025 71.0858 20.6972 69.9875 18.3851C71.119 17.9655 72.1448 17.3057 72.9933 16.4518C73.8418 15.598 74.4926 14.5706 74.9004 13.4413C75.3082 12.3119 75.4631 11.1079 75.3544 9.91297C75.2457 8.71807 74.876 7.56109 74.2709 6.52269C73.6659 5.48429 72.8402 4.58945 71.8513 3.90054C70.8625 3.21163 69.7342 2.74523 68.5453 2.53385C67.3563 2.32247 66.1353 2.3712 64.9673 2.67663C63.7992 2.98207 62.7123 3.53686 61.7822 4.30235C62.4813 4.18275 63.1929 4.15223 63.8997 4.21152C65.7337 4.38357 67.4555 5.16539 68.7865 6.43043C70.1175 7.69546 70.9797 9.36967 71.2336 11.182C71.4875 12.9944 71.1182 14.8388 70.1854 16.4167C69.2527 17.9947 67.8112 19.2137 66.0942 19.8766C67.1702 22.1507 67.7835 24.6134 67.8989 27.1235L68.6544 35.0015C68.9672 37.1001 69.2993 39.9252 71.2435 40.7809L69.4918 44.8394L72.8605 44.9732L71.667 47.306C63.8083 51.2928 61.5994 55.7863 56.8447 63.3392C57.3978 63.5871 57.9361 63.8664 58.4568 64.1757C63.5243 55.6381 65.4926 52.66 74.1695 48.2525L76.7923 42.5161L73.8422 42.215L75.2667 39.6049Z" fill="#713915"/>
<path d="M51.0937 7.9638C51.1563 7.9638 52.0562 7.93033 52.1429 7.93511L52.6241 7.7917C51.3488 5.93694 49.2794 2.92535 47.4363 2.01709L47.4748 3.74756C48.9221 4.92988 50.1473 6.35731 51.0937 7.9638Z" fill="#713915"/>
<path d="M54.7175 8.00279C55.6174 8.05537 56.6425 8.14141 56.6425 8.14141C56.1612 6.18627 53.755 4.48926 53.755 4.48926L53.6588 5.88511C54.2189 6.46859 54.588 7.20688 54.7175 8.00279Z" fill="#713915"/>
<path d="M45.8145 9.17356L47.3641 8.55212C46.5652 7.85898 44.289 5.68393 43.2302 5.15332L43.4997 6.9316C44.4012 7.53399 45.1855 8.29356 45.8145 9.17356Z" fill="#713915"/>
<path d="M63.8179 11.4728L62.4079 11.5398C62.3525 10.6568 62.4966 9.77266 62.8296 8.95215C63.1627 8.13164 63.6763 7.39552 64.3329 6.79769C65.2135 6.06631 66.792 5.30624 69.3282 5.84163L69.025 7.21358C66.9412 7.84936 65.2376 9.3217 63.8179 11.4728Z" fill="#372420"/>
<path d="M76.6527 39.1985L75.9261 38.8878C74.1599 38.1134 73.9722 35.4842 73.6931 33.5817L72.9231 25.6272C72.8112 23.2401 72.2684 20.8923 71.3205 18.6958C73.0954 17.8514 74.5413 16.4505 75.4352 14.709C75.9987 13.6234 76.333 12.435 76.4176 11.2165C76.5022 9.99799 76.3353 8.77518 75.9272 7.62303C75.5191 6.47088 74.8784 5.41368 74.0444 4.51626C73.2103 3.61884 72.2005 2.90011 71.0768 2.40415C69.9532 1.90819 68.7394 1.64546 67.5099 1.63206C66.2803 1.61866 65.061 1.85488 63.9267 2.32624C62.7924 2.79759 61.7669 3.49414 60.9132 4.37317C60.0595 5.2522 59.3956 6.29518 58.9622 7.43816C58.2496 7.19916 57.5232 7.00282 56.787 6.85018C56.0988 4.93806 54.169 3.30319 53.8995 3.09286L52.937 2.29455L52.4269 5.43043C51.0409 3.39402 49.4768 1.52014 47.4652 0.525834L46.3921 0L46.5172 5.89412C45.5431 5.00746 44.4499 4.25937 43.2688 3.67128L42.0127 3.03072L42.879 8.81489C40.7164 9.92831 38.7772 11.4253 37.157 13.2319C35.4233 15.1768 34.1033 17.4497 33.2763 19.9142C32.4493 22.3786 32.1324 24.9837 32.3445 27.5728L33.307 50.8099L37.8981 53.31L36.6084 55.3177L39.2937 55.5902L37.1762 58.6879L38.2831 58.8791C47.2776 60.4566 53.6829 62.3257 58.4665 64.7684L59.0777 65.0791L59.4242 64.4959C64.8526 55.3416 66.8738 52.8941 74.824 48.85L75.1416 48.6875L78.0002 41.713L75.4256 41.3927L76.6527 39.1985ZM75.5555 43.2427L73.1493 47.7027C65.2472 51.7994 63.9719 54.1896 58.5387 63.1574C53.9043 60.8964 47.8599 59.1229 39.6546 57.6314L41.8828 54.376L39.1156 54.0988L39.9723 52.7603L34.7411 49.8921L33.7786 27.4246C33.5815 25.0292 33.8728 22.619 34.6352 20.338C35.3976 18.057 36.6154 15.9523 38.2157 14.1497C39.9168 12.2564 41.9924 10.7316 44.3131 9.67057L44.4382 9.60842L44.2746 8.16955L43.8992 5.67901C44.7028 6.18735 45.4385 6.79447 46.0889 7.48596C46.3151 7.73454 46.5268 7.99268 46.7241 8.25559L47.0514 8.69538C47.3786 8.59978 47.7107 8.50895 48.0475 8.43247L48.0187 6.96013L47.9224 2.48576C49.2984 3.61403 50.4745 4.96321 51.4018 6.47732C51.6906 6.90755 51.9697 7.34256 52.2488 7.78234L52.3066 7.87795C52.7108 7.87795 53.1199 7.87795 53.5193 7.87795L53.7503 6.44386L53.9669 5.10537C54.4165 5.51739 54.7924 6.00233 55.0785 6.53946C55.3067 7.02598 55.481 7.53569 55.5983 8.0596C55.9015 8.10741 56.1998 8.16477 56.4982 8.22691C57.4142 8.41586 58.315 8.6715 59.1932 8.99176L59.9295 9.26424L60.1412 8.51373C60.4922 7.27642 61.1563 6.14899 62.0702 5.23884C62.9841 4.32868 64.1174 3.66612 65.3621 3.31427C66.6068 2.96242 67.9215 2.933 69.1809 3.22881C70.4403 3.52463 71.6025 4.13582 72.5567 5.00417C73.511 5.87252 74.2255 6.9691 74.6323 8.18945C75.039 9.4098 75.1244 10.7133 74.8803 11.9757C74.6362 13.2381 74.0708 14.4174 73.2379 15.4013C72.4051 16.3852 71.3324 17.1409 70.1223 17.5963L69.3908 17.8736L69.7276 18.5763C70.7823 20.8055 71.3841 23.2194 71.4986 25.6798L72.2782 33.7394C72.5958 35.8762 72.822 38.7396 74.6844 39.8009L73.0001 42.9176L75.5555 43.2427Z" fill="#372420"/>
<path d="M52.4679 27.7268C54.1007 27.6518 55.3539 26.0772 55.2669 24.2101C55.1799 22.3429 53.7857 20.8901 52.1528 20.9651C50.52 21.0402 49.2669 22.6147 49.3539 24.4819C49.4409 26.3491 50.8351 27.8019 52.4679 27.7268Z" fill="white"/>
<path d="M52.5134 20.9658C53.986 21.1045 55.1843 22.4764 55.2661 24.2021C55.3527 26.0712 54.1015 27.6439 52.4701 27.7204C52.3483 27.7276 52.2261 27.7276 52.1043 27.7204C50.6606 27.5865 49.4382 26.2098 49.3564 24.4841C49.2698 22.6198 50.521 21.0423 52.1525 20.9706C52.2726 20.961 52.3933 20.961 52.5134 20.9706M52.6096 19.9476C52.4494 19.9367 52.2886 19.9367 52.1284 19.9476C49.9291 20.048 48.2303 22.1083 48.341 24.5415C48.4469 26.7596 50.035 28.5713 52.0321 28.7577C52.202 28.7697 52.3724 28.7697 52.5423 28.7577C54.7415 28.6573 56.4403 26.597 56.3248 24.1638C56.2238 21.9458 54.6357 20.134 52.6337 19.9524L52.6096 19.9476Z" fill="#372420"/>
<path d="M51.8218 27.8928C52.8918 27.8436 53.7097 26.7412 53.6486 25.4305C53.5875 24.1198 52.6706 23.0971 51.6007 23.1463C50.5307 23.1955 49.7128 24.2979 49.7739 25.6086C49.835 26.9193 50.7519 27.942 51.8218 27.8928Z" fill="#372420"/>
<path d="M52.1525 23.9206C52.4475 23.9206 52.6867 23.683 52.6867 23.39C52.6867 23.0969 52.4475 22.8594 52.1525 22.8594C51.8575 22.8594 51.6183 23.0969 51.6183 23.39C51.6183 23.683 51.8575 23.9206 52.1525 23.9206Z" fill="white"/>
<path d="M39.8711 28.9304C41.5013 28.8554 42.7524 27.2832 42.6655 25.4186C42.5786 23.5541 41.1866 22.1033 39.5565 22.1783C37.9263 22.2532 36.6752 23.8255 36.7621 25.69C36.849 27.5546 38.2409 29.0053 39.8711 28.9304Z" fill="white"/>
<path d="M39.9433 22.1853C41.4111 22.3192 42.6046 23.6911 42.6864 25.412C42.773 27.2764 41.5218 28.8491 39.8952 28.9256C39.775 28.9329 39.6545 28.9329 39.5343 28.9256C38.0905 28.7917 36.8682 27.4198 36.7863 25.6941C36.6997 23.8297 37.951 22.2618 39.5776 22.1853C39.6993 22.1757 39.8216 22.1757 39.9433 22.1853ZM40.0396 21.1576C39.8697 21.148 39.6993 21.148 39.5294 21.1576C38.9821 21.1877 38.4478 21.3354 37.9635 21.5904C37.4791 21.8454 37.0562 22.2017 36.7238 22.6347C36.0364 23.5232 35.6947 24.6281 35.7613 25.7467C35.8624 27.9599 37.4457 29.7717 39.4476 29.9581C39.6079 29.969 39.7686 29.969 39.9289 29.9581C42.1282 29.8577 43.8221 27.7974 43.7115 25.369C43.6056 23.1557 42.0223 21.3488 40.0251 21.1623L40.0396 21.1576Z" fill="#372420"/>
<path d="M39.3864 28.9502C40.4564 28.901 41.2743 27.8007 41.2134 26.4926C41.1524 25.1845 40.2356 24.164 39.1657 24.2132C38.0957 24.2624 37.2777 25.3627 37.3387 26.6707C37.3996 27.9788 38.3164 28.9994 39.3864 28.9502Z" fill="#372420"/>
<path d="M39.515 25.0583C39.81 25.0583 40.0492 24.8207 40.0492 24.5277C40.0492 24.2346 39.81 23.9971 39.515 23.9971C39.22 23.9971 38.9808 24.2346 38.9808 24.5277C38.9808 24.8207 39.22 25.0583 39.515 25.0583Z" fill="white"/>
<path d="M44.905 51.7855C45.8049 52.4604 46.8462 52.9256 47.9516 53.1465C49.0571 53.3675 50.1984 53.3385 51.2911 53.0619C58.4039 51.5848 59.3712 45.4899 60.969 44.8302H61.1181C63.9334 43.5586 67.1337 40.4897 66.6717 36.0488C66.2819 32.3058 63.8516 29.0791 60.5118 28.4528C56.2479 27.4299 54.4673 30.8908 46.291 30.1546C39.7557 29.5619 32.8546 27.9461 30.7323 28.1326C23.966 28.4528 19.1247 33.0133 20.092 40.2411C20.4193 42.6312 21.247 45.16 22.7485 46.8475C22.9257 46.3465 23.1877 45.8793 23.5233 45.466C25.6263 50.0551 29.2453 51.4987 33.0183 51.3218L44.905 51.7855Z" fill="#E9BC6E"/>
<path d="M60.4155 28.4143C58.7504 27.8072 56.965 28.6198 55.2614 29.1934C62.48 29.8962 64.7082 38.3716 59.53 45.37C59.9544 45.1148 60.4129 44.9201 60.8919 44.7916H61.0267C63.8419 43.52 67.0422 40.4463 66.5754 36.0054C66.1856 32.2576 63.0094 29.0357 60.4155 28.4143Z" fill="#C87D36"/>
<path d="M35.742 50.418C33.3358 50.2985 31.5312 50.308 29.1586 49.0891C27.9393 48.4531 26.8664 47.5723 26.0081 46.5025C25.1498 45.4326 24.5249 44.1972 24.1729 42.8747C21.9736 43.7638 20.1353 38.4959 20.1545 36.3687C19.9238 37.6554 19.8995 38.9703 20.0823 40.2646C20.4096 42.6548 21.2373 45.1835 22.7388 46.871C22.916 46.37 23.178 45.9028 23.5136 45.4895C25.6167 50.0786 29.2356 51.5222 33.0086 51.3454L44.2216 51.7708C44.2239 51.7438 44.2239 51.7166 44.2216 51.6895C43.7933 51.441 37.9798 50.5279 35.742 50.418Z" fill="#C87D36"/>
<g style="mix-blend-mode:multiply">
<path d="M34.5389 42.922C37.3157 41.4592 39.0338 38.6675 38.1772 34.8959C37.9698 33.9323 37.5324 33.0322 36.9019 32.2715C37.205 34.8911 35.8816 37.984 34.2646 39.92C32.9412 41.507 30.7997 42.5444 28.5908 43.0224C28.6726 43.1658 28.7592 43.2949 28.8458 43.4239C30.1019 43.749 31.4157 44.0884 34.5389 42.922Z" fill="#D79E49"/>
</g>
<path d="M51.2189 53.8313C50.0945 54.0803 48.9299 54.0907 47.8012 53.8617C46.6725 53.6327 45.6052 53.1695 44.6692 52.5024L33.0134 52.0578C28.7977 52.249 25.5253 50.4946 23.4752 46.9763L23.4174 47.1197L22.9891 48.2336L22.195 47.3253C20.7513 45.7048 19.7503 43.2238 19.3653 40.3317C18.8841 36.866 19.6878 33.8018 21.6416 31.4786C23.6965 29.0358 26.9064 27.5922 30.689 27.4153C31.844 27.3101 34.2214 27.6973 37.2291 28.1849C40.0348 28.6391 43.2062 29.141 46.3439 29.4374C49.3202 29.7644 52.3322 29.391 55.1362 28.3475C56.9554 27.7499 58.505 27.2384 60.6754 27.7547C64.174 28.4048 66.9316 31.7893 67.3839 35.9721C67.8652 40.7811 64.4965 44.0986 61.4069 45.4849C61.4069 45.4849 61.2384 45.5757 61.1085 45.657C60.7293 46.0827 60.397 46.5474 60.1171 47.0433C58.837 49.1514 56.6955 52.684 51.4547 53.7739L51.2189 53.8313ZM23.7302 44.2085L24.1778 45.1646C25.9151 48.9649 28.8795 50.7958 32.9749 50.5998H33.0375L45.1504 51.0778L45.3237 51.2021C46.144 51.8181 47.093 52.2436 48.1007 52.4471C49.1085 52.6506 50.1494 52.627 51.1467 52.3781C55.7763 51.422 57.6387 48.3483 58.8466 46.3167C59.4915 45.2506 59.8621 44.6961 60.5647 44.3137L60.9064 44.132C63.5051 42.9179 66.33 40.1214 65.9161 36.1394C65.5456 32.5876 63.2548 29.7242 60.3433 29.184C58.5579 28.7538 57.3067 29.184 55.5694 29.7385C52.5774 30.8354 49.3701 31.2281 46.1995 30.8858C43.0233 30.5942 39.823 30.0779 36.9981 29.6382C34.1732 29.1984 31.7911 28.7777 30.7997 28.8685C27.3973 29.0263 24.5435 30.3026 22.7629 32.4155C21.0786 34.4232 20.4048 37.1002 20.8139 40.1596C21.0231 42.0444 21.6386 43.8623 22.6185 45.4897C22.7264 45.3075 22.8538 45.1376 22.9987 44.9829L23.7302 44.2085Z" fill="#372420"/>
<path d="M37.5083 33.9402C37.9896 37.7023 35.1599 42.7073 30.0587 43.4482C26.3531 43.9788 22.5416 40.2454 22.1374 37.0187C21.6561 33.2566 24.1586 30.4745 28.2973 29.8482C32.436 29.222 37.0126 30.1781 37.5083 33.9402Z" fill="#372420"/>
<path d="M47.2871 47.6166C45.6468 47.8878 43.9648 47.7632 42.3832 47.2533L42.773 45.9674C46.0839 46.9665 48.9762 46.2877 50.7087 44.1031C52.2583 42.1527 52.5567 39.3228 51.421 37.4107L52.2679 36.4546C53.3122 36.9039 55.0544 37.5015 55.0736 37.5063L54.6309 38.773C54.5875 38.773 53.9571 38.5436 53.2256 38.295C53.5141 39.4407 53.5339 40.6368 53.2836 41.7913C53.0333 42.9458 52.5195 44.0278 51.7819 44.954C50.6658 46.3621 49.0648 47.3105 47.2871 47.6166Z" fill="#372420"/>
<path d="M48.4084 19.7428L46.7097 18.6434C47.4684 17.5009 48.5435 16.6006 49.8055 16.051C51.0674 15.5014 52.4624 15.326 53.8225 15.5457L53.4952 17.5343C52.5233 17.3771 51.5263 17.5018 50.624 17.8936C49.7217 18.2853 48.9524 18.9274 48.4084 19.7428Z" fill="#372420"/>
<path d="M41.5073 20.4978C40.9977 19.7531 40.2825 19.1703 39.4477 18.8192C38.6129 18.4682 37.6938 18.3639 36.8008 18.5188L36.4783 16.6927C37.7263 16.4744 39.0112 16.6191 40.1784 17.1093C41.3455 17.5995 42.3451 18.4143 43.0569 19.4557L41.5073 20.4978Z" fill="#372420"/>
<path d="M29.0817 31.1533C28.5218 31.182 27.9651 31.2539 27.4166 31.3684C24.4136 31.9851 22.6715 34.1123 23.1623 36.8467C23.2201 37.1621 23.3137 37.47 23.4415 37.7645C23.4752 34.5951 25.6167 32.1524 29.0817 31.1533Z" fill="white"/>
<path d="M57.0372 107.022C56.7777 109.403 56.7181 111.801 56.8591 114.192C63.4041 114.426 74.4149 116.018 80.1032 115.746C80.9743 112.041 84.7809 102.882 78.7413 94.741L42.9993 94.1865L42.8886 95.6206C40.4824 100.487 38.6344 105.468 37.9655 108.733C41.8154 110.927 53.8032 112.968 56.5607 113.547C56.5062 111.348 56.6236 109.149 56.9121 106.969L57.0372 107.022Z" fill="#D22514"/>
<path d="M39.8856 109.259C40.5545 105.994 42.4217 101.018 44.8087 96.1465L44.9194 94.7124L79.0878 95.243C78.9771 95.0805 78.8712 94.9227 78.7509 94.765L43.0089 94.2104L42.8982 95.6445C40.4919 100.511 38.644 105.492 37.975 108.757C39.4476 109.593 42.0945 110.406 44.9627 111.147C43.2059 110.704 41.5033 110.071 39.8856 109.259Z" fill="#E77F6E"/>
<path d="M78.7412 94.7504L75.6949 94.7026C81.0368 102.667 77.4178 111.434 76.5756 115.024L80.1031 115.755C80.9742 112.05 84.7808 102.891 78.7412 94.7504Z" fill="#A8210C"/>
<path d="M55.9159 112.892L52.8937 112.634C53.7118 110.172 54.4914 108.069 55.2999 105.941L56.4164 106.19L55.9159 112.892Z" fill="#A8210C"/>
<path d="M78.6883 116.51C75.3196 116.51 70.7671 116.08 66.3444 115.664C62.8121 115.329 59.4722 115.019 56.8302 114.923L56.1613 114.894L56.1324 114.23C55.7426 114.149 55.2229 114.048 54.6117 113.933C50.1938 113.083 40.9973 111.319 37.6093 109.392L37.1281 109.134L37.2339 108.623C37.9029 105.343 39.7845 100.31 42.1522 95.4623L42.3062 93.4785L79.0926 94.0474L79.3092 94.3342C84.7809 101.72 82.4757 109.899 81.2341 114.287C81.0513 114.928 80.8973 115.477 80.7914 115.936L80.6663 116.467H80.1176C79.6893 116.5 79.2033 116.51 78.6883 116.51ZM57.143 113.503C59.7032 113.628 63.2163 113.919 66.4792 114.225C71.2627 114.674 76.2003 115.143 79.5305 115.057C79.6268 114.698 79.7375 114.311 79.8578 113.886C81.0946 109.502 83.1495 102.203 78.3659 95.4671L43.673 94.9269L43.6008 95.8304L43.543 95.9547C41.3197 100.486 39.5295 105.171 38.7932 108.384C42.3111 110.1 51.1467 111.864 55.295 112.686C55.379 110.764 55.5734 108.849 55.8773 106.949L55.988 106.137L57.4318 106.338L57.3548 107.169C57.1165 109.272 57.0457 111.39 57.143 113.503Z" fill="#372420"/>
<path d="M80.8779 48.4911C82.7307 51.9424 80.8779 91.6238 80.5314 96.4519C68.0672 98.4979 54.294 97.3745 41.7287 96.2081C41.6324 93.2873 40.5304 86.4563 39.4668 80.8442C38.6439 81.0976 36.974 80.7773 34.7121 80.9063C32.6283 74.7015 30.9536 68.358 29.712 64.0558C32.2385 62.0098 35.6217 59.6196 38.8556 59.4189L54.8618 63.9984L76.7103 47.5732L80.8779 48.4911Z" fill="#F4F6F8"/>
<path d="M77.4804 82.6995C77.3216 86.8345 77.2879 91.2515 77.2831 93.7755C78.3755 93.6464 79.4679 93.4982 80.5459 93.3214C80.5459 91.4379 80.5459 87.6376 80.7721 82.3267C79.6412 82.4701 78.5488 82.5944 77.4804 82.6995Z" fill="#CDCFD0"/>
<path d="M40.6942 85.9214C41.4593 90.3289 41.9598 93.8281 42.0368 96.1178C54.6214 97.3272 68.024 98.594 80.5364 96.462C80.5364 94.4973 80.5364 90.5392 80.7626 84.9893C65.7044 87.0018 53.1103 86.1365 40.6942 85.9214Z" fill="#2A2C73"/>
<path d="M33.7401 77.7559L38.8846 76.7568L39.4332 80.0266L38.5718 80.7054L34.7555 81.2503L33.7401 77.7559Z" fill="#D0D0D0"/>
<path d="M77.4804 85.3769C77.3216 89.5166 77.2879 93.9336 77.2831 96.4529C78.3755 96.3238 79.4679 96.1804 80.5459 96.0035C80.5459 94.0914 80.5459 90.3149 80.7721 85.0088C79.6412 85.1379 78.5488 85.2621 77.4804 85.3769Z" fill="#22225C"/>
<path d="M29.7506 64.3191C30.3185 65.0888 30.7997 65.5955 30.7997 65.5955C34.0866 62.9233 37.311 61.9242 40.03 60.4997L38.7403 58.8218C35.8672 60.5905 32.9268 61.1068 29.7506 64.3191Z" fill="white"/>
<path d="M65.0692 98.3073C57.4944 98.3073 49.6453 97.6667 41.6614 96.9306L41.0214 96.8732V96.2326C40.93 93.4935 39.9097 87.064 38.8991 81.6622C38.4949 81.6622 38.0232 81.6622 37.4554 81.6383C36.556 81.5923 35.6549 81.5923 34.7556 81.6383L34.2022 81.6718L34.0241 81.146C32.4119 76.3322 31.0356 71.4324 29.9287 67.4934C29.6063 66.327 29.2983 65.2419 29.0191 64.2619L28.8844 63.8078L29.2598 63.5066C31.666 61.5515 35.2898 58.9271 38.8317 58.7263H38.9568L39.0772 58.7598L54.6936 63.2341L76.5469 46.8281L81.3593 47.8941L81.5133 48.1857C83.5586 52.01 81.4652 93.5987 81.2534 96.5338L81.2101 97.1026L80.6423 97.1982C75.4902 97.9879 70.2819 98.3588 65.0692 98.3073ZM42.4218 95.549C55.5117 96.7489 68.2165 97.6428 79.8434 95.8263C80.3246 88.1778 81.7684 53.6066 80.3487 49.1179L76.8837 48.353L54.9871 64.7925L38.7932 60.1508C35.8769 60.3851 32.7584 62.541 30.5447 64.3193C30.7901 65.175 31.0259 66.1071 31.3291 67.0966C32.3879 70.8779 33.6968 75.553 35.2272 80.1612C36.0934 80.1373 36.8682 80.1612 37.5083 80.1947C38.0884 80.2515 38.6734 80.2387 39.2504 80.1564L40.03 79.9174L40.1792 80.711C41.1032 85.5678 42.2053 92.155 42.4218 95.549Z" fill="#372420"/>
<path d="M38.2975 56.0774C44.0724 57.5832 47.5518 58.4676 52.7589 60.5614C57.4317 55.4799 72.6776 46.7367 76.8211 44.7051L80.878 47.5302C74.1406 52.1671 58.3124 61.5939 53.1054 66.422C45.1215 62.6217 38.0713 60.155 34.8806 59.2755L38.2975 56.0774Z" fill="#D22514"/>
<path d="M53.245 67.2972L52.7926 67.0821C44.3708 63.1001 37.4505 60.7434 34.6882 59.9929L33.4273 59.6487L38.0906 55.27L38.6199 55.4086C44.1879 56.8427 47.6144 57.7605 52.576 59.7109C57.682 54.4956 72.5429 45.9866 76.518 44.0506L76.9078 43.8594L82.2015 47.5307L81.3352 48.1282C79.1744 49.6196 76.0415 51.6274 72.7209 53.7498C65.7814 58.1907 57.143 63.7168 53.6492 66.9578L53.245 67.2972ZM36.3196 58.946C42.0163 60.7693 47.5812 62.9766 52.9755 65.5524C56.7484 62.2062 64.7756 57.0722 71.8836 52.5213C74.771 50.6761 77.5141 48.9217 79.5835 47.5211L76.7586 45.5564C72.2541 47.8366 57.7831 56.183 53.3027 61.0541L52.961 61.427L52.4798 61.2406C47.4412 59.2329 44.0388 58.3198 38.4996 56.8857L36.3196 58.946Z" fill="#372420"/>
<path d="M91.1815 67.3352L78.1012 60.5615C76.6476 62.4018 75.3684 64.3717 74.2802 66.4461C73.7989 64.4957 66.4166 59.4525 66.4214 59.18C66.4214 58.3148 66.7631 57.8128 66.3589 55.9055C66.1712 55.0163 66.561 52.9895 66.6621 51.8852C66.2578 49.0696 63.327 50.4846 62.4078 52.4923C60.6928 51.0104 58.8415 49.6916 56.8783 48.5534C56.2335 48.1614 54.424 46.9663 53.3316 47.626C53.0188 47.8172 52.1477 48.582 52.1477 49.2417C52.1477 51.6319 53.4519 52.1434 55.3913 54.0651C54.7224 54.7773 51.6568 56.7086 51.6953 58.8741C51.089 59.7775 50.5259 61.9239 52.8311 63.8169C53.5578 64.2089 54.1449 65.643 55.0881 66.403C56.1991 67.3747 57.613 67.9368 59.0921 67.9949C59.2526 67.9779 59.408 67.9291 59.5493 67.8515C65.8632 78.4685 72.9712 80.4906 72.9712 80.4906L72.3263 82.2689L76.2051 82.0299L75.8634 83.464C80.4545 84.0185 92.1969 77.1587 91.1815 67.3352Z" fill="#9E5429"/>
<path d="M57.3212 67.6611C56.5464 67.2452 55.9593 64.879 54.9727 64.6495C51.8398 63.617 52.9804 60.5719 53.5867 59.6684C53.5482 57.4982 56.6811 56.4752 58.1345 54.8881C54.708 53.2533 53.7504 51.628 53.8033 50.6289C53.9188 48.9462 55.5695 48.4969 55.8293 48.2387C56.0892 47.9806 55.9833 47.8802 56.2673 47.8515C55.4732 47.3018 54.4145 46.7664 53.6108 47.5599C53.3509 47.818 52.4269 48.7024 52.4269 49.3812C52.4269 51.7714 53.0285 52.627 55.5165 54.2762C54.8476 54.9837 51.9361 56.8433 51.9746 59.0135C51.3682 59.917 49.9774 62.9238 53.1103 63.9564C54.0728 64.1858 54.684 66.5521 55.4588 66.968C56.3168 67.4569 57.2336 67.8359 58.1874 68.0961C57.8698 67.9527 57.5666 67.795 57.3212 67.6611Z" fill="#C87D36"/>
<path d="M91.1815 67.3355L89.1458 66.4702C87.37 74.2191 82.6057 78.2967 78.8328 80.2662L79.1744 79.1811L75.6662 79.4201L76.3062 77.6466C76.3062 77.6466 67.2251 75.6628 60.9064 65.0409C60.7572 65.0983 60.6032 65.1461 60.4492 65.1891C59.376 65.4711 57.4992 65.3803 56.5222 64.8545C55.7715 64.4482 50.0062 62.8659 52.8263 63.7933C53.7888 64.0275 54.4 66.389 55.1748 66.8049C56.1373 67.3355 58.0141 68.239 59.0873 67.9713C59.2421 67.9314 59.3947 67.8835 59.5445 67.8278C65.8584 78.4449 72.9664 80.467 72.9664 80.467L72.3215 82.2453L76.2003 82.0062L75.8587 83.4403C80.4546 84.0188 92.1969 77.159 91.1815 67.3355Z" fill="#713915"/>
<path d="M76.4457 84.2722C76.2189 84.2743 75.9922 84.2615 75.7671 84.2339L74.8961 84.1288L75.1945 82.8524L71.1809 83.101L71.9605 80.9355C69.9248 80.099 64.3472 77.1687 59.1883 68.7553H59.0583C57.4084 68.6947 55.8297 68.0718 54.5876 66.9914C54.0764 66.537 53.6296 66.016 53.2593 65.4425C53.0424 65.0834 52.7695 64.7607 52.4508 64.4865L52.3257 64.4052C51.7888 64.0008 51.341 63.4915 51.01 62.9086C50.6789 62.3257 50.4716 61.6816 50.4007 61.016C50.3333 60.1847 50.5177 59.3523 50.9301 58.6258C51.0504 56.6516 53.0139 55.031 54.2074 54.0511L54.2411 54.0224L53.7069 53.5444C52.4027 52.3732 51.3728 51.4554 51.3728 49.2421C51.3728 48.1522 52.5326 47.2057 52.9369 46.9571C54.3806 46.0727 56.3682 47.3013 57.2152 47.8271L57.3114 47.8893C59.0345 48.9025 60.6815 50.0384 62.2394 51.2881C63.0527 50.2173 64.3472 49.3759 65.5792 49.5432C66.0604 49.6102 67.2058 49.9639 67.4657 51.7756V51.8665V51.9573C67.4368 52.2728 67.3839 52.6696 67.3309 53.0902C67.1675 53.9647 67.1061 54.8549 67.148 55.7433C67.3841 56.681 67.4299 57.656 67.2828 58.6115C67.2828 58.7071 67.2587 58.7931 67.2491 58.884C67.5186 59.1039 68.0095 59.4863 68.4859 59.84C70.8681 61.6852 73.0866 63.4587 74.2608 64.8689C75.2161 63.1946 76.3005 61.5964 77.5044 60.0886L77.9087 59.6106L91.9177 66.8336L91.961 67.2543C92.3893 71.3749 90.6857 75.5242 87.1486 78.9469C83.9387 82.0876 79.4824 84.2722 76.4457 84.2722ZM77.2109 81.1554L76.8548 82.6851C79.2225 82.4891 83.0484 80.773 86.0658 77.8236C88.241 75.7107 90.7194 72.2832 90.4307 67.8327L78.3177 61.5609C75.4303 63.7408 74.8624 68.588 74.848 68.6167H74.0395C74.0253 67.9128 73.8456 67.222 73.5149 66.5994C73.2262 65.4856 69.0634 62.2636 67.4994 61.0494C65.7236 59.6775 65.6177 59.6154 65.6321 59.1373C65.6396 58.8827 65.6637 58.6288 65.7043 58.3773C65.8252 57.5999 65.7859 56.8063 65.5888 56.0445C65.4252 55.2748 65.5888 54.0463 65.7476 52.8608C65.7957 52.5023 65.8391 52.1676 65.8679 51.9047C65.7813 51.4028 65.6033 51.1303 65.3386 51.0921C64.7322 51.006 63.6109 51.7517 63.1296 52.813L62.6773 53.7977L61.8736 53.0616C60.195 51.6215 58.384 50.3411 56.4644 49.2373L56.3585 49.1704C55.0351 48.3529 54.1544 48.0613 53.7454 48.3099C53.4278 48.5059 52.9369 49.0461 52.9369 49.266C52.9369 50.7909 53.5048 51.3024 54.7464 52.4114C55.1025 52.7365 55.5115 53.0998 55.9495 53.5348L56.4885 54.075L55.9687 54.6295C55.7246 54.8679 55.4676 55.093 55.1987 55.3035C54.2362 56.0875 52.4605 57.555 52.4845 58.884V59.1278L52.3498 59.3333C52.2102 59.5341 51.0889 61.3554 53.2834 63.1958C53.7936 63.572 54.2238 64.0447 54.5491 64.5869C54.8377 65.0415 55.1856 65.4562 55.5837 65.8202C56.5429 66.6692 57.7656 67.1667 59.0487 67.2304H59.092L59.2604 67.1587L59.8861 66.9244L60.2229 67.4933C66.3107 77.7232 73.1155 79.7596 73.1829 79.7787L73.9962 80.0129L73.4716 81.447L77.2109 81.1554Z" fill="#372420"/>
<path d="M63.5244 55.3703C63.072 54.2278 62.8602 54.0175 61.8881 52.9802L62.7688 51.8281C64.0585 52.8081 64.2799 53.4917 64.7852 54.7776L63.5244 55.3703Z" fill="#372420"/>
<path d="M80.2475 48.396C81.3736 48.8979 82.4757 49.1943 85.0984 50.4611C92.1391 54.2519 94.6656 64.8689 91.5423 72.7995C88.034 70.7965 81.1619 66.4895 74.3619 65.1749C74.5448 63.693 74.795 61.9434 74.795 61.9434" fill="#F4F6F8"/>
<path d="M85.0986 50.4611C82.4758 49.1943 81.7299 48.8979 80.6182 48.396L80.1851 49.1561C80.8532 49.4711 81.4967 49.8355 82.11 50.246C88.6887 53.7882 90.0217 63.0333 87.7935 70.7344C88.8475 71.3415 90.7532 72.3597 91.5232 72.7995C94.6657 64.8689 92.1392 54.2519 85.0986 50.4611Z" fill="#CDCFD0"/>
<path d="M91.9177 73.8464L91.1862 73.4257L89.9494 72.7134C86.2968 70.591 80.1802 67.0344 74.2272 65.8872L73.5582 65.7581L73.6448 65.0841C73.8277 63.6117 74.078 61.8574 74.0828 61.8382L75.5265 62.0438C75.5265 62.0438 75.3436 63.3249 75.1752 64.606C81.1523 65.9254 87.0908 69.3863 90.6905 71.4658L91.1718 71.743C93.8283 63.9081 90.9552 54.4288 84.7664 51.0969C83.0965 50.2938 82.0522 49.8875 81.21 49.5624C80.7576 49.3855 80.3678 49.2326 79.9636 49.0509L80.5651 47.7363C80.9309 47.8989 81.3063 48.047 81.7394 48.2144C82.6056 48.549 83.6644 48.9649 85.4305 49.811C88.9725 51.7231 91.5953 55.294 92.8513 59.8927C94.0387 64.2384 93.8233 68.8447 92.2353 73.0624L91.9177 73.8464Z" fill="#372420"/>
<path d="M41.4304 75.438C42.7238 75.2867 44.0334 75.5196 45.1937 76.1072C45.5318 75.9164 45.9048 75.7945 46.2909 75.7487C46.8929 75.2028 47.3598 74.5263 47.6553 73.7717C47.9508 73.0172 48.0669 72.2051 47.9945 71.3986C47.8213 68.6882 45.8674 66.6183 43.6345 66.7378C41.4015 66.8573 39.7268 69.1997 39.9 71.9101C39.9608 73.2319 40.5049 74.4863 41.4304 75.438Z" fill="white"/>
<path d="M43.6248 66.585C41.3148 66.7284 39.592 69.1185 39.7748 71.9198C39.8333 73.2642 40.3725 74.5439 41.2956 75.5289C41.4276 75.5041 41.561 75.4865 41.695 75.4763C40.6998 74.5499 40.1091 73.2733 40.0492 71.9198C39.8807 69.3097 41.4929 67.0773 43.6441 66.9387C45.7952 66.8001 47.6817 68.8174 47.8453 71.4274C47.9704 73.373 47.109 75.1083 45.7712 75.9257C45.997 75.8471 46.2345 75.8067 46.4738 75.8062C47.0619 75.243 47.5154 74.556 47.8011 73.7957C48.0867 73.0355 48.1972 72.2213 48.1244 71.4131C47.9464 68.5927 45.93 66.4463 43.6248 66.585Z" fill="#D5A73B"/>
<path d="M44.6163 70.0026L44.9579 70.8774C45.2456 70.7942 45.5381 70.7287 45.8338 70.6814C45.626 70.0123 45.2202 69.421 44.6692 68.9844C44.3949 69.1469 44.52 69.7444 44.6163 70.0026Z" fill="#2A2C73"/>
<path d="M43.7933 72.3743L44.4141 72.1257L44.8521 71.3417H45.6221L45.9397 72.403L45.5066 72.6467L45.5547 72.7854L46.161 72.6515L46.1129 72.4986L46.2525 72.4269L45.8867 71.1935V70.8828C44.5547 71.1854 43.2706 71.6679 42.0705 72.3169C42.133 72.5894 42.2004 72.7949 42.287 73.0818C42.3977 73.0101 42.6865 72.8475 42.8116 72.7806C42.4673 73.0992 42.2035 73.4939 42.0416 73.9327L42.1715 74.4633L41.9309 75.0943H42.6239L42.8549 74.4441L42.6143 74.0522C42.7142 73.4746 42.9916 72.942 43.4083 72.5272L43.6826 72.4125C43.258 72.8419 42.9918 73.4011 42.9271 73.9996L43.2399 74.4776L43.0041 75.1468L43.88 75.2711L44.0965 74.6067L43.5286 74.0091C43.4776 73.4508 43.5686 72.8886 43.7933 72.3743Z" fill="#2A2C73"/>
<path d="M44.7558 70.9345L44.4815 70.1792C44.3178 69.7394 44.1735 69.118 44.5777 68.9268C43.9136 68.4487 43.2447 68.2958 43.0666 68.0615C43.0666 68.5826 41.6229 69.9736 42.0175 72.0961C42.8915 71.6243 43.8083 71.2354 44.7558 70.9345Z" fill="#2A2C73"/>
<path d="M45.367 71.9729L45.5258 71.5331L44.958 71.5044L44.7173 71.9059L45.1986 71.6956L45.0205 71.992L45.367 71.9729Z" fill="#2A2C73"/>
<path d="M46.4737 74.1954L46.108 73.6504L46.1369 73.3445L45.4583 73.4401L45.7086 73.2106L46.1609 73.1054L46.0647 72.7852L45.4439 72.9094L45.0396 73.3158L43.7692 73.0576L43.7643 73.7651L44.5776 74.6543L44.3274 75.9067L45.1985 76.313L45.7615 75.9497L45.5113 74.7738L46.3246 74.6973L46.4737 74.1954Z" fill="#2A2C73"/>
<path d="M45.1888 76.0354C43.895 75.375 42.4147 75.1678 40.9875 75.4474L40.7325 76.0067C41.7479 75.8251 43.5622 75.696 44.3466 76.0784V76.1358C43.0682 76.0535 41.7845 76.1436 40.5304 76.4035L40.1021 77.3069C41.2609 77.69 42.5163 77.6715 43.6633 77.2544C44.6594 76.9628 45.492 76.6329 46.2235 76.9819L47.1619 75.9398C46.6807 75.4522 45.7856 75.7151 45.1888 76.0354Z" fill="#D22514"/>
<path d="M46.6808 77.5888C46.7071 77.6884 46.7108 77.7926 46.6917 77.8939C46.6727 77.9952 46.6313 78.091 46.5705 78.1744C46.5097 78.2579 46.4311 78.327 46.3403 78.3768C46.2495 78.4265 46.1487 78.4556 46.0452 78.4621C45.9417 78.4686 45.8381 78.4522 45.7417 78.4142C45.6453 78.3762 45.5586 78.3174 45.4878 78.2421C45.417 78.1669 45.3638 78.077 45.3321 77.9789C45.3004 77.8808 45.2909 77.777 45.3044 77.6748H45.0253C45.0536 77.7757 45.059 77.8815 45.0408 77.9847C45.0227 78.0878 44.9816 78.1856 44.9205 78.2709C44.8595 78.3563 44.78 78.427 44.6879 78.4779C44.5958 78.5288 44.4934 78.5586 44.3882 78.5651C44.283 78.5717 44.1777 78.5548 44.0799 78.5157C43.9821 78.4767 43.8944 78.4164 43.8231 78.3393C43.7517 78.2622 43.6987 78.1703 43.6677 78.0702C43.6368 77.9701 43.6287 77.8644 43.6441 77.7609H43.3698C43.3982 77.8617 43.4035 77.9676 43.3853 78.0707C43.3672 78.1738 43.3261 78.2716 43.2651 78.357C43.204 78.4423 43.1245 78.513 43.0324 78.5639C42.9403 78.6148 42.8379 78.6446 42.7327 78.6512C42.6275 78.6577 42.5222 78.6409 42.4244 78.6018C42.3267 78.5627 42.2389 78.5024 42.1676 78.4253C42.0963 78.3483 42.0432 78.2563 42.0122 78.1562C41.9813 78.0562 41.9732 77.9505 41.9887 77.8469H41.7143C41.7065 78.1308 41.8109 78.4064 42.0052 78.6146C42.1996 78.8228 42.4683 78.9471 42.7538 78.9607C42.9312 78.9405 43.0994 78.8717 43.2396 78.7619C43.3798 78.6522 43.4866 78.5058 43.5479 78.3393C43.6296 78.4959 43.7533 78.627 43.9053 78.7181C44.0573 78.8093 44.2318 78.8568 44.4093 78.8556C44.5867 78.8353 44.7549 78.7665 44.8951 78.6567C45.0353 78.547 45.1421 78.4007 45.2034 78.2341C45.2854 78.3915 45.4099 78.5231 45.5628 78.6142C45.7158 78.7054 45.8912 78.7525 46.0696 78.7504C46.3508 78.7012 46.6015 78.5446 46.7679 78.3141C46.9343 78.0835 47.0032 77.7975 46.9599 77.5171L46.6808 77.5888Z" fill="#2A2C73"/>
<path d="M45.3044 79.8548C45.1006 79.8448 44.9087 79.7564 44.7694 79.6083C44.6301 79.4601 44.5545 79.2639 44.5584 79.0612H44.2841C44.3127 79.1619 44.3183 79.2677 44.3004 79.3708C44.2826 79.4739 44.2418 79.5718 44.181 79.6573C44.1203 79.7427 44.041 79.8136 43.9492 79.8648C43.8573 79.9159 43.7551 79.9461 43.65 79.953C43.5449 79.9599 43.4395 79.9434 43.3417 79.9047C43.2438 79.866 43.1559 79.8061 43.0843 79.7294C43.0127 79.6526 42.9593 79.561 42.9279 79.4611C42.8965 79.3612 42.888 79.2556 42.903 79.152H42.6238C42.6148 79.2964 42.6347 79.4411 42.6824 79.5777C42.7302 79.7143 42.8048 79.8401 42.902 79.9478C42.9992 80.0554 43.117 80.1428 43.2485 80.2048C43.3801 80.2668 43.5227 80.3022 43.6681 80.3089C43.8457 80.2911 44.0145 80.2231 44.1544 80.1129C44.2942 80.0028 44.3994 79.8551 44.4574 79.6874C44.5394 79.8448 44.6639 79.9764 44.8168 80.0675C44.9698 80.1587 45.1453 80.2058 45.3236 80.2037C45.6045 80.1502 45.8533 79.9898 46.0169 79.7567C46.1805 79.5237 46.246 79.2364 46.1995 78.9561H45.9204C45.9571 79.1562 45.9131 79.3627 45.7978 79.5308C45.6826 79.699 45.5053 79.8154 45.3044 79.8548Z" fill="#2A2C73"/>
<path d="M37.8354 71.2505C38.1146 73.5594 38.6054 76.4801 39.4669 80.9975Z" fill="#F4F6F8"/>
<path d="M38.7499 81.1315C37.8788 76.5424 37.388 73.6121 37.1136 71.3366L38.5574 71.1646C38.8269 73.4065 39.3129 76.3082 40.1792 80.8638L38.7499 81.1315Z" fill="#372420"/>
</svg>
