<svg width="116" height="172" viewBox="0 0 116 172" fill="none" xmlns="http://www.w3.org/2000/svg">
<path d="M59.5525 164.833C90.1977 164.833 115.041 162.281 115.041 159.133C115.041 155.985 90.1977 153.433 59.5525 153.433C28.9072 153.433 4.06433 155.985 4.06433 159.133C4.06433 162.281 28.9072 164.833 59.5525 164.833Z" fill="#B7D9F4"/>
<path d="M97.0832 157.08C101.987 148.84 99.3337 138.215 91.156 133.348C82.9782 128.48 72.3732 131.215 67.4689 139.455C62.5647 147.695 65.2184 158.32 73.3961 163.187C81.5739 168.055 92.1789 165.32 97.0832 157.08Z" fill="white"/>
<path d="M90.5859 134.627C88.7146 133.471 86.6333 132.696 84.4615 132.346C82.2897 131.996 80.0703 132.079 77.9307 132.59C81.3541 133.229 82.5922 133.686 85.2283 135.317C87.0857 136.467 88.697 137.974 89.9692 139.75C91.2413 141.526 92.1492 143.536 92.6404 145.665C93.1316 147.794 93.1964 149.999 92.8311 152.153C92.4657 154.307 91.6775 156.367 90.5118 158.214C88.0697 162.106 85.4451 164.411 81.2913 165.398C84.1945 165.453 87.0625 164.756 89.6169 163.376C92.1712 161.995 94.3252 159.977 95.8694 157.518C97.0342 155.671 97.8218 153.611 98.1866 151.458C98.5515 149.305 98.4865 147.1 97.9953 144.972C97.5041 142.844 96.5965 140.834 95.3249 139.059C94.0532 137.283 92.4426 135.777 90.5859 134.627Z" fill="#D0D0D0"/>
<path d="M100.263 148.714C100.271 151.927 99.4204 155.084 97.7993 157.857C96.1783 160.631 93.8455 162.921 91.0425 164.491C88.8468 165.696 86.4271 166.438 83.9331 166.67C79.5849 167.08 75.2355 165.9 71.6907 163.348C68.1459 160.797 65.6458 157.047 64.6535 152.794C64.0495 150.367 63.9979 147.835 64.5025 145.385C65.0071 142.935 66.0551 140.629 67.5691 138.638C68.6281 137.152 69.8746 135.81 71.2779 134.644C73.6373 132.7 76.4743 131.423 79.4941 130.947C82.0626 130.539 84.689 130.695 87.1916 131.402C89.6942 132.11 92.0132 133.352 93.9883 135.044C95.9634 136.736 97.5474 138.837 98.6308 141.201C99.7142 143.565 100.271 146.137 100.263 148.737V148.714ZM84.5893 145.394C84.603 145.372 84.6144 145.349 84.6235 145.325C84.9016 143.458 85.3096 141.613 85.8446 139.802C85.8815 139.681 85.8829 139.553 85.8484 139.431C85.814 139.31 85.7453 139.201 85.6506 139.117C84.2929 137.608 82.7317 136.294 81.0118 135.215C80.9213 135.144 80.8131 135.101 80.6992 135.089C80.5853 135.077 80.4703 135.097 80.3671 135.146C79.7965 135.38 79.2773 135.603 78.7238 135.819C77.5827 136.265 76.4415 136.71 75.2604 137.126C74.8496 137.274 74.5986 137.446 74.61 137.925C74.5985 138.309 74.5527 138.691 74.4731 139.066C74.2677 140.327 74.068 141.582 73.8397 142.838C73.8048 142.96 73.8117 143.09 73.8592 143.208C73.9067 143.326 73.9923 143.424 74.1022 143.488C75.5743 144.69 77.0406 145.898 78.5013 147.111C79.1689 147.682 79.0091 147.602 79.7223 147.334C81.3142 146.763 82.889 146.107 84.4638 145.485C84.5092 145.46 84.5513 145.429 84.5893 145.394ZM73.3776 143.825C73.2121 143.927 73.0752 144.001 72.9496 144.087C72.0253 144.738 71.1067 145.394 70.1767 146.038C69.6517 146.409 69.1325 146.792 68.5848 147.123C68.4566 147.174 68.3487 147.266 68.2776 147.384C68.2065 147.503 68.1761 147.641 68.1911 147.779C68.2538 148.566 68.2766 149.359 68.3508 150.147C68.4535 151.242 68.5905 152.332 68.716 153.422C68.7502 153.747 68.7959 154.072 68.8244 154.317C69.355 154.626 69.8343 154.888 70.2794 155.173C71.4205 155.904 72.4989 156.662 73.6058 157.404C73.7172 157.475 73.8335 157.538 73.9538 157.593C75.2776 156.896 76.5442 156.212 77.8166 155.55C77.9215 155.501 78.0068 155.418 78.0586 155.314C78.1104 155.211 78.1256 155.093 78.1019 154.979C78.062 154.409 78.0277 153.81 78.0277 153.222C78.0277 151.995 78.0677 150.768 78.0962 149.547C78.0843 149.19 78.113 148.832 78.1818 148.48C78.2172 148.359 78.2112 148.229 78.1647 148.111C78.1182 147.994 78.0339 147.895 77.925 147.83C76.4872 146.552 75.0722 145.262 73.6229 143.979C73.5453 143.921 73.4633 143.869 73.3776 143.825ZM85.4166 145.462C85.8217 145.816 86.1755 146.107 86.5121 146.426C87.1529 147.055 87.8312 147.643 88.5434 148.189C88.9297 148.489 89.265 148.85 89.5362 149.256C89.8728 149.736 90.2323 150.204 90.5518 150.637C90.5925 150.652 90.6345 150.664 90.6773 150.671L93.4332 150.289C93.5097 150.278 93.5817 150.247 93.6412 150.197C93.7006 150.148 93.7452 150.083 93.7698 150.01C93.8269 149.867 93.8839 149.724 93.9467 149.582C94.4488 148.383 94.9509 147.18 95.4644 145.981C95.6755 145.491 95.9209 145.017 96.1548 144.521C96.0979 144.405 96.0351 144.293 95.9665 144.184C94.9581 142.667 93.8406 141.225 92.623 139.871C92.1779 139.38 91.7043 138.906 91.2536 138.41C91.166 138.298 91.0455 138.218 90.9092 138.179C90.773 138.14 90.6279 138.145 90.4947 138.193C89.5362 138.484 88.5548 138.724 87.6133 139.06C86.4722 139.471 86.6491 139.232 86.4094 140.47C86.4094 140.544 86.3695 140.618 86.3524 140.692C86.0443 142.267 85.7362 143.847 85.4166 145.462ZM81.8734 164.759C81.8249 164.586 81.8331 164.401 81.8968 164.233C81.9604 164.065 82.0762 163.921 82.2271 163.823C82.4268 163.663 82.6265 163.498 82.8319 163.35C84.0187 162.488 85.2112 161.638 86.398 160.782C86.5407 160.679 86.6719 160.565 86.8374 160.434L86.592 160.017C86.2554 159.475 85.8902 158.95 85.5821 158.391C85.502 158.249 85.3931 158.125 85.2625 158.026C85.1319 157.928 84.9823 157.858 84.8232 157.821C82.8947 157.25 80.9662 156.708 79.0433 156.109C78.8907 156.053 78.727 156.034 78.5654 156.052C78.4039 156.071 78.249 156.128 78.1133 156.217C77.0349 156.868 75.928 157.473 74.8325 158.095C74.707 158.169 74.5929 158.266 74.4331 158.374C74.5929 158.779 74.7241 159.167 74.8896 159.515C75.1749 160.172 75.4602 160.822 75.7911 161.467C75.96 161.74 76.0523 162.054 76.0583 162.375C76.0643 162.696 75.9838 163.013 75.8253 163.293C75.8253 163.293 75.8253 163.338 75.8253 163.367C76.6493 163.842 77.5486 164.172 78.4842 164.342C79.5868 164.65 80.7292 164.79 81.8734 164.759ZM86.1355 157.627C86.4551 158.049 86.7746 158.448 87.0656 158.865C87.3566 159.281 87.6362 159.704 87.9271 160.126H91.3506C92.0272 160.075 92.7071 160.164 93.3476 160.388C93.4179 160.364 93.4849 160.332 93.5473 160.291C94.8753 159.045 95.9607 157.563 96.7482 155.921C96.7725 155.818 96.7859 155.713 96.7881 155.607C96.5485 155.573 96.3488 155.533 96.1434 155.521C95.8868 155.519 95.6377 155.435 95.4324 155.281C95.2271 155.127 95.0764 154.911 95.0022 154.665C94.8596 154.26 94.7341 153.844 94.5857 153.433C94.329 152.714 94.0722 151.995 93.804 151.276C93.795 151.232 93.7766 151.189 93.7501 151.152C93.7236 151.115 93.6897 151.084 93.6504 151.061C93.6111 151.038 93.5674 151.023 93.5221 151.018C93.4769 151.013 93.431 151.017 93.3875 151.031C93.1593 151.065 92.9368 151.134 92.7085 151.168C92.138 151.259 91.5332 151.339 90.9455 151.413C90.8255 151.43 90.7113 151.475 90.6121 151.544C90.5129 151.614 90.4316 151.706 90.3749 151.813C90.0326 152.355 89.6674 152.88 89.2908 153.393C88.6803 154.22 88.047 155.025 87.4422 155.852C86.9686 156.429 86.5692 157.016 86.1355 157.627ZM82.5181 132.379C82.3292 132.348 82.1387 132.327 81.9476 132.316C80.9181 132.307 79.8907 132.411 78.8836 132.624C76.2725 133.132 73.828 134.279 71.7685 135.962C71.6601 136.048 71.4833 136.11 71.5574 136.344C72.2783 136.507 73.011 136.612 73.7484 136.658C73.9262 136.659 74.1013 136.614 74.2562 136.527C76.185 135.613 78.192 134.874 80.253 134.319C80.4054 134.287 80.5506 134.227 80.6809 134.142C81.086 133.84 81.4911 133.52 81.8791 133.189C82.1719 132.993 82.3955 132.709 82.5181 132.379ZM97.8038 144.361C97.6385 143.546 97.368 142.756 96.9992 142.01C96.3476 140.536 95.4782 139.169 94.4203 137.953C93.4815 136.861 92.3989 135.902 91.2022 135.101C91.1002 135.048 90.9932 135.006 90.8827 134.975C90.8393 135.031 90.8131 135.099 90.807 135.17C90.8009 135.241 90.8153 135.312 90.8485 135.374C90.9968 135.837 91.1566 136.293 91.2878 136.761C91.4268 137.387 91.7725 137.948 92.2692 138.353C92.386 138.453 92.4948 138.561 92.5944 138.678C94.0244 140.107 95.2599 141.719 96.2689 143.471C96.3719 143.714 96.5387 143.924 96.7517 144.08C96.9647 144.236 97.2158 144.331 97.4785 144.355L97.8038 144.361ZM66.3881 146.027C66.3278 146.165 66.2819 146.308 66.2511 146.455C66.1088 147.363 66.0458 148.281 66.0628 149.199C66.0628 149.508 66.1313 149.81 66.1541 150.112C66.2812 151.794 66.6941 153.442 67.3751 154.985C67.4208 155.099 67.4493 155.236 67.6205 155.247C67.7907 155.159 67.9258 155.016 68.0036 154.84C68.0813 154.665 68.0972 154.469 68.0484 154.283C67.9799 153.907 67.9286 153.524 67.8658 153.142C67.5516 151.436 67.4272 149.7 67.495 147.967C67.5258 147.717 67.5009 147.462 67.4219 147.223C67.343 146.983 67.2121 146.764 67.0385 146.58C66.8388 146.404 66.719 146.135 66.3881 146.038V146.027Z" fill="#372420"/>
<path d="M67.3752 154.996C67.3067 154.841 67.2439 154.693 67.1869 154.539C67.2497 154.705 67.3181 154.87 67.3866 155.035C67.3854 155.022 67.3815 155.008 67.3752 154.996Z" fill="#593F3B"/>
<path d="M66.2513 146.466C66.2821 146.319 66.328 146.175 66.3882 146.038C66.7192 146.135 66.839 146.403 67.0387 146.608C67.2081 146.779 67.3369 146.986 67.4153 147.213C67.4495 147.059 67.4837 146.905 67.5294 146.751C68.642 142.609 70.7816 139.037 73.6402 136.658C72.9447 136.612 72.254 136.511 71.5747 136.355C71.5582 136.322 71.5496 136.286 71.5496 136.25C71.5496 136.213 71.5582 136.177 71.5747 136.144C69.1658 138.279 67.4376 141.074 66.605 144.183C66.2118 145.647 66.0199 147.158 66.0345 148.674C66.0692 147.935 66.1416 147.198 66.2513 146.466Z" fill="#593F3B"/>
<path d="M71.7855 135.961C73.845 134.277 76.2895 133.131 78.9006 132.623C79.9077 132.409 80.935 132.306 81.9645 132.315C82.1557 132.326 82.3462 132.346 82.5351 132.378C82.417 132.706 82.1997 132.989 81.9132 133.188L81.4795 133.547C82.9698 133.487 84.4601 133.663 85.8958 134.067C90.3234 135.293 92.9594 134.181 87.0654 132.555C84.4347 131.82 81.6631 131.749 78.9979 132.346C76.3327 132.943 73.8569 134.191 71.7912 135.978L71.7855 135.961Z" fill="#593F3B"/>
<path d="M67.7687 155.132C67.7227 155.176 67.673 155.216 67.6203 155.252C67.5737 155.25 67.5287 155.234 67.4918 155.205C67.455 155.177 67.4281 155.137 67.4149 155.092C67.6752 155.702 67.9705 156.297 68.2993 156.872C68.0996 156.273 67.9227 155.703 67.7687 155.132Z" fill="#593F3B"/>
<path d="M66.0801 149.364C66.109 149.947 66.1699 150.528 66.2627 151.104C66.217 150.779 66.1771 150.454 66.1543 150.123C66.1314 149.792 66.0972 149.615 66.0801 149.364Z" fill="#593F3B"/>
<path d="M77.9307 132.59L78.5412 132.704L78.9006 132.624C79.9077 132.41 80.9351 132.307 81.9646 132.316C82.1558 132.327 82.3463 132.347 82.5352 132.379C82.4171 132.707 82.1997 132.99 81.9133 133.189C81.8048 133.286 81.685 133.377 81.5709 133.468C82.864 133.938 84.0973 134.559 85.2454 135.317C86.6882 136.209 87.9852 137.317 89.0911 138.604C89.5646 138.467 90.0439 138.335 90.5118 138.193C90.645 138.144 90.7901 138.139 90.9263 138.178C91.0626 138.217 91.1831 138.298 91.2706 138.41C91.7214 138.906 92.195 139.38 92.64 139.87C93.8577 141.225 94.9751 142.667 95.9836 144.184C96.0521 144.293 96.115 144.405 96.1719 144.52C95.9379 145.017 95.6926 145.49 95.4815 145.981C94.9679 147.179 94.4658 148.383 93.9637 149.581C93.901 149.724 93.8439 149.867 93.7869 150.009C93.7622 150.083 93.7177 150.148 93.6582 150.197C93.5988 150.246 93.5267 150.278 93.4502 150.289L93.0508 150.346C93.0508 150.603 93.0166 150.859 92.9881 151.116L93.3875 151.036C93.4309 151.023 93.4768 151.018 93.5221 151.023C93.5674 151.029 93.6111 151.043 93.6503 151.066C93.6896 151.089 93.7236 151.121 93.75 151.158C93.7765 151.195 93.7949 151.237 93.804 151.282C94.0721 152.001 94.3289 152.72 94.5857 153.438C94.734 153.849 94.8595 154.266 95.0022 154.671C95.0763 154.917 95.2271 155.132 95.4323 155.286C95.6376 155.44 95.8867 155.524 96.1433 155.527C96.3487 155.527 96.5484 155.578 96.7881 155.612C96.7858 155.718 96.7724 155.823 96.7481 155.926C96.6454 156.132 96.5427 156.331 96.4343 156.531C97.4822 154.593 98.1326 152.465 98.3471 150.272C98.5617 148.08 98.3362 145.866 97.6839 143.762C97.7416 143.962 97.7873 144.166 97.8208 144.372H97.4956C97.2329 144.348 96.9817 144.253 96.7687 144.097C96.5557 143.941 96.3889 143.731 96.286 143.488C95.277 141.736 94.0415 140.124 92.6115 138.695C92.5118 138.578 92.4031 138.469 92.2862 138.37C91.7896 137.964 91.4439 137.404 91.3049 136.778C91.1736 136.31 91.0139 135.853 90.8655 135.391C90.8324 135.328 90.818 135.257 90.824 135.187C90.8301 135.116 90.8564 135.048 90.8998 134.992C91.0102 135.023 91.1173 135.065 91.2193 135.117C92.416 135.919 93.4985 136.878 94.4373 137.97C95.4878 139.182 96.3513 140.543 96.9992 142.01C97.1133 142.267 97.2217 142.523 97.3301 142.786C96.0381 139.403 93.668 136.54 90.5859 134.638C88.7154 133.48 86.6345 132.703 84.4627 132.351C82.2909 132 80.071 132.081 77.9307 132.59Z" fill="#2B1915"/>
<path d="M97.5926 143.522C97.5926 143.477 97.5641 143.437 97.5527 143.397C97.5413 143.357 97.5812 143.477 97.5926 143.522Z" fill="#372420"/>
<path d="M95.8695 157.517C96.0692 157.198 96.2575 156.867 96.4401 156.536C95.6901 157.939 94.7147 159.209 93.553 160.296C93.4906 160.336 93.4236 160.369 93.3533 160.393C92.7128 160.168 92.0329 160.079 91.3563 160.13H89.1938C87.3004 162.802 84.4858 164.68 81.2914 165.402C84.195 165.457 87.0634 164.759 89.6178 163.378C92.1723 161.996 94.3259 159.977 95.8695 157.517Z" fill="#372420"/>
<path d="M93.3477 160.394C92.9984 160.247 92.6251 160.166 92.2465 160.154C91.5469 161.185 90.7584 162.153 89.89 163.047C91.1288 162.274 92.2905 161.383 93.3591 160.388L93.3477 160.394Z" fill="#372420"/>
<path d="M81.8734 58.8776C86.1412 57.2343 89.2452 55.768 95.6242 58.0046C95.6242 58.0046 97.4614 49.8911 94.8139 47.3064C94.8139 47.3064 91.6359 49.9139 88.5377 47.6601C87.5428 48.1132 86.4373 48.266 85.3569 48.0998C84.2764 47.9336 83.268 47.4556 82.4554 46.7244C80.5268 45.0127 82.8319 43.301 82.8319 43.301C82.8319 43.301 83.8647 42.913 83.431 42.4908C82.4611 41.5436 80.8121 40.779 80.9947 39.4382C81.24 37.6409 84.247 33.3046 87.271 31.6157C88.4977 30.931 102.357 35.6838 103.036 37.795C103.715 39.9061 113.038 54.5013 111.594 69.068L108.998 71.5671L109.74 72.6284L106.243 73.8437L108.165 75.0761C108.165 75.0761 93.165 83.4521 83.6307 78.956L81.8734 58.8776Z" fill="#9E5429"/>
<path d="M82.5182 40.9104C83.9161 37.099 84.9032 35.2047 90.6603 31.5473L88.629 30.7485C86.7579 31.5414 85.1024 32.7685 83.7996 34.3282C82.4969 35.8879 81.5843 37.7355 81.1374 39.7179C81.0914 39.9014 81.0972 40.0941 81.1542 40.2745C81.2113 40.4549 81.3173 40.6159 81.4605 40.7395C81.6036 40.8632 81.7784 40.9446 81.9651 40.9748C82.1519 41.005 82.3434 40.9827 82.5182 40.9104Z" fill="#C87D36"/>
<path d="M103.076 37.7041C102.408 35.5873 88.7316 31.2167 87.3452 31.4278C86.4379 31.5761 86.5121 32.1752 87.425 31.9698C88.6347 31.7017 99.1275 37.5044 99.7209 39.3873C100.314 41.2702 108.473 54.1822 107.138 67.0372L104.856 69.2339L105.94 70.375L102.42 71.0198L104.131 72.3321C104.131 72.3321 91.6929 79.179 83.277 75.9895L83.5052 78.7681C93.0166 83.3327 108.04 75.0195 108.04 75.0195L106.128 73.536L110.122 72.8057L108.89 71.4934L111.497 69.0057C112.987 54.4618 103.743 39.8209 103.076 37.7041Z" fill="#713915"/>
<path d="M88.977 47.4316C87.9802 47.8731 86.8764 48.0149 85.8004 47.8396C84.7244 47.6643 83.7227 47.1796 82.9176 46.4445C82.7088 46.2936 82.5342 46.1005 82.4049 45.8777C82.2756 45.6549 82.1946 45.4074 82.1672 45.1513C82.1398 44.8952 82.1665 44.6362 82.2456 44.3911C82.3247 44.146 82.4545 43.9202 82.6266 43.7285C85.12 45.0237 89.9926 42.5874 89.9926 42.5874C93.0966 44.8697 93.7413 43.5574 93.7413 43.5574C94.7139 44.5168 95.3196 45.7866 95.453 47.1463C94.7626 47.6313 91.6416 49.3829 88.977 47.4316Z" fill="#6E3B19"/>
<path d="M90.2665 81.1524C87.8589 81.2021 85.4702 80.7189 83.2713 79.7374L82.8205 79.5263L80.9547 58.3067L82.2157 57.8217C85.9586 56.3668 89.2166 55.1001 94.968 56.8746C95.3788 54.5467 95.7782 50.4442 94.6313 48.4815C93.709 49.0707 92.6431 49.3965 91.5489 49.4237C90.4547 49.4508 89.374 49.1783 88.4235 48.6355C87.321 49.0413 86.1283 49.1366 84.9753 48.9113C83.8224 48.6859 82.7534 48.1484 81.8848 47.3575C81.5504 47.0967 81.2806 46.7624 81.0965 46.3804C80.9125 45.9984 80.819 45.5791 80.8235 45.155C80.883 44.655 81.0424 44.172 81.2924 43.7348C81.5423 43.2976 81.8777 42.9152 82.2785 42.6103L82.0388 42.422C81.1031 41.6917 79.9391 40.7788 80.1388 39.2896C80.4412 37.0643 83.7505 32.5625 86.8487 30.8337C88.4064 29.9664 96.6283 33.1844 96.9764 33.3214C103.315 35.8148 103.726 37.0814 103.857 37.498C103.954 37.8004 104.371 38.6391 104.85 39.552C107.492 44.7271 113.671 56.8518 112.456 69.1248V69.4386L110.174 71.6467L111.138 73.0332L108.239 74.0659L109.894 75.1272L108.599 75.8233C108.108 76.1029 98.9392 81.1524 90.2665 81.1524ZM84.458 78.3737C91.8755 81.4834 102.716 76.8104 106.442 74.9903L104.303 73.6209L108.388 72.1659L107.874 71.4299L110.767 68.6398C111.794 56.9716 105.86 45.3376 103.31 40.3394C102.898 39.6021 102.532 38.8399 102.214 38.0571C101.438 36.4881 89.5418 32.1916 87.619 32.4142C84.7662 34.0517 82.0445 38.1199 81.8562 39.552C81.7935 40.0199 82.307 40.4649 83.1058 41.0869C83.4288 41.3316 83.7392 41.5925 84.0358 41.8685C84.1798 42.0019 84.287 42.1702 84.347 42.3571C84.4069 42.544 84.4177 42.7432 84.3782 42.9355C84.2969 43.1987 84.1549 43.4391 83.9636 43.6374C83.7723 43.8356 83.5371 43.9861 83.277 44.0767C82.9029 44.3768 82.6464 44.7989 82.5523 45.2692C82.5523 45.3719 82.5523 45.68 83.0259 46.1079C83.7046 46.7271 84.5487 47.1356 85.4554 47.2835C86.3621 47.4314 87.2923 47.3124 88.1325 46.9409L88.6004 46.707L89.0283 47.0094C91.5503 48.8409 94.1635 46.7755 94.2662 46.6899L94.8653 46.2049L95.4358 46.7412C98.3401 49.5941 96.6854 57.3653 96.4857 58.244L96.2689 59.1911L95.356 58.8716C89.6103 56.8575 86.7974 57.9587 82.8604 59.4821H82.8091L84.458 78.3737Z" fill="#372420"/>
<path d="M98.4314 69.9577C93.4503 65.5186 94.3233 60.0012 94.6942 57.6447C94.7227 57.4507 94.7512 57.2738 94.7741 57.1255L96.4858 57.3537C96.4858 57.5135 96.4344 57.7018 96.4002 57.9243C96.0464 60.1723 95.3047 64.8624 99.584 68.6739L98.4314 69.9577Z" fill="#372420"/>
<path d="M87.6248 35.3525C87.6248 35.3525 83.9902 39.3066 84.6464 41.2694C84.9944 42.3249 85.5707 43.5517 86.6548 43.7628C87.9557 44.0024 88.9941 43.1922 90.1068 42.8327" fill="#9E5429"/>
<path d="M87.1454 44.6699C86.9273 44.6703 86.7097 44.6512 86.495 44.6129C84.7319 44.2819 84.0472 42.2222 83.8247 41.5432C83.0487 39.2039 86.3238 35.4894 86.9914 34.7705L88.258 35.9402C86.9343 37.378 85.1313 39.9855 85.4679 41.0012C85.8559 42.1765 86.3067 42.8156 86.8145 42.9126C87.5057 42.9631 88.1956 42.7977 88.7887 42.439C89.131 42.2782 89.4814 42.1354 89.8385 42.0111L90.3749 43.66C90.0753 43.7607 89.7819 43.8788 89.4962 44.0138C88.7702 44.4022 87.9676 44.6262 87.1454 44.6699Z" fill="#372420"/>
<path d="M96.9878 38.2111C96.9878 38.2111 95.7268 39.803 95.5556 40.7444C95.8973 41.0774 96.1109 41.5201 96.1589 41.9947C96.2068 42.4694 96.0862 42.9459 95.8181 43.3405C95.025 44.4816 93.0565 44.6585 91.9839 44.1678C90.7001 43.5973 90.1809 42.9069 89.8043 41.315C89.4277 39.7231 92.3947 36.6021 92.3947 36.6021" fill="#9E5429"/>
<path d="M93.2905 45.2919C92.7176 45.2991 92.1496 45.1843 91.6244 44.9552C90.0896 44.2534 89.3935 43.3462 88.9599 41.4919C88.5262 39.6375 91.0025 36.7961 91.7728 35.9858L93.0223 37.184C91.7443 38.5192 90.4833 40.4135 90.6431 41.0982C90.9797 42.5303 91.3791 42.9411 92.3548 43.3805C93.068 43.7057 94.5857 43.5916 95.1163 42.8099C95.2713 42.5857 95.341 42.3135 95.3128 42.0425C95.2845 41.7714 95.1602 41.5194 94.9623 41.3321L94.6256 41.0126L94.7112 40.5561C94.9109 39.4549 96.0863 37.9315 96.3145 37.6405L97.6839 38.736C97.2403 39.2987 96.8578 39.9069 96.5428 40.5504C96.8888 41.0263 97.0752 41.5996 97.0752 42.188C97.0752 42.7764 96.8888 43.3496 96.5428 43.8255C96.1514 44.3053 95.6539 44.6875 95.0895 44.942C94.525 45.1965 93.9092 45.3163 93.2905 45.2919Z" fill="#372420"/>
<path d="M87.893 44.7166C88.1654 45.0228 88.3429 45.4016 88.4036 45.8069C88.4644 46.2121 88.406 46.6263 88.2354 46.9989C87.0942 49.8118 82.9861 47.7464 81.9591 45.8578C81.223 44.4713 82.7407 42.5028 84.4182 42.7881C85.8903 43.0106 86.6549 43.935 87.893 44.7166Z" fill="#9E5429"/>
<path d="M86.1927 49.2404C85.1828 49.1753 84.2034 48.8688 83.3366 48.3465C82.4698 47.8243 81.7411 47.1016 81.2116 46.2392C80.982 45.76 80.8908 45.2262 80.9482 44.698C81.0057 44.1697 81.2096 43.668 81.5368 43.2494C81.8651 42.7655 82.3225 42.3833 82.857 42.1463C83.3916 41.9093 83.9818 41.8269 84.5609 41.9085C85.6154 42.1205 86.5978 42.5999 87.4137 43.3007C87.7161 43.5233 88.0242 43.7515 88.3609 43.9626L88.5092 44.0824C88.9013 44.5089 89.1608 45.0402 89.2561 45.6117C89.3513 46.1831 89.2782 46.7699 89.0456 47.3005C88.8494 47.8488 88.4922 48.3251 88.0209 48.6672C87.5496 49.0092 86.9859 49.2011 86.4038 49.2176L86.1927 49.2404ZM84.1044 43.5974C83.8764 43.6162 83.6555 43.686 83.458 43.8015C83.2605 43.9171 83.0914 44.0754 82.9633 44.265C82.8321 44.4206 82.7449 44.6085 82.7108 44.8092C82.6767 45.0098 82.6969 45.2159 82.7693 45.4062C83.2942 46.399 85.0516 47.5515 86.3353 47.483C86.5907 47.4928 86.842 47.4166 87.0489 47.2666C87.2558 47.1166 87.4064 46.9015 87.4765 46.6557C87.5758 46.4488 87.6181 46.2192 87.5991 45.9905C87.58 45.7618 87.5003 45.5424 87.3681 45.3548C87.02 45.1266 86.7176 44.8983 86.4209 44.6758C85.826 44.1462 85.1082 43.7735 84.3326 43.5917L84.1044 43.5974Z" fill="#372420"/>
<path d="M33.0666 111.341L32.6386 115.803C24.8674 125.217 26.699 138.135 26.699 138.135L28.2224 136.84L28.5648 141.244L31.0924 140.149L33.0666 147.452C25.729 148.462 19.1731 152.108 18.5854 157.985C22.6936 160.872 34.105 160.975 50.0696 157.985C49.9213 149.198 47.4107 143.801 47.4107 143.801C47.89 140.948 46.96 135.373 49.442 132.338C47.7987 125.885 48.8086 117.948 47.1996 110.325L33.0666 111.341Z" fill="#9E5429"/>
<path d="M21.7236 158.265C22.2942 152.377 27.7089 150.642 35.0636 149.632L33.9567 147.715C26.602 148.72 19.1731 152.371 18.5854 158.265C20.805 159.806 21.2557 159.127 21.7236 158.265Z" fill="#C87D36"/>
<path d="M47.4108 143.818C47.8901 140.966 46.9601 135.391 49.4421 132.356C47.7988 125.903 44.5294 125.988 46.1613 132.356C43.6736 135.385 43.7364 140.914 43.2514 143.818C43.2514 143.818 45.7676 149.21 45.9159 158.003C39.0348 159.292 41.5967 159.561 50.0697 157.974C49.9214 149.216 47.4108 143.818 47.4108 143.818Z" fill="#713915"/>
<path d="M28.4848 141.285L30.6929 139.647L31.4289 140.218L30.6472 136.361L29.6715 137.354C28.2518 129.15 29.9995 120.713 34.5614 113.749L32.3532 114.24C27.7632 121.431 25.8036 129.989 26.8073 138.46L27.1496 137.051L28.4848 141.285Z" fill="#C87D36"/>
<path d="M30.0597 161.066C24.4452 161.066 20.32 160.279 18.0777 158.71L17.6611 158.419L17.7125 157.917C18.3686 151.338 25.3467 147.875 31.9768 146.745L30.5161 141.342L27.7945 142.523L27.5035 138.586L26.0714 139.796L25.8545 138.244C25.7747 137.707 24.0858 125.023 31.817 115.449L32.2621 110.52L47.8786 109.413L48.0327 110.154C48.8429 113.971 48.9969 117.834 49.1738 121.566C49.3507 125.297 49.4819 128.943 50.315 132.138L50.4234 132.561L50.1495 132.897C48.5918 134.797 48.5348 137.93 48.4891 140.697C48.4949 141.698 48.4435 142.698 48.3351 143.693C48.8372 144.868 50.8342 150.054 50.9711 157.957V158.681L50.2522 158.818C42.3384 160.33 35.4915 161.066 30.0597 161.066ZM19.5155 157.569C23.7663 160.028 34.7269 159.931 49.1852 157.289C48.9228 149.21 46.6519 144.235 46.6234 144.166L46.515 143.926L46.5549 143.658C46.6818 142.663 46.739 141.66 46.7261 140.657C46.7717 137.901 46.8288 134.506 48.5063 132.144C47.736 128.892 47.5933 125.36 47.4393 121.629C47.3745 118.153 47.0618 114.687 46.5035 111.256L33.8654 112.151L33.5002 116.145L33.329 116.351C27.5035 123.426 27.2639 132.686 27.4464 136.384L28.9756 135.083L29.3579 139.972L31.6858 138.957L34.1792 148.177L33.2092 148.286C27.4065 149.102 20.4626 152 19.5155 157.569Z" fill="#372420"/>
<path d="M77.7424 100.033L33.0666 111.341L32.6387 115.803C28.3765 119.894 27.7831 124.196 26.1969 128.151C30.7957 130.781 46.0129 137.394 49.2937 138.084C53.0252 129.469 57.042 126.068 57.042 126.068C66.2568 123.626 66.2682 123.643 73.1835 121.212C74.7298 115.102 76.0649 117.372 81.2286 114.719C79.7565 109.487 77.7424 100.033 77.7424 100.033Z" fill="#D22514"/>
<path d="M55.1993 124.659C51.2002 127.841 47.7333 131.639 44.929 135.911C46.4182 136.541 47.9422 137.086 49.4935 137.543C50.7659 134.621 55.1993 127.643 56.6827 125.618L55.1993 124.659Z" fill="#A8210C"/>
<path d="M35.5486 115.963L35.1264 111.256L34.2762 113.002L33.7798 114.588C30.0768 119.187 27.5948 123.86 26.5336 127.985C27.0014 128.173 27.9828 128.601 28.6162 128.829C30.0084 124.978 31.663 119.073 35.5486 115.963Z" fill="#E94A34"/>
<path d="M49.83 139.077L49.1396 138.929C45.7162 138.21 30.3107 131.511 25.7918 128.904L25.1414 128.527L25.4209 127.831C25.769 126.947 26.0714 126.062 26.3909 125.121C27.4636 121.931 28.5705 118.639 31.8342 115.421L32.2621 110.663L78.3985 98.9829L78.5868 99.8616C78.5868 99.9586 80.6124 109.356 82.0787 114.497L82.2784 115.193L81.6508 115.518C80.3615 116.177 79.0028 116.69 77.5997 117.047C75.5856 117.618 74.9808 117.766 74.0508 121.452L73.9367 121.903L73.4973 122.057C67.164 124.288 58.6225 126.576 57.5213 126.878C56.8081 127.551 53.3561 131.038 50.1438 138.455L49.83 139.077ZM27.2981 127.745C32.2621 130.421 44.8889 135.87 48.8258 137.046C52.5003 128.841 56.3402 125.532 56.5057 125.395L56.654 125.269L56.8423 125.218C56.9393 125.218 65.6691 122.781 72.1622 120.533C73.2577 116.488 74.7925 115.969 77.1319 115.33C78.1937 115.061 79.2289 114.697 80.2244 114.24C79.0376 109.938 77.594 103.399 77.0862 101.071L33.8768 112.032L33.4945 116.203L33.2606 116.431C30.1282 119.438 29.0612 122.605 28.0285 125.669C27.7945 126.359 27.5606 127.061 27.2981 127.745Z" fill="#372420"/>
<path d="M25.05 153.164C23.6635 153.974 21.3812 156.097 21.7635 158.87Z" fill="#9E5429"/>
<path d="M20.9077 158.996C20.4684 155.778 23.0302 153.348 24.6107 152.417L25.4894 153.912C24.2741 154.62 22.3056 156.446 22.6365 158.762L20.9077 158.996Z" fill="#372420"/>
<path d="M30.5333 153.501C27.9429 154.517 26.1798 156.285 26.0315 159.977Z" fill="#9E5429"/>
<path d="M26.8986 160.011L25.1869 159.943C25.3124 156.274 26.9328 153.992 30.2193 152.697L30.8527 154.306C28.1938 155.35 27.0127 157.056 26.8986 160.011Z" fill="#372420"/>
<path d="M20.8279 69.3252C9.4735 77.3132 2.42694 88.5649 1.77649 93.7913L4.34977 92.1367L3.53956 95.252L5.82184 94.2991C8.25248 99.5769 13.2393 105.471 16.2291 106.572C16.1722 108.016 15.6788 109.409 14.8141 110.566L12.6858 110.834L11.6816 113.077C12.6459 115.359 17.7354 118.851 20.2402 119.684C25.2955 118.195 28.9642 112.837 29.9399 107.234C28.6618 102.635 26.1285 99.1889 22.066 95.5316C24.2436 94.9117 26.2144 93.7174 27.7717 92.0739C27.7318 92.0111 27.6976 91.9427 27.6576 91.8856C24.354 84.491 23.2129 76.7997 20.8279 69.3252Z" fill="#9E5429"/>
<path d="M31.7714 65.1762C42.4525 68.4399 40.7122 67.1333 30.0254 63.8696C13.4788 71.076 2.79202 86.9207 1.98181 93.4195L4.52656 91.7991C7.39654 84.2733 17.3587 71.4525 31.7714 65.1762Z" fill="#C87D36"/>
<path d="M13.051 114.44L15.8011 113.071L17.0564 111.93C17.6783 111.182 18.363 108.883 18.4714 107.08C17.8358 106.82 17.2388 106.474 16.6969 106.053C16.5371 107.725 15.9038 109.916 15.3104 110.617L13.1879 110.885L12.178 113.128L13.051 114.44Z" fill="#C87D36"/>
<path d="M21.2844 95.6509C23.4207 95.0451 25.3581 93.8835 26.8989 92.2845L24.531 89.8311C22.4997 94.0932 18.4772 94.0305 15.9039 94.7094C19.9664 98.3611 24.24 103.993 25.5238 108.586C24.7934 112.751 21.1589 116.671 17.9295 119.016C18.3637 119.235 18.8115 119.425 19.2703 119.586C24.3256 118.103 28.1712 112.951 29.1583 107.359C27.8745 102.76 25.3469 99.3083 21.2844 95.6509Z" fill="#713915"/>
<path d="M20.2344 120.573L19.9834 120.488C17.2504 119.586 11.9954 115.975 10.8999 113.401L10.7515 113.053L12.0981 110.058L14.3404 109.767C14.8579 108.975 15.1877 108.075 15.3047 107.136C12.235 105.567 7.88726 100.449 5.39386 95.4397L2.26142 96.7064L2.96893 94.0817L0.686646 95.5424L0.914874 93.7051C1.54821 88.6442 8.15543 77.1586 20.3143 68.6342L21.2786 67.9609L21.6323 69.1021C22.511 71.8579 23.2357 74.6766 23.9146 77.4039C25.1071 82.0769 26.3396 86.9039 28.3993 91.5027C28.4216 91.531 28.4408 91.5616 28.4564 91.594L28.8387 92.2217L28.3765 92.7009C27.0504 94.0773 25.4587 95.1701 23.6978 95.9133C27.475 99.5307 29.6089 102.914 30.7558 107.028L30.8128 107.216L30.7786 107.41C29.6375 113.778 25.5122 119.056 20.4627 120.533L20.2344 120.573ZM12.6687 113.042C13.7585 114.89 17.8723 117.852 20.2801 118.748C24.548 117.355 28.0456 112.785 29.084 107.251C27.9086 103.194 25.6606 99.8616 21.5182 96.1529L20.3257 95.0802L21.872 94.6694C23.6991 94.1499 25.3718 93.1921 26.7447 91.8793C24.6963 87.2292 23.4696 82.4306 22.2828 77.7805C21.7122 75.4582 21.0789 73.0619 20.3657 70.7168C11.0083 77.5637 4.88606 86.5559 3.12299 91.8907L5.75333 90.179L4.82329 93.7622L6.28396 93.1574L6.63201 93.9105C8.96565 98.9658 13.7927 104.711 16.5543 105.733L17.1591 105.955L17.1077 106.634C17.0444 108.252 16.4912 109.812 15.5215 111.108L15.3047 111.37L13.3248 111.621L12.6687 113.042Z" fill="#372420"/>
<path d="M15.1905 112.471C14.7352 111.988 14.4059 111.4 14.2319 110.759L15.7554 110.491C15.8791 110.839 16.0734 111.158 16.3259 111.427L15.1905 112.471Z" fill="#372420"/>
<path d="M14.2949 116.06L14.1123 114.525C15.0328 114.408 15.8992 114.025 16.6057 113.424L17.6955 114.519C16.7431 115.364 15.5578 115.901 14.2949 116.06Z" fill="#372420"/>
<path d="M17.2333 118.736L17.0564 117.201C17.9849 117.097 18.8511 116.683 19.5156 116.026L20.6054 117.121C19.6946 118.023 18.5067 118.592 17.2333 118.736Z" fill="#372420"/>
<path d="M35.1548 18.8858C40.0707 18.8858 44.0558 14.9008 44.0558 9.98491C44.0558 5.06906 40.0707 1.08398 35.1548 1.08398C30.239 1.08398 26.2539 5.06906 26.2539 9.98491C26.2539 14.9008 30.239 18.8858 35.1548 18.8858Z" fill="#9E5429"/>
<path d="M26.7618 11.0005C27.0488 8.94946 28.077 7.07457 29.6522 5.73003C31.2274 4.38549 33.2405 3.66442 35.3111 3.70305C37.3818 3.74168 39.3666 4.53734 40.8905 5.9397C42.4145 7.34206 43.372 9.254 43.5823 11.3143C43.7093 10.132 43.5861 8.93629 43.2207 7.80479C42.8552 6.67329 42.2557 5.63138 41.4611 4.74682C40.6665 3.86225 39.6946 3.15483 38.6086 2.67057C37.5226 2.1863 36.3469 1.93604 35.1578 1.93604C33.9688 1.93604 32.793 2.1863 31.707 2.67057C30.6211 3.15483 29.6492 3.86225 28.8546 4.74682C28.06 5.63138 27.4604 6.67329 27.095 7.80479C26.7295 8.93629 26.6063 10.132 26.7333 11.3143C26.7379 11.2093 26.7474 11.1046 26.7618 11.0005Z" fill="#C87D36"/>
<path d="M36.3931 1.17614C34.4632 0.897637 32.4954 1.26472 30.7958 2.22029C32.5198 2.60624 34.1101 3.44398 35.4035 4.64754C36.6968 5.8511 37.6466 7.37713 38.1554 9.06901C38.6642 10.7609 38.7136 12.5577 38.2986 14.275C37.8837 15.9922 37.0192 17.5682 35.794 18.841C37.99 18.6864 40.0507 17.7228 41.5774 16.1368C43.1042 14.5508 43.9886 12.4549 44.0595 10.2546C44.1305 8.05428 43.3831 5.9058 41.9617 4.22468C40.5403 2.54355 38.5461 1.44921 36.3646 1.15332L36.3931 1.17614Z" fill="#713915"/>
<path d="M35.1606 19.7535C34.6987 19.7528 34.2373 19.7204 33.7798 19.6565C32.4961 19.4932 31.2575 19.0763 30.1362 18.4303C29.0149 17.7842 28.0331 16.9218 27.248 15.893C26.4628 14.8643 25.8898 13.6898 25.5624 12.4378C25.235 11.1858 25.1596 9.88118 25.3407 8.59978C25.5218 7.31839 25.9556 6.08574 26.6171 4.97344C27.2786 3.86115 28.1545 2.89139 29.194 2.12049C30.2335 1.34959 31.4157 0.792921 32.6722 0.482822C33.9286 0.172723 35.2341 0.115375 36.5129 0.314109C38.9581 0.661256 41.1811 1.92177 42.7344 3.84194C44.2877 5.76211 45.0559 8.19938 44.8845 10.6632C44.7131 13.127 43.6148 15.4344 41.8106 17.121C40.0065 18.8077 37.6304 19.7482 35.1606 19.7535ZM35.1606 1.95165C33.6185 1.95182 32.1091 2.39582 30.8125 3.23064C29.5159 4.06546 28.4869 5.25582 27.8486 6.65958C27.2102 8.06334 26.9893 9.62117 27.2123 11.1471C27.4353 12.673 28.0928 14.1024 29.1062 15.2648C30.1196 16.4271 31.4462 17.2732 32.9274 17.7021C34.4087 18.1309 35.9821 18.1244 37.4598 17.6832C38.9374 17.242 40.2569 16.3849 41.2606 15.2141C42.2643 14.0434 42.9098 12.6085 43.1201 11.0808C43.2674 10.0354 43.2071 8.97117 42.9426 7.9491C42.678 6.92704 42.2145 5.96718 41.5785 5.12449C40.9425 4.28181 40.1466 3.57284 39.2362 3.03819C38.3259 2.50354 37.319 2.1537 36.2732 2.00871C35.9003 1.96439 35.5248 1.94533 35.1492 1.95165H35.1606Z" fill="#372420"/>
<path d="M77.5085 49.103C76.4577 48.3831 75.6069 47.408 75.0361 46.2693C74.4652 45.1306 74.1929 43.8655 74.2448 42.5928L74.5643 35.9228C75.0002 32.8758 74.8256 29.7725 74.0508 26.7936C75.7185 26.5003 77.2831 25.7843 78.5953 24.7141C79.9074 23.6439 80.9233 22.2552 81.546 20.6806C82.1686 19.106 82.3772 17.398 82.1518 15.7198C81.9264 14.0416 81.2746 12.4492 80.2586 11.0947C79.2425 9.74015 77.8962 8.66869 76.3482 7.98263C74.8001 7.29656 73.102 7.0188 71.4161 7.17586C69.7301 7.33291 68.1126 7.91955 66.7179 8.87976C65.3232 9.83996 64.198 11.1417 63.4496 12.6606C62.3165 11.9881 61.1272 11.4154 59.8949 10.9489C59.7751 8.53533 57.4985 5.81371 57.4985 5.81371L56.0322 9.80771L55.8096 9.76206C54.5829 6.66386 53.1223 3.35454 50.6745 1.48877L49.3565 9.36266C48.3394 7.34874 46.8639 5.60159 45.0487 4.26175L44.8204 10.2071C40.4499 11.3666 36.5348 13.8268 33.5941 17.2617C30.6534 20.6966 28.8259 24.944 28.3537 29.4411L24.3997 56.5718L29.5348 60.8054L27.9087 62.5172L31.0411 63.4415L27.7946 66.7051C36.7354 70.0772 44.6493 73.7917 50.3436 78.2307C58.1718 69.2841 65.6121 62.5229 76.7554 59.2421L78.8551 52.555L75.2604 51.8589L77.5085 49.103Z" fill="#9E5429"/>
<path d="M52.2549 75.2127C46.6348 70.8364 38.8636 67.1619 30.0768 63.8013L27.8516 66.0379C36.7924 69.41 44.7063 73.1244 50.4063 77.5635L52.2549 75.2127Z" fill="#713915"/>
<path d="M45.7618 12.0678L45.6534 10.1621C37.0948 12.53 29.5005 19.7762 28.3879 29.5616L28.0741 31.5814C28.618 31.7848 29.1399 32.0429 29.6318 32.3517L29.82 31.0393C30.9555 21.2369 37.2032 14.4414 45.7618 12.0678Z" fill="#C87D36"/>
<path d="M73.6799 7.61129C71.5669 7.31752 69.4191 7.80047 67.6352 8.97048C65.8514 10.1405 64.5526 11.9181 63.9802 13.9732L64.5166 14.3041C65.3472 12.5732 66.7206 11.161 68.4277 10.2825C70.1348 9.40394 72.0822 9.10713 73.9735 9.43721C75.8649 9.76728 77.5966 10.7062 78.9052 12.111C80.2138 13.5159 81.0277 15.3098 81.2229 17.2197C81.4514 14.9537 80.7935 12.6873 79.3872 10.8959C77.9809 9.10444 75.9354 7.92726 73.6799 7.61129Z" fill="#C87D36"/>
<path d="M77.0577 49.1036C76.0057 48.3848 75.154 47.41 74.583 46.271C74.012 45.132 73.7405 43.8664 73.794 42.5934L74.1135 35.9234C74.5475 32.876 74.371 29.7728 73.5943 26.7942C75.008 26.5444 76.3504 25.99 77.5285 25.1697C78.7066 24.3493 79.6922 23.2825 80.4169 22.0432C81.1416 20.804 81.5881 19.4219 81.7254 17.9929C81.8627 16.5639 81.6876 15.1221 81.2122 13.7675C80.7368 12.4129 79.9724 11.178 78.9721 10.1482C77.9718 9.11848 76.7595 8.31863 75.4193 7.80411C74.0791 7.2896 72.643 7.07274 71.2106 7.16856C69.7782 7.26439 68.3838 7.67061 67.124 8.35907C67.9686 8.37141 68.8083 8.49027 69.6231 8.71282C71.7365 9.31681 73.5836 10.6175 74.8645 12.4036C76.1455 14.1897 76.785 16.3564 76.6793 18.5519C76.5735 20.7473 75.7287 22.8425 74.2821 24.4972C72.8354 26.152 70.8718 27.2691 68.7102 27.6672C69.463 30.5876 69.6336 33.6275 69.2123 36.6138L68.8985 43.1525C68.8435 44.4058 69.1072 45.6525 69.665 46.776C70.2228 47.8996 71.0565 48.8634 72.088 49.5772L69.1553 53.9763L73.0694 54.8778L73.64 57.5766C63.5523 60.5664 55.5072 69.0736 48.2495 76.9247C48.8441 77.3381 49.4155 77.7838 49.9612 78.2598C57.7438 69.3133 65.1613 62.552 76.3274 59.2769L78.3871 52.5613L74.8039 51.8595L77.0577 49.1036Z" fill="#713915"/>
<path d="M53.79 10.367L55.0224 10.561L55.593 10.4982C54.5203 8.02763 52.7401 4.02222 50.8116 2.54443L50.4692 4.59279C51.906 6.30805 53.03 8.26253 53.79 10.367Z" fill="#713915"/>
<path d="M58.0234 11.2122C59.0618 11.4747 60.2372 11.7828 60.2372 11.7828C60.1174 9.36928 57.6582 6.83594 57.6582 6.83594L57.2417 8.4963C57.7671 9.3035 58.0393 10.2493 58.0234 11.2122Z" fill="#713915"/>
<path d="M47.3368 10.6242L49.2938 10.2362C48.5064 9.24341 46.3326 6.21367 45.1914 5.31787L45.1058 7.46893C46.0334 8.37778 46.7892 9.44669 47.3368 10.6242Z" fill="#713915"/>
<path d="M67.9114 17.3057L66.2454 17.0547C66.485 15.343 67.4778 13.0607 69.5376 11.9195C70.7301 11.2462 72.7499 10.7042 75.5913 11.9195L74.9295 13.4715C72.3733 13.7282 70.0511 15.0919 67.9114 17.3057Z" fill="#372420"/>
<path d="M78.7751 48.9151L77.9934 48.3845C77.0617 47.7506 76.3077 46.8888 75.8034 45.881C75.299 44.8733 75.061 43.7532 75.112 42.6274L75.4315 36.0031C75.8258 33.1642 75.7118 30.2777 75.0949 27.4788C77.36 26.8676 79.3635 25.5332 80.8006 23.6787C81.6915 22.5218 82.3375 21.1956 82.6995 19.7809C83.0614 18.3663 83.1316 16.8927 82.9059 15.4501C82.6802 14.0074 82.1632 12.6258 81.3864 11.3893C80.6096 10.1528 79.5894 9.08738 78.3877 8.25783C77.186 7.42827 75.828 6.85196 74.3965 6.56399C72.9649 6.27602 71.4898 6.28241 70.0608 6.58278C68.6318 6.88315 67.2789 7.4712 66.0844 8.31114C64.8899 9.15108 63.8789 10.2253 63.1129 11.4685C62.3282 11.0436 61.5206 10.6627 60.6937 10.3274C60.3114 7.90242 58.4114 5.56878 58.1546 5.26067L57.1846 4.11953L55.8952 7.70272C54.754 4.99821 53.3162 2.44775 51.1822 0.855858L50.0411 0L48.8999 6.9781C47.956 5.71658 46.8424 4.59144 45.5906 3.63454L44.2612 2.60751L43.9873 9.61984C41.2102 10.4522 38.6091 11.7866 36.3131 13.5568C33.8624 15.4581 31.8195 17.8332 30.306 20.5407C28.7925 23.2481 27.8394 26.2325 27.5035 29.316L23.481 56.9317L28.3023 60.8915L26.3623 62.974L29.4491 63.887L26.2825 67.0707L27.5377 67.5443C37.711 71.39 44.8089 75.0074 49.8585 78.9558L50.5032 79.4579L51.0738 78.8416C59.4612 69.2503 66.8501 63.1224 77.0748 60.1155L77.4856 59.9899L80.0418 51.8593L76.9036 51.2545L78.7751 48.9151ZM77.6339 53.2686L76.1219 58.5635C65.96 61.6446 58.6054 67.6927 50.2522 77.0843C45.3339 73.3927 38.6468 69.9693 29.3693 66.3975L32.7014 63.0482L29.5233 62.1296L30.8242 60.7431L25.3296 56.2242L29.2152 29.5385C29.515 26.6706 30.3913 23.8928 31.7915 21.372C33.1916 18.8512 35.0867 16.6393 37.363 14.8691C39.775 13.0105 42.545 11.6702 45.4993 10.9322L45.6591 10.8865L45.7276 9.09492L45.8417 6.0823C46.6719 6.85462 47.3987 7.73105 48.0041 8.68981C48.2119 9.02991 48.4024 9.38031 48.5747 9.73967L48.8543 10.3102C49.2594 10.2703 49.6702 10.2361 50.081 10.2189L50.3777 8.49582L51.2678 3.20091C52.6259 4.83628 53.7001 6.68778 54.4459 8.6784C54.6912 9.24897 54.9252 9.81954 55.1534 10.3901L55.1991 10.5213C55.6726 10.6012 56.1519 10.6982 56.6141 10.8066L57.1846 9.16909L57.7552 7.63425C58.1907 8.22642 58.5225 8.88816 58.7366 9.59132C58.8958 10.2167 58.9857 10.8577 59.0048 11.5027C59.3471 11.6226 59.6895 11.7595 60.0261 11.8964C61.0548 12.3219 62.0504 12.8235 63.0045 13.397L63.809 13.882L64.2255 13.0433C64.9128 11.6653 65.9411 10.4859 67.2125 9.61721C68.484 8.74849 69.9564 8.21926 71.49 8.0798C73.0235 7.94034 74.5673 8.19528 75.9746 8.82041C77.3819 9.44553 78.606 10.4201 79.5306 11.6515C80.4553 12.8829 81.0497 14.3302 81.2575 15.856C81.4653 17.3818 81.2796 18.9354 80.7179 20.3692C80.1563 21.803 79.2373 23.0694 78.0485 24.0481C76.8596 25.0268 75.4402 25.6853 73.9252 25.961L73.0066 26.1265L73.2405 27.0337C73.9789 29.8964 74.1418 32.8772 73.7198 35.8034L73.3775 42.559C73.3239 43.8202 73.5569 45.0771 74.059 46.2353C74.561 47.3935 75.319 48.4229 76.276 49.2461L73.6114 52.544L77.6339 53.2686Z" fill="#372420"/>
<path d="M40.1537 28.328C40.4652 26.1061 39.1542 24.0857 37.2257 23.8153C35.2971 23.545 33.4812 25.127 33.1697 27.3489C32.8582 29.5709 34.1691 31.5912 36.0977 31.8616C38.0263 32.132 39.8422 30.5499 40.1537 28.328Z" fill="white"/>
<path d="M36.7983 23.7933C36.9427 23.785 37.0875 23.785 37.2319 23.7933C39.1604 24.0672 40.4671 26.0756 40.1589 28.3065C39.868 30.3606 38.2932 31.8669 36.5358 31.8669C36.3914 31.8754 36.2466 31.8754 36.1022 31.8669C34.1736 31.593 32.8613 29.5846 33.1751 27.3537C33.4661 25.2996 35.0409 23.7933 36.7983 23.7933ZM36.7983 22.5552C34.4076 22.5552 32.3193 24.5465 31.9484 27.1825C31.5433 30.0753 33.3292 32.7228 35.9424 33.0879C36.1427 33.1175 36.3448 33.1328 36.5472 33.1336C38.9379 33.1336 41.0262 31.1423 41.3914 28.5062C41.8022 25.6134 40.0163 22.966 37.3974 22.6008C37.1971 22.5714 36.995 22.5562 36.7926 22.5552H36.7983Z" fill="#372420"/>
<path d="M39.8975 29.3286C40.1162 27.7682 39.269 26.3597 38.0051 26.1825C36.7412 26.0054 35.5394 27.1266 35.3206 28.687C35.1019 30.2473 35.9491 31.6558 37.213 31.833C38.4769 32.0102 39.6788 30.8889 39.8975 29.3286Z" fill="#372420"/>
<path d="M36.9636 27.365C37.3166 27.365 37.6027 27.0789 37.6027 26.726C37.6027 26.373 37.3166 26.0869 36.9636 26.0869C36.6107 26.0869 36.3246 26.373 36.3246 26.726C36.3246 27.0789 36.6107 27.365 36.9636 27.365Z" fill="white"/>
<path d="M54.9568 31.1707C55.2674 28.955 53.9583 26.9401 52.0329 26.6701C50.1074 26.4002 48.2948 27.9776 47.9842 30.1932C47.6735 32.4089 48.9826 34.4239 50.9081 34.6938C52.8335 34.9637 54.6462 33.3864 54.9568 31.1707Z" fill="white"/>
<path d="M51.6044 26.6398C51.7494 26.6408 51.8942 26.6503 52.038 26.6683C53.9609 26.9422 55.2675 28.9506 54.9594 31.1701C54.6741 33.2242 53.0993 34.7248 51.3419 34.7248C51.1976 34.736 51.0526 34.736 50.9083 34.7248C48.9855 34.4566 47.6789 32.4425 47.987 30.223C48.278 28.1746 49.847 26.6683 51.6044 26.6683M51.6044 25.4302C49.2137 25.4302 47.1311 27.4158 46.7659 30.0518C46.3608 32.9389 48.141 35.5864 50.7599 35.9515C50.9604 35.979 51.1625 35.9924 51.3647 35.9915C53.7554 35.9915 55.838 34.0059 56.2089 31.3755C56.4062 30.0435 56.1187 28.6849 55.3987 27.547C55.0534 26.9921 54.5911 26.5193 54.0442 26.1616C53.4972 25.8038 52.8788 25.5698 52.232 25.4758C52.0318 25.4462 51.8296 25.431 51.6272 25.4302H51.6044Z" fill="#372420"/>
<path d="M54.6808 32.1389C54.8991 30.5817 54.0515 29.1757 52.7876 28.9985C51.5237 28.8214 50.3222 29.9401 50.1039 31.4973C49.8856 33.0545 50.7332 34.4605 51.9971 34.6377C53.2609 34.8149 54.4625 33.6961 54.6808 32.1389Z" fill="#372420"/>
<path d="M51.827 30.1257C52.18 30.1257 52.4661 29.8396 52.4661 29.4867C52.4661 29.1338 52.18 28.8477 51.827 28.8477C51.4741 28.8477 51.188 29.1338 51.188 29.4867C51.188 29.8396 51.4741 30.1257 51.827 30.1257Z" fill="white"/>
<path d="M36.7981 60.6628C37.7 61.6611 38.8151 62.4437 40.0606 62.9523C41.3061 63.461 42.6501 63.6828 43.9931 63.6012C52.6486 63.4301 55.1363 56.4577 57.1562 56.0297H57.3159C60.8991 55.1568 65.3039 52.2411 65.7718 46.9006C66.1484 42.3988 64.0201 38.0624 60.2487 36.5904C55.4616 34.4678 52.6087 38.1651 43.2171 35.4777C35.6912 33.3381 27.9714 29.909 25.4495 29.6636C17.4615 28.5225 10.7687 32.8531 10.2951 41.5829C10.141 44.4928 10.5518 47.6366 11.9326 49.9646C12.251 49.4099 12.6642 48.9155 13.1536 48.5039C14.5915 54.3808 18.5056 56.8799 22.9675 57.5075L36.7981 60.6628Z" fill="#E9BC6E"/>
<path d="M60.1573 36.5336C58.3429 35.4495 56.072 36.0144 53.9495 36.3168C62.2399 38.736 62.9702 49.2231 55.3474 56.3267C55.8985 56.1242 56.4741 55.9957 57.0591 55.9444H57.2188C60.802 55.0715 65.2068 52.1558 65.669 46.8153C66.057 42.3363 63.0558 37.8402 60.1573 36.5336Z" fill="#C87D36"/>
<path d="M26.3624 57.023C23.5609 56.3497 21.4612 55.9674 18.945 54.0046C17.6614 52.9851 16.6036 51.7101 15.8385 50.2604C15.0734 48.8107 14.6177 47.218 14.5002 45.583C11.7272 46.1536 10.7515 39.5235 11.2422 37.0244C10.6879 38.4865 10.3683 40.0271 10.2951 41.589C10.141 44.4989 10.5518 47.6428 11.9326 49.9707C12.251 49.4161 12.6642 48.9217 13.1536 48.51C14.5915 54.3869 18.5056 56.886 22.9675 57.5137L36.0051 60.4863L36.0621 60.4179C35.5885 60.0128 28.9699 57.6506 26.3624 57.023Z" fill="#C87D36"/>
<g style="mix-blend-mode:multiply">
<path d="M26.6249 47.9224C30.2024 46.8155 32.8384 43.9284 32.673 39.2668C32.6437 38.0829 32.3327 36.923 31.7658 35.8833C31.5375 39.0386 29.2952 42.3878 26.973 44.3221C25.073 45.8968 22.3114 46.6614 19.6411 46.7185C19.7039 46.9068 19.778 47.0722 19.8522 47.2434C21.2273 47.9224 22.7108 48.6128 26.6249 47.9224Z" fill="#D79E49"/>
</g>
<path d="M43.7363 64.4687C42.3634 64.5133 40.9966 64.2674 39.7253 63.7473C38.4539 63.2272 37.3068 62.4445 36.3588 61.4504L22.8134 58.3579C17.8323 57.6504 14.3804 54.8603 12.7713 50.2615L12.6686 50.4155L11.9212 51.6365L11.1909 50.4041C9.86714 48.1789 9.24521 45.0122 9.4335 41.5374C9.65603 37.3437 11.2593 33.9089 14.0665 31.5981C17.0164 29.1731 21.096 28.1746 25.5693 28.808C26.9387 28.9392 29.6375 29.9206 33.0552 31.1587C36.2333 32.3113 39.8393 33.6008 43.4795 34.6449C46.8829 35.6837 50.482 35.9123 53.9895 35.3125C56.2718 35.0101 58.2003 34.7419 60.6024 35.8317C64.5565 37.3779 67.0556 41.9768 66.6334 47.0035C66.1541 52.7834 61.424 55.9501 57.5042 56.8972C57.5042 56.8972 57.2874 56.9657 57.1162 57.0399C56.5782 57.4576 56.0849 57.9299 55.6441 58.4492C53.6757 60.6573 50.3835 64.3432 43.9931 64.4744L43.7363 64.4687ZM13.6843 47.0548L13.9924 48.2987C15.1849 53.16 18.2488 55.9672 23.0873 56.6519H23.1615L37.2432 59.8642L37.4201 60.0525C38.2434 60.9597 39.2599 61.6706 40.3945 62.1327C41.5291 62.5949 42.753 62.7965 43.9759 62.7228C49.6132 62.6143 52.4775 59.402 54.3718 57.2795C55.3646 56.1384 55.918 55.5678 56.8309 55.2996L57.2703 55.1627C60.5796 54.3011 64.5108 51.6308 64.9102 46.8437C65.264 42.5759 63.1985 38.696 59.9348 37.4122C57.9378 36.5164 56.3802 36.7218 54.2291 37.0071C50.4781 37.6441 46.6304 37.402 42.9888 36.2996C39.3201 35.2554 35.6855 33.9374 32.4789 32.7734C29.2723 31.6095 26.5678 30.6281 25.3753 30.4911C21.3813 29.9206 17.7467 30.7878 15.1735 32.9047C12.7542 34.896 11.3734 37.9029 11.1795 41.5945C10.9972 43.875 11.3106 46.1679 12.0981 48.3158C12.2701 48.1254 12.4613 47.9534 12.6686 47.8023L13.6843 47.0548Z" fill="#372420"/>
<path d="M40.5183 56.2758C38.5346 56.2366 36.5902 55.7157 34.8525 54.758L35.5943 53.3373C39.2459 55.243 42.7892 55.049 45.294 52.8866C47.5364 50.9295 48.512 47.6715 47.6105 45.1496L48.8201 44.2139C49.9613 44.9727 51.8499 46.0625 51.867 46.0739L51.0682 47.4718C51.0225 47.4718 50.3322 47.0496 49.5391 46.5646C49.6192 47.9804 49.3732 49.3956 48.8203 50.7014C48.2673 52.0071 47.422 53.1685 46.3496 54.0962C44.7397 55.5146 42.6639 56.2905 40.5183 56.2758Z" fill="#372420"/>
<path d="M50.2009 22.521L48.6147 20.9519C49.6811 19.8793 51.035 19.1383 52.5133 18.8184C53.9915 18.4985 55.5307 18.6133 56.9451 19.1489L56.1577 21.2315C55.1462 20.8494 54.0457 20.7678 52.9889 20.9966C51.932 21.2253 50.9639 21.7547 50.2009 22.521Z" fill="#372420"/>
<path d="M40.9348 22.5717C40.4129 21.6245 39.6286 20.8482 38.6762 20.336C37.7237 19.8238 36.6436 19.5976 35.5657 19.6846L35.3888 17.4651C36.898 17.3393 38.4113 17.6533 39.7458 18.3692C41.0804 19.085 42.179 20.1721 42.9089 21.499L40.9348 22.5717Z" fill="#372420"/>
<path d="M88.1153 56.3672C84.5435 55.9621 80.6979 56.7152 76.8865 58.1645C66.5135 62.13 56.4372 71.202 53.0537 76.0177C46.6462 72.1035 37.4771 68.4062 28.7359 64.9828C22.1059 67.8357 15.3845 71.4531 11.1281 75.9606C14.3233 82.682 19.641 89.5573 24.5308 95.0976C26.1847 93.7922 27.7496 92.3778 29.2152 90.864L30.9269 101.556L31.4347 115.193C47.1369 116.774 63.0273 111.673 76.9321 107.142L77.0519 99.7249L78.4441 82.9558C81.7706 82.9558 85.5192 81.8603 91.2649 80.9531C91.5673 75.8237 89.6273 63.3167 88.1153 56.3672Z" fill="#F4F6F8"/>
<path d="M90.934 76.5298C87.7502 77.2202 78.1018 78.7607 74.1249 78.4469C73.8054 87.2737 72.9838 95.1304 72.4817 105.492C58.9762 107.495 45.7333 114.661 31.9711 113.691C32.011 114.153 32.3134 114.798 32.3476 115.266C47.7531 116.738 61.9717 111.877 77.1661 107.152C77.7024 96.7908 78.3586 91.7983 78.6781 82.9658C82.6721 83.2797 88.3151 81.6478 91.4988 80.9631C91.5103 79.0004 91.6529 76.6154 90.934 76.5298Z" fill="#CDCFD0"/>
<path d="M28.9186 84.9526C26.8531 86.6986 24.4054 88.4559 21.5753 90.6584C22.4654 91.9821 23.4011 93.3629 24.4282 94.8121C26.4198 93.447 28.2957 91.9203 30.0369 90.2475C29.6261 88.4617 29.3636 86.9782 28.9186 84.9526Z" fill="#CDCFD0"/>
<path d="M77.1832 94.2075C77.0919 97.631 76.972 101.477 76.6126 107.08C51.884 115.193 46.3666 115.193 31.4347 115.193L30.9269 101.922C64.117 102.92 62.8789 98.8006 77.1832 94.2075Z" fill="#2D2F7B"/>
<path d="M73.0524 95.6682C72.9668 99.0916 72.8356 103.051 72.5503 108.398C73.8512 107.987 75.2035 107.547 76.6242 107.08C76.9722 101.477 77.092 97.631 77.1947 94.2075C75.6485 94.7039 74.2905 95.2231 73.0524 95.6682Z" fill="#22225C"/>
<path d="M10.7858 76.4904C11.4142 76.9916 12.0694 77.4583 12.7485 77.8883C18.9849 72.6276 25.2212 69.5465 31.121 66.7907L30.5504 65.4727C23.2154 67.6074 16.4586 71.374 10.7858 76.4904Z" fill="white"/>
<path d="M37.3744 116.334C35.3602 116.334 33.3804 116.243 31.3491 116.043L30.596 115.963L30.0882 101.619L28.6446 92.6837C27.5035 93.7449 26.1797 94.9089 25.1014 95.7705L24.5707 96.2155L24.0001 95.6107C17.7524 88.5356 13.0965 82.0825 10.3635 76.3311L10.1124 75.7947L10.5175 75.3668C14.1863 71.4812 20.0404 67.8182 28.4107 64.1722L28.7359 64.0296L29.0725 64.1608C37.6311 67.5215 46.4921 71.1161 52.8369 74.8647C56.6825 69.8209 66.3708 61.2452 76.5955 57.3539C80.8519 55.7334 84.7718 55.1115 88.2294 55.5052L88.8514 55.5737L88.9826 56.1842C90.506 63.2022 92.4574 75.7377 92.1436 81.0155L92.1036 81.7059L91.4132 81.82C89.3478 82.1452 87.5162 82.499 85.9015 82.8128C83.7084 83.303 81.4833 83.6366 79.2429 83.8113L77.9192 99.7873L77.788 107.775L77.2174 107.969C65.5891 111.769 51.4675 116.334 37.3744 116.334ZM32.2734 114.388C47.5191 115.712 63.2783 110.668 76.0763 106.497L76.1904 99.6504L77.6453 82.0996H78.4441C80.4754 82.0996 82.7177 81.6659 85.5535 81.1125C86.997 80.8329 88.6117 80.5419 90.4261 80.2224C90.5288 74.9617 88.7886 63.7386 87.4021 57.1656C84.3724 56.9431 80.9375 57.5479 77.1889 58.9743C67.3009 62.7344 57.2189 71.5782 53.7612 76.5137L53.2933 77.1755L52.6086 76.7533C46.4236 72.9761 37.4599 69.3359 28.7701 65.9124C21.1016 69.2788 15.647 72.6281 12.1836 76.1371C14.7797 81.432 18.9449 87.4059 24.6506 93.899C26.0298 92.7742 27.3406 91.5682 28.5761 90.2873L29.7857 88.9464L31.8455 101.499L32.2734 114.388Z" fill="#372420"/>
<path d="M38.453 76.6397C37.1106 76.6386 35.7986 77.0398 34.6865 77.7917C33.5744 78.5435 32.713 79.6113 32.2137 80.8575C31.7144 82.1036 31.6001 83.4707 31.8853 84.7825C32.1706 86.0942 32.8425 87.2904 33.8142 88.2166C34.0254 88.2166 34.2365 88.188 34.4533 88.1823C33.3993 87.3101 32.6591 86.1174 32.3455 84.7857C32.0319 83.4541 32.162 82.0564 32.716 80.8055C33.2699 79.5546 34.2175 78.5189 35.4144 77.8562C36.6112 77.1935 37.9919 76.94 39.3461 77.1343C40.7003 77.3286 41.954 77.9601 42.9162 78.9326C43.8784 79.9051 44.4966 81.1654 44.6765 82.5216C44.8564 83.8779 44.5882 85.2557 43.9128 86.4455C43.2374 87.6352 42.1917 88.5717 40.935 89.1124C41.3092 89.0286 41.6933 88.9979 42.0761 89.0211C43.2993 88.2377 44.2358 87.0792 44.7453 85.7191C45.2549 84.3589 45.3102 82.8702 44.9028 81.476C44.4955 80.0818 43.6475 78.8571 42.4858 77.9852C41.3241 77.1134 39.9112 76.6413 38.4587 76.6397H38.453Z" fill="#D5A73B"/>
<path d="M39.6909 81.2324L40.1531 82.4135C40.6232 82.3282 41.0974 82.2673 41.5738 82.2309C41.2704 81.287 40.67 80.4665 39.8621 79.8916C39.4228 80.0856 39.5654 80.8844 39.6909 81.2324Z" fill="#2D2F7B"/>
<path d="M38.1503 84.2903L39.1659 84.0164L39.9476 83.0179L41.1629 83.0864L41.568 84.5128L40.8491 84.7981L40.9119 84.9807L41.8932 84.8609L41.8305 84.6554L42.0644 84.5699L41.6022 82.9152V82.5044C39.4566 82.7867 37.3507 83.3151 35.326 84.0792C35.3978 84.4283 35.4892 84.7731 35.5998 85.1119C35.7824 85.0263 36.2617 84.8323 36.4671 84.7582C35.9027 85.1236 35.4381 85.6236 35.1148 86.2131L35.2746 86.9206L34.8239 87.7365L35.9308 87.7936L36.3701 86.9548L36.0221 86.4185C36.2661 85.6269 36.7708 84.9411 37.4542 84.4729L37.9049 84.3473C37.2126 84.8299 36.7229 85.5513 36.5299 86.3729L36.9863 87.0119L36.5413 87.8735L37.9221 88.1131L38.3386 87.2515L37.4941 86.4185C37.4957 85.6595 37.7242 84.9184 38.1503 84.2903Z" fill="#2D2F7B"/>
<path d="M39.8507 82.4768L39.4856 81.4555C39.2745 80.8849 39.109 80.0291 39.7708 79.8122C38.7552 79.1047 37.7054 78.8651 37.4429 78.5513H37.403C37.3573 79.2474 34.8525 80.9591 35.309 83.8119C36.7836 83.2427 38.3027 82.7961 39.8507 82.4768Z" fill="#2D2F7B"/>
<path d="M40.6895 83.8912L40.9976 83.3263L40.0847 83.2407L39.6567 83.7485L40.4498 83.5146L40.136 83.8855L40.6895 83.8912Z" fill="#2D2F7B"/>
<path d="M42.2356 86.915L41.7107 86.1675L41.7849 85.7624L40.6894 85.8366L41.1173 85.5513L41.8477 85.4543L41.7221 85.0264L40.7236 85.1348L40.0332 85.6369L38.0248 85.1918L37.9449 86.1276L39.1489 87.3657L38.6239 88.9975L39.9762 89.6023L40.9176 89.1687L40.638 87.5996L41.9504 87.5654L42.2356 86.915Z" fill="#2D2F7B"/>
<path d="M39.9933 89.2373C37.9213 88.238 35.6097 87.8425 33.3233 88.0962L32.8554 88.7923C34.4987 88.6382 37.42 88.6211 38.641 89.1917V89.2659C36.6017 89.0466 34.5441 89.058 32.5074 89.3001L31.7257 90.4412C33.5691 91.0478 35.5454 91.1269 37.4314 90.6695C39.0576 90.3671 40.4212 90.0019 41.5567 90.5211L43.1086 89.2431C42.3954 88.5926 40.9747 88.8665 39.9933 89.2373Z" fill="#D22514"/>
<path d="M42.2244 91.4115C42.2043 91.6921 42.0786 91.9546 41.8727 92.1463C41.6668 92.3379 41.396 92.4445 41.1147 92.4445C40.8334 92.4445 40.5625 92.3379 40.3566 92.1463C40.1507 91.9546 40.025 91.6921 40.0049 91.4115H39.5599C39.5397 91.6921 39.4141 91.9546 39.2082 92.1463C39.0023 92.3379 38.7314 92.4445 38.4501 92.4445C38.1688 92.4445 37.8979 92.3379 37.692 92.1463C37.4861 91.9546 37.3605 91.6921 37.3403 91.4115H36.8953C36.8953 91.7051 36.7787 91.9866 36.5711 92.1942C36.3635 92.4018 36.0819 92.5184 35.7884 92.5184C35.4948 92.5184 35.2133 92.4018 35.0057 92.1942C34.7981 91.9866 34.6815 91.7051 34.6815 91.4115H34.2307C34.2335 91.75 34.3465 92.0784 34.5526 92.347C34.7587 92.6155 35.0467 92.8096 35.373 92.8999C35.6992 92.9902 36.046 92.9717 36.3609 92.8473C36.6757 92.7228 36.9414 92.4992 37.1178 92.2103C37.2597 92.4357 37.4568 92.6211 37.6905 92.7489C37.9242 92.8767 38.1866 92.9427 38.4529 92.9406C38.7208 92.941 38.9841 92.8718 39.2172 92.7397C39.4502 92.6077 39.645 92.4174 39.7824 92.1875C39.9588 92.4764 40.2245 92.7 40.5393 92.8245C40.8542 92.9489 41.201 92.9674 41.5272 92.8771C41.8535 92.7868 42.1415 92.5927 42.3476 92.3241C42.5537 92.0556 42.6667 91.7272 42.6695 91.3887L42.2244 91.4115Z" fill="#2D2F7B"/>
<path d="M39.7823 94.2812C39.4887 94.2812 39.2072 94.1646 38.9996 93.957C38.792 93.7494 38.6754 93.4679 38.6754 93.1743H38.2304C38.2102 93.4549 38.0846 93.7174 37.8787 93.9091C37.6728 94.1008 37.4019 94.2073 37.1206 94.2073C36.8393 94.2073 36.5684 94.1008 36.3625 93.9091C36.1566 93.7174 36.031 93.4549 36.0108 93.1743H35.5658C35.5686 93.5128 35.6816 93.8412 35.8877 94.1098C36.0938 94.3783 36.3818 94.5725 36.708 94.6627C37.0343 94.753 37.3811 94.7345 37.6959 94.6101C38.0108 94.4857 38.2765 94.2621 38.4529 93.9731C38.6293 94.2621 38.895 94.4857 39.2098 94.6101C39.5247 94.7345 39.8715 94.753 40.1977 94.6627C40.524 94.5725 40.812 94.3783 41.0181 94.1098C41.2242 93.8412 41.3372 93.5128 41.34 93.1743H40.8949C40.8863 93.4661 40.7661 93.7435 40.5591 93.9494C40.3522 94.1553 40.0742 94.2741 39.7823 94.2812Z" fill="#2D2F7B"/>
<path d="M77.7424 55.436C65.2298 60.4628 54.6856 66.6934 48.5006 72.8556C41.7679 68.3538 34.436 64.4739 29.1753 63.3556L25.324 66.2084C34.2705 69.5862 43.3255 75.5658 49.0198 80.0049C57.3616 71.6232 72.379 62.3571 81.0403 58.8937L77.7424 55.436Z" fill="#D22514"/>
<path d="M49.0941 81.1697L48.4893 80.7018C45.6821 78.5108 35.6857 71.0592 25.0217 67.0081L23.5382 66.4375L28.9701 62.3922L29.358 62.4721C34.0824 63.482 40.992 66.8369 48.3923 71.7153C54.6686 65.6844 64.9389 59.6249 77.4173 54.5982L77.9879 54.3813L82.5525 59.2027L81.3657 59.6763C72.6245 63.1739 57.7839 72.4114 49.6419 80.5934L49.0941 81.1697ZM27.0929 65.9868C36.7641 69.9237 45.6193 76.3255 48.9515 78.8703C56.9794 71.0306 70.7359 62.3751 79.5456 58.5865L77.52 56.4582C65.1272 61.4964 55.0566 67.5273 49.1112 73.467L48.6091 73.9748L48.0386 73.5754C40.7923 68.7426 34.031 65.3763 29.3923 64.2865L27.0929 65.9868Z" fill="#372420"/>
<path d="M79.3913 116.134C79.3913 116.134 88.3607 101.151 81.7535 98.2982C77.9934 96.2156 72.864 98.6577 68.3907 102.863C65.3495 105.716 59.4384 113.082 49.3906 114.617L79.3913 116.134Z" fill="#D22514"/>
<path d="M80.1331 116.579L78.6496 115.689C80.31 112.916 84.3553 104.848 83.0772 100.951C82.9565 100.536 82.7441 100.154 82.4557 99.8316C82.1673 99.5097 81.8104 99.2566 81.4112 99.091L81.337 99.0568C78.3244 97.385 73.7084 99.0568 68.9841 103.507C68.5847 103.884 68.134 104.346 67.609 104.877C64.1856 108.334 58.4799 114.12 49.5219 115.484L49.2651 113.772C57.664 112.488 63.1186 106.959 66.3823 103.656C66.9186 103.114 67.3808 102.646 67.803 102.246C73.1607 97.1853 78.3871 95.4622 82.1415 97.5162C82.76 97.7789 83.3129 98.1749 83.7607 98.676C84.2085 99.177 84.5401 99.7707 84.7319 100.415C86.4836 105.881 80.3955 116.145 80.1331 116.579Z" fill="#372420"/>
<path d="M85.0457 122.387L86.7574 113.972L88.3037 115.016L88.1896 110.925L90.1523 111.82C90.1523 111.82 91.0709 104.004 87.6133 100.192C82.9745 95.0571 74.4502 96.4093 71.3634 101.025C68.0255 106.023 68.4421 113.96 70.0054 122.49C69.743 125.4 66.8559 131.374 69.4349 136.298C75.443 132.669 89.9355 135.214 94.2776 133.103C95.7725 126.633 90.9968 122.114 85.0457 122.387Z" fill="#9E5429"/>
<path d="M70.5873 136.133C70.7014 134.696 69.1723 131.637 71.5516 124.391C68.8243 116.78 68.4363 108.261 71.7741 103.28C74.8609 98.664 83.6306 97.3288 88.2694 102.447C88.8797 103.141 89.3713 103.932 89.7243 104.786C89.3935 103.141 88.6581 101.603 87.5847 100.313C82.9459 95.1778 74.4216 96.5357 71.3348 101.146C68.014 106.133 68.4134 114.052 69.9768 122.611C69.7258 125.464 66.6675 133.452 70.5873 136.133Z" fill="#C87D36"/>
<path d="M87.6934 124.744C84.0246 123.603 78.1477 125.383 76.0994 127.283C77.8111 123.632 81.8621 122.148 85.9531 122.987L87.6934 124.744Z" fill="#C87D36"/>
<path d="M84.6064 122.388L86.2724 113.972L87.8244 115.016L87.7103 110.925L89.673 111.821C89.673 111.821 90.586 104.004 87.1283 100.192C84.3553 97.1283 79.3913 96.3809 76.1904 97.2595C78.1247 97.6247 81.2628 98.6175 82.849 100.375C86.3067 104.186 85.3938 112.003 85.3938 112.003L83.4196 111.107L83.5337 115.198L81.9874 114.154L80.3042 122.57C86.2553 122.296 90.158 126.518 89.4905 133.285C88.332 133.759 87.1005 134.029 85.8502 134.084C89.1823 134.033 92.1265 133.907 93.7698 133.103C95.3331 126.633 90.5574 122.114 84.6064 122.388Z" fill="#713915"/>
<path d="M69.0354 137.542L68.596 136.698C66.5762 132.818 67.8258 128.447 68.7387 125.258C68.9384 124.36 69.0512 123.444 69.0753 122.525C67.569 114.268 67.0098 105.898 70.593 100.541C71.4756 99.2506 72.639 98.1775 73.9959 97.4018C75.3527 96.626 76.8677 96.1678 78.427 96.0615C81.6735 95.8219 85.9643 97.0829 88.2465 99.6048C91.9324 103.667 91.0481 111.587 91.0081 111.923L90.8655 113.133L89.1252 112.34L89.245 116.733L87.3679 115.467L86.1582 121.526C87.5346 121.565 88.8879 121.889 90.1324 122.479C91.3768 123.068 92.4853 123.909 93.3874 124.95C95.2646 127.186 95.8865 130.17 95.1276 133.348L95.0306 133.754L94.6541 133.942C92.5943 134.94 89.051 134.98 84.9543 135.032C79.9732 135.094 73.0921 135.163 69.8855 137.091L69.0354 137.542ZM80.4468 97.7961C80.2357 97.7961 80.0246 97.7961 79.8135 97.7961C77.1774 97.9844 73.5372 99.3651 72.1051 101.488C68.8528 106.355 69.4234 114.371 70.8726 122.314V122.428V122.547C70.7195 123.62 70.4752 124.677 70.1423 125.708C69.3378 128.527 68.6759 131.985 69.8285 135.049C73.4801 133.337 80.0988 133.263 84.9087 133.2C88.3778 133.16 91.6586 133.12 93.4673 132.453C93.7217 131.34 93.7199 130.184 93.4619 129.072C93.2039 127.96 92.6965 126.921 91.9781 126.034C91.1193 125.072 90.0499 124.322 88.8532 123.842C87.6566 123.362 86.3652 123.165 85.0799 123.266L83.9387 123.318L86.1012 112.477L87.3279 113.304L87.2195 109.516L89.3078 110.474C89.3934 108.192 89.2736 103.376 86.9057 100.774C86.098 99.8471 85.1025 99.102 83.985 98.5885C82.8676 98.0751 81.6537 97.8049 80.424 97.7961H80.4468Z" fill="#372420"/>
<path d="M88.5547 127.5C88.9826 128.642 89.6958 131.449 89.034 133.885Z" fill="#9E5429"/>
<path d="M89.8614 134.125L88.1497 133.651C88.8743 131.095 87.8188 128.134 87.699 127.803L89.3707 127.198C89.599 127.826 90.7173 131.101 89.8614 134.125Z" fill="#372420"/>
<path d="M81.9418 127.608C82.4344 129.579 82.6268 131.612 82.5123 133.639Z" fill="#9E5429"/>
<path d="M83.3795 133.668L81.5994 133.611C81.7124 131.681 81.5413 129.746 81.0916 127.866L82.8033 127.352C83.315 129.416 83.5094 131.546 83.3795 133.668Z" fill="#372420"/>
<path d="M76.0992 127.283L74.5986 126.33C76.4815 123.438 81.7821 121.355 85.0857 121.509L85.0059 123.266C82.2785 123.147 77.6055 124.972 76.0992 127.283Z" fill="#372420"/>
<path d="M55.4616 129.115L54.4288 127.745C56.3231 125.463 57.0763 124.522 58.1318 123.654C58.594 123.272 58.9706 122.838 59.5868 122.296L60.5796 123.438C59.9577 124.008 59.4385 124.436 58.9649 124.83C57.139 126.376 56.4544 126.952 55.4616 129.115Z" fill="#372420"/>
<path d="M32.1024 37.9935C31.8399 42.558 27.4066 47.813 21.2615 47.562C16.7997 47.3794 13.1651 42.1187 13.3876 38.2217C13.6501 33.6571 17.2105 30.9469 22.203 31.101C27.1955 31.255 32.3591 33.446 32.1024 37.9935Z" fill="#372420"/>
<path d="M23.1558 32.5678C22.5004 32.4459 21.8365 32.3753 21.1702 32.3567C17.5242 32.2426 14.8939 34.2396 14.7227 37.566C14.7037 37.948 14.7286 38.3309 14.7969 38.7072C15.7155 35.0213 18.8708 32.7732 23.1558 32.5678Z" fill="white"/>
</svg>
