<svg width="144" height="168" viewBox="0 0 144 168" fill="none" xmlns="http://www.w3.org/2000/svg">
<path d="M76.8804 168C108.055 168 133.327 165.403 133.327 162.2C133.327 158.997 108.055 156.4 76.8804 156.4C45.7058 156.4 20.4338 158.997 20.4338 162.2C20.4338 165.403 45.7058 168 76.8804 168Z" fill="#B7D9F4"/>
<path d="M56.5624 111.175C56.5624 111.175 48.7241 114.855 43.6111 119.293C42.2076 120.51 39.36 124.22 39.36 124.22L41.1885 125.21L38.3118 127.882L40.0239 128.29C39.3775 132.244 37.0772 137.52 34.247 141.509C27.0259 132.774 17.6502 134.038 12.875 139.657C16.6369 145.656 28.5983 153.814 39.2959 159.411C42.0621 158.985 44.834 154.49 46.5403 149.243C49.2307 147.012 58.1871 138.761 59.4799 134.445C63.9582 133.706 71.4937 131.365 70.626 127.661C69.2226 121.675 56.5624 111.175 56.5624 111.175Z" fill="#9E5429"/>
<path d="M14.8492 141.929C19.6302 136.303 28.4061 134.568 35.6214 143.315C38.4399 139.326 41.7709 132.885 42.5163 127.37L41.934 127.271L44.4788 124.814L42.6502 123.824C43.5373 122.699 44.5109 121.646 45.562 120.673C50.6749 116.236 58.5133 113.446 58.5133 113.446C61.5428 116.004 64.4151 118.742 67.1145 121.646C62.91 116.492 56.6673 111.315 56.6673 111.315C56.6673 111.315 48.8289 114.99 43.7218 119.427C42.3125 120.644 39.4706 124.354 39.4706 124.354L41.2934 125.344L38.4399 128.017L40.1462 128.424C39.4998 132.384 37.2053 137.654 34.3693 141.643C27.1541 132.908 17.7725 134.172 12.9973 139.797C13.7657 140.971 14.6494 142.066 15.6353 143.064C15.35 142.674 15.0879 142.296 14.8492 141.929Z" fill="#C87D36"/>
<path d="M70.626 127.661C70.23 125.972 68.943 123.934 67.295 121.867C67.6847 122.559 67.9841 123.299 68.186 124.068C69.0537 127.772 61.5182 130.113 57.0399 130.852C55.7238 135.144 46.7907 143.419 44.1003 145.65C42.394 150.891 39.622 155.392 36.8559 155.817C28.045 151.205 18.3549 144.84 13.1196 139.389C13.0381 139.477 12.9507 139.564 12.875 139.657C16.6369 145.655 28.5983 153.814 39.2959 159.41C42.0621 158.985 44.834 154.49 46.5403 149.243C49.2307 147.012 58.1871 138.76 59.4799 134.445C63.9582 133.706 71.4937 131.365 70.626 127.661Z" fill="#713915"/>
<path d="M39.1388 160.32L38.8826 160.186C28.4004 154.688 16.0372 146.349 12.1297 140.13L11.7861 139.582L12.2054 139.087C13.4686 137.585 15.0466 136.378 16.8278 135.553C18.609 134.728 20.5499 134.304 22.5129 134.312C26.6941 134.341 30.7938 136.379 34.1598 140.071C36.4124 136.673 38.0577 132.91 39.0223 128.949L36.5299 128.366L39.7095 125.408L38.0556 124.517L38.6846 123.696C38.801 123.539 41.5963 119.899 43.0522 118.635C48.1942 114.175 55.8637 110.547 56.2073 110.395L56.7139 110.156L57.139 110.512C57.669 110.948 70.0438 121.268 71.4996 127.47C71.612 127.948 71.6207 128.445 71.5253 128.927C71.4299 129.409 71.2325 129.865 70.9464 130.265C68.8616 133.386 62.2113 134.854 60.1498 135.232C58.2804 139.891 49.7957 147.671 47.3382 149.791C45.7426 154.578 42.8658 159.79 39.4649 160.308L39.1388 160.32ZM13.9816 139.763C18.058 145.586 29.5068 153.279 39.4242 158.508C41.5322 157.926 44.0247 154.17 45.7018 148.999L45.7833 148.754L45.9755 148.591C48.8115 146.262 57.4302 138.109 58.6357 134.213L58.7929 133.689L59.3345 133.602C63.2653 132.955 68.1104 131.33 69.4673 129.298C69.6177 129.099 69.7223 128.868 69.7737 128.624C69.825 128.379 69.8218 128.126 69.7642 127.883C68.5996 122.857 58.6357 114.128 56.4286 112.241C54.6291 113.132 48.4097 116.318 44.1994 119.981C42.944 121.226 41.7765 122.557 40.7053 123.964L42.6911 125.041L40.1171 127.429L41.0314 127.65L40.8975 128.46C40.2336 132.536 37.846 137.987 34.9692 142.04L34.3054 142.977L33.5716 142.092C29.4952 137.171 25.3081 136.117 22.5071 136.094C20.9099 136.085 19.328 136.406 17.8608 137.037C16.3936 137.669 15.0729 138.597 13.9816 139.763Z" fill="#372420"/>
<path d="M86.3318 133.019L93.7625 135.139C97.5535 137.538 102.364 138.825 105.31 138.545L104.728 136.932L109.695 136.973L108.455 135.133C113.184 134.446 119.95 130.154 124.312 127.108C127.177 130.119 129.28 137.532 132.5 138.825C134.725 139.722 139.11 140.164 142.575 138.068C143.314 135.989 140.897 119.217 129.594 110.045C126.211 109.906 120.125 115.286 120.125 115.286C114.575 116.935 111.175 115.636 106.83 117.855C101.444 116.498 100.756 112.876 92.6735 112.864L86.3318 133.019Z" fill="#9E5429"/>
<path d="M93.7626 114.576C101.846 114.576 102.533 118.204 107.919 119.567C112.264 117.342 115.665 118.641 121.214 116.993C121.214 116.993 126.915 111.956 130.351 111.752C129.839 111.263 129.309 110.791 128.75 110.337C125.366 110.197 119.287 115.578 119.287 115.578C113.731 117.226 110.336 115.927 105.992 118.152C100.599 116.789 99.9121 113.167 91.8292 113.161L85.5166 133.357L87.6946 133.98L93.7626 114.576Z" fill="#C87D36"/>
<path d="M108.432 135.133C112.66 134.515 120.731 130.136 125.04 127.224C124.351 125.941 123.48 124.764 122.455 123.73C118.087 126.782 109.55 131.953 104.821 132.646L105.619 134.044L100.652 134.003L101.234 135.61C98.2873 135.895 93.4771 134.603 89.6861 132.209L86.8326 131.394L86.3318 133.001L93.7625 135.138C97.5535 137.538 102.364 138.825 105.31 138.545L104.728 136.932L109.695 136.973L108.432 135.133Z" fill="#713915"/>
<path d="M129.571 110.063C128.974 110.054 128.377 110.079 127.783 110.139C136.384 119.561 139.162 133.304 138.492 135.18C135.68 136.892 132.25 136.927 129.868 136.379C130.672 137.544 131.528 138.476 132.477 138.854C134.701 139.751 139.086 140.193 142.551 138.097C143.291 135.989 140.874 119.217 129.571 110.063Z" fill="#713915"/>
<path d="M136.734 140.438C135.171 140.452 133.619 140.178 132.156 139.629C129.978 138.749 128.453 135.849 126.834 132.78C126.065 131.2 125.165 129.686 124.143 128.256C118.233 132.332 113.44 134.83 109.864 135.721L111.303 137.847L105.939 137.806L106.481 139.297L105.369 139.402C102.078 139.716 97.1634 138.289 93.384 135.908L85.2312 133.578L92.0155 111.996H92.6444C97.8448 111.996 100.168 113.452 102.41 114.862C103.727 115.769 105.177 116.467 106.708 116.929C109.148 115.764 111.314 115.601 113.603 115.438C115.656 115.352 117.693 115.037 119.677 114.501C120.772 113.551 126.001 109.172 129.443 109.172H129.6H129.885L130.107 109.353C141.812 118.851 144.147 136.14 143.355 138.336L143.25 138.621L142.988 138.778C141.092 139.888 138.93 140.461 136.734 140.438ZM124.405 125.979L124.918 126.514C126.182 127.848 127.288 129.944 128.36 131.977C129.757 134.638 131.207 137.392 132.797 138.027C134.707 138.796 138.62 139.256 141.788 137.515C142.05 134.987 139.896 119.73 129.268 110.908C126.717 111.059 122.239 114.541 120.673 115.927L120.533 116.05L120.347 116.108C118.189 116.712 115.969 117.065 113.731 117.162C111.431 117.325 109.445 117.465 107.203 118.618L106.912 118.763L106.597 118.688C104.778 118.192 103.055 117.393 101.502 116.323C99.4695 115.048 97.5419 113.843 93.2792 113.732L87.415 132.437L94.0945 134.347L94.1993 134.411C97.1703 136.302 100.559 137.435 104.07 137.713L103.488 136.065L108.059 136.1L106.964 134.481L108.321 134.283C111.815 133.776 117.161 131.051 123.817 126.404L124.405 125.979Z" fill="#372420"/>
<path d="M56.5625 111.175C51.7082 112.946 47.1642 115.474 43.0988 118.664C47.0762 121.255 53.3771 126.59 60.604 137.427L76.9737 128.5C82.4571 132.017 88.2856 134.966 94.3683 137.299C101.898 131.411 106.9 127.166 110.435 115.339C110.435 115.339 107.582 113.493 105.095 111.635C103.464 107.681 103.604 103.511 99.1726 101.852C99.1784 101.852 88.1488 110.959 56.5625 111.175Z" fill="#D22514"/>
<path d="M58.6182 112.701C90.2045 112.485 101.234 103.383 101.234 103.383C101.45 103.465 101.648 103.552 101.816 103.64C101.093 102.832 100.178 102.219 99.1551 101.858C99.1551 101.858 88.1256 110.966 56.5392 111.175C51.6931 112.949 47.1571 115.476 43.0988 118.664C43.7393 119.083 44.444 119.573 45.2068 120.149C49.2588 116.978 53.7847 114.465 58.6182 112.701Z" fill="#E77F6E"/>
<path d="M107.156 113.161C108.263 113.982 109.433 114.803 110.4 115.49C110.411 115.448 110.425 115.408 110.441 115.368C110.441 115.368 108.921 114.384 107.133 113.132C107.142 113.141 107.149 113.15 107.156 113.161Z" fill="#D22514"/>
<path d="M105.101 111.635C103.47 107.681 103.61 103.511 99.1782 101.852L96.3306 104.548C100.762 106.207 100.617 111.268 102.247 115.222C104.74 117.074 108.437 119.357 108.437 119.357C109.288 119.939 110.563 116.078 110.441 115.339C110.441 115.339 107.587 113.493 105.101 111.635Z" fill="#A8210C"/>
<path d="M60.5689 136.851C60.5689 136.851 71.2957 131.988 76.1117 128.512C74.947 127.172 70.23 124.54 69.6477 124.051C67.4988 125.699 59.0898 131.132 57.1622 132.035C57.5873 132.914 59.9051 135.954 60.5689 136.851Z" fill="#A8210C"/>
<path d="M60.3302 138.598L59.8818 137.934C52.8005 127.289 46.5927 121.978 42.627 119.381L41.6021 118.717L42.5629 117.96C46.7041 114.702 51.3399 112.129 56.2946 110.337L56.4227 110.296H56.5566C87.3626 110.086 98.5145 101.264 98.6251 101.171L99.0095 100.856L99.4812 101.031C103.185 102.417 104.07 105.428 104.92 108.339C105.188 109.242 105.462 110.174 105.817 111.076C108.205 112.823 110.883 114.57 110.913 114.6L111.495 114.955L111.303 115.584C107.739 127.533 102.736 131.866 94.9272 138.016L94.5313 138.324L94.0654 138.138C88.09 135.85 82.3584 132.971 76.9561 129.542L60.3302 138.598ZM77.0085 127.533L77.4453 127.813C82.7435 131.21 88.3677 134.07 94.2343 136.35C101.42 130.707 106.073 126.508 109.416 115.753C108.455 115.124 106.411 113.749 104.577 112.381L104.385 112.241L104.291 112.014C103.887 110.989 103.539 109.943 103.249 108.881C102.457 106.19 101.828 104.03 99.3065 102.894C96.9771 104.56 85.1497 111.874 56.708 112.095C52.3815 113.707 48.3038 115.92 44.5953 118.67C48.6076 121.489 54.402 126.741 60.9009 136.321L77.0085 127.533Z" fill="#372420"/>
<path d="M78.1674 130.136C76.7174 129.251 75.1625 128.389 73.6543 127.516C70.8145 125.977 68.0599 124.285 65.4025 122.449L66.4216 121.028C69.0292 122.827 71.7312 124.486 74.5161 125.996C76.0361 126.858 77.6084 127.883 79.0817 128.779L78.1674 130.136Z" fill="#372420"/>
<path d="M36.9083 21.5877C41.9095 21.5877 45.9638 17.5334 45.9638 12.5322C45.9638 7.53107 41.9095 3.47681 36.9083 3.47681C31.9072 3.47681 27.8529 7.53107 27.8529 12.5322C27.8529 17.5334 31.9072 21.5877 36.9083 21.5877Z" fill="#9E5429"/>
<path d="M28.6507 14.9315C28.6046 12.8271 29.3301 10.7786 30.6905 9.17238C32.0509 7.56616 33.952 6.5133 36.0353 6.21241C38.1186 5.91152 40.24 6.38342 41.9992 7.53907C43.7585 8.69472 45.0341 10.4542 45.5853 12.4857C45.531 11.2688 45.2195 10.0773 44.6712 8.98964C44.1229 7.90198 43.3502 6.9429 42.4042 6.17562C41.4582 5.40835 40.3603 4.85031 39.1829 4.5383C38.0055 4.22628 36.7753 4.16738 35.5734 4.36548C34.3716 4.56357 33.2254 5.01417 32.2104 5.68755C31.1954 6.36093 30.3347 7.24181 29.685 8.2721C29.0352 9.3024 28.6113 10.4587 28.441 11.6648C28.2708 12.8709 28.3581 14.0994 28.6973 15.2693C28.6682 15.1412 28.6507 15.048 28.6507 14.9315Z" fill="#C87D36"/>
<path d="M36.6929 3.49416C34.7105 3.53824 32.7982 4.23639 31.2538 5.47995C33.0487 5.58119 34.7843 6.15843 36.2824 7.15236C37.7804 8.1463 38.9868 9.5211 39.7778 11.1355C40.5687 12.75 40.9156 14.5459 40.7828 16.3388C40.65 18.1316 40.0424 19.8568 39.0222 21.3372C41.1913 20.8121 43.0899 19.5041 44.3532 17.6644C45.6166 15.8247 46.1555 13.583 45.8667 11.3701C45.5778 9.15715 44.4813 7.12901 42.7881 5.67528C41.0948 4.22155 38.924 3.44477 36.6929 3.49416Z" fill="#713915"/>
<path d="M38.5214 22.3328C37.1734 22.56 35.793 22.5065 34.4666 22.1758C33.1402 21.8451 31.8963 21.2442 30.8128 20.4107C29.7293 19.5772 28.8294 18.5291 28.1696 17.3319C27.5097 16.1347 27.104 14.8142 26.9778 13.453C26.8517 12.0918 27.0078 10.7193 27.4364 9.42118C27.865 8.1231 28.5569 6.92745 29.4688 5.90903C30.3807 4.8906 31.493 4.07133 32.736 3.50247C33.979 2.9336 35.3261 2.62739 36.6928 2.60298C39.3249 2.54518 41.8723 3.53448 43.7755 5.35358C45.6787 7.17268 46.782 9.67282 46.8431 12.3048C46.8936 14.6976 46.0801 17.0284 44.5517 18.8702C43.0233 20.7119 40.8825 21.9412 38.5214 22.3328ZM35.6097 4.46648C34.067 4.71916 32.6295 5.41002 31.4684 6.45674C30.3074 7.50347 29.4717 8.86193 29.061 10.3702C28.6504 11.8786 28.682 13.4732 29.1521 14.964C29.6223 16.4549 30.5111 17.7791 31.7127 18.779C32.9144 19.7789 34.3781 20.4123 35.9296 20.6036C37.4811 20.7949 39.0549 20.5362 40.4634 19.8582C41.872 19.1802 43.0559 18.1116 43.8742 16.7796C44.6924 15.4476 45.1105 13.9085 45.0786 12.3456C45.0552 11.1754 44.7802 10.024 44.2722 8.9696C43.7642 7.9152 43.0352 6.98253 42.1346 6.235C41.234 5.48747 40.183 4.94261 39.0531 4.63744C37.9232 4.33228 36.7409 4.27397 35.5864 4.46648H35.6097Z" fill="#372420"/>
<path d="M85.8485 44.8404C84.6823 44.2896 83.6748 43.4521 82.9202 42.4061C82.1656 41.3602 81.6884 40.1401 81.5333 38.8597L80.7646 32.1104C80.6944 28.9888 80.0097 25.9117 78.7497 23.0549C80.3725 22.4852 81.8225 21.5095 82.9614 20.2207C84.1004 18.9319 84.8904 17.373 85.2563 15.6925C85.6222 14.0119 85.5518 12.2657 85.0517 10.6201C84.5516 8.97447 83.6386 7.48427 82.3996 6.29142C81.1605 5.09858 79.6367 4.2428 77.9733 3.80561C76.3099 3.36841 74.5622 3.36435 72.8968 3.79381C71.2313 4.22327 69.7036 5.07195 68.459 6.25902C67.2144 7.4461 66.2945 8.93203 65.7868 10.5753C64.537 10.0787 63.2473 9.68905 61.9317 9.41062C61.4192 7.00554 58.688 4.64705 58.688 4.64705L57.896 8.91563H57.6631C55.9102 6.00974 53.8837 2.91167 51.0943 1.45581V9.60862C49.7456 7.75035 47.9779 6.23608 45.9347 5.18863L46.6743 11.1984C42.4746 13.0788 38.9452 16.1905 36.5534 20.1214C34.1616 24.0523 33.0202 28.617 33.2804 33.211L33.7812 61.0645L39.6046 64.4712L38.2536 66.4803L41.5496 66.8996L38.8243 70.7081C48.3572 72.6298 56.9119 75.0582 63.3584 78.5814C69.7642 68.3147 76.1117 60.3074 86.757 55.1828L87.7237 48.1015L84.02 48.02L85.8485 44.8404Z" fill="#9E5429"/>
<path d="M64.7734 75.2095C58.42 71.7154 50.011 69.3278 40.6411 67.4177L38.7776 70.0266C48.3047 71.9484 56.8594 74.3767 63.3117 77.8999L64.7734 75.2095Z" fill="#713915"/>
<path d="M47.8972 12.8816L47.4721 10.989C39.2552 14.7684 32.8319 23.2939 33.3211 33.3161L33.3561 35.3717C33.9372 35.4859 34.5051 35.6596 35.0507 35.89V34.5448C34.5382 24.5169 39.6803 16.6669 47.8972 12.8816Z" fill="#C87D36"/>
<path d="M75.1974 3.83176C73.0265 3.88095 70.9474 4.71713 69.347 6.18472C67.7466 7.65231 66.7338 9.65135 66.4972 11.8099L67.0795 12.0544C67.6266 10.178 68.7726 8.53198 70.3425 7.3676C71.9125 6.20322 73.8202 5.58438 75.7747 5.60549C77.7292 5.62661 79.6232 6.28652 81.1676 7.48454C82.712 8.68257 83.8221 10.3529 84.3286 12.2408C84.1891 9.93051 83.1601 7.76408 81.4575 6.19619C79.755 4.6283 77.5113 3.78087 75.1974 3.83176Z" fill="#C87D36"/>
<path d="M85.3942 44.9278C84.2209 44.3783 83.2067 43.5395 82.4467 42.4903C81.6868 41.441 81.2061 40.2157 81.0499 38.9296L80.2812 32.1803C80.2131 29.0603 79.5283 25.9847 78.2663 23.1306C79.6377 22.6413 80.8867 21.8603 81.927 20.8415C82.9674 19.8228 83.7744 18.5905 84.2924 17.2297C84.8105 15.8688 85.0272 14.4118 84.9276 12.9591C84.8281 11.5064 84.4146 10.0926 83.7158 8.8152C83.0169 7.53777 82.0493 6.42711 80.8797 5.55981C79.7101 4.69251 78.3663 4.08921 76.9409 3.79152C75.5156 3.49384 74.0426 3.50884 72.6237 3.83549C71.2047 4.16215 69.8734 4.79269 68.7217 5.68363C71.1552 5.32308 73.6358 5.8815 75.68 7.25005C77.7242 8.61859 79.1857 10.6992 79.7796 13.0865C80.3735 15.4738 80.0573 17.9967 78.8927 20.1636C77.728 22.3304 75.7982 23.9861 73.4795 24.8078C74.7132 27.6182 75.3838 30.6433 75.4536 33.7118L76.2107 40.3214C76.363 41.5838 76.8329 42.787 77.5763 43.8186C78.3197 44.8502 79.3124 45.6766 80.4618 46.2206L78.2139 51.1181L82.2903 51.3859L81.9642 54.1113C72.3264 58.7701 65.9439 68.0875 59.9458 77.1838C60.9707 77.6555 61.9665 78.1446 62.9041 78.6571C69.3099 68.3904 75.6574 60.3773 86.3085 55.2585L87.2694 48.1772L83.5657 48.0957L85.3942 44.9278Z" fill="#713915"/>
<path d="M55.6773 9.8589H56.9526L57.535 9.70167C56.05 7.3723 53.6391 3.66277 51.432 2.50391V4.60034C53.1447 6.09052 54.5817 7.87053 55.6773 9.8589Z" fill="#713915"/>
<path d="M60.0681 10.0105C61.1571 10.1037 62.3975 10.2376 62.3975 10.2376C61.8792 7.83251 58.9966 5.69531 58.9966 5.69531L58.8219 7.39576C59.4927 8.12091 59.9273 9.03276 60.0681 10.0105Z" fill="#713915"/>
<path d="M49.2423 11.1752L51.1408 10.4822C50.1915 9.60869 47.4953 6.90079 46.2374 6.21362L46.5053 8.38576C47.5774 9.14409 48.5045 10.0889 49.2423 11.1752Z" fill="#713915"/>
<path d="M70.9929 14.5061L69.3041 14.5586C69.2692 12.7766 69.8865 10.3366 71.7674 8.83412C72.8506 7.9606 74.7898 7.08708 77.8471 7.84413L77.4336 9.50381C74.8888 10.1852 72.7982 11.9322 70.9929 14.5061Z" fill="#372420"/>
<path d="M87.089 44.4619L86.2155 44.0601C85.1767 43.5745 84.2791 42.8319 83.6076 41.9026C82.936 40.9732 82.5127 39.8878 82.3778 38.7491L81.6091 32.0289C81.5403 29.1112 80.9486 26.2296 79.8621 23.5209C82.0391 22.542 83.8337 20.8743 84.9693 18.7748C85.6941 17.4663 86.143 16.0231 86.2881 14.5343C86.4333 13.0455 86.2717 11.5428 85.8132 10.1189C85.3548 8.69504 84.6093 7.38029 83.6227 6.25588C82.6362 5.13146 81.4296 4.22126 80.0775 3.58149C78.7254 2.94173 77.2564 2.58599 75.7614 2.53624C74.2664 2.4865 72.7771 2.74381 71.3854 3.29228C69.9937 3.84076 68.7293 4.66874 67.6702 5.72509C66.6111 6.78145 65.7799 8.04373 65.2278 9.43397C64.3695 9.12843 63.4946 8.87178 62.6073 8.66527C61.8269 6.29513 59.5383 4.26275 59.2297 4.00652L58.065 3.00489L57.3545 6.81342C55.7531 4.28022 53.9129 1.94503 51.502 0.675518L50.215 0V7.19777C49.0625 6.08314 47.7589 5.13628 46.3424 4.38505L44.8458 3.56977L45.7251 10.6511C43.0719 11.9548 40.6782 13.7308 38.6613 15.8922C36.5083 18.2075 34.8434 20.9326 33.7659 23.905C32.6884 26.8775 32.2203 30.0364 32.3895 33.1936L32.8845 61.577L38.376 64.7624L36.7512 67.1791L40.0007 67.5868L37.3452 71.3021L38.6788 71.5758C49.5278 73.7655 57.2439 76.2346 62.9625 79.356L63.6904 79.7519L64.133 79.0473C70.9814 68.041 77.393 60.6744 87.1647 55.9807L87.5607 55.7885L88.8418 47.1698L85.6098 47.0825L87.089 44.4619ZM86.6581 49.0217L86.0117 54.5772C76.2923 59.3408 69.9215 66.6376 63.0732 77.4517C57.5292 74.54 50.2616 72.2106 40.3618 70.1491L43.157 66.2416L39.8027 65.8048L40.8859 64.2034L34.6315 60.5637L34.154 33.1353C33.9843 30.2066 34.408 27.2738 35.3996 24.5129C36.3913 21.752 37.9306 19.2199 39.925 17.0685C42.0442 14.8105 44.6052 13.0126 47.4489 11.7866L47.6003 11.7168L47.379 9.89984L47.0005 6.84836C47.9591 7.49216 48.8318 8.25533 49.5977 9.1195C49.8629 9.42443 50.1117 9.74322 50.3431 10.0745L50.7275 10.6219C51.1235 10.5113 51.5311 10.4123 51.9446 10.3308V8.53716V3.07477C53.5712 4.49585 54.9489 6.17869 56.021 8.05381C56.3587 8.58374 56.6848 9.12532 57.0051 9.6669L57.075 9.78337C57.5642 9.78337 58.0592 9.78337 58.5425 9.84161L58.8686 8.09457L59.1656 6.46401C59.7023 6.98652 60.1454 7.59711 60.4759 8.26928C60.7375 8.86931 60.9328 9.49614 61.0582 10.1386C61.4251 10.2085 61.7862 10.2842 62.1472 10.3715C63.2498 10.6296 64.332 10.9683 65.3851 11.3848L66.2702 11.74L66.5556 10.8316C67.0188 9.33269 67.8581 7.97735 68.9935 6.89468C70.1289 5.812 71.5226 5.03804 73.0418 4.64651C74.5611 4.25498 76.1552 4.25892 77.6725 4.65796C79.1897 5.057 80.5796 5.83785 81.7096 6.92613C82.8396 8.01441 83.6722 9.37388 84.1281 10.8751C84.5839 12.3762 84.6479 13.9691 84.3138 15.502C83.9797 17.0349 83.2587 18.4567 82.2195 19.632C81.1803 20.8074 79.8575 21.6971 78.3771 22.2164L77.4861 22.5309L77.8705 23.4044C79.086 26.1597 79.7431 29.1287 79.8039 32.1395L80.5784 38.9763C80.7318 40.2516 81.1726 41.4756 81.8676 42.5559C82.5626 43.6363 83.4937 44.5448 84.5907 45.2132L82.4535 48.9634L86.6581 49.0217Z" fill="#372420"/>
<path d="M41.4562 34.3372C43.4368 34.2923 45.0005 32.4078 44.9488 30.1281C44.8971 27.8484 43.2495 26.0368 41.2688 26.0817C39.2881 26.1266 37.7244 28.0111 37.7762 30.2908C37.8279 32.5705 39.4755 34.3822 41.4562 34.3372Z" fill="white"/>
<path d="M40.8274 26.1241C40.972 26.1014 41.1179 26.0877 41.2642 26.0833C43.2442 26.0367 44.8922 27.8303 44.9388 30.1597C44.9912 32.2736 43.6518 34.0439 41.8873 34.3293C41.743 34.3544 41.597 34.368 41.4505 34.3701C39.4706 34.4166 37.8225 32.623 37.7701 30.3228C37.7235 28.2147 39.0571 26.4444 40.8274 26.1532M40.6236 24.9128C38.2185 25.303 36.454 27.644 36.5123 30.3519C36.5821 33.3218 38.8067 35.692 41.4797 35.6279C41.6749 35.6216 41.8694 35.6022 42.062 35.5697C44.4671 35.1795 46.2316 32.8385 46.1384 30.1306C46.0743 27.1606 43.844 24.7963 41.1768 24.8546C40.9816 24.8606 40.787 24.8801 40.5945 24.9128H40.6236Z" fill="#372420"/>
<path d="M42.5691 34.1191C43.8681 34.0896 44.8917 32.7676 44.8554 31.1664C44.819 29.5651 43.7365 28.2909 42.4375 28.3204C41.1385 28.3499 40.1149 29.6719 40.1512 31.2731C40.1876 32.8744 41.2701 34.1485 42.5691 34.1191Z" fill="#372420"/>
<path d="M41.4681 29.6878C41.8251 29.6878 42.1145 29.3984 42.1145 29.0414C42.1145 28.6844 41.8251 28.395 41.4681 28.395C41.1111 28.395 40.8217 28.6844 40.8217 29.0414C40.8217 29.3984 41.1111 29.6878 41.4681 29.6878Z" fill="white"/>
<path d="M56.7891 34.752C58.7665 34.7071 60.3277 32.8253 60.276 30.5488C60.2243 28.2723 58.5794 26.4632 56.602 26.5081C54.6245 26.553 53.0634 28.4348 53.115 30.7113C53.1667 32.9878 54.8116 34.7968 56.7891 34.752Z" fill="white"/>
<path d="M56.1606 26.555C56.3048 26.5293 56.4509 26.5157 56.5973 26.5142C58.5715 26.4676 60.2137 28.2612 60.2661 30.5557C60.3127 32.6579 58.9849 34.4282 57.2204 34.7194C57.0758 34.7416 56.93 34.7553 56.7837 34.7602C54.8037 34.8009 53.1615 33.0131 53.1091 30.7187C53.0625 28.6106 54.3961 26.8403 56.1606 26.555ZM55.9568 25.3146C53.5517 25.7047 51.7872 28.0399 51.8804 30.742C51.9502 33.712 54.1748 36.0763 56.8419 36.018C57.037 36.0096 57.2314 35.9901 57.4243 35.9598C59.8293 35.5638 61.5938 33.2286 61.5007 30.5265C61.4838 29.1571 60.973 27.8398 60.0623 26.817C59.6265 26.3208 59.0887 25.9244 58.4857 25.6551C57.8827 25.3857 57.2286 25.2497 56.5682 25.2563C56.373 25.2624 56.1784 25.2818 55.9859 25.3146H55.9568Z" fill="#372420"/>
<path d="M57.8723 34.5175C59.1681 34.488 60.1892 33.1687 60.1529 31.5707C60.1167 29.9727 59.0368 28.701 57.741 28.7304C56.4452 28.7599 55.4242 30.0792 55.4604 31.6772C55.4967 33.2752 56.5765 34.5469 57.8723 34.5175Z" fill="#372420"/>
<path d="M56.8477 30.0199C57.2047 30.0199 57.4941 29.7304 57.4941 29.3735C57.4941 29.0165 57.2047 28.7271 56.8477 28.7271C56.4907 28.7271 56.2013 29.0165 56.2013 29.3735C56.2013 29.7304 56.4907 30.0199 56.8477 30.0199Z" fill="white"/>
<path d="M46.8724 63.1433C47.9434 63.9935 49.1919 64.592 50.5256 64.8944C51.8592 65.1968 53.2438 65.1954 54.5768 64.8903C63.2362 63.3005 64.5931 55.8931 66.5497 55.1361H66.7128C70.1661 53.6686 74.1377 50.0173 73.7009 44.5898C73.3399 40.0068 70.4922 36.0003 66.4624 35.1384C61.3261 33.7641 59.0666 37.9395 49.1784 36.7923C41.276 35.878 32.9602 33.7059 30.3862 33.8806C22.1752 34.0669 16.177 39.4885 17.1321 48.3343C17.4524 51.281 18.3899 54.3674 20.1544 56.4871C20.3836 55.8792 20.7166 55.3157 21.1386 54.8216C23.5495 60.4878 27.888 62.3571 32.471 62.2523L46.8724 63.1433Z" fill="#E9BC6E"/>
<path d="M66.3924 35.0804C64.3949 34.2885 62.2053 35.2318 60.1263 35.8841C68.8615 36.9556 71.3015 47.3621 64.7851 55.742C65.3094 55.4458 65.8717 55.2224 66.4564 55.0781H66.6195C70.0728 53.6106 74.0385 49.9535 73.6076 44.526C73.2465 39.943 69.4904 35.919 66.3924 35.0804Z" fill="#C87D36"/>
<path d="M35.8076 61.1987C32.8959 60.9832 30.7121 60.9366 27.8703 59.3817C26.4096 58.5696 25.1342 57.462 24.1255 56.1294C23.1168 54.7969 22.397 53.2687 22.0119 51.6424C19.3215 52.6615 17.2483 46.18 17.3532 43.5828C17.0295 45.1452 16.9548 46.7489 17.1319 48.3347C17.4522 51.2813 18.3897 54.3678 20.1542 56.4875C20.3834 55.8796 20.7164 55.316 21.1384 54.822C23.5493 60.4882 27.8877 62.3575 32.4708 62.2527L46.0452 63.1029C46.048 63.07 46.048 63.0369 46.0452 63.0039C45.5502 62.6836 38.5155 61.3967 35.8076 61.1987Z" fill="#C87D36"/>
<g style="mix-blend-mode:multiply">
<path d="M34.5731 52.0208C37.9798 50.3145 40.152 46.9661 39.2319 42.3364C39.0075 41.1539 38.5044 40.042 37.7644 39.0928C38.0555 42.2957 36.3551 46.0285 34.3402 48.352C32.6921 50.2447 30.0425 51.4676 27.3521 51.9567C27.451 52.1373 27.55 52.2945 27.6549 52.4576C29.169 52.9001 30.7529 53.3485 34.5731 52.0208Z" fill="#D79E49"/>
</g>
<path d="M54.4602 65.805C53.096 66.0744 51.6904 66.0534 50.3348 65.7433C48.9793 65.4333 47.7042 64.8412 46.5928 64.0055L32.4826 63.1203C27.3696 63.2252 23.4563 60.9948 21.0745 56.6389C21.0454 56.6971 21.0221 56.7553 20.9988 56.8136L20.4164 58.1588L19.4789 57.0698C17.7842 55.0549 16.6428 51.9918 16.2585 48.4569C15.7984 44.2117 16.8408 40.4963 19.2809 37.7185C21.8432 34.8068 25.7798 33.1355 30.3454 33.0598C31.7488 32.9666 34.6198 33.5082 38.2536 34.1895C41.6312 34.8301 45.4688 35.5464 49.2599 35.989C52.8741 36.4633 56.5493 36.0782 59.9867 34.865C62.2112 34.1895 64.1271 33.6072 66.7186 34.2827C70.9405 35.1853 74.2017 39.3957 74.6035 44.5145C75.0694 50.3903 70.8415 54.3444 67.0738 55.9401C67.0738 55.9401 66.87 56.0449 66.7127 56.1439C66.2393 56.651 65.8215 57.2074 65.4665 57.8036C63.836 60.3542 61.1514 64.5995 54.7456 65.805H54.4602ZM21.4355 53.2671L21.948 54.4667C23.9454 59.1255 27.4744 61.4548 32.4302 61.3617H32.5059L47.1751 62.3109L47.3848 62.4623C48.3546 63.237 49.4859 63.7842 50.6954 64.0634C51.9049 64.3426 53.1616 64.3467 54.3729 64.0754C60.0158 63.0388 62.3626 59.3468 63.9117 56.9067C64.7269 55.6198 65.1928 54.9559 66.0605 54.5075L66.474 54.2978C69.6594 52.8944 73.1709 49.5692 72.7866 44.7008C72.443 40.3507 69.7526 36.7926 66.241 36.0414C64.0922 35.459 62.5606 35.9366 60.4176 36.5771C56.7739 37.8148 52.8931 38.1915 49.0794 37.6778C45.2243 37.2352 41.3575 36.5131 37.9508 35.8667C34.5441 35.2203 31.6615 34.702 30.4502 34.7602C26.3214 34.8534 22.839 36.3093 20.6028 38.8366C18.5005 41.2359 17.6037 44.4795 18.0114 48.224C18.2029 50.5364 18.8944 52.7797 20.0379 54.7987C20.177 54.5889 20.337 54.3938 20.5154 54.2163L21.4355 53.2671Z" fill="#372420"/>
<path d="M38.4398 41.1486C38.9232 45.7549 35.3301 51.7822 29.1223 52.5392C24.615 53.0866 20.1077 48.3987 19.6884 44.4504C19.2225 39.8441 22.338 36.5189 27.3753 35.8551C32.4126 35.1912 37.9507 36.548 38.4398 41.1486Z" fill="#372420"/>
<path d="M54.0758 22.6531L52.2297 21.337C53.1226 20.0853 54.3589 19.1189 55.7891 18.5547C57.2193 17.9905 58.7824 17.8525 60.2894 18.1574L59.841 20.382C58.7633 20.1643 57.6458 20.263 56.6229 20.6659C55.6 21.0689 54.7154 21.759 54.0758 22.6531Z" fill="#372420"/>
<path d="M44.7758 24.2196C44.0962 23.356 43.1825 22.7063 42.1437 22.3479C41.1048 21.9896 39.9848 21.9379 38.9174 22.1989L38.37 20.0034C39.8612 19.6337 41.4275 19.703 42.8803 20.2031C44.333 20.7032 45.6101 21.6127 46.5577 22.822L44.7758 24.2196Z" fill="#372420"/>
<path d="M59.672 54.1113C58.3035 56.9706 55.1065 57.023 52.4568 56.1262C52.7705 55.894 53.07 55.6431 53.3536 55.375C54.5594 54.2459 55.5266 52.8865 56.1978 51.3771C56.8689 49.8677 57.2305 48.239 57.2611 46.5874C60.068 48.6373 60.7319 51.8867 59.672 54.1113Z" fill="#C87D36"/>
<path d="M58.8219 46.1333L59.841 46.3546L60.074 46.407L60.4176 44.8114L60.1905 44.759C57.9135 44.264 56.545 43.9612 54.6698 44.1766L54.8329 45.8014C55.0833 45.8014 55.3279 45.7606 55.5608 45.7548C56.1432 48.4452 54.8678 51.9276 52.5559 54.0823C50.9487 55.5789 48.1709 57.0988 44.077 55.8293L43.5995 57.39C46.0449 58.2056 48.7074 58.0726 51.0593 57.0173C52.6299 57.7978 54.3833 58.136 56.1315 57.9957C57.1524 57.9046 58.1321 57.5497 58.9743 56.9657C59.8166 56.3817 60.4926 55.5888 60.9359 54.6647C62.4383 51.5083 61.1513 48.2356 58.8219 46.1333ZM59.4567 53.96C58.1814 56.6388 55.3162 56.7611 52.8296 55.9516C53.1237 55.7347 53.4038 55.4993 53.6682 55.247C54.8001 54.1875 55.7068 52.9107 56.3341 51.4929C56.9615 50.0751 57.2966 48.5454 57.3195 46.9952C59.9459 48.9169 60.4409 51.8752 59.4451 53.96H59.4567Z" fill="#372420"/>
<path d="M114.727 46.4593L113.743 48.0898L118.908 49.0216L117.406 50.9433C117.406 50.9433 126.019 55.637 130.299 70.4402C132.879 72.9093 135.732 74.5166 137.805 77.504C140.076 80.7535 139.5 85.7907 136.804 87.1418C136.504 88.5155 135.689 89.7222 134.527 90.5135C133.618 91.122 132.515 91.3673 131.434 91.2007C130.683 91.0318 130.188 92.1092 129.53 92.5168C126.158 94.5841 121.995 93.0992 121.657 89.0228V88.8073C120.376 89.3896 119.694 89.3896 118.594 88.2948C117.923 87.6028 117.43 86.759 117.156 85.8352C116.883 84.9115 116.836 83.9352 117.021 82.9897C117.359 81.2834 118.46 79.1637 118.617 78.1679C118.209 74.93 109.882 71.6165 107.902 66.0144C107.902 66.0144 102.76 70.4868 98.4038 71.2205L95.0845 48.4742C95.0845 48.4742 110.388 45.3237 114.727 46.4593Z" fill="#9E5429"/>
<path d="M119.158 84.4399C119.496 82.7278 120.597 80.6081 120.754 79.6181C120.62 78.5291 119.589 77.4343 118.203 76.2463C118.573 76.6875 118.822 77.2173 118.926 77.7837C118.762 78.7795 117.668 80.8993 117.33 82.6114C117.143 83.5555 117.187 84.531 117.46 85.4541C117.733 86.3771 118.226 87.2201 118.896 87.9107C119.182 88.2182 119.521 88.4709 119.898 88.6561C119.131 87.3935 118.867 85.8883 119.158 84.4399Z" fill="#C87D36"/>
<path d="M96.913 50.5184C96.913 50.5184 107.75 48.2705 113.801 48.2356L114.727 46.6516C110.371 45.4869 95.067 48.684 95.067 48.684L98.3864 71.4303C98.8984 71.342 99.4027 71.2135 99.8946 71.046L96.913 50.5184Z" fill="#C87D36"/>
<path d="M137.823 77.5039C135.75 74.5398 132.896 72.9092 130.316 70.4634C126.036 55.6602 117.423 50.9665 117.423 50.9665L118.926 49.0448L113.76 48.113L114.744 46.4825C113.58 46.1797 111.623 46.1855 109.393 46.3544C109.616 46.3848 109.838 46.4276 110.057 46.4825L109.486 49.4175L114.657 50.3492L113.597 52.271C113.597 52.271 122.21 56.9647 126.49 71.7678C129.07 74.237 131.924 75.8442 133.997 78.8317C136.268 82.0811 136.291 86.9845 133.158 88.4986C130.864 88.7839 131.993 87.9162 130.38 88.9819C129.623 89.4944 129.495 90.9561 127.119 91.9635C126.041 92.4741 124.821 92.6014 123.66 92.3246C123.381 92.2489 124.341 92.7904 124.085 92.9069C124.948 93.3163 125.902 93.4961 126.855 93.4288C127.808 93.3614 128.727 93.0493 129.524 92.5226C130.182 92.1149 130.689 91.0376 131.429 91.2065C132.509 91.373 133.613 91.1278 134.521 90.5193C135.683 89.7279 136.498 88.5213 136.798 87.1475C139.517 85.7907 140.094 80.7534 137.823 77.5039Z" fill="#713915"/>
<path d="M107.797 62.229C107.797 62.229 104.646 64.1973 101.851 65.7231L102.102 68.7512C104.186 68.4018 106.632 66.2355 108.432 65.0708C108.129 64.2148 108.1 63.1142 107.797 62.229Z" fill="#713915"/>
<path d="M126.374 94.3397C125.462 94.345 124.562 94.1334 123.747 93.7224C123.03 93.3555 122.404 92.8314 121.917 92.1891C121.43 91.5468 121.094 90.8029 120.935 90.0129C119.945 90.2342 119.054 90.0129 117.976 88.9414C117.202 88.1484 116.632 87.1792 116.315 86.117C115.999 85.0549 115.945 83.9317 116.159 82.8442C116.405 81.7964 116.74 80.7716 117.161 79.7811C117.386 79.2591 117.581 78.7244 117.743 78.1796C117.493 77.0615 115.734 75.6465 113.882 74.1498C111.553 72.2689 108.938 70.1608 107.57 67.4587C105.823 68.8097 102.032 71.5351 98.5669 72.1174L97.6817 72.2689L94.1119 47.8104L94.9214 47.6416C95.5561 47.5134 110.482 44.4445 114.983 45.6208L116.148 45.9178L115.21 47.461L120.55 48.4161L118.739 50.7454C121.069 52.3702 127.527 57.7685 131.126 69.9919C131.953 70.7664 132.826 71.4769 133.671 72.164C135.528 73.5437 137.179 75.181 138.574 77.0266C139.288 78.0826 139.773 79.2762 139.999 80.5307C140.224 81.7853 140.185 83.0731 139.884 84.3117C139.582 85.7187 138.748 86.9543 137.555 87.7592C137.166 89.191 136.269 90.4327 135.033 91.2533C133.94 91.9842 132.612 92.2773 131.312 92.0744C131.146 92.2043 130.994 92.3506 130.858 92.5111C130.612 92.803 130.326 93.058 130.008 93.2682C128.919 93.9551 127.661 94.326 126.374 94.3397ZM122.425 87.5146L122.548 88.9763C122.571 89.6339 122.767 90.2738 123.117 90.8312C123.466 91.3885 123.957 91.8435 124.539 92.1501C125.268 92.4769 126.067 92.6137 126.862 92.5475C127.658 92.4813 128.423 92.2143 129.087 91.7715C129.263 91.6381 129.423 91.4857 129.565 91.3173C130.008 90.8398 130.671 90.1235 131.65 90.3506C132.495 90.4521 133.349 90.2453 134.055 89.7683C135.035 89.1045 135.718 88.0852 135.959 86.9264L136.087 86.5072L136.425 86.3383C136.878 86.0699 137.269 85.7076 137.57 85.2756C137.871 84.8437 138.077 84.3522 138.172 83.8342C138.407 82.8436 138.434 81.8153 138.254 80.8134C138.074 79.8115 137.689 78.8575 137.124 78.0108C135.823 76.2994 134.284 74.7834 132.552 73.5093C131.627 72.7522 130.66 71.966 129.734 71.0751L129.559 70.912L129.495 70.6849C125.355 56.4874 117.056 51.7645 116.998 51.718L116.09 51.2463L117.336 49.6565L112.339 48.7538L113.306 47.164C109.2 46.8612 100.314 48.3811 96.0744 49.2197L99.1376 70.1841C102.998 69.1126 107.29 65.4205 107.325 65.3797L108.304 64.5295L108.735 65.7524C109.707 68.5419 112.502 70.7955 114.966 72.7813C117.295 74.639 119.258 76.2754 119.49 78.0865V78.2088V78.3369C119.33 79.0545 119.1 79.7547 118.803 80.4275C118.425 81.3229 118.121 82.2481 117.895 83.1936C117.742 83.995 117.782 84.8213 118.012 85.6041C118.242 86.3869 118.655 87.1037 119.217 87.6951C120.026 88.4988 120.312 88.4755 121.302 88.0329L122.425 87.5146Z" fill="#372420"/>
<path d="M123.718 91.1077C123.573 90.8689 123.41 90.5778 123.235 90.2633C122.653 89.2151 121.762 87.6369 121.045 87.1594L122.012 85.6919C123.089 86.4024 124.021 88.0679 124.772 89.4014C124.935 89.7042 125.093 89.9838 125.227 90.2051L123.718 91.1077Z" fill="#372420"/>
<path d="M131.644 91.5327L129.897 91.2765C130.147 89.6051 129.722 88.2949 128.627 87.3748L129.757 86.0295C131.335 87.3515 131.988 89.2499 131.644 91.5327Z" fill="#372420"/>
<path d="M136 87.427C135.965 86.0424 135.563 84.6918 134.835 83.5136L136.256 82.4771C137.194 83.9222 137.721 85.5948 137.782 87.3163L136 87.427Z" fill="#372420"/>
<path d="M35.435 75.355C30.4618 77.3815 26.6591 78.6918 22.5012 85.0627C22.5012 85.0627 16.5671 82.116 15.4606 80.468C14.721 81.324 13.9931 82.3722 13.2186 82.4072C11.2343 82.991 9.16094 83.212 7.09817 83.0594C6.52104 82.9964 5.93747 83.0857 5.40553 83.3182C4.87358 83.5508 4.41179 83.9186 4.0661 84.385C3.72041 84.8514 3.50286 85.4002 3.43509 85.9768C3.36732 86.5534 3.45169 87.1377 3.67982 87.6715C5.56661 91.9809 8.61809 96.5232 14.622 101.397L18.6985 101.24L18.7742 102.55L22.769 100.803L21.9072 103.133C21.9072 103.133 41.3516 99.8891 46.7732 89.5409L35.435 75.355Z" fill="#9E5429"/>
<path d="M21.3307 84.2357C21.651 85.4004 23.6601 86.7806 23.6601 86.7806C27.818 80.4097 31.6149 79.1053 36.5881 77.0787L46.6859 89.7098L46.7791 89.5409L35.435 75.355C30.4618 77.3815 26.6591 78.6918 22.5012 85.0627C22.5012 85.0627 21.849 84.1309 21.3307 84.2357Z" fill="#C87D36"/>
<path d="M23.8813 102.644L23.9221 102.539L23.3397 102.784L23.8813 102.644Z" fill="#C87D36"/>
<path d="M44.1294 85.9658C38.3059 95.8657 25.3604 98.5095 25.3604 98.5095L26.2223 96.1801L20.8939 99.2433L20.8182 98.4163L13.2069 98.5736C9.90034 95.8865 6.98565 92.7503 4.54749 89.2561C6.55075 93.1985 9.43917 96.943 14.622 101.153L18.6984 100.99L18.7741 102.301L22.769 100.554L21.9071 102.883C21.9071 102.883 41.3516 99.6218 46.7732 89.2677L44.1294 85.9658Z" fill="#713915"/>
<path d="M20.5096 104.327L21.2142 102.446L17.9531 103.861L17.8599 102.155L14.3251 102.289L14.0688 102.085C8.9151 97.8979 5.36863 93.7167 2.87037 88.0272C2.57415 87.3712 2.45691 86.6485 2.53055 85.9325C2.6042 85.2165 2.86611 84.5328 3.28966 83.9508C3.72655 83.3455 4.31474 82.8655 4.99538 82.559C5.67602 82.2524 6.42523 82.1299 7.16807 82.2038C9.13082 82.3442 11.1029 82.1332 12.9915 81.5807L13.0905 81.5515H13.2011C13.4632 81.5515 14.1329 80.7305 14.4532 80.3403C14.5755 80.2005 14.6919 80.0549 14.8084 79.9152L15.5655 79.0416L16.206 80.0025C16.8524 80.9576 19.9913 82.7919 22.2216 83.9508C26.1699 78.1914 29.8329 76.7065 34.4509 74.8488L35.7495 74.3188L47.8564 89.4598L47.5943 89.9664C42.0563 100.559 22.9146 103.844 22.1168 104.013L20.5096 104.327ZM24.3064 99.1907L23.299 101.91C27.8471 100.705 41.1827 97.4845 45.7192 89.6811L35.1555 76.4211L35.0681 76.456C30.4094 78.3428 27.0493 79.7055 23.2407 85.5464L22.8098 86.187L22.111 85.8376C21.2375 85.4067 17.3591 83.4383 15.4956 81.7612C14.8783 82.4891 14.2261 83.153 13.3758 83.2462C11.3147 83.8452 9.16292 84.0701 7.02248 83.91C6.57724 83.8615 6.12708 83.9318 5.71788 84.1139C5.30868 84.296 4.95508 84.5833 4.69311 84.9466C4.45121 85.2792 4.3017 85.67 4.25976 86.0791C4.21782 86.4883 4.28496 86.9012 4.45435 87.276C6.78372 92.6103 10.0856 96.4945 14.8958 100.46L19.4905 100.28L19.537 101.194L24.3064 99.1907Z" fill="#372420"/>
<path d="M27.1599 94.305L25.4128 94.0837C25.6679 92.4215 25.4504 90.721 24.7852 89.1764C24.12 87.6318 23.0339 86.3054 21.6509 85.3486L22.7166 83.916C24.346 85.0669 25.6241 86.6475 26.4086 88.4817C27.193 90.3159 27.4531 92.3318 27.1599 94.305Z" fill="#372420"/>
<path d="M16.0488 87.1303C16.008 87.0895 18.0579 86.7285 18.6227 83.0189C18.6227 83.0189 22.472 81.1787 22.6991 76.8869C22.868 74.045 19.5836 75.035 19.5836 75.035C19.5836 75.035 18.4189 75.728 18.4189 75.035C18.4189 73.5442 19.1294 71.5409 17.8715 70.8654C16.206 69.9395 11.8093 68.7632 6.41099 71.5817C4.90854 72.362 -0.0821383 82.9723 0.995197 87.5554C2.26471 92.8547 14.1562 96.0867 16.0488 87.1303Z" fill="#9E5429"/>
<path d="M19.9447 76.8692C19.9447 77.5389 21.1094 76.8692 21.1094 76.8692C21.6399 76.724 22.1928 76.6786 22.74 76.7352C22.74 74.8018 21.022 74.8193 20.1311 74.9591C20.0612 75.5705 19.9447 76.2868 19.9447 76.8692Z" fill="#C87D36"/>
<path d="M2.52091 89.3838C1.44357 84.8008 6.43426 74.1905 7.9367 73.4102C12.6595 70.941 16.6194 71.535 18.6518 72.3387C18.6688 72.0524 18.6086 71.7668 18.4775 71.5117C18.3463 71.2566 18.1491 71.0414 17.9064 70.8886C16.2409 69.9627 11.8442 68.7864 6.4459 71.6049C4.94346 72.3852 -0.0472262 82.9955 1.03011 87.5786C1.33918 88.7112 1.99984 89.7165 2.9169 90.4495C2.73861 90.1133 2.60546 89.7549 2.52091 89.3838Z" fill="#C87D36"/>
<path d="M16.6952 73.0432C16.6952 73.7187 17.8599 73.0432 17.8599 73.0432C18.1234 72.973 18.3921 72.9243 18.6635 72.8976C18.7101 72.0474 18.6053 71.2903 17.9239 70.9118C17.5932 70.7343 17.2485 70.5843 16.8932 70.4634C16.8932 71.2612 16.6952 72.2104 16.6952 73.0432Z" fill="#9E5429"/>
<path d="M20.9696 74.8713C20.7192 79.169 16.8932 81.0092 16.8932 81.0092C16.3108 84.7188 14.2784 85.0856 14.3134 85.1206C12.8459 92.1087 5.3453 91.6778 1.50183 88.6845C3.97679 93.2559 14.3134 95.4455 16.0895 87.1297C16.0488 87.0889 18.0986 86.7278 18.6635 83.0183C18.6635 83.0183 22.5128 81.1781 22.7399 76.8862C22.8156 75.3081 21.8431 74.9121 20.9696 74.8713Z" fill="#713915"/>
<path d="M9.24701 93.6232C5.05997 93.6232 0.919504 90.9677 0.174105 87.7998C-0.990582 82.9372 3.99428 71.9076 6.0383 70.842C12.8401 67.2955 17.7958 69.8345 18.3374 70.1373C19.7758 70.9351 19.5836 72.5948 19.4264 73.9342C19.4264 74.0215 19.4264 74.1089 19.3973 74.1904C19.7641 74.0914 21.5345 73.6605 22.6933 74.5806C23.0314 74.8677 23.2918 75.2353 23.4506 75.6495C23.6093 76.0637 23.6613 76.5112 23.6018 76.9507C23.4993 78.316 23.0648 79.6355 22.3361 80.7946C21.6074 81.9536 20.6065 82.9171 19.4206 83.6011C19.0246 85.6277 18.1103 87.0952 16.8058 87.7649C15.8683 91.4103 13.1138 93.5883 9.35184 93.6407L9.24701 93.6232ZM13.2419 70.7255C11.0035 70.7499 8.80476 71.3196 6.83611 72.3852C5.74131 73.1073 0.872917 83.1236 1.86872 87.3805C2.45107 89.7856 5.85778 91.8646 9.22954 91.8646H9.32272C11.0697 91.8646 14.0688 91.224 15.0763 87.3689L15.1811 86.9205C15.2172 86.7737 15.2894 86.6382 15.3911 86.5263C15.4927 86.4145 15.6207 86.3298 15.7634 86.2799C16.7592 85.8897 17.4581 84.6843 17.7318 82.8848L17.8016 82.4248L18.2209 82.2268C18.3549 82.1569 21.6043 80.538 21.8198 76.8343C21.8524 76.6774 21.8478 76.5151 21.8063 76.3604C21.7649 76.2057 21.6877 76.0628 21.581 75.9433C21.2083 75.6463 20.3581 75.7453 19.9214 75.8501C19.6635 76.0361 19.3631 76.1543 19.0477 76.194C18.7323 76.2337 18.412 76.1935 18.1161 76.0772C17.9366 75.9736 17.7881 75.824 17.6857 75.6439C17.5833 75.4637 17.5309 75.2595 17.5338 75.0523C17.5429 74.6042 17.5779 74.157 17.6386 73.7129C17.7609 72.6414 17.8191 71.8669 17.4406 71.6572C16.1361 71.0142 14.6959 70.6946 13.2419 70.7255Z" fill="#372420"/>
<path d="M9.25281 74.3361C9.25281 74.3361 15.4082 73.5442 16.503 75.4076C17.0853 76.3918 17.5337 77.3061 16.9281 78.826C16.3225 80.3459 14.5987 80.573 13.3933 81.3767" fill="#9E5429"/>
<path d="M13.8767 82.1104L12.91 80.6371C13.3273 80.3762 13.7633 80.1465 14.2145 79.9499C15.0822 79.5481 15.8334 79.1987 16.1129 78.4941C16.5672 77.3294 16.2702 76.747 15.7461 75.8444C15.2627 75.0349 12.0598 74.8602 9.34027 75.2038L9.11316 73.4568C10.6971 73.253 15.9499 72.7638 17.266 74.9534C17.9415 76.1181 18.4889 77.2828 17.7493 79.1463C17.2136 80.4973 15.9673 81.0797 14.9599 81.5455C14.5856 81.7073 14.2236 81.8961 13.8767 82.1104Z" fill="#372420"/>
<path d="M4.08167 84.6958C4.08167 84.6958 6.41104 84.5618 7.31367 85.0102C7.30801 85.2626 7.35382 85.5134 7.44833 85.7475C7.54283 85.9815 7.68404 86.1939 7.86333 86.3715C8.04263 86.5492 8.25624 86.6884 8.49114 86.7808C8.72604 86.8731 8.9773 86.9167 9.22958 86.9087C10.7961 86.9087 12.5373 85.2315 12.9973 83.9446C13.5447 82.4013 13.4166 81.4929 12.415 80.1186C11.4134 78.7442 6.41104 79.4722 6.41104 79.4722" fill="#9E5429"/>
<path d="M9.20629 87.7879C8.84078 87.8027 8.47609 87.7427 8.13461 87.6115C7.79312 87.4803 7.48206 87.2807 7.2205 87.025C6.85963 86.6523 6.6096 86.1865 6.49839 85.6798C5.69879 85.5596 4.8889 85.5226 4.08166 85.5691L3.98267 83.8221C4.4136 83.8221 6.59157 83.7056 7.65143 84.2239L8.15807 84.4394V85.0217C8.1471 85.1596 8.16659 85.2982 8.21514 85.4277C8.2637 85.5572 8.34013 85.6745 8.43904 85.7711C8.53794 85.8678 8.65689 85.9416 8.78747 85.9872C8.91805 86.0328 9.05705 86.0491 9.19464 86.035C10.3011 86.035 11.7628 84.7073 12.1355 83.659C12.5897 82.3721 12.4965 81.7839 11.6521 80.6483C11.2853 80.1533 8.84523 80.0078 6.53333 80.3455L6.2771 78.5985C7.55826 78.4121 11.8268 77.9288 13.0672 79.5943C14.3076 81.2598 14.4416 82.407 13.7893 84.253C13.2769 85.7205 11.2736 87.7879 9.20629 87.7879Z" fill="#372420"/>
<path d="M16.7126 80.5669C16.7439 80.9959 16.919 81.4018 17.2097 81.7189C17.5003 82.0359 17.8894 82.2456 18.3141 82.314C21.5228 83.0943 23.1475 78.0163 22.3905 75.8732C21.8431 74.3126 19.0071 74.4349 17.889 76.1469C16.9281 77.6494 17.0679 78.9364 16.7126 80.5669Z" fill="#9E5429"/>
<path d="M22.3963 75.891C22.2308 75.5269 21.9536 75.2251 21.6049 75.0292C21.2561 74.8334 20.8541 74.7538 20.4571 74.8021C20.8764 76.9858 19.4554 81.0622 16.765 80.8992C16.8553 81.263 17.0501 81.5925 17.3253 81.8471C17.6006 82.1016 17.9443 82.2701 18.314 82.3318C21.5519 83.1121 23.1475 78.0341 22.3963 75.891Z" fill="#713915"/>
<path d="M18.9604 83.2754C18.672 83.2742 18.3846 83.2391 18.1044 83.1705C17.4866 83.0522 16.9265 82.7293 16.5145 82.254C16.1025 81.7786 15.8626 81.1784 15.8333 80.55V80.3578C15.9323 79.9152 15.9905 79.4843 16.0487 79.065C16.1488 77.8728 16.5299 76.7213 17.161 75.7049C17.5782 75.0962 18.1529 74.6123 18.8236 74.3046C19.4943 73.9969 20.236 73.8771 20.9695 73.9579C21.4642 73.9885 21.9396 74.1608 22.3391 74.454C22.7387 74.7472 23.0455 75.149 23.2232 75.6117C23.8579 77.4112 23.1475 80.3986 21.7033 82.0175C21.3614 82.4096 20.9401 82.7246 20.4672 82.9415C19.9943 83.1583 19.4807 83.2721 18.9604 83.2754ZM17.5978 80.6082C17.6414 80.8296 17.7539 81.0316 17.9191 81.1853C18.0843 81.339 18.2939 81.4366 18.5179 81.4643C18.8597 81.5458 19.2179 81.5271 19.5494 81.4104C19.8809 81.2937 20.1718 81.0839 20.3872 80.8062C21.4995 79.5716 21.9362 77.2656 21.5519 76.1824C21.4296 75.8214 20.9695 75.7224 20.7482 75.6932C20.3446 75.6543 19.9378 75.7214 19.5681 75.8879C19.1984 76.0543 18.8785 76.3144 18.6401 76.6425C18.1525 77.4553 17.8707 78.3748 17.819 79.3212C17.755 79.7347 17.6968 80.1598 17.5978 80.6257V80.6082Z" fill="#372420"/>
<path d="M99.8945 46.5874C94.9213 47.8453 87.2635 49.173 84.3809 50.8327C81.0616 54.8509 69.3623 70.2072 62.9798 79.5946C59.2819 75.6871 54.0466 73.5965 42.295 69.1124C38.3525 72.391 33.6297 73.7712 29.4834 76.9333C34.8177 85.3365 35.3651 89.9196 38.2186 98.6489C41.4703 97.5654 44.6148 96.1832 47.6118 94.5201C49.9411 99.4875 51.9619 105.433 54.7222 111.682C63.83 114.384 93.6052 108.485 100.652 102.597L94.4031 75.0058C96.9362 73.9692 101.974 71.7446 105.468 70.184C104.344 60.8432 101.38 51.2986 99.8945 46.5874Z" fill="#F4F6F8"/>
<path d="M58.9152 77.1025C59.0317 76.922 59.1598 76.7415 59.2821 76.5609C58.461 76.031 57.5351 75.5185 56.5509 75.0002C57.3958 75.6344 58.1866 76.3375 58.9152 77.1025Z" fill="#F4F6F8"/>
<path d="M105.462 70.1548C105.142 65.4961 105.142 65.9736 101.386 67.674C97.8623 69.2347 92.3941 71.4593 89.8609 72.4958L96.1095 100.087C89.7561 105.392 65.3501 110.721 53.8605 109.725C54.1284 110.354 54.4021 110.995 54.6932 111.653C63.8011 114.355 93.5763 108.456 100.623 102.568L94.3741 74.9766C96.9189 73.9575 101.945 71.7155 105.462 70.1548Z" fill="#CDCFD0"/>
<path d="M46.0104 89.0986C43.127 90.7065 40.1273 92.0964 37.0365 93.2566C37.5198 94.8114 38.0323 96.4303 38.6088 98.1482C41.9078 97.0333 45.1411 95.7326 48.2932 94.2524C47.5653 92.5053 46.8199 90.7933 46.0104 89.0986Z" fill="#CDCFD0"/>
<path d="M55.0425 111.268C64.1503 113.97 93.5878 108.455 100.634 102.568L97.6118 88.6208C83.4259 96.1214 67.3765 99.4816 51.3038 101.654C52.3812 104.303 53.7322 107.949 55.0425 111.268Z" fill="#2A2C73"/>
<path d="M97.3439 104.589C98.5148 104.044 99.6189 103.366 100.634 102.568L97.6118 88.6208C96.4063 89.2556 95.1776 89.8554 93.9489 90.4378L97.3439 104.589Z" fill="#22225C"/>
<path d="M44.5603 70.3879C43.681 69.3571 43.0171 68.7166 43.0171 68.7166C37.8692 72.6881 33.4434 74.2954 29.2156 76.4908L30.5724 78.7562C35.0274 76.0483 39.5638 75.1223 44.5603 70.3879Z" fill="white"/>
<path d="M60.9766 113.196C58.7809 113.261 56.5865 113.026 54.4544 112.497L54.0642 112.381L53.8954 112.008C52.5676 108.991 51.4903 106.272 50.4479 103.64C49.4695 101.176 48.2117 98.0143 47.1868 95.7315C44.3933 97.2018 41.4857 98.4443 38.4924 99.4468L37.648 99.7438L37.3684 98.8936C36.7453 97.001 36.2038 95.2889 35.7204 93.6525C33.9268 87.7359 32.8378 83.8924 28.7323 77.3993L28.2955 76.7121L28.9419 76.223C30.9219 74.7997 33.018 73.5452 35.2079 72.4727C37.5273 71.3654 39.72 70.0104 41.7477 68.4312L42.1437 68.0993L42.627 68.2856C53.6915 72.5135 59.0957 74.6914 62.8693 78.2379C69.2343 68.9845 80.3396 54.3618 83.723 50.2854L83.822 50.1631L83.9617 50.0816C86.163 48.8121 90.7402 47.7872 95.1602 46.7972C96.7966 46.4361 98.3398 46.0867 99.6967 45.7431L100.5 45.5393L100.751 46.3371C102.078 50.5649 105.2 60.4648 106.353 70.0734L106.429 70.7198L105.846 70.9877C102.736 72.362 98.1709 74.3886 95.4339 75.53L101.642 102.9L101.228 103.244C95.201 108.252 73.5786 113.196 60.9766 113.196ZM55.3279 110.913C64.3775 113.208 92.231 107.728 99.6384 102.219L93.3491 74.4468L94.0363 74.1615C96.4588 73.1715 101.135 71.1042 104.518 69.6192C103.395 60.919 100.698 52.0557 99.3123 47.6299C98.1476 47.9094 96.8723 48.2123 95.5387 48.4918C91.5322 49.3886 87.0074 50.4019 84.9692 51.5083C81.3645 55.905 69.8865 71.0459 63.7078 80.0781L63.0906 80.9807L62.316 80.1887C58.822 76.485 53.9478 74.4992 42.429 70.0851C40.4089 71.594 38.2504 72.9082 35.9825 74.0101C34.1259 74.931 32.3322 75.9737 30.6133 77.1314C34.5324 83.4615 35.6098 87.2875 37.3801 93.1168C37.8052 94.5144 38.242 95.9469 38.737 97.4843C41.6546 96.4946 44.4784 95.2473 47.1751 93.7573L48.0079 93.2682L48.4155 94.1475C49.6209 96.7506 50.9953 100.216 52.1076 103.017C53.0742 105.497 54.0992 108.077 55.3279 110.913Z" fill="#372420"/>
<path d="M87.3567 48.0432C75.075 55.7534 67.0387 66.0959 61.3608 73.6663C53.9651 70.5217 46.0569 68.1282 40.5537 68.0933L36.9141 71.797C46.4354 73.346 56.3469 77.4981 62.6595 80.8C70.3115 70.5741 83.0415 56.8366 91.5554 51.5256L87.3567 48.0432Z" fill="#D22514"/>
<path d="M62.8984 81.9122L62.2287 81.5628C59.119 79.938 48.101 74.4931 36.757 72.6529L35.0624 72.3792L40.1637 67.1847H40.5422C45.498 67.1847 52.9403 69.1705 61.0524 72.5539C67.4174 64.1216 75.2033 54.6119 86.8677 47.2919L87.4092 46.9541L93.0521 51.6128L92.0156 52.2534C83.5832 57.4945 70.958 71.1563 63.3526 81.3065L62.8984 81.9122ZM38.7078 71.1971C49.0037 73.1712 58.7055 77.7717 62.3801 79.6469C69.8108 69.8402 81.6324 57.0869 90.0414 51.4149L87.2695 49.1379C75.908 56.4114 68.3025 65.8628 62.054 74.1787L61.6347 74.761L61 74.4873C53.051 71.1097 45.7659 69.1181 40.9033 68.9958L38.7078 71.1971Z" fill="#372420"/>
<path d="M52.1484 92.622C53.9148 92.0378 55.8065 91.9433 57.6224 92.3483C58.0551 92.0021 58.5462 91.7358 59.0724 91.5621C59.7751 90.7399 60.2631 89.7565 60.4927 88.6996C60.7224 87.6427 60.6866 86.5454 60.3885 85.5058C59.4626 82.1049 56.1724 80.0201 53.0627 80.847C49.9529 81.6739 48.171 85.1505 49.0969 88.5572C49.5369 90.2622 50.634 91.7236 52.1484 92.622Z" fill="white"/>
<path d="M52.9984 80.6719C49.778 81.5454 47.9436 85.1094 48.922 88.6267C49.3714 90.3439 50.4667 91.821 51.9793 92.7497C52.154 92.6799 52.3403 92.6216 52.5267 92.5634C51.737 92.1503 51.0421 91.577 50.4866 90.8801C49.9311 90.1832 49.5271 89.378 49.3005 88.5161C48.4095 85.2375 50.1274 81.9065 53.1207 81.0912C56.1139 80.2759 59.2877 82.2559 60.1787 85.5578C60.5061 86.6784 60.5116 87.8685 60.1944 88.9921C59.8772 90.1157 59.2502 91.1272 58.385 91.9112C58.6835 91.7437 59.0055 91.622 59.3401 91.5501C60.017 90.707 60.4819 89.7139 60.6957 88.654C60.9095 87.5941 60.866 86.4984 60.5688 85.4588C59.608 81.9414 56.2245 79.7809 52.9984 80.6719Z" fill="#D5A73B"/>
<path d="M55.2695 84.7367L55.9741 85.7442C56.3533 85.5552 56.742 85.3861 57.1388 85.2376C56.6569 84.4304 55.9338 83.7949 55.0715 83.4207C54.7454 83.7118 55.0715 84.4398 55.2695 84.7367Z" fill="#2A2C73"/>
<path d="M54.7456 87.9979C55.0367 87.8232 55.3279 87.6543 55.555 87.4971L55.9743 86.3673L57.0458 86.1519L57.7679 87.4039L57.1856 87.8465L57.2904 88.0037L58.1057 87.6601L58.0009 87.4796L58.1814 87.3399L57.3545 85.884L57.2671 85.4822C55.478 86.2641 53.792 87.2636 52.2473 88.458C52.3971 88.7718 52.5643 89.0771 52.7481 89.3722C52.8821 89.2499 53.2489 88.9529 53.412 88.8307C53.0106 89.3234 52.7366 89.9074 52.6142 90.5311L52.9345 91.1659L52.754 92.0452L53.7265 91.8355L53.8895 90.9387L53.4528 90.5136C53.4574 89.725 53.7168 88.959 54.1923 88.3298C54.3088 88.2483 54.4311 88.1784 54.5476 88.1027C54.0622 88.7473 53.8264 89.5457 53.8837 90.3506L54.466 90.8456L54.303 91.7715L55.5609 91.6667L55.7006 90.7582L54.7572 90.1759C54.5492 89.4653 54.5452 88.7106 54.7456 87.9979Z" fill="#2A2C73"/>
<path d="M55.7238 85.878L55.1414 84.9928C54.8037 84.4804 54.4484 83.735 54.9609 83.3681C53.901 82.9371 52.9285 82.9604 52.6315 82.7217H52.5966C52.7364 83.3856 51.0126 85.6043 52.1365 88.1782C53.2611 87.3057 54.4616 86.5359 55.7238 85.878Z" fill="#2A2C73"/>
<path d="M56.8187 87.0255L56.941 86.4141L56.1257 86.548L55.887 87.1303L56.5101 86.7227L56.3354 87.1478L56.8187 87.0255Z" fill="#2A2C73"/>
<path d="M58.9443 89.5297L58.2921 88.9415L58.2513 88.5397L57.3196 88.8658L57.6224 88.4989L58.228 88.2311L58.0067 87.8525L57.1682 88.1961L56.7023 88.8367L54.8446 88.8833L55.0135 89.7917L56.382 90.6827L56.3471 92.3541L57.6748 92.6103L58.3794 91.9755L57.733 90.5488L58.8628 90.211L58.9443 89.5297Z" fill="#2A2C73"/>
<path d="M57.5991 92.2549C55.5697 91.8005 53.4498 91.9794 51.5252 92.7673L51.2981 93.5302C52.6841 93.0003 55.2115 92.2956 56.4169 92.546V92.6159C54.5931 92.8915 52.8096 93.3882 51.1059 94.0951L50.7274 95.3762C52.4727 95.516 54.2193 95.122 55.7356 94.2465C57.0691 93.5768 58.1581 92.9071 59.2762 93.1284L60.2953 91.5502C59.515 91.0785 58.3503 91.6725 57.5991 92.2549Z" fill="#D22514"/>
<path d="M60.0914 93.7921C60.1426 93.9229 60.1656 94.0631 60.1591 94.2035C60.1525 94.3438 60.1165 94.4812 60.0534 94.6068C59.9903 94.7323 59.9014 94.8432 59.7927 94.9321C59.6839 95.0211 59.5576 95.0862 59.4221 95.1231C59.2865 95.1601 59.1447 95.1682 59.0058 95.1467C58.8669 95.1253 58.7341 95.0749 58.616 94.9988C58.4979 94.9227 58.3971 94.8226 58.3202 94.705C58.2433 94.5874 58.192 94.4549 58.1697 94.3162L57.7795 94.421C57.8306 94.5519 57.8537 94.692 57.8472 94.8324C57.8406 94.9728 57.8046 95.1102 57.7415 95.2357C57.6784 95.3613 57.5895 95.4721 57.4808 95.5611C57.372 95.65 57.2457 95.7151 57.1102 95.7521C56.9746 95.789 56.8328 95.7971 56.6939 95.7757C56.555 95.7542 56.4222 95.7038 56.3041 95.6277C56.186 95.5516 56.0852 95.4515 56.0083 95.3339C55.9314 95.2163 55.8801 95.0838 55.8578 94.9451L55.4734 95.0499C55.5195 95.1799 55.5383 95.318 55.5286 95.4556C55.5189 95.5931 55.4809 95.7272 55.4169 95.8494C55.353 95.9716 55.2645 96.0793 55.157 96.1657C55.0495 96.2521 54.9254 96.3153 54.7923 96.3515C54.6592 96.3877 54.5201 96.396 54.3836 96.3759C54.2472 96.3559 54.1164 96.3078 53.9994 96.2348C53.8824 96.1619 53.7817 96.0655 53.7036 95.9518C53.6256 95.8381 53.5719 95.7095 53.5458 95.574L53.1615 95.6789C53.2035 95.8663 53.282 96.0436 53.3925 96.2006C53.5031 96.3576 53.6435 96.4914 53.8057 96.5941C53.968 96.6969 54.1489 96.7666 54.3381 96.7995C54.5273 96.8323 54.7212 96.8275 54.9085 96.7853C55.1468 96.7162 55.362 96.5839 55.5311 96.4025C55.7003 96.221 55.8172 95.9971 55.8694 95.7546C56.0342 95.9451 56.2495 96.0854 56.4905 96.1591C56.7314 96.2328 56.9883 96.2371 57.2315 96.1714C57.4748 96.1057 57.6946 95.9728 57.8657 95.7878C58.0368 95.6028 58.1522 95.3733 58.1988 95.1256C58.3667 95.3084 58.581 95.4422 58.8189 95.5129C59.0567 95.5837 59.3093 95.5887 59.5498 95.5275C59.9181 95.4073 60.224 95.1465 60.4007 94.8018C60.5774 94.457 60.6107 94.0564 60.4932 93.6873L60.0914 93.7921Z" fill="#2A2C73"/>
<path d="M58.7171 97.094C58.4463 97.1517 58.1637 97.1011 57.9297 96.9531C57.6957 96.8051 57.5289 96.5714 57.465 96.302L57.0807 96.4069C57.1319 96.5377 57.1549 96.6779 57.1484 96.8183C57.1418 96.9586 57.1058 97.096 57.0427 97.2216C56.9796 97.3471 56.8907 97.4579 56.782 97.5469C56.6732 97.6359 56.5469 97.7009 56.4114 97.7379C56.2758 97.7749 56.134 97.7829 55.9951 97.7615C55.8563 97.7401 55.7234 97.6897 55.6053 97.6136C55.4872 97.5375 55.3864 97.4374 55.3095 97.3198C55.2326 97.2021 55.1813 97.0697 55.159 96.931L54.7688 97.0358C54.855 97.4135 55.087 97.7417 55.4143 97.949C55.7416 98.1563 56.1375 98.2257 56.5158 98.1422C56.7538 98.0726 56.9686 97.9401 57.1377 97.7587C57.3068 97.5774 57.4239 97.3538 57.4767 97.1115C57.6443 97.2947 57.8585 97.4289 58.0965 97.4997C58.3345 97.5705 58.5873 97.5752 58.8277 97.5133C59.196 97.3932 59.5019 97.1323 59.6786 96.7876C59.8554 96.4429 59.8886 96.0422 59.7711 95.6731L59.3868 95.7779C59.4714 96.0413 59.4485 96.3274 59.323 96.5739C59.1976 96.8204 58.9798 97.0074 58.7171 97.094Z" fill="#2A2C73"/>
<path d="M133.216 139.791C131.92 138.613 130.893 137.169 130.206 135.557L131.824 134.975C132.399 136.264 133.217 137.429 134.235 138.405L133.216 139.791Z" fill="#372420"/>
<path d="M137.398 140.089C135.742 138.555 134.546 136.591 133.944 134.416L135.61 133.98C136.118 135.826 137.125 137.497 138.521 138.807L137.398 140.089Z" fill="#372420"/>
<path d="M15.3617 141.742L14.0688 140.578C15.3314 139.168 16.9359 138.107 18.7276 137.497L19.7292 138.802C18.0636 139.427 16.5677 140.434 15.3617 141.742Z" fill="#372420"/>
<path d="M17.5221 144.456L16.2584 142.954C17.8011 141.767 19.5127 140.817 21.3365 140.135L22.5419 141.545C20.7126 142.217 19.0141 143.202 17.5221 144.456Z" fill="#372420"/>
<path d="M28.5402 37.2701C27.8624 37.2605 27.1848 37.3034 26.5136 37.3982C22.839 37.9107 20.5679 40.3624 20.9464 43.7283C20.9878 44.1068 21.0698 44.4797 21.191 44.8406C21.4822 40.9796 24.26 38.1844 28.5402 37.2701Z" fill="white"/>
</svg>
