<svg width="26" height="36" viewBox="0 0 26 36" fill="none" xmlns="http://www.w3.org/2000/svg">
<g clip-path="url(#clip0_216_4944)">
<path d="M8.94235 3.46149H9.53851L9.36711 3.14277L9.65774 3.22431V2.89077L9.35221 2.96489L9.42673 2.63135H9.07648L9.151 2.9723L8.83057 2.90559V3.23913L9.1361 3.17242L8.94235 3.46149Z" fill="#F2F2F2"/>
<path d="M16.5063 3.46149H17.095L16.9236 3.14277L17.2143 3.22431V2.89077L16.9087 2.96489L16.9907 2.63135H16.6404L16.715 2.9723L16.3945 2.89818V3.23172L16.6926 3.16501L16.5063 3.46149Z" fill="#F2F2F2"/>
<path d="M8.36113 5.28485H10.0453C10.5478 5.32278 11.0477 5.18295 11.4567 4.89004C11.8658 4.59713 12.1576 4.16995 12.2809 3.68387H13.7191C13.841 4.1707 14.1326 4.59875 14.5419 4.8919C14.9513 5.18504 15.4519 5.32428 15.9547 5.28485H17.6314C17.7747 5.09971 17.8995 4.90112 18.004 4.6919C18.2648 3.9507 17.9295 3.66163 17.4377 3.66163L16.7968 4.23976L16.1559 3.66163C15.6641 3.66163 15.3287 3.98776 15.5896 4.6919C15.639 4.8096 15.7015 4.92147 15.7759 5.02543C15.4186 4.98212 15.0836 4.82994 14.8168 4.58974C14.5499 4.34955 14.3643 4.03312 14.2855 3.68387C14.4906 3.37011 14.6749 3.04328 14.8369 2.70548C15.2319 1.70487 14.7326 1.28979 13.9799 1.28979L13.0335 2.40159L12.0797 1.28979C11.3345 1.28979 10.8277 1.69745 11.2227 2.70548C11.3718 3.04989 11.5436 3.38415 11.7369 3.7061C11.658 4.05536 11.4724 4.37179 11.2056 4.61198C10.9388 4.85217 10.6037 5.00436 10.2465 5.04767C10.3223 4.93671 10.3849 4.81731 10.4328 4.6919C10.7011 3.9507 10.3583 3.66163 9.86644 3.66163L9.22556 4.23976L8.58469 3.66163C8.09286 3.66163 7.75752 3.98776 8.01834 4.6919C8.11616 4.89851 8.23081 5.09683 8.36113 5.28485Z" fill="#F2F2F2"/>
<path d="M12.5716 1.15627H13.4137L13.1604 0.741198L13.5553 0.852378V0.363187L13.1305 0.466955L13.2423 0H12.7579L12.8623 0.466955L12.4226 0.370599V0.837554L12.8399 0.741198L12.5716 1.15627Z" fill="#F2F2F2"/>
<path d="M5.55169 20.9906C5.6808 21.1288 5.84655 21.2279 6.02982 21.2764C6.2131 21.3249 6.40643 21.3209 6.58752 21.2649L5.38029 20.1531C5.32981 20.295 5.3191 20.4479 5.34929 20.5955C5.37948 20.743 5.44944 20.8796 5.55169 20.9906Z" fill="#F2F2F2"/>
<path d="M4.53082 5.87025C4.76928 5.69236 5.64116 5.18835 5.42505 6.1445C5.53106 6.11383 5.62538 6.05223 5.6958 5.96766C5.76621 5.88308 5.80948 5.77944 5.82001 5.67013C5.82001 5.08458 5.00029 4.81775 5.00029 4.24703C5.00029 3.39465 6.37146 3.39465 6.3342 3.50583C6.09573 4.24703 6.54285 5.20317 7.8246 5.26988C7.82834 5.21064 7.82834 5.15123 7.8246 5.09199C7.58776 5.11389 7.35024 5.05799 7.14839 4.93285C6.94653 4.80771 6.79147 4.62022 6.70694 4.39909C6.6224 4.17796 6.61305 3.93537 6.68032 3.70845C6.74759 3.48153 6.88777 3.28278 7.0794 3.14264C6.62482 1.71213 5.92434 3.14264 5.32818 3.51324C5.00029 3.71336 4.0837 3.59477 4.00918 4.00243C3.94211 4.59539 5.00029 4.58798 4.53082 5.87025Z" fill="#F2F2F2"/>
<path d="M5.21647 12.0814C5.26863 12.1926 5.31334 12.2889 5.36551 12.3853C4.11382 12.9662 2.73427 13.2212 1.35633 13.1265C1.34566 13.1264 1.33529 13.13 1.32709 13.1368C1.31889 13.1436 1.3134 13.1531 1.31162 13.1636C1.31162 14.2161 2.37726 14.5051 3.29385 14.3791C4.26235 14.1954 5.17524 13.7921 5.96167 13.2006C6.03619 13.2846 6.11816 13.3662 6.20758 13.4452C5.84287 13.9216 5.38595 14.3204 4.86377 14.6183C4.34158 14.9162 3.7647 15.1071 3.16717 15.1796C3.16717 15.1796 3.16717 15.1796 3.16717 15.2315C3.39657 15.5609 3.7464 15.7879 4.14188 15.8641C4.53735 15.9402 4.9471 15.8595 5.28353 15.6392C5.98262 15.224 6.56259 14.6369 6.96768 13.9344C7.07286 13.9883 7.18257 14.033 7.29557 14.0678C6.98678 15.1118 6.27744 15.9931 5.32079 16.5212C5.32079 16.5212 5.32079 16.5212 5.32079 16.5731C5.46508 16.6952 5.63267 16.7872 5.81353 16.8434C5.99439 16.8996 6.18479 16.919 6.37334 16.9003C6.56189 16.8816 6.74471 16.8253 6.91086 16.7347C7.07701 16.6441 7.22306 16.521 7.34028 16.3729C7.78959 15.7309 8.06895 14.9865 8.15255 14.2087C8.38004 14.2101 8.60605 14.2451 8.82323 14.3124C8.82285 13.8615 8.89583 13.4134 9.03934 12.9857C8.83615 13.0057 8.63146 13.0057 8.42828 12.9857C8.05246 12.9304 7.70799 12.746 7.45476 12.4643C7.20153 12.1826 7.05555 11.8216 7.0422 11.444C7.04127 11.2304 7.08673 11.0192 7.17547 10.8248C7.26422 10.6303 7.39416 10.4572 7.55639 10.3174C7.57334 10.305 7.58711 10.2888 7.59661 10.2701C7.6061 10.2514 7.61105 10.2308 7.61105 10.2099C7.61105 10.189 7.6061 10.1683 7.59661 10.1497C7.58711 10.131 7.57334 10.1148 7.55639 10.1024L7.45206 10.0357C4.67992 8.29389 2.16115 4.26177 1.89288 3.82446C1.89288 3.82446 1.84817 3.82446 1.83326 3.82446C1.40335 4.27037 1.15963 4.86195 1.15133 5.47969C1.14303 6.09743 1.37078 6.69527 1.78855 7.15244C2.68645 8.08545 3.73724 8.85991 4.89603 9.44275C4.88837 9.57605 4.88837 9.70969 4.89603 9.84299C3.11041 9.4318 1.49494 8.48481 0.268343 7.13021C0.268343 7.13021 0.216179 7.13021 0.201275 7.13021C-0.0218468 7.61225 -0.0536878 8.16032 0.112126 8.66471C0.277941 9.1691 0.629174 9.59259 1.09551 9.8504C2.29006 10.3774 3.56942 10.6886 4.87367 10.7695L4.94074 11.1104C3.34967 11.312 1.7338 11.0574 0.283247 10.3767C0.283247 10.3767 0.223631 10.3767 0.223631 10.3767C0.192567 10.6133 0.210304 10.8537 0.275758 11.0833C0.341212 11.3129 0.453011 11.5268 0.604333 11.712C0.755655 11.8972 0.943328 12.0498 1.1559 12.1604C1.36847 12.2711 1.60148 12.3375 1.84071 12.3557C2.97339 12.4288 4.11073 12.3364 5.21647 12.0814Z" fill="#F2F2F2"/>
<path d="M1.37112 17.4329C1.49821 17.4968 1.6386 17.53 1.78098 17.53C1.92336 17.53 2.06375 17.4968 2.19084 17.4329C2.21528 17.4817 2.24984 17.5247 2.29223 17.5592C2.33462 17.5937 2.38387 17.6189 2.43676 17.6331C2.50203 17.6497 2.57001 17.653 2.6366 17.6428C2.7032 17.6326 2.76703 17.6091 2.82426 17.5738C2.86897 17.5738 2.90623 17.5293 2.96585 17.5738C3.7806 18.3446 4.59535 19.108 5.4101 19.8641L6.84088 21.176H6.87814L7.4743 21.7245C7.51393 21.7676 7.56576 21.7977 7.62296 21.811C7.68016 21.8242 7.74005 21.8199 7.79474 21.7986C7.84168 21.7858 7.88425 21.7606 7.91788 21.7256C7.95151 21.6906 7.97494 21.6472 7.98566 21.6C7.99638 21.5528 7.99398 21.5035 7.97873 21.4576C7.96347 21.4116 7.93594 21.3706 7.89907 21.3391L7.34017 20.8202L5.90193 19.5602L4.32956 18.0926L3.28628 17.1216C3.31849 17.0704 3.33948 17.013 3.34788 16.9531C3.35628 16.8933 3.35189 16.8324 3.33502 16.7743C3.31814 16.7163 3.28915 16.6624 3.24994 16.6162C3.21072 16.5701 3.16217 16.5327 3.10744 16.5064C3.15543 16.3761 3.17362 16.2368 3.16067 16.0986C3.14773 15.9604 3.10398 15.8268 3.03261 15.7075C2.96123 15.5883 2.86403 15.4863 2.74807 15.4091C2.6321 15.3319 2.5003 15.2814 2.36224 15.2612V15.7652L2.23555 15.7134C2.02756 15.6209 1.79931 15.5826 1.57232 15.6022C1.46735 15.6075 1.3681 15.6514 1.29377 15.7254C1.21944 15.7993 1.17531 15.898 1.16992 16.0024C1.1582 16.2345 1.21799 16.4647 1.34131 16.6621L1.39348 16.7733H0.856934C0.888424 16.9141 0.950855 17.0463 1.03975 17.1604C1.12865 17.2744 1.24181 17.3675 1.37112 17.4329Z" fill="#F2F2F2"/>
<path d="M17.3483 7.47876C17.0143 7.56331 16.71 7.73768 16.469 7.98277C16.6922 7.9132 16.9292 7.89911 17.1591 7.94176C17.3891 7.9844 17.605 8.08247 17.788 8.22737C17.7786 8.0771 17.7339 7.93111 17.6576 7.8011C17.5812 7.6711 17.4753 7.5607 17.3483 7.47876Z" fill="#F2F2F2"/>
<path d="M14.0395 11.3773C13.5948 11.5118 13.1381 11.6037 12.6758 11.6516C12.5715 11.9258 13.3837 12.2223 13.3465 12.2445C12.9834 12.3204 12.6144 12.365 12.2436 12.378C12.1094 12.378 10.9693 12.4224 10.6563 12.378C10.552 12.378 10.2241 12.5114 10.3508 12.5707C10.4775 12.63 10.5743 12.5336 10.6563 12.5707C10.7383 12.6077 10.7606 12.7041 10.8277 12.6967C10.8948 12.6893 10.8873 12.6967 10.9246 12.6374C10.9522 12.6052 10.985 12.5776 11.0215 12.5558L13.1751 12.7856C13.1751 12.7856 13.2645 13.5787 12.7354 13.8455C12.3926 14.0234 12.0275 14.9054 11.8933 15.2019C11.8809 15.2323 11.8618 15.2594 11.8372 15.2812C11.8127 15.3031 11.7834 15.319 11.7518 15.3279C11.6717 15.3528 11.5962 15.3904 11.5282 15.4391C11.2359 15.6948 10.9689 15.9777 10.7308 16.2841C10.6563 16.4101 10.47 16.3878 10.4253 16.462C10.3806 16.5361 10.4998 16.7807 10.3657 16.8993C10.2315 17.0179 10.4253 17.2773 10.4849 17.2773C10.5445 17.2773 10.5892 17.2773 10.6638 17.0327C10.7029 16.8496 10.7527 16.669 10.8128 16.4916C10.865 16.4027 12.0871 15.6911 12.2585 15.528C12.4299 15.365 12.9217 14.8684 13.1155 14.6608C13.1683 14.6117 13.237 14.5828 13.3092 14.5793H14.0544C14.0544 14.5793 13.7489 14.861 13.5626 15.0018C13.5171 14.9806 13.4675 14.9696 13.4173 14.9696C13.3671 14.9696 13.3174 14.9806 13.272 15.0018C13.1751 15.0611 13.272 15.276 13.1602 15.4169C13.0484 15.5577 13.0409 15.7356 13.0708 15.7504C13.1006 15.7652 13.1825 15.7504 13.1974 15.7133C13.4659 15.4358 13.7632 15.1874 14.0842 14.9721C14.9561 14.4533 15.1126 14.3125 15.1201 14.2309C15.124 14.1788 15.1099 14.1268 15.08 14.0837C15.0502 14.0405 15.0065 14.0088 14.9561 13.9938C14.7996 13.9567 13.7116 13.9345 13.7414 13.89C13.9643 13.6759 14.1484 13.4252 14.2854 13.1488C14.2983 12.9291 14.2547 12.7097 14.1587 12.5114C14.1547 12.4282 14.1754 12.3457 14.2184 12.2742H14.5462C14.5462 12.2742 14.6282 11.9703 14.591 11.9258C14.5533 11.8549 14.5328 11.7762 14.5313 11.696C14.4941 11.3403 14.2631 11.3106 14.0395 11.3773Z" fill="#F2F2F2"/>
<path d="M11.2153 17.0476C11.2153 17.1736 11.3495 17.2552 11.4091 17.2403C11.4687 17.2255 11.5358 17.018 11.5656 16.8697C11.5899 16.7604 11.6249 16.6537 11.6699 16.551L12.6685 15.9951L12.8846 15.3132C12.4483 15.7153 11.9825 16.0844 11.4911 16.4176C11.275 16.4547 11.3197 16.6103 11.3122 16.7067C11.3048 16.803 11.1781 16.8105 11.2153 17.0476Z" fill="#F2F2F2"/>
<path d="M18.2127 7.17487C18.352 7.19089 18.4847 7.24318 18.5972 7.32647C18.7097 7.40975 18.7981 7.52109 18.8536 7.64923C19.0491 7.39605 19.1374 7.07684 19.0995 6.7598C18.8238 5.34411 15.5076 6.28543 13.8384 5.68506C13.8384 6.09272 14.36 6.75238 14.8742 6.99698C14.0145 7.82638 13.4296 8.89686 13.1975 10.0655C13.8311 10.0903 14.4516 10.2521 15.0158 10.5399C14.8519 8.93892 16.3944 6.91545 18.2127 7.17487Z" fill="#F2F2F2"/>
<path d="M14.1066 15.8987C14.2333 15.7026 14.3753 15.5167 14.5314 15.3428C14.7509 15.1549 15.0036 15.0091 15.2766 14.9129C15.9398 14.5719 16.1783 14.3051 16.1857 14.1717C16.1878 14.0955 16.1604 14.0214 16.109 13.9648C16.0577 13.9082 15.9864 13.8735 15.91 13.8678C15.7324 13.8394 15.5532 13.8221 15.3734 13.8159C15.4305 13.8468 15.4804 13.889 15.5202 13.9401C15.56 13.9911 15.5886 14.0498 15.6045 14.1124C15.6045 14.2236 15.5672 14.2977 15.448 14.4089C15.3287 14.5201 14.8369 14.8091 14.5314 14.9944C14.2258 15.1797 14.2333 15.1501 14.1588 15.1575C14.0842 15.1649 14.0693 15.2909 14.0842 15.4169C14.0992 15.5429 14.0097 15.6393 13.9948 15.7356C13.9799 15.832 14.0693 15.958 14.1066 15.8987Z" fill="#F2F2F2"/>
<path d="M14.9041 12.4597H14.6209C14.6513 12.6785 14.6513 12.9005 14.6209 13.1193C14.5291 13.3253 14.4087 13.5174 14.2632 13.69L14.7476 13.7345C14.8994 13.5443 15.0412 13.3464 15.1723 13.1416C15.2028 12.8954 15.2028 12.6465 15.1723 12.4004C15.1956 12.3268 15.2336 12.2588 15.2841 12.2002H15.5673C15.5673 12.2002 15.6418 11.8741 15.5673 11.8C15.4928 11.7259 15.5673 11.5702 15.463 11.3997C15.3586 11.2293 14.7923 11.333 14.7923 11.333C14.9204 11.5243 15.002 11.7425 15.0307 11.9705C15.0091 12.1381 14.9665 12.3024 14.9041 12.4597Z" fill="#F2F2F2"/>
<path d="M9.53116 7.98262C9.28849 7.7418 8.98858 7.56588 8.65928 7.47119C8.53106 7.55069 8.42366 7.65934 8.34592 7.7882C8.26819 7.91707 8.22234 8.06245 8.21216 8.21239C8.39876 8.07441 8.61522 7.98177 8.84425 7.94187C9.07328 7.90197 9.30852 7.91593 9.53116 7.98262Z" fill="#F2F2F2"/>
<path d="M12.1991 5.68506C10.5224 6.28543 7.19876 5.34411 6.93795 6.7598C6.91626 6.91689 6.92688 7.07672 6.96915 7.22961C7.01142 7.3825 7.08447 7.52526 7.18386 7.64923C7.2344 7.51782 7.3215 7.40342 7.43499 7.31942C7.54848 7.23542 7.68366 7.18528 7.82473 7.17487C9.61321 6.90804 11.193 8.97598 11.0142 10.5918C11.5762 10.2854 12.2 10.1082 12.8399 10.073C12.609 8.90496 12.0299 7.83315 11.1781 6.99698C11.6849 6.75238 12.2289 6.09272 12.1991 5.68506Z" fill="#F2F2F2"/>
<path d="M19.6658 3.5207C19.6211 3.38729 20.9923 3.37987 20.9923 4.2619C20.9923 4.84004 20.1726 5.10687 20.1726 5.69241C20.1811 5.80238 20.2236 5.90704 20.2943 5.99199C20.365 6.07693 20.4605 6.138 20.5675 6.16678C20.3514 5.21805 21.2308 5.72206 21.4618 5.89254C20.9923 4.61768 22.043 4.62509 21.9461 4.03954C21.8716 3.62447 20.955 3.75047 20.6271 3.54294C20.031 3.17975 19.3379 1.74924 18.8759 3.17975C19.0699 3.31809 19.2123 3.51639 19.281 3.74371C19.3497 3.97103 19.3408 4.21458 19.2557 4.43635C19.1706 4.65811 19.0141 4.84562 18.8106 4.9696C18.6071 5.09358 18.368 5.14706 18.1307 5.12169C18.127 5.18093 18.127 5.24034 18.1307 5.29958C19.4497 5.1884 19.9043 4.27672 19.6658 3.5207Z" fill="#F2F2F2"/>
<path d="M19.8969 18.4707L20.2024 18.404L20.0086 18.7005H20.6048L20.4334 18.3818L20.724 18.4633V18.1298L20.4185 18.2039L20.493 17.8704H20.1204L20.1949 18.2113L19.8745 18.1446L19.8969 18.4707Z" fill="#F2F2F2"/>
<path d="M19.3752 18.9968C19.1106 19.1745 18.9137 19.4356 18.8163 19.738V19.8121C18.7533 20.1021 18.7793 20.4042 18.8908 20.6793C18.9245 20.7565 18.9644 20.8309 19.0101 20.9017L19.0622 20.9536C19.1932 21.125 19.3569 21.2691 19.544 21.3776C19.7311 21.4861 19.9378 21.5568 20.1524 21.5857C20.3669 21.6146 20.5851 21.6012 20.7945 21.5461C21.0038 21.4911 21.2002 21.3955 21.3723 21.2649C21.5455 21.1477 21.688 20.9911 21.7878 20.808C21.8876 20.6249 21.9419 20.4206 21.9461 20.2124C21.9502 19.9654 21.8898 19.7215 21.771 19.5046C21.6522 19.2877 21.4789 19.1051 21.268 18.9746C21.2589 18.9637 21.2475 18.9549 21.2346 18.9489C21.2218 18.9429 21.2077 18.9398 21.1935 18.9398C21.1793 18.9398 21.1652 18.9429 21.1523 18.9489C21.1394 18.9549 21.1281 18.9637 21.119 18.9746L20.3738 19.5824L20.2843 19.5156C20.0608 19.3378 19.8298 19.1673 19.6062 18.982C19.6052 18.9669 19.6013 18.9521 19.5946 18.9386C19.5879 18.925 19.5785 18.9129 19.5671 18.9029C19.5557 18.8929 19.5424 18.8853 19.528 18.8804C19.5136 18.8755 19.4984 18.8735 19.4833 18.8745C19.4681 18.8755 19.4533 18.8794 19.4396 18.8861C19.426 18.8928 19.4138 18.902 19.4038 18.9134C19.3937 18.9248 19.386 18.938 19.3811 18.9523C19.3762 18.9666 19.3742 18.9817 19.3752 18.9968Z" fill="#F2F2F2"/>
<path d="M17.6316 18.2334C17.7803 17.829 17.7803 17.3852 17.6316 16.9808C17.5555 16.8091 17.4449 16.6547 17.3064 16.5272C17.168 16.3997 17.0047 16.3018 16.8267 16.2396C16.4753 16.941 15.9309 17.5286 15.2567 17.9341C14.5825 18.3395 13.8064 18.5462 13.0188 18.5299C12.2313 18.541 11.457 18.3287 10.7866 17.9178C10.1161 17.5069 9.57726 16.9145 9.23316 16.21H9.15864C8.8302 16.342 8.5598 16.5862 8.39593 16.8986C8.23206 17.211 8.18543 17.5712 8.2644 17.9147C8.36244 18.3809 8.55516 18.8223 8.83075 19.2118C8.98724 19.449 8.98724 19.4712 8.71152 19.5676C8.19972 19.7472 7.65934 19.8326 7.11679 19.8196C7.05461 19.8133 6.99534 19.7902 6.94539 19.7529C6.84282 19.6672 6.72407 19.6027 6.5961 19.5632C6.46813 19.5238 6.33353 19.5101 6.2002 19.5231L7.45213 20.6497L7.75766 20.5015C8.37361 20.2528 9.03051 20.1196 9.69518 20.1087C9.86658 20.1087 9.92619 20.0049 9.87403 19.8418C9.82186 19.6788 9.81441 19.6491 9.79206 19.5454C9.76585 19.4442 9.76142 19.3388 9.77906 19.2358C9.79669 19.1329 9.836 19.0348 9.89439 18.948C9.95279 18.8613 10.029 18.7878 10.1179 18.7323C10.2069 18.6768 10.3066 18.6407 10.4106 18.6263C10.5587 18.6003 10.7108 18.6067 10.8563 18.6451C11.0017 18.6835 11.1369 18.753 11.2526 18.8486C11.7204 19.2183 12.0657 19.7193 12.2438 20.2866H12.1469C11.1647 20.5319 10.2438 20.976 9.44181 21.5911C9.12346 21.8311 8.86786 22.1438 8.69661 22.5027C8.64441 22.6311 8.64441 22.7746 8.69661 22.903C8.76376 23.0878 8.87689 23.2528 9.02544 23.3824C9.17399 23.512 9.35313 23.602 9.54614 23.6442C9.61321 23.6442 9.63556 23.6442 9.65047 23.5701C9.69241 23.4015 9.74467 23.2357 9.80696 23.0735C10.2278 22.161 10.9514 21.4204 11.8563 20.9759C12.0426 20.8795 12.2512 20.8128 12.4524 20.7313L12.5195 20.9017C12.2358 21.0739 11.9621 21.262 11.6998 21.4651C11.0762 21.945 10.6264 22.6136 10.418 23.3699C10.3999 23.463 10.3999 23.5586 10.418 23.6516C10.4801 23.8618 10.5969 24.052 10.7565 24.2029C10.9161 24.3539 11.113 24.4603 11.3272 24.5114C11.3868 24.5114 11.4091 24.5114 11.4166 24.4373C11.4166 24.1482 11.4837 23.8591 11.5433 23.5775C11.6864 22.8165 12.0138 22.1016 12.4971 21.4947L12.5791 21.3835H12.6313C12.6291 21.5234 12.6116 21.6625 12.5791 21.7986C12.3253 22.5515 12.153 23.3293 12.0649 24.1185C12.0448 24.2503 12.0536 24.3848 12.091 24.5128C12.1283 24.6408 12.1931 24.7592 12.281 24.8597C12.4721 25.0466 12.6939 25.1995 12.9368 25.3119C12.9545 25.3194 12.9735 25.3233 12.9927 25.3233C13.0119 25.3233 13.0309 25.3194 13.0486 25.3119C13.3064 25.2072 13.5398 25.0507 13.7342 24.8523C13.8102 24.7785 13.8694 24.6894 13.908 24.591C13.9465 24.4926 13.9635 24.3871 13.9577 24.2816C13.9577 24.0074 13.9056 23.7257 13.8608 23.4515C13.7611 22.8691 13.6115 22.2963 13.4137 21.7393C13.3796 21.6131 13.3796 21.4801 13.4137 21.3539C13.5479 21.5318 13.6745 21.68 13.7789 21.8357C14.3029 22.6178 14.6136 23.522 14.6806 24.4595C14.6806 24.5559 14.7253 24.5633 14.7998 24.5336C15.0634 24.4557 15.2988 24.3039 15.4779 24.0963C15.5699 23.9989 15.6336 23.8786 15.6625 23.7482C15.6914 23.6177 15.6842 23.4819 15.6419 23.3551C15.3655 22.4774 14.7844 21.7261 14.0024 21.2353C13.8608 21.1389 13.7118 21.0648 13.5553 20.9759L13.6224 20.798L13.8012 20.8499C14.3582 21.0472 14.8663 21.3605 15.2916 21.7689C15.8364 22.2486 16.2211 22.8821 16.3945 23.5849C16.3945 23.6664 16.4616 23.6738 16.5287 23.6516C16.8332 23.5856 17.1002 23.405 17.2739 23.1476C17.3465 23.0502 17.3893 22.9341 17.3972 22.8132C17.4052 22.6922 17.3779 22.5716 17.3186 22.4657C17.1143 22.0791 16.8205 21.7463 16.4616 21.4947C15.8155 21.0222 15.0954 20.659 14.3303 20.42L13.7938 20.2643C13.916 19.9232 14.0867 19.6013 14.3005 19.3082C14.5134 18.983 14.8315 18.7399 15.2022 18.6189C15.3024 18.5841 15.4087 18.5696 15.5146 18.5762C15.6206 18.5828 15.7241 18.6104 15.8192 18.6573C15.9143 18.7043 15.999 18.7696 16.0684 18.8496C16.1377 18.9295 16.1903 19.0224 16.2231 19.1229C16.2819 19.3552 16.2609 19.6005 16.1635 19.8196C16.1039 19.9752 16.1635 20.079 16.3349 20.0864C16.5063 20.0938 16.7969 20.0864 17.0205 20.1457C17.5589 20.2071 18.0816 20.3653 18.5631 20.6127C18.4759 20.3471 18.4605 20.0633 18.5183 19.7899C18.2426 19.7899 17.9669 19.7307 17.6986 19.6788C17.4945 19.6325 17.2949 19.568 17.1025 19.4861C16.9907 19.4416 16.9907 19.4045 17.0577 19.3082C17.3004 18.9795 17.4937 18.6175 17.6316 18.2334Z" fill="#F2F2F2"/>
<path d="M25.7169 10.4287C24.2675 11.1132 22.6512 11.3704 21.0594 11.1699C21.0594 11.0513 21.1116 10.9401 21.1265 10.8216C22.4307 10.7407 23.7101 10.4295 24.9046 9.90246C25.3672 9.64092 25.7151 9.21729 25.8804 8.7143C26.0458 8.21131 26.0167 7.66508 25.7989 7.18227C25.7947 7.17753 25.7895 7.17374 25.7837 7.17115C25.778 7.16855 25.7717 7.16721 25.7654 7.16721C25.759 7.16721 25.7527 7.16855 25.747 7.17115C25.7412 7.17374 25.736 7.17753 25.7318 7.18227C24.5219 8.50293 22.9363 9.42589 21.1861 9.82834C21.179 9.69418 21.1641 9.56054 21.1414 9.4281C22.3017 8.84776 23.3529 8.073 24.2489 7.13779C24.6683 6.68143 24.8972 6.08326 24.8888 5.465C24.8805 4.84675 24.6357 4.25487 24.2042 3.80981H24.152C23.8763 4.24712 21.3575 8.257 18.5854 10.0211L18.4885 10.0878C18.47 10.099 18.4547 10.1148 18.4441 10.1336C18.4335 10.1525 18.4279 10.1737 18.4279 10.1952C18.4279 10.2168 18.4335 10.238 18.4441 10.2568C18.4547 10.2757 18.47 10.2915 18.4885 10.3027C18.6507 10.4426 18.7807 10.6157 18.8694 10.8101C18.9581 11.0046 19.0036 11.2158 19.0027 11.4293C18.9908 11.8074 18.8453 12.1692 18.5918 12.4511C18.3383 12.7331 17.993 12.9172 17.6166 12.971C17.4491 12.9985 17.2797 13.0134 17.1099 13.0155C17.2479 13.4393 17.3183 13.882 17.3185 14.3274C17.5057 14.2767 17.6984 14.2493 17.8923 14.2459C17.9759 15.025 18.2581 15.7699 18.712 16.4102C18.8287 16.5588 18.9744 16.6825 19.1402 16.7738C19.3061 16.865 19.4888 16.9221 19.6774 16.9415C19.8659 16.9608 20.0565 16.9422 20.2377 16.8865C20.4188 16.8309 20.5868 16.7395 20.7315 16.6177C20.7389 16.6096 20.7429 16.599 20.7429 16.5881C20.7429 16.5771 20.7389 16.5666 20.7315 16.5584C20.2493 16.2983 19.8237 15.9456 19.4796 15.5206C19.1355 15.0956 18.8797 14.6069 18.7269 14.0828L19.0548 13.9568C19.4601 14.6572 20.0402 15.2418 20.739 15.6542C21.0777 15.8712 21.4875 15.95 21.8831 15.874C22.2787 15.7981 22.6296 15.5733 22.8628 15.2465C22.8628 15.2465 22.8628 15.1946 22.8255 15.1946C22.2288 15.1222 21.6526 14.9321 21.1305 14.6356C20.6085 14.3391 20.1511 13.942 19.7851 13.4676C19.8646 13.3935 19.9466 13.312 20.031 13.223C20.8118 13.8129 21.7159 14.2208 22.6765 14.4164C23.5931 14.5424 24.6364 14.2533 24.6587 13.2008C24.6587 13.2008 24.6587 13.2008 24.614 13.2008C23.236 13.2965 21.8562 13.0414 20.6048 12.4596C20.657 12.3632 20.7092 12.2595 20.7539 12.1631C21.8727 12.4344 23.0233 12.554 24.1744 12.5189C24.4137 12.4999 24.6465 12.4326 24.8588 12.321C25.0711 12.2095 25.2582 12.0561 25.4089 11.8702C25.5595 11.6843 25.6705 11.4698 25.735 11.2398C25.7995 11.0098 25.8161 10.7691 25.784 10.5325C25.7691 10.4361 25.7318 10.4213 25.7169 10.4287Z" fill="#F2F2F2"/>
<path d="M4.17313 30.6412V27.5801H3.47264L2.63057 28.9439L1.79595 27.5801H1.09546V30.6412H1.79595V28.8624L2.59331 30.1594H2.67528L3.47264 28.8624V30.6412H4.17313Z" fill="#F2F2F2"/>
<path d="M13.8384 30.6412H14.5389V28.2546H15.4629V30.6412H16.1634V27.5801H13.8384V30.6412Z" fill="#F2F2F2"/>
<path d="M21.4096 27.5799H20.2471V30.641H20.9476V29.6478H21.4096C21.548 29.6496 21.6853 29.6237 21.8133 29.5714C21.9414 29.5192 22.0575 29.4418 22.1548 29.3439C22.2539 29.2473 22.3327 29.132 22.3865 29.0047C22.4402 28.8774 22.4679 28.7408 22.4679 28.6027C22.4679 28.4647 22.4402 28.328 22.3865 28.2007C22.3327 28.0735 22.2539 27.9581 22.1548 27.8615C22.0554 27.7679 21.9384 27.6949 21.8105 27.6465C21.6826 27.5982 21.5463 27.5755 21.4096 27.5799ZM21.6779 28.914C21.6432 28.9498 21.6015 28.9782 21.5553 28.9973C21.5092 29.0164 21.4596 29.0259 21.4096 29.0252H20.9476V28.2395H21.4096C21.4596 28.2388 21.5092 28.2483 21.5553 28.2674C21.6015 28.2866 21.6432 28.3149 21.6779 28.3507C21.7467 28.4284 21.7839 28.5288 21.7822 28.6324C21.7814 28.7332 21.7444 28.8305 21.6779 28.9066V28.914Z" fill="#F2F2F2"/>
<path d="M22.6169 28.2546H23.4069V30.6412H24.1073V28.2546H24.9047V27.5801H22.6169V28.2546Z" fill="#F2F2F2"/>
<path d="M19.3753 27.9803C19.0743 27.694 18.6739 27.5342 18.2575 27.5342C17.841 27.5342 17.4406 27.694 17.1397 27.9803C16.9113 28.2015 16.7545 28.4853 16.6892 28.7956C16.624 29.1058 16.6532 29.4284 16.7732 29.722C16.8932 30.0157 17.0985 30.2671 17.3629 30.444C17.6273 30.621 17.9388 30.7156 18.2575 30.7156C18.5761 30.7156 18.8876 30.621 19.152 30.444C19.4164 30.2671 19.6217 30.0157 19.7417 29.722C19.8617 29.4284 19.8909 29.1058 19.8257 28.7956C19.7604 28.4853 19.6036 28.2015 19.3753 27.9803ZM18.8834 29.7666C18.7095 29.9281 18.4805 30.018 18.2425 30.018C18.0046 30.018 17.7756 29.9281 17.6017 29.7666C17.5166 29.6811 17.4502 29.579 17.4066 29.4668C17.363 29.3545 17.3432 29.2346 17.3483 29.1143C17.3435 28.9931 17.3634 28.8721 17.407 28.7587C17.4505 28.6453 17.5168 28.5419 17.6017 28.4547C17.7756 28.2932 18.0046 28.2033 18.2425 28.2033C18.4805 28.2033 18.7095 28.2932 18.8834 28.4547C18.9683 28.5419 19.0346 28.6453 19.0781 28.7587C19.1217 28.8721 19.1416 28.9931 19.1368 29.1143C19.1372 29.2373 19.1115 29.3589 19.0614 29.4713C19.0113 29.5837 18.938 29.6843 18.8462 29.7666H18.8834Z" fill="#F2F2F2"/>
<path d="M7.16152 30.6412V27.5801H6.63242L5.44756 29.2404V27.5801H4.74707V30.6412H5.26871L6.45358 28.9809V30.6412H7.16152Z" fill="#F2F2F2"/>
<path d="M10.1051 30.6412V27.5801H9.4046V28.7512H8.43584V27.5801H7.73535V30.6412H8.43584V29.4257H9.4046V30.6412H10.1051Z" fill="#F2F2F2"/>
<path d="M13.4659 29.9962L12.8548 29.6479C12.7899 29.7652 12.6913 29.8607 12.5716 29.9221C12.4397 29.9872 12.2941 30.0202 12.1469 30.0185C12.0266 30.0245 11.9063 30.006 11.7935 29.9639C11.6806 29.9218 11.5777 29.8571 11.4911 29.7739C11.4079 29.6858 11.3432 29.5821 11.301 29.4688C11.2588 29.3555 11.2398 29.2349 11.2452 29.1142C11.2394 28.9934 11.2581 28.8727 11.3004 28.7594C11.3427 28.646 11.4075 28.5423 11.4911 28.4545C11.5763 28.3688 11.6788 28.302 11.7918 28.2586C11.9049 28.2151 12.0259 28.196 12.1469 28.2025C12.2914 28.2038 12.4339 28.2367 12.5642 28.2989C12.6854 28.3642 12.786 28.4617 12.8548 28.5805L13.4659 28.2322C13.3298 28.0125 13.1367 27.8333 12.907 27.7133C12.6923 27.5874 12.451 27.513 12.2023 27.4961C11.9536 27.4792 11.7043 27.5203 11.4744 27.6161C11.2445 27.7118 11.0402 27.8596 10.8777 28.0477C10.7153 28.2358 10.5993 28.459 10.5388 28.6995C10.4783 28.94 10.4751 29.1913 10.5295 29.4333C10.5838 29.6753 10.6941 29.9013 10.8517 30.0934C11.0093 30.2855 11.2098 30.4384 11.4372 30.5399C11.6646 30.6414 11.9127 30.6887 12.1618 30.6781C12.4216 30.6774 12.6774 30.6138 12.907 30.4928C13.1328 30.3773 13.3251 30.2064 13.4659 29.9962Z" fill="#F2F2F2"/>
<path d="M17.0875 34.5398V32.8721H16.387V35.9332H16.9161L18.1009 34.2729V35.9332H18.8014V32.8721H18.2723L17.0875 34.5398Z" fill="#F2F2F2"/>
<path d="M11.5804 33.4946C11.726 33.4946 11.8693 33.5303 11.9978 33.5984C12.1213 33.657 12.223 33.753 12.2884 33.8727L12.892 33.5243C12.7606 33.3034 12.5695 33.1237 12.3405 33.0055C12.1119 32.8811 11.8559 32.8149 11.5953 32.8127C11.3849 32.8127 11.1766 32.854 10.9822 32.934C10.7878 33.0141 10.6112 33.1315 10.4624 33.2795C10.3137 33.4275 10.1956 33.6031 10.1151 33.7965C10.0346 33.9898 9.99316 34.197 9.99316 34.4063C9.99316 34.6156 10.0346 34.8228 10.1151 35.0162C10.1956 35.2095 10.3137 35.3852 10.4624 35.5331C10.6112 35.6811 10.7878 35.7985 10.9822 35.8786C11.1766 35.9587 11.3849 35.9999 11.5953 35.9999C11.8558 35.9966 12.1115 35.9304 12.3405 35.8072C12.5675 35.6888 12.7561 35.5089 12.8845 35.2883L12.2809 34.94C12.2152 35.0593 12.1136 35.1552 11.9903 35.2142C11.8179 35.3028 11.6222 35.3361 11.4301 35.3096C11.2379 35.283 11.0588 35.1979 10.9172 35.066C10.7592 34.8821 10.6724 34.6482 10.6724 34.4063C10.6724 34.1645 10.7592 33.9305 10.9172 33.7467C11.0032 33.66 11.1069 33.5926 11.2214 33.5491C11.3358 33.5057 11.4582 33.4871 11.5804 33.4946Z" fill="#F2F2F2"/>
<path d="M5.14933 32.8794H3.98682V35.9332H4.6873V34.977H5.14933C5.28811 34.9771 5.42551 34.9495 5.55347 34.8961C5.68143 34.8426 5.79738 34.7643 5.89453 34.6657C5.99367 34.5691 6.07243 34.4538 6.1262 34.3265C6.17997 34.1993 6.20766 34.0626 6.20766 33.9245C6.20766 33.7865 6.17997 33.6498 6.1262 33.5225C6.07243 33.3953 5.99367 33.28 5.89453 33.1833C5.79701 33.0858 5.68083 33.0086 5.55284 32.9564C5.42485 32.9042 5.28765 32.878 5.14933 32.8794ZM5.4176 34.2062C5.3838 34.2431 5.34225 34.2722 5.2959 34.2915C5.24954 34.3107 5.1995 34.3195 5.14933 34.3174H4.6873V33.5317H5.14933C5.1995 33.5296 5.24954 33.5384 5.2959 33.5576C5.34225 33.5768 5.3838 33.6059 5.4176 33.6429C5.48849 33.7193 5.52601 33.8206 5.52193 33.9245C5.52479 33.9761 5.51702 34.0277 5.49907 34.0761C5.48113 34.1245 5.4534 34.1688 5.4176 34.2062Z" fill="#F2F2F2"/>
<path d="M8.07067 32.8128C7.86034 32.8085 7.65135 32.8471 7.45656 32.9261C7.26176 33.0051 7.08528 33.1229 6.93796 33.2723C6.78478 33.4185 6.66392 33.5949 6.58308 33.7901C6.50225 33.9854 6.46322 34.1952 6.46849 34.4063C6.4632 34.7237 6.55287 35.0354 6.7261 35.302C6.89933 35.5685 7.14831 35.7779 7.4414 35.9034C7.7345 36.0289 8.05849 36.0649 8.37221 36.0069C8.68593 35.9488 8.97524 35.7994 9.20337 35.5774C9.36287 35.4275 9.48852 35.2455 9.57203 35.0436C9.65553 34.8417 9.69497 34.6245 9.68775 34.4063C9.69301 34.1952 9.65399 33.9854 9.57315 33.7901C9.49232 33.5949 9.37145 33.4185 9.21827 33.2723C9.06869 33.1218 8.88969 33.0034 8.69231 32.9243C8.49493 32.8453 8.28337 32.8073 8.07067 32.8128ZM8.71154 35.0364C8.58559 35.1653 8.42331 35.2533 8.24608 35.2887C8.06885 35.3241 7.885 35.3052 7.71877 35.2346C7.55254 35.164 7.41173 35.0449 7.31491 34.8931C7.21809 34.7412 7.16981 34.5638 7.17643 34.3841C7.17643 34.1482 7.27064 33.922 7.43834 33.7552C7.60605 33.5884 7.8335 33.4947 8.07067 33.4947C8.30783 33.4947 8.53529 33.5884 8.70299 33.7552C8.87069 33.922 8.9649 34.1482 8.9649 34.3841C8.97371 34.508 8.95564 34.6324 8.91193 34.7487C8.86821 34.8651 8.79988 34.9708 8.71154 35.0586V35.0364Z" fill="#F2F2F2"/>
<path d="M14.6955 33.4947C14.8412 33.4937 14.9847 33.5294 15.1128 33.5984C15.2364 33.657 15.3381 33.753 15.4035 33.8727L16.0145 33.5243C15.8802 33.3032 15.6867 33.1235 15.4556 33.0055C15.2401 32.8746 14.9966 32.796 14.7449 32.7761C14.4932 32.7561 14.2403 32.7953 14.0067 32.8905C13.773 32.9858 13.5651 33.1343 13.3999 33.3242C13.2346 33.5141 13.1166 33.74 13.0554 33.9837C12.9941 34.2273 12.9914 34.4819 13.0474 34.7268C13.1033 34.9717 13.2164 35.2001 13.3775 35.3935C13.5387 35.5869 13.7433 35.7398 13.9748 35.84C14.2063 35.9402 14.4583 35.9849 14.7104 35.9703C14.9708 35.9669 15.2266 35.9008 15.4556 35.7776C15.683 35.6572 15.8736 35.4779 16.0071 35.2587L15.396 34.9104C15.3334 35.0295 15.2342 35.1256 15.1128 35.1846C14.9817 35.2528 14.836 35.2884 14.6881 35.2884C14.5673 35.293 14.4468 35.2731 14.334 35.2298C14.2212 35.1864 14.1186 35.1206 14.0323 35.0364C13.8743 34.8525 13.7875 34.6186 13.7875 34.3767C13.7875 34.1348 13.8743 33.9009 14.0323 33.717C14.1209 33.6356 14.2258 33.5738 14.34 33.5354C14.4543 33.4971 14.5755 33.4832 14.6955 33.4947Z" fill="#F2F2F2"/>
<path d="M20.0757 34.5398V32.8721H19.3752V35.9332H19.8969L21.0892 34.2729V35.9332H21.7897V32.8721H21.2606L20.0757 34.5398Z" fill="#F2F2F2"/>
</g>
<defs>
<clipPath id="clip0_216_4944">
<rect width="26" height="36" fill="white"/>
</clipPath>
</defs>
</svg>
