<svg width="135" height="158" viewBox="0 0 135 158" fill="none" xmlns="http://www.w3.org/2000/svg">
<path d="M29.4651 35.0605H2.35291V62.3082H29.4651V35.0605Z" fill="#372420"/>
<path d="M56.6414 7.82861H29.5292V35.0763H56.6414V7.82861Z" fill="#372420"/>
<path d="M54.4279 7.44727H4.56633C3.14898 7.44727 2 8.60199 2 10.0264V60.1372C2 61.5617 3.14898 62.7164 4.56633 62.7164H54.4279C55.8453 62.7164 56.9943 61.5617 56.9943 60.1372V10.0264C56.9943 8.60199 55.8453 7.44727 54.4279 7.44727Z" stroke="#372420" stroke-width="2.79" stroke-miterlimit="10"/>
<path d="M15.655 56.1391C13.479 56.1391 11.303 56.1391 9.13227 56.1391C8.47999 56.1391 8.21801 55.9349 8.29286 55.2901C8.32494 55.0591 8.29286 54.8227 8.29286 54.5916C8.29286 54.0973 8.18593 53.517 8.42118 53.1516C8.60296 52.8883 9.24454 52.942 9.68296 52.8507C10.7148 52.6572 11.0142 52.1199 10.5758 51.1635C9.65622 49.1288 8.70811 47.1049 7.73148 45.0917C7.57643 44.7693 7.19683 44.5544 6.98297 44.2696C6.76911 43.9848 6.36812 43.3723 6.44832 43.0553C6.54507 42.8269 6.69125 42.623 6.87621 42.4585C7.06118 42.294 7.28029 42.173 7.51762 42.1042C7.7547 42.0939 7.99056 42.1436 8.20355 42.2487C8.41654 42.3539 8.59984 42.5111 8.73662 42.706C9.3087 43.7807 10.3406 44.1514 11.2869 44.6887C11.6665 44.909 11.7895 44.6887 11.8216 44.318C11.9018 43.2433 12.2172 42.217 11.6932 41.1531C11.6329 40.9954 11.6087 40.826 11.6225 40.6575C11.6364 40.4891 11.6879 40.326 11.7732 40.1803C11.8585 40.0346 11.9755 39.9102 12.1153 39.8163C12.2551 39.7224 12.4142 39.6614 12.5808 39.6379C13.4041 39.4821 14.1045 39.9227 14.0671 40.777C14.019 41.9914 14.821 42.7436 15.3556 43.6463C15.6015 44.0601 15.8208 44.0439 16.1041 43.6463C16.7564 42.7168 17.6011 41.9108 17.553 40.5943C17.553 39.8904 18.3015 39.4767 19.0233 39.6594C19.189 39.6877 19.3462 39.7535 19.4828 39.8519C19.6194 39.9504 19.7319 40.0788 19.8118 40.2274C19.8916 40.376 19.9368 40.541 19.9438 40.7098C19.9507 40.8786 19.9194 41.0467 19.852 41.2015C19.3174 42.2493 19.5633 43.2917 19.6489 44.3556C19.6863 44.8929 19.8253 45.0595 20.3225 44.6995C21.2368 44.0278 22.3595 43.6571 22.9477 42.5502C23.2791 41.9054 24.1506 41.943 24.6746 42.4642C24.7994 42.5755 24.8984 42.713 24.9645 42.867C25.0306 43.021 25.0622 43.1877 25.0571 43.3553C25.052 43.5229 25.0103 43.6874 24.9349 43.837C24.8596 43.9867 24.7525 44.1178 24.6211 44.2213C24.1403 44.6973 23.7298 45.2402 23.4021 45.8332C22.5253 47.5688 21.7073 49.3312 20.9053 51.1044C20.3386 52.351 20.7289 52.9635 22.0708 52.9259C22.7926 52.9259 23.0065 53.1301 23.0011 53.8555C23.0011 56.166 23.0011 56.166 20.6968 56.166L15.655 56.1391Z" fill="white"/>
<path d="M15.7566 31.1646C13.4683 31.1646 11.18 31.1162 8.89164 31.1646C7.94531 31.1646 7.66194 30.8637 7.75283 29.9663C7.80898 29.3425 7.80898 28.7149 7.75283 28.0911C7.69402 27.3549 7.8758 26.9412 8.70451 27.0702C9.53322 27.1991 9.89679 26.7961 10.3085 26.1728C10.9394 25.1788 11.752 24.3029 12.3455 23.2928C12.7297 22.5394 13.0155 21.7394 13.1956 20.9124C13.2223 20.8103 12.7358 20.3751 12.5914 20.4396C11.8832 20.6666 11.2019 20.9712 10.5598 21.3477C9.43164 22.0408 8.82748 21.0951 8.11105 20.6115C7.96733 20.5256 7.84339 20.4101 7.7474 20.2725C7.65142 20.1349 7.58559 19.9784 7.55426 19.8133C7.52292 19.6483 7.52681 19.4784 7.56565 19.315C7.60449 19.1515 7.6774 18.9982 7.77957 18.8652C9.15897 16.6765 10.5473 14.4824 11.9445 12.283C12.0782 12.0788 12.2065 11.8693 12.3508 11.6758C13.0459 10.7463 13.5485 10.7463 14.174 11.6866C14.3601 11.9696 14.6062 12.2079 14.8945 12.3844C15.1829 12.5609 15.5064 12.6712 15.8421 12.7075C18.5154 13.3093 19.9696 15.2383 20.9694 17.6079C22.0181 20.0663 22.1547 22.8212 21.3544 25.3722C21.071 26.3286 21.3544 26.7209 22.2793 26.8928C23.8833 27.1937 23.8833 27.2206 23.8512 28.9185C23.8458 31.1646 23.8458 31.1646 21.5682 31.1646H15.7566Z" fill="#372420"/>
<path d="M43.0987 29.4831C40.8853 29.4831 38.6718 29.4831 36.4584 29.4831C35.8061 29.4831 35.5441 29.2789 35.5976 28.6234C35.6271 28.2167 35.6164 27.8081 35.5655 27.4036C35.4318 26.4042 35.5655 25.6949 36.8273 25.652C37.1908 25.652 37.6239 25.1899 37.8966 24.8298C39.6226 22.4159 40.4203 19.4554 40.1421 16.496C40.1299 16.0621 39.9608 15.6475 39.6663 15.33C38.5382 14.4058 38.9178 13.1807 38.859 12.0093C38.8803 11.9087 38.9275 11.8155 38.9961 11.7391C39.0646 11.6627 39.1519 11.6058 39.2493 11.5741C39.9311 11.5284 40.6152 11.5284 41.297 11.5741C41.4467 11.5741 41.6285 11.8266 41.714 12.0039C41.9813 12.5789 43.5372 13.0141 44.0772 12.638C44.1299 12.6064 44.174 12.5621 44.2055 12.509C44.3659 12.1974 44.4835 11.6493 44.692 11.6117C45.3569 11.5243 46.0293 11.5117 46.6969 11.5741C46.7931 11.5984 46.8816 11.6466 46.9545 11.7142C47.0273 11.7817 47.0821 11.8666 47.114 11.9609C47.1567 13.1431 47.408 14.2499 46.4564 15.3998C45.8843 16.0876 45.9805 17.4685 46.05 18.5217C46.2382 20.6455 46.9755 22.683 48.1886 24.4322C48.3594 24.7685 48.6113 25.0564 48.9214 25.2695C49.2315 25.4826 49.5899 25.6141 49.9637 25.652C50.5411 25.6842 50.6908 25.9743 50.6587 26.5117C50.6133 27.1682 50.6133 27.8271 50.6587 28.4836C50.7175 29.2198 50.4609 29.467 49.7124 29.4508C47.4989 29.4078 45.2855 29.4508 43.0667 29.4508L43.0987 29.4831Z" fill="white"/>
<path d="M42.8046 58.09C40.4628 58.09 38.1264 58.0577 35.7846 58.09C34.8703 58.09 34.5816 57.7676 34.7153 56.9132C34.7232 56.876 34.7232 56.8376 34.7153 56.8004C34.4854 55.0917 34.8917 54.0386 36.8913 53.7376C37.7468 53.6087 38.6129 52.5717 39.1796 51.7442C40.2894 50.0307 40.8766 48.0286 40.8691 45.9841C40.8611 45.3373 40.6761 44.7053 40.3345 44.1572C39.324 42.5452 39.4844 40.686 40.8691 39.4878C41.5034 38.9599 42.3036 38.6755 43.1271 38.6853C43.9507 38.6951 44.7439 38.9986 45.3655 39.5415C46.0221 40.1141 46.4295 40.9223 46.5005 41.7931C46.5714 42.6638 46.3003 43.5278 45.7451 44.2001C44.8737 45.3554 45.1784 46.6503 45.3816 47.8056C45.6975 49.2117 46.1954 50.5702 46.8626 51.8463C47.1667 52.4891 47.6304 53.0424 48.2092 53.4528C48.7879 53.8631 49.4621 54.1167 50.1667 54.189C50.7869 54.275 50.9099 54.4953 50.9313 55.0595C51.0542 58.0953 51.0649 58.0953 48.119 58.0953L42.8046 58.09Z" fill="#372420"/>
<path d="M83.1334 157.898C111.409 157.898 134.332 155.531 134.332 152.611C134.332 149.69 111.409 147.323 83.1334 147.323C54.8574 147.323 31.9352 149.69 31.9352 152.611C31.9352 155.531 54.8574 157.898 83.1334 157.898Z" fill="#B7D9F4"/>
<path d="M49.3701 69.1535C52.0808 70.6902 54.5776 72.141 55.4651 72.7267C57.8604 71.8562 62.9502 71.652 66.2063 74.0646C67.2756 80.5877 68.6657 84.1878 66.2063 91.1515C63.533 92.8602 52.9041 91.4578 52.9041 91.4578L53.5671 89.8458L50.0812 89.6416L50.7816 88.4649C46.6541 85.6171 43.4194 82.8713 41.4893 78.0677C36.902 78.0408 35.0735 76.993 33.2878 75.8808C32.0741 75.1446 27.6151 76.3912 27.1232 73.3768C26.6741 70.6257 33.2343 69.8842 33.2343 69.8842L33.4321 69.5833C31.6411 69.1696 28.4171 67.0848 28.0428 66.1928C27.5082 64.914 28.0428 63.0333 29.5613 62.6841C31.0797 62.3348 34.1165 63.7587 35.6456 64.5701L35.7097 64.2746C35.7097 64.2746 32.042 60.4005 33.0953 58.5628C33.8171 57.2947 36.1214 57.3646 37.5383 58.407C39.987 60.2231 44.0236 64.6238 44.0236 64.6238C44.7026 62.5712 45.1945 60.8626 46.1622 60.1909C49.1188 58.1867 51.097 61.2655 51.097 61.2655C50.3271 63.0817 49.461 65.2364 49.3273 67.2245C49.1776 69.3738 49.1883 71.1631 47.1887 72.5171" fill="#9E5429"/>
<path d="M45.6918 62.1306C44.7241 62.7862 44.2322 64.5056 43.5532 66.5582C43.5532 66.5582 39.5433 62.1575 37.1053 60.3682C35.9237 59.5031 34.138 59.2936 33.1542 59.9975C33.0049 59.5322 33.0433 59.0267 33.2611 58.5897C33.9829 57.3216 36.2873 57.3914 37.7041 58.4338C40.1421 60.2231 44.152 64.6238 44.152 64.6238C44.831 62.5712 45.3229 60.8625 46.2906 60.1909C49.2472 58.1867 51.2254 61.2655 51.2254 61.2655C50.9848 61.8029 50.7389 62.4262 50.509 63.0441C50.0492 62.4262 48.2367 60.4058 45.6918 62.1306Z" fill="#C87D36"/>
<path d="M65.7787 76.2249C62.5066 73.8069 57.4274 74.3228 55.0375 75.1932C54.15 74.6076 51.6532 72.8559 48.9425 71.3191L49.5413 69.3794C52.252 70.9161 54.7488 72.3669 55.6363 72.9526C58.0316 72.0821 63.1215 71.878 66.3775 74.2905C67.4414 80.8136 66.7411 82.1301 65.7787 76.2249Z" fill="#C87D36"/>
<path d="M28.9358 70.7598C28.9358 70.8457 28.9678 71.3293 28.9358 71.4207C28.5936 74.9079 33.9936 73.2744 35.8862 74.7091C37.5811 75.9987 39.8961 75.687 44.4781 75.7139C46.4135 80.5176 49.6482 83.2633 53.7757 86.1111L53.1127 87.2825L56.5986 87.492L56.3313 88.2819C56.3313 88.2819 62.3515 89.2491 66.4897 89.0019C66.3132 89.6682 66.4897 90.4473 66.2544 91.1512C63.5812 92.8599 52.9523 91.4575 52.9523 91.4575L53.6153 89.8455L50.1293 89.6413L50.8297 88.4646C46.7022 85.6168 43.4676 82.871 41.5375 78.0674C36.9502 78.0405 35.1217 76.9927 33.3359 75.8805C32.1223 75.1443 27.6633 76.3909 27.1714 73.3765C26.872 71.7699 27.1019 71.238 28.9358 70.7598Z" fill="#713915"/>
<path d="M52.7865 92.2854L51.7172 92.1188L52.3748 90.5498L48.7125 90.3188L49.6588 88.7068C45.6596 85.8858 42.7725 83.1616 40.9226 78.9006C36.4422 78.7878 34.5068 77.6272 32.8494 76.6009C32.3423 76.4645 31.8182 76.403 31.2935 76.4182C29.4811 76.343 26.7383 76.2301 26.2945 73.5166C26.2396 73.1822 26.2545 72.8399 26.3383 72.5115C26.422 72.1831 26.5728 71.8758 26.7811 71.6091C27.6312 70.4808 29.4543 69.8198 30.9246 69.4598C29.2886 68.5894 27.6098 67.3535 27.2676 66.5207C27.0715 66.0263 26.982 65.4958 27.0051 64.9641C27.0281 64.4325 27.1632 63.9118 27.4013 63.4364C27.5932 63.0444 27.87 62.7005 28.2114 62.4299C28.5528 62.1594 28.9501 61.969 29.3741 61.8728C30.4167 61.631 31.9458 62.0501 33.2824 62.5606C32.3735 61.1582 31.6357 59.4226 32.3628 58.1492C32.5673 57.8154 32.8398 57.5289 33.1623 57.3085C33.4848 57.0881 33.8501 56.9388 34.2341 56.8703C34.891 56.7505 35.5652 56.7649 36.2165 56.9126C36.8678 57.0603 37.4828 57.3383 38.0248 57.7301C40.0211 59.3437 41.8958 61.1038 43.6333 62.9958C44.1679 61.3839 44.7026 60.1319 45.6543 59.4764C46.2565 59.0075 46.9813 58.7244 47.7405 58.6614C48.4998 58.5985 49.2609 58.7584 49.9315 59.1217C50.7228 59.5408 51.8883 60.6155 51.8883 61.2334V61.4054L51.8242 61.5666C51.065 63.3505 50.2469 65.4084 50.1186 67.2461V67.6383C50.1186 67.9392 50.0758 68.2455 50.0491 68.5464C52.0327 69.6694 54.4172 71.3458 55.5881 72.082C57.4113 71.4802 62.9716 70.5936 66.7195 73.3662L66.9922 73.5704L67.051 73.9035C67.174 74.688 67.3077 75.451 67.4413 76.2033C68.409 81.7807 69.2431 85.0798 67.0083 91.4095L66.912 91.6889L66.6661 91.8394C65.5968 92.511 63.6186 92.726 61.4586 92.726C58.5623 92.7289 55.6678 92.5818 52.7865 92.2854ZM65.7839 76.5095C65.6716 75.8701 65.5594 75.22 65.4524 74.5537C62.7792 72.8342 58.6089 72.7859 55.7592 73.8229L55.3635 73.968L55.016 73.7316C54.321 73.2748 52.4657 71.8778 49.7444 70.3249C49.4118 71.5198 48.6497 72.548 47.6058 73.2104L46.6968 71.8079C48.2473 70.7709 48.3329 69.4867 48.4612 67.5523V67.1547C48.5949 65.2204 49.3487 63.1893 50.1026 61.3892C49.6863 60.8953 49.1246 60.5472 48.4986 60.3952C48.1621 60.3413 47.8181 60.3573 47.4879 60.4423C47.1578 60.5274 46.8485 60.6796 46.5792 60.8895C45.9323 61.3301 45.4458 62.8078 44.9378 64.366L44.3444 66.252L43.382 65.1774C43.3446 65.1344 39.3989 60.8143 37.0571 59.0949C36.3434 58.5879 35.4607 58.3815 34.5977 58.5199C34.4442 58.5422 34.2968 58.5956 34.1644 58.6769C34.032 58.7581 33.9175 58.8656 33.8278 58.9928C33.3466 59.8364 34.9719 62.2704 36.3246 63.7051L36.6294 64.0275L36.2498 65.8651L35.2607 65.3278C33.3199 64.2532 30.7322 63.2967 29.7591 63.5224C29.5734 63.5649 29.3998 63.6494 29.2516 63.7695C29.1033 63.8897 28.9843 64.0422 28.9036 64.2156C28.7789 64.4724 28.7075 64.752 28.6937 65.0374C28.6799 65.3229 28.724 65.6081 28.8235 65.8759C29.1068 66.4132 31.9512 68.3906 33.6353 68.7774L34.8115 69.0461L33.7422 70.6903L33.3519 70.7333C31.748 70.916 28.9357 71.593 28.1498 72.6408C28.0777 72.7248 28.025 72.8237 27.9954 72.9305C27.9659 73.0373 27.9601 73.1494 27.9787 73.2587C28.1658 74.4247 29.187 74.6611 31.3951 74.7525C32.2016 74.7066 33.0074 74.852 33.7476 75.177C35.4692 76.2247 37.0999 77.2188 41.5214 77.2457H42.0561L42.2699 77.783C44.045 82.1998 46.9107 84.8004 51.2628 87.7987L51.9097 88.2447L51.4499 89.0184L54.7647 89.1957L54.1018 90.8077C57.978 91.345 63.6293 91.4525 65.5273 90.5874C67.4894 84.7951 66.6982 81.7699 65.7839 76.5095Z" fill="#372420"/>
<path d="M34.6673 72.1731C34.6673 69.8518 36.8059 65.924 38.5809 64.3335L37.4528 63.0869C35.4104 64.9461 33.0205 69.3145 32.9991 72.1569L34.6673 72.1731Z" fill="#372420"/>
<path d="M42.5766 71.5126C43.7172 69.5119 43.3645 67.1545 41.7888 66.2473C40.2131 65.34 38.0112 66.2264 36.8706 68.227C35.73 70.2277 36.0828 72.5851 37.6584 73.4924C39.2341 74.3997 41.4361 73.5133 42.5766 71.5126Z" fill="#C87D36"/>
<path d="M77.6212 107.105L76.4396 110.028C67.8103 118.905 68.083 131.032 68.083 131.032L69.6175 129.855L70.0398 133.869L71.9699 132.537L74.4293 140.521C67.7141 141.44 61.4961 143.675 61.4961 150.29C65.5006 152.923 73.761 153.014 88.2661 150.29C87.8927 146.036 87.239 141.813 86.3093 137.646C86.6942 133.208 91.6184 121.086 91.6184 121.086L77.6212 107.105Z" fill="#9E592A"/>
<path d="M69.6066 129.855L70.0611 132.295C70.0611 132.295 69.8045 120.167 78.4337 111.291L79.4175 108.862L77.6211 107.105L76.4448 110.028C67.8102 118.905 68.0829 131.032 68.0829 131.032L69.6066 129.855Z" fill="#C87D36"/>
<path d="M91.6076 121.086L77.6211 107.115L76.5893 109.673L88.1057 121.236C88.1057 121.236 83.1815 133.358 82.7966 137.796C83.7274 141.966 84.3811 146.193 84.7534 150.45C80.2949 151.335 75.7891 151.959 71.2588 152.32C75.5948 152.32 81.1766 151.643 88.2554 150.316C87.8819 146.063 87.2282 141.839 86.2985 137.673C86.6835 133.208 91.6076 121.086 91.6076 121.086Z" fill="#713915"/>
<path d="M76.2364 142.299L74.9799 140.688C68.5053 141.639 61.3463 143.041 62.02 150.773C62.5324 151.065 63.0691 151.311 63.6239 151.509C63.5919 144.54 70.0237 143.213 76.2364 142.299Z" fill="#C87D36"/>
<path d="M71.0395 153.137C66.4682 153.137 63.2229 152.422 61.0415 150.988L60.6726 150.746V150.305C60.6726 143.1 67.4199 140.784 73.3171 139.876L71.5528 133.793L69.3607 135.309L68.9544 131.37L67.2969 132.644L67.2595 131.032C67.2595 130.537 67.0938 118.555 75.7498 109.539L77.3217 105.643L92.5646 120.898L92.3614 121.435C92.3133 121.553 87.5495 133.256 87.1165 137.625C88.0347 141.785 88.6848 146.001 89.0626 150.246L89.1375 150.988L88.405 151.128C81.1979 152.444 75.4878 153.137 71.0395 153.137ZM62.3033 149.854C66.2544 152.122 74.2635 152.052 87.3731 149.639C86.9994 145.678 86.378 141.744 85.5125 137.861L85.4804 137.732V137.592C85.828 133.557 89.6881 123.692 90.6452 121.306L77.9205 108.539L77.1345 110.49L77.0223 110.603C70.6385 117.174 69.2591 125.809 68.9597 129.334L70.2643 128.329L70.692 132.429L72.3601 131.268L75.5145 141.192L74.5201 141.327C66.0245 142.493 62.5385 145.228 62.3033 149.838V149.854Z" fill="#372420"/>
<path d="M62.6508 151.525C62.2712 148.721 63.9233 146.749 64.9071 145.566L65.0407 145.4L66.2704 146.426L66.1261 146.598C65.2599 147.635 63.9501 149.21 64.2334 151.31L62.6508 151.525Z" fill="#372420"/>
<path d="M67.9492 152.546L66.3452 152.369C66.6607 149.548 67.7139 147.415 69.4783 146.034L70.4567 147.302C69.0612 148.403 68.2111 150.171 67.9492 152.546Z" fill="#372420"/>
<path d="M93.3825 106.928L94.4197 111.13C88.9609 120.033 91.276 128.544 91.7465 131.655L92.7623 130.898L94.1096 134.584L95.3447 133.509L99.8144 141.569C93.3451 142.515 86.1326 143.767 86.8063 151.504C91.5112 154.223 103.215 154.314 116.998 151.504C116.548 146.65 115.001 141.964 112.475 137.802C110.711 130.226 115.047 126.879 116.383 121.366C117.682 115.992 114.924 109.48 112.176 108.067L93.3825 106.928Z" fill="#9E592A"/>
<path d="M101.467 143.186L96.9969 135.126L96.4622 135.572L99.7824 141.564C93.3131 142.509 86.1007 143.761 86.7743 151.499C87.2878 151.788 87.8243 152.034 88.3783 152.235C88.3676 145.293 95.2539 144.1 101.467 143.186Z" fill="#C87D36"/>
<path d="M112.245 138.092C110.486 130.516 114.822 127.168 116.159 121.655C117.458 116.282 114.694 109.77 111.951 108.356L93.1687 107.207L93.2115 107.373L108.593 108.319C111.336 109.727 114.1 116.244 112.801 121.612C111.464 127.131 107.128 130.473 108.887 138.054C111.413 142.215 112.962 146.899 113.416 151.751C107.712 152.961 101.91 153.653 96.0825 153.819C101.686 154.056 108.887 153.4 116.774 151.794C116.32 146.94 114.771 142.254 112.245 138.092Z" fill="#713915"/>
<path d="M98.6597 154.373C93.217 154.373 88.8916 153.648 86.3895 152.224L86.0152 152.009L85.9778 151.579C85.2667 143.423 92.5647 141.838 98.51 140.929L95.1096 134.793L93.7463 135.943L92.3669 132.182L91.1318 133.106L90.9286 131.736C90.8859 131.413 90.8164 131.032 90.7362 130.597C90.0839 126.938 88.7259 119.071 93.5538 110.958L92.3294 105.998L112.4 107.229L112.55 107.304C115.758 108.953 118.522 116.003 117.18 121.532C116.69 123.329 116.003 125.067 115.132 126.712C113.619 129.818 112.192 132.757 113.24 137.458C115.805 141.704 117.372 146.482 117.822 151.429L117.875 152.154L117.164 152.299C111.078 153.595 104.88 154.29 98.6597 154.373ZM87.5871 150.988C92.3508 153.406 103.386 153.347 116.1 150.832C115.563 146.378 114.088 142.091 111.775 138.254L111.695 138.13L111.662 137.985C110.417 132.639 112.058 129.27 113.646 126.008C114.465 124.472 115.112 122.851 115.576 121.172C116.795 116.143 114.245 110.243 111.935 108.883L94.452 107.809L95.3021 111.258L95.1203 111.554C90.4742 119.136 91.6344 126.373 92.3187 130.178L93.1421 129.565L94.4627 133.165L95.532 132.209L101.076 142.214L99.9001 142.386C92.7625 143.417 87.2877 144.728 87.5871 150.988Z" fill="#372420"/>
<path d="M88.3997 152.6C87.8971 149.784 89.469 147.791 90.4046 146.603L90.5383 146.437L91.7894 147.431L91.6557 147.603C90.8377 148.64 89.5973 150.214 89.9716 152.32L88.3997 152.6Z" fill="#372420"/>
<path d="M93.9655 153.513L92.3616 153.406C92.554 150.563 93.5218 148.414 95.238 147.022L96.2431 148.269C94.8958 149.376 94.1259 151.133 93.9655 153.513Z" fill="#372420"/>
<path d="M72.4244 17.9626C76.951 17.9626 80.6206 14.2747 80.6206 9.72546C80.6206 5.17619 76.951 1.48828 72.4244 1.48828C67.8977 1.48828 64.2281 5.17619 64.2281 9.72546C64.2281 14.2747 67.8977 17.9626 72.4244 17.9626Z" fill="#9E5429"/>
<path d="M64.72 10.9075C64.918 8.99499 65.8079 7.22216 67.2209 5.9257C68.6338 4.62924 70.4713 3.89945 72.3844 3.87492C74.2975 3.85038 76.153 4.53283 77.5984 5.79264C79.0438 7.05245 79.9784 8.80188 80.2249 10.7087C80.4078 8.63733 79.7645 6.5778 78.4365 4.98315C77.1084 3.3885 75.2045 2.38936 73.1434 2.20552C71.0824 2.02169 69.0331 2.66822 67.4464 4.00289C65.8597 5.33756 64.8655 7.25104 64.6826 9.32238C64.6181 9.95187 64.6289 10.5868 64.7146 11.2138C64.7093 11.1117 64.7093 11.0096 64.72 10.9075Z" fill="#C87D36"/>
<path d="M73.3064 1.53676C71.5214 1.34265 69.7226 1.7469 68.1898 2.68663C69.7878 2.99433 71.2756 3.72384 72.5004 4.80028C73.7252 5.87671 74.643 7.26131 75.1595 8.81195C75.676 10.3626 75.7726 12.0234 75.4394 13.624C75.1063 15.2246 74.3553 16.7072 73.2637 17.9198C75.2813 17.7172 77.1524 16.7697 78.515 15.2606C79.8776 13.7515 80.6349 11.7881 80.6402 9.75035C80.6455 7.71256 79.8985 5.74521 78.5438 4.22897C77.1891 2.71272 75.323 1.75536 73.3064 1.54213V1.53676Z" fill="#713915"/>
<path d="M72.7076 18.7576C72.2881 18.7736 71.8681 18.7574 71.4511 18.7092C69.1342 18.4562 67.0055 17.309 65.5136 15.5095C64.0218 13.71 63.2834 11.3987 63.4539 9.06278C63.6245 6.72683 64.6908 4.54866 66.4281 2.98735C68.1654 1.42603 70.4379 0.603514 72.7668 0.693151C75.0957 0.782788 77.299 1.77757 78.9124 3.46786C80.5257 5.15814 81.4231 7.41189 81.4155 9.75411C81.4078 12.0963 80.4956 14.3441 78.8712 16.0236C77.2468 17.7032 75.037 18.6834 72.7076 18.7576ZM72.1729 2.28859C70.754 2.33304 69.3778 2.78672 68.2084 3.59553C67.039 4.40434 66.1258 5.53414 65.5777 6.85016C65.0296 8.16618 64.8697 9.61288 65.1171 11.0177C65.3646 12.4225 66.0088 13.7262 66.9731 14.7732C67.9374 15.8201 69.1811 16.5662 70.5556 16.9225C71.9302 17.2788 73.3778 17.2301 74.7256 16.7824C76.0735 16.3347 77.2647 15.5068 78.1573 14.3974C79.0499 13.288 79.6061 11.9441 79.7596 10.5258C79.9712 8.5682 79.4017 6.6062 78.1759 5.07008C76.9501 3.53396 75.1681 2.54912 73.2208 2.33158C72.8783 2.29339 72.5335 2.27903 72.189 2.28859H72.1729Z" fill="#372420"/>
<path d="M110.802 48.3596C108.791 47.0646 108.893 43.8729 108.914 41.4764L109.449 32.5784C109.759 29.7578 109.51 26.9034 108.716 24.18C110.241 23.8591 111.658 23.1514 112.833 22.1243C114.007 21.0972 114.901 19.7849 115.428 18.3124C115.956 16.8399 116.099 15.2562 115.845 13.7122C115.591 12.1682 114.948 10.7153 113.977 9.49186C113.006 8.26841 111.739 7.31518 110.298 6.72295C108.857 6.13073 107.288 5.91924 105.743 6.10862C104.197 6.298 102.725 6.88195 101.467 7.80485C100.21 8.72775 99.2082 9.95887 98.5581 11.3809C97.4959 10.7871 96.3851 10.2855 95.2379 9.8818C95.0561 7.65191 92.8855 5.20171 92.8855 5.20171L91.6665 8.96298L91.4579 8.92537C90.2443 6.09367 88.7847 3.07391 86.475 1.40283L85.4912 8.72656C84.497 6.89005 83.0867 5.31443 81.3744 4.12706L81.3209 9.67225C77.332 10.8729 73.7998 13.2624 71.1916 16.5246C68.5834 19.7868 67.0221 23.7679 66.7143 27.9413L63.8539 53.1525L68.7246 56.9138L67.2757 58.5687L70.1788 59.3371L67.2863 62.4482C75.6162 65.3121 83.0051 68.52 88.3783 72.4639C95.3288 63.9635 97.97 61.035 108.134 57.6768L111.956 51.8575L108.813 51.0193L110.802 48.3596Z" fill="#9E5429"/>
<path d="M90.0036 69.5777C84.7105 65.6875 77.4446 62.5172 69.2591 59.6802L67.2809 61.8295C75.6054 64.6934 82.9996 67.9012 88.3675 71.8452L90.0036 69.5777Z" fill="#713915"/>
<path d="M82.2404 11.3484L82.0854 9.58594C74.2634 12.0254 67.4894 18.9461 66.7462 28.0484L66.5323 29.9075C67.0404 30.0786 67.5295 30.3019 67.9919 30.5738L68.131 29.3541C68.8741 20.2572 74.4238 13.7878 82.2404 11.3484Z" fill="#C87D36"/>
<path d="M107.818 6.44766C105.871 6.2405 103.915 6.74818 102.312 7.87699C100.708 9.0058 99.5646 10.6795 99.0928 12.5893L99.5953 12.8794C100.309 11.2524 101.532 9.90441 103.078 9.04091C104.625 8.17741 106.41 7.84577 108.161 8.09654C109.913 8.3473 111.535 9.16671 112.78 10.4299C114.025 11.693 114.825 13.3307 115.057 15.0932C115.195 12.9916 114.518 10.9181 113.169 9.30659C111.819 7.69512 109.902 6.67067 107.818 6.44766Z" fill="#C87D36"/>
<path d="M110.384 48.3594C108.38 47.0698 108.476 43.8728 108.497 41.4817L109.032 32.5836C109.339 29.7605 109.086 26.9042 108.289 24.1798C109.582 23.9075 110.801 23.3557 111.862 22.5627C112.922 21.7697 113.798 20.7545 114.429 19.5874C115.06 18.4203 115.431 17.1292 115.516 15.8037C115.602 14.4782 115.399 13.1499 114.923 11.9109C114.446 10.6719 113.707 9.55184 112.757 8.62833C111.807 7.70483 110.669 6.99997 109.421 6.56262C108.173 6.12526 106.845 5.96587 105.53 6.09548C104.215 6.2251 102.943 6.64062 101.803 7.31325C102.583 7.29652 103.361 7.38324 104.118 7.57117C106.079 8.07185 107.814 9.22334 109.042 10.839C110.269 12.4546 110.918 14.4396 110.883 16.4723C110.848 18.5049 110.13 20.466 108.847 22.0377C107.564 23.6093 105.79 24.6993 103.814 25.1309C104.594 27.8109 104.839 30.6194 104.535 33.395L104.001 42.1641C104.001 44.5229 103.851 47.677 105.813 48.9451L103.22 53.0986L106.85 53.824L105.156 56.1775C95.9542 59.2295 92.8051 63.7914 86.3466 71.2602C86.9014 71.6296 87.4368 72.0277 87.9505 72.453C94.901 63.9472 97.5422 61.0188 107.706 57.6659L111.529 51.8413L108.396 51.046L110.384 48.3594Z" fill="#713915"/>
<path d="M89.5866 9.54289L90.7308 9.68797L91.2654 9.60737C90.1961 7.35599 88.4799 3.69681 86.6407 2.39111L86.384 4.29861C87.7496 5.84418 88.8337 7.61939 89.5866 9.54289Z" fill="#713915"/>
<path d="M93.5056 10.2091C94.4733 10.4187 95.564 10.6873 95.564 10.6873C95.3822 8.45745 93.0458 6.18457 93.0458 6.18457L92.709 7.69982C93.2211 8.43598 93.4988 9.31095 93.5056 10.2091Z" fill="#713915"/>
<path d="M83.652 9.96727L85.4431 9.54816C84.6893 8.65083 82.5934 5.88361 81.5402 5.11523V7.10871C82.4109 7.92487 83.1265 8.89352 83.652 9.96727Z" fill="#713915"/>
<path d="M102.782 15.582L101.231 15.3886C101.408 13.7766 102.258 11.6273 104.118 10.5151C105.188 9.85953 107.038 9.29534 109.695 10.3431L109.139 11.8208C106.792 12.1163 104.691 13.4327 102.782 15.582Z" fill="#372420"/>
<path d="M111.962 48.1603L111.229 47.6929C109.443 46.543 109.689 43.6307 109.711 41.4922L110.245 32.6371C110.534 30.0003 110.353 27.3328 109.711 24.7599C111.778 24.1306 113.584 22.8401 114.854 21.0846C115.656 19.9898 116.227 18.7416 116.531 17.4169C116.835 16.0921 116.865 14.7189 116.621 13.3817C116.377 12.0445 115.864 10.7717 115.112 9.64152C114.36 8.51138 113.386 7.54785 112.25 6.81027C111.113 6.07269 109.839 5.57665 108.504 5.35271C107.17 5.12876 105.804 5.18164 104.491 5.5081C103.178 5.83455 101.945 6.42767 100.869 7.25094C99.7924 8.0742 98.895 9.11019 98.2318 10.2951C97.4975 9.91755 96.7424 9.58208 95.9703 9.29033C95.5532 7.06044 93.7408 4.95413 93.4895 4.67472L92.5645 3.63231L91.4952 6.98521C90.3457 4.51889 88.9717 2.19228 86.9561 0.763L85.8867 0L84.9778 6.49087C84.074 5.34918 83.0158 4.34 81.8341 3.49261L80.5777 2.57915L80.5295 9.0754C77.9987 9.92874 75.6435 11.2379 73.5791 12.9388C71.3766 14.7779 69.5655 17.0443 68.2537 19.6024C66.942 22.1605 66.1565 24.9581 65.9442 27.828L63.0304 53.4906L67.5803 57.0154L65.8427 59.0035L68.7084 59.7558L65.8854 62.7917L67.051 63.1947C76.5303 66.4616 83.1654 69.6049 87.9291 73.1029L88.5386 73.5489L89.0145 72.9632C96.4675 63.8287 99.0766 61.5075 108.406 58.4555L108.781 58.3265L113.058 51.164L110.32 50.3472L111.962 48.1603ZM110.08 52.4213L106.722 56.908C97.4566 60.0513 95.6602 62.4585 88.2339 71.3674C83.5984 68.0951 77.3484 65.1237 68.703 62.0824L71.6757 58.8907L68.7244 58.1116L69.8846 56.7898L64.6985 52.7706L67.5108 27.9838C67.708 25.3224 68.4364 22.7281 69.6526 20.3556C70.8688 17.9832 72.5478 15.881 74.5896 14.1746C76.7648 12.3887 79.2814 11.0702 81.9838 10.3005L82.1281 10.2575V8.59718V5.8031C82.9114 6.49769 83.6047 7.28837 84.1919 8.15658C84.3951 8.46822 84.5822 8.79062 84.7266 9.10764L85.0046 9.64496C85.3788 9.59123 85.7531 9.54825 86.1327 9.52138L86.3519 7.90941L87.0149 2.98215C88.3141 4.45468 89.357 6.13679 90.0998 7.95777C90.3457 8.49509 90.5703 9.03241 90.8002 9.53213L90.8483 9.65034C91.2867 9.70944 91.7251 9.78467 92.1582 9.87601L92.6554 8.33927L93.1152 6.90461C93.536 7.43905 93.8615 8.04258 94.0776 8.68853C94.2387 9.2622 94.3408 9.85097 94.3824 10.4456C94.6996 10.553 95.015 10.6659 95.3287 10.7841C96.2887 11.146 97.2198 11.5806 98.1142 12.0844L98.8681 12.5089L99.2316 11.7244C99.825 10.4278 100.739 9.30534 101.886 8.46402C103.033 7.62271 104.375 7.09051 105.785 6.91811C107.195 6.74571 108.625 6.93885 109.939 7.47912C111.254 8.0194 112.409 8.88883 113.294 10.0046C114.179 11.1204 114.766 12.4455 114.998 13.8535C115.229 15.2616 115.098 16.7058 114.618 18.0487C114.137 19.3916 113.322 20.5884 112.251 21.5252C111.179 22.462 109.887 23.1076 108.497 23.4005L107.658 23.5778L107.898 24.4106C108.664 27.0345 108.904 29.785 108.604 32.5027L108.069 41.4814C108.069 43.8779 107.807 47.0588 109.631 48.5365L107.273 51.6691L110.08 52.4213Z" fill="#372420"/>
<path d="M91.3365 28.0703C91.5612 26.0083 90.299 24.1778 88.5173 23.9817C86.7356 23.7856 85.1091 25.2982 84.8844 27.3602C84.6597 29.4222 85.9219 31.2527 87.7036 31.4488C89.4853 31.6449 91.1118 30.1323 91.3365 28.0703Z" fill="white"/>
<path d="M88.9022 24.0505C90.4741 24.4481 91.538 26.1622 91.3349 28.0697C91.1103 30.133 89.4796 31.6482 87.6992 31.4494C87.5677 31.4349 87.4374 31.4116 87.309 31.3796C85.7371 30.9766 84.6678 29.2679 84.8763 27.3604C85.1008 25.2971 86.7315 23.7818 88.5119 23.9806C88.6437 23.993 88.7743 24.0164 88.9022 24.0505ZM89.1856 22.9382C89.0093 22.8957 88.8308 22.8635 88.6509 22.8415C86.2503 22.5782 84.0529 24.5448 83.7589 27.2368C83.4969 29.687 84.903 31.9438 87.0416 32.4865C87.2172 32.5332 87.3959 32.5673 87.5763 32.5886C89.9769 32.8519 92.1743 30.8799 92.463 28.1933C92.7303 25.7431 91.3188 23.4863 89.1856 22.9382Z" fill="#372420"/>
<path d="M88.828 27.9505C88.9858 26.5021 88.1667 25.2237 86.9985 25.0951C85.8303 24.9665 84.7553 26.0364 84.5974 27.4848C84.4396 28.9333 85.2587 30.2117 86.4269 30.3402C87.5951 30.4688 88.6701 29.3989 88.828 27.9505Z" fill="#372420"/>
<path d="M88.3462 27.4844C88.671 27.4844 88.9343 27.2197 88.9343 26.8933C88.9343 26.5669 88.671 26.3022 88.3462 26.3022C88.0214 26.3022 87.7581 26.5669 87.7581 26.8933C87.7581 27.2197 88.0214 27.4844 88.3462 27.4844Z" fill="white"/>
<path d="M77.4655 27.2473C77.6899 25.1883 76.4298 23.3604 74.6511 23.1646C72.8723 22.9689 71.2485 24.4793 71.0241 26.5384C70.7997 28.5974 72.0598 30.4253 73.8385 30.6211C75.6173 30.8169 77.2412 29.3064 77.4655 27.2473Z" fill="white"/>
<path d="M75.0334 23.2337C76.6053 23.6313 77.6692 25.34 77.4607 27.2475C77.2362 29.3055 75.6108 30.8154 73.8304 30.6219C73.699 30.6069 73.5686 30.5836 73.4401 30.5521C71.8683 30.1491 70.8096 28.4458 71.0128 26.5383C71.2374 24.4803 72.8627 22.9651 74.6431 23.1639C74.7745 23.1789 74.9049 23.2022 75.0334 23.2337ZM75.3168 22.1268C75.1412 22.0801 74.9625 22.046 74.7821 22.0247C74.1838 21.9637 73.5795 22.034 73.0109 22.2307C72.4422 22.4273 71.9229 22.7457 71.4887 23.1639C70.5849 24.0091 70.0153 25.154 69.8847 26.3878C69.6174 28.8326 71.0235 31.0894 73.1621 31.6321C73.3376 31.6791 73.5163 31.7132 73.6968 31.7342C76.0974 31.9975 78.2894 30.0309 78.5835 27.3443C78.8455 24.8994 77.4393 22.6427 75.3061 22.1L75.3168 22.1268Z" fill="#372420"/>
<path d="M75.2479 26.5584C75.4054 25.1129 74.5861 23.8369 73.4179 23.7083C72.2496 23.5797 71.1749 24.6473 71.0174 26.0927C70.8599 27.5382 71.6792 28.8142 72.8474 28.9428C74.0157 29.0714 75.0904 28.0038 75.2479 26.5584Z" fill="#372420"/>
<path d="M74.8035 26.3291C75.1283 26.3291 75.3916 26.0645 75.3916 25.738C75.3916 25.4116 75.1283 25.147 74.8035 25.147C74.4786 25.147 74.2153 25.4116 74.2153 25.738C74.2153 26.0645 74.4786 26.3291 74.8035 26.3291Z" fill="white"/>
<path d="M75.3862 56.5643C76.2431 57.462 77.2905 58.1539 78.4505 58.5884C79.6104 59.0228 80.8529 59.1887 82.0854 59.0736C90.0517 58.6652 92.1422 52.1475 93.9867 51.6908H94.1364C97.4085 50.7827 101.408 47.9295 101.664 43.0076C101.878 38.8326 99.7984 34.8833 96.2804 33.6259C91.8321 31.7775 89.3299 35.2701 80.567 33.0886C73.5844 31.3262 66.3773 28.3763 64.0462 28.2204C56.652 27.4037 50.6211 31.5787 50.4394 39.6708C50.3752 42.3574 50.851 45.2644 52.1877 47.376C52.4616 46.8552 52.8234 46.3862 53.257 45.9897C54.7487 51.363 58.4271 53.5875 62.5492 54.0496L75.3862 56.5643Z" fill="#E9BC6E"/>
<path d="M96.1949 33.5668C94.4947 32.6157 92.4203 33.2068 90.4795 33.5668C98.1785 35.5656 99.1462 45.2482 92.3347 52.04C92.8398 51.8343 93.3705 51.6988 93.912 51.637H94.0617C97.3337 50.7235 101.328 47.8757 101.579 42.9485C101.798 38.7681 98.9056 34.6952 96.1949 33.5668Z" fill="#C87D36"/>
<path d="M65.6769 53.496C63.0732 52.9587 61.1324 52.6578 58.7692 50.9168C57.5543 50.0101 56.5405 48.8591 55.7921 47.5372C55.0438 46.2153 54.5774 44.7514 54.4225 43.2385C51.8883 43.8349 50.7976 37.7417 51.1825 35.4097C50.7134 36.7819 50.4626 38.2199 50.4394 39.6706C50.3752 42.3573 50.851 45.2642 52.1877 47.3759C52.4616 46.855 52.8234 46.386 53.257 45.9896C54.7487 51.3628 58.4271 53.5873 62.5492 54.0494L74.6484 56.419L74.6805 56.3331C74.2474 55.9945 68.0829 54.0011 65.6769 53.496Z" fill="#C87D36"/>
<g style="mix-blend-mode:multiply">
<path d="M65.6556 45.0704C68.9169 43.9367 71.2587 41.1695 70.97 36.8816C70.9123 35.7897 70.5932 34.728 70.0397 33.7866C69.9221 36.7097 67.9546 39.8745 65.8694 41.7283C64.1692 43.2435 61.6457 44.0334 59.1863 44.157C59.2504 44.3289 59.3253 44.4847 59.4001 44.6406C60.6993 45.2209 62.0734 45.8173 65.6556 45.0704Z" fill="#D79E49"/>
</g>
<path d="M81.8769 59.8847C80.6148 59.9655 79.3499 59.7775 78.165 59.3331C76.9802 58.8886 75.9021 58.1977 75.0013 57.3055L62.4423 54.8339C57.839 54.2965 54.5883 51.841 52.963 47.6283C52.963 47.6767 52.9095 47.7251 52.8774 47.7734L52.2198 48.9233L51.5087 47.8218C50.2255 45.8014 49.5626 42.9053 49.6374 39.6706C49.723 35.7857 51.1024 32.5618 53.6206 30.3426C56.2618 28.0106 59.9936 26.979 64.1265 27.4303C65.3936 27.5109 67.9065 28.3384 71.077 29.3916C74.0389 30.3641 77.3912 31.471 80.7488 32.32C83.9186 33.1843 87.2459 33.2892 90.4634 32.6263C92.5379 32.2824 94.3289 31.9868 96.5691 32.9164C100.253 34.2329 102.686 38.4186 102.45 43.0826C102.172 48.4558 97.9058 51.5024 94.3396 52.4965C94.3396 52.4965 94.1418 52.5664 93.9868 52.6362C93.503 53.0387 93.0622 53.4907 92.6715 53.9849C90.9232 56.0805 87.9987 59.5892 82.1175 59.8955L81.8769 59.8847ZM53.7168 44.6355L54.0323 45.7746C55.2727 50.2397 58.1705 52.7598 62.6455 53.2434H62.715L75.7712 55.8118L75.9369 55.9784C76.7205 56.7944 77.6764 57.4232 78.7341 57.8185C79.7918 58.2137 80.9243 58.3653 82.048 58.262C87.2341 57.9987 89.7791 54.9467 91.4632 52.9264C92.3454 51.8517 92.8373 51.3144 93.6713 51.0242L94.067 50.8845C97.0931 49.9926 100.638 47.408 100.868 42.9697C101.071 39.0097 99.0767 35.4795 96.0131 34.3726C94.1525 33.5988 92.725 33.8352 90.7414 34.163C87.31 34.865 83.7634 34.7583 80.3799 33.8514C76.9688 32.9916 73.5898 31.874 70.6011 30.8907C67.6124 29.9074 65.0942 29.0799 63.9928 29.0154C60.277 28.6071 56.9782 29.5044 54.6738 31.5355C52.5032 33.4484 51.3162 36.2693 51.236 39.6974C51.1466 41.8035 51.5114 43.9041 52.3053 45.8552C52.4549 45.6729 52.6234 45.5072 52.8079 45.3608L53.7168 44.6355Z" fill="#372420"/>
<path d="M70.4087 35.7212C70.3017 39.9338 66.3667 44.947 60.7101 44.8879C56.5986 44.8449 53.102 40.0842 53.2249 36.4734C53.3319 32.2608 56.5344 29.6333 61.1324 29.6333C65.7304 29.6333 70.5209 31.5086 70.4087 35.7212Z" fill="#372420"/>
<path d="M78.6798 52.3942C76.8528 52.4134 75.0481 51.9895 73.4188 51.1584L74.0658 49.815C77.4822 51.4754 80.7329 51.2228 82.9891 49.1219C84.9994 47.2466 85.8067 44.2108 84.9031 41.8949L85.9724 40.9976C87.0417 41.6692 88.8114 42.6095 88.8328 42.6095L88.1378 43.926C88.095 43.8991 87.4481 43.5552 86.6996 43.1361C86.8115 44.4428 86.6244 45.7579 86.1527 46.9807C85.681 48.2035 84.9372 49.3017 83.9782 50.1912C82.5425 51.5566 80.6557 52.3412 78.6798 52.3942Z" fill="#372420"/>
<path d="M84.6571 22.0303L83.005 20.5258C84.0237 19.4022 85.3437 18.598 86.8062 18.2101C88.2687 17.8222 89.8115 17.8669 91.2493 18.3389L90.5382 20.4184C89.5075 20.0899 88.4044 20.0673 87.3613 20.3532C86.3181 20.6391 85.3791 21.2214 84.6571 22.0303Z" fill="#372420"/>
<path d="M77.049 21.654C76.6228 20.7512 75.9469 19.9908 75.1021 19.4638C74.2573 18.9369 73.2794 18.6657 72.2852 18.6826L72.2424 16.6193C73.6333 16.5948 75.0016 16.9742 76.1833 17.7118C77.3649 18.4495 78.3097 19.5142 78.9042 20.7782L77.049 21.654Z" fill="#372420"/>
<path d="M61.7474 31.2237C61.1365 31.1592 60.5216 31.143 59.9082 31.1754C56.5452 31.3419 54.2944 33.373 54.3585 36.4626C54.3701 36.811 54.4203 37.1571 54.5082 37.4943C55.0856 34.0393 57.8231 31.7288 61.7474 31.2237Z" fill="white"/>
<path d="M89.5172 120.167C89.2337 122.815 89.1676 125.482 89.3194 128.141C96.4997 128.399 108.567 130.167 114.838 129.866C115.79 125.75 119.966 115.277 113.336 106.223L74.1085 105.611L73.9855 107.223C71.3658 112.628 69.318 118.464 68.5856 122.091C72.8254 124.525 85.9671 126.792 88.9932 127.432C88.9336 124.991 89.0623 122.55 89.3782 120.129L89.5172 120.167Z" fill="#D22514"/>
<path d="M70.6921 122.655C71.4246 119.028 73.4723 113.192 76.0921 107.787L76.2151 106.175L113.71 106.766C113.587 106.589 113.47 106.406 113.336 106.229L74.1085 105.616L73.9855 107.228C71.3658 112.634 69.318 118.469 68.5856 122.096C70.1895 123.026 73.1034 123.928 76.2525 124.723C74.3296 124.239 72.4651 123.546 70.6921 122.655Z" fill="#E77F6E"/>
<path d="M113.336 106.234L109.994 106.181C115.875 115.03 111.887 125.051 110.962 129.055L114.838 129.866C115.79 125.734 119.944 115.278 113.336 106.234Z" fill="#A8210C"/>
<path d="M88.282 126.69L84.9672 126.4C85.8654 123.665 86.7262 121.328 87.603 118.969L88.8273 119.243L88.282 126.69Z" fill="#A8210C"/>
<path d="M113.282 130.704C109.588 130.704 104.589 130.226 99.729 129.764C95.8528 129.393 92.1905 129.044 89.2873 128.942L88.5548 128.915L88.5227 128.173L86.8493 127.84C82 126.9 71.9058 124.939 68.1899 122.8L67.6874 122.515L67.7997 121.946C68.5375 118.308 70.6012 112.414 73.1996 107.024L73.3707 104.821L113.748 105.455L113.983 105.778C119.992 113.977 117.458 123.359 116.121 128.238C115.924 128.947 115.753 129.554 115.635 130.065L115.501 130.656L114.897 130.688C114.378 130.693 113.844 130.704 113.282 130.704ZM89.6295 127.346C92.4417 127.48 96.3019 127.803 99.8787 128.147C105.129 128.646 110.572 129.162 114.207 129.065C114.309 128.673 114.432 128.243 114.56 127.77C115.918 122.897 118.18 114.493 112.924 107.008L74.8464 106.412L74.7715 107.411L74.702 107.551C72.4913 112.058 70.7446 116.781 69.4892 121.645C73.3547 123.547 83.0533 125.508 87.6031 126.395C87.6954 124.255 87.9096 122.122 88.2447 120.006L88.3623 119.103L89.9396 119.318L89.854 120.248C89.5949 122.604 89.5198 124.978 89.6295 127.346Z" fill="#372420"/>
<path d="M115.667 55.1723C117.699 58.998 115.667 102.763 115.287 108.126C101.611 110.393 86.491 109.146 72.697 107.857C72.5901 104.633 71.3871 97.3307 70.2109 91.0978C69.3127 91.3772 65.8107 91.3288 63.3246 91.4739C61.0416 84.58 60.5658 76.7835 59.2078 71.9959C61.9773 69.723 65.9925 67.5254 69.564 67.3051L87.0845 72.3881L111.096 54.1514L115.667 55.1723Z" fill="#F4F6F8"/>
<path d="M62.3676 87.6265L69.7564 86.1973L70.3659 89.8726L69.4036 90.6356L63.501 91.549L62.3676 87.6265Z" fill="#D0D0D0"/>
<path d="M111.924 93.1662C111.748 97.7603 111.716 102.36 111.705 105.159C112.908 105.02 114.106 104.858 115.287 104.66C115.287 102.564 115.287 98.6523 115.533 92.7417C114.325 92.9029 113.127 93.0372 111.924 93.1662Z" fill="#CDCFD0"/>
<path d="M71.6543 96.7182C72.499 101.42 73.0497 104.843 73.1299 107.282C86.9186 108.572 101.622 109.926 115.298 107.653C115.298 105.557 115.298 101.64 115.544 95.7349C99.0605 97.868 85.2612 96.9224 71.6543 96.7182Z" fill="#2A2C73"/>
<path d="M111.924 96.1325C111.748 100.727 111.716 105.326 111.705 108.126C112.908 107.98 114.106 107.825 115.287 107.626C115.287 105.53 115.287 101.613 115.533 95.708C114.325 95.8692 113.127 96.0035 111.924 96.1325Z" fill="#22225C"/>
<path d="M59.2665 72.2913C59.9027 73.1457 60.3999 73.7045 60.3999 73.7045C64.0088 70.7385 67.8476 70.0883 70.8363 68.5032L69.4142 66.6279C66.2811 68.6053 62.7364 68.7235 59.2665 72.2913Z" fill="white"/>
<path d="M98.3336 110.184C90.0197 110.184 81.4012 109.475 72.6382 108.658L71.9378 108.593V107.884C71.8362 104.837 70.7188 98.0027 69.6067 92.0062C69.163 92.0062 64.5383 92.7531 63.4101 92.8175L62.8006 92.8551L62.6082 92.2695C61.5068 85.8538 60.6888 80.1797 59.4751 75.8005C59.1169 74.5109 58.0155 71.3676 58.0155 71.3676C58.0155 71.3676 65.6664 66.7466 69.5533 66.5316H69.6869L69.8206 66.5746L86.9615 71.5449L110.946 53.3242L116.239 54.5063L116.41 54.8287C118.656 59.0628 116.351 104.95 116.121 108.217L116.073 108.851L115.453 108.953C109.789 109.831 104.064 110.243 98.3336 110.184ZM73.4776 107.121C87.8384 108.459 101.787 109.448 114.55 107.433C115.084 98.9376 116.688 60.8521 115.084 55.8496L111.277 55.0007L87.2182 73.2697L69.4464 68.1167C66.2384 68.3747 63.1161 70.3251 59.8226 71.9855C60.0953 72.9365 60.6246 74.2745 60.9294 75.3706C62.0949 79.5725 62.945 85.8807 63.8486 91.1894C64.8002 91.1572 69.5854 90.4426 69.9275 90.3351L70.783 90.0664L70.9487 90.9476C72.0287 96.337 73.237 103.354 73.4776 107.121Z" fill="#372420"/>
<path d="M68.9491 63.5973C75.274 65.2684 79.1075 66.284 84.8229 68.5729C89.9502 62.931 106.685 53.2216 111.229 50.9648L115.683 54.1028C108.294 59.2504 90.9179 69.7228 85.2079 75.0584C76.4449 70.8458 68.7032 68.1001 65.2065 67.1383L68.9491 63.5973Z" fill="#D22514"/>
<path d="M85.3522 76.0529L84.8549 75.8165C75.6162 71.3728 68.0188 68.7775 64.9873 67.9393L63.6025 67.5632L68.7192 62.695L69.3019 62.8508C75.413 64.4628 79.1769 65.4622 84.6143 67.6169C90.2228 61.8353 106.535 52.3891 110.876 50.2398L111.304 50.0249L117.094 54.1032L116.143 54.7695C113.774 56.4191 110.331 58.649 106.685 61.0078C99.0713 65.9404 89.5759 72.0767 85.7532 75.6767L85.3522 76.0529ZM66.773 66.7787C73.0275 68.8012 79.1368 71.2517 85.0581 74.1131C89.1963 70.3895 98.0234 64.6938 105.813 59.643C108.978 57.5958 111.989 55.6453 114.266 54.0924L111.16 51.9109C106.22 54.4417 90.3351 63.732 85.4163 69.1053L85.0421 69.519L84.5074 69.3095C78.9684 67.0849 75.2312 66.0855 69.1576 64.4735L66.773 66.7787Z" fill="#372420"/>
<path d="M126.991 76.096L112.635 68.5735C111.043 70.6086 109.639 72.7868 108.444 75.0804C107.909 72.9312 99.8092 67.3161 99.8145 67.0206C99.8145 66.0588 100.194 65.5 99.7504 63.3829C99.5419 62.3996 99.9696 60.159 100.082 58.9177C99.6381 55.7905 96.4195 57.3649 95.4143 59.5894C93.5299 57.946 91.4965 56.4834 89.3407 55.221C88.635 54.7804 86.6674 53.4532 85.4484 54.1893C85.1063 54.3989 84.1492 55.2263 84.1492 55.984C84.1492 58.6706 85.5821 59.2079 87.71 61.3572C86.9775 62.1417 83.6092 64.2856 83.652 66.6928C82.989 67.6976 82.3688 70.078 84.8977 72.1843C85.6944 72.6195 86.3413 74.21 87.3732 75.059C88.5954 76.1369 90.1486 76.7609 91.7734 76.8268C91.9486 76.8056 92.1178 76.7489 92.2706 76.6602C99.2211 88.4813 107.006 90.7005 107.006 90.7005L106.3 92.6724L110.577 92.4091L110.208 94.0211C115.218 94.6229 128.103 87.0037 126.991 76.096Z" fill="#9E5429"/>
<path d="M89.8272 76.456C88.9771 75.9939 88.3355 73.3718 87.2502 73.1138C83.8124 71.964 85.0634 68.5842 85.7318 67.5794C85.689 65.1722 89.1268 64.0331 90.7201 62.2868C86.9775 60.4706 85.9082 58.6706 85.9831 57.5583C86.1114 55.6938 87.9185 55.1941 88.2072 54.9039C88.4959 54.6138 88.3783 54.5063 88.6884 54.4741C87.8169 53.8669 86.6514 53.2651 85.7745 54.1517C85.4858 54.4365 84.47 55.4198 84.47 56.172C84.47 58.8586 85.133 59.7775 87.8597 61.6097C87.1272 62.3942 83.9353 64.4629 83.9781 66.8701C83.3098 67.8695 81.7807 71.2117 85.2238 72.3616C86.2931 72.6141 86.9508 75.2416 87.8009 75.7037C88.7416 76.2479 89.7478 76.6686 90.7949 76.9557C90.4314 76.7838 90.0999 76.6064 89.8272 76.456Z" fill="#C87D36"/>
<path d="M126.991 76.096L124.756 75.1396C122.805 83.7368 117.576 88.2664 113.432 90.4587L113.806 89.2497L109.957 89.5184L110.657 87.5464C110.657 87.5464 100.697 85.3434 93.7463 73.5491C93.5825 73.6141 93.4146 73.668 93.2437 73.7103C92.0674 74.0273 90.0037 73.9253 88.9344 73.3396C88.111 72.8882 81.7861 71.1312 84.8764 72.1628C85.9457 72.4208 86.6033 75.0429 87.4534 75.5104C88.5227 76.096 90.5704 77.1223 91.7306 76.8053C91.8992 76.7587 92.0652 76.7031 92.2278 76.6387C99.1783 88.4599 106.963 90.679 106.963 90.679L106.257 92.651L110.534 92.3877L110.165 93.9997C115.218 94.623 128.103 87.0037 126.991 76.096Z" fill="#713915"/>
<path d="M110.818 94.9072C110.569 94.9067 110.321 94.8923 110.074 94.8642L109.117 94.7406L109.444 93.3274L105.038 93.6068L105.899 91.1996C103.664 90.27 97.5369 87.0139 91.8749 77.6698H91.7359C89.925 77.5986 88.193 76.9065 86.8278 75.7086C86.2683 75.2038 85.7791 74.6255 85.3736 73.9891C85.136 73.5861 84.8365 73.2234 84.4861 72.9145L84.347 72.8178C83.7504 72.3743 83.2521 71.8109 82.8839 71.1633C82.5157 70.5158 82.2857 69.7983 82.2084 69.0565C82.1342 68.1337 82.3352 67.2096 82.7859 66.4021C82.9195 64.2098 85.0742 62.4098 86.3841 61.319L86.4215 61.2922C86.2183 61.0987 86.0205 60.9214 85.8334 60.7549C84.4059 59.4599 83.2724 58.439 83.2724 55.9673C83.2724 54.7583 84.5449 53.7052 84.9886 53.4311C86.5926 52.4478 88.7579 53.8126 89.6829 54.3929L89.7951 54.4628C91.6843 55.5847 93.4908 56.8417 95.2005 58.2241C96.0933 57.0366 97.5155 56.0748 98.8682 56.2897C99.4028 56.3649 100.649 56.7572 100.937 58.7668V58.8688V58.9709C100.905 59.3202 100.846 59.7608 100.788 60.2283C100.61 61.199 100.544 62.1869 100.59 63.1728C100.846 64.2149 100.897 65.2974 100.739 66.3591C100.739 66.4612 100.707 66.5633 100.697 66.66C100.996 66.9072 101.531 67.3263 102.055 67.7347C104.669 69.7819 107.107 71.7539 108.385 73.3175C109.438 71.4562 110.63 69.678 111.951 67.998L112.395 67.4607L127.798 75.5205L127.846 75.988C128.311 80.566 126.446 85.1762 122.58 88.9751C119.046 92.4785 114.154 94.9072 110.818 94.9072ZM111.662 91.4414L111.272 93.1394C113.865 92.9244 118.068 90.9901 121.377 87.7661C123.762 85.418 126.488 81.6138 126.189 76.6704L112.897 69.6852C109.738 72.1085 109.101 77.4925 109.085 77.5247H108.203C108.184 76.7432 107.987 75.9766 107.626 75.2841C107.305 74.0482 102.739 70.4482 101.023 69.121C99.0767 67.595 98.9591 67.509 98.9698 66.9717C98.978 66.6872 99.0048 66.4036 99.05 66.1227C99.1821 65.2596 99.1385 64.3785 98.9216 63.5328C98.7452 62.6785 98.9216 61.3137 99.0981 59.9972C99.1515 59.5996 99.1997 59.2289 99.2317 58.9226C99.1355 58.3853 98.9377 58.0629 98.649 58.0199C97.9807 57.9232 96.7563 58.756 96.227 59.9274L95.7298 61.002L94.8155 60.2283C92.973 58.6127 90.9844 57.1736 88.8755 55.9297L88.7579 55.8545C87.309 54.9464 86.3413 54.624 85.8922 54.898C85.5393 55.1183 85.0047 55.7148 85.0047 55.9727C85.0047 57.6652 85.6249 58.2294 86.9882 59.4653C87.3839 59.8253 87.833 60.2283 88.3142 60.7119L88.9076 61.3083L88.3302 61.9262C88.0625 62.1906 87.7805 62.44 87.4854 62.6731C86.4161 63.5489 84.4861 65.177 84.5074 66.6493V66.9233L84.3577 67.149C84.208 67.3747 82.9783 69.395 85.3843 71.4476C85.9459 71.8627 86.4186 72.3872 86.7744 72.9897C87.0913 73.494 87.4723 73.9547 87.9078 74.3599C88.9624 75.3026 90.3051 75.856 91.7145 75.9289H91.7627L91.9444 75.8483L92.6288 75.585L93.0031 76.219C99.6809 87.5781 107.155 89.8402 107.225 89.8617L108.118 90.1196L107.546 91.7316L111.662 91.4414Z" fill="#372420"/>
<path d="M96.628 62.8131C96.1361 61.5396 95.9062 61.3032 94.8315 60.1748L95.7993 58.896C97.2161 59.9706 97.462 60.7444 98.0181 62.1737L96.628 62.8131Z" fill="#372420"/>
<path d="M114.993 55.0596C116.228 55.5969 117.437 55.9515 120.34 57.3593C128.066 61.5666 130.84 73.3555 127.413 82.1622C123.558 79.943 116.02 75.177 108.551 73.6993C108.754 72.0498 109.032 70.1046 109.032 70.1046" fill="#F4F6F8"/>
<path d="M120.318 57.3593C117.437 55.9515 116.629 55.6238 115.394 55.0596L114.924 55.9085C115.666 56.2561 116.381 56.6602 117.062 57.1175C124.285 61.0507 125.745 71.319 123.296 79.8678C124.462 80.5395 126.552 81.6786 127.397 82.1622C130.819 73.3555 128.044 61.5666 120.318 57.3593Z" fill="#CDCFD0"/>
<path d="M127.798 83.3226L126.991 82.8605L125.633 82.0653C121.623 79.7118 114.94 75.7625 108.38 74.4836L107.647 74.3439L107.738 73.597C107.941 71.9851 108.214 70.0131 108.219 69.9916L109.823 70.2173C109.823 70.2173 109.62 71.6412 109.438 73.0651C115.998 74.5266 122.51 78.3577 126.461 80.679L126.996 80.9906C129.915 72.2913 126.761 61.7652 119.965 58.063C118.137 57.171 116.987 56.7197 116.063 56.3543C115.571 56.1609 115.138 55.9943 114.699 55.817L115.357 54.3501C115.758 54.5328 116.169 54.694 116.645 54.8874C117.597 55.2582 118.784 55.7256 120.698 56.6606C124.585 58.783 127.467 62.7485 128.841 67.853C130.146 72.6807 129.91 77.7985 128.167 82.4844L127.798 83.3226Z" fill="#372420"/>
<path d="M68.4412 80.4424C68.7459 83.0108 69.2859 86.2509 70.2269 91.2695Z" fill="#F4F6F8"/>
<path d="M69.4463 91.4151C68.4839 86.3212 67.9493 83.0704 67.6445 80.5396L69.2485 80.3462C69.5479 82.8394 70.0772 86.0633 71.0289 91.1195L69.4463 91.4151Z" fill="#372420"/>
<path d="M5.43777 71.5873C6.6809 71.5873 7.68866 70.5745 7.68866 69.3251C7.68866 68.0758 6.6809 67.063 5.43777 67.063C4.19464 67.063 3.18689 68.0758 3.18689 69.3251C3.18689 70.5745 4.19464 71.5873 5.43777 71.5873Z" fill="#49AD33"/>
<path d="M12.2011 71.5873C13.4442 71.5873 14.452 70.5745 14.452 69.3251C14.452 68.0758 13.4442 67.063 12.2011 67.063C10.9579 67.063 9.9502 68.0758 9.9502 69.3251C9.9502 70.5745 10.9579 71.5873 12.2011 71.5873Z" fill="#E30613"/>
</svg>
