<svg width="44" height="36" viewBox="0 0 44 36" fill="none" xmlns="http://www.w3.org/2000/svg">
<g clip-path="url(#clip0_216_267)">
<path d="M22.4809 16.6997H22.7156C23.0014 15.9272 23.0914 15.0968 22.9779 14.2817C22.8643 13.4665 22.5506 12.6915 22.0644 12.025C20.7999 10.3941 18.3164 8.71809 17.2942 6.90682C16.7332 5.74457 16.4335 4.47518 16.4158 3.18657V2.1494H17.226V2.25462C17.226 2.29848 17.2436 2.34053 17.2748 2.37154C17.306 2.40255 17.3484 2.41997 17.3926 2.41997H17.5062C17.5477 2.41621 17.5863 2.39714 17.6143 2.36653C17.6423 2.33592 17.6578 2.29599 17.6576 2.25462V2.13437H17.8393C17.8612 2.13437 17.8829 2.1301 17.9031 2.12179C17.9233 2.11348 17.9417 2.1013 17.9571 2.08595C17.9726 2.07059 17.9849 2.05236 17.9932 2.0323C18.0016 2.01224 18.0059 1.99074 18.0059 1.96903V1.85629C18.0059 1.81244 17.9884 1.77039 17.9571 1.73938C17.9259 1.70837 17.8835 1.69095 17.8393 1.69095H17.6576V1.56318C17.6576 1.51933 17.6401 1.47728 17.6088 1.44627C17.5776 1.41526 17.5352 1.39784 17.491 1.39784H17.4153C17.3711 1.39784 17.3288 1.41526 17.2975 1.44627C17.2663 1.47728 17.2487 1.51933 17.2487 1.56318V1.69095H16.4007V0.826649H16.537C16.5812 0.826649 16.6235 0.809229 16.6548 0.778221C16.686 0.747213 16.7036 0.705157 16.7036 0.661305V0.54857C16.7036 0.504718 16.686 0.462662 16.6548 0.431654C16.6235 0.400645 16.5812 0.383225 16.537 0.383225H16.3931V0.165271C16.3931 0.142911 16.3886 0.120778 16.3797 0.100211C16.3709 0.0796446 16.358 0.0610716 16.3417 0.0456155C16.3254 0.0301594 16.3061 0.0181414 16.285 0.0102883C16.2639 0.00243529 16.2415 -0.00108963 16.219 -7.32295e-05H16.1054C16.0612 -7.32295e-05 16.0188 0.0173469 15.9876 0.048355C15.9564 0.0793631 15.9388 0.121419 15.9388 0.165271V0.383225H15.8252C15.781 0.383225 15.7387 0.400645 15.7074 0.431654C15.6762 0.462662 15.6586 0.504718 15.6586 0.54857V0.661305C15.6586 0.705157 15.6762 0.747213 15.7074 0.778221C15.7387 0.809229 15.781 0.826649 15.8252 0.826649H15.9464V1.69095H15.1438V1.56318C15.1438 1.51933 15.1262 1.47728 15.095 1.44627C15.0637 1.41526 15.0214 1.39784 14.9772 1.39784H14.8636C14.8194 1.39784 14.777 1.41526 14.7458 1.44627C14.7146 1.47728 14.697 1.51933 14.697 1.56318V1.69095H14.485C14.4408 1.69095 14.3985 1.70837 14.3672 1.73938C14.336 1.77039 14.3184 1.81244 14.3184 1.85629V1.96903C14.3184 2.01288 14.336 2.05494 14.3672 2.08595C14.3985 2.11695 14.4408 2.13437 14.485 2.13437H14.697V2.25462C14.697 2.29848 14.7146 2.34053 14.7458 2.37154C14.777 2.40255 14.8194 2.41997 14.8636 2.41997H14.9772C15.0214 2.41997 15.0637 2.40255 15.095 2.37154C15.1262 2.34053 15.1438 2.29848 15.1438 2.25462V2.13437H15.9009V3.47216C15.8761 4.689 15.6191 5.89014 15.1438 7.01203C14.0837 9.26673 10.9944 10.8525 10.9944 10.8525V11.6642C12.3092 10.9449 13.4632 9.96822 14.3866 8.79325C15.1622 7.6843 15.7267 6.44382 16.0524 5.13312C16.2039 6.32854 16.6203 7.47582 17.2714 8.49262C18.5284 10.5218 20.0655 10.8676 21.4662 12.7765C23.1093 15.0312 22.4809 16.6697 22.4809 16.6697" fill="#F2F2F2"/>
<path d="M23.1243 16.6998C24.0721 15.7972 24.7619 14.6614 25.1233 13.4079C25.5659 11.8886 25.5342 10.2719 25.0324 8.77079C24.9966 9.17637 24.9282 9.57848 24.828 9.97329C24.7285 10.3165 24.5887 10.647 24.4115 10.9578C23.9994 10.5307 23.5566 10.1338 23.0865 9.77037C22.5639 9.3775 22.0064 9.03286 21.4207 8.74072C22.4521 9.8718 23.1993 11.229 23.6013 12.7015C23.7922 14.0429 23.6278 15.4105 23.1243 16.6697" fill="#F2F2F2"/>
<path d="M23.6392 9.70277C23.7591 9.69111 23.8729 9.64511 23.9669 9.57037C24.0609 9.49564 24.1309 9.39539 24.1685 9.28185C24.2061 9.1683 24.2096 9.04636 24.1786 8.93086C24.1477 8.81537 24.0835 8.7113 23.994 8.63135C23.9045 8.55139 23.7935 8.499 23.6745 8.48054C23.5556 8.46208 23.4338 8.47836 23.3239 8.52739C23.2141 8.57642 23.1211 8.65609 23.056 8.75669C22.991 8.85729 22.9569 8.97449 22.9578 9.094C22.9616 9.17859 22.9824 9.26158 23.0189 9.33813C23.0553 9.41468 23.1068 9.48328 23.1702 9.53992C23.2336 9.59657 23.3077 9.64014 23.3882 9.6681C23.4688 9.69605 23.5541 9.70784 23.6392 9.70277Z" fill="#F2F2F2"/>
<path d="M19.6868 18.0377C19.4672 18.0903 19.2476 18.1504 19.028 18.2256C18.809 18.3194 18.6028 18.4406 18.4147 18.5863V13.6861L16.9912 12.7241V25.5007H18.4147V19.2101C18.7736 19.6867 19.2024 20.1072 19.6868 20.4577V25.5007H20.8301V20.826C20.4394 20.7212 20.0738 20.5398 19.7549 20.2924C19.4007 20.0239 19.0736 19.7218 18.7782 19.3905L18.6116 19.165C18.5614 19.0885 18.5231 19.0049 18.498 18.917C18.5139 18.8574 18.5423 18.8017 18.5815 18.7538C18.6207 18.7058 18.6696 18.6667 18.7252 18.6389L19.0432 18.4586C19.3175 18.3298 19.612 18.2484 19.9139 18.2181C20.2124 18.1776 20.5159 18.1955 20.8074 18.2707V15.1667L19.6641 14.4151L19.6868 18.0377Z" fill="#F2F2F2"/>
<path d="M13.1751 12.025C12.5237 12.6574 11.7904 13.2008 10.9944 13.6408V14.0317V25.5306H12.5845V12.9419C13.1564 12.5364 13.6842 12.0729 14.1594 11.559V25.5005H15.9009V8.65796C15.1012 9.86298 14.1885 10.9903 13.1751 12.025Z" fill="#F2F2F2"/>
<path d="M25.4035 18.9245V21.9984C25.0355 22.1685 24.698 22.397 24.404 22.6748V18.917L25.4035 18.9245ZM23.3818 22.6823C23.0853 22.4076 22.7482 22.1795 22.3823 22.0059V18.9245H23.3818V22.6823ZM24.404 17.1357H23.3818V18.7892H21.3525V21.9082C21.772 21.9407 22.1797 22.0611 22.5489 22.2614C22.8566 22.4068 23.1184 22.6329 23.3061 22.9153L23.3742 23.1257V25.3203H24.3964V23.1107L24.4646 22.9003C24.6501 22.6161 24.9125 22.3895 25.2218 22.2464C25.5887 22.0472 25.9937 21.9269 26.4105 21.8932V18.7892H24.404V17.1357Z" fill="#F2F2F2"/>
<path d="M29.2121 19.7961L28.6745 20.0893C28.5067 20.2027 28.3495 20.3309 28.2051 20.4726V17.1506H27.1904V25.3277H28.2051V20.916C28.4941 21.2032 28.836 21.4328 29.2121 21.5924V25.3502H30.2267V21.6826C29.9019 21.6693 29.5829 21.5927 29.2878 21.4571C29.0177 21.3261 28.7636 21.1647 28.5306 20.9761C28.4852 20.9385 28.4474 20.8934 28.4019 20.8483C28.3594 20.8066 28.3281 20.7549 28.3111 20.698C28.3374 20.5974 28.3992 20.5094 28.4852 20.45L28.7351 20.2546C28.9697 20.0967 29.2243 19.9704 29.4923 19.8788C29.7481 19.7744 30.019 19.711 30.2949 19.6909V17.1506H29.2121V19.7961Z" fill="#F2F2F2"/>
<path d="M34.2853 19.3302V19.0145C34.2866 18.7844 34.2612 18.555 34.2096 18.3306C34.1681 18.1167 34.0859 17.9127 33.9673 17.7294C33.8512 17.5503 33.6892 17.405 33.4979 17.3085C33.2635 17.1917 33.0026 17.1373 32.7407 17.1507C32.4792 17.1421 32.2195 17.1962 31.9835 17.3085C31.7944 17.4052 31.6349 17.5506 31.5216 17.7294C31.4056 17.9132 31.3259 18.1172 31.2869 18.3306C31.2414 18.5558 31.2185 18.7849 31.2188 19.0145V23.0129L31.7412 23.2008C31.9241 23.2702 32.0992 23.3583 32.2637 23.4638C32.4168 23.5639 32.5545 23.6854 32.6725 23.8246C32.7844 23.9628 32.8434 24.1358 32.8391 24.3131C32.8404 24.5055 32.7672 24.6912 32.6347 24.8317C32.566 24.9066 32.4816 24.9656 32.3874 25.0046C32.2932 25.0435 32.1915 25.0615 32.0895 25.0571C31.9812 25.059 31.8743 25.0332 31.7791 24.982C31.6855 24.9343 31.603 24.8677 31.5368 24.7866C31.6079 24.8199 31.6853 24.8379 31.7639 24.8392C31.8358 24.8406 31.9071 24.8274 31.9736 24.8002C32.04 24.7731 32.1001 24.7326 32.1501 24.6814C32.1996 24.638 32.2393 24.5849 32.2667 24.5253C32.2941 24.4657 32.3086 24.4011 32.3091 24.3356C32.3095 24.27 32.2955 24.205 32.2681 24.1453C32.2406 24.0856 32.2003 24.0326 32.1501 23.9899C32.0451 23.894 31.9065 23.8427 31.7639 23.8471C31.6238 23.8439 31.488 23.8951 31.3853 23.9899C31.3341 24.0322 31.2927 24.085 31.2639 24.1447C31.2351 24.2043 31.2197 24.2695 31.2188 24.3356C31.219 24.4662 31.2501 24.5949 31.3096 24.7114C31.3624 24.8312 31.4398 24.9387 31.5368 25.0271C31.6391 25.1194 31.757 25.1932 31.8851 25.245C32.0196 25.2998 32.1637 25.3279 32.3091 25.3277H32.7407C33.0024 25.3387 33.2627 25.2845 33.4979 25.1699C33.6863 25.0696 33.8494 24.9283 33.9749 24.7565C34.096 24.5753 34.1761 24.3702 34.2096 24.1553C34.2555 23.9301 34.2784 23.701 34.2778 23.4713V22.5469H33.2707V23.8321C33.2707 23.9824 33.2707 24.1327 33.2707 24.2981C33.2702 24.4514 33.2446 24.6037 33.195 24.749C33.1478 24.8821 33.0638 24.9993 32.9527 25.0872C32.8073 25.1892 32.6304 25.2371 32.453 25.2225H32.3091C32.511 25.1507 32.6927 25.0322 32.8391 24.8768C32.9719 24.719 33.0419 24.5185 33.036 24.3131C33.0472 24.072 32.9661 23.8357 32.8088 23.6517C32.6426 23.4654 32.4573 23.2966 32.2561 23.1482V17.6166C32.2599 17.5401 32.2923 17.4678 32.347 17.4137C32.3705 17.3781 32.4017 17.3481 32.4384 17.326C32.4751 17.3039 32.5163 17.2902 32.559 17.2859H32.9603C33.002 17.2839 33.0437 17.2916 33.0819 17.3086C33.12 17.3256 33.1536 17.3513 33.1799 17.3836C33.233 17.4381 33.2629 17.5108 33.2632 17.5866V19.3001L34.2853 19.3302Z" fill="#F2F2F2"/>
<path d="M19.1416 11.8522C19.133 11.8918 19.133 11.9328 19.1416 11.9724C19.1774 12.0794 19.2369 12.177 19.3158 12.258C19.4496 12.3838 19.5969 12.4947 19.7549 12.5887C19.9622 12.7191 20.1771 12.8371 20.3986 12.942L20.7847 13.1148L21.2012 13.2877C21.4965 13.4079 21.8069 13.5131 22.1249 13.6334L22.6171 13.7912L23.1244 13.9491C23.4576 14.0468 23.8135 14.1445 24.1618 14.2196C24.5063 14.307 24.8551 14.3773 25.2067 14.4301C25.5318 14.4859 25.8611 14.5135 26.191 14.5127C26.3219 14.5257 26.4538 14.5257 26.5848 14.5127C26.6264 14.5047 26.667 14.4921 26.7059 14.4752C26.7059 14.4301 26.7059 14.5353 26.7059 14.5202C26.7084 14.5028 26.7084 14.4851 26.7059 14.4676C26.7059 14.4676 26.7059 14.4676 26.7059 14.4225C26.7079 14.4026 26.7079 14.3824 26.7059 14.3624C26.6654 14.2532 26.6065 14.1515 26.5318 14.0618C26.3813 13.8767 26.2168 13.7033 26.0396 13.5432L25.6004 13.1599L25.3051 12.9119L25.1991 12.8292V12.7691L25.3127 12.8367L25.6534 13.0096C25.7973 13.0923 25.9714 13.1975 26.1607 13.3253C26.3777 13.4659 26.5806 13.627 26.7665 13.8063C26.8756 13.908 26.9699 14.0244 27.0466 14.152C27.0674 14.188 27.0851 14.2257 27.0996 14.2647C27.0996 14.3023 27.0996 14.3399 27.1375 14.385C27.1453 14.4297 27.1453 14.4755 27.1375 14.5202C27.1375 14.5202 27.1375 14.5578 27.1375 14.5804C27.1375 14.5804 27.1375 14.5804 27.1375 14.618C27.1015 14.7035 27.0409 14.7767 26.9633 14.8284C26.889 14.8735 26.8104 14.9112 26.7286 14.9411C26.5586 14.9924 26.3834 15.0252 26.2062 15.0388C25.8533 15.0675 25.4985 15.065 25.1461 15.0313C24.7745 14.9851 24.4055 14.9199 24.0406 14.8359C23.3283 14.6538 22.632 14.415 21.9584 14.1219C21.3593 13.885 20.7839 13.5931 20.2395 13.2501C19.8416 13.0201 19.4941 12.7135 19.2173 12.3482C19.1399 12.2396 19.0928 12.1125 19.0811 11.98C19.0811 11.8747 19.0811 11.8372 19.0811 11.8372L19.1416 11.8522Z" fill="#F2F2F2"/>
<path d="M0 31.2125H0.181724V28.9578H0V28.8525H2.19584V28.9578H2.00654V31.2125H2.19584V31.3177H1.33265V31.2125H1.51437V28.9578H0.681466V31.2125H0.863191V31.3177H0V31.2125Z" fill="#F2F2F2"/>
<path d="M2.36988 31.2126C2.44331 31.2003 2.51311 31.1721 2.57432 31.1299C2.60916 31.1004 2.6368 31.0634 2.65516 31.0218C2.67353 30.9801 2.68213 30.9349 2.68032 30.8894C2.6233 30.8703 2.57376 30.8339 2.53867 30.7854C2.50358 30.7369 2.48471 30.6786 2.48471 30.6189C2.48471 30.5591 2.50358 30.5009 2.53867 30.4524C2.57376 30.4038 2.6233 30.3674 2.68032 30.3483C2.6199 30.2967 2.57064 30.2334 2.5355 30.1624C2.50036 30.0914 2.48008 30.014 2.47588 29.935C2.47588 29.6945 2.65761 29.5141 3.06649 29.3638C3.36179 29.2585 3.58894 29.0631 3.58894 28.9805C3.58894 28.8978 3.58894 28.9805 3.52837 28.9805H3.39965V28.8752H4.37642V28.9805H4.19469V31.2352H4.37642V31.3404H3.51323V31.2352H3.69495V29.5817C3.67009 29.6372 3.63965 29.6901 3.60409 29.7395C3.53505 29.8284 3.45344 29.9069 3.36179 29.9725C3.29254 30.0205 3.22675 30.0733 3.16492 30.1304C3.07829 30.2157 2.99972 30.3088 2.93019 30.4084C2.9613 30.4341 2.98626 30.4663 3.00329 30.5027C3.02031 30.5391 3.02897 30.5788 3.02863 30.6189C3.02748 30.6826 3.00542 30.7443 2.96579 30.7944C2.92617 30.8446 2.87114 30.8806 2.80904 30.897C2.80724 30.9424 2.81584 30.9876 2.8342 31.0293C2.85256 31.071 2.88021 31.1079 2.91505 31.1375C2.97465 31.1824 3.04518 31.211 3.11949 31.2201V31.3253H2.3623L2.36988 31.2126ZM2.7409 30.3333H2.83933C2.8957 30.2386 2.95897 30.1482 3.02863 30.0627C3.1011 29.9888 3.17961 29.9209 3.26335 29.8598C3.34197 29.7982 3.41541 29.7303 3.48294 29.6569C3.59444 29.5441 3.65929 29.3939 3.66466 29.236V28.9729C3.55342 29.1403 3.3992 29.2752 3.21792 29.3638C3.05732 29.4475 2.9196 29.5687 2.81662 29.717C2.73148 29.8442 2.68424 29.9927 2.68032 30.1454C2.68365 30.2122 2.70454 30.277 2.7409 30.3333Z" fill="#F2F2F2"/>
<path d="M4.54321 28.8301H6.89049H6.92834C6.93264 28.8524 6.93264 28.8754 6.92834 28.8977C6.83067 29.1148 6.76684 29.3455 6.73905 29.5816C6.73905 29.5816 6.73905 29.5816 6.68605 29.5816C6.63304 29.5816 6.62547 29.5816 6.62547 29.5816C6.59853 29.4259 6.54474 29.2759 6.46646 29.1382C6.42429 29.0698 6.3636 29.0145 6.29131 28.9786C6.21902 28.9427 6.13804 28.9277 6.05758 28.9353H5.95915V31.19H6.14087V31.2952H5.3004V31.19H5.48212V28.9353H5.33826C5.26366 28.9403 5.19146 28.9635 5.12806 29.0028C5.06466 29.0421 5.01202 29.0964 4.97481 29.1608C4.89536 29.2972 4.8439 29.4479 4.82337 29.6042C4.82337 29.6042 4.77794 29.6042 4.7628 29.6042C4.74765 29.6042 4.70222 29.6042 4.70222 29.6042C4.6876 29.3691 4.63388 29.138 4.54321 28.9203C4.54321 28.9203 4.54321 28.8752 4.54321 28.8526C4.54321 28.8301 4.54321 28.8301 4.54321 28.8301Z" fill="#F2F2F2"/>
<path d="M7.00391 31.2125H7.1932V29.6568C7.19217 29.5394 7.21483 29.423 7.25985 29.3144C7.30486 29.2059 7.37132 29.1074 7.45529 29.0247C7.53927 28.9421 7.63907 28.8769 7.74881 28.8332C7.85855 28.7894 7.976 28.7679 8.09425 28.7699C8.19744 28.7638 8.30081 28.7786 8.39798 28.8136C8.49516 28.8486 8.58408 28.903 8.65928 28.9734C8.73448 29.0438 8.79435 29.1288 8.83521 29.2231C8.87607 29.3173 8.89705 29.4189 8.89687 29.5215C8.90098 29.6019 8.88855 29.6824 8.86033 29.7579C8.83212 29.8335 8.78871 29.9025 8.73275 29.9609C8.67678 30.0192 8.60944 30.0657 8.53482 30.0974C8.4602 30.1291 8.37986 30.1454 8.29869 30.1453C8.22792 30.1501 8.15704 30.1375 8.09233 30.1087C8.02762 30.0799 7.97106 30.0356 7.92767 29.9799C7.92767 29.9799 7.92767 29.9799 7.88981 29.9799C7.87524 29.9741 7.85895 29.9741 7.84438 29.9799L7.68537 30.0927V31.2275H7.8671V31.3327H7.00391V31.2125ZM7.69294 29.9574L7.85952 29.8296H7.91253C7.91963 29.8263 7.92739 29.8245 7.93524 29.8245C7.9431 29.8245 7.95086 29.8263 7.95796 29.8296C7.98105 29.8663 8.01204 29.8974 8.04869 29.9208C8.08535 29.9442 8.12676 29.9593 8.16997 29.9649C8.34412 29.9649 8.4047 29.762 8.4047 29.4614C8.4047 29.1607 8.33655 28.8601 8.05639 28.8601C7.77623 28.8601 7.68537 29.0405 7.68537 29.4313V29.9424L7.69294 29.9574Z" fill="#F2F2F2"/>
<path d="M9.08618 31.2125H9.26791V28.9578H9.08618V28.8526H9.94937V28.9578H9.76008V30.6414L10.6006 29.3111V28.9353H10.4113V28.8301H11.2744V28.9353H11.0927V31.19H11.2744V31.2952H10.4113V31.19H10.6006V29.514L9.76008 30.8518V31.2125H9.94937V31.3178H9.08618V31.2125Z" fill="#F2F2F2"/>
<path d="M11.4487 31.2126C11.5249 31.2016 11.5974 31.1733 11.6607 31.1299C11.6956 31.1004 11.7232 31.0634 11.7416 31.0218C11.76 30.9801 11.7686 30.9349 11.7667 30.8894C11.704 30.8743 11.6483 30.8386 11.6084 30.7881C11.5686 30.7377 11.547 30.6754 11.5472 30.6114C11.546 30.5552 11.562 30.5 11.5931 30.453C11.6242 30.4061 11.6689 30.3696 11.7213 30.3483C11.6047 30.2407 11.5342 30.0927 11.5244 29.935C11.5244 29.6945 11.7062 29.5141 12.1151 29.3638C12.5239 29.2134 12.6375 29.0631 12.6375 28.9805C12.6375 28.8978 12.6375 28.9805 12.5769 28.9805H12.4785V28.8752H13.4628V28.9805H13.2735V31.2352H13.4628V31.3404H12.5997V31.2352H12.7814V29.5817C12.7565 29.6372 12.7261 29.6901 12.6905 29.7395C12.617 29.8269 12.5331 29.9051 12.4406 29.9725C12.3739 30.0207 12.3106 30.0734 12.2513 30.1304C12.1647 30.2157 12.0861 30.3088 12.0166 30.4084C12.0477 30.4341 12.0727 30.4663 12.0897 30.5027C12.1067 30.5391 12.1154 30.5788 12.1151 30.6189C12.1135 30.6836 12.0903 30.746 12.0492 30.7963C12.0081 30.8466 11.9514 30.882 11.8879 30.897C11.8861 30.9424 11.8947 30.9876 11.9131 31.0293C11.9314 31.071 11.9591 31.1079 11.9939 31.1375C12.0572 31.1808 12.1298 31.2091 12.2059 31.2201V31.3253H11.4487V31.2126ZM11.8273 30.3333H11.9258C11.9821 30.2386 12.0454 30.1482 12.1151 30.0627C12.1858 29.987 12.2645 29.9189 12.3498 29.8598C12.4277 29.8 12.4988 29.732 12.5618 29.6569C12.678 29.5466 12.746 29.3955 12.7511 29.236V28.9729C12.6428 29.14 12.4911 29.2751 12.3119 29.3638C12.1491 29.4473 12.0088 29.5684 11.903 29.717C11.8194 29.8445 11.7747 29.9933 11.7743 30.1454C11.7705 30.2121 11.7891 30.2782 11.8273 30.3333Z" fill="#F2F2F2"/>
<path d="M13.6294 31.2125H13.8111V29.6568C13.8101 29.5387 13.833 29.4217 13.8784 29.3126C13.9239 29.2036 13.9911 29.1047 14.0758 29.022C14.1606 28.9392 14.2613 28.8742 14.372 28.8309C14.4826 28.7876 14.6009 28.7669 14.7197 28.7699C14.8229 28.7638 14.9263 28.7786 15.0235 28.8136C15.1206 28.8486 15.2096 28.903 15.2848 28.9734C15.36 29.0438 15.4198 29.1288 15.4607 29.2231C15.5016 29.3173 15.5225 29.4189 15.5224 29.5215C15.5265 29.6026 15.5139 29.6837 15.4852 29.7597C15.4565 29.8358 15.4124 29.9052 15.3556 29.9636C15.2989 30.0221 15.2306 30.0684 15.1551 30.0996C15.0796 30.1309 14.9984 30.1464 14.9166 30.1453C14.8469 30.1502 14.7771 30.1376 14.7136 30.1087C14.6501 30.0798 14.5949 30.0355 14.5532 29.9799C14.5532 29.9799 14.5532 29.9799 14.5077 29.9799L14.3487 30.0927V31.2275H14.5304V31.3327H13.6294V31.2125ZM14.3184 29.9574L14.485 29.8296H14.5304C14.5388 29.8261 14.5478 29.8243 14.5569 29.8243C14.566 29.8243 14.5751 29.8261 14.5834 29.8296C14.6365 29.8897 14.6895 29.9649 14.7879 29.9649C14.8863 29.9649 15.0302 29.762 15.0302 29.4614C15.0302 29.1607 14.9545 28.8601 14.6819 28.8601C14.4093 28.8601 14.3109 29.0405 14.3109 29.4313V29.9424L14.3184 29.9574Z" fill="#F2F2F2"/>
<path d="M15.7192 31.2125H15.901V28.9578H15.7117V28.8525H16.5824V28.9578H16.4007V31.2125H17.0595V28.9578H16.8777V28.8525H17.7409V28.9578H17.5592V31.2125H18.218V28.9578H18.0362V28.8525H18.9297V28.9578H18.7404V31.2125H18.9297V31.3177H15.7495L15.7192 31.2125Z" fill="#F2F2F2"/>
<path d="M19.0659 31.2126C19.1421 31.2016 19.2146 31.1733 19.2779 31.1299C19.3118 31.1 19.3384 31.0628 19.3554 31.0211C19.3725 30.9794 19.3797 30.9343 19.3764 30.8894C19.3143 30.8731 19.2592 30.8371 19.2196 30.7869C19.18 30.7367 19.1579 30.6751 19.1568 30.6114C19.1573 30.5545 19.1748 30.4992 19.2072 30.4523C19.2396 30.4055 19.2853 30.3692 19.3385 30.3483C19.2191 30.2419 19.1458 30.0938 19.1341 29.935C19.1341 29.6945 19.3234 29.5141 19.7322 29.3638C20.1411 29.2134 20.2547 29.0631 20.2547 28.9805C20.2547 28.8978 20.2547 28.9805 20.1941 28.9805H20.0957V28.8752H21.0725V28.9805H20.8907V31.2352H21.0725V31.3404H20.2093V31.2352H20.391V29.5817C20.3692 29.6387 20.3385 29.6919 20.3001 29.7395C20.2311 29.8284 20.1495 29.9069 20.0578 29.9725C19.9911 30.0207 19.9278 30.0734 19.8685 30.1304C19.7798 30.2138 19.701 30.3071 19.6338 30.4084C19.6751 30.4422 19.7059 30.487 19.7224 30.5375C19.7389 30.588 19.7404 30.6422 19.7269 30.6936C19.7133 30.745 19.6853 30.7914 19.646 30.8275C19.6066 30.8635 19.5578 30.8876 19.5051 30.897C19.5033 30.9424 19.5119 30.9876 19.5302 31.0293C19.5486 31.071 19.5762 31.1079 19.6111 31.1375C19.6744 31.1808 19.747 31.2091 19.8231 31.2201V31.3253H19.0659V31.2126ZM19.4369 30.3333H19.5354C19.6187 30.2281 19.6641 30.1755 19.7625 30.0702C19.8307 29.9947 19.9068 29.9267 19.9897 29.8673C20.0699 29.8076 20.1436 29.7396 20.2093 29.6644C20.3208 29.5516 20.3856 29.4014 20.391 29.2435V28.9805C20.2827 29.1476 20.131 29.2826 19.9518 29.3713C19.7876 29.4527 19.6469 29.5743 19.5429 29.7245C19.4593 29.852 19.4146 30.0008 19.4142 30.1529C19.4071 30.214 19.4149 30.2758 19.4369 30.3333Z" fill="#F2F2F2"/>
<path d="M21.2012 31.2126H21.3602C21.3401 30.983 21.3819 30.7521 21.4813 30.5438C21.6176 30.3211 21.8218 30.1473 22.0644 30.0477C21.8069 30.0101 21.398 29.9124 21.398 29.4465C21.398 28.9805 21.7312 28.8452 22.0568 28.8452H23.2683V28.9504H23.0866V31.2051H23.2683V31.3103H22.4202V31.2051H22.6095V30.0628H22.39C22.1401 30.0628 21.9886 30.3559 21.9584 30.5813C21.9421 30.789 21.9421 30.9975 21.9584 31.2051H22.1174V31.3103H21.2012V31.2126ZM22.3824 29.965H22.5868V28.9354H22.3294C22.0946 28.9354 21.9356 28.9354 21.9356 29.4465C21.9356 29.9575 22.1477 29.965 22.4051 29.965H22.3824Z" fill="#F2F2F2"/>
<path d="M24.3359 31.2125H24.5177V28.9578H24.3359V28.8526H25.1991V28.9578H24.9871V29.98H25.1007C25.2346 29.9936 25.369 29.9589 25.4793 29.8823C25.5949 29.7127 25.6409 29.5057 25.608 29.3036V28.9353H25.4566V28.8301H26.3273V28.9353H26.1608C26.1586 29.1633 26.1015 29.3875 25.9942 29.5892C25.9401 29.6868 25.8666 29.7725 25.7781 29.841C25.6896 29.9095 25.5879 29.9593 25.4793 29.9875C25.8124 29.9875 26.138 30.1303 26.2365 30.491C26.2504 30.626 26.2504 30.762 26.2365 30.8969V31.1975H26.4182V31.3027H25.5323V31.1975H25.7443V30.8518C25.7522 30.7116 25.7522 30.5711 25.7443 30.4309C25.6989 30.1979 25.608 30.0401 25.237 30.0401H24.9871V31.1975H25.1688V31.3027H24.3359V31.2125Z" fill="#F2F2F2"/>
<path d="M27.6826 28.77C28.3186 28.77 28.72 29.3562 28.72 30.0702C28.72 30.7842 28.3186 31.378 27.6826 31.378C27.0466 31.378 26.6377 30.8143 26.6377 30.0627C26.6377 29.3111 27.039 28.77 27.6826 28.77ZM27.6826 31.2652C27.7478 31.27 27.8132 31.2605 27.8743 31.2374C27.9354 31.2143 27.9906 31.1782 28.0361 31.1316C28.0816 31.085 28.1163 31.0291 28.1376 30.9678C28.1589 30.9064 28.1665 30.8412 28.1596 30.7767V29.3713C28.1596 29.2457 28.1094 29.1253 28.0199 29.0365C27.9305 28.9477 27.8091 28.8978 27.6826 28.8978C27.5561 28.8978 27.4348 28.9477 27.3453 29.0365C27.2558 29.1253 27.2056 29.2457 27.2056 29.3713V30.8143C27.2032 30.8761 27.2141 30.9377 27.2375 30.995C27.261 31.0523 27.2964 31.104 27.3416 31.1466C27.3867 31.1893 27.4404 31.2219 27.4992 31.2424C27.558 31.2628 27.6205 31.2706 27.6826 31.2652Z" fill="#F2F2F2"/>
<path d="M28.9019 31.2126H29.0836C29.0404 31.0403 29.015 30.864 29.0079 30.6865C29.0119 30.5213 29.0535 30.3591 29.1295 30.212C29.2056 30.065 29.3141 29.9368 29.447 29.8373C29.6742 29.6419 29.9619 29.3563 29.9619 29.0857C29.9619 29.0857 29.9619 28.973 29.9619 28.9204H29.7802V28.8151H30.6434V28.9204H30.4617L30.6207 30.4235C30.6914 30.2179 30.7908 30.0231 30.916 29.8448C31.0868 29.6264 31.1965 29.3671 31.234 29.0932C31.234 29.0481 31.234 28.9805 31.234 28.9128H31.0447V28.8076H31.9079V28.9128H31.7262L31.9609 31.1675H32.1426V31.2728H31.287V31.1675H31.4611L31.287 29.4915C31.2128 29.6544 31.1241 29.8103 31.022 29.9575C30.8302 30.2237 30.7103 30.5342 30.6737 30.8594C30.6669 30.962 30.6669 31.0649 30.6737 31.1675H30.8554V31.2728H30.0073V31.1675H30.1891L30.0073 29.4164C29.9434 29.5206 29.8699 29.6187 29.7878 29.7095C29.5926 29.9682 29.5009 30.2895 29.5303 30.6114C29.5345 30.8143 29.5624 31.0161 29.6136 31.2126H29.7953V31.3178H28.9019V31.2126Z" fill="#F2F2F2"/>
<path d="M32.3167 31.2125H32.5059V28.9578H32.3167V28.8526H33.1798V28.9578H32.9981V30.6414L33.831 29.3111V28.9353H33.6493V28.8301H34.5125V28.9353H34.3308V31.19H34.5125V31.2952H33.6493V31.19H33.831V29.514L32.9981 30.8518V31.2125H33.1798V31.3178H32.3167V31.2125Z" fill="#F2F2F2"/>
<path d="M35.8074 28.77C36.0601 28.7838 36.2991 28.8882 36.4802 29.0637C36.6612 29.2393 36.7719 29.4741 36.7917 29.7245H36.9431V29.8297H36.1027V29.7245H36.2844V29.3713C36.2929 29.3046 36.287 29.2369 36.2671 29.1727C36.2472 29.1084 36.2138 29.0491 36.169 28.9987C36.1243 28.9483 36.0692 28.9079 36.0075 28.8802C35.9458 28.8526 35.8789 28.8383 35.8111 28.8383C35.7434 28.8383 35.6765 28.8526 35.6148 28.8802C35.5531 28.9079 35.498 28.9483 35.4533 28.9987C35.4085 29.0491 35.3751 29.1084 35.3552 29.1727C35.3353 29.2369 35.3294 29.3046 35.3379 29.3713V30.8143C35.3294 30.881 35.3353 30.9487 35.3552 31.0129C35.3751 31.0771 35.4085 31.1364 35.4533 31.1869C35.498 31.2373 35.5531 31.2777 35.6148 31.3053C35.6765 31.333 35.7434 31.3473 35.8111 31.3473C35.8789 31.3473 35.9458 31.333 36.0075 31.3053C36.0692 31.2777 36.1243 31.2373 36.169 31.1869C36.2138 31.1364 36.2472 31.0771 36.2671 31.0129C36.287 30.9487 36.2929 30.881 36.2844 30.8143V30.4686H36.1027V30.3633H36.9431V30.4686H36.7917C36.7719 30.719 36.6612 30.9538 36.4802 31.1293C36.2991 31.3049 36.0601 31.4093 35.8074 31.423C35.1713 31.423 34.77 30.8368 34.77 30.1153C34.77 29.3938 35.1713 28.77 35.8074 28.77Z" fill="#F2F2F2"/>
<path d="M38.1924 28.77C38.4451 28.7838 38.6842 28.8882 38.8652 29.0637C39.0462 29.2393 39.1569 29.4741 39.1767 29.7245H39.3281V29.8297H38.4877V29.7245H38.6694V29.3713C38.6694 29.2457 38.6191 29.1253 38.5297 29.0365C38.4402 28.9477 38.3189 28.8978 38.1924 28.8978C38.0659 28.8978 37.9445 28.9477 37.8551 29.0365C37.7656 29.1253 37.7153 29.2457 37.7153 29.3713V30.8143C37.7153 30.9399 37.7656 31.0603 37.8551 31.1491C37.9445 31.2379 38.0659 31.2878 38.1924 31.2878C38.3189 31.2878 38.4402 31.2379 38.5297 31.1491C38.6191 31.0603 38.6694 30.9399 38.6694 30.8143V30.4686H38.4877V30.3633H39.3281V30.4686H39.1767C39.1569 30.719 39.0462 30.9538 38.8652 31.1293C38.6842 31.3049 38.4451 31.4093 38.1924 31.423C37.5563 31.423 37.155 30.8368 37.155 30.1153C37.155 29.3938 37.5563 28.77 38.1924 28.77Z" fill="#F2F2F2"/>
<path d="M39.51 31.2125H39.6993V28.9578H39.51V28.8526H40.3732V28.9578H40.1915V30.6414L41.0244 29.3111V28.9353H40.8427V28.8301H41.7058V28.9353H41.5241V31.19H41.7058V31.2952H40.8427V31.19H41.0244V29.514L40.1915 30.8518V31.2125H40.3732V31.3178H39.51V31.2125Z" fill="#F2F2F2"/>
<path d="M41.8572 31.2126H42.0162C41.995 30.9821 42.0396 30.7503 42.1449 30.5438C42.2762 30.3198 42.4786 30.1454 42.7204 30.0477C42.4629 30.0101 42.0616 29.9124 42.0616 29.4465C42.0616 28.9805 42.3872 28.8452 42.7128 28.8452H43.9167V28.9504H43.735V31.2051H43.9167V31.3103H43.0611V31.2051H43.2428V30.0628H43.0232C42.7734 30.0628 42.6219 30.3559 42.5916 30.5813C42.5754 30.789 42.5754 30.9975 42.5916 31.2051H42.7507V31.3103H41.8572V31.2126ZM43.0384 29.965H43.2428V28.9354H42.9854C42.7507 28.9354 42.5916 28.9354 42.5916 29.4465C42.5916 29.9575 42.7809 29.965 43.0384 29.965Z" fill="#F2F2F2"/>
<path d="M0.0756836 33.392C0.0756836 33.2793 0.0756836 33.2417 0.166546 33.2417H1.21146C1.27961 33.2417 1.30232 33.2793 1.30232 33.392V34.8951H1.1206H0.938874V33.392C0.938874 33.3169 0.938874 33.2868 0.870727 33.2868H0.507279C0.454276 33.2868 0.439132 33.2868 0.439132 33.392V34.8951H0.257408H0.0756836V33.392Z" fill="#F2F2F2"/>
<path d="M1.95354 33.3996C2.04332 33.3079 2.15172 33.2362 2.27156 33.1892C2.41319 33.2686 2.53689 33.3761 2.63501 33.5049C2.7927 33.6839 2.89058 33.9071 2.91516 34.1437C2.89469 34.2956 2.84149 34.4414 2.75917 34.5711C2.67686 34.7008 2.56736 34.8113 2.43814 34.8953C2.36844 34.95 2.28873 34.9908 2.20341 35.0155C2.13526 35.0155 1.9384 34.8427 1.87025 34.7675C1.70778 34.5967 1.60665 34.3774 1.58252 34.1437C1.58704 34.0005 1.62251 33.86 1.68653 33.7316C1.75054 33.6033 1.8416 33.49 1.95354 33.3996ZM2.02169 34.3466C2.14284 34.512 2.3397 34.7374 2.40028 34.7374C2.46085 34.7374 2.476 34.6848 2.53657 34.6247C2.59625 34.5503 2.62593 34.4566 2.61986 34.3617C2.59108 34.1848 2.51527 34.0187 2.40028 33.8807C2.27156 33.7078 2.08226 33.4898 2.02169 33.4898C1.96111 33.4898 1.9384 33.5424 1.87782 33.6026C1.82109 33.6785 1.79175 33.7711 1.79453 33.8656C1.82479 34.0435 1.90332 34.2098 2.02169 34.3466Z" fill="#F2F2F2"/>
<path d="M4.0282 34.0158C4.2924 33.8186 4.47539 33.5328 4.54308 33.2116C4.54308 33.1365 4.54308 32.7306 4.54308 32.7306C4.6382 32.6396 4.75567 32.5748 4.88382 32.5427C4.9075 32.5425 4.93049 32.5507 4.94857 32.5658C4.96665 32.581 4.97861 32.6022 4.98225 32.6254V32.7306C4.98225 32.7306 4.98225 33.1365 4.98225 33.2116C5.04604 33.5306 5.22345 33.8161 5.48199 34.0158C5.56834 34.07 5.64027 34.1441 5.69167 34.2317C5.74307 34.3194 5.77244 34.418 5.77729 34.5194C5.78317 34.579 5.77566 34.6393 5.75529 34.6957C5.73492 34.7522 5.70219 34.8034 5.65948 34.8458C5.61676 34.8882 5.56511 34.9207 5.50823 34.9409C5.45136 34.9612 5.39068 34.9686 5.33055 34.9628C5.25594 34.9631 5.18201 34.9487 5.1131 34.9203C5.04418 34.8919 4.98168 34.8501 4.92925 34.7974V35.8647C4.92925 35.9473 4.88382 35.9774 4.81567 35.9774C4.80016 35.98 4.78425 35.9789 4.76926 35.9742C4.75427 35.9694 4.74064 35.9612 4.72952 35.9502C4.7184 35.9391 4.7101 35.9256 4.70533 35.9107C4.70056 35.8958 4.69945 35.88 4.70209 35.8647L4.58851 34.7974C4.53608 34.8501 4.47358 34.8919 4.40466 34.9203C4.33575 34.9487 4.26182 34.9631 4.18721 34.9628C4.12708 34.9686 4.0664 34.9612 4.00953 34.9409C3.95265 34.9207 3.901 34.8882 3.85828 34.8458C3.81557 34.8034 3.78285 34.7522 3.76247 34.6957C3.7421 34.6393 3.73459 34.579 3.74047 34.5194C3.74569 34.419 3.77441 34.3212 3.82436 34.2338C3.87431 34.1464 3.9441 34.0718 4.0282 34.0158ZM4.36136 34.8049C4.41452 34.8009 4.46485 34.7795 4.50455 34.7442C4.54425 34.7089 4.5711 34.6616 4.58094 34.6095C4.58094 34.5269 4.58094 33.5348 4.58094 33.5348H4.54308C4.4914 33.6612 4.42262 33.78 4.33864 33.888C4.2055 34.0431 4.13294 34.2405 4.1342 34.4442C4.12663 34.6772 4.21749 34.8049 4.36136 34.8049ZM5.11854 34.8049C5.26998 34.8049 5.35327 34.6772 5.35327 34.4442C5.35733 34.2413 5.28742 34.0438 5.1564 33.888C5.07037 33.7801 4.99908 33.6613 4.94439 33.5348C4.94439 33.5348 4.94439 34.5269 4.94439 34.6095C4.95081 34.6544 4.96984 34.6965 4.99931 34.7311C5.02878 34.7656 5.06749 34.7912 5.11097 34.8049H5.11854Z" fill="#F2F2F2"/>
<path d="M6.01196 33.2869C6.08902 33.2469 6.17483 33.2262 6.26183 33.2268C6.30727 33.2268 6.37541 33.2268 6.37541 33.2719V34.1888L6.88273 33.6101V33.2869C6.96 33.2474 7.04567 33.2268 7.1326 33.2268C7.17803 33.2268 7.24617 33.2268 7.24617 33.2719V34.9329H7.06445H6.88273V33.7679L6.37541 34.3467V34.9329H6.19369H6.01196V33.2869Z" fill="#F2F2F2"/>
<path d="M7.72328 34.775C7.81083 34.7875 7.89399 34.8211 7.96558 34.8727C8.06346 34.9344 8.17545 34.9706 8.29117 34.9779C8.48046 34.9779 8.59404 34.7674 8.59404 34.542C8.59404 34.3165 8.47289 34.1963 8.3366 34.1963C8.31506 34.1969 8.29389 34.2019 8.27437 34.211C8.25484 34.22 8.23737 34.2329 8.22302 34.2489C8.22302 34.2489 8.13216 34.324 8.10944 34.324C8.08673 34.324 7.88229 34.2639 7.88229 34.2188C7.88229 34.1737 8.03372 34.0159 8.07915 34.0159C8.12672 34.0073 8.17546 34.0073 8.22302 34.0159H8.35931C8.45775 34.0159 8.52589 33.8656 8.52589 33.6401C8.52589 33.4146 8.45775 33.2342 8.23816 33.2342C8.01858 33.2342 7.95043 33.362 7.93529 33.5875C7.92014 33.813 7.85957 33.7679 7.67027 33.7679C7.57184 33.8205 7.57184 33.8205 7.57184 33.7378C7.57184 33.3846 7.88986 33.1816 8.27602 33.1816C8.66219 33.1816 8.89691 33.3846 8.89691 33.6626C8.88597 33.7709 8.84151 33.873 8.76964 33.9552C8.69777 34.0373 8.60204 34.0952 8.49561 34.1211C8.62302 34.1369 8.74073 34.1968 8.828 34.2903C8.91527 34.3838 8.96649 34.5049 8.97263 34.6322C8.97995 34.6962 8.97403 34.761 8.95525 34.8226C8.93647 34.8843 8.90521 34.9414 8.86339 34.9907C8.82158 35.0399 8.77008 35.0802 8.71205 35.109C8.65402 35.1378 8.59067 35.1546 8.52589 35.1583C8.42784 35.1555 8.33183 35.1298 8.24573 35.0831C8.16604 35.0364 8.07902 35.0034 7.98829 34.9854C7.91257 34.9854 7.87471 35.0606 7.82928 35.1357C7.78385 35.2109 7.74599 35.2785 7.63999 35.2785C7.56323 35.259 7.49282 35.2201 7.43555 35.1658C7.45826 35.023 7.57184 34.775 7.72328 34.775Z" fill="#F2F2F2"/>
<path d="M9.24512 33.2869C9.32217 33.2469 9.40799 33.2262 9.49499 33.2268C9.54042 33.2268 9.60857 33.2268 9.60857 33.2719V34.1888L10.1159 33.6101V33.2869C10.1931 33.2474 10.2788 33.2268 10.3658 33.2268C10.4112 33.2268 10.4793 33.2268 10.4793 33.2719V34.9329H10.2976H10.1159V33.7679L9.60857 34.3467V34.9329H9.42684H9.24512V33.2869Z" fill="#F2F2F2"/>
<path d="M10.7671 33.2869C10.8441 33.2469 10.93 33.2262 11.017 33.2268C11.0624 33.2268 11.123 33.2268 11.123 33.2719V33.8807C11.123 34.1137 11.229 34.1963 11.4258 34.1963H11.6076V33.2869C11.6848 33.2474 11.7705 33.2268 11.8574 33.2268C11.9029 33.2268 11.971 33.2268 11.971 33.2719V34.8277C11.971 34.9404 11.971 34.9479 11.865 34.9479C11.7796 34.9598 11.693 34.9598 11.6076 34.9479V34.3617H11.3123C10.9261 34.3617 10.7671 34.1888 10.7671 33.8807V33.2869Z" fill="#F2F2F2"/>
<path d="M12.5314 33.3922C12.5942 33.3307 12.6688 33.2825 12.7507 33.2502C12.8327 33.2179 12.9203 33.2023 13.0084 33.2043C13.0993 33.2043 13.2204 33.2569 13.2204 33.302C13.2204 33.3471 13.1523 33.5575 13.069 33.5575C13.0058 33.5559 12.9438 33.5405 12.8873 33.5124C12.8398 33.5033 12.7909 33.5033 12.7434 33.5124C12.6601 33.5124 12.592 33.6402 12.592 33.8506C12.592 33.8506 12.592 34.061 12.6374 34.061C12.7282 34.0355 12.8168 34.0028 12.9024 33.9633C12.9778 33.9283 13.0564 33.9006 13.1371 33.8807C13.1371 33.8807 13.1902 33.8807 13.1902 33.9483C13.1902 34.016 13.1902 34.1362 13.1447 34.1663C13.0114 34.2302 12.8718 34.2805 12.7283 34.3166C12.7243 34.3248 12.7222 34.3338 12.7222 34.3429C12.7222 34.352 12.7243 34.361 12.7283 34.3692C12.7334 34.4438 12.7567 34.516 12.7964 34.5796C12.8646 34.6924 12.9251 34.7375 12.9933 34.7375C13.1006 34.7251 13.1986 34.671 13.2659 34.5871C13.2659 34.5871 13.3113 34.5345 13.3264 34.5345C13.3416 34.5345 13.387 34.5796 13.387 34.6022C13.3541 34.724 13.2755 34.8289 13.1674 34.8953C13.0507 34.9734 12.9144 35.0176 12.7737 35.0231C12.6526 35.0231 12.5465 34.8803 12.4633 34.7299C12.3698 34.527 12.3208 34.3067 12.3194 34.0836C12.3038 33.96 12.3147 33.8346 12.3512 33.7155C12.3877 33.5963 12.4491 33.4862 12.5314 33.3922Z" fill="#F2F2F2"/>
<path d="M13.7352 33.407C13.84 33.2936 13.9825 33.2216 14.1365 33.2041C14.2653 33.2041 14.4773 33.3619 14.4773 33.4371C14.4333 33.5339 14.3552 33.6114 14.2577 33.655C14.2577 33.655 14.1593 33.5874 14.1138 33.5498C14.0688 33.4932 14.0039 33.4556 13.9321 33.4446C13.8639 33.4446 13.8034 33.5498 13.8034 33.7377C13.8067 33.9969 13.8634 34.2526 13.97 34.4893C14.0305 34.5795 14.1062 34.6772 14.2198 34.6772C14.2842 34.6584 14.342 34.6219 14.3864 34.572C14.3864 34.572 14.447 34.5118 14.4621 34.5118C14.4754 34.5166 14.4872 34.5246 14.4964 34.5351C14.5057 34.5456 14.5121 34.5583 14.5151 34.572C14.5151 34.6321 14.3864 34.7749 14.288 34.8575C14.202 34.9361 14.0935 34.986 13.9775 35.0003C13.8954 34.9732 13.8209 34.9269 13.7604 34.8655C13.6998 34.8041 13.6548 34.7292 13.6292 34.6471C13.5514 34.4688 13.5077 34.2776 13.5005 34.0834C13.4927 33.837 13.5762 33.5964 13.7352 33.407Z" fill="#F2F2F2"/>
<path d="M14.75 33.2869C14.8273 33.2474 14.9129 33.2268 14.9999 33.2268C15.0453 33.2268 15.1134 33.2268 15.1134 33.2719V33.9182H15.1967C15.2361 33.9162 15.2742 33.9041 15.3074 33.883C15.3406 33.8619 15.3677 33.8326 15.386 33.798C15.4282 33.7184 15.4637 33.6354 15.492 33.55C15.5098 33.4491 15.5628 33.3576 15.6417 33.2917C15.7207 33.2257 15.8205 33.1894 15.9236 33.1892C15.9803 33.198 16.0345 33.2184 16.0826 33.2493C16.0213 33.3543 15.9778 33.4686 15.9539 33.5875C15.9539 33.6777 15.9161 33.7303 15.8782 33.7303C15.8403 33.7303 15.8252 33.7303 15.7646 33.6552C15.7378 33.6231 15.7001 33.6017 15.6586 33.5951C15.5905 33.5951 15.5678 33.6552 15.5299 33.7454C15.5055 33.8251 15.4612 33.8975 15.4012 33.9558C15.5782 34.0311 15.7296 34.1556 15.8371 34.3142C15.9445 34.4729 16.0035 34.659 16.0069 34.8502C16.0069 34.9028 16.0069 34.9253 15.9312 34.9253H15.7041C15.6283 34.9253 15.5905 34.8802 15.5905 34.79C15.5941 34.6384 15.5788 34.487 15.545 34.3391C15.4845 34.1287 15.3557 34.0159 15.2043 34.0159H15.1437V34.9253H14.962H14.7803L14.75 33.2869Z" fill="#F2F2F2"/>
<path d="M16.5976 33.3996C16.6785 33.3113 16.7763 33.2398 16.8853 33.1892C17.0255 33.2707 17.1488 33.3778 17.2488 33.5049C17.4065 33.6839 17.5044 33.9071 17.5289 34.1437C17.5086 34.2966 17.4546 34.4431 17.3709 34.573C17.2871 34.7029 17.1757 34.8129 17.0443 34.8953C16.9782 34.951 16.9007 34.992 16.8172 35.0155C16.749 35.0155 16.5522 34.8427 16.484 34.7675C16.3186 34.5987 16.2169 34.3783 16.1963 34.1437C16.2029 33.9978 16.2424 33.8552 16.3118 33.7264C16.3813 33.5977 16.4789 33.486 16.5976 33.3996ZM16.6582 34.3466C16.7869 34.512 16.9762 34.7374 17.0368 34.7374C17.0973 34.7374 17.1201 34.6848 17.1806 34.6247C17.2403 34.5503 17.27 34.4566 17.2639 34.3617C17.2351 34.1848 17.1593 34.0187 17.0443 33.8807C16.9156 33.7078 16.7263 33.4898 16.6657 33.4898C16.6052 33.4898 16.5825 33.5424 16.5219 33.6026C16.4622 33.677 16.4325 33.7707 16.4386 33.8656C16.4687 34.0421 16.5444 34.2078 16.6582 34.3466Z" fill="#F2F2F2"/>
<path d="M17.7559 33.2869C17.8331 33.2473 17.9188 33.2267 18.0057 33.2267C18.0512 33.2267 18.1193 33.2267 18.1193 33.2718V34.1887L18.6342 33.61V33.2869C18.7112 33.2468 18.7971 33.2261 18.8841 33.2267C18.9295 33.2267 18.9901 33.2267 18.9901 33.2718V34.9328H18.8083H18.6342V33.7679L18.1193 34.3466V34.9328H17.9376H17.7559V33.2869ZM18.1723 32.4376C18.1723 32.4376 18.1723 32.4827 18.1723 32.5278C18.1692 32.555 18.1716 32.5826 18.1796 32.6089C18.1875 32.6352 18.2007 32.6596 18.2184 32.6807C18.2361 32.7018 18.2579 32.7191 18.2825 32.7315C18.3071 32.744 18.334 32.7514 18.3616 32.7532C18.435 32.7482 18.5042 32.7175 18.5569 32.6666C18.6096 32.6157 18.6423 32.5478 18.6493 32.4752V32.415C18.6493 32.415 18.6948 32.415 18.6948 32.4977C18.6948 32.7307 18.5585 33.0238 18.2935 33.0238C18.2533 33.022 18.2139 33.012 18.1777 32.9945C18.1416 32.9771 18.1094 32.9524 18.0832 32.9222C18.0569 32.8919 18.0372 32.8567 18.0252 32.8186C18.0132 32.7805 18.0091 32.7403 18.0133 32.7006C18.0814 32.5503 18.1723 32.4376 18.1723 32.4376Z" fill="#F2F2F2"/>
<path d="M20.1033 33.2869C20.1803 33.2468 20.2662 33.2262 20.3532 33.2268C20.3986 33.2268 20.4667 33.2268 20.4667 33.2719V33.9182H20.5424C20.5822 33.9178 20.621 33.9063 20.6545 33.885C20.6879 33.8638 20.7147 33.8336 20.7317 33.798C20.7803 33.7215 20.8161 33.6377 20.8378 33.55C20.8572 33.4485 20.9117 33.3569 20.9918 33.291C21.072 33.2252 21.1728 33.1891 21.2769 33.1892C21.3336 33.198 21.3878 33.2184 21.4359 33.2493C21.3724 33.3541 21.3264 33.4683 21.2996 33.5875C21.2996 33.6777 21.2618 33.7303 21.2315 33.7303C21.2012 33.7303 21.1709 33.7303 21.1179 33.6552C21.1039 33.6382 21.0867 33.6241 21.0672 33.6138C21.0477 33.6035 21.0263 33.5971 21.0043 33.5951C20.9438 33.5951 20.921 33.6552 20.8832 33.7454C20.8558 33.8238 20.8119 33.8955 20.7545 33.9558C20.9268 34.0343 21.0756 34.156 21.1861 34.309C21.2933 34.47 21.3536 34.6573 21.3602 34.8502C21.3602 34.9028 21.3602 34.9253 21.2769 34.9253H21.0498C20.9816 34.9253 20.9438 34.8802 20.9438 34.79C20.9474 34.6384 20.9321 34.487 20.8983 34.3391C20.8302 34.1287 20.7015 34.0159 20.5576 34.0159H20.444V34.9253H20.2623H20.0806L20.1033 33.2869Z" fill="#F2F2F2"/>
<path d="M21.6175 33.2268C21.7917 33.2268 21.8901 33.2268 21.928 33.4147L22.246 34.7525C22.246 34.8126 22.246 34.8276 22.2914 34.8276C22.2914 34.6698 22.3368 34.4067 22.352 34.2639C22.4126 33.8356 22.511 33.1892 22.8593 33.1892C22.9433 33.1932 23.0256 33.2136 23.1016 33.2493C23.0402 33.3755 22.9969 33.5096 22.9729 33.6477C22.9729 33.6928 22.9729 33.7228 22.935 33.7228C22.8972 33.7228 22.8669 33.7228 22.8139 33.6401C22.7781 33.6087 22.7328 33.5902 22.6851 33.5875C22.5488 33.5875 22.4883 34.0911 22.4731 34.2339C22.458 34.3767 22.4126 34.7976 22.405 35.0531C22.3904 35.3426 22.36 35.6311 22.3141 35.9174C22.2399 35.9587 22.1568 35.9818 22.0718 35.985C22.0188 35.985 21.9431 35.985 21.9431 35.9475C21.9401 35.92 21.9401 35.8923 21.9431 35.8648C22.1116 35.5799 22.215 35.2618 22.246 34.9328H21.9885C21.875 34.9328 21.8447 34.9328 21.8219 34.7976L21.5494 33.6702C21.5494 33.6101 21.4812 33.4297 21.4509 33.332V33.2944C21.5039 33.2493 21.5645 33.2268 21.6175 33.2268Z" fill="#F2F2F2"/>
<path d="M23.3213 34.1961C23.4131 34.0025 23.5359 33.8248 23.6848 33.67L23.7454 33.5949C23.7501 33.56 23.7501 33.5246 23.7454 33.4897C23.7388 33.4186 23.7262 33.3482 23.7075 33.2792C23.7506 33.2518 23.8002 33.2362 23.8514 33.2341C24.018 33.2341 24.0785 33.2341 24.1012 33.3769C24.1877 33.7816 24.299 34.1807 24.4344 34.5719C24.4672 34.6624 24.4926 34.7554 24.5101 34.85C24.5101 34.9026 24.5101 34.9327 24.4344 34.9327H24.23C24.177 34.9327 24.1618 34.9327 24.124 34.7673C24.0331 34.5043 23.9422 34.1811 23.8438 33.7677C23.8438 33.7677 23.8059 33.7151 23.7984 33.7151C23.7908 33.7151 23.6999 33.8053 23.6697 33.8504C23.5825 33.9791 23.5375 34.1313 23.5409 34.2863C23.5465 34.3927 23.5617 34.4983 23.5864 34.602C23.607 34.6886 23.6222 34.7765 23.6318 34.865C23.6318 34.9101 23.6318 34.9327 23.5409 34.9327H23.2683C23.2229 34.9327 23.2002 34.9327 23.2002 34.835C23.1964 34.6161 23.2376 34.3987 23.3213 34.1961Z" fill="#F2F2F2"/>
<path d="M24.7449 33.2869C24.8219 33.2469 24.9078 33.2262 24.9948 33.2268C25.0402 33.2268 25.1083 33.2268 25.1083 33.2719V33.9634C25.1083 34.0009 25.1083 34.0385 25.1083 34.0385C25.1904 34.0326 25.2691 34.004 25.3355 33.9558C25.3809 33.92 25.4321 33.8921 25.4869 33.8732C25.5475 33.8732 25.6687 34.1437 25.7671 34.3542C25.8527 34.5163 25.9188 34.6878 25.964 34.8652C25.964 34.9329 25.911 34.9329 25.8428 34.9329H24.8585C24.7903 34.9329 24.7146 34.9329 24.7146 34.8502L24.7449 33.2869ZM25.1841 34.8277H25.4718C25.5399 34.8277 25.5854 34.8277 25.5854 34.7675C25.5674 34.6809 25.5368 34.5974 25.4945 34.5195C25.3885 34.279 25.3355 34.1813 25.2976 34.1663H25.2068C25.1235 34.1663 25.1083 34.1663 25.1083 34.2339V34.7976C25.1083 34.7976 25.1386 34.8277 25.1841 34.8277Z" fill="#F2F2F2"/>
<path d="M26.1606 33.2192H26.312H27.4478H27.6068C27.6674 33.2192 27.6901 33.2192 27.6901 33.2794C27.6965 33.3141 27.6965 33.3498 27.6901 33.3846C27.6325 33.4965 27.5893 33.6152 27.5614 33.7378C27.5614 33.7979 27.5614 33.8055 27.5084 33.8055C27.4554 33.8055 27.463 33.8055 27.4554 33.7303C27.4024 33.5048 27.3645 33.347 27.1828 33.347C27.1298 33.347 27.0844 33.347 27.0844 33.4447V34.9478H26.9027H26.7285V33.4447C26.7285 33.362 26.6831 33.347 26.6225 33.347C26.4408 33.347 26.4029 33.5048 26.3575 33.7303C26.3575 33.7829 26.3575 33.8055 26.2969 33.8055C26.2363 33.8055 26.259 33.8055 26.2439 33.7378C26.2151 33.6165 26.1745 33.4982 26.1228 33.3846C26.117 33.3497 26.117 33.3142 26.1228 33.2794C26.1228 33.2794 26.1 33.2192 26.1606 33.2192Z" fill="#F2F2F2"/>
<path d="M27.8645 33.2268C28.0387 33.2268 28.1371 33.2268 28.1749 33.4147L28.493 34.7525C28.493 34.8126 28.493 34.8276 28.5384 34.8276H28.5763C28.5763 34.6698 28.6217 34.4067 28.6368 34.2639C28.6974 33.8356 28.8034 33.1892 29.1441 33.1892C29.2281 33.1932 29.3105 33.2136 29.3864 33.2493C29.325 33.3755 29.2817 33.5096 29.2577 33.6477C29.2577 33.6928 29.2577 33.7228 29.2577 33.7228C29.2577 33.7228 29.1896 33.7228 29.1366 33.6401C29.1009 33.6087 29.0555 33.5902 29.0079 33.5875C28.8716 33.5875 28.811 34.0911 28.7958 34.2339C28.7807 34.3767 28.7353 34.7976 28.7277 35.0531C28.7131 35.3426 28.6827 35.6311 28.6368 35.9174C28.5629 35.9595 28.4797 35.9827 28.3945 35.985C28.3415 35.985 28.2658 35.985 28.2658 35.9475C28.2608 35.9201 28.2608 35.8921 28.2658 35.8648C28.4293 35.5783 28.5299 35.2607 28.5611 34.9328H28.3037C28.1901 34.9328 28.1598 34.9328 28.1371 34.7976L27.8645 33.6702C27.8645 33.6101 27.7964 33.4297 27.7661 33.332V33.2944C27.7509 33.2493 27.8191 33.2268 27.8645 33.2268Z" fill="#F2F2F2"/>
<path d="M29.7726 33.3922C29.8978 33.2693 30.066 33.1993 30.242 33.1968C30.3253 33.1968 30.4238 33.4373 30.4768 33.5951C30.5883 33.8583 30.6573 34.1373 30.6812 34.4218C30.6812 34.7375 30.5373 34.978 30.2572 34.978C30.1409 34.9807 30.0268 34.9465 29.9316 34.8803C29.9316 35.0381 29.9922 35.3012 29.9922 35.3613C29.9995 35.4998 29.968 35.6377 29.9013 35.7596C29.8689 35.8223 29.8216 35.8762 29.7636 35.9168C29.7056 35.9574 29.6385 35.9834 29.5681 35.9926C29.5612 35.9966 29.5534 35.9986 29.5454 35.9986C29.5374 35.9986 29.5296 35.9966 29.5227 35.9926C29.5227 35.9926 29.5606 35.925 29.5757 35.9099C29.632 35.8284 29.6587 35.7304 29.6514 35.6319C29.6331 35.3797 29.6002 35.1287 29.553 34.8803C29.5179 34.6639 29.4977 34.4455 29.4924 34.2264C29.4757 34.0755 29.4921 33.9229 29.5405 33.7789C29.5888 33.6349 29.668 33.503 29.7726 33.3922ZM29.7726 34.3091C29.8013 34.4451 29.8418 34.5784 29.8937 34.7074C29.9121 34.7485 29.9417 34.7837 29.9792 34.8089C30.0166 34.8342 30.0605 34.8485 30.1057 34.8502C30.2193 34.8502 30.295 34.7751 30.295 34.5872C30.2831 34.3298 30.2294 34.076 30.136 33.8356C30.136 33.7003 29.9997 33.3997 29.9392 33.3997C29.8786 33.3997 29.7196 33.5275 29.7196 33.8206C29.7305 33.9853 29.7559 34.1487 29.7953 34.3091H29.7726Z" fill="#F2F2F2"/>
<path d="M31.1051 33.3922C31.1679 33.3307 31.2425 33.2825 31.3245 33.2502C31.4064 33.2179 31.494 33.2023 31.5822 33.2043C31.673 33.2043 31.7942 33.2569 31.7942 33.302C31.7942 33.3471 31.726 33.5575 31.6352 33.5575C31.5721 33.5549 31.5103 33.5396 31.4534 33.5124C31.4061 33.5018 31.3569 33.5018 31.3096 33.5124C31.2263 33.5124 31.1581 33.6402 31.1581 33.8506C31.1581 33.8506 31.1581 34.061 31.2036 34.061C31.2948 34.0368 31.3835 34.004 31.4686 33.9633C31.5464 33.9279 31.6276 33.9003 31.7109 33.8807C31.7109 33.8807 31.7563 33.8807 31.7563 33.9483C31.7563 34.016 31.7563 34.1362 31.7109 34.1663C31.578 34.2314 31.4384 34.2818 31.2944 34.3166C31.2898 34.3246 31.2873 34.3337 31.2873 34.3429C31.2873 34.3521 31.2898 34.3612 31.2944 34.3692C31.2969 34.4432 31.3177 34.5155 31.355 34.5796C31.4232 34.6924 31.4837 34.7375 31.5519 34.7375C31.6519 34.7126 31.7402 34.6542 31.8017 34.5721C31.8017 34.5721 31.8017 34.5195 31.8623 34.5195C31.9229 34.5195 31.9229 34.5646 31.9229 34.5871C31.9229 34.6097 31.8245 34.7826 31.6957 34.8803C31.579 34.9583 31.4427 35.0026 31.302 35.008C31.1809 35.008 31.0748 34.8652 30.9916 34.7149C30.9014 34.5112 30.8549 34.2911 30.8553 34.0686C30.8469 33.9447 30.8648 33.8206 30.9079 33.704C30.9509 33.5875 31.0181 33.4813 31.1051 33.3922Z" fill="#F2F2F2"/>
<path d="M32.8618 33.2869C32.9389 33.2469 33.0247 33.2262 33.1117 33.2268C33.1571 33.2268 33.2253 33.2268 33.2253 33.2719V34.1888L33.7326 33.6101V33.2869C33.8098 33.2474 33.8955 33.2268 33.9824 33.2268C34.0279 33.2268 34.096 33.2268 34.096 33.2719V34.9329H33.9143H33.7326V33.7679L33.2253 34.3467V34.9329H33.0435H32.8618V33.2869Z" fill="#F2F2F2"/>
<path d="M35.3832 33.407C35.4866 33.2919 35.6298 33.2195 35.7845 33.2041C35.9056 33.2041 36.1176 33.3619 36.1176 33.4371C36.0739 33.5315 35.9991 33.6083 35.9056 33.655C35.9056 33.655 35.7996 33.5874 35.7618 33.5498C35.7239 33.5122 35.5876 33.4446 35.5876 33.4446C35.5876 33.4446 35.4665 33.5498 35.4665 33.7377C35.4662 33.9973 35.523 34.2538 35.633 34.4893C35.686 34.5795 35.7693 34.6772 35.8753 34.6772C35.9544 34.6598 36.0244 34.6143 36.0722 34.5494L36.1479 34.4893C36.1612 34.494 36.173 34.502 36.1822 34.5126C36.1915 34.5231 36.1979 34.5358 36.2009 34.5494C36.2009 34.6095 36.0798 34.7523 35.9813 34.835C35.8954 34.9136 35.7869 34.9635 35.6709 34.9778C35.5785 34.9601 35.4922 34.919 35.4206 34.8584C35.3489 34.7978 35.2943 34.7198 35.262 34.6321C35.1842 34.4538 35.1405 34.2626 35.1333 34.0684C35.1334 33.8252 35.2222 33.5903 35.3832 33.407Z" fill="#F2F2F2"/>
<path d="M36.3979 33.392C36.3979 33.2793 36.3979 33.2417 36.4888 33.2417H37.5337C37.6019 33.2417 37.617 33.2793 37.617 33.392V34.8951H37.4353H37.2611V33.392C37.2611 33.3169 37.2611 33.2868 37.1854 33.2868H36.8295C36.769 33.2868 36.7614 33.2868 36.7614 33.392V34.8951H36.5721H36.3979V33.392Z" fill="#F2F2F2"/>
<path d="M38.268 33.3996C38.321 33.347 38.5027 33.1892 38.5633 33.1892C38.702 33.2726 38.825 33.3795 38.9268 33.5049C39.0812 33.6859 39.1786 33.9081 39.2069 34.1437C39.1851 34.2961 39.1305 34.4421 39.0469 34.5718C38.9633 34.7014 38.8526 34.8117 38.7223 34.8953C38.6541 34.9479 38.5772 34.9886 38.4952 35.0155C38.366 34.96 38.2518 34.8751 38.162 34.7675C37.9965 34.5987 37.8949 34.3783 37.8743 34.1437C37.881 33.9986 37.9198 33.8568 37.9878 33.7282C38.0559 33.5997 38.1515 33.4875 38.268 33.3996ZM38.3362 34.3466C38.4573 34.512 38.6542 34.7374 38.7147 34.7374C38.7753 34.7374 38.798 34.6848 38.8586 34.6247C38.9127 34.5478 38.9393 34.4553 38.9343 34.3617C38.909 34.1838 38.8328 34.0168 38.7147 33.8807C38.5936 33.7078 38.3967 33.4898 38.3362 33.4898C38.2756 33.4898 38.2604 33.5424 38.1999 33.6026C38.1402 33.677 38.1105 33.7707 38.1166 33.8656C38.1435 34.043 38.2195 34.2095 38.3362 34.3466Z" fill="#F2F2F2"/>
<path d="M39.6688 33.3922C39.794 33.2693 39.9622 33.1993 40.1383 33.1968C40.2216 33.1968 40.32 33.4373 40.373 33.5951C40.4845 33.8583 40.5535 34.1373 40.5774 34.4218C40.5774 34.7375 40.426 34.978 40.1458 34.978C40.0321 34.9796 39.9207 34.9454 39.8278 34.8803C39.8278 35.0381 39.8884 35.3012 39.8884 35.3613C39.8957 35.4998 39.8643 35.6377 39.7975 35.7596C39.7651 35.8223 39.7179 35.8762 39.6598 35.9168C39.6018 35.9574 39.5347 35.9834 39.4644 35.9926C39.4575 35.9966 39.4496 35.9986 39.4417 35.9986C39.4337 35.9986 39.4259 35.9966 39.4189 35.9926C39.4189 35.9926 39.4568 35.925 39.4719 35.9099C39.5282 35.8284 39.5549 35.7304 39.5477 35.6319C39.5293 35.3797 39.4965 35.1287 39.4492 34.8803C39.4142 34.6639 39.3939 34.4455 39.3887 34.2264C39.372 34.0755 39.3884 33.9229 39.4367 33.7789C39.4851 33.6349 39.5643 33.503 39.6688 33.3922ZM39.6688 34.3091C39.6959 34.4447 39.7338 34.5779 39.7824 34.7074C39.8021 34.7475 39.832 34.7818 39.8692 34.8069C39.9064 34.8319 39.9496 34.8469 39.9944 34.8502C40.1156 34.8502 40.1913 34.7751 40.1913 34.5872C40.1793 34.3298 40.1256 34.076 40.0323 33.8356C40.0323 33.7003 39.896 33.3997 39.8354 33.3997C39.7748 33.3997 39.6158 33.5275 39.6158 33.8206C39.6268 33.9853 39.6521 34.1487 39.6915 34.3091H39.6688Z" fill="#F2F2F2"/>
<path d="M40.7744 33.2192H40.9259H42.0616H42.2207C42.2737 33.2192 42.3039 33.2192 42.3039 33.2794C42.3133 33.3138 42.3133 33.3501 42.3039 33.3846C42.2522 33.4982 42.2116 33.6165 42.1828 33.7378C42.1828 33.7979 42.1449 33.8055 42.1298 33.8055C42.1146 33.8055 42.0844 33.8055 42.0692 33.7303C42.0238 33.5048 41.9859 33.347 41.8042 33.347C41.7436 33.347 41.7058 33.347 41.7058 33.4447V34.9478H41.524H41.3423V33.4447C41.3423 33.362 41.3045 33.347 41.2439 33.347C41.0622 33.347 41.0243 33.5048 40.9713 33.7303C40.9713 33.7829 40.9713 33.8055 40.9183 33.8055C40.8653 33.8055 40.9183 33.8055 40.8653 33.7378C40.8364 33.6165 40.7959 33.4982 40.7441 33.3846C40.7348 33.3501 40.7348 33.3138 40.7441 33.2794C40.7441 33.2794 40.7139 33.2192 40.7744 33.2192Z" fill="#F2F2F2"/>
<path d="M42.4781 33.2268C42.6522 33.2268 42.7431 33.2268 42.7885 33.4147L43.1065 34.7525C43.1065 34.8126 43.1065 34.8276 43.152 34.8276C43.152 34.6698 43.1974 34.4067 43.2125 34.2639C43.2731 33.8356 43.3716 33.1892 43.7199 33.1892C43.8038 33.1932 43.8862 33.2136 43.9622 33.2493C43.8943 33.3728 43.8506 33.508 43.8334 33.6477C43.8334 33.6928 43.8334 33.7228 43.8334 33.7228C43.8334 33.7228 43.7653 33.7228 43.7123 33.6401C43.6766 33.6087 43.6312 33.5902 43.5836 33.5875C43.4473 33.5875 43.3867 34.0911 43.3716 34.2339C43.3564 34.3767 43.311 34.7976 43.2958 35.0531C43.2878 35.3427 43.26 35.6315 43.2125 35.9174C43.1383 35.9587 43.0553 35.9818 42.9702 35.985C42.9097 35.985 42.8415 35.985 42.8415 35.9475C42.8351 35.9203 42.8351 35.892 42.8415 35.8648C43.0197 35.5832 43.1287 35.2639 43.1595 34.9328H42.9021C42.7961 34.9328 42.7658 34.9328 42.7355 34.7976L42.4705 33.6702C42.4705 33.6101 42.4024 33.4297 42.3721 33.332V33.2944C42.4024 33.2493 42.4024 33.2268 42.4781 33.2268Z" fill="#F2F2F2"/>
<path d="M43.9697 27.1465H0.0378418V27.3344H43.9697V27.1465Z" fill="#F2F2F2"/>
</g>
<defs>
<clipPath id="clip0_216_267">
<rect width="44" height="36" fill="white"/>
</clipPath>
</defs>
</svg>
