<svg width="118" height="164" viewBox="0 0 118 164" fill="none" xmlns="http://www.w3.org/2000/svg">
<path d="M56.6393 164.006C87.0845 164.006 111.765 161.475 111.765 158.353C111.765 155.232 87.0845 152.701 56.6393 152.701C26.1942 152.701 1.51355 155.232 1.51355 158.353C1.51355 161.475 26.1942 164.006 56.6393 164.006Z" fill="#B7D9F4"/>
<path d="M88.3165 70.594C92.7893 69.7825 96.4038 67.9679 102.221 71.321C102.221 71.321 105.508 63.7583 103.407 60.7547C103.407 60.7547 99.8206 62.7102 97.1944 59.9376C96.1414 60.1895 95.0377 60.1302 94.0178 59.767C92.9979 59.4038 92.106 58.7523 91.4509 57.8919C89.8809 55.8857 92.4505 54.6178 92.4505 54.6178C92.4505 54.6178 93.5348 54.4318 93.1847 53.9359C92.411 52.8088 90.9257 51.7888 91.3775 50.5096C91.9422 48.819 95.6809 45.1391 98.9452 44.0515C100.267 43.6119 112.917 50.8139 113.188 52.9779C113.459 55.1419 119.864 71.0956 115.764 85.0149L112.77 86.976L113.736 88.1594H109.704L111.308 89.9514C111.308 89.9514 95.1161 94.8655 86.6392 88.7229L88.3165 70.594Z" fill="#9E5429"/>
<path d="M92.5352 52.4086C94.5853 48.9429 95.8842 47.2917 102.17 44.7389L100.323 43.6118C98.3534 44.0436 96.5151 44.9374 94.9604 46.2192C93.4057 47.501 92.1794 49.134 91.3831 50.9829C91.3 51.1556 91.2676 51.3484 91.2897 51.5388C91.3119 51.7291 91.3876 51.9094 91.5082 52.0586C91.6287 52.2078 91.7892 52.3198 91.971 52.3818C92.1527 52.4437 92.3484 52.453 92.5352 52.4086Z" fill="#C87D36"/>
<path d="M113.194 52.9723C112.923 50.7914 100.346 44.0797 98.9508 44.0459C98.0359 44.0459 98.0076 44.6094 98.9508 44.6094C100.176 44.5644 109.387 52.1044 109.63 54.0317C109.873 55.959 115.526 70.0249 111.889 82.3156L109.252 84.0456L110.099 85.3699H106.541L107.959 86.6322C107.959 86.6322 94.5739 90.6108 86.9271 85.9842L86.6504 88.7342C95.1217 94.8768 111.319 89.9627 111.319 89.9627L109.715 88.1707H113.747L112.782 86.9873L115.775 85.0262C119.869 71.0956 113.471 55.1588 113.194 52.9723Z" fill="#713915"/>
<path d="M97.7027 59.9378C96.6496 60.1898 95.5459 60.1305 94.526 59.7673C93.5062 59.404 92.6143 58.7525 91.9591 57.8922C91.7822 57.7078 91.6462 57.4883 91.5599 57.2479C91.4735 57.0076 91.4388 56.7519 91.458 56.4973C91.4772 56.2428 91.5498 55.9951 91.6712 55.7703C91.7925 55.5456 91.9599 55.3489 92.1624 55.1929C94.365 56.8835 99.5663 55.3901 99.5663 55.3901C102.187 58.1627 103.057 57.0018 103.057 57.0018C103.841 58.1108 104.212 59.4582 104.107 60.8113C103.288 61.172 99.9221 62.316 97.7027 59.9378Z" fill="#6E3B19"/>
<path d="M97.81 92.5266C93.6873 92.5266 89.4065 91.7771 86.1422 89.4103L85.7412 89.1229L87.5371 69.8782L88.853 69.6358C92.7781 68.9145 96.5111 67.3197 101.797 70.1148C102.627 67.9227 103.779 63.9949 103.023 61.876C102.01 62.2787 100.906 62.3971 99.8312 62.2182C98.7559 62.0394 97.7503 61.5702 96.9234 60.8616C95.7723 61.0551 94.5902 60.9287 93.5064 60.4963C92.4226 60.0639 91.4789 59.3422 90.7788 58.4102C90.4996 58.0956 90.2972 57.7207 90.1875 57.315C90.0777 56.9092 90.0636 56.4836 90.1463 56.0716C90.299 55.5947 90.5468 55.1537 90.8749 54.775C91.2029 54.3963 91.6044 54.0878 92.0552 53.8681C91.993 53.7892 91.9253 53.716 91.8575 53.6371C91.0781 52.7523 90.1124 51.6534 90.5812 50.2559C91.2871 48.1426 95.3477 44.3669 98.6967 43.2568C100.391 42.6932 107.806 47.348 108.122 47.5509C113.849 51.1463 114.013 52.4593 114.064 52.8876C114.103 53.2032 114.357 54.071 114.628 55.0741C116.249 60.6024 120.044 73.5468 116.588 85.274L116.498 85.5783L113.956 87.2689L115.306 89.0553H111.624L112.816 90.3908L111.579 90.8022C107.074 91.9209 102.452 92.4998 97.81 92.5266ZM87.5371 88.3001C94.286 92.7521 105.92 90.5543 109.76 89.5061L107.784 87.2914H112.16L111.596 86.7279L115.029 84.4737C118.192 73.3045 114.549 60.8729 112.985 55.5362C112.723 54.7321 112.508 53.9136 112.341 53.0848C111.878 51.3942 101.046 45.0263 99.1429 44.891C96.0536 45.9617 92.6482 49.4331 92.1964 50.78C92.0495 51.2252 92.4731 51.7549 93.1339 52.51C93.3936 52.8087 93.6647 53.113 93.8963 53.4398C94.0168 53.5989 94.0928 53.7871 94.1166 53.9851C94.1404 54.1831 94.1112 54.3839 94.0318 54.5669C93.9017 54.8025 93.7188 55.0049 93.4974 55.1583C93.276 55.3118 93.0221 55.4122 92.7555 55.4517C92.3317 55.6738 92.0013 56.0395 91.8236 56.4829C91.8236 56.5787 91.7333 56.8774 92.1342 57.3846C92.6826 58.1103 93.43 58.662 94.2858 58.973C95.1417 59.284 96.0696 59.3411 96.9572 59.1372L97.4599 58.9907L97.8213 59.3682C99.9618 61.6224 102.961 60.0445 102.994 60.0276L103.667 59.6556L104.107 60.2868C106.423 63.5835 103.362 70.8643 102.978 71.6871L102.594 72.5662L101.758 72.0872C99.6737 70.8813 89.5533 70.3572 89.4516 70.3966H89.3952L87.5371 88.3001Z" fill="#372420"/>
<path d="M102.752 83.488C98.7023 78.2414 100.577 73.0287 101.379 70.8028C101.441 70.6168 101.504 70.4534 101.549 70.3125L103.181 70.876C103.13 71.0282 103.068 71.2085 102.994 71.4396C102.232 73.5641 100.639 77.9935 104.124 82.4961L102.752 83.488Z" fill="#372420"/>
<path d="M98.6007 47.7876C98.6007 47.7876 94.3255 50.9547 94.5966 53.0003C94.7434 54.0879 95.0766 55.401 96.0988 55.818C97.3187 56.297 98.4878 55.6996 99.6399 55.5531" fill="#9E592A"/>
<path d="M97.0984 56.838C96.6485 56.8395 96.2022 56.7573 95.7825 56.5957C94.1278 55.9476 93.8398 53.8174 93.7438 53.113C93.4218 50.6898 97.3074 47.6749 98.0867 47.1001L99.1089 48.4639C97.5502 49.5909 95.3081 51.8451 95.4493 52.8763C95.6131 54.0936 95.935 54.8036 96.4094 54.984C97.0752 55.1612 97.7797 55.1277 98.4256 54.8882C98.7887 54.7965 99.1563 54.7232 99.5268 54.6684L99.7471 56.359C99.4367 56.402 99.1293 56.4641 98.8266 56.5449C98.2644 56.7117 97.6842 56.8101 97.0984 56.838Z" fill="#372420"/>
<path d="M107.213 52.296C107.213 52.296 105.688 53.6147 105.344 54.4994C105.617 54.8858 105.745 55.356 105.705 55.8272C105.664 56.2984 105.459 56.7403 105.124 57.0748C104.141 58.0328 102.181 57.8525 101.227 57.1762C100.097 56.3704 99.6963 55.6152 99.6285 53.9754C99.5608 52.3355 103.017 49.8672 103.017 49.8672" fill="#9E592A"/>
<path d="M103.192 58.6076C102.317 58.6188 101.46 58.3675 100.73 57.8863C99.3575 56.917 98.8492 55.9083 98.7701 54.0261C98.6911 52.1439 101.628 49.8221 102.531 49.1797L103.531 50.5716C102.034 51.6423 100.453 53.254 100.487 53.9528C100.543 55.4068 100.86 55.8801 101.724 56.4887C102.356 56.9396 103.864 57.1086 104.548 56.4887C104.74 56.298 104.858 56.0444 104.879 55.7743C104.899 55.5042 104.822 55.2357 104.661 55.0179L104.412 54.646L104.565 54.2233C104.965 53.1864 106.389 51.9185 106.671 51.6761L107.801 52.9723C107.262 53.4374 106.776 53.9588 106.349 54.5276C106.6 55.0543 106.676 55.6465 106.569 56.2194C106.461 56.7924 106.175 57.3167 105.75 57.7172C105.046 58.3338 104.128 58.6531 103.192 58.6076Z" fill="#372420"/>
<path d="M97.1379 56.9508C97.3454 57.3003 97.4473 57.7022 97.4312 58.1081C97.4152 58.514 97.282 58.9067 97.0475 59.2388C95.4323 61.7691 91.784 59.0021 91.1515 56.9508C90.694 55.4631 92.5351 53.8232 94.1221 54.4149C95.4888 54.9221 96.0649 55.9647 97.1379 56.9508Z" fill="#9E5429"/>
<path d="M95.2855 61.1098C95.1343 61.1095 94.9833 61.0982 94.8337 61.076C92.8006 60.8055 90.8239 58.8218 90.3156 57.2045C90.1789 56.6956 90.188 56.1586 90.3417 55.6546C90.4954 55.1506 90.7877 54.6996 91.1854 54.353C91.5978 53.9399 92.1185 53.6511 92.6878 53.5195C93.2571 53.388 93.852 53.419 94.4045 53.6091C95.3864 54.0174 96.2476 54.6692 96.9063 55.5026C97.1548 55.7731 97.4146 56.0662 97.7026 56.3254L97.8269 56.4663C98.1307 56.9543 98.2856 57.5201 98.2726 58.0945C98.2595 58.6689 98.0792 59.2271 97.7535 59.701C97.5007 60.1299 97.14 60.4855 96.7071 60.7327C96.2742 60.9798 95.7842 61.1098 95.2855 61.1098ZM93.4274 55.1476C93.0336 55.1635 92.6594 55.324 92.377 55.5984C92.2089 55.7285 92.081 55.9033 92.0081 56.1027C91.9351 56.3021 91.9201 56.518 91.9647 56.7255C92.2979 57.7906 93.7889 59.2389 95.0596 59.4079C95.3058 59.4557 95.5609 59.4228 95.7868 59.3141C96.0127 59.2055 96.1974 59.0269 96.3133 58.8049C96.4493 58.6226 96.5336 58.4071 96.5574 58.181C96.5813 57.955 96.5438 57.7267 96.4489 57.5201C96.1552 57.2327 95.8841 56.9565 95.6469 56.686C95.1705 56.0507 94.5385 55.5481 93.8115 55.2265C93.6891 55.1781 93.5591 55.1514 93.4274 55.1476Z" fill="#372420"/>
<path d="M29.6892 70.2785C25.2163 69.4613 21.5962 67.968 15.7849 71.321C15.7849 71.321 12.4924 63.7584 14.5989 60.7547C14.5989 60.7547 18.1851 62.7102 20.8112 59.9376C21.8626 60.1872 22.964 60.1267 23.9816 59.7636C24.9992 59.4004 25.8892 58.7502 26.5435 57.892C28.1135 55.8858 25.5382 54.6178 25.5382 54.6178C25.5382 54.6178 24.4595 54.4319 24.804 53.936C25.5778 52.8089 27.0631 51.7889 26.6169 50.5097C26.0522 48.8191 22.3078 45.1392 19.0492 44.0515C17.7277 43.612 5.08278 50.7971 4.80605 52.9723C4.52932 55.1476 -1.86936 71.0956 2.25901 85.0149L5.25221 86.976L4.25824 88.475L8.29059 88.1538L6.68669 89.9458C6.68669 89.9458 22.8782 94.8599 31.3552 88.7173L29.6892 70.2785Z" fill="#9E5429"/>
<path d="M6.45514 54.5389C6.72622 52.3581 19.3767 45.173 20.7039 45.6125C22.2814 46.2094 23.7389 47.0836 25.0074 48.1935C23.4882 46.5536 21.1727 44.756 19.0548 44.0515C17.7277 43.612 5.08278 50.7971 4.80605 52.9723C4.52932 55.1476 -1.86936 71.0956 2.25901 85.0149L3.74996 85.9955C-0.0339012 72.217 6.21229 56.6916 6.45514 54.5389Z" fill="#C87D36"/>
<path d="M7.54518 86.5141L9.14344 84.722H5.11673L6.07682 83.2174L3.08926 81.2619C0.926249 73.9303 -0.400926 76.0774 2.25907 85.0151L5.25228 86.9762L4.25831 88.4752L8.29066 88.1539L6.68675 89.946C5.47818 89.5459 24.0869 94.7811 31.3553 89.5177L31.0616 86.4972C24.7137 90.0925 5.17886 85.7251 7.54518 86.5141Z" fill="#6E3B19"/>
<path d="M20.8056 59.9378C21.8578 60.1886 22.9604 60.1287 23.9791 59.7655C24.9978 59.4024 25.8888 58.7515 26.5435 57.8922C26.7204 57.7078 26.8564 57.4883 26.9427 57.2479C27.0291 57.0076 27.0638 56.7519 27.0446 56.4973C27.0254 56.2428 26.9528 55.9951 26.8314 55.7703C26.7101 55.5456 26.5427 55.3489 26.3402 55.1929C24.132 56.8835 18.9363 55.3901 18.9363 55.3901C16.3101 58.1627 15.4461 57.0018 15.4461 57.0018C14.66 58.1101 14.2865 59.4575 14.39 60.8113C15.1919 61.172 18.5522 62.316 20.8056 59.9378Z" fill="#6E3B19"/>
<path d="M18.8516 71.7382C17.7769 71.142 16.5457 70.8865 15.3219 71.0056C18.1456 73.2203 17.4228 79.1374 15.192 82.6539C15.3162 82.5863 15.0734 83.0596 15.192 83.0765L15.4122 83.3019C17.2646 82.8455 21.1614 79.1938 21.393 76.4437C21.5197 75.4923 21.3422 74.5252 20.8859 73.6803C20.4296 72.8354 19.7177 72.1558 18.8516 71.7382Z" fill="#6E3B19"/>
<path d="M20.1901 92.5268C15.5444 92.4857 10.9203 91.8916 6.41567 90.7573L5.17886 90.3459L6.37049 89.0385L2.68829 89.3654L4.0437 87.2578L1.49665 85.5672L1.40629 85.2628C-2.05001 73.5357 1.74515 60.5913 3.36599 55.063C3.65967 54.0599 3.93075 53.1921 3.93075 52.8765C3.98723 52.4482 4.151 51.1352 9.87762 47.5342C10.1939 47.3369 17.6261 42.6878 19.3034 43.2457C22.6467 44.3727 26.7073 48.1315 27.4133 50.2448C27.8877 51.6592 26.9163 52.7581 26.1369 53.626L25.9393 53.857C26.388 54.0784 26.7871 54.3883 27.1123 54.768C27.4375 55.1477 27.682 55.5893 27.8312 56.0661C27.9139 56.4782 27.8998 56.9038 27.79 57.3095C27.6803 57.7152 27.4779 58.0901 27.1987 58.4048C26.5016 59.3344 25.562 60.0552 24.4824 60.4885C23.4029 60.9218 22.2248 61.0509 21.0767 60.8618C20.2495 61.5661 19.245 62.0313 18.172 62.2071C17.0989 62.3829 15.9981 62.2626 14.9887 61.8592C14.2375 63.9781 15.384 67.906 16.2142 70.0981C21.5003 67.2804 25.2503 68.5766 29.1584 69.3035L30.4799 69.5459L32.2589 89.1174L31.8636 89.4048C28.5993 91.7773 24.3128 92.5268 20.1901 92.5268ZM8.22854 89.5063C12.0689 90.5713 23.7028 92.7522 30.4517 88.3003L28.8986 71.0054H28.8421C24.7363 70.2446 21.4495 69.0556 16.2142 72.0761L15.3783 72.5551L14.9943 71.676C14.6385 70.8533 11.5775 63.5724 13.893 60.2757L14.3335 59.6445L15.0113 60.0165C15.1299 60.0785 18.0553 61.6056 20.1788 59.3571L20.5402 58.9796L21.0428 59.1261C21.9313 59.3319 22.8606 59.2758 23.7178 58.9647C24.5749 58.6535 25.3231 58.1008 25.8715 57.3735C26.2668 56.8663 26.1991 56.5676 26.1765 56.4718C26.0005 56.0273 25.6696 55.6611 25.2446 55.4406C24.978 55.4011 24.7241 55.3007 24.5027 55.1472C24.2813 54.9938 24.0984 54.7914 23.9683 54.5558C23.8897 54.3723 23.8614 54.1713 23.8862 53.9732C23.911 53.7752 23.988 53.5873 24.1095 53.4287C24.3377 53.1082 24.5847 52.8015 24.8493 52.5102C25.5101 51.755 25.9336 51.2253 25.7811 50.7801C25.335 49.4333 21.9239 45.9619 18.8346 44.8912C16.9427 45.0264 6.122 51.4169 5.64761 53.1019C5.48617 53.9259 5.27303 54.739 5.00943 55.5364C3.45071 60.8618 -0.191964 73.3046 2.97067 84.4739L6.40438 86.728L5.83962 87.6241L10.2165 87.2972L8.22854 89.5063Z" fill="#372420"/>
<path d="M15.2484 83.4877L13.8817 82.4395C17.355 77.9312 15.768 73.5075 15.0112 71.3829C14.9435 71.1801 14.8757 70.9997 14.8249 70.8194L16.457 70.2559L16.6321 70.7461C17.4227 73.0285 19.2977 78.2412 15.2484 83.4877Z" fill="#372420"/>
<path d="M19.405 47.7876C19.405 47.7876 23.6802 50.9547 23.4035 53.0003C23.2566 54.0879 22.9234 55.401 21.9069 55.818C20.6813 56.297 19.5179 55.6996 18.3658 55.5531" fill="#9E592A"/>
<path d="M20.8959 56.8379C20.3092 56.8173 19.7271 56.7265 19.1621 56.5674C18.8612 56.4872 18.5556 56.4251 18.2472 56.3815L18.4618 54.6909C18.8419 54.7444 19.2189 54.8177 19.5913 54.9107C20.2353 55.1501 20.9379 55.1836 21.6018 55.0065C22.0762 54.8261 22.3981 54.1161 22.5619 52.8988C22.7031 51.845 20.461 49.6416 18.9023 48.4864L19.9245 47.1113C20.7095 47.6749 24.5894 50.701 24.2675 53.1242C24.1715 53.8287 23.8891 55.9419 22.2287 56.6069C21.8031 56.7675 21.3508 56.8459 20.8959 56.8379Z" fill="#372420"/>
<path d="M10.7925 52.296C10.7925 52.296 12.3173 53.6147 12.6562 54.4994C12.3846 54.8868 12.2584 55.3572 12.2997 55.8281C12.341 56.299 12.5472 56.7404 12.8821 57.0748C13.8647 58.0328 15.8245 57.8525 16.7789 57.1762C17.9084 56.3704 18.3094 55.6152 18.3771 53.9754C18.4449 52.3355 14.9886 49.8672 14.9886 49.8672" fill="#9E592A"/>
<path d="M14.8078 58.6076C13.8791 58.6399 12.9734 58.3151 12.2777 57.7003C11.8574 57.2967 11.5763 56.7705 11.4748 56.1973C11.3733 55.6241 11.4567 55.0336 11.713 54.5107C11.2746 53.9463 10.7766 53.4305 10.2277 52.9723L11.3572 51.6761C11.6395 51.9185 13.0514 53.1864 13.4637 54.2233L13.6331 54.6516L13.3677 55.0235C13.2085 55.2415 13.1329 55.5092 13.1547 55.7781C13.1764 56.0469 13.2941 56.2991 13.4863 56.4887C14.1414 57.1255 15.6493 56.9565 16.2818 56.4887C17.1459 55.8801 17.4622 55.4068 17.5243 53.9528C17.5525 53.254 15.9712 51.6423 14.4803 50.5716L15.4742 49.1797C16.3778 49.8221 19.3202 52.0763 19.2412 54.0205C19.1621 55.9647 18.6369 56.917 17.2758 57.875C16.5449 58.3597 15.6853 58.6148 14.8078 58.6076Z" fill="#372420"/>
<path d="M20.8959 56.9508C20.6885 57.3006 20.5872 57.7029 20.6043 58.109C20.6213 58.5151 20.756 58.9075 20.9919 59.2388C22.6015 61.7691 26.2498 59.0021 26.8823 56.9508C27.3454 55.4631 25.4987 53.8232 23.9173 54.4149C22.5111 54.9221 21.9351 55.9647 20.8959 56.9508Z" fill="#9E5429"/>
<path d="M22.7145 61.1098C22.2139 61.1117 21.7215 60.9827 21.2865 60.7355C20.8514 60.4883 20.489 60.1316 20.2352 59.701C19.9095 59.2271 19.7291 58.6689 19.7161 58.0945C19.7031 57.5201 19.8579 56.9543 20.1618 56.4663L20.286 56.3254C20.5741 56.0549 20.8508 55.7618 21.0823 55.5026C21.7416 54.6673 22.6051 54.0153 23.5898 53.6091C24.1423 53.419 24.7372 53.388 25.3065 53.5195C25.8758 53.6511 26.3965 53.9399 26.809 54.353C27.2056 54.7003 27.4968 55.1515 27.6495 55.6555C27.8022 56.1595 27.8104 56.6961 27.673 57.2045C27.176 58.8162 25.205 60.8055 23.155 61.076C23.0091 61.0977 22.8619 61.109 22.7145 61.1098ZM21.5511 57.4806C21.4579 57.6877 21.4214 57.9156 21.4452 58.1413C21.469 58.367 21.5523 58.5823 21.6866 58.7655C21.8032 58.9868 21.988 59.1649 22.2138 59.2734C22.4395 59.382 22.6942 59.4153 22.9404 59.3685C24.2111 59.1938 25.7077 57.7511 26.0352 56.686C26.0772 56.479 26.0615 56.2645 25.9898 56.0658C25.9181 55.8671 25.7932 55.6918 25.6286 55.559C25.4404 55.3799 25.2075 55.2546 24.9541 55.1961C24.7008 55.1376 24.4364 55.1481 24.1885 55.2265C23.4643 55.5449 22.8328 56.0412 22.353 56.6691C22.1045 56.9171 21.8504 57.2045 21.5511 57.4806Z" fill="#372420"/>
<path d="M87.6557 17.0411C87.678 14.8198 86.9438 12.6568 85.5732 10.9062C84.2027 9.15563 82.2771 7.9213 80.1117 7.40536C77.9464 6.88941 75.6696 7.12243 73.6543 8.06625C71.639 9.01007 70.0046 10.6087 69.0187 12.6005C66.2469 11.0051 63.1885 9.96742 60.0165 9.54612C54.4028 8.75717 49.9865 10.1773 45.4967 12.8823C44.3898 11.0375 42.7057 9.60709 40.7038 8.81159C38.7019 8.0161 36.4934 7.89965 34.4186 8.48017C32.3438 9.0607 30.518 10.306 29.2225 12.0241C27.9269 13.7422 27.2336 15.8378 27.2494 17.9879C27.3059 22.885 31.0615 26.7001 35.4722 27.568C32.8461 32.8032 32.6993 53.7104 30.124 56.421L34.5573 58.6751L31.4117 62.0958L37.9063 64.4852L34.0039 66.311C42.3566 75.7615 56.4755 98.2015 56.4755 98.2015C56.4755 98.2015 77.0552 75.3276 81.7709 67.0549L76.7728 64.3668L82.8496 62.4057L81.4659 59.6782L84.894 57.1085C80.7939 53.8343 81.9573 29.298 79.19 26.6212C83.6572 25.8267 87.5992 21.9777 87.6557 17.0411Z" fill="#9E5429"/>
<path d="M33.6481 62.5523L36.7938 59.126L32.3604 56.8719C34.9357 54.1613 35.0769 33.2598 37.7087 28.0189C33.2979 27.1792 31.4964 27.1792 35.924 28.0189C33.3205 33.2147 33.1511 54.0993 30.5758 56.8268L35.0091 59.081L31.8634 62.5523H33.6481Z" fill="#C87D36"/>
<path d="M79.3312 8.00805C77.2504 7.60144 75.0923 7.96231 73.258 9.02364C71.4236 10.085 70.0377 11.7746 69.3577 13.7787C69.5384 13.897 69.7078 14.0153 69.8716 14.1337C70.7912 12.4672 72.231 11.1459 73.972 10.3706C75.713 9.59526 77.6601 9.40831 79.5174 9.83813C81.3746 10.268 83.0404 11.2911 84.2617 12.752C85.4829 14.2128 86.1928 16.0316 86.2834 17.9319C86.6342 15.7019 86.1062 13.423 84.8101 11.573C83.5141 9.72289 81.5506 8.44531 79.3312 8.00805Z" fill="#C87D36"/>
<path d="M28.1982 18.0333C28.5091 15.8262 29.6854 13.8325 31.4688 12.4905C33.2521 11.1484 35.4965 10.5679 37.7087 10.8764C41.6281 11.4399 42.0347 11.8682 42.4244 15.627C42.8705 11.1582 42.2041 9.80568 37.7087 9.18015C36.4446 8.998 35.1555 9.10636 33.9397 9.49695C32.724 9.88754 31.6137 10.5501 30.6935 11.4339C29.7734 12.3178 29.0678 13.3998 28.6304 14.5972C28.1931 15.7946 28.0356 17.0759 28.17 18.3432C28.1813 18.2362 28.1869 18.1235 28.1982 18.0333Z" fill="#C87D36"/>
<path d="M42.4245 16.1454C43.4924 15.1579 44.6801 14.3079 45.9598 13.6152C43.6387 10.5326 39.0021 7.77695 34.8737 8.90965C34.1342 9.11199 33.4227 9.40541 32.7559 9.78313C36.2686 9.76059 40.6624 13.232 42.4245 16.1454Z" fill="#713915"/>
<path d="M87.6557 17.0412C87.6686 15.3293 87.2318 13.6439 86.3888 12.1529C85.5459 10.6618 84.3262 9.41712 82.8512 8.54272C81.3762 7.66831 79.6975 7.19471 77.982 7.16907C76.2665 7.14343 74.5743 7.56664 73.0737 8.39657C73.9782 8.39635 74.8786 8.51766 75.7507 8.75723C77.8249 9.34076 79.6499 10.5874 80.9455 12.3058C82.2412 14.0241 82.9359 16.1193 82.9231 18.2697C82.8666 23.2119 78.4897 25.7647 74.0169 26.5593C76.7842 29.2305 75.6208 53.7724 79.7265 57.0466L76.2928 59.6106L78.1113 63.6399L82.844 62.4058L81.4604 59.6783L84.8884 57.1085C80.7883 53.8344 81.9517 29.2981 79.1844 26.6213C83.6573 25.8267 87.5992 21.9778 87.6557 17.0412Z" fill="#713915"/>
<path d="M56.3626 99.6499L55.7414 98.6581C55.6002 98.4271 41.1086 76.3308 32.897 67.0438L32.1177 66.159L35.6417 64.6149L29.7683 62.6426L33.1568 58.9289L28.7122 56.6353L29.5198 55.79C30.6493 54.6066 31.3891 47.7991 31.9934 42.3271C32.5977 36.8552 33.2246 31.186 34.3089 28.126C32.079 27.498 30.1088 26.1748 28.6863 24.3498C27.2637 22.5248 26.4634 20.2936 26.4023 17.9824C26.4037 15.6472 27.1665 13.3759 28.5755 11.5114C29.9845 9.64696 31.9633 8.29059 34.2129 7.64717C36.3277 7.04816 38.5767 7.11895 40.6495 7.84976C42.7222 8.58058 44.5165 9.93538 45.7848 11.7272C50.6812 8.9433 55.0467 7.97965 60.1521 8.69534C63.1435 9.0917 66.0406 10.0152 68.7082 11.4229C69.9243 9.42955 71.7623 7.88943 73.94 7.03878C76.1178 6.18812 78.5152 6.0739 80.7643 6.71365C83.0134 7.3534 84.99 8.71178 86.3909 10.5804C87.7919 12.449 88.5397 14.7246 88.5198 17.0582C88.4633 21.6905 85.0974 25.8606 80.5116 27.2018C81.3643 29.3207 81.7427 33.4965 82.2058 39.4869C82.7706 46.3451 83.4426 54.8771 85.408 56.4493L86.2777 57.1425L82.5334 59.9601L84.0639 62.9751L77.8177 64.7558L83.0247 66.576L82.4939 67.5059C77.7951 75.756 57.9439 97.8128 57.1081 98.7877L56.3626 99.6499ZM35.4667 66.638C42.8085 75.2996 53.8382 92.3803 56.6055 96.759C60.1917 92.5381 75.6434 75.3728 80.4946 67.551L74.6381 63.6062L81.6354 61.8705L80.3986 59.4248L83.6573 56.9847C81.8557 54.4037 81.2344 48.2781 80.5398 39.6109C80.1332 34.5391 79.6249 28.2162 78.614 27.2131L77.3715 26.0748L79.0206 25.7817C83.3975 24.9984 86.7352 21.2396 86.786 17.03C86.7977 15.0111 86.1249 13.0476 84.8769 11.4585C83.6289 9.86935 81.8791 8.74801 79.9117 8.27665C77.9443 7.80529 75.875 8.01161 74.0399 8.86208C72.2049 9.71255 70.712 11.1572 69.8038 12.9613L69.3915 13.7897L68.5952 13.3107C65.921 11.7762 62.9725 10.777 59.9149 10.369C54.979 9.68153 50.7602 10.7015 45.9598 13.5925L45.22 14.0884L44.7795 13.3501C43.7748 11.6599 42.2377 10.3491 40.4079 9.62221C38.5781 8.89535 36.5587 8.79335 34.6647 9.33214C32.7833 9.87174 31.1284 11.0064 29.949 12.5654C28.7696 14.1244 28.1294 16.0234 28.1248 17.9768C28.1851 20.0723 28.9664 22.0832 30.3373 23.6718C31.7082 25.2604 33.5852 26.3298 35.653 26.7003L36.7825 26.9144L36.2743 27.9288C35.0657 30.3407 34.3823 36.5396 33.7216 42.53C32.9704 49.2924 32.4 53.9078 31.3835 56.0548L35.9862 58.4273L33.106 61.5549L38.6858 63.3583L35.4667 66.638Z" fill="#372420"/>
<path d="M48.7102 77.4015C49.6138 77.0408 50.54 76.7083 51.4944 76.4209C51.4944 76.4209 58.5087 86.3504 58.6273 91.2419C58.6273 91.2419 52.6183 96.8378 51.1273 105.234C49.5912 104.767 48.0042 104.254 46.3721 103.69C47.7501 95.0852 53.9398 89.3259 53.9398 89.3259C53.8607 86.1193 50.828 80.7207 48.7102 77.4015Z" fill="#6E3B19"/>
<path d="M53.6687 80.9574L51.5227 77.1028L45.4798 79.6725L44.4689 74.1104L46.1575 73.8061L46.79 77.255L52.2738 74.9163L54.2335 78.4328L58.5143 75.3221L61.5979 78.0158L64.0489 75.4855L67.9571 76.2406L68.9171 73.0566L71.5828 73.2257L69.4819 78.2299L64.8227 77.3508L61.8916 80.546L58.4127 77.5142L53.6687 80.9574Z" fill="#372420"/>
<path d="M62.812 5.76517L61.2816 9.96914C60.0391 6.84152 58.5707 3.43213 56.035 1.51611L54.7304 9.26472C53.7166 7.28477 52.2525 5.56906 50.4552 4.25489L50.1785 11.0906L65.2687 11.8344C65.3365 9.5803 62.812 5.76517 62.812 5.76517Z" fill="#9E5429"/>
<path d="M53.1944 10.5327L54.3634 10.3016L53.7986 7.68118C52.8701 6.37389 51.7442 5.21807 50.4609 4.25488L50.7941 7.29797C51.7316 8.26763 52.5384 9.35501 53.1944 10.5327Z" fill="#713915"/>
<path d="M63.4277 11.1187L65.122 11.6823C65.1897 9.38304 62.863 5.07764 62.863 5.07764L61.9819 8.08691C62.5201 9.06985 63.0028 10.082 63.4277 11.1187Z" fill="#713915"/>
<path d="M59.0904 10.3523L60.9823 10.465L60.9258 9.08431C59.7511 6.19901 58.3336 3.25172 56.035 1.53857V4.80708C57.6559 6.49205 58.1303 8.02486 59.0904 10.3523Z" fill="#713915"/>
<path d="M60.9597 25.4998L59.3896 23.9501C61.6487 21.6621 64.5741 20.6816 67.3696 21.2789L66.9122 23.4372C64.8678 23.0033 62.6878 23.7528 60.9597 25.4998Z" fill="#372420"/>
<path d="M50.314 25.3592C48.9134 24.1589 45.5023 23.77 43.7967 25.0098L42.4978 23.2234C45.1804 21.2679 49.6646 21.8653 51.7598 23.6686L50.314 25.3592Z" fill="#372420"/>
<path d="M52.9007 62.0846C53.9963 63.4991 58.0625 65.1108 61.5075 64.9023C68.8494 64.4345 71.2835 57.4692 71.2835 57.4692C75.6038 56.8606 79.19 53.8401 79.6701 48.5654C80.0936 44.1191 77.8346 40.349 73.3505 39.391C69.2955 37.8977 68.0192 40.4505 60.8411 36.9453C55.2331 34.1896 46.8126 36.0662 44.8021 38.1344C39.3239 38.7711 36.1839 40.6139 34.9584 46.2098C34.3428 49.0275 34.2016 50.4476 35.2351 52.7017C35.4942 52.1625 35.8352 51.6664 36.246 51.2309C37.24 56.9902 42.3962 59.8755 45.9372 60.3715L52.9007 62.0846Z" fill="#E9BC6D"/>
<path d="M73.3504 39.3743C72.0852 38.9208 70.7358 38.7496 69.3971 38.8728C73.7118 40.2647 75.423 43.7699 74.9825 48.374C74.4178 54.246 70.6678 56.6805 70.6678 56.6805C74.7227 56.6129 79.1956 53.829 79.7039 48.5487C80.0936 44.1024 77.8345 40.3323 73.3504 39.3743Z" fill="#C87D36"/>
<path d="M60.8636 65.7645C57.509 65.7645 53.8211 64.3162 52.4262 62.851L45.7734 61.1604C41.9669 60.5969 37.5618 57.9313 35.9014 53.2371L35.1898 54.6628L34.45 53.0342C33.3205 50.5434 33.4786 48.9035 34.1168 46.0069C35.4892 39.7404 39.1996 37.9653 44.4123 37.3172C47.1175 34.9617 55.7074 33.4683 61.2081 36.1563C65.3421 38.1738 67.3244 38.0949 69.2446 38.0216C70.7117 37.8858 72.1909 38.0665 73.5819 38.5514C78.2863 39.5826 81.0085 43.533 80.5228 48.633C80.0371 53.733 76.7558 57.334 71.8933 58.2131C71.1648 59.9037 68.3015 65.308 61.5583 65.7363C61.3324 65.7588 61.1008 65.7645 60.8636 65.7645ZM36.8333 49.5234L37.0931 51.0619C38.0249 56.4605 42.9665 59.0641 46.0614 59.5149H46.1461L53.3919 61.3295L53.5783 61.5605C54.4424 62.6876 58.2206 64.2373 61.4566 64.0344C68.1207 63.6061 70.3798 57.4298 70.4927 57.1706L70.6678 56.6803L71.1874 56.6014C75.5529 55.9871 78.4162 52.9441 78.8398 48.4696C79.2464 44.2093 77.0778 41.0422 73.1922 40.2138L73.0736 40.18C71.8779 39.7569 70.6026 39.6048 69.3406 39.7348C67.3018 39.8137 65.0033 39.9039 60.4852 37.7004C55.0749 35.0575 47.0384 37.0805 45.4458 38.7261L45.2312 38.9515L44.9262 38.9853C39.2787 39.6446 36.8728 41.5776 35.8224 46.3732C35.3932 48.3231 35.2068 49.4952 35.4948 50.7744C35.5564 50.7028 35.6224 50.635 35.6925 50.5716L36.8333 49.5234Z" fill="#372420"/>
<path d="M58.4126 51.9749C61.3832 51.0507 63.5801 48.6388 63.4389 44.7898C63.4189 43.8034 63.1592 42.8365 62.6822 41.9722C62.4958 44.587 60.6321 47.3708 58.7289 48.9713C57.1476 50.2787 54.849 50.9155 52.6295 50.9606C52.686 51.1183 52.7481 51.2536 52.8102 51.4001C53.9397 51.9693 55.1596 52.5441 58.4126 51.9749Z" fill="#C87D36"/>
<path d="M58.3335 37.8416C54.4198 36.2862 49.4725 37.0019 46.3607 39.6787C45.7745 40.1503 45.3083 40.7534 45.0002 41.439C44.692 42.1245 44.5505 42.873 44.5874 43.6235C44.8076 48.0754 49.6024 51.8905 54.5158 51.5919C58.9717 51.3214 62.9476 47.7147 63.1509 43.6235C63.3034 40.5522 60.7846 39.2223 58.3787 37.8529L58.3335 37.8416Z" fill="#372421"/>
<path d="M64.3821 57.706C62.9186 57.6611 61.4943 57.2231 60.2594 56.438C58.211 57.0774 55.9978 56.9369 54.0471 56.0436L54.6796 54.5784C57.8988 55.959 60.2933 54.9728 61.7334 53.9078C63.8174 52.3468 65.1502 49.5911 64.9017 47.3369L66.1159 46.5762C69.7586 48.8303 70.3121 52.8258 68.7477 55.3391C68.2871 56.0765 67.6428 56.6821 66.8777 57.0969C66.1126 57.5118 65.2528 57.7216 64.3821 57.706ZM62.0779 55.5871C64.7492 56.748 66.596 55.8012 67.4036 54.4938C68.3637 52.9554 68.262 50.6393 66.4717 48.8585C66.0757 51.3815 64.7103 53.6515 62.6653 55.187C62.462 55.3279 62.2643 55.4631 62.0666 55.5871H62.0779Z" fill="#372420"/>
<path d="M68.6517 48.4638L68.4653 48.4018C66.7146 47.8101 65.7488 47.4833 64.416 47.472V45.8828C65.9973 45.8828 67.1155 46.2717 68.9341 46.8915L69.1204 46.9535L68.6517 48.4638Z" fill="#372420"/>
<path d="M53.8663 38.3543C53.2134 38.2464 52.5501 38.2143 51.8897 38.2585C48.5351 38.5966 45.8016 40.924 45.8016 43.7867C45.801 44.1665 45.8465 44.545 45.9372 44.9138C46.8747 41.4368 49.6589 39.3574 53.8663 38.3543Z" fill="white"/>
<path d="M37.3812 110.453L35.3368 114.883C28.8966 120.708 24.558 128.487 22.9912 137.018L24.5951 135.733L24.629 140.101L25.9788 138.985C26.1753 141.487 26.6605 143.959 27.4246 146.35C20.0601 147.348 11.2951 149.033 11.0862 156.663C21.489 162.208 25.0695 159.627 41.1368 156.663C42.7916 150.233 41.0803 146.519 41.0803 146.519C41.9162 140.433 54.2166 127.725 54.2166 127.725L56.2723 127.545L57.447 110.453H37.3812Z" fill="#9E5429"/>
<path d="M51.0426 127.984L48.9813 128.159C48.9813 128.159 36.7091 140.884 35.862 147.009C35.862 147.009 37.5563 150.695 35.9241 157.119C29.7118 158.246 31.6546 158.432 41.1368 156.685C42.7916 150.255 41.0804 146.542 41.0804 146.542C41.9162 140.433 54.2166 127.725 54.2166 127.725L56.2723 127.545L51.0426 127.984Z" fill="#713915"/>
<path d="M13.5542 157.356C13.9382 152.493 19.5293 149.647 28.8026 148.396L27.8199 146.412C20.4781 146.976 12.0067 150.148 11.0862 155.947C11.442 157.311 13.0233 158.151 13.5542 157.356Z" fill="#C87D36"/>
<path d="M24.7193 140.055L26.3853 139.018L26.9501 139.768L26.7185 132.74L26.0578 133.146C26.0578 133.146 29.7964 121.791 37.2738 115.524L35.0148 115.023C28.8531 120.818 24.8887 128.561 23.7931 136.939L24.4708 135.671L24.7193 140.055Z" fill="#C87D36"/>
<path d="M22.1949 160.811C18.6143 160.811 15.2992 159.903 10.6795 157.429L10.2164 157.181V156.652C10.4367 148.255 20.2521 146.469 26.3007 145.623C25.837 143.983 25.5009 142.31 25.2954 140.619L23.7762 141.836L23.748 137.503L21.8673 139.007L22.1384 136.9C22.2005 136.381 23.8948 124.045 34.6929 114.302L36.952 109.591H58.3788L57.0403 128.34L54.5723 128.548C52.9458 130.239 42.9101 141.036 41.9444 146.469C42.3171 147.449 43.4297 151.135 41.9444 156.9L41.8032 157.429L41.2667 157.525C38.2114 158.089 35.6191 158.652 33.3206 159.126C28.7122 160.1 25.3519 160.811 22.1949 160.811ZM11.9728 156.184C19.7664 160.236 23.4656 159.481 32.993 157.446C35.156 156.99 37.5958 156.477 40.4365 155.942C41.7637 150.261 40.3122 146.959 40.301 146.925L40.1993 146.7V146.452C41.0634 140.106 53.0418 127.652 53.5501 127.122L53.776 126.891L55.4251 126.75L56.4981 111.281H38.9681L35.9354 115.485C30.2672 120.67 26.2362 127.391 24.3353 134.826L25.4648 133.924L25.5044 138.292L26.7186 137.317L26.8711 138.9C27.0504 141.336 27.509 143.743 28.2378 146.074L28.5766 147.06L27.5431 147.196C20.2917 148.21 12.5432 149.771 11.9728 156.184Z" fill="#372420"/>
<path d="M78.8229 110.453L80.3986 114.883C86.9854 120.68 91.5228 128.443 93.3371 137.018L91.6993 135.733L91.7784 140.101L90.3947 139.013C90.2624 141.508 89.8417 143.98 89.141 146.378C96.5732 147.348 103.35 149.54 103.779 157.227C95.133 160.822 87.5653 160.101 75.7168 156.714C73.8869 150.284 75.4739 146.57 75.4739 146.57C74.4686 140.433 61.8802 127.725 61.8802 127.725L59.8189 127.545L58.1698 110.453H78.8229Z" fill="#9E5429"/>
<path d="M76.2419 116.088C87.249 125.742 89.1805 136.065 89.1805 136.065L87.5427 134.781L87.6218 139.148L86.2438 138.066C85.9667 141.379 85.3997 144.662 84.5495 147.877C91.9591 148.875 98.7475 151.574 100.08 158.246C100.171 158.714 101.916 157.987 103.762 157.221C103.35 149.54 96.5731 147.347 89.141 146.35C89.8417 143.951 90.2624 141.48 90.3947 138.985L91.7784 140.072L91.6993 135.705L93.3371 136.99C91.5228 128.414 86.9854 120.652 80.3985 114.854L76.2419 116.088Z" fill="#713915"/>
<path d="M78.0323 156.516C77.0891 154.617 76.7277 149.19 77.6482 146.581H75.3892C74.4687 149.207 74.8245 154.617 75.7676 156.516C76.5865 156.95 76.8067 156.725 78.0323 156.516Z" fill="#C87D36"/>
<path d="M92.0552 160.444C87.0571 160.444 81.8048 159.317 75.4796 157.508L75.0165 157.379L74.8866 156.917C73.2544 151.163 74.2428 147.477 74.5816 146.491C73.4521 141.047 63.134 130.244 61.4906 128.548L59.0339 128.34L57.2267 109.568H79.3707L81.1045 114.33C92.0947 124.057 94.0939 136.336 94.1899 136.872L94.5231 139.019L92.6199 137.503L92.699 141.876L91.1403 140.653C90.9822 142.34 90.6895 144.011 90.2649 145.652C96.9459 146.66 104.231 149.033 104.666 157.165L104.7 157.768L104.135 157.999C100.317 159.626 96.2067 160.458 92.0552 160.444ZM76.4171 155.992C86.9949 158.985 94.4892 159.937 102.876 156.64C102.147 149.878 95.4945 148.069 89.0224 147.196L88.0115 147.06L88.3221 146.091C89.0023 143.758 89.4097 141.355 89.5363 138.929L89.6493 137.311L90.8861 138.286L90.807 133.919L91.9365 134.803C89.8125 127.364 85.6156 120.678 79.8338 115.525L79.6983 115.407L78.2751 111.315H59.1186L60.6039 126.779L62.2982 126.925L62.5241 127.151C63.0437 127.675 75.3158 140.112 76.3493 146.463L76.3888 146.705L76.2872 146.936C76.242 146.936 74.9035 150.267 76.4171 155.992Z" fill="#372420"/>
<path d="M82.1607 114.764L80.3083 110.104H36.1444L33.8854 115.125C29.6328 119.176 26.0692 123.414 24.4991 127.359C29.0624 129.968 45.6041 136.556 48.8627 137.238C51.0878 132.374 56.3683 128.142 56.3683 128.142H59.2542C59.2542 128.142 64.529 132.374 66.7541 137.238C70.0128 136.556 86.4811 128.886 91.0386 126.283C89.4686 122.349 86.4076 118.821 82.1607 114.764Z" fill="#D22514"/>
<path d="M50.4552 128.621C48.2249 130.706 46.2461 133.044 44.5592 135.586C45.6887 135.975 48.3318 137.114 48.8626 137.226C50.3254 134.031 53.104 131.112 54.8378 129.483L50.4552 128.621Z" fill="#A8210C"/>
<path d="M77.9758 116.088C82.2115 120.146 85.3176 123.679 86.8651 127.595C83.3354 129.613 86.1365 128.801 90.6094 126.249C89.0394 122.304 85.9615 118.799 81.7258 114.741L77.9758 116.088Z" fill="#A8210C"/>
<path d="M35.4497 116.179L34.7324 111.755L34.7946 113.355L34.0943 114.854C29.8586 118.912 26.8146 123.172 25.2389 127.094C25.6738 127.342 26.199 127.624 26.7976 127.934C28.4241 124.147 31.3891 120.067 35.4497 116.179Z" fill="#E77F6E"/>
<path d="M66.2571 138.207L65.9691 137.582C64.1167 133.524 59.9601 129.85 58.9379 128.988H56.6789C55.6623 129.85 51.5 133.524 49.6477 137.582L49.3596 138.207L48.6876 138.066C45.299 137.356 28.7912 130.785 24.0699 128.092L23.4204 127.72L23.6971 127.032C25.1486 123.426 28.3451 119.233 33.2076 114.567L35.6869 109.247H80.8391L82.8609 114.246C86.4923 117.734 90.0841 121.572 91.8405 125.95L92.1229 126.643L91.4734 127.015C87.0909 129.512 70.4758 137.322 66.9292 138.066L66.2571 138.207ZM25.5947 126.97C30.5589 129.585 44.2712 135.063 48.3995 136.223C50.811 131.518 55.6171 127.635 55.8261 127.466L56.0633 127.275H59.5535L59.7907 127.466C59.9996 127.635 64.8 131.512 67.2172 136.212C71.2552 134.961 84.9618 128.61 89.9486 125.9C88.1979 122.045 84.8658 118.574 81.562 115.378L81.4547 115.277L79.7604 110.96H36.6018L34.4501 115.739C30.0619 119.96 27.1083 123.73 25.5947 126.97Z" fill="#372420"/>
<path d="M77.524 65.3023L83.437 67.2634C83.437 67.2634 93.0096 66.959 98.1206 69.5175C95.3703 78.5735 94.6643 83.4819 93.7946 92.3576L82.5729 92.3012L81.4434 101.673L79.5797 103.927L80.0824 110.757C80.0824 110.757 85.5435 116.426 87.3903 118.928C62.1627 127.381 47.9026 125.386 29.4068 117.874C31.4851 115.265 35.8507 110.836 35.8507 110.836L36.054 104.073L35.1561 101.819L33.6933 92.4477L23.4543 92.5041C23.364 83.5777 19.1283 69.3484 19.1283 69.3484C25.2615 66.4688 32.8406 66.8914 32.8406 66.8914L37.9234 64.4795L57.1985 89.9118L77.524 65.3023Z" fill="#7DA9DB"/>
<path d="M55.7132 109.326C55.7132 109.326 47.7162 108.689 43.0175 121.983L50.6473 124.428C50.6473 124.428 53.3129 116.229 56.6958 114.397L55.7132 109.326Z" fill="#678CB3"/>
<path d="M82.5842 92.296L93.8059 92.3524C94.5401 90.859 94.845 89.005 93.9132 88.8303L78.7947 88.7739L77.219 102.564L76.0895 104.818L75.2932 112.082C75.2932 112.082 80.9125 117.751 82.7593 120.253C82.8157 121.031 86.0292 120.05 87.4129 118.957C85.5661 116.455 80.1049 110.786 80.1049 110.786L80.9012 103.956L81.466 101.701L82.5842 92.296Z" fill="#678CB3"/>
<path d="M35.156 101.036L33.7893 88.2158L23.5559 89.0724C22.8613 87.4212 22.6636 89.3654 23.4543 92.5156L33.6933 92.4592L35.156 101.036Z" fill="#678CB3"/>
<path d="M46.9821 106.187C54.4651 97.2833 66.308 83.7303 77.1682 64.9082L84.2277 67.647C77.1795 79.6559 65.026 95.5363 52.4037 107.613L46.9821 106.187Z" fill="#678CB3"/>
<path d="M34.0435 65.5898C39.3239 73.3215 47.1175 82.8847 59.3614 95.3952L56.3005 100.957C48.5125 92.8819 37.8951 80.732 31.2705 68.3343L34.0435 65.5898Z" fill="#678CB3"/>
<path d="M19.5575 69.4838C19.9641 70.701 20.3199 71.5294 20.3199 71.5294C25.1486 69.2189 28.9381 69.0386 32.9761 68.8752V67.455C28.7348 66.683 24.8493 66.7112 19.5575 69.4838Z" fill="#B0C9EA"/>
<path d="M30.158 117.08C31.0503 118.004 31.7336 118.596 31.7336 118.596C34.292 115.547 37.9459 112.279 41.4926 110.385L41.3062 109.106C33.3997 111.259 34.4501 111.281 30.158 117.08Z" fill="#B0C9EA"/>
<path d="M58.4071 125.263C48.0381 125.263 39.0811 122.732 29.085 118.669L28.0232 118.241L28.7348 117.345C30.5816 115.017 33.8176 111.405 35.0036 110.419L35.1843 104.406L34.3541 102.225L32.9818 93.3157L22.5903 93.3777V92.5268C22.5056 83.8145 18.3377 69.7487 18.2925 69.5852L18.1005 68.8921L18.7556 68.5821C24.6064 65.8377 31.5078 66.0181 32.705 66.0406L38.2283 63.4878L57.2098 88.52L76.7616 64.3669L83.5387 66.4013C84.8489 66.4013 93.5236 66.266 98.499 68.7456L99.1485 69.0724L98.9396 69.7599C96.2965 78.4666 95.551 83.0481 94.6418 92.4366L94.5627 93.2143L83.4427 93.1579L82.7028 102.062L81.3644 104.209L80.9013 110.363C83.4427 112.92 85.8462 115.61 88.1019 118.421L88.8022 119.368L87.6727 119.74C76.1234 123.6 66.805 125.263 58.4071 125.263ZM30.847 117.531C48.1398 124.412 61.7786 126.384 85.9502 118.506C83.6629 115.823 79.5402 111.422 79.4894 111.377L79.2522 111.146L80.0711 103.042L81.1215 101.278L81.8896 91.4335L93.0435 91.4899C93.9302 82.6311 94.6587 78.258 97.1097 69.9854C92.0721 67.8721 83.5556 68.12 83.4822 68.12H83.341L77.3998 65.9335L57.1872 91.349L37.6071 65.4996L32.9648 67.7538H32.8123C32.7333 67.7538 25.928 67.3875 20.1449 69.8332C21.0033 73.0172 23.9909 83.5835 24.2958 91.6476L34.405 91.5913L35.9524 101.436L36.9238 103.769L36.7092 111.253L36.4042 111.501C36.3421 111.54 33.1851 115.001 30.847 117.531Z" fill="#372420"/>
<path d="M60.1464 92.5045C53.8663 84.8178 46.9368 77.413 38.7478 64.0347L32.0272 66.5424C37.7313 77.3566 44.3332 84.4346 55.9616 98.6188L60.1464 92.5045Z" fill="#7DA9DB"/>
<path d="M56.0237 100.027L55.3008 99.1426C43.6386 84.9415 37.0536 77.9142 31.2648 66.9366L30.7622 65.9842L38.6688 63.3638L39.002 63.9273C45.5814 74.6796 51.9292 81.3575 57.108 87.5282C58.39 89.0553 59.5986 90.498 60.8128 91.9857L61.2195 92.4816L56.0237 100.027ZM33.3205 67.0944C38.7817 77.2042 45.1352 84.0004 55.9108 97.1702L59.0847 92.5493C58.0117 91.2475 56.933 89.957 55.7978 88.6045C50.6585 82.4902 44.3785 75.8968 37.8668 65.37L33.3205 67.0944Z" fill="#372420"/>
<path d="M45.0223 105.314C52.5223 96.4041 64.5064 82.8398 75.3723 64.0347L82.268 66.7734C75.2198 78.7824 63.0663 94.6628 50.444 106.739L45.0223 105.314Z" fill="#7DA9DB"/>
<path d="M45.892 105.313C53.375 96.4039 65.0541 83.0143 75.9144 64.1753L77.2359 64.6487C70.1877 76.6576 58.085 94.3582 46.6657 105.843L45.892 105.313Z" fill="#B0C9EA"/>
<path d="M50.6925 107.686L43.4862 105.798L44.3616 104.761C53.1153 94.3413 64.4048 81.3011 74.6212 63.623L83.5895 66.2153L83.0247 67.2184C76.1178 78.9906 63.9755 95.012 51.0539 107.37L50.6925 107.686ZM46.118 105.257L50.1955 105.787C62.4902 93.9243 74.0677 78.8498 80.9295 67.3424L75.4175 65.4489C65.5738 82.3944 54.6401 95.0627 46.118 105.257Z" fill="#372420"/>
<path d="M49.3201 130.599L48.7158 128.993C51.1045 128.195 53.5623 127.619 56.0576 127.274L56.4812 128.993C54.2165 129.365 51.3928 129.822 49.3201 130.599Z" fill="#372420"/>
<path d="M66.0425 130.599C63.9642 129.822 61.1404 129.365 58.8757 128.993L59.5534 127.274C61.9656 127.62 64.3391 128.195 66.6411 128.993L66.0425 130.599Z" fill="#372420"/>
<path d="M28.0344 92.4816C27.1817 81.3687 25.3744 72.2845 23.8948 68.1763L25.51 67.6128C27.2551 72.4479 28.9776 82.3211 29.7513 92.3689L28.0344 92.4816Z" fill="#372420"/>
<path d="M89.638 92.4818L87.9437 92.3522C88.8022 81.1942 90.6546 72.2678 92.1794 68.0356L93.8002 68.5992C92.2923 72.7468 90.4851 81.4647 89.638 92.4818Z" fill="#372420"/>
<path d="M43.3676 112.423L37.1855 120.226L38.5323 121.288L44.7143 113.486L43.3676 112.423Z" fill="#372420"/>
<path d="M13.3 158.579C12.8708 155.446 15.5873 152.588 16.8919 151.766L17.8068 153.22C16.9822 153.738 14.6837 156.037 14.983 158.348L13.3 158.579Z" fill="#372420"/>
<path d="M19.7664 159.638L18.0721 159.469C18.3771 156.392 19.7156 154.189 22.1723 152.741L23.0476 154.217C21.0315 155.384 19.9923 157.108 19.7664 159.638Z" fill="#372420"/>
<path d="M101.091 157.97L99.3969 157.734C99.7188 155.401 97.4203 153.124 96.5731 152.605L97.488 151.157C98.7926 151.974 101.509 154.831 101.091 157.97Z" fill="#372420"/>
<path d="M94.6361 159.03C94.3876 156.494 93.3485 154.775 91.3718 153.608L92.2472 152.132C94.6982 153.574 96.0424 155.778 96.3473 158.86L94.6361 159.03Z" fill="#372420"/>
<path d="M73.4577 17.2045L71.803 16.9735C72.0458 15.2491 73.0285 13.0287 75.0729 11.851C76.2589 11.186 78.2638 10.645 81.0932 11.851L80.4324 13.3838C77.8967 13.6543 75.5868 15.0068 73.4577 17.2045Z" fill="#372420"/>
<path d="M33.2753 14.314L32.304 12.9615C33.7215 11.9471 36.0313 11.1131 38.2734 11.795C39.5724 12.1894 41.3513 13.2658 42.4244 16.1454L40.8544 16.709C38.9116 15.0747 36.3363 14.3421 33.2753 14.314Z" fill="#372420"/>
<path d="M51.0595 11.1129L51.2459 6.08618C52.3619 7.1168 53.2788 8.34309 53.9511 9.70407L54.273 10.3803C54.6627 10.3296 55.0524 10.2902 55.4477 10.2563L56.6224 3.22906C58.3166 5.06055 59.4462 7.73734 60.4797 10.3578L60.5305 10.493C61.0049 10.5644 61.4736 10.6546 61.9367 10.7635L62.9985 7.8106C63.6547 8.95314 64.1219 10.1938 64.3821 11.4848C64.8396 11.6426 65.2575 11.8173 65.7036 12.0033H66.1555C66.2232 9.47866 63.823 5.7706 63.5519 5.35358L62.6088 3.9222L61.2534 7.68098C60.1239 5.00419 58.695 2.47392 56.5716 0.873479L55.4195 0L54.2899 6.90894C53.3553 5.65971 52.251 4.54638 51.0087 3.60099L49.6589 2.58099L49.337 11.0735L50.8958 11.1636L51.0595 11.1129Z" fill="#372420"/>
<path d="M81.048 103.69C81.048 103.69 68.7533 107.128 58.808 107.128C48.8626 107.128 35.7716 104.062 35.7716 104.062V110.825C43.2385 113.057 50.9906 114.196 58.7854 114.206C71.6675 114.206 80.3026 110.825 80.3026 110.825L81.048 103.69Z" fill="#2D2F7B"/>
<path d="M76.0895 104.891L75.4626 111.862V112.29C77.1093 111.889 78.7342 111.404 80.3308 110.836L81.0481 103.679C81.0481 103.679 78.9924 104.254 76.0895 104.891Z" fill="#22225C"/>
<path d="M58.8136 115.068C50.9144 115.073 43.0574 113.919 35.4949 111.642L34.9301 111.433L34.8962 102.941L35.9749 103.217C36.0935 103.251 49.0772 106.26 58.7967 106.26C68.5161 106.26 80.681 102.879 80.8222 102.879L82.042 102.524L81.1441 111.456L80.6697 111.653C80.3195 111.772 71.7239 115.068 58.8136 115.068ZM36.6526 110.227C43.8587 112.289 51.3171 113.342 58.8136 113.355C69.6343 113.355 77.6256 110.915 79.5289 110.222L80.0936 104.84C76.8011 105.719 67.0308 107.979 58.8306 107.979C50.6303 107.979 39.8435 105.888 36.6583 105.161L36.6526 110.227Z" fill="#372420"/>
<path d="M62.0496 108.069C62.0496 108.069 72.2887 113.457 75.6772 124.626L69.5835 127.015C69.5835 127.015 67.0534 117.706 60.8636 113.079L62.0496 108.069Z" fill="#2D2F7B"/>
<path d="M68.9905 128.165L68.742 127.24C68.742 127.15 66.2062 118.151 60.3328 113.761L59.881 113.423L61.4679 106.795L62.4506 107.314C62.8798 107.539 73.0567 113 76.4791 124.383L76.7107 125.138L68.9905 128.165ZM61.8124 112.741C66.7823 116.731 69.3237 123.448 70.12 125.877L74.5929 124.124C71.8143 115.885 65.1163 110.994 62.6088 109.405L61.8124 112.741Z" fill="#372420"/>
<path d="M53.9906 108.013C53.9906 108.013 44.3163 112.453 39.6176 125.747L46.3099 128.982C46.3099 128.982 51.5678 114.893 54.9507 113.068L53.9906 108.013Z" fill="#2D2F7B"/>
<path d="M46.8069 130.177L38.5502 126.193L38.8043 125.471C43.5708 111.991 53.2225 107.438 53.6348 107.247L54.6288 106.79L55.939 113.552L55.3742 113.851C53.1152 115.085 49.1167 123.995 47.1232 129.315L46.8069 130.177ZM40.6906 125.319L45.8638 127.816C47.078 124.677 50.9466 115.192 54.0245 112.69L53.375 109.326C50.907 110.814 44.3897 115.525 40.6906 125.308V125.319Z" fill="#372420"/>
<path d="M51.9575 107.663C51.9575 107.663 52.7312 112.239 53.9455 115.023H61.2252C61.2252 115.023 63.2244 111.219 63.2639 107.759C60.8185 106.362 54.6853 106.508 51.9575 107.663Z" fill="#2D2F7B"/>
<path d="M61.7164 115.88H53.358L53.1321 115.367C51.8897 112.515 51.1103 108.001 51.0821 107.81L50.9691 107.133L51.596 106.874C54.6005 105.623 60.9935 105.471 63.6648 107.015L64.094 107.269V107.765C64.0545 111.394 62.044 115.26 61.9593 115.423L61.7164 115.88ZM54.4932 114.189H60.6603C61.5497 112.336 62.1224 110.347 62.3546 108.306C60.1295 107.387 55.4815 107.472 52.9062 108.249C53.2774 110.26 53.8081 112.239 54.4932 114.166V114.189Z" fill="#372420"/>
<path d="M62.0667 55.587C64.7379 56.7479 66.5847 55.8012 67.3923 54.4937C68.3524 52.9553 68.2507 50.6392 66.4604 48.8584C66.0644 51.3815 64.6991 53.6514 62.654 55.1869C62.462 55.3278 62.2643 55.463 62.0667 55.587Z" fill="#C87D36"/>
<path d="M65.3086 36.0654C67.2501 35.8898 68.6545 33.883 68.4456 31.5831C68.2366 29.2831 66.4934 27.5611 64.5519 27.7367C62.6105 27.9123 61.206 29.9191 61.415 32.219C61.6239 34.5189 63.3672 36.241 65.3086 36.0654Z" fill="white"/>
<path d="M64.8226 27.7203C66.771 27.7203 68.3975 29.58 68.4653 31.8848C68.533 34.1897 67.0025 36.0662 65.0767 36.0775C63.1283 36.0775 61.4962 34.2122 61.4341 31.913C61.3719 29.6138 62.8911 27.7316 64.8226 27.7203ZM64.8226 26.4692C64.2322 26.4737 63.6489 26.5978 63.1082 26.8342C62.5674 27.0706 62.0804 27.4142 61.6769 27.8443C61.1625 28.3926 60.7631 29.0379 60.5022 29.7425C60.2413 30.447 60.1242 31.1965 60.1577 31.9468C60.2424 34.9166 62.445 37.3286 65.0598 37.3286C65.6528 37.3248 66.2388 37.201 66.7824 36.9646C67.326 36.7283 67.8159 36.3843 68.2224 35.9535C68.7369 35.4052 69.1363 34.7599 69.3971 34.0553C69.658 33.3508 69.7752 32.6013 69.7416 31.851C69.6512 28.8812 67.4826 26.4692 64.8395 26.4692H64.8226Z" fill="#372420"/>
<path d="M65.5036 34.8733C66.7793 34.7841 67.7213 33.4005 67.6076 31.7829C67.494 30.1654 66.3677 28.9264 65.0921 29.0157C63.8164 29.1049 62.8743 30.4885 62.988 32.1061C63.1016 33.7236 64.2279 34.9626 65.5036 34.8733Z" fill="#372421"/>
<path d="M64.5152 30.3294C64.8429 30.1998 64.9996 29.8204 64.8652 29.4818C64.7308 29.1433 64.3562 28.9738 64.0285 29.1034C63.7008 29.2329 63.5441 29.6123 63.6785 29.9509C63.8129 30.2894 64.1875 30.4589 64.5152 30.3294Z" fill="white"/>
<path d="M47.113 36.0644C49.0545 35.8888 50.459 33.882 50.25 31.5821C50.0411 29.2822 48.2978 27.5601 46.3564 27.7357C44.4149 27.9113 43.0105 29.9182 43.2194 32.2181C43.4284 34.518 45.1716 36.24 47.113 36.0644Z" fill="white"/>
<path d="M46.6319 27.7203C48.5803 27.7203 50.2068 29.58 50.2746 31.8849C50.3424 34.1897 48.8175 36.0663 46.8748 36.0663C44.9264 36.0663 43.2999 34.201 43.2321 31.9018C43.1643 29.6025 44.6892 27.7203 46.6206 27.7091M46.6206 26.458C46.0313 26.4654 45.4497 26.5921 44.9109 26.8304C44.3722 27.0687 43.8875 27.4136 43.4862 27.8443C42.9718 28.3926 42.5724 29.038 42.3115 29.7425C42.0506 30.447 41.9335 31.1965 41.967 31.9468C42.0517 34.9167 44.2261 37.3286 46.8691 37.3286C47.4621 37.3248 48.0481 37.201 48.5917 36.9647C49.1353 36.7283 49.6252 36.3843 50.0317 35.9536C50.5462 35.4053 50.9456 34.7599 51.2065 34.0554C51.4674 33.3508 51.5845 32.6014 51.5509 31.851C51.4606 28.8812 49.2919 26.4693 46.6489 26.4693L46.6206 26.458Z" fill="#372420"/>
<path d="M47.3121 34.8748C48.5877 34.7856 49.5298 33.4019 49.4161 31.7844C49.3025 30.1668 48.1762 28.9279 46.9005 29.0171C45.6248 29.1064 44.6828 30.49 44.7965 32.1075C44.9101 33.7251 46.0364 34.964 47.3121 34.8748Z" fill="#372421"/>
<path d="M46.321 30.3308C46.6487 30.2013 46.8054 29.8218 46.671 29.4833C46.5366 29.1448 46.162 28.9753 45.8343 29.1048C45.5066 29.2344 45.3499 29.6138 45.4843 29.9523C45.6187 30.2909 45.9933 30.4603 46.321 30.3308Z" fill="white"/>
</svg>
