<svg width="127" height="151" viewBox="0 0 127 151" fill="none" xmlns="http://www.w3.org/2000/svg">
<path d="M30.9692 17.3658C35.3138 17.3658 38.8357 13.8437 38.8357 9.49905C38.8357 5.15438 35.3138 1.63232 30.9692 1.63232C26.6247 1.63232 23.1028 5.15438 23.1028 9.49905C23.1028 13.8437 26.6247 17.3658 30.9692 17.3658Z" fill="#9E5429"/>
<path d="M23.5484 10.4003C23.8385 8.61668 24.7618 6.99744 26.149 5.83951C27.5363 4.68158 29.2944 4.06259 31.1011 4.09606C32.9077 4.12953 34.6418 4.81322 35.9852 6.02173C37.3286 7.23024 38.1913 8.88257 38.4151 10.6757C38.4898 8.78908 37.8513 6.94354 36.6267 5.50649C35.4021 4.06945 33.6812 3.14633 31.8067 2.92093C29.9322 2.69552 28.0415 3.18437 26.5112 4.29014C24.9808 5.39591 23.9231 7.03748 23.5484 8.88802C23.4635 9.48701 23.4534 10.0942 23.5184 10.6957C23.5184 10.5956 23.5184 10.5154 23.5484 10.4003Z" fill="#C87D36"/>
<path d="M32.0609 1.70741C30.3547 1.46757 28.6172 1.79855 27.1187 2.64882C28.6417 2.99234 30.046 3.73452 31.1878 4.79935C32.3296 5.86418 33.1679 7.21339 33.6167 8.70878C34.0656 10.2042 34.1089 11.792 33.7422 13.3097C33.3756 14.8273 32.6121 16.2202 31.5301 17.3457C33.4692 17.2083 35.2888 16.3577 36.6378 14.9579C37.9869 13.5582 38.7699 11.7085 38.8359 9.76553C38.9018 7.8226 38.246 5.92405 36.9949 4.43606C35.7439 2.94807 33.9862 1.97603 32.0609 1.70741Z" fill="#713915"/>
<path d="M30.9743 18.132C30.57 18.1265 30.1666 18.0914 29.7675 18.0268C27.5551 17.7136 25.5507 16.5537 24.1766 14.7917C22.8026 13.0296 22.1661 10.8029 22.4015 8.58082C22.6369 6.35873 23.7256 4.31478 25.4383 2.87967C27.151 1.44456 29.3539 0.730369 31.5828 0.8876C33.8117 1.04483 35.8926 2.0612 37.3869 3.72254C38.8811 5.38387 39.6722 7.56043 39.5933 9.79356C39.5144 12.0267 38.5717 14.142 36.9639 15.6937C35.3561 17.2454 33.2087 18.1124 30.9743 18.1119V18.132ZM30.9743 2.39851C29.6118 2.39731 28.2777 2.78815 27.1313 3.52438C25.9849 4.26062 25.0745 5.31116 24.5087 6.55066C23.943 7.79015 23.7458 9.16625 23.9407 10.5148C24.1356 11.8633 24.7143 13.1272 25.6078 14.1558C26.5014 15.1844 27.672 15.9341 28.9799 16.3156C30.2879 16.6971 31.678 16.6943 32.9844 16.3073C34.2907 15.9204 35.4582 15.1658 36.3475 14.1335C37.2367 13.1012 37.8102 11.8349 37.9995 10.4856C38.258 8.62202 37.7669 6.73204 36.6339 5.23009C35.5009 3.72815 33.8185 2.73686 31.9557 2.47362C31.6272 2.42649 31.296 2.4014 30.9642 2.39851H30.9743Z" fill="#372420"/>
<path d="M70.4017 151C97.492 151 119.453 148.744 119.453 145.962C119.453 143.18 97.492 140.925 70.4017 140.925C43.3113 140.925 21.3502 143.18 21.3502 145.962C21.3502 148.744 43.3113 151 70.4017 151Z" fill="#B7D9F4"/>
<path d="M72.7851 13.8103C72.6953 11.8438 71.9444 9.96506 70.654 8.47835C69.3636 6.99164 67.6093 5.98394 65.6749 5.61838C63.7406 5.25282 61.7395 5.5508 59.9956 6.46407C58.2517 7.37735 56.867 8.85247 56.0657 10.6506C53.633 9.34808 50.9627 8.54934 48.2143 8.30214C36.8578 7.2706 26.5678 15.0872 25.7967 26.9499L23.4683 51.0759L28.2002 54.5811L26.8382 56.1835L29.6372 56.8695L26.9133 59.874C34.9249 62.4729 51.5191 64.581 56.4163 67.4252C62.5903 59.2931 64.2126 55.202 70.8172 50.1795L72.8202 46.3188L68.1684 45.9532L70.0311 43.4044C69.0741 42.8138 68.2826 41.9898 67.7309 41.0098C67.1791 40.0298 66.8852 38.9257 66.8765 37.8011L66.8214 30.7055C67.0673 28.0052 66.7797 25.2829 65.9752 22.6936C67.969 22.2414 69.7417 21.1054 70.9856 19.4828C72.2295 17.8602 72.8662 15.8533 72.7851 13.8103Z" fill="#9E5429"/>
<path d="M65.154 6.35458C63.294 6.03298 61.3805 6.39802 59.7696 7.38177C58.1586 8.36552 56.9598 9.901 56.3962 11.7025C56.5615 11.8027 56.7117 11.9079 56.8619 12.008C57.6446 10.502 58.8979 9.29305 60.431 8.56507C61.9641 7.83708 63.6931 7.62996 65.3548 7.97523C67.0165 8.32051 68.5199 9.19926 69.6361 10.4777C70.7523 11.7562 71.4203 13.3644 71.5383 15.0575C71.8048 13.063 71.2889 11.0428 70.0987 9.42034C68.9085 7.79788 67.1364 6.69918 65.154 6.35458Z" fill="#C87D36"/>
<path d="M68.1284 45.9482L69.9962 43.3994C69.0385 42.809 68.2463 41.9852 67.6937 41.0053C67.1411 40.0253 66.8462 38.9211 66.8365 37.7961L66.7815 30.7005C67.0323 28.0002 66.7447 25.2769 65.9352 22.6886C67.1533 22.4079 68.297 21.8693 69.2893 21.1091C70.2815 20.3488 71.0992 19.3847 71.6872 18.2816C72.2752 17.1785 72.6198 15.9621 72.6978 14.7145C72.7759 13.467 72.5855 12.2171 72.1395 11.0494C71.6935 9.88164 71.0023 8.8231 70.1125 7.94516C69.2227 7.06722 68.155 6.39029 66.9814 5.96002C65.8078 5.52976 64.5556 5.35617 63.3092 5.45095C62.0628 5.54574 60.8513 5.90669 59.7562 6.50948C60.366 6.51849 60.9733 6.58895 61.5689 6.71979C63.5012 7.15939 65.2268 8.24243 66.4629 9.79138C67.699 11.3403 68.3722 13.2633 68.3722 15.245C68.3722 17.2267 67.699 19.1497 66.4629 20.6986C65.2268 22.2476 63.5012 23.3306 61.5689 23.7702C62.3783 26.3585 62.666 29.0818 62.4151 31.7821L62.4752 38.8777C62.4752 41.1661 62.9158 43.6648 64.8587 44.8867L62.6054 48.5722L67.2572 48.9377L66.3909 51.2562C60.4222 55.7929 58.5194 59.5735 53.6573 66.2785C54.5913 66.5785 55.4949 66.9658 56.3563 67.4353C62.5303 59.3031 64.1576 55.212 70.7623 50.1896L72.7652 46.3288L68.1284 45.9482Z" fill="#713915"/>
<path d="M50.4926 4.85203L49.3159 8.69776C48.0541 5.93865 46.622 2.93417 44.2886 1.3418L43.4624 8.35224C42.4848 6.61726 41.1125 5.13683 39.4565 4.0308L39.5066 10.5655L52.9562 10.23C52.9061 8.15195 50.4926 4.85203 50.4926 4.85203Z" fill="#9E5429"/>
<path d="M40.413 10.8864L40.1877 9.21387C32.7919 11.8728 26.5929 18.7631 26.2574 27.4811L26.1372 29.2637C26.6294 29.4074 27.1058 29.6003 27.5593 29.8396L27.6444 28.6729C27.9749 19.9549 33.0322 13.5453 40.413 10.8864Z" fill="#C87D36"/>
<path d="M47.283 8.96858L48.7502 9.13883L48.9004 9.00363C47.8438 6.87045 46.1263 3.4103 44.3337 2.18848L44.1234 4.00619C45.462 5.46031 46.5318 7.1405 47.283 8.96858Z" fill="#713915"/>
<path d="M51.2087 9.66935C52.1401 9.85462 53.0414 10.0649 53.0414 10.0649C52.8311 7.93677 50.5377 5.80859 50.5377 5.80859L50.2373 7.26076C50.8131 8.10201 51.2338 8.97832 51.2087 9.66935Z" fill="#713915"/>
<path d="M41.5797 9.48436L43.3122 9.14886C42.6212 8.26754 40.7134 5.54849 39.727 4.77734L39.6418 6.68018C40.4532 7.48905 41.1099 8.43939 41.5797 9.48436Z" fill="#713915"/>
<path d="M69.6155 45.2975L71.1578 43.1844L70.4567 42.7487C69.6062 42.2301 68.9028 41.502 68.4136 40.6342C67.9245 39.7663 67.6659 38.7875 67.6627 37.7913L67.5825 30.7308C67.8154 28.208 67.5932 25.6639 66.9266 23.2196C68.4098 22.7476 69.7545 21.9188 70.8429 20.8061C71.9313 19.6933 72.73 18.3305 73.169 16.8372C73.6081 15.3438 73.674 13.7656 73.3611 12.2408C73.0482 10.716 72.366 9.2913 71.3743 8.09159C70.3826 6.89188 69.1117 5.95382 67.6731 5.35966C66.2344 4.76551 64.672 4.53341 63.1228 4.68373C61.5735 4.83404 60.0849 5.36218 58.7873 6.22182C57.4897 7.08146 56.4228 8.24635 55.6802 9.61433C54.938 9.25209 54.1757 8.93276 53.3969 8.6579C52.8268 7.14015 52.0536 5.70666 51.0985 4.39655L50.1972 3.15971L49.1557 6.56478C48.009 4.23131 46.6521 2.05807 44.7042 0.706052L43.6827 0L42.9517 6.20425C42.065 5.13211 41.0336 4.18837 39.8872 3.40007L38.6754 2.5488L38.7205 8.74804C36.3116 9.60463 34.0787 10.8925 32.1309 12.5487C30.0417 14.3355 28.3349 16.526 27.1131 18.9887C25.8913 21.4513 25.1795 24.1355 25.0205 26.8801L22.6521 51.4166L27.0735 54.7065L25.4362 56.6294L28.1952 57.3004L25.5413 60.2448L26.6629 60.6103C30.0529 61.7019 35.0051 62.7285 39.7921 63.7149C46.4167 65.082 53.2717 66.4991 56.0207 68.0915L56.6016 68.432L57.0121 67.8912C58.7797 65.5627 60.1768 63.5597 61.4136 61.7871C64.5581 57.2804 66.6362 54.3159 71.2679 50.7707L71.4031 50.6655L74.0369 45.628L69.6155 45.2975ZM70.2214 49.669C65.4945 53.2944 63.2613 56.4942 60.1768 60.9058C59.0401 62.5282 57.7683 64.3509 56.201 66.439C53.0013 64.8667 46.7322 63.5747 40.1175 62.2077C35.8864 61.3314 31.53 60.4351 28.2853 59.4886L31.0644 56.4141L28.2252 55.723L29.3118 54.4411L24.2745 50.6955L26.5578 27.0002C26.7016 24.4573 27.3571 21.9696 28.4851 19.686C29.6131 17.4024 31.1903 15.37 33.1224 13.7104C34.7941 12.2906 36.6935 11.1631 38.7405 10.3755L38.8407 10.3404C39.0961 10.2403 39.3414 10.1501 39.6118 10.065C39.8822 9.97987 40.0424 9.91978 40.2577 9.85469L40.2277 5.59834C41.2666 6.46933 42.1373 7.52327 42.7964 8.70798L43.0718 9.20872C43.429 9.15531 43.7896 9.11024 44.1534 9.07352L44.8895 2.82922C46.4568 4.38153 47.5934 6.71501 48.6249 9.01343L48.68 9.1286C49.1006 9.17868 49.5162 9.23877 49.9318 9.31388L50.753 6.63489C51.3945 7.62298 51.8667 8.71119 52.1501 9.85469C52.5106 9.96485 52.8611 10.09 53.2166 10.2202C54.0634 10.5293 54.8868 10.8991 55.6802 11.3269L56.4113 11.7175L56.7418 10.9613C57.2896 9.71541 58.1471 8.63039 59.2328 7.80951C60.3184 6.98863 61.596 6.45919 62.944 6.27156C64.292 6.08393 65.6656 6.24435 66.9341 6.73757C68.2026 7.23079 69.3239 8.04039 70.1911 9.08935C71.0584 10.1383 71.6428 11.3917 71.8888 12.7304C72.1348 14.069 72.0343 15.4483 71.5966 16.7371C71.159 18.0259 70.3989 19.1813 69.3887 20.0933C68.3784 21.0054 67.1516 21.6437 65.825 21.9477L65.0188 22.133L65.2642 22.9192C66.0425 25.4106 66.3199 28.0315 66.0804 30.6306V30.6657L66.1354 37.8013C66.1426 38.9141 66.4018 40.0108 66.8935 41.009C67.3852 42.0072 68.0967 42.8811 68.9746 43.5649L66.7613 46.5694L71.6234 46.95L70.2214 49.669Z" fill="#372420"/>
<path d="M34.5795 54.1355C35.4166 54.9769 36.4323 55.6191 37.5514 56.0143C38.6704 56.4096 39.8641 56.5479 41.0439 56.4189C48.67 55.9182 50.4727 49.0079 52.3304 49.1781H52.4756C55.6001 48.2517 59.3806 45.4926 59.5459 40.7656C59.6861 36.7596 56.847 32.9389 54.2332 31.9074C50.4827 29.9044 47.5735 33.5899 39.1612 31.632C32.4364 30.0646 25.4763 27.3656 23.238 27.2555C16.1377 26.6095 10.4243 30.6956 10.3843 38.4171C10.3843 40.9909 10.885 43.75 12.1869 45.738C12.4405 45.2375 12.7794 44.7851 13.1884 44.401C14.6906 49.5236 18.2708 51.5617 22.2315 51.9122L34.5795 54.1355Z" fill="#E9BC6D"/>
<path d="M54.2181 31.7321C52.5857 30.8308 50.5928 31.3966 48.7101 31.7321C56.1209 33.6199 57.0673 42.8687 50.5578 49.3634C51.0386 49.167 51.544 49.0373 52.06 48.9778H52.2052C55.3447 48.1015 59.1753 45.3925 59.4107 40.6654C59.6009 36.6945 56.8169 32.8087 54.2181 31.7321Z" fill="#C87D36"/>
<path d="M24.9605 50.8205C22.4569 50.3198 20.5992 50.0293 18.3259 48.3669C17.1596 47.506 16.1851 46.412 15.4645 45.1542C14.7438 43.8964 14.2927 42.5025 14.1398 41.061C11.7062 41.6368 10.6346 35.8132 11.0152 33.5898C10.5647 34.9006 10.3263 36.275 10.3092 37.6609C10.2541 40.2347 10.7148 43.0039 12.0016 45.0169C12.2672 44.5189 12.6161 44.0701 13.0331 43.6899C14.5053 48.8275 18.0104 50.9257 21.9662 51.3463L33.5731 53.5796L33.6031 53.4945C33.1875 53.1941 27.2739 51.2962 24.9605 50.8205Z" fill="#C87D36"/>
<path d="M40.3028 57.2104C39.1848 57.2347 38.0729 57.0385 37.0307 56.6329C35.9885 56.2274 35.0365 55.6205 34.229 54.8468L22.1413 52.6986C17.7199 52.283 14.5653 49.9696 12.9379 45.9836L12.8578 46.1238L12.2469 47.2305L11.5509 46.1789C10.2891 44.2661 9.60308 41.517 9.62311 38.4274C9.62311 34.7219 10.91 31.6222 13.2834 29.464C15.7871 27.1956 19.3473 26.1491 23.298 26.5096C24.5148 26.5697 26.9383 27.3208 30.0028 28.2672C32.857 29.1486 36.0917 30.15 39.3214 30.9012C42.4153 31.6488 45.6415 31.659 48.7401 30.9312C50.7981 30.5306 52.5757 30.1901 54.5435 31.2267C57.4528 32.4034 60.4522 36.5195 60.3019 40.8109C60.1217 45.9286 56.0858 48.918 52.6808 49.9245L52.5406 49.9696L52.2502 49.9395C51.9898 49.9395 51.2487 50.8559 50.748 51.4418C49.1156 53.4448 46.3917 56.8098 41.0589 57.1703C40.8119 57.197 40.5598 57.2104 40.3028 57.2104ZM13.6089 43.1144L13.9344 44.196C15.1912 48.4373 18.0103 50.7858 22.3166 51.1764H22.3767L34.935 53.4097L35.1052 53.5649C35.8671 54.3339 36.7929 54.9208 37.8135 55.2815C38.834 55.6422 39.923 55.7675 40.9988 55.648C45.6606 55.3276 47.9389 52.5234 49.6013 50.4803C50.6028 49.2685 51.3539 48.3171 52.4004 48.4072C55.2846 47.5059 58.6395 44.9821 58.7897 40.7458C58.9149 37.1355 56.3412 33.5651 53.9577 32.6237L53.8776 32.5887C52.3754 31.7825 50.9784 32.0479 49.0455 32.4184C45.7378 33.1988 42.2923 33.1851 38.9909 32.3784C35.7061 31.6172 32.4464 30.6057 29.5672 29.7194C26.688 28.8331 24.2644 28.087 23.2079 28.0419C19.6377 27.7114 16.5081 28.6228 14.3149 30.5957C12.262 32.4585 11.1704 35.1675 11.1503 38.4374C11.0941 40.4466 11.4698 42.4445 12.2519 44.2961C12.3939 44.1158 12.5514 43.9482 12.7226 43.7954L13.6089 43.1144Z" fill="#372420"/>
<path d="M36.1647 25.4763C36.3448 23.5043 35.1022 21.7789 33.3892 21.6224C31.6763 21.4659 30.1416 22.9376 29.9614 24.9095C29.7813 26.8814 31.0239 28.6068 32.7369 28.7634C34.4498 28.9199 35.9845 27.4482 36.1647 25.4763Z" fill="white"/>
<path d="M33.1374 21.6074H33.3877C35.1002 21.7626 36.342 23.4902 36.1618 25.4631C35.9915 27.3359 34.5945 28.758 32.9871 28.758C32.9038 28.763 32.8202 28.763 32.7368 28.758C31.0243 28.6028 29.7825 26.8752 29.9627 24.9073C30.133 23.0295 31.53 21.6074 33.1374 21.6074ZM33.1374 20.5158C30.9291 20.5158 29.0965 22.3585 28.8762 24.8071C28.6408 27.376 30.3283 29.6343 32.6366 29.8447C32.7534 29.852 32.8704 29.852 32.9871 29.8447C35.1954 29.8447 37.028 27.9969 37.2484 25.5533C37.4837 22.9844 35.7962 20.7211 33.4879 20.5107C33.3727 20.5107 33.2575 20.5107 33.1374 20.5107V20.5158Z" fill="#372420"/>
<path d="M35.9803 26.3634C36.1068 24.9781 35.2986 23.7719 34.1749 23.6693C33.0513 23.5666 32.0378 24.6064 31.9113 25.9917C31.7847 27.377 32.593 28.5832 33.7166 28.6859C34.8403 28.7885 35.8537 27.7487 35.9803 26.3634Z" fill="#372421"/>
<path d="M49.3439 27.3431C49.5238 25.374 48.2833 23.651 46.573 23.4947C44.8628 23.3385 43.3306 24.8081 43.1507 26.7773C42.9708 28.7464 44.2114 30.4694 45.9216 30.6257C47.6318 30.7819 49.1641 29.3123 49.3439 27.3431Z" fill="white"/>
<path d="M46.3216 23.4848H46.572C48.2795 23.6451 49.5213 25.3676 49.341 27.3356C49.1708 29.2084 47.7737 30.6305 46.1714 30.6305C46.088 30.6356 46.0044 30.6356 45.921 30.6305C44.2085 30.4752 42.9717 28.7527 43.152 26.7847C43.3222 24.912 44.7143 23.4898 46.3216 23.4898M46.3216 22.3982C44.1184 22.3982 42.2857 24.241 42.0604 26.6846C41.8301 29.2484 43.5125 31.5068 45.8209 31.6921C45.9376 31.6997 46.0547 31.6997 46.1714 31.6921C48.3746 31.6921 50.2073 29.8493 50.4276 27.4057C50.6629 24.8368 48.9755 22.5785 46.6721 22.3682H46.3216V22.3982Z" fill="#372420"/>
<path d="M49.1423 28.2132C49.2686 26.8307 48.4624 25.6269 47.3415 25.5245C46.2206 25.4221 45.2096 26.4598 45.0833 27.8424C44.957 29.2249 45.7633 30.4287 46.8841 30.5311C48.005 30.6335 49.016 29.5958 49.1423 28.2132Z" fill="#372421"/>
<path d="M33.2726 24.752C33.5823 24.752 33.8334 24.5009 33.8334 24.1912C33.8334 23.8815 33.5823 23.6304 33.2726 23.6304C32.9629 23.6304 32.7118 23.8815 32.7118 24.1912C32.7118 24.5009 32.9629 24.752 33.2726 24.752Z" fill="white"/>
<path d="M46.5069 26.5548C46.8166 26.5548 47.0677 26.3037 47.0677 25.9939C47.0677 25.6842 46.8166 25.4331 46.5069 25.4331C46.1971 25.4331 45.946 25.6842 45.946 25.9939C45.946 26.3037 46.1971 26.5548 46.5069 26.5548Z" fill="white"/>
<path d="M44.0483 18.9783C44.8144 18.128 45.8102 17.5176 46.9156 17.2209C48.0209 16.9241 49.1885 16.9536 50.2774 17.3058" fill="#372421"/>
<path d="M44.7644 19.6392L43.3022 18.3222C44.1953 17.3328 45.3552 16.6226 46.6425 16.277C47.9297 15.9314 49.2893 15.9652 50.5578 16.3743L49.9519 18.2421C49.0444 17.9524 48.0726 17.9301 47.1527 18.1779C46.2329 18.4256 45.4037 18.9329 44.7644 19.6392Z" fill="#372420"/>
<path d="M31.6052 16.785C32.74 16.6348 33.894 16.8175 34.927 17.3108C35.9599 17.8042 36.8273 18.587 37.4237 19.5641" fill="#372421"/>
<path d="M36.5874 20.0748C36.0871 19.2617 35.3625 18.6103 34.5009 18.199C33.6393 17.7877 32.6772 17.634 31.7303 17.7564L31.48 15.8085C32.8008 15.6357 34.1434 15.8476 35.3468 16.4187C36.5502 16.9898 37.5634 17.8959 38.2649 19.0283L36.5874 20.0748Z" fill="#372420"/>
<path d="M41.6648 50.7958C40.1422 50.7505 38.6605 50.2918 37.3786 49.4688C35.2451 50.1498 32.934 50.0087 30.8992 49.0732L31.46 47.7663C34.88 49.2335 37.4187 48.1869 38.9709 47.0502C41.2042 45.3877 42.6313 42.4484 42.3609 40.0398L43.4474 39.3638C47.1879 41.7123 47.7587 45.7883 46.1564 48.3772C45.6832 49.1366 45.0198 49.7592 44.232 50.1834C43.4442 50.6076 42.5593 50.8187 41.6648 50.7958ZM38.996 48.7227C42.0003 50.1198 44.0033 49.0782 44.9296 47.6311C45.9912 45.9235 45.8459 43.3297 43.7579 41.4018C43.5866 42.7407 43.1477 44.0313 42.4672 45.197C41.7868 46.3627 40.8787 47.3795 39.7971 48.1869C39.5399 48.3798 39.2725 48.5587 38.996 48.7227Z" fill="#372420"/>
<path d="M46.1814 41.1562L45.9861 41.0911C44.1434 40.4702 43.1269 40.1246 41.7148 40.0896V38.6675C43.3522 38.6675 44.5089 39.0731 46.4267 39.7241L46.617 39.7892L46.1814 41.1562Z" fill="#372420"/>
<path d="M29.9328 83.5645C29.9328 83.5645 20.2737 78.7222 15.2514 76.4639C12.9681 80.0242 11.571 82.3827 11.571 82.3827L13.2986 82.8834L10.9151 85.7177L12.2821 85.8529C12.2821 85.8529 8.69685 90.2895 8.56666 98.041C5.56228 100.445 5.62738 102.382 4.93137 104.125C4.45067 105.357 -0.326294 106.659 0.985617 109.163C2.17235 111.426 7.40497 108.336 7.40497 108.336L7.50511 108.447C6.41853 109.743 5.40205 113.053 5.62237 113.91C5.93783 115.142 7.3549 116.228 8.67682 115.637C9.91863 115.076 11.4459 112.347 12.1068 110.88L12.4223 111.121C12.4223 111.121 11.1454 115.382 13.1233 116.413C14.6255 117.039 16.0125 115.722 16.6985 114.41C17.9904 112.407 18.2558 106.734 18.2558 106.734C19.9733 107.635 20.6242 107.961 21.851 108.126C24.3196 107.896 24.7002 105.758 24.7653 104.741C23.3131 103.469 21.6057 101.997 20.2988 100.85C20.464 99.2979 22.7523 94.8012 24.4899 91.1157C26.5922 88.8194 28.419 86.2851 29.9328 83.5645Z" fill="#9E5429"/>
<path d="M2.673 109.849C1.3711 107.375 6.14305 106.053 6.62876 104.841C7.32477 103.099 7.23965 101.161 10.2641 98.7572C10.3942 91.0057 15.1211 85.0518 15.1211 85.0518L13.7541 84.9116L16.1326 82.0773L14.4051 81.5766C14.4051 81.5766 14.6204 80.8105 16.8386 77.3453L14.9459 76.479C12.6625 80.0393 11.2655 82.3978 11.2655 82.3978L12.993 82.8986L10.6096 85.7328L11.9816 85.868C11.9816 85.868 8.39133 90.3046 8.26114 98.0562C5.25676 100.46 5.32186 102.398 4.62584 104.14C4.12511 105.352 -0.631816 106.674 0.67008 109.148C1.05063 109.869 1.84179 110.044 2.73809 109.954C2.71806 109.924 2.69303 109.889 2.673 109.849Z" fill="#C87D36"/>
<path d="M24.4798 91.1356C26.5867 88.8351 28.4168 86.2957 29.9328 83.5693C29.9328 83.5693 20.2737 78.7271 15.2514 76.4688C14.8558 77.0797 14.4903 77.6555 14.1548 78.1913C19.3023 80.6199 26.0471 84.005 26.0471 84.005C24.5306 86.7295 22.7005 89.2671 20.5942 91.5662C18.8566 95.2567 17.3244 98.9923 17.1592 100.545C18.4661 101.691 20.9347 103.92 22.3868 105.197C22.3645 106.077 22.059 106.927 21.5155 107.62C22.1514 107.901 21.9061 107.665 22.6121 107.76C25.0757 107.535 24.7001 105.757 24.7652 104.756C23.3131 103.484 21.6056 102.012 20.2987 100.865C20.454 99.3128 22.7423 94.8161 24.4798 91.1356Z" fill="#713915"/>
<path d="M18.5512 106.113C17.5497 105.567 17.8101 105.612 16.0926 104.726C16.0926 104.726 15.4517 113.033 14.1598 115.051C14.0248 115.305 13.8708 115.547 13.6991 115.778C13.8694 116.123 12.9781 116.033 13.3336 116.218C14.8358 116.849 16.2178 115.532 16.9088 114.215C17.73 112.928 18.5161 109.037 18.7014 107.205C18.6513 107.235 18.6013 106.108 18.5512 106.113Z" fill="#713915"/>
<path d="M13.8994 117.315C13.5314 117.315 13.1671 117.242 12.8278 117.1L12.7677 117.07C11.6261 116.474 11.2655 115.207 11.2655 113.97C10.6046 114.971 9.7984 115.973 8.98722 116.313C8.62396 116.475 8.22933 116.554 7.83185 116.545C7.43437 116.535 7.04397 116.437 6.68887 116.258C6.25378 116.045 5.86925 115.741 5.56097 115.367C5.2527 114.993 5.02779 114.558 4.90127 114.09C4.69597 113.304 5.13661 111.501 5.78756 109.964C4.52572 110.49 2.91838 110.966 1.72164 110.615C1.42422 110.537 1.14634 110.398 0.905768 110.207C0.665202 110.015 0.467255 109.776 0.324601 109.503C-0.852113 107.265 1.43622 105.803 2.94842 104.836C3.42607 104.576 3.86439 104.249 4.25032 103.865C4.38552 103.514 4.49568 103.144 4.61084 102.748C5.08313 100.748 6.21995 98.9665 7.83554 97.6958C7.89959 93.7551 8.97738 89.8973 10.9651 86.4941L9.46291 86.3388L12.0016 83.2943L10.4493 82.8286L10.9501 82.0024C10.9501 82.0024 12.3822 79.5888 14.6455 76.0585L14.996 75.5127L15.5868 75.7781C20.5691 78.0164 30.2031 82.8436 30.3033 82.8887L30.9893 83.2342L30.6287 83.9152C29.096 86.6663 27.2475 89.2291 25.1207 91.5516L24.1643 93.5546C22.8825 96.2135 21.4504 99.198 21.1099 100.565L22.8023 102.037L25.2559 104.175L25.5363 104.421L25.5113 104.786C25.3611 107.19 24.0492 108.677 21.9161 108.877H21.8309H21.7458C20.7559 108.744 19.7998 108.426 18.9267 107.941C18.7715 109.764 18.3609 113.174 17.3444 114.791C16.6033 116.173 15.3315 117.315 13.8994 117.315ZM13.4337 115.718C14.5553 116.148 15.5868 114.891 16.0275 114.07L16.0575 114.02C17.0239 112.518 17.4195 108.231 17.4946 106.714L17.5497 105.537L18.5962 106.083C20.2636 106.96 20.8245 107.235 21.856 107.38C23.0777 107.24 23.7888 106.464 23.969 105.067L21.8109 103.189L19.808 101.436L19.5126 101.176L19.5526 100.79C19.7028 99.3933 21.215 96.2436 22.8124 92.9086C23.1579 92.1976 23.4934 91.4865 23.8138 90.8105L23.8639 90.7053L23.939 90.6252C25.8221 88.5559 27.4882 86.2991 28.9112 83.8902C26.708 82.7885 19.803 79.3584 15.5468 77.4205C14.2549 79.4235 13.2785 81.0359 12.7327 81.9273L14.6254 82.4931L12.4072 85.127L13.7441 85.2622L12.8679 86.3438C12.8378 86.3839 9.44288 90.7003 9.3177 98.0713V98.4268L9.03729 98.6472C7.52153 99.7344 6.45354 101.336 6.03292 103.154C5.91274 103.564 5.78756 103.99 5.62232 104.406C5.36695 105.047 4.6459 105.507 3.73457 106.088C1.91191 107.25 1.17584 107.916 1.6315 108.782C1.67991 108.874 1.74745 108.954 1.82953 109.017C1.91161 109.08 2.00632 109.125 2.1072 109.148C3.26889 109.478 5.72747 108.412 6.99932 107.646L7.52509 107.34L8.4965 108.417L8.07088 108.917C7.09446 110.079 6.21318 113.114 6.34337 113.71C6.41917 113.966 6.54731 114.204 6.71968 114.408C6.89206 114.612 7.10492 114.779 7.34483 114.896C7.49851 114.976 7.66796 115.021 7.84108 115.028C8.01419 115.035 8.1867 115.004 8.34629 114.936C9.18751 114.556 10.5595 112.433 11.4007 110.555L11.7913 109.699L13.2935 110.82L13.1483 111.321C12.7827 112.513 12.3972 115.127 13.4337 115.718Z" fill="#372420"/>
<path d="M78.2381 63.4597C78.2381 63.4597 75.8296 52.6236 74.8381 47.0503C78.9591 45.6682 81.6581 44.867 81.6581 44.867L81.7432 46.7148L85.1582 45.0673L84.9579 46.4644C89.5293 45.1719 94.3549 45.0667 98.9783 46.1589C102.128 43.7454 104.041 44.3162 105.948 44.0558C107.275 43.8806 109.784 39.454 111.927 41.3668C113.885 43.1194 109.499 47.556 109.499 47.556L109.584 47.6862C111.146 46.9251 114.696 46.7448 115.497 47.1855C116.644 47.8114 117.375 49.4939 116.454 50.6607C115.532 51.8274 112.483 52.5985 110.861 52.889L111.016 53.2645C111.016 53.2645 115.577 53.0592 116.113 55.2675C116.359 56.935 114.706 57.9716 113.249 58.3371C110.911 59.1183 105.212 57.9665 105.212 57.9665C105.683 59.8994 105.843 60.6355 105.713 61.8974C104.872 64.296 102.639 64.1458 101.612 63.9555C100.706 62.1878 99.6693 60.1198 98.8581 58.5274C97.2658 58.302 91.2771 59.1133 87.1661 59.9245C84.3388 61.4485 81.3423 62.635 78.2381 63.4597Z" fill="#9E5429"/>
<path d="M111.472 54.7368C111.472 54.7368 114.791 54.5866 116.098 55.9286C116.133 55.708 116.133 55.4832 116.098 55.2626C115.893 54.4013 115.097 53.9055 114.175 53.6201C113.237 53.9337 112.279 54.1813 111.306 54.3612L111.472 54.7368Z" fill="#9E5429"/>
<path d="M109.949 49.0379L110.034 49.1681C111.597 48.407 115.152 48.2217 115.953 48.6674C116.316 48.8715 116.627 49.1579 116.859 49.5036C116.857 49.0281 116.729 48.5616 116.488 48.1516C116.247 47.7417 115.902 47.403 115.487 47.1701C114.947 46.8797 113.144 46.8647 111.552 47.1251C111.063 47.7996 110.528 48.4388 109.949 49.0379Z" fill="#9E5429"/>
<path d="M75.2988 48.5726C79.4198 47.1905 80.2259 47.1455 80.2259 47.1455L80.3111 48.9932L83.3505 47.7113L83.1502 48.7128C83.1502 48.7128 91.6626 45.8385 99.4289 47.6462C102.579 45.2376 104.491 45.8085 106.404 45.5481C107.726 45.3678 110.24 40.9462 112.378 42.8591C112.43 42.5868 112.412 42.3056 112.324 42.0425C112.236 41.7794 112.082 41.5433 111.877 41.3568C109.734 39.444 107.225 43.8606 105.898 44.0459C103.991 44.3062 102.078 43.7354 98.9282 46.149C94.3048 45.0568 89.4792 45.1619 84.9078 46.4544L85.1081 45.0574L81.6931 46.7198L81.6079 44.8721C81.6079 44.8721 78.909 45.6733 74.788 47.0553C74.3774 48.7178 74.758 49.539 75.2988 48.5726Z" fill="#C87D36"/>
<path d="M98.1271 55.4476C96.5398 55.2222 90.5511 56.0284 86.4401 56.8446C84.2355 58.0208 81.9356 59.0091 79.5651 59.799C79.9656 61.6368 80.236 62.8686 80.236 62.8686C83.3232 62.0386 86.3028 60.8505 89.114 59.3283C92.4968 58.6482 95.9182 58.1766 99.3589 57.9162L98.1271 55.4476Z" fill="#713915"/>
<path d="M114.15 53.8052C113.95 55.0921 112.548 55.9133 111.286 56.2238C108.948 57.0049 102.118 55.4777 102.118 55.4777C102.584 57.4106 103.505 59.2783 103.36 60.5452C102.934 62.3429 101.722 61.8071 100.731 61.9123C101.141 62.7335 101.181 63.1791 101.577 63.9503C102.604 64.1406 104.837 64.2908 105.678 61.8922C105.823 60.6303 105.678 59.8892 105.177 57.9614C105.177 57.9614 110.876 59.1131 113.214 58.3319C114.671 57.9664 116.324 56.9298 116.078 55.2623C115.838 54.1607 115.352 54.0355 114.15 53.8052Z" fill="#713915"/>
<path d="M102.594 64.7967C102.21 64.7956 101.828 64.7587 101.452 64.6865L101.086 64.6214L100.921 64.2909C100.42 63.3545 99.9197 62.328 99.419 61.3365L98.3524 59.2384C96.4747 59.1733 91.202 59.8894 87.3965 60.6355C84.5512 62.1635 81.5384 63.3565 78.4184 64.1908L77.6723 64.371L77.5071 63.6199C77.5071 63.5148 75.0835 52.7087 74.0971 47.1804L73.9869 46.5695L74.5978 46.3642C78.6838 44.9922 81.4178 44.176 81.4428 44.1709L82.3641 43.8955L82.4393 45.563L86.1096 43.7553L85.8642 45.4178C90.1155 44.4277 94.5341 44.3986 98.7981 45.3327C100.465 44.0369 102.525 43.3496 104.637 43.3848C105.057 43.3848 105.458 43.3497 105.843 43.2996C106.325 43.0112 106.764 42.6555 107.145 42.2431C108.482 40.9812 110.5 39.0733 112.423 40.7909C112.656 41.0004 112.843 41.2558 112.972 41.541C113.101 41.8263 113.17 42.1352 113.174 42.4484C113.214 43.7353 112.328 45.2375 111.482 46.3692C113.184 46.0938 115.112 46.1038 115.853 46.4994C116.284 46.7429 116.659 47.075 116.952 47.4737C117.245 47.8725 117.451 48.3289 117.555 48.8129C117.646 49.2076 117.648 49.6175 117.562 50.0132C117.475 50.4088 117.302 50.7804 117.055 51.1013C116.479 51.8274 115.277 52.3932 114.09 52.7988C115.332 53.1293 116.544 53.8003 116.854 55.0872V55.1523C117.15 57.1553 115.352 58.5674 113.454 59.0531C111.577 59.664 108.052 59.2083 106.204 58.9029C106.476 59.9036 106.556 60.947 106.439 61.9775L106.404 62.1427C106.154 62.9455 105.644 63.6421 104.954 64.1226C104.264 64.6032 103.433 64.8403 102.594 64.7967ZM102.093 63.2644C103.545 63.4397 104.511 62.9189 104.962 61.7171C105.072 60.6505 104.962 60.0246 104.486 58.1368L104.206 56.99L105.363 57.2254C106.895 57.5308 111.251 58.2269 113.009 57.616H113.064C114 57.3856 115.527 56.6596 115.377 55.4227C115.047 54.2259 112.328 53.9505 111.051 54.0056L110.55 54.0306L109.819 52.3081L110.745 52.1428C112.808 51.7673 115.292 50.931 115.883 50.1849C115.996 50.0372 116.075 49.8663 116.114 49.6844C116.153 49.5026 116.151 49.3144 116.108 49.1333C116.048 48.8606 115.932 48.6032 115.767 48.3775C115.603 48.1517 115.393 47.9624 115.152 47.8214C114.591 47.541 111.341 47.6561 109.924 48.3221L109.328 48.6126L108.547 47.4208L108.973 46.9901C110.044 45.9035 111.727 43.7203 111.687 42.4834C111.69 42.3742 111.67 42.2655 111.626 42.1652C111.583 42.0648 111.518 41.9751 111.436 41.9026C110.67 41.2215 109.819 41.7874 108.197 43.3247C107.391 44.0858 106.755 44.6817 106.059 44.7768C105.603 44.8419 105.147 44.857 104.712 44.877C102.788 44.8301 100.915 45.4892 99.444 46.7298L99.1636 46.9451L98.8181 46.865C94.3326 45.8184 89.656 45.9166 85.2183 47.1504L84.0566 47.541L84.2319 46.3392L81.0622 47.8815L80.9721 45.8785C79.9356 46.194 78.0829 46.7798 75.7145 47.566C76.5857 52.3031 78.2882 60.0847 78.824 62.5433C81.5902 61.7294 84.2649 60.632 86.8056 59.2684L86.9058 59.2134H87.0159C90.7464 58.4773 97.1407 57.5509 98.9583 57.8113L99.3439 57.8663L99.5191 58.2119C99.8997 58.958 100.335 59.8092 100.776 60.6856C101.217 61.5619 101.632 62.4231 102.083 63.2644H102.093Z" fill="#372420"/>
<path d="M12.4723 77.7557C16.7635 81.6866 22.1213 86.1532 27.4942 89.2729L30.1631 86.013L30.2582 86.0932C29.9027 90.3795 30.1881 95.4972 30.2582 98.727L72.0891 79.0677C72.0891 76.8694 72.67 72.7132 73.5062 67.9111C76.3954 66.9096 80.266 65.3522 82.8999 63.7298C82.3991 57.2201 79.7653 51.3364 76.6758 44.8267C73.5763 45.8282 69.931 47.2002 66.521 50.6103L56.0057 67.3903L25.4612 61.186C19.1771 67.0498 16.5833 70.4348 12.4723 77.7557Z" fill="#F4F6F8"/>
<path d="M27.7095 82.7384L27.6093 82.6583L24.9455 85.9182C20.6652 83.325 16.6295 80.3484 12.8879 77.0249L12.4723 77.756C16.7635 81.6868 22.1213 86.1535 27.4942 89.2731L27.5643 89.193C27.5242 87.0548 27.5242 84.8015 27.7095 82.7384Z" fill="#F4F6F8"/>
<path d="M80.3612 60.3698C77.3804 62.0761 74.2349 63.4769 70.9726 64.5511C70.1313 69.3532 69.5505 73.5094 69.5505 75.7077L30.108 94.2353C30.1431 95.9178 30.2032 97.4701 30.2232 98.742L72.0892 79.0677C72.0892 76.8694 72.67 72.7132 73.5062 67.9111C76.3955 66.9096 80.2661 65.3523 82.8999 63.7298C82.3842 57.1951 82.3341 59.2031 80.3612 60.3698Z" fill="#D0D0D0"/>
<path d="M30.4836 89.2679C41.9102 79.0677 60.0717 74.4358 72.0892 74.9015L71.974 79.1428C71.974 79.1428 42.431 92.8232 30.123 98.6719L30.4836 89.2679Z" fill="#2D2F7B"/>
<path d="M69.4703 74.8817L69.0146 80.5251L71.994 79.1431L72.1092 74.9018C71.2579 74.8717 70.3766 74.8667 69.4703 74.8817Z" fill="#22225C"/>
<path d="M12.4723 78.0662C13.3441 78.5134 14.181 79.0256 14.9759 79.5985C18.5261 71.6867 23.3782 66.8695 28.1451 62.2626L25.6915 61.6567C19.7128 65.4274 16.0976 69.1479 12.4723 78.0662Z" fill="white"/>
<path d="M24.7603 87.4055L28.2503 83.71L30.1281 85.087L29.8877 86.3038L27.1537 89.4485L24.7603 87.4055Z" fill="#D0D0D0"/>
<path d="M29.472 99.929V98.7422C29.472 98.0161 29.437 97.1949 29.4119 96.3036C29.3418 93.87 29.2567 90.9656 29.3619 88.1965L27.6694 90.2696L27.1086 89.9391C22.602 87.3202 17.5246 83.4294 11.9715 78.3218L11.5259 77.9112L11.8213 77.3854C16.0274 69.8742 18.7264 66.4441 24.9454 60.6254L25.2358 60.36L55.6702 66.5342L65.9301 50.1298L65.9902 50.0697C69.4052 46.6546 73.0405 45.1774 76.4555 44.0958L77.0914 43.8955L77.3768 44.4964C80.6315 51.3516 83.1602 57.1202 83.671 63.67L83.706 64.1357L83.3104 64.381C80.4128 66.0416 77.3607 67.4167 74.1972 68.4872C73.3109 73.6048 72.8652 77.1651 72.8652 79.0679V79.5687L29.472 99.929ZM30.0278 84.9417L31.0293 85.7629L30.9992 86.1585C30.7932 89.5213 30.7664 92.8928 30.9191 96.2585C30.9191 96.7042 30.9442 97.1298 30.9542 97.5404L71.323 78.5772C71.3881 76.444 71.8638 72.8136 72.7451 67.7761L72.8202 67.3304L73.2508 67.1852C76.3141 66.1708 79.2775 64.8768 82.1037 63.3194C81.5529 57.4056 79.2495 52.0426 76.2802 45.7583C73.2758 46.7598 70.0912 48.1569 67.1369 51.0912L56.4063 68.2418L25.6865 62.0175C19.8881 67.4656 17.3594 70.6754 13.4387 77.6158C18.506 82.2226 23.1628 85.808 27.2989 88.2967L30.0278 84.9417Z" fill="#372420"/>
<path d="M103.936 102.037C98.3674 105.352 87.1711 108.757 78.6737 109.693C76.8611 107.365 76.5707 102.478 76.4755 100.65C68.8144 92.4477 59.3556 96.7291 55.9957 100.094C55.6402 100.485 56.7168 82.568 56.7168 82.568C56.7168 82.568 64.3929 76.6942 76.0449 79.6787C83.4557 81.5765 87.2512 85.948 87.2512 85.948L85.719 86.629L87.0309 88.597L85.3184 88.7772C86.6153 90.8503 87.7019 97.0095 87.7019 97.0095C92.9946 95.1818 104.206 93.6695 103.936 102.037Z" fill="#9E5429"/>
<path d="M73.3409 80.2143C80.7467 82.1071 83.7761 87.2498 83.7761 87.2498L82.2439 87.5202L83.5558 90.2593L81.8433 90.4395C83.1402 92.5126 84.2268 100.6 84.2268 100.6C92.2384 98.3714 96.1591 96.6688 98.5376 103.339C98.3473 103.454 101.041 102.688 100.836 102.803C101.91 102.378 102.947 101.863 103.935 101.266C104.206 92.8982 92.9945 95.1816 87.7018 96.9843C87.7018 96.9843 86.6152 90.8251 85.3184 88.752L87.0308 88.5718L85.7189 86.6289L87.2512 85.9729C87.2512 85.9729 83.4556 81.6014 76.0448 79.7035C66.5009 77.2599 59.6259 80.7551 57.4478 82.1021C60.8327 80.7902 66.8565 78.5518 73.3409 80.2143Z" fill="#713915"/>
<path d="M80.3762 108.933C79.0993 107.16 78.4684 102.964 78.5986 100.029L76.6457 100.47C76.5005 103.404 77.1465 107.581 78.4133 109.373C79.2395 109.664 79.3697 109.398 80.3762 108.933Z" fill="#C87D36"/>
<path d="M78.3282 110.505L78.0679 110.164C76.1801 107.731 75.8346 102.914 75.7295 100.971C73.0506 98.1915 69.9611 96.7543 66.5361 96.6943C62.8182 96.6863 59.237 98.0956 56.5215 100.635L56.1559 100.996L55.6552 100.8C55.0043 100.525 54.9642 100.51 55.4399 91.2411C55.6602 86.9247 55.9406 82.5632 55.9406 82.5181V82.1726L56.216 81.9573C56.5415 81.7119 64.3279 75.8983 76.2001 78.9528C83.7511 80.8857 87.6318 85.2772 87.792 85.4625L88.478 86.2537L86.8306 86.9597L88.3328 89.2131L86.4551 89.4134C87.2455 91.5554 87.8486 93.762 88.2577 96.0082C92.1283 94.8465 98.6679 93.855 102.248 96.509C103.931 97.7558 104.752 99.6286 104.667 102.077V102.493L104.311 102.708C98.5928 106.108 87.3564 109.518 78.7338 110.47L78.3282 110.505ZM66.3308 95.1419H66.5811C70.5219 95.207 74.042 96.8795 77.0564 100.104L77.2467 100.305V100.585C77.452 104.541 78.0579 107.32 79.0393 108.857C87.101 107.896 97.6965 104.696 103.179 101.567C103.149 99.8439 102.559 98.562 101.377 97.6957C98.0269 95.192 91.1319 96.5991 87.9523 97.6957L87.106 97.9812L86.9558 97.1049C86.6604 95.4324 85.6739 90.7454 84.6725 89.148L84.0215 88.1315L85.694 87.9562L84.5723 86.2787L85.9043 85.7079C83.0257 83.1698 79.5789 81.3613 75.8546 80.435C65.9302 77.8962 58.91 82.0324 57.4578 82.9988C57.1574 88.0063 56.7618 95.3823 56.6967 98.4969C59.4722 96.3874 62.8453 95.2127 66.3308 95.1419Z" fill="#372420"/>
<path d="M100.185 103.259C100.085 101.696 98.6829 99.8988 97.376 98.9975L98.2523 97.7456C99.8195 98.8372 101.572 101 101.712 103.159L100.185 103.259Z" fill="#372420"/>
<path d="M95.1878 104.886C94.9325 102.773 93.6857 101.762 92.1835 100.755L93.0397 99.4834C94.3616 100.375 96.3595 101.722 96.7151 104.706L95.1878 104.886Z" fill="#372420"/>
<path d="M76.8961 78.6174C65.2441 75.638 56.7167 82.5533 56.7167 82.5533C56.7167 82.5533 55.3647 100.971 55.7153 100.58C59.0651 99.834 64.9938 97.0348 71.1978 98.5771C72.4046 93.6798 74.9833 83.4396 76.8961 78.6174Z" fill="#D22514"/>
<path d="M71.2079 96.6442C65.0038 95.142 59.0752 97.9161 55.7253 98.6472C55.6752 99.9041 55.6752 100.65 55.7253 100.59C59.0752 99.844 65.0038 97.0448 71.2079 98.5871C72.4046 93.6898 74.9834 83.4496 76.8961 78.6424L76.2402 78.4922C74.4325 83.71 72.2744 92.2928 71.2079 96.6442Z" fill="#A8210C"/>
<path d="M56.9771 84.1553C56.9771 84.1553 65.1239 77.5554 76.3703 80.0441C76.5506 79.5334 76.7175 79.0627 76.871 78.632C65.2191 75.6526 56.6917 82.5679 56.6917 82.5679L56.9771 84.1553Z" fill="#E77F6E"/>
<path d="M55.9206 101.501L55.4198 101.291C54.7789 101.016 54.7439 101.001 55.3548 91.4865C55.6452 87.0399 55.9706 82.5532 55.9757 82.5081V82.1826L56.231 81.9773C59.1923 79.7996 62.5993 78.305 66.2071 77.6011C69.8148 76.8972 73.5337 77.0014 77.0964 77.9063L77.9276 78.1166L77.6122 78.9128C75.7795 83.5196 73.2809 93.3242 71.9589 98.7573L71.7787 99.4884L71.0426 99.3082C66.4259 98.1765 61.8793 99.5635 58.5594 100.58C57.6531 100.86 56.8519 101.081 56.1359 101.276L55.9206 101.501ZM57.4228 82.9738C57.0172 88.5722 56.4564 96.9947 56.4213 99.6487C56.922 99.5085 57.4879 99.3382 58.1038 99.1479C61.4186 98.1464 65.9001 96.7644 70.652 97.6907C71.9439 92.4279 74.1571 83.9002 75.8847 79.1631C66.2206 77.065 58.8749 81.9222 57.4428 82.9638L57.4228 82.9738Z" fill="#372420"/>
<path d="M59.8363 105.657L61.8392 99.0674L63.076 99.6483L63.4566 96.7039L65.3844 97.8456C65.3844 97.8456 66.7364 90.6899 62.7455 85.8628C59.1052 81.4612 52.3003 81.8968 47.6185 83.6995C37.9294 87.4251 31.1746 95.9328 30.9392 97.0244C27.6494 112.437 40.5432 109.944 46.0512 107.53C46.7072 107.971 42.2307 114.851 45.0498 118.642C57.6631 116.939 66.2807 114.44 69.896 112.132C69.1999 107.114 65.119 104.475 59.8363 105.657Z" fill="#9E5429"/>
<path d="M53.9478 111.096C55.2046 108.767 59.2254 107 62.8207 106.178L61.7591 105.252C58.6146 106.304 54.7489 107.821 53.2467 109.784C53.1967 110.69 52.5958 110.004 53.9478 111.096Z" fill="#C87D36"/>
<path d="M59.8363 105.658L61.8392 99.0678L63.076 99.6487L63.4566 96.7043L65.3844 97.846C65.3844 97.846 66.7363 90.6903 62.7455 85.8631C60.0316 82.5833 55.56 81.9924 51.5242 82.6484C54.3633 82.8186 57.8634 83.7951 59.7461 86.0684C63.752 90.9007 61.9994 97.2852 61.9994 97.2852L60.8177 96.1435L60.0716 99.1079L59.2554 98.527L56.8519 106.274C62.1346 105.072 65.4444 107.325 66.1655 112.368C62.9057 114.431 69.3601 112.708 69.936 112.157C69.1999 107.115 65.119 104.476 59.8363 105.658Z" fill="#713915"/>
<path d="M46.9224 117.866C45.3451 115.722 47.2429 110.745 48.4246 107.64L46.4217 107.395C45.25 110.495 44.3537 115.212 44.9195 117.62C45.5905 118.246 45.8108 117.996 46.9224 117.866Z" fill="#C87D36"/>
<path d="M44.7293 119.458L44.4589 119.097C42.2457 116.128 43.8881 111.786 44.8746 109.188C44.9246 109.052 44.9797 108.912 45.0298 108.772C40.8837 110.274 35.5159 110.95 32.3263 108.346C29.7275 106.228 29.0014 102.372 30.1681 96.8842C30.4435 95.5973 37.2334 86.8693 47.3181 83.0085C52.2253 81.1207 59.3356 80.615 63.3064 85.3921C67.4825 90.4396 66.1656 97.7054 66.1105 98.0109L65.9052 99.0825L64.0425 97.9758L63.6769 100.82L62.325 100.149L60.9329 104.696C63.1161 104.364 65.3451 104.845 67.1971 106.048C68.1742 106.743 68.9921 107.639 69.5964 108.675C70.2008 109.711 70.5777 110.864 70.7022 112.057L70.7723 112.558L70.3567 112.818C66.3208 115.367 56.9171 117.825 45.2 119.413L44.7293 119.458ZM46.1464 106.659L46.4919 106.889C47.1979 107.365 46.8975 108.151 46.3016 109.728C45.4754 111.912 44.1185 115.492 45.4454 117.815C56.3262 116.313 65.059 114.08 69.0798 111.766C68.9376 110.88 68.6215 110.031 68.1497 109.268C67.6779 108.505 67.0597 107.843 66.3308 107.32C64.6584 106.168 62.4702 105.858 60.0066 106.418L58.7197 106.709L61.3836 98.0059L62.4301 98.5066L62.8207 95.4621L64.7435 96.6038C64.9238 94.4756 64.9388 89.7536 62.1297 86.3585C58.915 82.4677 52.6509 82.5829 47.8689 84.4256C38.3551 88.0761 31.9607 96.3083 31.6553 97.2147C30.6538 102.077 31.1546 105.427 33.2927 107.149C36.5124 109.778 42.6463 108.181 45.7608 106.819L46.1464 106.659Z" fill="#372420"/>
<path d="M65.3293 113.8C65.2592 112.127 64.3278 110.4 63.6869 109.258L63.4916 108.897L64.8736 108.156L65.0639 108.497C65.7198 109.694 66.8164 111.692 66.9015 113.735L65.3293 113.8Z" fill="#372420"/>
<path d="M59.0702 115.302C58.8868 113.909 58.4344 112.566 57.7383 111.346C57.6431 111.166 57.558 111.001 57.4829 110.845L58.895 110.154L59.1353 110.655C59.9215 112.047 60.4316 113.577 60.6375 115.162L59.0702 115.302Z" fill="#372420"/>
<path d="M31.2597 95.457C28.7961 103.299 30.5937 107.23 33.7633 108.892C37.2684 110.745 42.471 109.778 45.3101 108.261C46.4368 99.1075 51.0034 87.7305 56.5265 81.7466C40.4481 82.718 32.2061 92.4475 31.2597 95.457Z" fill="#D22514"/>
<path d="M32.0308 96.9042C32.9321 94.0299 40.4881 85.0415 55.1394 83.384C55.5901 82.8032 56.0508 82.2523 56.5215 81.7466C40.4581 82.718 32.2161 92.4475 31.2697 95.457C29.5021 101.075 29.9277 104.686 31.465 106.889C30.5937 104.656 30.5937 101.431 32.0308 96.9042Z" fill="#E77F6E"/>
<path d="M34.3892 106.108C31.5901 104.606 29.8826 101.371 31.2246 95.1816C28.8111 102.948 30.6087 106.854 33.7282 108.506C37.2334 110.359 42.4359 109.393 45.2751 107.876C45.3652 107.139 45.4804 106.373 45.6156 105.622C42.7414 107.049 37.7842 107.896 34.3892 106.108Z" fill="#A8210C"/>
<path d="M38.4051 110.665C36.6716 110.706 34.9538 110.328 33.3978 109.563C30.5186 108.061 27.6895 104.33 30.5436 95.2367C31.5851 91.9268 39.9874 81.997 56.4664 81.0005L57.0672 82.2624C51.8446 87.9408 47.2129 98.9122 46.0512 108.356L45.6606 108.932C43.4107 110.069 40.9257 110.662 38.4051 110.665ZM31.9807 95.6824C29.9778 102.097 30.6988 106.433 34.0988 108.201C37.3035 109.889 42.0203 108.982 44.6141 107.74C45.7908 98.8471 49.9268 88.712 54.7639 82.6229C40.1276 84.1702 32.7869 93.1386 31.9957 95.6423L31.9807 95.6824Z" fill="#372420"/>
<path d="M53.3869 110.665L52.0599 109.979C53.6923 106.764 58.5043 105.257 59.4507 104.971L59.8613 106.418C57.3376 107.159 54.3683 108.737 53.3869 110.665Z" fill="#372420"/>
<path d="M27.0986 58.0216C38.6604 58.4122 47.4633 60.9459 53.9777 64.0305C58.3491 57.7912 68.6792 48.3071 72.665 45.5029L73.9418 50.3301C67.5225 56.3892 59.3756 64.2058 55.8405 70.0195C47.0476 65.8232 31.49 61.8873 23.6436 62.0075L27.0986 58.0216Z" fill="#D22514"/>
<path d="M56.1359 70.991L55.5099 70.6955C46.8473 66.5594 31.6802 62.7487 23.964 62.7487H23.6335L21.916 62.7737L26.743 57.2405H27.1086C37.1232 57.581 46.0512 59.5389 53.7023 63.0541C58.4292 56.5795 68.3887 47.531 72.2293 44.847L73.1306 44.2061L74.798 50.5755L74.4676 50.886C67.5475 57.3957 59.8813 64.8468 56.4914 70.4151L56.1359 70.991ZM25.3009 61.2515C33.3727 61.592 46.9875 65.0972 55.565 69.023C59.1452 63.4647 66.4309 56.3692 73.0906 50.0698L72.2193 46.7749C67.8029 50.175 58.6095 58.7627 54.6086 64.4713L54.2381 65.002L53.6522 64.7266C46.1413 61.1713 37.3385 59.1784 27.4441 58.8028L25.3009 61.2515Z" fill="#372420"/>
<path d="M74.092 69.4084L72.5898 69.3032C72.6199 68.8576 72.6549 68.4069 72.695 67.9662C72.7851 66.8395 72.8703 65.778 72.8652 65.0469H74.3925C74.3925 65.8381 74.3073 66.9347 74.2172 68.0914C74.1471 68.5271 74.092 68.9727 74.092 69.4084Z" fill="#372420"/>
<path d="M86.8607 107.034C73.8768 111.201 50.6229 117.735 43.798 118.416C38.8758 118.917 26.2124 119.868 30.1231 126.964C39.3515 143.719 107.115 118.251 107.115 118.251C112.824 116.363 130.649 107.3 125.222 98.4415C123.129 95.0214 119.128 95.1816 114.366 96.794C109.173 98.5517 104.166 101.336 99.0535 103.118C97.0255 103.82 88.8887 106.383 86.8607 107.034Z" fill="#D22514"/>
<path d="M40.9187 125.067C47.7737 124.536 71.1627 118.527 84.2368 114.651C86.2798 114.045 94.4717 111.647 96.5047 111.011C101.657 109.343 106.725 106.669 111.957 105.027C116.754 103.525 120.374 101.907 122.387 105.377C122.9 106.229 123.213 107.186 123.304 108.176C125.988 105.172 127.65 102.949 125.597 99.5986C123.544 96.2487 119.118 97.0949 114.356 98.7223C109.163 100.48 104.156 103.264 99.0434 105.047C97.0404 105.748 88.8886 108.307 86.8606 108.963C73.8767 113.129 50.6228 119.659 43.7979 120.345C39.2613 120.8 28.6258 120.565 30.2782 127.726C33.6918 126.372 37.2699 125.478 40.9187 125.067Z" fill="#A8210C"/>
<path d="M45.9411 133.399C38.0646 133.399 31.8856 131.746 29.4521 127.33C28.4857 125.572 28.3555 123.995 29.0765 122.633C31.0344 118.907 38.9159 118.126 43.147 117.721L43.7129 117.665C50.4026 117 73.6014 110.495 86.6304 106.314L89.1991 105.497C92.4288 104.496 97.3059 102.924 98.7931 102.408C101.252 101.551 103.74 100.435 106.149 99.3532C108.733 98.1965 111.411 96.9947 114.115 96.0833C117.861 94.8114 123.159 93.6397 125.858 98.0463C126.47 99.0043 126.846 100.094 126.955 101.226C127.063 102.357 126.902 103.499 126.483 104.556C123.98 111.441 112.283 117.345 107.346 118.982C105.293 119.739 68.5841 133.399 45.9411 133.399ZM119.934 96.4339C118.109 96.5063 116.307 96.8697 114.596 97.5105C111.962 98.4018 109.318 99.5886 106.765 100.73C104.326 101.827 101.807 102.954 99.2888 103.83C97.7866 104.356 92.8895 105.908 89.6548 106.935L87.1111 107.751C73.7015 112.052 50.7731 118.477 43.8831 119.168L43.3173 119.223C39.6469 119.583 32.0108 120.329 30.4285 123.334C29.9578 124.23 30.073 125.302 30.789 126.599C34.3843 133.109 48.6 133.659 71.9039 128.156C83.7428 125.267 95.4126 121.725 106.86 117.545C110.916 116.203 122.708 110.535 125.091 104.025C125.429 103.184 125.56 102.275 125.473 101.373C125.386 100.471 125.083 99.603 124.591 98.8425C123.584 97.2301 122.092 96.4339 119.934 96.4339Z" fill="#372420"/>
<path d="M104.997 119.613C104.997 119.613 104.942 114.105 106.71 113.604C108.477 113.103 112.443 112.042 111.892 110.845C110.65 109.153 110.235 107.71 102.158 110.785C102.158 110.785 100.941 111.701 100.27 117.825C99.6994 123.038 104.997 119.613 104.997 119.613Z" fill="#646F75"/>
<path d="M101.272 119.483C101.943 113.359 103.159 112.443 103.159 112.443C109.068 110.194 110.876 110.36 111.907 111.276V111.236C110.665 109.548 110.25 108.106 102.173 111.181C102.173 111.181 100.956 112.097 100.285 118.221C100.09 120.009 100.586 120.775 101.317 121.016C101.223 120.51 101.208 119.993 101.272 119.483Z" fill="#495256"/>
<path d="M101.908 121.391C101.465 121.404 101.027 121.291 100.646 121.065C99.7694 120.524 99.4189 119.413 99.5992 117.765C100.27 111.656 101.512 110.439 101.752 110.254L101.827 110.194L101.918 110.159C109.634 107.225 110.866 108.251 112.238 110.159L112.438 110.434L112.503 110.55C112.581 110.711 112.621 110.888 112.621 111.068C112.621 111.247 112.581 111.424 112.503 111.586C112.002 112.633 110.14 113.334 107.055 114.2L106.9 114.24C106.149 114.45 105.653 117.245 105.673 119.583V119.954L105.363 120.159C105.137 120.329 103.43 121.391 101.908 121.391ZM102.548 111.376C102.328 111.676 101.467 113.123 100.941 117.916C100.821 118.972 100.971 119.683 101.352 119.919C102.008 120.319 103.47 119.713 104.321 119.233C104.321 117.5 104.591 113.504 106.529 112.963L106.684 112.918C110.019 111.987 111.021 111.416 111.241 111.105L111.141 110.96C110.215 109.663 109.544 108.722 102.548 111.371V111.376Z" fill="#372420"/>
<path d="M98.5427 110.84C94.8123 108.747 91.5325 109.974 89.0889 112.443C84.6975 116.844 86.7756 123.499 92.8744 124.005C101.212 126.228 105.012 115.267 99.419 111.486C99.1476 111.244 98.8543 111.028 98.5427 110.84Z" fill="#D3D8DC"/>
<path d="M99.4189 111.466C99.1468 111.231 98.8534 111.021 98.5427 110.84C98.3824 110.75 98.2222 110.675 98.0419 110.595C99.8295 115.602 97.0405 122.312 91.3121 123.724C91.816 123.867 92.3325 123.961 92.8544 124.005C101.212 126.228 105.012 115.267 99.4189 111.466Z" fill="#A1A5A7"/>
<path d="M95.0326 124.976C94.2648 124.972 93.5008 124.87 92.7592 124.671C89.7799 124.406 87.4415 122.718 86.5001 120.164C85.4987 117.43 86.3048 114.29 88.6132 111.977C91.6927 108.887 95.338 108.277 98.8731 110.264C99.2129 110.459 99.5332 110.685 99.8295 110.941C103.039 113.149 103.335 117.36 101.938 120.39C101.353 121.74 100.39 122.892 99.1643 123.706C97.9388 124.52 96.5037 124.961 95.0326 124.976ZM94.7772 110.455C92.589 110.455 90.8164 111.667 89.5696 112.918C87.6318 114.856 86.9408 117.455 87.762 119.689C88.5281 121.767 90.4559 123.129 92.9295 123.329L93.0497 123.354C97.0255 124.416 99.6092 122.222 100.711 119.819C101.863 117.315 101.662 113.81 99.0384 112.027L98.9833 111.982C98.7459 111.772 98.4875 111.588 98.2122 111.431C97.1721 110.811 95.9878 110.475 94.7772 110.455Z" fill="#372420"/>
<path d="M91.5474 123.94C90.9038 123.936 90.2631 123.854 89.6396 123.694L89.9651 122.387C94.1612 123.439 96.78 120.249 97.7515 117.195C98.5727 114.616 98.3323 111.451 96.2743 110.655L96.775 109.398C99.6292 110.505 100.08 114.36 99.0534 117.6C97.9718 120.955 95.3129 123.94 91.5474 123.94Z" fill="#372420"/>
<path d="M94.9023 117.363C95.8562 115.82 95.7255 114.01 94.6105 113.321C93.4954 112.631 91.8183 113.324 90.8645 114.867C89.9107 116.41 90.0414 118.22 91.1564 118.909C92.2714 119.598 93.9485 118.906 94.9023 117.363Z" fill="#646F75"/>
<path d="M92.1183 119.859C91.6517 119.861 91.1939 119.732 90.7963 119.488C90.4248 119.246 90.1177 118.917 89.9014 118.529C89.685 118.142 89.566 117.708 89.5545 117.265C89.5066 116.295 89.7621 115.334 90.2856 114.516C91.4523 112.628 93.5053 111.852 94.9574 112.753C96.4095 113.654 96.6348 115.833 95.4581 117.72C94.9612 118.553 94.2175 119.211 93.33 119.603C92.9464 119.766 92.5349 119.853 92.1183 119.859ZM93.6205 113.734C93.1601 113.789 92.7197 113.954 92.3369 114.216C91.9542 114.477 91.6403 114.828 91.4223 115.237C91.0512 115.813 90.866 116.489 90.8915 117.175C90.8746 117.407 90.9217 117.64 91.0276 117.847C91.1336 118.055 91.2943 118.229 91.4923 118.352C91.6904 118.475 91.9183 118.541 92.1513 118.544C92.3844 118.546 92.6136 118.485 92.8143 118.366C93.4406 118.083 93.965 117.615 94.3165 117.024C95.0626 115.818 95.0275 114.395 94.2464 113.91C94.0588 113.793 93.8416 113.732 93.6205 113.734Z" fill="#372420"/>
<path d="M111.527 117.48C108.853 116.564 106.75 117.185 105.017 118.922C101.923 122.027 103.39 126.719 107.686 127.074C114.846 129.453 117.666 119.563 112.633 118.126C112.288 117.873 111.917 117.656 111.527 117.48Z" fill="#D3D8DC"/>
<path d="M113.054 118.136C112.836 117.961 112.603 117.805 112.358 117.67C112.228 117.6 112.097 117.545 111.972 117.485C113.394 121.22 111.171 126.243 106.629 127.299C107.029 127.406 107.438 127.475 107.851 127.505C114.476 129.192 117.495 120.975 113.054 118.136Z" fill="#A1A5A7"/>
<path d="M109.829 128.116C109.053 128.11 108.282 127.982 107.546 127.735C106.549 127.681 105.59 127.34 104.783 126.753C103.976 126.166 103.357 125.357 102.999 124.425C102.263 122.422 102.854 120.134 104.536 118.446C106.539 116.443 108.973 115.888 111.742 116.844C112.165 117.026 112.567 117.25 112.944 117.515C113.639 117.731 114.263 118.131 114.75 118.672C115.238 119.213 115.57 119.875 115.713 120.59C115.929 121.676 115.861 122.8 115.515 123.853C115.17 124.906 114.558 125.852 113.74 126.598C112.678 127.585 111.279 128.128 109.829 128.116ZM109.173 117.725C108.478 117.735 107.792 117.889 107.158 118.177C106.525 118.465 105.958 118.88 105.493 119.398C104.181 120.71 103.71 122.457 104.266 123.965C104.545 124.664 105.022 125.268 105.638 125.701C106.254 126.134 106.983 126.378 107.736 126.403L107.891 126.433C110.34 127.244 111.932 126.433 112.834 125.612C113.473 125.023 113.952 124.281 114.226 123.456C114.5 122.631 114.56 121.75 114.401 120.895C114.305 120.394 114.07 119.93 113.724 119.554C113.379 119.179 112.935 118.908 112.443 118.772L112.303 118.732L112.193 118.642C111.913 118.448 111.616 118.28 111.306 118.141C110.623 117.885 109.902 117.744 109.173 117.725Z" fill="#372420"/>
<path d="M106.805 127.415C106.469 127.414 106.134 127.384 105.803 127.325L106.049 125.998C108.903 126.498 110.961 124.11 111.672 121.656C112.097 120.154 112.037 118.376 110.906 117.926L111.406 116.674C113.069 117.335 113.695 119.488 112.964 122.027C112.147 124.841 109.839 127.415 106.805 127.415Z" fill="#372420"/>
<path d="M109.108 122.394C109.782 121.305 109.69 120.028 108.905 119.542C108.119 119.057 106.936 119.546 106.263 120.635C105.59 121.724 105.681 123.001 106.467 123.487C107.253 123.972 108.435 123.483 109.108 122.394Z" fill="#646F75"/>
<path d="M107.14 124.345C106.773 124.349 106.413 124.25 106.099 124.06C105.812 123.87 105.575 123.615 105.407 123.316C105.239 123.016 105.145 122.681 105.132 122.337C105.095 121.612 105.284 120.893 105.673 120.279C106.048 119.658 106.606 119.168 107.27 118.877C107.58 118.724 107.924 118.653 108.269 118.669C108.614 118.686 108.95 118.79 109.244 118.972C109.538 119.153 109.78 119.407 109.949 119.708C110.118 120.01 110.208 120.349 110.21 120.695C110.249 121.419 110.06 122.137 109.669 122.748C109.297 123.37 108.74 123.862 108.077 124.155C107.779 124.277 107.462 124.342 107.14 124.345ZM108.207 120.029C108.062 120.032 107.918 120.064 107.786 120.124C107.384 120.308 107.046 120.61 106.82 120.99C106.583 121.362 106.462 121.796 106.474 122.237C106.461 122.37 106.486 122.503 106.545 122.622C106.604 122.741 106.695 122.842 106.808 122.911C106.922 122.981 107.052 123.018 107.185 123.018C107.318 123.017 107.448 122.979 107.561 122.908C107.963 122.725 108.299 122.423 108.522 122.042C108.762 121.671 108.882 121.236 108.868 120.795C108.867 120.665 108.836 120.536 108.779 120.419C108.722 120.302 108.639 120.2 108.537 120.119C108.442 120.061 108.333 120.03 108.222 120.029H108.207Z" fill="#372420"/>
<path d="M106.554 122.272C107.381 122.453 108.632 120.805 107.371 120.064L102.363 118.316L101.131 120.76L106.554 122.272Z" fill="#646F75"/>
<path d="M106.69 122.958C106.594 122.958 106.498 122.948 106.404 122.928H106.374L100.165 121.181L102.028 117.475L107.711 119.478C108.077 119.675 108.355 120.002 108.492 120.394C108.628 120.786 108.612 121.215 108.447 121.596C108.312 121.966 108.076 122.29 107.765 122.531C107.454 122.772 107.081 122.92 106.69 122.958ZM102.103 120.329L106.695 121.611C106.816 121.559 106.924 121.48 107.01 121.38C107.097 121.281 107.16 121.163 107.195 121.035C107.221 120.969 107.222 120.895 107.196 120.828C107.17 120.761 107.119 120.706 107.055 120.675L102.679 119.148L102.103 120.329Z" fill="#372420"/>
<path d="M59.0151 131.351C59.0151 131.351 58.9601 125.988 60.6876 125.507C62.4151 125.026 66.2707 124.005 65.7349 122.818C64.5232 121.171 64.1176 119.769 56.2511 122.763C56.2511 122.763 55.0644 123.654 54.4084 129.623C53.8526 134.701 59.0151 131.351 59.0151 131.351Z" fill="#646F75"/>
<path d="M55.2647 131.391C55.9407 125.267 57.1524 124.35 57.1524 124.35C63.061 122.102 64.8687 122.267 65.9002 123.184V123.144C64.6584 121.456 64.2427 120.014 56.166 123.089C56.166 123.089 54.9542 124.005 54.2782 130.129C54.0829 131.917 54.5787 132.683 55.3147 132.923C55.217 132.418 55.2001 131.901 55.2647 131.391Z" fill="#495256"/>
<path d="M56.0057 133.103C55.57 133.114 55.1399 133.003 54.7639 132.783C53.9076 132.252 53.5621 131.165 53.7374 129.548C54.3934 123.594 55.6101 122.402 55.8455 122.227L55.9206 122.167L56.0107 122.132C63.5217 119.267 64.7434 120.274 66.0804 122.132L66.2757 122.397L66.3458 122.517C66.4181 122.674 66.4556 122.845 66.4556 123.018C66.4556 123.191 66.4181 123.362 66.3458 123.519C65.845 124.545 64.0374 125.231 61.023 126.073L60.8728 126.118C60.1467 126.318 59.671 129.012 59.6961 131.305V131.696L59.3856 131.896C59.1503 132.067 57.4979 133.103 56.0057 133.103ZM56.6416 123.334C56.4263 123.634 55.5901 125.046 55.0794 129.698C54.9692 130.7 55.0794 131.411 55.4749 131.636C56.0558 131.991 57.4178 131.496 58.3391 130.97C58.3391 129.282 58.6045 125.392 60.5023 124.856L60.6575 124.816C63.8621 123.919 64.8486 123.374 65.0789 123.063L64.9838 122.933C64.0775 121.681 63.4365 120.765 56.6416 123.334Z" fill="#372420"/>
<path d="M52.726 122.808C49.0907 120.765 45.9161 121.967 43.5176 124.365C39.2413 128.656 41.2643 135.141 47.2029 135.632C55.3298 137.8 59.0302 127.119 53.5822 123.419C53.3171 123.188 53.0303 122.983 52.726 122.808Z" fill="#D3D8DC"/>
<path d="M53.7675 123.279C53.497 123.043 53.2053 122.834 52.8962 122.653C52.7309 122.562 52.5707 122.487 52.3954 122.407C54.1881 127.415 51.394 134.125 45.6656 135.537C46.1696 135.679 46.686 135.773 47.2079 135.817C55.5651 138.041 59.3606 127.079 53.7675 123.279Z" fill="#A1A5A7"/>
<path d="M49.3059 136.594C48.5569 136.59 47.8114 136.491 47.0877 136.298C44.1785 136.038 41.8951 134.39 40.9788 131.887C39.9773 129.218 40.7885 126.153 43.0418 123.875C46.0462 120.87 49.6064 120.269 53.0564 122.202C53.3864 122.393 53.6982 122.615 53.9877 122.863C57.1273 125.021 57.4027 129.132 56.0507 132.092C55.4828 133.415 54.5432 134.544 53.346 135.343C52.1487 136.142 50.7452 136.577 49.3059 136.594ZM49.0556 122.447C46.9275 122.447 45.2049 123.624 43.9882 124.841C42.1104 126.729 41.4395 129.248 42.2356 131.421C42.9767 133.424 44.8544 134.761 47.2429 134.956L47.3631 134.981C51.2237 136.008 53.7424 133.879 54.8089 131.546C55.9306 129.092 55.7353 125.702 53.1866 123.975L53.1315 123.93C52.8982 123.728 52.6467 123.549 52.3804 123.394C51.3726 122.796 50.227 122.47 49.0556 122.447Z" fill="#372420"/>
<path d="M45.9111 135.582C45.2829 135.579 44.6574 135.5 44.0483 135.347L44.3738 134.04C48.4498 135.041 50.9985 131.957 51.9398 128.992C52.736 126.488 52.5057 123.414 50.5078 122.638L51.0085 121.381C53.7975 122.462 54.2432 126.233 53.2367 129.393C52.1852 132.698 49.5864 135.582 45.9111 135.582Z" fill="#372420"/>
<path d="M49.1821 129.164C50.1112 127.66 49.9834 125.897 48.8966 125.225C47.8098 124.554 46.1756 125.228 45.2465 126.731C44.3174 128.234 44.4452 129.997 45.532 130.669C46.6188 131.341 48.253 130.667 49.1821 129.164Z" fill="#646F75"/>
<path d="M46.4868 131.611C46.0237 131.616 45.5688 131.489 45.1749 131.245C44.8129 131.005 44.5135 130.681 44.3019 130.301C44.0902 129.921 43.9724 129.497 43.9581 129.062C43.911 128.115 44.1614 127.176 44.6742 126.378C45.1595 125.565 45.8857 124.923 46.7522 124.54C47.1487 124.359 47.5826 124.275 48.0179 124.295C48.4533 124.315 48.8777 124.439 49.2559 124.656C50.6779 125.537 50.8982 127.66 49.7566 129.523C49.4301 130.117 48.9596 130.619 48.3883 130.984C47.817 131.349 47.1631 131.565 46.4868 131.611ZM47.9489 125.642C47.7149 125.648 47.484 125.697 47.268 125.787C46.6632 126.062 46.1579 126.517 45.8208 127.089C45.4654 127.649 45.2906 128.304 45.3201 128.967C45.3217 129.188 45.375 129.405 45.4759 129.602C45.5768 129.798 45.7224 129.969 45.901 130.099C46.6521 130.564 47.9039 129.978 48.6199 128.812C49.336 127.645 49.3109 126.268 48.5548 125.807C48.3735 125.694 48.1628 125.636 47.9489 125.642Z" fill="#372420"/>
<path d="M65.3744 129.278C62.7756 128.381 60.7226 128.987 59.0301 130.68C56.0258 133.684 57.4428 138.276 61.6289 138.622C68.6041 140.94 71.3531 131.326 66.4509 129.904C66.1156 129.657 65.7547 129.447 65.3744 129.278Z" fill="#D3D8DC"/>
<path d="M67.0017 130.484C66.8147 130.33 66.6135 130.195 66.4008 130.079C66.2857 130.019 66.1755 129.969 66.0653 129.918C66.357 130.777 66.4676 131.686 66.3903 132.589C66.3129 133.492 66.0493 134.369 65.616 135.165C65.1827 135.961 64.5891 136.659 63.8727 137.214C63.1563 137.769 62.3326 138.17 61.4536 138.391C61.7994 138.484 62.1531 138.544 62.5102 138.571C68.2285 140.008 70.8373 132.933 67.0017 130.484Z" fill="#A1A5A7"/>
<path d="M63.722 139.653C62.9648 139.648 62.213 139.524 61.4937 139.288C60.5198 139.234 59.5824 138.899 58.7944 138.324C58.0063 137.749 57.4013 136.959 57.0523 136.048C56.3362 134.095 56.9121 131.857 58.5545 130.204C60.5223 128.236 62.8908 127.7 65.5947 128.642C66.0072 128.816 66.3986 129.036 66.7614 129.298C67.4418 129.508 68.0527 129.898 68.5296 130.427C69.0064 130.956 69.3315 131.604 69.4704 132.302C69.686 133.369 69.6223 134.473 69.2854 135.507C68.9485 136.542 68.3498 137.471 67.5476 138.206C66.5021 139.156 65.1346 139.674 63.722 139.653ZM63.076 129.533C62.4005 129.543 61.7343 129.692 61.1191 129.971C60.5039 130.25 59.953 130.654 59.5008 131.156C58.229 132.433 57.7733 134.125 58.3091 135.587C58.5789 136.266 59.041 136.851 59.6388 137.271C60.2365 137.691 60.9439 137.927 61.674 137.951L61.8342 137.981C64.2127 138.772 65.7549 137.981 66.6262 137.19C67.2428 136.614 67.7038 135.891 67.9664 135.089C68.229 134.287 68.2847 133.432 68.1284 132.603C68.0351 132.119 67.8084 131.671 67.474 131.309C67.1396 130.947 66.7106 130.686 66.2356 130.555L66.0954 130.515L65.9853 130.42C65.7143 130.226 65.426 130.059 65.124 129.919C64.4671 129.679 63.7752 129.549 63.076 129.533Z" fill="#372420"/>
<path d="M60.7777 138.972C60.4418 138.973 60.1066 138.943 59.7762 138.882L60.0166 137.555C62.7906 138.056 64.7885 135.722 65.4745 133.339C65.8851 131.902 65.8351 130.159 64.7435 129.724L65.2442 128.472C66.8766 129.123 67.4875 131.226 66.7764 133.709C66.0053 136.459 63.737 138.972 60.7777 138.972Z" fill="#372420"/>
<path d="M63.0257 134.065C63.6815 133.004 63.5914 131.759 62.8245 131.285C62.0576 130.811 60.9044 131.287 60.2486 132.348C59.5929 133.409 59.6829 134.653 60.4498 135.127C61.2167 135.601 62.37 135.126 63.0257 134.065Z" fill="#646F75"/>
<path d="M61.1232 135.988C60.7698 135.984 60.424 135.886 60.1217 135.702C59.8396 135.516 59.6061 135.264 59.4407 134.969C59.2752 134.674 59.1825 134.343 59.1703 134.005C59.1445 133.297 59.3297 132.597 59.7023 131.994C60.075 131.392 60.6184 130.913 61.2634 130.62C61.5681 130.47 61.9061 130.399 62.2455 130.415C62.5849 130.432 62.9146 130.534 63.2035 130.713C63.4925 130.892 63.7312 131.141 63.8973 131.437C64.0633 131.734 64.1512 132.068 64.1526 132.408C64.1877 133.114 64.0022 133.814 63.6218 134.411C63.3728 134.863 63.0129 135.246 62.5759 135.521C62.1389 135.797 61.6391 135.958 61.1232 135.988ZM62.1547 131.777C62.0166 131.781 61.8806 131.811 61.7541 131.867C61.3662 132.042 61.0412 132.332 60.8228 132.698C60.5912 133.057 60.4743 133.478 60.4873 133.905C60.4882 134.029 60.517 134.152 60.5716 134.264C60.6262 134.375 60.7052 134.474 60.8027 134.551C61.1883 134.786 61.9594 134.501 62.4501 133.704C62.6822 133.346 62.7993 132.925 62.7856 132.498C62.7851 132.374 62.7564 132.252 62.7017 132.141C62.6471 132.03 62.5679 131.933 62.4702 131.857C62.3742 131.802 62.2652 131.774 62.1547 131.777Z" fill="#372420"/>
<path d="M60.5323 133.94C61.3385 134.12 62.5352 132.517 61.3285 131.791L56.4464 130.089L55.2496 132.472L60.5323 133.94Z" fill="#646F75"/>
<path d="M60.6625 134.631C60.5699 134.63 60.4775 134.62 60.3871 134.601H60.352L54.2782 132.908L56.1109 129.268L61.669 131.22C62.0289 131.415 62.3028 131.737 62.4363 132.124C62.5699 132.511 62.5533 132.934 62.39 133.309C62.2548 133.669 62.0212 133.983 61.7157 134.217C61.4103 134.451 61.0454 134.594 60.6625 134.631ZM56.221 132.042L60.6675 133.279C60.788 133.232 60.8961 133.158 60.983 133.062C61.0699 132.967 61.1333 132.852 61.1682 132.728C61.1898 132.667 61.1885 132.6 61.1645 132.54C61.1406 132.481 61.0956 132.431 61.038 132.402L56.7919 130.9L56.221 132.042Z" fill="#372420"/>
<path d="M30.3284 128.531C29.3569 126.759 29.2067 125.216 29.8927 123.944C31.5551 120.865 37.5689 120.389 41.9553 120.044C42.6062 119.994 43.2021 119.943 43.7179 119.893C50.4176 119.222 73.6214 112.723 86.6504 108.536L89.2242 107.72C92.4539 106.719 97.331 105.151 98.8181 104.631C101.282 103.774 103.77 102.658 106.179 101.576C108.768 100.414 111.437 99.2176 114.14 98.3062C118.322 96.8891 124.055 94.9512 126.308 99.2326L125.116 99.8586C123.529 96.8541 119.403 97.9507 114.571 99.5831C111.932 100.474 109.288 101.661 106.73 102.808C104.296 103.9 101.777 105.026 99.2638 105.903C97.7616 106.403 92.8695 107.981 89.6297 109.007L87.066 109.823C73.6615 114.125 50.7381 120.544 43.8531 121.235C43.3523 121.29 42.7214 121.336 42.0604 121.386C38.4452 121.671 32.3914 122.147 31.0794 124.585C30.6188 125.442 30.759 126.518 31.5101 127.88L30.3284 128.531Z" fill="#372421"/>
<path d="M35.7862 67.5605C32.6166 68.562 30.7389 71.5665 31.5901 74.2254C31.8178 74.901 32.1963 75.5158 32.6969 76.0233C33.1975 76.5309 33.807 76.9178 34.4793 77.1548C34.6529 77.0847 34.8332 77.0196 35.0201 76.9595C34.3192 76.7652 33.6758 76.404 33.1448 75.907C32.6137 75.41 32.2109 74.7918 31.9706 74.1053C31.1795 71.6015 32.932 68.8224 35.8864 67.881C38.8407 66.9396 41.8951 68.1964 42.6812 70.6852C43.2721 72.5429 42.4509 74.5609 40.7735 75.8629C41.0723 75.6981 41.3901 75.5703 41.7198 75.4823C42.3665 74.8603 42.8317 74.074 43.0655 73.2077C43.2993 72.3415 43.2928 71.4279 43.0468 70.565C42.2156 67.896 38.9558 66.549 35.7862 67.5605Z" fill="#D5A73B"/>
<path d="M37.8994 70.5299L38.5654 71.251C38.976 71.0507 39.4016 70.8654 39.732 70.7503C39.2296 70.1304 38.5327 69.6981 37.7542 69.5234C37.4037 69.7788 37.7141 70.3096 37.8994 70.5299Z" fill="#2D2F7B"/>
<path d="M37.2834 73.149L38.0896 72.6482L38.5302 71.7169L39.5817 71.4414L40.2577 72.3528L39.7069 72.7584L39.8021 72.8736L40.6132 72.5181L40.5131 72.3828L40.6934 72.2577L39.9222 71.1961L39.8421 70.8906C38.0921 71.671 36.4233 72.622 34.8599 73.7299C34.9996 73.9639 35.1552 74.1881 35.3255 74.4009C35.4607 74.2907 35.8263 74.0203 35.9865 73.9001C35.6012 74.2975 35.3207 74.7845 35.1703 75.3172L35.4657 75.7829L35.2655 76.489L36.2218 76.2286L36.4071 75.5075L35.9865 75.2171C36.0288 74.5474 36.3033 73.9135 36.7626 73.4244L37.1182 73.2091C36.654 73.7053 36.4008 74.3624 36.4121 75.0418L36.9479 75.3823L36.7626 76.1234L37.9994 75.9181L38.1597 75.187L37.2483 74.8165C37.0731 74.2724 37.0854 73.6852 37.2834 73.149Z" fill="#2D2F7B"/>
<path d="M38.3199 71.3812L37.7741 70.7453C37.4587 70.3747 37.1232 69.8239 37.6389 69.4834C36.6375 69.2481 35.636 69.3682 35.3606 69.208C35.3606 69.208 35.3255 69.208 35.3306 69.208C35.4507 69.7088 33.7082 71.6366 34.7447 73.5495C35.8825 72.7413 37.0774 72.0167 38.3199 71.3812Z" fill="#2D2F7B"/>
<path d="M39.3614 72.1724L39.4916 71.6816L38.6954 71.8669L38.4451 72.3476L39.066 71.9621L38.8857 72.3176L39.3614 72.1724Z" fill="#2D2F7B"/>
<path d="M41.3794 73.9249L40.7535 73.5294L40.7284 73.2189L39.8071 73.5694L40.1075 73.2489L40.7084 72.9785L40.5031 72.7031L39.6769 73.0587L39.2012 73.6045L37.3835 73.8298L37.5288 74.5258L38.8457 75.0917L38.7656 76.4086L40.0624 76.4787L40.7685 75.9079L40.1676 74.8513L41.2792 74.4708L41.3794 73.9249Z" fill="#2D2F7B"/>
<path d="M39.9974 76.2088C37.9599 76.0646 35.9172 76.4079 34.0387 77.2103L33.7984 77.8362C35.1704 77.2804 37.664 76.4742 38.8057 76.5493V76.6044C37.0123 77.0034 35.2604 77.5701 33.5731 78.2969L33.1725 79.3385C34.9008 79.2679 36.5884 78.7928 38.0997 77.9514C39.4216 77.2904 40.5032 76.6545 41.6048 76.7196L42.6363 75.3776C41.9002 75.1122 40.7485 75.673 39.9974 76.2088Z" fill="#D22514"/>
<path d="M42.4009 77.165C42.4513 77.4074 42.4102 77.66 42.2854 77.8739C42.1606 78.0878 41.9609 78.2478 41.725 78.3231C41.4891 78.3984 41.2337 78.3837 41.008 78.2817C40.7823 78.1797 40.6025 77.9977 40.5031 77.7709L40.1226 77.8911C40.1675 78.1309 40.1233 78.379 39.9982 78.5885C39.8732 78.7981 39.6759 78.9548 39.4435 79.0292C39.2111 79.1036 38.9595 79.0906 38.736 78.9926C38.5125 78.8946 38.3325 78.7183 38.2298 78.497L37.8492 78.6171C37.8997 78.8596 37.8586 79.1121 37.7337 79.326C37.6089 79.5399 37.4093 79.7 37.1734 79.7753C36.9375 79.8506 36.682 79.8359 36.4564 79.7339C36.2307 79.6319 36.0508 79.4499 35.9515 79.2231L35.5709 79.3432C35.7058 79.6565 35.9577 79.9046 36.273 80.0347C36.5883 80.1647 36.9419 80.1664 37.2584 80.0393C37.4805 79.9735 37.6837 79.8556 37.8509 79.6953C38.0182 79.535 38.1446 79.337 38.2198 79.1179C38.4101 79.2462 38.6274 79.3291 38.8548 79.3604C39.0822 79.3916 39.3138 79.3704 39.5317 79.2982C39.7528 79.2338 39.9555 79.1182 40.1234 78.9607C40.2914 78.8032 40.4197 78.6083 40.4981 78.3918C40.6872 78.523 40.9045 78.6077 41.1325 78.639C41.3604 78.6703 41.5926 78.6474 41.81 78.5721C42.1416 78.4933 42.429 78.2877 42.6106 77.9993C42.7923 77.7109 42.8536 77.3629 42.7814 77.0298L42.4009 77.165Z" fill="#2D2F7B"/>
<path d="M40.9738 79.8991C40.7478 79.9891 40.4955 79.9871 40.2709 79.8936C40.0463 79.8 39.8672 79.6222 39.772 79.3983L39.3915 79.5235C39.4394 79.7652 39.3965 80.0161 39.2711 80.2282C39.1456 80.4403 38.9464 80.5987 38.7114 80.6731C38.4765 80.7475 38.2224 80.7326 37.9978 80.6314C37.7731 80.5302 37.5936 80.3497 37.4937 80.1244L37.1132 80.2496C37.248 80.5629 37.5 80.811 37.8152 80.941C38.1305 81.0711 38.4841 81.0727 38.8006 80.9456C39.0208 80.8806 39.2225 80.7647 39.3895 80.6072C39.5565 80.4498 39.6842 80.2552 39.762 80.0393C39.9524 80.1676 40.1696 80.2505 40.397 80.2818C40.6245 80.313 40.856 80.2917 41.0739 80.2195C41.4062 80.1419 41.6944 79.9365 41.8763 79.6478C42.0581 79.3591 42.1188 79.0104 42.0453 78.6772L41.6648 78.7974C41.716 79.0349 41.6725 79.283 41.5434 79.4888C41.4143 79.6946 41.2099 79.8418 40.9738 79.8991Z" fill="#2D2F7B"/>
<path d="M60.1367 14.5919L58.6345 14.4567C58.7747 12.9144 59.5559 10.8714 61.3284 9.75974C62.3299 9.11878 64.1125 8.55294 66.6762 9.50937L66.1755 10.9064C63.9272 11.247 61.9343 12.5489 60.1367 14.5919Z" fill="#372420"/>
<path d="M24.6851 43.5647C27.8447 42.5632 30.1931 40.0094 30.0279 35.9083C30.0061 34.857 29.7313 33.8264 29.2267 32.9038C29.0264 35.703 27.0235 38.6674 24.9905 40.3749C23.3131 41.767 20.8645 42.443 18.5111 42.4881C18.5712 42.6583 18.6363 42.8086 18.7014 42.9588C19.9282 43.5647 21.2251 44.1606 24.6851 43.5647Z" fill="#C87D36"/>
<path d="M29.5272 34.7717C29.2969 38.7777 25.3762 43.4596 19.9482 43.2343C16.0075 43.0641 12.7878 38.4221 13.0031 34.977C13.2335 30.971 16.3831 28.5474 20.7895 28.6826C25.1959 28.8178 29.7525 30.7557 29.5272 34.7717Z" fill="#372420"/>
<path d="M21.6107 29.9795C21.0323 29.8705 20.4464 29.8069 19.8581 29.7892C16.6334 29.689 14.3501 31.4567 14.1598 34.3961C14.1442 34.7313 14.166 35.0672 14.2249 35.3976C15.0361 32.1477 17.8252 30.1597 21.6107 29.9795Z" fill="white"/>
<path d="M38.996 48.7228C42.0003 50.1198 44.0033 49.0783 44.9296 47.6311C45.9912 45.9236 45.8459 43.3297 43.7579 41.4019C43.5866 42.7407 43.1477 44.0314 42.4673 45.1971C41.7868 46.3627 40.8787 47.3796 39.7971 48.187C39.5399 48.3799 39.2725 48.5587 38.996 48.7228Z" fill="#C87D36"/>
</svg>
