<svg width="34" height="35" viewBox="0 0 34 35" fill="none" xmlns="http://www.w3.org/2000/svg">
<g clip-path="url(#clip0_216_481)">
<path d="M26.609 0H7.39096C7.3188 0 7.2496 0.0285729 7.19858 0.0794329C7.14756 0.130293 7.1189 0.199274 7.1189 0.271201V20.3401C7.1189 20.8116 7.3068 21.2638 7.64127 21.5972C7.97575 21.9306 8.42939 22.118 8.9024 22.118H14.9482C15.2313 22.1235 15.5017 22.2367 15.7039 22.4344L16.7468 23.4815C16.7721 23.5068 16.8021 23.5268 16.8352 23.5405C16.8683 23.5542 16.9037 23.5613 16.9395 23.5613C16.9753 23.5613 17.0108 23.5542 17.0439 23.5405C17.0769 23.5268 17.107 23.5068 17.1322 23.4815L18.1751 22.4344C18.3765 22.2354 18.6474 22.122 18.9309 22.118H25.022C25.2625 22.1281 25.5026 22.0897 25.7277 22.0049C25.9529 21.9201 26.1586 21.7907 26.3323 21.6246C26.506 21.4585 26.6441 21.2591 26.7385 21.0383C26.8328 20.8175 26.8813 20.58 26.8811 20.3401V0.271201C26.8811 0.199274 26.8524 0.130293 26.8014 0.0794329C26.7504 0.0285729 26.6812 0 26.609 0Z" fill="#D22514"/>
<path d="M18.757 4.29392L18.3867 5.69512C18.3867 5.73279 18.3867 5.76292 18.4472 5.75539L19.8453 5.37872C19.8533 5.3752 19.8602 5.36941 19.8651 5.36205C19.8699 5.35469 19.8725 5.34608 19.8725 5.33729C19.8725 5.32849 19.8699 5.31988 19.8651 5.31252C19.8602 5.30516 19.8533 5.29937 19.8453 5.29585L19.6488 5.09998C19.897 4.85377 20.2305 4.71184 20.5806 4.70343C20.9307 4.69502 21.2707 4.82078 21.5305 5.05478C21.0318 5.0838 20.5623 5.29897 20.2156 5.65745L20.0115 5.46159C20.008 5.45352 20.0022 5.44666 19.9948 5.44184C19.9874 5.43702 19.9788 5.43445 19.97 5.43445C19.9611 5.43445 19.9525 5.43702 19.9451 5.44184C19.9377 5.44666 19.9319 5.45352 19.9284 5.46159L19.5505 6.85526C19.5493 6.86445 19.5502 6.87381 19.5532 6.88261C19.5561 6.8914 19.5611 6.89939 19.5677 6.90595C19.5743 6.91251 19.5823 6.91747 19.5911 6.92044C19.5999 6.92341 19.6093 6.9243 19.6185 6.92306L21.0166 6.54639C21.0247 6.54287 21.0316 6.53708 21.0364 6.52972C21.0413 6.52236 21.0439 6.51375 21.0439 6.50496C21.0439 6.49616 21.0413 6.48755 21.0364 6.48019C21.0316 6.47283 21.0247 6.46704 21.0166 6.46352L20.8201 6.26766C21.3265 5.75539 21.6666 5.83825 21.8328 6.01152C21.9991 6.18479 22.0671 6.50872 21.5608 7.00593L12.2276 16.385C11.833 16.1447 11.3637 16.0569 10.9086 16.1384C10.4534 16.2199 10.0441 16.465 9.75809 16.8271C9.47206 17.1893 9.32921 17.6435 9.35659 18.1036C9.38397 18.5637 9.57967 18.9979 9.90664 19.3238C10.2336 19.6498 10.6691 19.8448 11.1307 19.8721C11.5923 19.8994 12.0479 19.757 12.4112 19.4719C12.7746 19.1868 13.0204 18.7787 13.1021 18.3251C13.1839 17.8714 13.0959 17.4036 12.8548 17.0102L22.2409 7.66133C22.7397 7.15659 23.0646 7.20933 23.2385 7.39013C23.4123 7.57093 23.4954 7.89486 22.9815 8.3996L22.785 8.20373C22.7815 8.19567 22.7757 8.1888 22.7683 8.18398C22.7609 8.17916 22.7523 8.17659 22.7435 8.17659C22.7346 8.17659 22.726 8.17916 22.7186 8.18398C22.7112 8.1888 22.7054 8.19567 22.7019 8.20373L22.324 9.5974C22.3228 9.6066 22.3237 9.61596 22.3267 9.62475C22.3296 9.63354 22.3346 9.64153 22.3412 9.64809C22.3478 9.65466 22.3558 9.65961 22.3646 9.66258C22.3734 9.66555 22.3828 9.66645 22.392 9.6652L23.7901 9.28853C23.7982 9.28502 23.8051 9.27922 23.8099 9.27186C23.8148 9.26451 23.8174 9.2559 23.8174 9.2471C23.8174 9.2383 23.8148 9.2297 23.8099 9.22234C23.8051 9.21498 23.7982 9.20918 23.7901 9.20567L23.6163 9.03993C23.9791 8.6965 24.1955 8.2272 24.2209 7.72913C24.4522 7.98636 24.577 8.32153 24.57 8.66692C24.563 9.01232 24.4247 9.34218 24.1831 9.58987L23.9866 9.394C23.9831 9.38594 23.9773 9.37907 23.9699 9.37425C23.9625 9.36943 23.9539 9.36687 23.9451 9.36687C23.9362 9.36687 23.9276 9.36943 23.9202 9.37425C23.9128 9.37907 23.907 9.38594 23.9035 9.394L23.5256 10.7877C23.5256 10.8253 23.5256 10.863 23.5861 10.8479L24.9917 10.4788C24.9996 10.4741 25.006 10.4675 25.0105 10.4596C25.015 10.4517 25.0174 10.4427 25.0174 10.4336C25.0174 10.4245 25.015 10.4156 25.0105 10.4076C25.006 10.3997 24.9996 10.3931 24.9917 10.3884L24.7877 10.1925C25.21 9.7691 25.447 9.19629 25.447 8.59923C25.447 8.00217 25.21 7.42937 24.7877 7.00593C24.5678 6.7925 24.3077 6.62467 24.0223 6.51217C23.7369 6.39967 23.4319 6.34472 23.1251 6.35052C23.0917 6.35587 23.0574 6.35392 23.0248 6.34482C22.9922 6.33572 22.962 6.31967 22.9362 6.29779C22.8833 6.24506 22.8833 6.20739 22.8833 6.10946C22.8917 5.49224 22.6554 4.89665 22.2258 4.45212C21.801 4.03119 21.2264 3.79492 20.6274 3.79492C20.0285 3.79492 19.4539 4.03119 19.0291 4.45212L18.8326 4.24871C18.8246 4.24647 18.8163 4.24587 18.8081 4.24696C18.8 4.24804 18.7921 4.25078 18.785 4.25502C18.7779 4.25925 18.7718 4.26489 18.767 4.27158C18.7622 4.27827 18.7588 4.28587 18.757 4.29392ZM11.9555 17.3266C12.0758 17.5174 12.1275 17.7432 12.1022 17.9671C12.0769 18.1909 11.9761 18.3996 11.8163 18.5589C11.6565 18.7182 11.4471 18.8187 11.2225 18.8439C10.998 18.8691 10.7714 18.8176 10.5801 18.6977C10.4532 18.6182 10.3459 18.5113 10.2662 18.3848C10.1865 18.2583 10.1364 18.1155 10.1196 17.9671C10.1028 17.8186 10.1198 17.6683 10.1693 17.5273C10.2188 17.3863 10.2996 17.2582 10.4055 17.1526C10.5115 17.047 10.64 16.9665 10.7814 16.9172C10.9229 16.8678 11.0736 16.8509 11.2225 16.8676C11.3715 16.8843 11.5147 16.9343 11.6416 17.0137C11.7685 17.0932 11.8758 17.2002 11.9555 17.3266Z" fill="#F2F2F2"/>
<path d="M14.7592 4.29403L14.4418 4.6029C13.8148 4.10703 13.0418 3.83031 12.2416 3.81534C11.4414 3.80037 10.6585 4.04797 10.0133 4.52003H9.32556C9.30551 4.52003 9.28629 4.52797 9.27212 4.54209C9.25795 4.55622 9.24998 4.57538 9.24998 4.59536V5.27337C8.77487 5.91654 8.52428 6.69719 8.53656 7.49583C8.54885 8.29447 8.82333 9.0671 9.318 9.69545L9.00815 10.0043C8.99421 10.018 8.98405 10.035 8.97866 10.0538C8.97327 10.0725 8.97283 10.0923 8.9774 10.1113C8.98196 10.1302 8.99137 10.1477 9.0047 10.1619C9.01804 10.1762 9.03485 10.1868 9.0535 10.1927L10.8143 10.6597C10.8143 10.6597 10.8899 10.6597 10.8823 10.5919L10.4138 8.84418C10.4088 8.82499 10.3989 8.80744 10.385 8.79329C10.3711 8.77913 10.3537 8.76887 10.3346 8.76353C10.3154 8.75819 10.2952 8.75795 10.276 8.76285C10.2567 8.76775 10.2391 8.77761 10.2249 8.79145L9.95281 9.06265C9.66711 8.67423 9.4894 8.21748 9.43765 7.73861C9.38589 7.25974 9.46193 6.77574 9.65807 6.33557C9.68497 6.27472 9.72643 6.22138 9.7788 6.18021C9.83118 6.13903 9.89288 6.11128 9.95851 6.09939C10.0241 6.08749 10.0917 6.09182 10.1552 6.11198C10.2188 6.13214 10.2764 6.16752 10.3231 6.21504L20.1475 16.0084L18.9459 17.1987C18.9284 17.2169 18.9186 17.2412 18.9186 17.2665C18.9186 17.2918 18.9284 17.316 18.9459 17.3343L19.4145 17.8013C19.4328 17.8188 19.4571 17.8286 19.4825 17.8286C19.5078 17.8286 19.5322 17.8188 19.5505 17.8013L20.7521 16.6111L21.13 16.9877C20.8858 17.3813 20.7948 17.8504 20.8743 18.3062C20.9538 18.7621 21.1982 19.1731 21.5613 19.4614C21.9244 19.7497 22.3809 19.8953 22.8444 19.8706C23.3079 19.8459 23.7462 19.6526 24.0764 19.3274C24.4066 19.0022 24.6057 18.5676 24.636 18.1059C24.6663 17.6442 24.5257 17.1874 24.2409 16.8221C23.9561 16.4567 23.5467 16.2082 23.0904 16.1235C22.6341 16.0388 22.1624 16.1238 21.7648 16.3625L21.3793 15.9858L22.5734 14.788C22.5909 14.7698 22.6007 14.7455 22.6007 14.7202C22.6007 14.6949 22.5909 14.6706 22.5734 14.6524L22.1048 14.1853C22.0865 14.1678 22.0622 14.1581 22.0368 14.1581C22.0115 14.1581 21.9871 14.1678 21.9688 14.1853L20.7748 15.3756L10.9504 5.58223C10.9028 5.53497 10.8674 5.4769 10.8472 5.41302C10.8271 5.34914 10.8228 5.28134 10.8347 5.21543C10.8466 5.14952 10.8743 5.08747 10.9155 5.03458C10.9567 4.98169 11.0102 4.93955 11.0713 4.91176C11.5153 4.71967 12.0019 4.64643 12.4831 4.69928C12.9642 4.75213 13.4231 4.92924 13.8146 5.2131L13.5349 5.4843C13.5206 5.49762 13.5103 5.51464 13.5051 5.53347C13.4999 5.5523 13.5001 5.57219 13.5056 5.59093C13.511 5.60968 13.5216 5.62653 13.5362 5.63963C13.5507 5.65272 13.5686 5.66154 13.5878 5.6651L15.3411 6.1397C15.3865 6.1397 15.4242 6.1397 15.4091 6.0719L14.9406 4.31663C14.9333 4.29968 14.9217 4.28492 14.907 4.27382C14.8922 4.26273 14.8748 4.25569 14.8564 4.2534C14.8381 4.25112 14.8194 4.25366 14.8024 4.26079C14.7853 4.26792 14.7704 4.27938 14.7592 4.29403ZM23.4274 17.2815C23.6148 17.4684 23.72 17.7217 23.72 17.9859C23.72 18.2501 23.6148 18.5035 23.4274 18.6903C23.24 18.8771 22.9858 18.982 22.7208 18.982C22.4557 18.982 22.2016 18.8771 22.0142 18.6903C21.8282 18.5027 21.7239 18.2496 21.7239 17.9859C21.7239 17.7222 21.8282 17.4691 22.0142 17.2815C22.1068 17.1888 22.217 17.1153 22.3382 17.0651C22.4595 17.0149 22.5895 16.9891 22.7208 16.9891C22.852 16.9891 22.982 17.0149 23.1033 17.0651C23.2246 17.1153 23.3347 17.1888 23.4274 17.2815Z" fill="#F2F2F2"/>
<path d="M17.82 3.42024C18.0548 3.4889 18.3058 3.47727 18.5332 3.38719C18.7606 3.29711 18.9512 3.13378 19.0746 2.9232C19.198 2.71263 19.2472 2.46693 19.2143 2.22525C19.1815 1.98357 19.0684 1.75981 18.8931 1.58963L18.0467 2.38817H17.7747L17.4572 2.7121L17.3817 2.6217C17.3732 2.6133 17.3665 2.60332 17.3619 2.59233C17.3574 2.58135 17.355 2.56956 17.355 2.55767C17.355 2.54577 17.3574 2.53399 17.3619 2.523C17.3665 2.51201 17.3732 2.50203 17.3817 2.49363L17.6311 2.2601C17.6604 2.24976 17.6924 2.24976 17.7218 2.2601H17.8805L17.956 2.34297V2.06423C17.9552 2.03046 17.9417 1.99822 17.9182 1.97383L17.8124 1.86083C17.8571 1.81361 17.8838 1.75233 17.888 1.68756C17.888 1.57456 17.7747 1.5369 17.6311 1.52936H17.5857C17.4346 1.52936 17.3212 1.57456 17.3212 1.68756C17.327 1.74829 17.3506 1.80596 17.3892 1.8533H17.3817L17.223 1.70263L17.2608 1.65743C17.3166 1.60411 17.3491 1.53106 17.3514 1.45403C17.3514 1.32596 17.223 1.2883 17.0643 1.28076H17.0114C16.8451 1.28076 16.7242 1.32596 16.7242 1.45403C16.7273 1.52941 16.7567 1.60135 16.8073 1.65743V1.70263L16.6562 1.8533H16.626C16.6622 1.8053 16.6833 1.74758 16.6864 1.68756C16.6864 1.57456 16.5731 1.5369 16.4295 1.52936H16.3841C16.2405 1.52936 16.1272 1.57456 16.1272 1.68756C16.128 1.75164 16.1522 1.81323 16.1952 1.86083L16.0818 1.97383C16.0584 1.99822 16.0449 2.03046 16.044 2.06423V2.2601L16.1272 2.17723H16.2859C16.3155 2.16844 16.347 2.16844 16.3766 2.17723L16.6411 2.4409C16.6552 2.45929 16.6628 2.48179 16.6628 2.50493C16.6628 2.52808 16.6552 2.55058 16.6411 2.56897L16.5504 2.65937L16.233 2.33543H15.9458L15.1145 1.58963C14.911 1.79543 14.7969 2.07281 14.7969 2.3618C14.7969 2.65079 14.911 2.92817 15.1145 3.13397C15.2475 3.26691 15.4128 3.36318 15.5943 3.41335C15.7757 3.46353 15.9672 3.4659 16.1498 3.42024L16.2632 3.53324V3.58597L15.8929 3.96264H15.7342L15.3412 3.5709C15.3412 3.54408 15.3332 3.51787 15.3183 3.49557C15.3034 3.47327 15.2821 3.45589 15.2572 3.44563C15.2324 3.43536 15.205 3.43268 15.1787 3.43791C15.1523 3.44314 15.128 3.45606 15.109 3.47502C15.09 3.49398 15.077 3.51815 15.0718 3.54445C15.0665 3.57075 15.0692 3.59802 15.0795 3.6228C15.0898 3.64757 15.1072 3.66875 15.1296 3.68365C15.152 3.69855 15.1783 3.7065 15.2052 3.7065L15.5906 4.09824V4.20371C15.5907 4.23764 15.6043 4.27015 15.6284 4.29411L15.7342 4.39957C15.761 4.40937 15.7905 4.40937 15.8173 4.39957H15.9307L15.9836 4.44477L16.044 4.39204C16.044 4.39204 16.044 4.39204 16.044 4.35437L16.0969 4.29411V4.13591L16.4748 3.75924H16.5277L16.6486 3.8873L16.3766 4.15851C16.3627 4.17259 16.355 4.19152 16.355 4.21124C16.355 4.23096 16.3627 4.24989 16.3766 4.26397L16.626 4.52011V19.1047C16.5291 19.1622 16.4489 19.2438 16.3932 19.3416C16.3376 19.4393 16.3084 19.5498 16.3085 19.6622C16.3085 19.836 16.3778 20.0027 16.5011 20.1256C16.6244 20.2485 16.7917 20.3176 16.966 20.3176C17.1404 20.3176 17.3076 20.2485 17.4309 20.1256C17.5542 20.0027 17.6235 19.836 17.6235 19.6622C17.6252 19.5504 17.5975 19.4401 17.5431 19.3423C17.4887 19.2445 17.4096 19.1626 17.3137 19.1047V4.52011L17.5933 4.24137C17.6071 4.22729 17.6149 4.20836 17.6149 4.18864C17.6149 4.16892 17.6071 4.14999 17.5933 4.13591L17.3817 3.8873L17.4724 3.76677H17.5253L17.9938 4.23384C18.023 4.24483 18.0553 4.24483 18.0845 4.23384H18.213C18.2643 4.23306 18.3149 4.22165 18.3616 4.20033C18.4083 4.17901 18.45 4.14824 18.4841 4.10999C18.5182 4.07173 18.544 4.02682 18.5598 3.97811C18.5755 3.9294 18.581 3.87795 18.5757 3.82704C18.5637 3.7474 18.5264 3.67371 18.4693 3.61676C18.4121 3.55982 18.3382 3.52262 18.2583 3.51064C18.1801 3.50119 18.1009 3.5174 18.0327 3.55682C17.9645 3.59624 17.9111 3.65671 17.8805 3.7291L17.6991 3.55584V3.5031L17.82 3.42024ZM16.9585 1.75536H17.0416L17.2683 1.98136L17.0416 2.20737C17.0369 2.21517 17.0303 2.22162 17.0223 2.2261C17.0144 2.23058 17.0054 2.23294 16.9963 2.23294C16.9871 2.23294 16.9782 2.23058 16.9702 2.2261C16.9623 2.22162 16.9556 2.21517 16.9509 2.20737L16.7242 1.98136L16.9585 1.75536Z" fill="#FFDD00"/>
<path d="M17.1171 1.11488L17.034 1.12242L17.0415 1.03955H16.9508L16.9659 1.12242L16.8828 1.11488V1.19775L16.9659 1.19022L16.9508 1.32582H17.0415L17.034 1.19022L17.1171 1.19775V1.11488Z" fill="#FFDD00"/>
<path d="M17.7143 1.38612L17.6311 1.39366L17.6387 1.31079H17.5556L17.5631 1.39366L17.48 1.38612V1.46899L17.5631 1.46146L17.5556 1.58953H17.6387L17.6311 1.46146L17.7143 1.46899V1.38612Z" fill="#FFDD00"/>
<path d="M16.5126 1.38612L16.437 1.39366L16.4446 1.31079H16.3539L16.3615 1.39366L16.2859 1.38612V1.46899L16.3615 1.46146L16.3539 1.58953H16.4446L16.437 1.46146L16.5126 1.46899V1.38612Z" fill="#FFDD00"/>
<path d="M0.128418 29.915V27.2708H2.39559V29.915H1.8817V27.3913L2.13109 27.7002H0.362692L0.634753 27.3913V29.915H0.128418Z" fill="#F2F2F2"/>
<path d="M3.52173 29.9151H3.02295V27.2709H4.10363C4.27569 27.2686 4.4461 27.3046 4.60241 27.3763C4.73742 27.4397 4.85242 27.5387 4.93493 27.6626C5.0149 27.786 5.05693 27.93 5.05585 28.0769C5.05645 28.2285 5.01457 28.3772 4.93493 28.5063C4.8498 28.626 4.73532 28.722 4.60241 28.7851C4.4461 28.8568 4.27569 28.8928 4.10363 28.8905H3.4915V28.4687H4.10363C4.22113 28.4734 4.33643 28.436 4.42859 28.3632C4.46609 28.326 4.49499 28.2812 4.51326 28.2317C4.53154 28.1823 4.53875 28.1294 4.5344 28.0769C4.53667 28.0251 4.52773 27.9733 4.50817 27.9252C4.48861 27.8772 4.45889 27.8338 4.42104 27.7982C4.32887 27.7254 4.21357 27.688 4.09608 27.6927H3.52173V29.9151Z" fill="#F2F2F2"/>
<path d="M7.55739 29.915H7.02082L6.15174 27.655H6.30288L5.4338 29.915H4.91235L5.95525 27.2708H6.51449L7.55739 29.915ZM7.01326 29.3349H5.44136V28.913H7.01326V29.3349Z" fill="#F2F2F2"/>
<path d="M7.98047 29.915V27.2708H9.06871C9.22714 27.2671 9.38447 27.298 9.5297 27.3612C9.65293 27.4087 9.75849 27.4928 9.83199 27.6023C9.90879 27.707 9.94865 27.8342 9.94535 27.9639C9.9459 28.0885 9.90615 28.21 9.83199 28.3104C9.75298 28.4128 9.64888 28.4932 9.5297 28.5439C9.38282 28.6009 9.22629 28.629 9.06871 28.6268H8.50947V28.4385H9.1065C9.27715 28.4351 9.44674 28.4658 9.60527 28.5289C9.73724 28.5791 9.85244 28.6653 9.93779 28.7775C10.017 28.8872 10.0593 29.019 10.0587 29.1541C10.0625 29.2967 10.0201 29.4368 9.93779 29.5534C9.85807 29.6762 9.74179 29.771 9.60527 29.8246C9.44674 29.8877 9.27715 29.9184 9.1065 29.915H7.98047ZM8.4868 29.5007H9.12161C9.24103 29.5012 9.35655 29.4584 9.44657 29.3801C9.4862 29.3455 9.51762 29.3026 9.53853 29.2544C9.55944 29.2061 9.56933 29.1539 9.56749 29.1014C9.56814 29.0513 9.55764 29.0016 9.53673 28.956C9.51582 28.9104 9.48503 28.87 9.44657 28.8377C9.35082 28.7736 9.23686 28.7419 9.12161 28.7473H8.44902V28.333H9.06871C9.17232 28.339 9.27452 28.3068 9.35589 28.2426C9.39083 28.2115 9.41844 28.1731 9.43673 28.1301C9.45502 28.0871 9.46354 28.0407 9.46169 27.994C9.46349 27.9485 9.4549 27.9031 9.43658 27.8614C9.41825 27.8196 9.39066 27.7825 9.35589 27.7529C9.27205 27.6943 9.17101 27.6651 9.06871 27.6701H8.49436L8.4868 29.5007Z" fill="#F2F2F2"/>
<path d="M10.5801 29.915V27.2708H11.0789V29.689H10.7463L12.3258 27.2708H12.8472V29.915H12.3485V27.4892H12.6734L11.0864 29.915H10.5801Z" fill="#F2F2F2"/>
<path d="M15.4243 27.7002H13.2629V27.2708H15.4243V27.7002ZM14.593 29.915H14.0942V27.655H14.593V29.915Z" fill="#F2F2F2"/>
<path d="M17.7292 29.915H15.8701V27.2708H17.7368V27.6926H16.3765V29.4931H17.7368L17.7292 29.915ZM17.6612 28.7925H16.3311V28.3706H17.6612V28.7925Z" fill="#F2F2F2"/>
<path d="M17.9939 29.9149V29.493H18.2282C18.2749 29.508 18.3251 29.508 18.3718 29.493C18.4093 29.4486 18.4306 29.3929 18.4322 29.3348L18.674 27.3083H20.4047V29.9526H19.9059V27.346L20.1628 27.7001H18.7874L19.1502 27.346L18.8932 29.3198C18.8819 29.4403 18.8486 29.5577 18.795 29.6663C18.7524 29.7466 18.6866 29.8122 18.606 29.8546C18.5068 29.9004 18.3978 29.9211 18.2886 29.9149H17.9939Z" fill="#F2F2F2"/>
<path d="M21.062 29.915V27.2708H21.5608V29.5308L21.523 29.478H22.1956C22.3126 29.4894 22.4294 29.4542 22.5206 29.3801C22.5623 29.3439 22.5949 29.2985 22.6159 29.2475C22.6369 29.1965 22.6457 29.1413 22.6415 29.0863C22.6451 29.0325 22.636 28.9786 22.615 28.9289C22.594 28.8792 22.5617 28.8351 22.5206 28.8C22.4291 28.726 22.3133 28.6884 22.1956 28.6946H21.3038V28.2727H22.1956C22.3671 28.2673 22.5377 28.3008 22.6944 28.3706C22.8312 28.4311 22.9469 28.5307 23.0269 28.6569C23.1056 28.7864 23.1472 28.9349 23.1472 29.0863C23.1472 29.2377 23.1056 29.3862 23.0269 29.5157C22.9469 29.6418 22.8312 29.7415 22.6944 29.802C22.5393 29.8774 22.368 29.9136 22.1956 29.9074L21.062 29.915Z" fill="#F2F2F2"/>
<path d="M25.604 29.1465L25.9365 29.478C25.8159 29.6353 25.6573 29.7597 25.4755 29.8396C25.282 29.9313 25.07 29.9776 24.8558 29.9752C24.6649 29.978 24.4751 29.9448 24.2966 29.8772C24.1288 29.8118 23.9769 29.7116 23.8507 29.5834C23.7229 29.4615 23.6247 29.312 23.5635 29.1465C23.4857 28.9834 23.4395 28.807 23.4275 28.6267C23.4269 28.4383 23.4628 28.2516 23.5333 28.0768C23.6043 27.9123 23.7041 27.7618 23.828 27.6323C23.9579 27.5105 24.109 27.4135 24.2739 27.346C24.4548 27.2775 24.6472 27.2443 24.8407 27.2481C25.0526 27.2449 25.2623 27.2913 25.4528 27.3837C25.6292 27.4655 25.7843 27.5867 25.9063 27.7378L25.5738 28.0768C25.4977 27.9557 25.3908 27.8569 25.2639 27.7905C25.1337 27.7213 24.9883 27.685 24.8407 27.685C24.6811 27.681 24.5237 27.7228 24.3873 27.8056C24.2583 27.889 24.1519 28.0029 24.0774 28.137C23.998 28.2868 23.9565 28.4536 23.9565 28.6229C23.9565 28.7923 23.998 28.9591 24.0774 29.1088C24.1878 29.3125 24.3748 29.4641 24.5972 29.5305C24.8196 29.5969 25.0594 29.5726 25.2639 29.4629C25.4059 29.3929 25.5242 29.2829 25.604 29.1465Z" fill="#F2F2F2"/>
<path d="M28.3472 27.7002H26.1858V27.2708H28.3472V27.7002ZM27.5159 29.915H27.0095V27.655H27.5159V29.915Z" fill="#F2F2F2"/>
<path d="M28.7856 29.9149V27.2707H29.889C30.0474 27.2679 30.2045 27.2987 30.35 27.3611C30.4718 27.4109 30.5768 27.4946 30.6523 27.6021C30.7231 27.7094 30.76 27.8354 30.7581 27.9637C30.7579 28.0871 30.7211 28.2077 30.6523 28.3103C30.5721 28.4115 30.4683 28.4917 30.35 28.5438C30.2029 28.6 30.0465 28.6282 29.889 28.6267H29.3222V28.4383H29.9192C30.0899 28.435 30.2595 28.4657 30.418 28.5287C30.5526 28.5741 30.6692 28.6612 30.7505 28.7773C30.8327 28.8855 30.8754 29.0184 30.8714 29.154C30.8745 29.2954 30.835 29.4345 30.7581 29.5533C30.6759 29.6738 30.5604 29.7681 30.4256 29.8245C30.2644 29.8876 30.0923 29.9183 29.9192 29.9149H28.7856ZM29.2844 29.5006H29.9268C30.039 29.4991 30.1468 29.4561 30.2291 29.38C30.2701 29.3465 30.3024 29.3037 30.3234 29.2553C30.3445 29.2068 30.3536 29.154 30.35 29.1013C30.3524 29.0509 30.3426 29.0007 30.3216 28.9548C30.3006 28.909 30.2689 28.8688 30.2291 28.8376C30.1366 28.7724 30.0247 28.7406 29.9117 28.7472H29.2315V28.3329H29.8437C29.9473 28.3389 30.0495 28.3067 30.1308 28.2425C30.1671 28.2125 30.1957 28.1743 30.2141 28.131C30.2325 28.0878 30.2402 28.0407 30.2366 27.9939C30.2403 27.9481 30.2325 27.9022 30.2141 27.8601C30.1956 27.8181 30.167 27.7812 30.1308 27.7528C30.047 27.6942 29.946 27.665 29.8437 27.6699H29.2693L29.2844 29.5006Z" fill="#F2F2F2"/>
<path d="M32.5793 29.9752C32.3858 29.979 32.1934 29.9457 32.0125 29.8772C31.8475 29.8065 31.6965 29.707 31.5666 29.5834C31.4367 29.4601 31.3337 29.3114 31.2643 29.1465C31.1962 28.9712 31.1628 28.7845 31.1661 28.5966C31.1623 28.4086 31.1956 28.2217 31.2643 28.0466C31.3337 27.8817 31.4367 27.733 31.5666 27.6097C31.6965 27.4861 31.8475 27.3866 32.0125 27.3159C32.379 27.1854 32.7795 27.1854 33.1461 27.3159C33.3147 27.384 33.4686 27.4837 33.5995 27.6097C33.7296 27.7312 33.8304 27.8806 33.8942 28.0466C33.9721 28.23 34.0107 28.4276 34.0076 28.6267C34.0082 28.8151 33.9723 29.0018 33.9018 29.1766C33.838 29.3426 33.7372 29.492 33.607 29.6136C33.4762 29.7395 33.3222 29.8393 33.1536 29.9074C32.9683 29.9666 32.7733 29.9896 32.5793 29.9752ZM32.5793 29.5382C32.7432 29.5386 32.9045 29.4971 33.0478 29.4177C33.1788 29.3334 33.2856 29.2166 33.3577 29.0787C33.4323 28.9275 33.4712 28.7613 33.4712 28.5928C33.4712 28.4243 33.4323 28.258 33.3577 28.1069C33.2832 27.9727 33.1768 27.8589 33.0478 27.7754C32.9059 27.6926 32.7437 27.6508 32.5793 27.6549C32.4172 27.6506 32.2573 27.6924 32.1183 27.7754C31.9852 27.8564 31.8758 27.9706 31.8009 28.1069C31.7262 28.258 31.6874 28.4243 31.6874 28.5928C31.6874 28.7613 31.7262 28.9275 31.8009 29.0787C31.8735 29.2186 31.9833 29.3358 32.1183 29.4177C32.2588 29.4971 32.4177 29.5387 32.5793 29.5382Z" fill="#F2F2F2"/>
<path d="M2.11599 33.5386L2.44095 33.8625C2.32235 34.0139 2.16958 34.1352 1.99508 34.2166C1.80158 34.3083 1.58962 34.3547 1.37538 34.3522C1.18687 34.3554 0.999521 34.3221 0.823707 34.2543C0.660096 34.1886 0.511131 34.0913 0.385387 33.968C0.261906 33.8454 0.164267 33.6994 0.0982122 33.5386C0.0301152 33.3633 -0.00324846 33.1766 -3.18488e-05 32.9887C-0.000635206 32.8027 0.0353087 32.6184 0.105769 32.4463C0.171824 32.2855 0.269463 32.1395 0.392944 32.0169C0.519406 31.8908 0.671428 31.7932 0.838821 31.7306C1.015 31.6647 1.20244 31.634 1.3905 31.6402C1.5999 31.6376 1.80698 31.684 1.99508 31.7758C2.16928 31.8577 2.32195 31.9789 2.44095 32.1299L2.11599 32.4613C2.04101 32.3413 1.93363 32.2447 1.80615 32.1826C1.67898 32.1124 1.53583 32.0761 1.3905 32.0771C1.23328 32.0732 1.07833 32.1151 0.944622 32.1977C0.813904 32.2791 0.707029 32.3934 0.634776 32.5291C0.556803 32.675 0.517768 32.8385 0.521417 33.0037C0.51846 33.1713 0.557419 33.337 0.634776 33.4859C0.707223 33.6195 0.814203 33.7313 0.944622 33.8098C1.07833 33.8923 1.23328 33.9342 1.3905 33.9303C1.53517 33.9336 1.67827 33.8999 1.80615 33.8324C1.93093 33.7598 2.03702 33.6592 2.11599 33.5386Z" fill="#F2F2F2"/>
<path d="M3.4158 34.3521C3.28054 34.3603 3.14541 34.3343 3.02282 34.2768C2.92244 34.2297 2.83639 34.1569 2.77343 34.0659C2.71195 33.9719 2.68035 33.8616 2.68274 33.7495C2.68051 33.6327 2.71778 33.5186 2.78855 33.4255C2.87539 33.3321 2.9846 33.2621 3.10595 33.2221C3.25693 33.1716 3.41523 33.1461 3.5745 33.1468H4.04305V33.4632H3.63496C3.52499 33.4573 3.41543 33.4807 3.31755 33.531C3.27994 33.5498 3.24855 33.5789 3.22711 33.615C3.20567 33.6511 3.19509 33.6925 3.19664 33.7344C3.19543 33.7708 3.20305 33.8069 3.21884 33.8397C3.23463 33.8724 3.25812 33.9009 3.28732 33.9227C3.35855 33.9706 3.44334 33.9944 3.52915 33.9905C3.61836 33.9808 3.70389 33.9498 3.77854 33.9001C3.85673 33.8619 3.92422 33.8049 3.97503 33.7344C4.02268 33.6623 4.05127 33.5794 4.05816 33.4933L4.19419 33.5611C4.19921 33.7007 4.1652 33.839 4.09595 33.9604C4.03123 34.0715 3.93711 34.1627 3.82389 34.2241C3.70155 34.3019 3.56077 34.346 3.4158 34.3521ZM4.48137 34.2919H4.04305V33.9001V33.8474V33.1468C4.04617 33.0908 4.03696 33.0348 4.01607 32.9828C3.99519 32.9307 3.96312 32.8839 3.92213 32.8455C3.8247 32.7716 3.70432 32.7343 3.58205 32.74C3.48075 32.7402 3.38052 32.7607 3.28732 32.8003C3.19534 32.8403 3.11292 32.8994 3.04549 32.9735L2.78855 32.6797C2.88988 32.5806 3.01085 32.5036 3.14374 32.4537C3.28876 32.3996 3.44229 32.3715 3.59717 32.3709C3.76048 32.3674 3.9227 32.3982 4.07328 32.4613C4.2061 32.5167 4.31865 32.6114 4.39569 32.7327C4.47274 32.854 4.51056 32.9959 4.50404 33.1393L4.48137 34.2919Z" fill="#F2F2F2"/>
<path d="M4.91968 34.2918V32.4612H5.40334V34.2918H4.91968ZM5.14639 33.5385V33.1467H6.5067V33.5309L5.14639 33.5385ZM6.21952 34.2918V32.4612H6.70318V34.2918H6.21952Z" fill="#F2F2F2"/>
<path d="M7.20972 34.2918V32.4612H7.69338V34.2918H7.20972ZM8.45666 34.2918L7.55735 33.3351H7.60269L8.35842 32.4612H8.94032L7.99567 33.5008V33.1844L9.0688 34.2918H8.45666Z" fill="#F2F2F2"/>
<path d="M9.1897 32.8454V32.4612H10.9203V32.8454H9.1897ZM9.82451 34.2918V32.6269H10.3082V34.2918H9.82451Z" fill="#F2F2F2"/>
<path d="M12.1293 33.4481H11.1016V33.0413H12.1293V33.4481Z" fill="#F2F2F2"/>
<path d="M12.5452 34.2918V31.6853H14.767V34.2918H14.2758V31.8058L14.5176 32.1072H12.7719L13.0364 31.8058V34.2918H12.5452Z" fill="#F2F2F2"/>
<path d="M16.8828 33.7194L17.1397 34.0207C17.0398 34.1253 16.9188 34.2075 16.7845 34.2618C16.6307 34.3229 16.4664 34.3536 16.3009 34.3522C16.1074 34.3578 15.9155 34.3164 15.7416 34.2317C15.5873 34.1513 15.457 34.0318 15.3638 33.8851C15.2712 33.7332 15.224 33.5581 15.2277 33.3804C15.2253 33.2014 15.2696 33.0249 15.3562 32.8681C15.4431 32.7263 15.5655 32.6095 15.7114 32.5291C15.8663 32.4437 16.0407 32.3996 16.2177 32.4011C16.3894 32.396 16.5593 32.4376 16.709 32.5216C16.85 32.6006 16.9654 32.7182 17.0415 32.8606C17.1256 33.0126 17.1674 33.1843 17.1624 33.3578H16.6939V33.3126C16.6952 33.2115 16.6746 33.1112 16.6334 33.0188C16.5947 32.941 16.5377 32.8738 16.4671 32.8229C16.3927 32.7758 16.3058 32.7522 16.2177 32.7551C16.1251 32.7535 16.0337 32.777 15.9532 32.8229C15.8798 32.8759 15.8202 32.9456 15.7794 33.0263C15.7349 33.1257 15.7142 33.234 15.719 33.3427C15.7145 33.4579 15.7405 33.5722 15.7945 33.6742C15.8448 33.7621 15.9179 33.835 16.0061 33.8851C16.1058 33.9304 16.2141 33.9535 16.3235 33.9529C16.4283 33.9575 16.5327 33.939 16.6294 33.8986C16.7261 33.8582 16.8126 33.797 16.8828 33.7194ZM17.1624 33.5235H15.5376V33.2222H17.1019L17.1624 33.3578V33.5235Z" fill="#F2F2F2"/>
<path d="M17.3289 32.8454V32.4612H19.0519V32.8454H17.3289ZM17.9486 34.2918V32.6269H18.4322V34.2918H17.9486Z" fill="#F2F2F2"/>
<path d="M20.8581 33.7192L21.1151 34.0206C21.0152 34.1252 20.8941 34.2073 20.7599 34.2617C20.6062 34.3233 20.4418 34.354 20.2762 34.3521C20.0828 34.3576 19.8908 34.3163 19.717 34.2315C19.5626 34.1511 19.4323 34.0316 19.3391 33.885C19.2465 33.7331 19.1993 33.558 19.2031 33.3802C19.1996 33.2002 19.2467 33.0227 19.3391 32.868C19.4231 32.7265 19.543 32.6095 19.6868 32.529C19.8444 32.4435 20.0212 32.3995 20.2006 32.4009C20.3698 32.3968 20.537 32.4385 20.6843 32.5214C20.8254 32.6004 20.9408 32.7181 21.0168 32.8604C21.101 33.0124 21.1427 33.1841 21.1377 33.3576H20.6692V33.3124C20.6706 33.2113 20.6499 33.1111 20.6087 33.0186C20.5724 32.9394 20.5149 32.8716 20.4425 32.8228C20.3704 32.7767 20.2862 32.7531 20.2006 32.755C20.1078 32.7522 20.0161 32.7757 19.9361 32.8228C19.8605 32.8755 19.7984 32.9452 19.7548 33.0262C19.7137 33.1266 19.6931 33.2342 19.6943 33.3426C19.6898 33.4578 19.7159 33.5721 19.7699 33.674C19.8231 33.7623 19.8987 33.835 19.989 33.885C20.1353 33.9492 20.2982 33.9656 20.4543 33.9318C20.6105 33.8979 20.7518 33.8156 20.8581 33.6966V33.7192ZM21.1604 33.5234H19.5129V33.222H21.0848L21.1377 33.3576L21.1604 33.5234Z" fill="#F2F2F2"/>
<path d="M22.0293 34.9999H21.5457V32.4611H22.0218V33.0261H21.916C21.9339 32.9123 21.9779 32.804 22.0444 32.7097C22.1044 32.6124 22.1909 32.534 22.2938 32.4837C22.4104 32.4232 22.5402 32.3921 22.6717 32.3933C22.8341 32.3937 22.9934 32.438 23.1327 32.5214C23.2703 32.6048 23.3846 32.7214 23.4652 32.8604C23.5468 33.0188 23.5883 33.1947 23.5861 33.3727C23.5836 33.5598 23.5287 33.7425 23.4274 33.9C23.3493 34.0428 23.2345 34.1624 23.0949 34.2466C22.953 34.3294 22.7907 34.3711 22.6263 34.3671C22.483 34.3712 22.3415 34.3347 22.2182 34.2616C22.1088 34.1969 22.0198 34.103 21.9613 33.9904C21.9026 33.8712 21.8765 33.7387 21.8857 33.6062L21.984 33.5459C21.9982 33.6244 22.0291 33.6989 22.0747 33.7644C22.1271 33.8265 22.1913 33.8777 22.2636 33.9151C22.3425 33.9485 22.4272 33.9664 22.513 33.9678C22.6141 33.9719 22.7141 33.9456 22.8002 33.8925C22.8812 33.8439 22.9467 33.7734 22.9891 33.6891C23.0323 33.5973 23.053 33.4966 23.0495 33.3953C23.0545 33.2914 23.0338 33.1879 22.9891 33.0939C22.9495 33.0102 22.8865 32.9396 22.8077 32.8905C22.7257 32.841 22.6316 32.8149 22.5357 32.8152C22.44 32.817 22.3465 32.843 22.2636 32.8905C22.1825 32.9391 22.117 33.0097 22.0747 33.0939C22.0329 33.1915 22.0123 33.2968 22.0142 33.4028L22.0293 34.9999Z" fill="#F2F2F2"/>
<path d="M24.8558 34.3521C24.7123 34.3624 24.5685 34.3375 24.4368 34.2797C24.3051 34.222 24.1895 34.1331 24.1001 34.0207C23.9088 33.7397 23.8182 33.4026 23.8432 33.0639C23.8224 32.7402 23.8987 32.4177 24.0623 32.1373C24.149 32.0305 24.2568 31.9427 24.379 31.8792C24.5012 31.8157 24.6352 31.7779 24.7727 31.7682L25.5889 31.6401L25.6342 32.0319L24.8785 32.1373C24.7642 32.1501 24.655 32.1916 24.5611 32.2579C24.4751 32.3238 24.4139 32.4167 24.3873 32.5215C24.3442 32.671 24.3213 32.8256 24.3193 32.9811L24.2437 33.0941C24.2723 32.9819 24.3237 32.8767 24.3949 32.7852C24.4683 32.704 24.5585 32.6398 24.6594 32.5969C24.7693 32.5505 24.8877 32.5274 25.007 32.5291C25.1622 32.5263 25.3155 32.5625 25.4529 32.6345C25.575 32.7062 25.6746 32.8106 25.74 32.9359C25.8097 33.0735 25.8434 33.2263 25.8383 33.3803C25.8406 33.5636 25.7908 33.7438 25.6947 33.9001C25.6162 34.0388 25.5012 34.1534 25.3622 34.2316C25.2054 34.3112 25.0318 34.3525 24.8558 34.3521ZM24.8558 33.9529C24.9213 33.9568 24.9869 33.9467 25.0481 33.9233C25.1094 33.8999 25.1649 33.8638 25.211 33.8173C25.2566 33.7662 25.2914 33.7066 25.3135 33.6419C25.3355 33.5772 25.3444 33.5088 25.3395 33.4406C25.3446 33.3753 25.3366 33.3097 25.3158 33.2476C25.295 33.1855 25.262 33.1282 25.2186 33.079C25.175 33.0338 25.1219 32.9989 25.0631 32.9767C25.0042 32.9546 24.9412 32.9458 24.8785 32.9509C24.7972 32.9479 24.7164 32.9661 24.6442 33.0037C24.5697 33.0342 24.5064 33.0868 24.4629 33.1543C24.4145 33.2256 24.3787 33.3046 24.3571 33.3879V33.1995C24.338 33.3941 24.3746 33.59 24.4629 33.7645C24.5014 33.8267 24.5563 33.8771 24.6216 33.9104C24.6869 33.9436 24.7601 33.9583 24.8332 33.9529H24.8558Z" fill="#F2F2F2"/>
<path d="M27.4782 32.4612H27.9619L27.0853 34.5027C27.0288 34.6477 26.9381 34.7769 26.8208 34.8794C26.6949 34.9668 26.5431 35.0093 26.39 34.9999H26.1557V34.6082H26.3673C26.4344 34.6115 26.5007 34.593 26.5563 34.5555C26.6073 34.5166 26.6465 34.4645 26.6696 34.4048L26.715 34.2993L25.9592 32.4612H26.4504L27.0475 34.0206H26.8888L27.4782 32.4612Z" fill="#F2F2F2"/>
<path d="M28.763 34.9999H28.2793V32.4612H28.7554V33.0262H28.6572C28.67 32.9122 28.7116 32.8034 28.7781 32.7098C28.8398 32.6139 28.9258 32.5359 29.0275 32.4838C29.1402 32.4282 29.2644 32.3998 29.3902 32.4009C29.5528 32.4005 29.7123 32.4449 29.8512 32.529C29.9888 32.6124 30.1032 32.729 30.1837 32.868C30.2658 33.025 30.3087 33.1994 30.3087 33.3765C30.3087 33.5535 30.2658 33.728 30.1837 33.885C30.1081 34.0296 29.9928 34.1498 29.8512 34.2315C29.7093 34.3143 29.547 34.3561 29.3827 34.3521C29.2393 34.3562 29.0978 34.3196 28.9746 34.2466C28.8652 34.1819 28.7761 34.088 28.7176 33.9754C28.6589 33.8562 28.6328 33.7237 28.642 33.5912L28.7403 33.5309C28.7545 33.6094 28.7854 33.6839 28.831 33.7494C28.8834 33.8115 28.9476 33.8627 29.0199 33.9001C29.0991 33.9326 29.1836 33.9505 29.2693 33.9528C29.3704 33.9568 29.4705 33.9306 29.5565 33.8775C29.6375 33.8289 29.703 33.7583 29.7454 33.6741C29.7909 33.5828 29.8142 33.4822 29.8134 33.3803C29.8161 33.2757 29.7927 33.1722 29.7454 33.0789C29.7107 32.992 29.6465 32.9201 29.564 32.8755C29.482 32.8259 29.3879 32.7999 29.292 32.8002C29.1964 32.802 29.1028 32.8279 29.0199 32.8755C28.9411 32.9245 28.8781 32.9952 28.8385 33.0789C28.7906 33.1747 28.7672 33.2808 28.7705 33.3878L28.763 34.9999Z" fill="#F2F2F2"/>
<path d="M30.6975 34.2918V32.4612H32.0503V32.8454H30.8109L31.1812 32.5516V34.2918H30.6975Z" fill="#F2F2F2"/>
<path d="M32.927 34.3521C32.7993 34.3565 32.6724 34.3307 32.5567 34.2768C32.4535 34.2341 32.3664 34.1604 32.3073 34.0659C32.2458 33.9719 32.2142 33.8616 32.2166 33.7495C32.2111 33.6323 32.2487 33.5171 32.3224 33.4255C32.4092 33.3321 32.5184 33.2621 32.6398 33.2221C32.7906 33.1709 32.949 33.1454 33.1083 33.1468H33.5769V33.4632H33.1461C33.0338 33.4584 32.9221 33.4817 32.8212 33.531C32.785 33.5508 32.7551 33.5804 32.7351 33.6164C32.715 33.6524 32.7056 33.6933 32.7078 33.7344C32.7066 33.7708 32.7142 33.8069 32.73 33.8397C32.7458 33.8724 32.7693 33.9009 32.7985 33.9227C32.8697 33.9706 32.9545 33.9944 33.0403 33.9905C33.1296 33.9912 33.2177 33.9705 33.2973 33.9303C33.3755 33.892 33.4429 33.8351 33.4938 33.7645C33.5414 33.6925 33.57 33.6095 33.5769 33.5235L33.7129 33.5913C33.7179 33.7309 33.6839 33.8691 33.6147 33.9905C33.5492 34.1037 33.452 34.1954 33.3351 34.2542C33.211 34.3246 33.0695 34.3586 32.927 34.3521ZM34.0076 34.2919H33.5542V33.9001V33.8474V33.1468C33.5564 33.0902 33.546 33.0339 33.5238 32.9818C33.5016 32.9297 33.4681 32.8832 33.4257 32.8455C33.3283 32.7716 33.2079 32.7343 33.0857 32.74C32.9845 32.7419 32.8846 32.7623 32.7909 32.8003C32.7023 32.8423 32.6227 32.9012 32.5567 32.9735L32.2997 32.6797C32.401 32.5806 32.522 32.5036 32.6549 32.4537C32.7999 32.3996 32.9535 32.3715 33.1083 32.3709C33.2716 32.3674 33.4339 32.3982 33.5844 32.4613C33.7171 32.5183 33.8289 32.6147 33.9047 32.7374C33.9804 32.8601 34.0164 33.003 34.0076 33.1468V34.2919Z" fill="#F2F2F2"/>
</g>
<defs>
<clipPath id="clip0_216_481">
<rect width="34" height="35" fill="white"/>
</clipPath>
</defs>
</svg>
