<svg width="28" height="29" viewBox="0 0 28 29" fill="none" xmlns="http://www.w3.org/2000/svg">
<g clip-path="url(#clip0_216_325)">
<path fill-rule="evenodd" clip-rule="evenodd" d="M12.631 26.8734V27.0613L11.4149 26.8734V26.6856H11.6014C11.681 26.1245 11.5541 25.8164 11.2209 25.7612C10.8479 25.7011 10.6091 26.0168 10.4748 26.6931C10.4337 27.0752 10.4337 27.4607 10.4748 27.8429C10.4977 28.0728 10.4977 28.3044 10.4748 28.5342C10.45 28.6221 10.4176 28.7076 10.3778 28.7898H10.4524C10.5407 28.7982 10.6296 28.7847 10.7115 28.7507C10.7934 28.7166 10.8658 28.663 10.9225 28.5944C11.1673 28.3585 11.3251 28.0458 11.3701 27.7076V27.655H11.1836V27.4596L12.3997 27.6475V27.8429L12.1833 27.8053C12.1569 27.9679 12.0984 28.1234 12.0113 28.2628C11.9241 28.4023 11.8101 28.5226 11.676 28.6169C11.4179 28.8174 11.106 28.9353 10.7807 28.9551C10.6222 28.9753 10.4618 28.9753 10.3032 28.9551C10.2226 28.9388 10.1463 28.9055 10.0794 28.8574C10.0901 28.7902 10.0901 28.7217 10.0794 28.6545C10.0271 28.4347 9.94157 28.2243 9.82574 28.0307C9.72496 27.8429 9.64011 27.6468 9.57208 27.4446C9.5346 27.2359 9.5346 27.0221 9.57208 26.8133C9.62373 26.428 9.82161 26.0779 10.1242 25.8364C10.279 25.7248 10.4547 25.646 10.6406 25.6047C10.8266 25.5633 11.0189 25.5604 11.206 25.5959C11.3483 25.6174 11.4882 25.6526 11.6238 25.7011C11.8415 25.7916 12.0227 25.953 12.1386 26.1595C12.2527 26.3639 12.3143 26.5939 12.3176 26.8284L12.631 26.8734Z" fill="#F2F2F2"/>
<path fill-rule="evenodd" clip-rule="evenodd" d="M17.458 26.2122L17.4953 26.4L16.3016 26.6706L16.2569 26.4827L16.4434 26.4451C16.3166 25.889 16.0853 25.6485 15.757 25.6936C15.4287 25.7387 15.2795 26.1596 15.4287 26.8284C15.5281 27.1998 15.6708 27.558 15.854 27.8955C15.9563 28.0999 16.0388 28.3138 16.1002 28.5343C16.1132 28.6265 16.1132 28.7201 16.1002 28.8123H16.2121C16.3539 28.8123 16.4732 28.6695 16.5777 28.4591C16.7246 28.1473 16.7564 27.7929 16.6672 27.4596C16.6653 27.4421 16.6653 27.4245 16.6672 27.407L16.4807 27.4521L16.4135 27.2868L17.6073 27.0162L17.652 27.2041L17.4357 27.2492C17.4697 27.4095 17.4721 27.5749 17.4426 27.7361C17.4132 27.8973 17.3525 28.051 17.2641 28.1886C17.0865 28.4773 16.8265 28.7052 16.518 28.8424C16.3745 28.9065 16.2244 28.9544 16.0703 28.9852C15.9893 29.0038 15.9052 29.0038 15.8241 28.9852C15.8077 28.9181 15.7852 28.8527 15.757 28.7898C15.6267 28.6056 15.4709 28.4411 15.2944 28.3013C15.1336 28.1607 14.9816 28.0101 14.8393 27.8504C14.7327 27.6697 14.6594 27.4712 14.623 27.2642C14.5724 27.0783 14.5595 26.8839 14.5852 26.6928C14.6108 26.5017 14.6744 26.3178 14.7722 26.152C14.8837 25.9863 15.0294 25.8468 15.1994 25.743C15.3693 25.6393 15.5596 25.5737 15.757 25.5508C15.8962 25.5154 16.0388 25.4953 16.1823 25.4907C16.416 25.4939 16.6419 25.5759 16.8239 25.7237C17.0069 25.8712 17.1505 26.0623 17.2417 26.2798L17.458 26.2122Z" fill="#F2F2F2"/>
<path fill-rule="evenodd" clip-rule="evenodd" d="M3.85718 7.84546C3.95819 7.67728 4.0147 7.48581 4.02132 7.28936L3.73035 7.22924C3.73011 7.37458 3.69149 7.51723 3.61844 7.64256C3.54395 7.76671 3.42425 7.85663 3.28487 7.89313C3.14549 7.92963 2.99746 7.90983 2.87237 7.83795C2.74683 7.76518 2.6537 7.64678 2.61208 7.50704C2.57046 7.3673 2.58351 7.21682 2.64855 7.08646C2.71977 6.96586 2.81979 6.86511 2.93952 6.79338C2.93952 6.79338 2.93952 6.79338 2.93952 6.74077L2.77538 6.50781H2.72316C2.52871 6.59748 2.36137 6.73752 2.23821 6.91362C2.17246 7.01962 2.12855 7.13786 2.1091 7.2613C2.08964 7.38474 2.09504 7.51087 2.12497 7.63217C2.15491 7.75346 2.20876 7.86746 2.28333 7.96736C2.35789 8.06727 2.45165 8.15104 2.55902 8.2137C2.66457 8.28254 2.78353 8.32781 2.9079 8.34646C3.03227 8.36511 3.15917 8.35671 3.28005 8.32182C3.40093 8.28693 3.51298 8.22636 3.60867 8.1442C3.70436 8.06203 3.78147 7.96017 3.8348 7.84546" fill="#F2F2F2"/>
<path fill-rule="evenodd" clip-rule="evenodd" d="M6.48335 3.40437C6.40291 3.30843 6.30375 3.23015 6.19204 3.1744C6.08032 3.11865 5.95843 3.08661 5.83392 3.08027C5.7094 3.07393 5.58492 3.09342 5.46819 3.13754C5.35147 3.18166 5.24498 3.24946 5.15534 3.33674C4.97132 3.49817 4.85851 3.72663 4.84172 3.97186C4.82493 4.21708 4.90554 4.45897 5.06581 4.64433C5.22609 4.82968 5.4529 4.94332 5.69635 4.96023C5.93981 4.97714 6.17996 4.89595 6.36398 4.73451C6.46362 4.65871 6.54643 4.56275 6.60707 4.4528C6.6677 4.34284 6.70484 4.22133 6.71608 4.09606C6.72732 3.9708 6.71242 3.84455 6.67234 3.72542C6.63226 3.6063 6.56788 3.49694 6.48335 3.40437ZM6.17746 3.67491C6.23585 3.72892 6.28165 3.79528 6.31156 3.86923C6.34148 3.94318 6.35478 4.02289 6.3505 4.10262C6.34622 4.18236 6.32447 4.26016 6.28681 4.33043C6.24916 4.4007 6.19653 4.4617 6.13269 4.50906C6.01892 4.60871 5.8705 4.65876 5.72009 4.64819C5.56968 4.63762 5.4296 4.5673 5.33067 4.4527C5.23173 4.3381 5.18205 4.1886 5.19254 4.0371C5.20304 3.8856 5.27285 3.7445 5.38662 3.64485C5.44195 3.59481 5.50687 3.55671 5.57737 3.5329C5.64787 3.5091 5.72247 3.50009 5.79656 3.50642C5.87065 3.51276 5.94267 3.53431 6.00818 3.56975C6.07369 3.60519 6.1313 3.65376 6.17746 3.71248" fill="#F2F2F2"/>
<path fill-rule="evenodd" clip-rule="evenodd" d="M7.79643 2.25481C7.82142 2.29682 7.83461 2.34487 7.83461 2.39383C7.83461 2.4428 7.82142 2.49085 7.79643 2.53286C7.76036 2.59312 7.70881 2.64245 7.64722 2.67564L7.34133 2.856L7.05036 2.33747L7.35625 2.15711C7.41637 2.119 7.48676 2.10062 7.55769 2.10451C7.60373 2.10806 7.648 2.12384 7.68601 2.15024C7.72402 2.17665 7.7544 2.21273 7.77405 2.25481M6.61018 2.19469C6.60555 2.19819 6.60179 2.20273 6.5992 2.20795C6.59661 2.21316 6.59526 2.21892 6.59526 2.22475C6.59526 2.23058 6.59661 2.23634 6.5992 2.24155C6.60179 2.24677 6.60555 2.25131 6.61018 2.25481L7.4607 3.75779H7.51293L7.77405 3.60749C7.77405 3.60749 7.77405 3.60749 7.77405 3.55489L7.52039 3.11902L7.8785 2.91612C8.02133 2.85301 8.13754 2.74127 8.20677 2.60049C8.24326 2.51079 8.25823 2.41368 8.25045 2.31705C8.24267 2.22042 8.21237 2.127 8.16201 2.04439C8.12375 1.96745 8.06955 1.89968 8.00305 1.84565C7.93656 1.79163 7.85933 1.75261 7.77658 1.73124C7.69383 1.70987 7.60748 1.70664 7.52339 1.72177C7.43929 1.7369 7.35939 1.77004 7.28911 1.81894L6.61018 2.19469Z" fill="#F2F2F2"/>
<path fill-rule="evenodd" clip-rule="evenodd" d="M8.37837 1.2249C8.3729 1.23257 8.36996 1.24177 8.36996 1.2512C8.36996 1.26064 8.3729 1.26984 8.37837 1.27751L8.47535 1.51798C8.48233 1.52487 8.4917 1.52872 8.50147 1.52872C8.51123 1.52872 8.52061 1.52487 8.52758 1.51798L9.02745 1.3226L9.5497 2.65273C9.5497 2.65273 9.5497 2.65273 9.59446 2.65273L9.87797 2.54001C9.8848 2.53299 9.88863 2.52354 9.88863 2.51371C9.88863 2.50387 9.8848 2.49443 9.87797 2.48741L9.35572 1.15727L9.85558 0.961881C9.85558 0.961881 9.85558 0.924306 9.85558 0.909277L9.78844 0.751464C9.78146 0.744579 9.77209 0.740723 9.76233 0.740723C9.75256 0.740723 9.74319 0.744579 9.73621 0.751464L8.37837 1.2249Z" fill="#F2F2F2"/>
<path fill-rule="evenodd" clip-rule="evenodd" d="M12.3698 0.999843C12.3516 0.874917 12.3076 0.755197 12.2409 0.648308C12.1741 0.541419 12.086 0.449705 11.9822 0.379009C11.8783 0.308313 11.7609 0.260184 11.6376 0.237689C11.5142 0.215194 11.3875 0.218826 11.2657 0.248353C11.1449 0.269098 11.0296 0.313973 10.9263 0.380334C10.8231 0.446694 10.7341 0.533198 10.6645 0.634747C10.595 0.736296 10.5464 0.850836 10.5215 0.971618C10.4966 1.0924 10.4959 1.21698 10.5196 1.33801C10.5388 1.46324 10.5836 1.58309 10.6511 1.69001C10.7186 1.79692 10.8074 1.88858 10.9119 1.95919C11.0163 2.02981 11.1342 2.07784 11.258 2.10027C11.3818 2.1227 11.5089 2.11903 11.6312 2.0895C11.7524 2.06974 11.8684 2.02548 11.9722 1.9594C12.0759 1.89332 12.1653 1.80678 12.235 1.70498C12.3047 1.60318 12.3533 1.48824 12.3777 1.36706C12.4022 1.24588 12.402 1.12097 12.3773 0.999843M11.9819 1.07499C12.0023 1.15028 12.007 1.22902 11.9956 1.30622C11.9842 1.38342 11.957 1.4574 11.9158 1.52347C11.8746 1.58955 11.8201 1.64627 11.756 1.69005C11.6919 1.73384 11.6194 1.76373 11.5432 1.77783C11.467 1.79192 11.3887 1.78993 11.3133 1.77196C11.2379 1.75399 11.167 1.72045 11.1051 1.67345C11.0433 1.62645 10.9918 1.56703 10.9539 1.49894C10.9161 1.43085 10.8926 1.35558 10.8852 1.27789C10.8567 1.12943 10.8878 0.975653 10.9717 0.850275C11.0556 0.724897 11.1855 0.638155 11.3328 0.609068C11.406 0.595104 11.4812 0.596189 11.5539 0.612258C11.6266 0.628328 11.6954 0.659049 11.756 0.702575C11.8166 0.746101 11.8679 0.801532 11.9067 0.865533C11.9455 0.929533 11.9711 1.00078 11.9819 1.07499Z" fill="#F2F2F2"/>
<path fill-rule="evenodd" clip-rule="evenodd" d="M13.0338 0C13.0338 0 12.9891 0 12.9891 0.0375745V1.766H13.6456C13.7807 1.7719 13.9148 1.74073 14.0336 1.67582C14.1167 1.63392 14.1853 1.56778 14.2306 1.48601C14.2758 1.40425 14.2956 1.31065 14.2872 1.21741C14.2961 1.12323 14.2748 1.02866 14.2265 0.947534C14.1781 0.866409 14.1053 0.80298 14.0187 0.76652C13.9015 0.737651 13.7797 0.732542 13.6605 0.75149H13.377V0.345685H14.1753V0.300596V0.0375745C14.1786 0.0318625 14.1803 0.025383 14.1803 0.0187873C14.1803 0.0121915 14.1786 0.00571205 14.1753 0L13.0338 0ZM13.959 1.25499C13.9634 1.2925 13.9566 1.33049 13.9393 1.364C13.922 1.39751 13.895 1.425 13.862 1.44286C13.8022 1.47431 13.7354 1.48983 13.668 1.48795H13.3845V1.05209H13.6382C13.7072 1.03888 13.778 1.03888 13.8471 1.05209C13.8843 1.06645 13.9159 1.09244 13.9374 1.12625C13.9589 1.16006 13.9691 1.19991 13.9664 1.23996" fill="#F2F2F2"/>
<path fill-rule="evenodd" clip-rule="evenodd" d="M14.9214 1.81129L17.3834 2.24715L17.2864 2.81077C17.2864 2.81077 17.2864 2.81077 17.2864 2.85586L17.5849 2.90847C17.5956 2.90862 17.6059 2.90491 17.6142 2.89802C17.6224 2.89113 17.6279 2.88151 17.6296 2.87089L17.7788 2.02171C17.7834 2.01371 17.7858 2.00464 17.7858 1.99541C17.7858 1.98617 17.7834 1.9771 17.7788 1.9691L17.4282 1.90898L17.6446 0.503698V0.458608L17.3461 0.406004C17.3461 0.406004 17.3088 0.406004 17.3014 0.406004L17.0626 1.81129L16.3762 1.69105L16.5926 0.315825V0.270736L16.2643 0.218132H16.2196L15.9734 1.63093L15.2944 1.51069L15.5332 0.127953C15.5332 0.127953 15.5332 0.0903783 15.5332 0.0828634L15.2124 0.000199534C15.2042 -0.00378753 15.1953 -0.00585937 15.1863 -0.00585938C15.1772 -0.00585937 15.1683 -0.00378753 15.1601 0.000199534L14.8692 1.69857V1.74366" fill="#F2F2F2"/>
<path fill-rule="evenodd" clip-rule="evenodd" d="M18.898 0.909431C18.8897 0.902037 18.8791 0.897949 18.8681 0.897949C18.8571 0.897949 18.8465 0.902037 18.8383 0.909431L18.1295 2.50259C18.1243 2.51173 18.1215 2.5221 18.1215 2.53265C18.1215 2.5432 18.1243 2.55357 18.1295 2.56271L19.2934 3.08875C19.3003 3.09564 19.3097 3.09949 19.3195 3.09949C19.3292 3.09949 19.3386 3.09564 19.3456 3.08875L19.45 2.85579C19.4569 2.84877 19.4607 2.83932 19.4607 2.82949C19.4607 2.81965 19.4569 2.81021 19.45 2.80319L18.5995 2.41241L18.7637 2.0517L19.5097 2.38235C19.5185 2.38849 19.5289 2.39179 19.5396 2.39179C19.5502 2.39179 19.5607 2.38849 19.5694 2.38235L19.6739 2.14187C19.6739 2.14187 19.6739 2.14187 19.6739 2.09679L18.9278 1.76613L19.0845 1.40541L19.935 1.79619C19.942 1.80307 19.9513 1.80693 19.9611 1.80693C19.9709 1.80693 19.9802 1.80307 19.9872 1.79619L20.0767 1.50311C20.0828 1.49429 20.0861 1.4838 20.0861 1.47305C20.0861 1.4623 20.0828 1.45181 20.0767 1.44299L18.898 0.909431Z" fill="#F2F2F2"/>
<path fill-rule="evenodd" clip-rule="evenodd" d="M20.4423 3.75769C20.6054 3.86651 20.7923 3.93358 20.9869 3.95308C20.9869 3.95308 21.0242 3.95308 21.0317 3.95308V3.66751C20.8888 3.65477 20.7508 3.60844 20.6288 3.53224C20.5643 3.49338 20.5085 3.44148 20.4648 3.3798C20.4212 3.31813 20.3907 3.24803 20.3753 3.1739C20.3599 3.09978 20.3598 3.02324 20.3752 2.94911C20.3906 2.87498 20.4211 2.80487 20.4647 2.74318C20.5392 2.61903 20.6589 2.52912 20.7983 2.49261C20.9377 2.45611 21.0857 2.47591 21.2108 2.54779C21.3272 2.62205 21.4224 2.72567 21.4868 2.84839C21.4903 2.85305 21.4948 2.85684 21.5 2.85945C21.5051 2.86206 21.5109 2.86342 21.5167 2.86342C21.5224 2.86342 21.5282 2.86206 21.5333 2.85945C21.5385 2.85684 21.543 2.85305 21.5465 2.84839L21.7778 2.69809C21.7824 2.69459 21.7862 2.69005 21.7888 2.68483C21.7914 2.67962 21.7927 2.67386 21.7927 2.66803C21.7927 2.6622 21.7914 2.65644 21.7888 2.65123C21.7862 2.64601 21.7824 2.64147 21.7778 2.63797C21.6934 2.48353 21.5731 2.35201 21.4271 2.25471C21.3278 2.18393 21.2153 2.13394 21.0965 2.10769C20.9776 2.08144 20.8547 2.07947 20.7351 2.10189C20.6154 2.12431 20.5015 2.17067 20.3999 2.23822C20.2984 2.30578 20.2113 2.39315 20.1439 2.49519C20.0747 2.59583 20.0273 2.71003 20.0048 2.83035C19.9823 2.95067 19.9852 3.07442 20.0134 3.19352C20.0415 3.31263 20.0943 3.42442 20.1682 3.52163C20.2421 3.61883 20.3355 3.69927 20.4423 3.75769Z" fill="#F2F2F2"/>
<path fill-rule="evenodd" clip-rule="evenodd" d="M22.3821 2.92351C22.3745 2.918 22.3654 2.91504 22.356 2.91504C22.3466 2.91504 22.3375 2.918 22.3299 2.92351L22.1583 3.11889C22.1509 3.12716 22.1469 3.13786 22.1469 3.14895C22.1469 3.16004 22.1509 3.17075 22.1583 3.17901L22.5612 3.53221L21.636 4.61436C21.6287 4.62262 21.6246 4.63333 21.6246 4.64442C21.6246 4.65551 21.6287 4.66621 21.636 4.67448L21.8673 4.86986H21.9195L22.8745 3.75766L23.2774 4.11086C23.2856 4.11825 23.2962 4.12234 23.3072 4.12234C23.3182 4.12234 23.3289 4.11825 23.3371 4.11086L23.5087 3.91547C23.5139 3.90633 23.5167 3.89597 23.5167 3.88541C23.5167 3.87486 23.5139 3.86449 23.5087 3.85535L22.3821 2.92351Z" fill="#F2F2F2"/>
<path fill-rule="evenodd" clip-rule="evenodd" d="M23.8742 6.32037C23.9639 6.25778 24.0268 6.16339 24.0503 6.05609C24.0738 5.9488 24.0562 5.83652 24.0011 5.74172C24.0682 5.7695 24.1411 5.77984 24.2132 5.77179C24.2853 5.76374 24.3543 5.73756 24.4137 5.69565C24.4731 5.65375 24.5212 5.59746 24.5534 5.53197C24.5855 5.46649 24.6009 5.3939 24.5979 5.32089C24.5832 5.16604 24.5175 5.02059 24.4114 4.90757L24.0533 4.50928H24.0011L22.6656 5.55385V5.60645L23.1058 6.15504C23.1423 6.21717 23.191 6.27108 23.2491 6.3134C23.3071 6.35573 23.3732 6.38558 23.4431 6.40109C23.5131 6.41659 23.5855 6.41743 23.6558 6.40354C23.7261 6.38966 23.7929 6.36135 23.8519 6.32037M24.1354 5.41107C24.105 5.42964 24.0702 5.43947 24.0346 5.43947C23.9991 5.43947 23.9643 5.42964 23.9339 5.41107C23.8878 5.384 23.8473 5.34828 23.8146 5.30586L23.7026 5.16307L24.0309 4.89254L24.1577 5.05787C24.1894 5.09956 24.2099 5.14871 24.2174 5.20065C24.2189 5.23404 24.2122 5.26729 24.1979 5.29744C24.1836 5.32759 24.1621 5.35372 24.1354 5.37349M23.6504 6.01226C23.6158 6.03789 23.574 6.05172 23.531 6.05172C23.4881 6.05172 23.4463 6.03789 23.4117 6.01226C23.364 5.98128 23.3213 5.94328 23.2848 5.89953L23.1282 5.6816L23.4788 5.39604L23.6206 5.57639C23.6757 5.63068 23.7167 5.69778 23.7399 5.77178C23.7499 5.81148 23.7482 5.85324 23.7349 5.89195C23.7217 5.93066 23.6975 5.96464 23.6653 5.98971" fill="#F2F2F2"/>
<path fill-rule="evenodd" clip-rule="evenodd" d="M25.4708 8.20655C25.5798 8.14544 25.6751 8.06244 25.7509 7.96269C25.8267 7.86293 25.8813 7.74856 25.9114 7.62665C25.9415 7.50475 25.9464 7.37792 25.9258 7.25403C25.9052 7.13014 25.8595 7.01184 25.7916 6.90647C25.7385 6.78801 25.6613 6.68206 25.5651 6.59544C25.4689 6.50881 25.3557 6.44343 25.2329 6.40348C25.1101 6.36354 24.9803 6.34992 24.852 6.3635C24.7236 6.37708 24.5995 6.41756 24.4876 6.48234C24.3757 6.54712 24.2785 6.63476 24.2023 6.73964C24.126 6.84452 24.0724 6.9643 24.0448 7.0913C24.0173 7.2183 24.0164 7.3497 24.0423 7.47706C24.0681 7.60442 24.1202 7.72491 24.195 7.8308C24.2504 7.94363 24.3284 8.04366 24.4241 8.12455C24.5198 8.20545 24.6311 8.26546 24.751 8.30078C24.871 8.3361 24.9969 8.34596 25.1208 8.32974C25.2446 8.31352 25.3639 8.27157 25.4708 8.20655ZM25.2694 7.85334C25.2061 7.89973 25.1338 7.93221 25.0572 7.94869C24.9807 7.96518 24.9015 7.96529 24.8249 7.94903C24.7483 7.93277 24.6759 7.90049 24.6125 7.85429C24.549 7.80809 24.4959 7.74899 24.4565 7.68081C24.4172 7.61263 24.3925 7.53689 24.384 7.45849C24.3755 7.38009 24.3835 7.30078 24.4074 7.22567C24.4312 7.15056 24.4705 7.08134 24.5226 7.02247C24.5747 6.9636 24.6385 6.9164 24.7098 6.88392C24.7732 6.83754 24.8454 6.80506 24.922 6.78857C24.9986 6.77209 25.0777 6.77198 25.1543 6.78824C25.2309 6.8045 25.3033 6.83678 25.3668 6.88298C25.4302 6.92918 25.4833 6.98828 25.5227 7.05646C25.562 7.12464 25.5867 7.20037 25.5952 7.27877C25.6037 7.35717 25.5957 7.43649 25.5718 7.5116C25.548 7.58671 25.5087 7.65593 25.4566 7.7148C25.4045 7.77367 25.3407 7.82087 25.2694 7.85334Z" fill="#F2F2F2"/>
<path fill-rule="evenodd" clip-rule="evenodd" d="M2.98428 21.9136H2.43219L1.61897 22.5448L1.85025 22.8454L1.69358 22.9656L0.798294 21.7933L0.947508 21.6731L1.17879 21.9812L3.417 20.2828C3.61844 20.1325 3.94671 20.358 4.40927 20.9667C4.58594 21.1808 4.69736 21.4417 4.73008 21.7182C4.74502 21.8629 4.72104 22.009 4.66067 22.1413C4.60029 22.2735 4.50573 22.3869 4.38689 22.4697C4.21138 22.6126 3.99331 22.692 3.76765 22.6951C3.65529 22.698 3.54399 22.6727 3.44372 22.6215C3.34346 22.5704 3.25737 22.495 3.19318 22.402C3.09161 22.255 3.02055 22.0889 2.98428 21.9136ZM2.67093 21.7031H3.16334C3.15479 21.7692 3.17073 21.8361 3.2081 21.891C3.32747 22.0563 3.54383 22.0188 3.84972 21.7783C4.15561 21.5378 4.35705 21.2222 4.19291 21.0268C4.02878 20.8314 3.90941 20.854 3.68558 20.9667C3.51005 21.0616 3.34499 21.1749 3.19318 21.3048L2.67093 21.7031Z" fill="#F2F2F2"/>
<path fill-rule="evenodd" clip-rule="evenodd" d="M7.52785 23.8C7.57985 23.9219 7.61258 24.0512 7.62484 24.1833L7.69198 24.4613C7.76622 24.7059 7.81375 24.9579 7.83374 25.2128C7.84407 25.4814 7.76532 25.7458 7.60992 25.9643C7.43379 26.2322 7.16966 26.4291 6.86385 26.5204C6.76686 26.5204 6.45351 26.6106 5.93126 26.7083C5.72236 26.7083 5.59553 26.7083 5.5433 26.7083C5.4758 26.6266 5.43192 26.5278 5.41647 26.4227C5.3178 26.1075 5.25277 25.7825 5.22249 25.4533C5.19717 25.1259 5.28407 24.7996 5.4687 24.529C5.66827 24.2736 5.9271 24.0714 6.22241 23.9404C6.51772 23.8094 6.84047 23.7534 7.16228 23.7775L7.36371 23.7399C7.43316 23.7274 7.50475 23.7408 7.56515 23.7775M6.95338 24.1157C6.879 24.084 6.79909 24.0677 6.71836 24.0677C6.63764 24.0677 6.55772 24.084 6.48335 24.1157C6.32735 24.1632 6.19109 24.2608 6.0954 24.3937C5.98489 24.5951 5.94296 24.8274 5.97602 25.055C5.97602 25.055 6.02079 25.3331 6.10286 25.8065C6.15514 25.9932 6.15514 26.1909 6.10286 26.3776C6.26442 26.419 6.43369 26.419 6.59526 26.3776C6.75987 26.3447 6.90626 26.2509 7.0056 26.1146C7.07468 25.9349 7.08769 25.7383 7.0429 25.551C7.0429 25.4909 7.0429 25.2429 6.93845 24.7995C6.90267 24.5906 6.90267 24.3771 6.93845 24.1683" fill="#F2F2F2"/>
<path fill-rule="evenodd" clip-rule="evenodd" d="M1.38023 13.234C1.40477 13.2283 1.4303 13.2283 1.45484 13.234C1.50557 13.234 1.55508 13.2497 1.59659 13.2791C1.63732 13.3047 1.66672 13.345 1.67866 13.3918C1.68329 13.4141 1.68329 13.4372 1.67866 13.4595C1.68637 13.4941 1.68637 13.53 1.67866 13.5647C1.64876 13.6218 1.5979 13.665 1.53691 13.6849H1.40261H1.24594H1.11165C1.05967 13.6776 1.00695 13.6776 0.954973 13.6849C1.03777 13.7698 1.13348 13.8408 1.23848 13.8953C1.30192 13.9285 1.35782 13.9745 1.40261 14.0306C1.43282 14.0747 1.44848 14.1273 1.44738 14.1809C1.44922 14.2173 1.44199 14.2535 1.42635 14.2863C1.41071 14.3191 1.38716 14.3475 1.35785 14.3688C1.31961 14.3924 1.27585 14.4053 1.23102 14.4064C1.18999 14.4058 1.14996 14.3935 1.11561 14.3708C1.08127 14.3482 1.05402 14.3162 1.03704 14.2786C1.00152 14.2154 0.976331 14.1469 0.962433 14.0757C0.941215 13.9595 0.900868 13.8478 0.843062 13.745C0.793225 13.8251 0.760215 13.9146 0.746073 14.0081C0.729687 14.1033 0.696861 14.1948 0.649084 14.2786C0.62762 14.3101 0.598558 14.3356 0.564627 14.3527C0.530695 14.3698 0.493008 14.3779 0.455106 14.3763C0.410274 14.3753 0.366511 14.3623 0.328274 14.3387C0.300032 14.3181 0.277143 14.291 0.261555 14.2596C0.245967 14.2282 0.238142 14.1935 0.238745 14.1584C0.238745 14.1584 0.238745 14.1058 0.238745 14.0832C0.237407 14.0582 0.237407 14.0331 0.238745 14.0081L0.746073 13.6924C0.694462 13.681 0.641009 13.681 0.589398 13.6924H0.410342H0.29097H0.246206H0.164138C0.114683 13.6782 0.0721793 13.6461 0.0447673 13.6023C0.00953408 13.5549 -0.00647121 13.4958 3.11921e-06 13.4369C-0.00423281 13.4171 -0.00423281 13.3966 3.11921e-06 13.3768C0.0107027 13.3284 0.0386174 13.2857 0.0784778 13.2566C0.118338 13.2275 0.167386 13.2141 0.216363 13.219H0.29097L0.746073 13.5271C0.755816 13.4674 0.755816 13.4065 0.746073 13.3468C0.694773 13.2399 0.659569 13.1259 0.641623 13.0086C0.640586 12.9778 0.646034 12.9472 0.657607 12.9187C0.669181 12.8902 0.686618 12.8645 0.708769 12.8433C0.727299 12.8193 0.751105 12.8001 0.778299 12.787C0.805493 12.774 0.83533 12.7675 0.865444 12.7681C0.894745 12.7681 0.923741 12.7741 0.950673 12.7857C0.977604 12.7974 1.00191 12.8144 1.02212 12.8357C1.06587 12.8824 1.08994 12.9444 1.08927 13.0086C1.08874 13.0786 1.07348 13.1478 1.0445 13.2115C0.992387 13.3187 0.954749 13.4324 0.93259 13.5497C1.02485 13.5197 1.10735 13.4652 1.17133 13.3918C1.23787 13.325 1.31634 13.2715 1.40261 13.234" fill="#F2F2F2"/>
<path fill-rule="evenodd" clip-rule="evenodd" d="M27.6941 13.2338H27.7687C27.8195 13.2338 27.869 13.2495 27.9105 13.2789C27.9512 13.3045 27.9806 13.3448 27.9925 13.3916C27.9972 13.414 27.9972 13.437 27.9925 13.4593C28.0003 13.4939 28.0003 13.5299 27.9925 13.5645C27.9784 13.5933 27.9585 13.6188 27.9341 13.6395C27.9097 13.6602 27.8814 13.6756 27.8508 13.6847H27.7165H27.5598H27.4404C27.3885 13.6774 27.3357 13.6774 27.2838 13.6847C27.3666 13.7696 27.4623 13.8406 27.5673 13.8951C27.6307 13.9283 27.6866 13.9743 27.7314 14.0304C27.7616 14.0745 27.7773 14.1271 27.7762 14.1807C27.778 14.2171 27.7708 14.2533 27.7552 14.2861C27.7395 14.3189 27.716 14.3473 27.6867 14.3686C27.6484 14.3922 27.6047 14.4051 27.5598 14.4062C27.5218 14.4085 27.4839 14.4007 27.4498 14.3836C27.4157 14.3664 27.3868 14.3405 27.3658 14.3085C27.3303 14.2453 27.3051 14.1768 27.2912 14.1056C27.27 13.9894 27.2297 13.8777 27.1719 13.7749C27.122 13.855 27.089 13.9445 27.0749 14.0379C27.0585 14.1331 27.0257 14.2247 26.9779 14.3085C26.9564 14.34 26.9274 14.3655 26.8934 14.3826C26.8595 14.3996 26.8218 14.4078 26.7839 14.4062C26.7391 14.4051 26.6953 14.3922 26.6571 14.3686C26.6288 14.348 26.6059 14.3209 26.5904 14.2895C26.5748 14.2581 26.5669 14.2233 26.5675 14.1882C26.5675 14.1882 26.5675 14.1356 26.5675 14.1131C26.5662 14.088 26.5662 14.063 26.5675 14.0379L27.0077 13.6922C26.9561 13.6808 26.9027 13.6808 26.8511 13.6922H26.6944H26.575H26.5601H26.478C26.4286 13.678 26.3861 13.6459 26.3586 13.6021C26.3285 13.5607 26.3128 13.5105 26.3139 13.4593C26.3096 13.4395 26.3096 13.419 26.3139 13.3992C26.3246 13.3508 26.3525 13.308 26.3924 13.2789C26.4322 13.2499 26.4813 13.2365 26.5302 13.2414H26.6049L27.0749 13.557C27.0727 13.4871 27.0576 13.4183 27.0301 13.3541C26.9788 13.2472 26.9436 13.1332 26.9257 13.0159C26.9246 12.9851 26.9301 12.9545 26.9416 12.926C26.9532 12.8975 26.9707 12.8718 26.9928 12.8506C27.0113 12.8267 27.0351 12.8074 27.0623 12.7944C27.0895 12.7813 27.1194 12.7748 27.1495 12.7754C27.1788 12.7754 27.2078 12.7814 27.2347 12.793C27.2616 12.8047 27.2859 12.8217 27.3062 12.8431C27.3499 12.8897 27.374 12.9517 27.3733 13.0159C27.3728 13.086 27.3575 13.1551 27.3285 13.2188C27.2764 13.326 27.2388 13.4397 27.2166 13.557C27.3089 13.527 27.3914 13.4725 27.4554 13.3992C27.5219 13.3324 27.6004 13.2788 27.6867 13.2414" fill="#F2F2F2"/>
<path fill-rule="evenodd" clip-rule="evenodd" d="M5.27472 5.77142C5.28206 5.76316 5.28612 5.75245 5.28612 5.74136C5.28612 5.73027 5.28206 5.71957 5.27472 5.7113L3.93925 4.62916C3.93105 4.62176 3.92042 4.61768 3.90941 4.61768C3.8984 4.61768 3.88777 4.62176 3.87957 4.62916L2.98428 5.77142C2.97694 5.77969 2.97289 5.79039 2.97289 5.80148C2.97289 5.81257 2.97694 5.82327 2.98428 5.83154L4.30483 6.91369H4.35705L4.55103 6.68073V6.62812L3.43939 5.71882L3.93179 5.11011L5.02852 6.0119C5.03672 6.01929 5.04735 6.02338 5.05836 6.02338C5.06937 6.02338 5.07999 6.01929 5.0882 6.0119L5.27472 5.77142Z" fill="#F2F2F2"/>
<path fill-rule="evenodd" clip-rule="evenodd" d="M22.3 26.5578L21.2332 24.7918L21.0019 26.4225L21.4122 27.0988L21.7032 26.9185L21.8076 27.0838L20.5617 27.8428L20.4647 27.6775L20.7855 27.4821L19.2859 24.9872L18.9576 25.1901L18.8606 25.0247L20.0991 24.2582L20.1961 24.4235L19.9051 24.6114L20.8228 26.1294L21.0541 24.4987L20.793 24.0628L20.5244 24.2282L20.4199 24.0628L21.636 23.3188L21.733 23.4842L21.4122 23.6871L22.9193 26.1745L23.2401 25.9791L23.3445 26.1445L22.1284 26.8884L22.0314 26.7231L22.3 26.5578Z" fill="#F2F2F2"/>
<path fill-rule="evenodd" clip-rule="evenodd" d="M24.6576 19.8242L24.8143 19.9369L24.5681 20.2751L26.8958 22.0111L27.142 21.6804L27.2912 21.7931L26.4855 22.8903L26.3288 22.7776L26.4631 22.5972L25.3067 21.733C24.9337 22.2365 25.1351 22.7776 25.8961 23.3637L25.9931 23.236L26.1497 23.3487L25.4037 24.3181L25.247 24.2054L25.3813 24.025C25.2179 23.9147 25.0777 23.773 24.9688 23.6079C24.86 23.4428 24.7847 23.2577 24.7471 23.0631C24.7166 22.8682 24.7275 22.669 24.7789 22.4786C24.8304 22.2882 24.9212 22.1109 25.0456 21.9585L24.9933 21.9134C24.7708 22.1553 24.4983 22.3451 24.195 22.4695C24.0468 22.5388 23.8829 22.5669 23.7203 22.5511C23.5577 22.5352 23.4022 22.4759 23.2699 22.3793C23.2025 22.339 23.1505 22.2771 23.1221 22.2036C23.0937 22.13 23.0906 22.049 23.1132 21.9735C23.1688 21.823 23.2495 21.6832 23.352 21.5602L24.6576 19.8242ZM25.0306 21.5226L24.1354 20.8613L23.822 21.2896C23.6803 21.4775 23.6952 21.6353 23.822 21.7555C23.9105 21.8223 24.0127 21.8684 24.1211 21.8905C24.2295 21.9126 24.3414 21.9101 24.4487 21.8833C24.6721 21.8395 24.87 21.7102 25.0008 21.5226" fill="#F2F2F2"/>
<path d="M13.9814 3.22411C11.1734 3.18798 8.46588 4.27548 6.45309 6.24795C4.44031 8.22041 3.28668 10.9167 3.24541 13.745C3.31917 16.5627 4.48224 19.24 6.48688 21.2067C8.49152 23.1733 11.1793 24.2739 13.9776 24.2739C16.776 24.2739 19.4637 23.1733 21.4684 21.2067C23.473 19.24 24.6361 16.5627 24.7098 13.745C24.6913 12.3446 24.3992 10.9615 23.85 9.67489C23.3008 8.38824 22.5054 7.22315 21.5091 6.24618C20.5128 5.2692 19.3353 4.49947 18.0437 3.98094C16.752 3.46241 15.3717 3.20524 13.9814 3.22411ZM18.1519 6.46304C18.7734 7.03548 19.2698 7.73203 19.6094 8.50833C19.9491 9.28462 20.1244 10.1237 20.1244 10.972C20.1244 11.8203 19.9491 12.6593 19.6094 13.4356C19.2698 14.2119 18.7734 14.9085 18.1519 15.4809V6.46304ZM18.1519 16.7134C18.9817 16.0981 19.6562 15.295 20.1211 14.3688C20.586 13.4427 20.8282 12.4194 20.8282 11.3815C20.8282 10.3437 20.586 9.32042 20.1211 8.39425C19.6562 7.46807 18.9817 6.66496 18.1519 6.04972V5.35083C19.2659 6.04775 20.185 7.0195 20.8221 8.1741C21.4592 9.3287 21.7933 10.628 21.7927 11.9489C21.7894 13.2722 21.4538 14.5731 20.8173 15.7307C20.1807 16.8882 19.2638 17.8648 18.1519 18.5695V16.7134ZM4.36451 13.1137C4.36662 11.2958 4.88095 9.51577 5.8477 7.98061C6.81445 6.44546 8.19391 5.21821 9.82574 4.44153V4.97508C8.45352 5.68443 7.30209 6.76124 6.49812 8.08707C5.69414 9.4129 5.26876 10.9364 5.26876 12.49C5.26876 14.0436 5.69414 15.5671 6.49812 16.8929C7.30209 18.2187 8.45352 19.2955 9.82574 20.0049V21.7934C8.19053 21.0191 6.8083 19.7914 5.84105 18.2541C4.87381 16.7169 4.36162 14.9337 4.36451 13.1137ZM7.14735 11.3853C7.14699 12.4229 7.38929 13.4459 7.85462 14.3716C8.31996 15.2973 8.99523 16.0995 9.82574 16.7134V18.5695C8.70765 17.8703 7.78512 16.8953 7.14542 15.7368C6.50572 14.5783 6.16999 13.2746 6.16999 11.9489C6.16999 10.6233 6.50572 9.31954 7.14542 8.16103C7.78512 7.00253 8.70765 6.02754 9.82574 5.32829V6.07978C8.99509 6.69518 8.31983 7.4988 7.85455 8.42568C7.38926 9.35257 7.147 10.3767 7.14735 11.4154M9.82574 6.47806V15.4959C9.2001 14.926 8.70002 14.2302 8.35776 13.4536C8.0155 12.677 7.83867 11.8367 7.83867 10.987C7.83867 10.1373 8.0155 9.29703 8.35776 8.5204C8.70002 7.74377 9.2001 7.04803 9.82574 6.47806ZM18.1519 21.7934V20.0274C19.5219 19.3162 20.6711 18.2387 21.4733 16.9131C22.2756 15.5875 22.7 14.065 22.7 12.5125C22.7 10.96 22.2756 9.43753 21.4733 8.11194C20.6711 6.78634 19.5219 5.70886 18.1519 4.99763V4.45656C19.7726 5.23485 21.1414 6.45963 22.0997 7.98909C23.0579 9.51855 23.5665 11.2901 23.5665 13.0987C23.5665 14.9073 23.0579 16.6788 22.0997 18.2083C21.1414 19.7378 19.7726 20.9625 18.1519 21.7408" fill="#F2F2F2"/>
<mask id="mask0_216_325" style="mask-type:luminance" maskUnits="userSpaceOnUse" x="3" y="3" width="22" height="22">
<path d="M3.59606 13.7071C3.58426 15.0919 3.84398 16.4654 4.36034 17.7489C4.8767 19.0323 5.63953 20.2004 6.60508 21.1863C7.57063 22.1721 8.7199 22.9562 9.98697 23.4937C11.254 24.0311 12.614 24.3113 13.9888 24.3182C16.7905 24.3144 19.4779 23.1983 21.4681 21.2119C23.4582 19.2256 24.5909 16.5291 24.6203 13.7071C24.6203 10.8989 23.5128 8.20568 21.5414 6.21995C19.57 4.23422 16.8962 3.11865 14.1082 3.11865C11.3202 3.11865 8.64639 4.23422 6.67499 6.21995C4.70358 8.20568 3.59606 10.8989 3.59606 13.7071Z" fill="white"/>
</mask>
<g mask="url(#mask0_216_325)">
<path d="M12.9369 2.83301H9.8332V24.6187H12.9369V2.83301Z" fill="#F2F2F2"/>
<path d="M16.0032 2.83301H12.3475V24.6187H16.0032V2.83301Z" fill="#2D4899"/>
<path d="M18.1593 2.83301H15.2646V24.6187H18.1593V2.83301Z" fill="#D61217"/>
</g>
</g>
<defs>
<clipPath id="clip0_216_325">
<rect width="28" height="29" fill="white"/>
</clipPath>
</defs>
</svg>
