<svg width="157" height="160" viewBox="0 0 157 160" fill="none" xmlns="http://www.w3.org/2000/svg">
<path d="M82.706 160C112.429 160 136.525 157.524 136.525 154.47C136.525 151.415 112.429 148.939 82.706 148.939C52.9828 148.939 28.8874 151.415 28.8874 154.47C28.8874 157.524 52.9828 160 82.706 160Z" fill="#B7D9F4"/>
<path d="M113.081 15.9176C113.102 13.7442 112.386 11.6279 111.048 9.91513C109.71 8.20237 107.83 6.9947 105.716 6.4899C103.602 5.98509 101.379 6.21308 99.4113 7.13651C97.4438 8.05995 95.8481 9.6241 94.8856 11.5728C92.2882 10.0177 89.4042 9.00139 86.4057 8.58443C80.9306 7.81803 76.3047 9.20747 71.9213 11.8485C70.8405 10.0431 69.1958 8.64342 67.2408 7.8652C65.2858 7.08698 63.1291 6.97347 61.1032 7.54217C59.0774 8.11087 57.2948 9.3302 56.0305 11.0121C54.7661 12.6941 54.0901 14.7453 54.1067 16.8494C54.1619 21.6352 57.8285 25.368 62.1346 26.2226C59.5708 31.3503 59.4274 51.8004 56.9187 54.4524L61.0043 56.5641L58.1703 60.0377L61.8369 61.3831L60.3702 63.9579C68.6407 66.1634 84.2774 79.1039 84.2774 79.1039C84.2774 79.1039 98.5026 67.1834 107.165 63.9083L105.51 61.9565L108.719 60.3024L107.065 57.6503L110.412 55.1416C106.409 51.9382 107.545 27.9263 104.843 25.3128C109.155 24.5189 113.014 20.753 113.081 15.9176Z" fill="#9E5429"/>
<path d="M104.937 6.91405C102.905 6.51501 100.798 6.86757 99.0069 7.90614C97.2157 8.94471 95.8629 10.5986 95.2 12.56C95.3764 12.6758 95.5418 12.7916 95.7017 12.9074C96.5965 11.2733 98.0012 9.97659 99.7015 9.21501C101.402 8.45344 103.305 8.26875 105.12 8.6891C106.935 9.10944 108.562 10.1118 109.755 11.5433C110.947 12.9748 111.639 14.7569 111.724 16.6181C112.067 14.4369 111.551 12.2079 110.286 10.3987C109.02 8.58949 107.103 7.34061 104.937 6.91405Z" fill="#C87D36"/>
<path d="M55.022 16.7008C55.1716 15.6312 55.5304 14.6016 56.0781 13.6708C56.6257 12.74 57.3514 11.9262 58.2136 11.2759C59.0759 10.6256 60.0578 10.1516 61.1034 9.88094C62.1489 9.61028 63.2375 9.54828 64.307 9.69849C68.1279 10.2499 68.5304 10.6744 68.9053 14.352C69.3464 9.97969 68.6958 8.65641 64.307 8.03888C63.2375 7.88868 62.1489 7.95067 61.1034 8.22133C60.0578 8.49198 59.0759 8.96599 58.2136 9.61627C57.3514 10.2666 56.6257 11.0804 56.0781 12.0112C55.5304 12.942 55.1716 13.9716 55.022 15.0412C54.9285 15.6989 54.9174 16.3657 54.9889 17.0261C54.9999 16.9158 55.0054 16.8111 55.022 16.7008Z" fill="#C87D36"/>
<path d="M68.7677 15.0413C69.8114 14.079 70.9686 13.2476 72.2137 12.5657C69.9476 9.55525 65.4209 6.85356 61.3904 7.96181C60.6698 8.16634 59.9759 8.45504 59.3228 8.82194C62.7578 8.82194 67.0585 12.1963 68.7677 15.0413Z" fill="#713915"/>
<path d="M112.932 15.9176C112.947 14.2401 112.521 12.5882 111.697 11.1269C110.873 9.66553 109.68 8.44607 108.238 7.59039C106.795 6.73471 105.152 6.27279 103.475 6.25082C101.798 6.22885 100.144 6.6476 98.6791 7.46519C99.947 7.46003 101.203 7.7067 102.375 8.19087C103.547 8.67505 104.611 9.3871 105.506 10.2857C106.4 11.1843 107.107 12.2516 107.586 13.4257C108.065 14.5998 108.306 15.8572 108.295 17.1251C108.24 21.9606 103.967 24.4527 99.5999 25.2301C102.302 27.8436 101.166 51.8555 105.174 55.0589L101.822 57.5732L103.597 61.5099L108.218 60.3079L106.867 57.6338L110.214 55.1251C106.211 51.9162 107.347 27.9098 104.645 25.2963C109.023 24.5189 112.871 20.7531 112.932 15.9176Z" fill="#713915"/>
<path d="M60.3373 60.2578L63.4084 56.9111L59.0801 54.7056C61.5944 52.0535 61.7377 31.5979 64.3016 26.4758C59.9954 25.6487 58.2366 25.6487 62.5592 26.4758C59.9954 31.5979 59.8521 52.0535 57.3378 54.7056L61.666 56.9111L58.5949 60.2578H60.3373Z" fill="#C87D36"/>
<path d="M84.2829 80.2009L83.7315 79.7598C83.5772 79.6275 68.161 66.902 60.1442 64.7737L59.0911 64.498L60.6239 61.8019L56.7643 60.3904L59.681 56.8065L55.5238 54.6562L56.2901 53.8512C57.3929 52.6933 58.1207 46.0273 58.7051 40.6736C59.2896 35.3198 59.9071 29.7731 60.9657 26.7792C58.7873 26.1671 56.8624 24.8731 55.4732 23.087C54.084 21.3009 53.3037 19.1167 53.2466 16.8547C53.237 14.5667 53.9767 12.3385 55.3527 10.5106C56.7286 8.68261 58.6652 7.35535 60.8665 6.73161C62.938 6.13175 65.1451 6.19402 67.1795 6.90971C69.2139 7.62541 70.9739 8.95877 72.2135 10.7235C76.9939 7.99974 81.5867 7.05691 86.549 7.75163C89.3682 8.14654 92.0922 9.05078 94.5879 10.4202C95.7752 8.46998 97.5696 6.96313 99.6957 6.13084C101.822 5.29856 104.162 5.18681 106.358 5.81274C108.554 6.43867 110.484 7.76771 111.851 9.59597C113.219 11.4242 113.949 13.6507 113.93 15.9339C113.875 20.4661 110.588 24.5462 106.111 25.8584C106.944 27.926 107.313 32.0117 107.766 37.8782C108.317 44.5828 108.973 52.9359 110.892 54.4742L111.746 55.1359L108.151 57.832L109.899 60.5889L106.817 62.1933L108.582 64.2554L107.479 64.68C99.0484 67.8614 84.9721 79.6164 84.8343 79.7322L84.2829 80.2009ZM61.6163 63.467C69.3354 66.0749 81.5316 75.7955 84.2719 78.023C86.8633 75.8947 97.9457 66.9626 105.775 63.5773L104.193 61.7081L107.534 59.9658L105.929 57.4295L109.155 54.998C107.396 52.4728 106.79 46.485 106.111 38.005C105.714 33.0427 105.218 26.8509 104.231 25.875L103.057 24.7336L104.667 24.4469C108.94 23.6861 112.198 20.0085 112.248 15.8898C112.264 13.9111 111.608 11.9856 110.388 10.4275C109.169 8.86936 107.457 7.77063 105.532 7.31062C103.608 6.85061 101.584 7.05646 99.7919 7.8946C97.9994 8.73273 96.544 10.1536 95.6631 11.9255L95.2551 12.736L94.4776 12.2728C91.9775 10.7729 89.2 9.79394 86.3119 9.3947C81.493 8.71652 77.0656 9.72 72.379 12.543L71.6567 12.9786L71.2266 12.2563C70.2451 10.6032 68.7443 9.32127 66.9581 8.6102C65.172 7.89913 63.2008 7.79887 61.3517 8.32505C59.5038 8.85359 57.879 9.97117 56.7245 11.5078C55.5701 13.0445 54.949 14.9161 54.9558 16.8381C55.0175 18.8838 55.7793 20.8463 57.114 22.3978C58.4487 23.9493 60.2755 24.9957 62.289 25.3622L63.3917 25.5717L62.8955 26.5587C61.7156 28.924 61.0484 34.9835 60.4033 40.8445C59.6755 47.4609 59.1131 51.9766 58.1207 54.0773L62.3166 56.2441L59.5597 59.6019L63.0499 60.8866L61.6163 63.467Z" fill="#372420"/>
<path d="M89.1515 22.6063C90.0368 21.7165 91.1604 21.1016 92.3871 20.8355C93.6138 20.5694 94.8912 20.6635 96.0656 21.1065" fill="#372421"/>
<path d="M89.918 23.3394L88.3907 21.8231C89.4239 20.7801 90.7375 20.0593 92.1722 19.7481C93.607 19.4369 95.1012 19.5486 96.4737 20.0698L95.7073 22.0878C94.7247 21.7136 93.6547 21.6327 92.627 21.8549C91.5993 22.077 90.6582 22.5927 89.918 23.3394Z" fill="#372420"/>
<path d="M73.4817 22.0548C74.6826 21.6915 75.963 21.6836 77.1683 22.0319C78.3736 22.3802 79.4524 23.0698 80.2745 24.0176" fill="#372421"/>
<path d="M79.4584 24.7121C78.7743 23.9185 77.875 23.34 76.8691 23.0465C75.8633 22.753 74.794 22.757 73.7904 23.058L73.1674 20.9959C74.5681 20.5734 76.0611 20.5645 77.4667 20.9705C78.8723 21.3764 80.1307 22.1798 81.0905 23.2841L79.4584 24.7121Z" fill="#372420"/>
<path d="M93.8977 34.4969C95.7932 34.3251 97.1643 32.3616 96.9603 30.1113C96.7563 27.8611 95.0544 26.1762 93.159 26.3481C91.2636 26.5199 89.8924 28.4834 90.0964 30.7336C90.3004 32.9838 92.0023 34.6687 93.8977 34.4969Z" fill="white"/>
<path d="M93.419 26.3331C95.3212 26.3331 96.9147 28.1526 96.9753 30.4021C97.036 32.6517 95.5528 34.4988 93.6671 34.5043C91.7649 34.5043 90.177 32.6848 90.1108 30.4297C90.0447 28.1746 91.5389 26.3386 93.419 26.3331ZM93.419 25.1035C92.8389 25.109 92.2659 25.2326 91.7351 25.4667C91.2042 25.7009 90.7266 26.0407 90.3314 26.4654C89.83 27.0036 89.4407 27.6361 89.186 28.3261C88.9314 29.0162 88.8166 29.75 88.8482 30.4848C88.9364 33.385 91.0812 35.7504 93.6341 35.7504C94.2128 35.7454 94.7845 35.6237 95.315 35.3925C95.8456 35.1614 96.324 34.8255 96.7217 34.405C97.2226 33.8665 97.6116 33.2339 97.8662 32.544C98.1208 31.854 98.2359 31.1204 98.2049 30.3856C98.1222 27.4799 95.9994 25.1201 93.419 25.1201V25.1035Z" fill="#372420"/>
<path d="M95.0606 33.1702C96.3061 33.0829 97.2258 31.7292 97.1148 30.1466C97.0039 28.564 95.9043 27.3518 94.6589 27.4391C93.4134 27.5264 92.4937 28.8801 92.6047 30.4627C92.7156 32.0454 93.8152 33.2575 95.0606 33.1702Z" fill="#372421"/>
<path d="M94.0941 28.7259C94.414 28.5992 94.567 28.2279 94.4358 27.8967C94.3045 27.5655 93.9388 27.3997 93.6189 27.5264C93.299 27.6531 93.146 28.0244 93.2773 28.3556C93.4085 28.6868 93.7742 28.8526 94.0941 28.7259Z" fill="white"/>
<path d="M76.5015 34.4959C78.3969 34.3241 79.7681 32.3606 79.5641 30.1104C79.3601 27.8601 77.6582 26.1752 75.7628 26.3471C73.8673 26.5189 72.4962 28.4824 72.7002 30.7326C72.9042 32.9829 74.6061 34.6677 76.5015 34.4959Z" fill="white"/>
<path d="M76.0289 26.3331C77.9256 26.3331 79.5191 28.1526 79.5852 30.4021C79.6514 32.6517 78.1572 34.4988 76.2495 34.5043C74.3528 34.5043 72.7593 32.6848 72.6932 30.4297C72.627 28.1746 74.1212 26.3386 76.0289 26.3331ZM76.0289 25.1035C75.448 25.1092 74.8743 25.2329 74.3426 25.467C73.8109 25.7011 73.3323 26.0408 72.9358 26.4654C72.4364 27.0047 72.0487 27.6375 71.7951 28.3274C71.5415 29.0172 71.427 29.7505 71.4581 30.4848C71.5408 33.385 73.6636 35.7504 76.2385 35.7504C76.8179 35.7449 77.3903 35.623 77.9217 35.3918C78.453 35.1607 78.9325 34.8251 79.3316 34.405C79.8307 33.8655 80.2182 33.2327 80.4718 32.5429C80.7254 31.8531 80.8401 31.1199 80.8093 30.3856C80.7266 27.4799 78.6038 25.1201 76.0289 25.1201V25.1035Z" fill="#372420"/>
<path d="M77.7845 33.1707C79.0299 33.0834 79.9496 31.7297 79.8387 30.1471C79.7277 28.5645 78.6282 27.3523 77.3827 27.4396C76.1373 27.5269 75.2176 28.8806 75.3286 30.4632C75.4395 32.0458 76.5391 33.258 77.7845 33.1707Z" fill="#372421"/>
<path d="M76.8156 28.7259C77.1355 28.5992 77.2885 28.2279 77.1573 27.8967C77.026 27.5655 76.6603 27.3997 76.3404 27.5264C76.0205 27.6531 75.8675 28.0244 75.9988 28.3556C76.13 28.6868 76.4957 28.8526 76.8156 28.7259Z" fill="white"/>
<path d="M87.3486 59.9938C86.2734 61.3722 82.3036 62.9491 78.9403 62.7506C71.7725 62.293 69.3961 55.4726 69.3961 55.4726C65.1782 54.8771 61.677 51.9273 61.2084 46.7666C60.7949 42.4108 62.8625 38.4961 67.2734 37.5478C72.5444 37.1232 72.5996 38.8214 79.6129 35.3919C85.0825 32.7178 93.3088 34.5428 95.2662 36.5718C100.614 37.2004 103.68 39.0034 104.876 44.4564C105.477 47.2132 105.615 48.5971 104.606 50.8026C104.35 50.2766 104.018 49.7916 103.619 49.3635C102.649 54.9984 97.615 57.8214 94.1579 58.3066L87.3486 59.9938Z" fill="#E9BC6D"/>
<path d="M104.86 44.4401C104.082 40.8893 101.237 38.4688 98.7617 37.333C99.3706 38.2001 99.8741 39.1367 100.261 40.1229C101.364 42.8797 101.75 44.2526 101.099 46.7007C100.746 46.2028 100.318 45.7621 99.8314 45.394C99.8314 51.3542 95.9718 56.8348 92.5203 57.9375C92.5203 57.9375 86.7199 60.8046 87.3485 59.9941L94.1413 58.2904C97.5983 57.8052 102.632 54.9822 103.603 49.3472C104.001 49.7753 104.334 50.2603 104.59 50.7863C105.599 48.5808 105.461 47.1914 104.86 44.4401Z" fill="#C87D36"/>
<path d="M79.5688 63.5945C79.3372 63.5945 79.1111 63.5945 78.8851 63.5945C72.3018 63.17 69.5119 57.8769 68.7951 56.2338C64.0479 55.3627 60.8389 51.8229 60.3703 46.8606C59.8906 41.7716 62.5757 37.708 67.0804 36.7431H67.1906C68.4752 36.6439 69.7656 36.6439 71.0502 36.7431C73.1729 36.8699 74.5734 36.9581 79.249 34.6755C84.6248 32.0455 93.0055 33.5011 95.6465 35.7782C100.714 36.4178 104.358 38.1491 105.698 44.2803C106.321 47.1143 106.492 48.6912 105.373 51.1613L104.656 52.7272L103.961 51.3873C102.34 55.9802 98.0395 58.5992 94.3233 59.1064L87.8282 60.7605C86.4443 62.172 82.8439 63.5945 79.5688 63.5945ZM67.3836 38.3641C63.7336 39.1746 61.6384 42.4277 62.0409 46.6677C62.4544 51.0786 65.2498 54.0229 69.5174 54.6294L70.0191 54.701L70.1901 55.1807C70.2783 55.4399 72.4837 61.4828 79.0119 61.8963C82.1712 62.0948 85.8598 60.5676 86.731 59.4759L86.9129 59.2498L94.0807 57.4579C97.0966 57.0333 101.921 54.486 102.831 49.1874L103.084 47.6877L104.193 48.7243L104.386 48.9228C104.667 47.6712 104.485 46.5243 104.066 44.6166C103.04 39.93 100.714 38.0388 95.1779 37.3882L94.8801 37.3551L94.6706 37.1401C93.1158 35.5246 85.2699 33.5452 79.9878 36.1311C74.9208 38.6067 73.2612 38.5075 70.9509 38.3696C69.7638 38.2735 68.571 38.2717 67.3836 38.3641Z" fill="#372420"/>
<path d="M90.7119 50.0087C93.6176 49.11 95.7569 46.7447 95.619 42.9844C95.5973 42.0202 95.3459 41.0751 94.8857 40.2275C94.6983 42.7914 92.8788 45.5096 90.9931 47.081C89.4548 48.3602 87.2107 48.9832 85.0439 49.0218C85.0932 49.1681 85.1503 49.3116 85.2148 49.4519C86.3451 50.0087 87.536 50.5656 90.7119 50.0087Z" fill="#C87D36"/>
<path d="M81.9178 36.1588C85.7387 34.637 90.5742 35.3372 93.6067 37.9507C94.1803 38.4109 94.6364 39.0008 94.9374 39.6718C95.2384 40.3429 95.3757 41.0758 95.338 41.8103C95.1229 46.166 90.4419 49.8988 85.6505 49.6065C81.3002 49.3419 77.4131 45.8132 77.2201 41.8103C77.0713 38.8053 79.4256 37.2119 81.8737 36.1643L81.9178 36.1588Z" fill="#372421"/>
<path d="M76.1447 55.6874C75.2929 55.7046 74.4512 55.5002 73.7022 55.0943C72.9531 54.6883 72.3223 54.0948 71.8717 53.3717C70.3444 50.9071 70.8847 47.031 74.441 44.7925L75.632 45.5423C75.3838 47.7478 76.6961 50.444 78.7527 51.9712C80.1587 53.0188 82.4964 53.9782 85.6447 52.6329L86.2568 54.0609C84.353 54.9368 82.1923 55.0763 80.1917 54.4524C78.9783 55.2203 77.5802 55.647 76.1447 55.6874ZM74.1047 47.031C72.3569 48.7733 72.2576 51.0394 73.1949 52.5447C73.9889 53.8238 75.7863 54.7501 78.3943 53.6143C78.2013 53.493 78.0139 53.3607 77.8429 53.2228C75.8395 51.7304 74.4982 49.5146 74.1047 47.0476V47.031Z" fill="#372420"/>
<path d="M71.9655 46.6895L71.4692 45.2118L71.6512 45.1511C73.4542 44.5391 74.5403 44.1752 76.0621 44.1587V45.7135C74.7664 45.7135 73.8236 46.0499 72.1088 46.6233L71.9655 46.6895Z" fill="#372420"/>
<path d="M86.2789 36.6819C85.6408 36.5819 84.9939 36.5505 84.3491 36.5882C81.0685 36.9245 78.3999 39.2017 78.3999 41.9971C78.4029 42.3684 78.4473 42.7383 78.5322 43.0998C79.4365 39.6979 82.1657 37.6634 86.2789 36.6819Z" fill="white"/>
<path d="M86.301 9.41784C87.3845 9.56963 88.4553 9.80184 89.5044 10.1126L90.2432 10.0574L90.0778 3.99241C88.3149 5.21473 86.8627 6.83302 85.8378 8.7176L84.6689 1.43408C82.1713 3.2205 80.6936 6.44047 79.442 9.39027L78.0029 5.42045C78.0029 5.42045 75.6707 8.72863 75.5328 10.9341C78.9046 9.41348 82.6404 8.88743 86.301 9.41784Z" fill="#9E5429"/>
<path d="M85.6062 9.33513L84.6689 1.43408C83.9862 1.82717 83.3468 2.29104 82.7612 2.81801L83.8639 9.21934C84.4263 9.23037 85.0107 9.26897 85.6062 9.33513Z" fill="#713915"/>
<path d="M90.2377 10.3495L90.0778 4.00879C89.4566 4.44778 88.8602 4.92084 88.2914 5.4258L88.4017 9.83671C89.0247 9.96352 89.6367 10.1455 90.2377 10.3495Z" fill="#713915"/>
<path d="M79.0064 9.74862C79.1057 9.5391 79.1994 9.32407 79.3042 9.11455L78.0029 5.42041C77.5489 6.0866 77.1311 6.77681 76.7513 7.48803L77.6776 10.118C78.1187 9.98019 78.5653 9.85338 79.0064 9.74862Z" fill="#713915"/>
<path d="M74.9704 11.1762L75.3839 10.9942L75.7037 10.8508L76.4095 10.5697C76.7041 9.40171 77.1764 8.28597 77.8099 7.26147L78.7307 9.80877L79.5081 9.62131H79.5357C79.7893 9.56617 80.043 9.51655 80.3021 9.47244C81.3221 7.074 82.4634 4.65351 84.0955 2.99942L85.1045 9.27395L85.6228 9.32357C85.8488 9.32357 86.0804 9.37319 86.3064 9.40627H86.4112L86.5766 9.08097C87.2763 7.78087 88.2111 6.62179 89.3334 5.66251L89.4272 10.0734C89.9785 10.2388 90.5299 10.4263 91.0813 10.6248L90.8883 2.40946L89.6257 3.33024C88.3823 4.21695 87.2688 5.2729 86.3175 6.4675L85.2699 0L84.1672 0.766396C82.0609 2.27162 80.655 4.66454 79.4861 7.18979L78.2124 3.65554L77.3302 4.96228C77.0601 5.35375 74.6616 8.82183 74.7002 11.1982L74.9704 11.1762Z" fill="#372420"/>
<path d="M99.2305 16.0504L97.615 15.8243C97.8521 14.1426 98.8114 11.9648 100.807 10.8179C101.965 10.1673 103.923 9.638 106.685 10.8179L106.04 12.3176C103.581 12.5823 101.331 13.9056 99.2305 16.0504Z" fill="#372420"/>
<path d="M60.023 13.2331L59.0746 11.9098C60.4531 10.9174 62.7136 10.0958 64.9026 10.7685C66.1707 11.1544 67.9075 12.2076 68.9496 15.025L67.4223 15.5764C65.5256 13.9719 63.0114 13.2331 60.023 13.2331Z" fill="#372420"/>
<path d="M74.1049 47.0479C72.357 48.7902 72.2578 51.0563 73.1951 52.5615C73.9891 53.8407 75.7865 54.7669 78.3945 53.6311C78.2015 53.5098 78.014 53.3775 77.8431 53.2397C75.8361 51.7433 74.4943 49.5209 74.1049 47.0479Z" fill="#C87D36"/>
<path d="M131.656 58.2626C128.745 59.9167 126.06 61.4495 125.111 62.078C122.537 61.1517 117.089 59.9442 113.571 62.5301C112.43 69.5049 110.936 74.9799 113.571 82.4178C116.455 84.2429 127.852 82.4178 127.852 82.4178L127.14 80.7252L130.884 80.1738L130.129 78.9222C134.54 75.8787 138.035 72.9454 140.114 67.8122C145.038 67.7791 146.968 66.6543 148.936 65.4744C150.237 64.686 155.028 66.0258 155.552 62.8003C156.037 59.856 148.997 59.0621 148.997 59.0621L148.782 58.7423C150.706 58.3012 154.168 56.0737 154.565 55.1198C155.117 53.7524 154.565 51.7454 152.911 51.3705C151.362 51.0176 148.026 52.4732 146.378 53.3885L146.311 53.0742C146.311 53.0742 150.254 48.9335 149.123 46.9651C148.346 45.6143 145.87 45.6915 144.349 46.7997C141.73 48.7129 137.423 53.4161 137.423 53.4161C136.696 51.2106 136.166 49.3856 135.124 48.6799C131.948 46.5351 129.826 49.8157 129.826 49.8212C130.653 51.7565 131.579 54.0612 131.728 56.1784C131.882 58.4611 131.871 60.3964 134.049 61.8409" fill="#9E5429"/>
<path d="M135.62 50.7533C136.662 51.4591 137.186 53.2951 137.92 55.4896C137.92 55.4896 142.226 50.7864 144.845 48.8732C146.107 47.9524 148.026 47.7705 149.085 48.4762C149.244 47.9791 149.205 47.4396 148.974 46.971C148.192 45.6201 145.721 45.6973 144.2 46.8056C141.581 48.7188 137.275 53.4219 137.275 53.4219C136.541 51.2165 136.017 49.3915 134.975 48.6857C131.799 46.5409 129.671 49.827 129.671 49.827C129.93 50.428 130.223 51.0621 130.443 51.7182C130.934 51.0731 132.864 48.9118 135.62 50.7533Z" fill="#C87D36"/>
<path d="M114.046 64.8401C117.563 62.2542 123.011 63.4616 125.58 64.3879C126.534 63.7594 129.219 62.2156 132.125 60.5725L131.48 58.5049C128.569 60.159 125.889 61.6918 124.935 62.3203C122.366 61.394 116.918 60.1865 113.401 62.7724C112.259 69.7472 113.015 71.1532 114.046 64.8401Z" fill="#C87D36"/>
<path d="M153.606 59.9775C153.606 60.0658 153.573 60.584 153.606 60.6833C153.975 64.4105 148.175 62.6682 146.146 64.201C144.327 65.5739 141.84 65.2431 136.916 65.2706C134.838 70.4038 131.37 73.3371 126.931 76.3806L127.686 77.6377L123.943 78.1891L124.229 79.0327C124.229 79.0327 117.767 80.0693 113.345 79.7991C113.527 80.5159 113.345 81.6737 113.599 82.4236C116.483 84.2486 127.879 82.4236 127.879 82.4236L127.168 80.7309L130.912 80.1795L130.157 78.9279C134.567 75.8844 138.063 72.9511 140.142 67.8179C145.065 67.7849 146.995 66.6601 148.964 65.4802C150.265 64.6917 155.029 66.0315 155.58 62.806C155.828 61.0582 155.574 60.4903 153.606 59.9775Z" fill="#713915"/>
<path d="M118.688 84.1267C116.367 84.1267 114.228 83.8952 113.097 83.1784L112.833 83.013L112.728 82.7208C110.329 75.9555 111.228 70.8003 112.265 64.84C112.408 64.0405 112.551 63.2245 112.684 62.3864L112.744 62.0225L113.042 61.8075C117.062 58.8467 123.033 60.4456 124.99 61.0907C126.247 60.3023 128.817 58.8357 130.939 57.6337C130.939 57.3139 130.89 56.9886 130.868 56.6688V56.2498C130.73 54.2814 129.848 52.0814 129.037 50.1847L128.966 50.0193V49.8374C128.966 49.1702 130.223 48.0234 131.066 47.5768C131.783 47.1995 132.594 47.0358 133.401 47.1052C134.208 47.1746 134.978 47.4741 135.621 47.9683C136.657 48.6685 137.214 50.0138 137.793 51.7341C139.254 50.2013 141.923 47.4831 143.814 46.1047C144.397 45.6872 145.058 45.391 145.758 45.2338C146.458 45.0766 147.183 45.0615 147.888 45.1894C148.301 45.2605 148.693 45.4188 149.039 45.6536C149.385 45.8885 149.677 46.1945 149.895 46.5513C150.678 47.9131 149.895 49.7712 148.908 51.2654C150.342 50.7141 151.985 50.273 153.11 50.5266C153.562 50.6294 153.986 50.831 154.351 51.117C154.716 51.403 155.013 51.7662 155.222 52.1807C155.48 52.69 155.626 53.2484 155.652 53.8188C155.678 54.3891 155.582 54.9584 155.37 55.4889C155.001 56.3766 153.198 57.6943 151.439 58.6261C153.027 59.0231 154.973 59.7289 155.889 60.9308C156.111 61.2159 156.272 61.5437 156.362 61.8937C156.452 62.2437 156.469 62.6085 156.412 62.9654C155.938 65.8655 152.994 65.9868 151.042 66.0696C150.484 66.0532 149.927 66.1182 149.388 66.2625C147.574 67.3653 145.529 68.6003 140.715 68.7216C138.73 73.2759 135.626 76.1871 131.342 79.1975L132.362 80.8902L128.431 81.4416L129.137 83.0957L128.034 83.2776C124.942 83.7787 121.819 84.0625 118.688 84.1267ZM114.31 81.7945C116.35 82.7152 122.415 82.2852 126.578 81.7007L125.867 80.0025L129.423 79.4842L128.932 78.6627L129.627 78.183C134.297 74.9796 137.374 72.2007 139.287 67.481L139.513 66.9297H140.114C144.861 66.9021 146.609 65.827 148.462 64.7242C149.079 64.3493 149.962 64.3162 150.987 64.2721C153.358 64.1729 154.45 63.9192 154.654 62.6787C154.673 62.5618 154.667 62.442 154.636 62.3278C154.604 62.2135 154.548 62.1075 154.472 62.017C153.623 60.9143 150.612 60.17 148.881 59.977L148.462 59.9329L147.309 58.174L148.572 57.8873C150.375 57.4738 153.424 55.3841 153.733 54.7886C153.839 54.502 153.885 54.197 153.87 53.8919C153.855 53.5868 153.778 53.288 153.645 53.0132C153.558 52.8235 153.429 52.6563 153.267 52.5243C153.106 52.3924 152.916 52.2994 152.713 52.2524C151.671 52.0153 148.892 53.0463 146.808 54.1821L145.744 54.7666L145.341 52.7982L145.661 52.4564C147.116 50.9236 148.859 48.3211 148.346 47.4224C148.249 47.287 148.126 47.1726 147.984 47.0864C147.842 47.0001 147.684 46.9437 147.519 46.9207C146.592 46.7692 145.643 46.9891 144.878 47.5327C142.364 49.3687 138.129 53.9836 138.085 54.0278L137.065 55.136L136.398 53.1235C135.847 51.4694 135.334 49.8815 134.634 49.4073C134.346 49.1796 134.014 49.0132 133.66 48.9184C133.305 48.8236 132.935 48.8023 132.572 48.856C131.907 49.0255 131.312 49.3974 130.868 49.9201C131.678 51.8444 132.489 54.0112 132.632 56.0788V56.5034C132.77 58.5765 132.858 59.9439 134.529 61.0521L133.531 62.5518C132.411 61.8444 131.593 60.746 131.237 59.4697C128.315 61.1238 126.319 62.2927 125.58 62.7779L125.2 63.026L124.775 62.8772C121.715 61.7744 117.222 61.1679 114.371 63.004C114.25 63.7152 114.128 64.4155 114.007 65.0992C113.059 70.7617 112.21 75.6302 114.31 81.7945Z" fill="#372420"/>
<path d="M147.453 61.4883C147.453 59.0072 145.126 54.8113 143.251 53.1131L144.442 51.7788C146.648 53.7692 149.206 58.4338 149.234 61.4718L147.453 61.4883Z" fill="#372420"/>
<path d="M144.239 62.8941C145.93 61.9253 146.308 59.4071 145.084 57.2696C143.859 55.1321 141.495 54.1847 139.804 55.1535C138.113 56.1223 137.735 58.6405 138.96 60.778C140.185 62.9155 142.548 63.863 144.239 62.8941Z" fill="#C87D36"/>
<path d="M27.3711 83.4047C27.3711 83.4047 31.6773 87.5399 37.9793 87.4131L37.654 89.3208L41.3041 88.0913L40.67 90.2692C44.5296 90.1203 55.3473 88.3946 54.9669 86.6578V86.3655L51.372 68.1099L43.8238 72.1955C38.4866 71.1853 33.0284 70.979 27.6302 71.5835L27.3711 83.4047Z" fill="#9E5429"/>
<path d="M41.7782 89.8726L40.7141 90.2365C41.0063 90.2365 41.3372 90.2034 41.6955 90.1758L41.7782 89.8726Z" fill="#C87D36"/>
<path d="M37.6652 89.2217V89.3044L37.8803 89.2327L37.6652 89.2217Z" fill="#C87D36"/>
<path d="M28.1044 73.3974C33.5044 72.7932 38.9644 72.9995 44.3035 74.0095L51.7414 69.9845L51.372 68.1099L43.8238 72.1955C38.4866 71.1857 33.0284 70.9794 27.6302 71.5835L27.3711 83.4047C27.3711 83.4047 27.5475 83.5756 27.8783 83.8403L28.1044 73.3974Z" fill="#C87D36"/>
<path d="M54.57 86.6578V86.3656L53.8201 82.5667C53.2688 84.2208 47.4133 86.6468 43.6971 86.7901L44.3256 84.5847L40.6811 85.8142L41.0064 83.9286C36.1048 84.932 30.0674 82.3296 27.0514 79.7603L26.9687 83.3993C29.9046 85.9764 33.6759 87.4007 37.5825 87.4077L37.2406 89.3209L40.8851 88.0914L40.2345 90.2693C44.1382 90.1204 54.9339 88.3946 54.57 86.6578Z" fill="#713915"/>
<path d="M39.5563 91.119L40.0691 89.3601L36.6065 90.529L37.0035 88.2298C33.2246 88.0004 29.6315 86.5115 26.7978 84.0009L26.5386 83.7473L26.8198 70.8508L27.5311 70.7626C32.9175 70.149 38.365 70.3348 43.6971 71.314L51.9676 66.8369L55.794 86.3332V86.5647C55.8135 86.7425 55.7972 86.9224 55.7461 87.0938C55.6949 87.2652 55.61 87.4246 55.4963 87.5627C53.8808 89.6468 43.256 90.9701 40.7032 91.0694L39.5563 91.119ZM42.5337 86.7908L41.7894 89.3601C46.3271 89.0073 53.2136 87.6013 54.1454 86.6033V86.4159L50.7821 69.3511L43.9507 73.0508L43.6475 72.9846C38.6338 72.0449 33.5127 71.8166 28.4353 72.3064L28.2038 83.025C29.1962 83.8575 32.9455 86.675 37.9629 86.5758H38.9609L38.7017 88.0865L42.5337 86.7908Z" fill="#372420"/>
<path d="M34.7209 46.1656C35.989 36.5498 31.3741 26.7024 21.7638 24.4253C21.0636 24.2874 20.3579 24.1772 19.6576 24.1C16.5533 23.6774 13.3934 24.1839 10.5767 25.5556C9.93157 25.8478 9.30301 26.1731 8.67997 26.526C0.260638 31.7198 -1.11777 42.5652 3.21595 51.2436C7.39529 59.5968 11.7952 59.3652 16.162 63.6769C20.5288 67.9885 20.1483 81.0173 20.1483 81.0173C20.1483 81.0173 19.6356 84.2593 21.003 85.0092C21.7087 85.3896 24.6916 85.3345 25.2871 85.2132C25.5848 85.1635 26.1086 85.0257 26.1086 85.0257C26.9869 84.837 27.7994 84.4184 28.4629 83.8127C29.5215 82.6769 28.0108 79.7602 28.0108 79.7602C28.0108 79.7602 23.9914 67.4427 26.7813 61.9732C29.5712 56.5036 33.5079 55.2631 34.7209 46.1656Z" fill="#D22514"/>
<path d="M34.7209 46.1656C35.989 36.5498 31.3741 26.7024 21.7638 24.4253C21.0636 24.2874 20.3579 24.1772 19.6576 24.1C16.5533 23.6774 13.3934 24.1839 10.5767 25.5556C9.93157 25.8478 9.30301 26.1731 8.67997 26.526C0.260638 31.7198 -1.11777 42.5652 3.21595 51.2436C7.39529 59.5968 11.7952 59.3652 16.162 63.6769C20.5288 67.9885 20.1483 81.0173 20.1483 81.0173C20.1483 81.0173 19.6356 84.2593 21.003 85.0092C21.7087 85.3896 24.6916 85.3345 25.2871 85.2132C25.5848 85.1635 26.1086 85.0257 26.1086 85.0257C26.9869 84.837 27.7994 84.4184 28.4629 83.8127C29.5215 82.6769 28.0108 79.7602 28.0108 79.7602C28.0108 79.7602 23.9914 67.4427 26.7813 61.9732C29.5712 56.5036 33.5079 55.2631 34.7209 46.1656Z" fill="#D22514"/>
<path d="M20.6941 84.7555C20.5419 83.8771 20.5289 82.9803 20.6555 82.0979C20.6555 82.0979 20.9367 72.0851 18.0806 66.7148C20.4019 72.2285 20.1482 81.0172 20.1482 81.0172C20.1482 81.0172 19.7237 83.7189 20.6941 84.7555Z" fill="#E77F6E"/>
<path d="M9.05483 28.1197C9.67236 27.7668 10.3064 27.4415 10.946 27.1493C12.1645 26.5364 13.4641 26.1002 14.8056 25.8536C16.5214 25.5114 18.2823 25.4573 20.016 25.6937C20.7162 25.7708 21.4164 25.8811 22.1222 26.019C24.4708 26.5734 26.6668 27.6432 28.5511 29.1508C30.4354 30.6585 31.9609 32.5662 33.0171 34.736C30.9495 29.9722 27.101 26.223 21.6315 24.9217C20.9257 24.7839 20.2255 24.6736 19.5197 24.5964C16.4227 24.1863 13.2734 24.6923 10.4608 26.052C9.82123 26.3443 9.18716 26.6696 8.56412 27.028C0.139273 32.2163 -1.24465 43.0671 3.09459 51.7401C3.10411 51.7657 3.11709 51.7898 3.13318 51.8118C-0.621609 43.3208 0.971833 33.0819 9.05483 28.1197Z" fill="#E77F6E"/>
<path d="M34.2797 46.1653C35.5423 36.5495 30.9329 26.7022 21.3171 24.425C20.6169 24.2872 19.9111 24.1769 19.2109 24.0997C17.4793 23.8643 15.7207 23.9165 14.006 24.2541C13.4631 24.3582 12.9272 24.4963 12.4016 24.6676C13.9613 24.4158 15.5495 24.3935 17.1157 24.6015C17.8159 24.6732 18.5217 24.7834 19.2219 24.9268C28.8322 27.2039 33.4471 37.0568 32.179 46.6671C30.9825 55.7646 27.0403 57.0107 24.2559 62.4747C21.4715 67.9387 25.4854 80.2617 25.4854 80.2617C25.4854 80.2617 26.9962 83.1729 25.9375 84.3142C25.4962 84.746 24.9627 85.0721 24.3772 85.2681C24.5399 85.2592 24.7019 85.2408 24.8624 85.213C25.1546 85.1633 25.6784 85.0255 25.6784 85.0255C26.5567 84.8368 27.3692 84.4182 28.0327 83.8125C29.0913 82.6767 27.5861 79.76 27.5861 79.76C27.5861 79.76 23.5612 67.4425 26.3511 61.973C29.141 56.5034 33.0667 55.2629 34.2797 46.1653Z" fill="#A8210C"/>
<path d="M23.5557 86.1282C22.453 86.1282 21.1738 86.04 20.6059 85.7312C18.8691 84.7773 19.2165 81.6952 19.3267 80.9453C19.3267 80.0797 19.5142 68.1427 15.583 64.2611C14.2579 63.0141 12.7946 61.9227 11.2217 61.008C8.32151 59.1885 5.32209 57.3028 2.47705 51.6348C0.233578 47.2566 -0.513957 42.264 0.34878 37.4206C0.780626 35.0418 1.70765 32.7803 3.06973 30.7827C4.43182 28.7852 6.19854 27.0963 8.25534 25.8255C8.93903 25.4395 9.60067 25.0977 10.2458 24.8054C11.5364 24.1747 12.9046 23.7168 14.3148 23.4436C16.1113 23.0911 17.9533 23.0352 19.7678 23.2782C20.4625 23.3553 21.1959 23.4711 21.9347 23.6145C32.5099 26.1232 36.7829 36.9079 35.5534 46.2756C34.7263 52.5556 32.5705 55.3069 30.4919 57.97C29.3637 59.3262 28.3754 60.7929 27.5421 62.3478C25.0389 67.2605 28.5125 78.5249 28.8047 79.4401C29.1576 80.1404 30.4588 82.9303 29.0914 84.3693C28.3258 85.0994 27.3706 85.5999 26.3346 85.8139C26.2794 85.8139 25.7832 85.9683 25.4414 86.0234C24.8159 86.1011 24.1859 86.1361 23.5557 86.1282ZM17.4025 24.8109C16.4634 24.8064 15.5264 24.9006 14.6071 25.0921C13.327 25.3406 12.085 25.7559 10.9129 26.3272C10.3009 26.6084 9.68338 26.9227 9.07136 27.27C0.580354 32.4859 0.0620711 43.1052 3.94919 50.8739C6.60125 56.1505 9.26985 57.8322 12.1149 59.6131C13.7924 60.5883 15.3504 61.7559 16.7574 63.0922C21.3116 67.6023 20.9919 80.4987 20.9753 81.0501V81.1549C20.8044 82.2576 20.8595 83.9889 21.4109 84.2866C21.9623 84.5843 24.5647 84.5237 25.1381 84.4134C25.3697 84.3693 25.7667 84.2701 25.899 84.2315C26.627 84.0872 27.303 83.7502 27.8563 83.2556C28.2809 82.8034 27.7847 81.1273 27.305 80.1459L27.2498 80.0246C27.0844 79.5063 23.1587 67.3101 26.0644 61.6035C26.9461 59.9534 27.9916 58.3962 29.1851 56.9555C31.2197 54.3586 33.1439 51.8995 33.9103 46.066C35.0461 37.4317 31.1535 27.5071 21.5818 25.2355C20.9147 25.1032 20.231 24.9929 19.5748 24.9267C18.8539 24.8427 18.1283 24.804 17.4025 24.8109Z" fill="#372420"/>
<path d="M26.7813 61.9735C27.2638 61.0343 27.8167 60.133 28.4354 59.2773C27.884 59.2773 17.7444 60.4462 13.5485 61.5379C14.4608 62.1992 15.3335 62.9135 16.162 63.6772C20.5288 67.9889 20.1484 81.0176 20.1484 81.0176C20.1484 81.0176 19.6356 84.2596 21.003 85.0095C21.7087 85.3899 24.6916 85.3348 25.2871 85.2135C25.5848 85.1639 26.1086 85.0261 26.1086 85.0261C26.9869 84.8373 27.7994 84.4187 28.4629 83.813C29.5215 82.6772 28.0108 79.7605 28.0108 79.7605C28.0108 79.7605 23.9914 67.443 26.7813 61.9735Z" fill="#E9BC6D"/>
<path d="M23.8038 83.0968C26.0093 82.4737 27.6634 81.2111 27.5862 78.6142C27.5652 77.9491 27.3755 77.3002 27.0348 76.7285C26.8915 78.4929 25.0113 79.8933 23.5833 80.974C22.4144 81.8562 21.4219 81.7073 19.7789 81.7349C19.8175 81.8452 19.6576 82.9865 19.7017 83.0857C20.5563 83.4607 21.3944 83.4772 23.8038 83.0968Z" fill="#C87D36"/>
<path d="M23.5558 86.1289C22.4531 86.1289 21.1739 86.0407 20.606 85.7319C18.8692 84.7781 19.2166 81.696 19.3269 80.9461C19.3269 80.0805 19.5143 68.1434 15.5831 64.2618C14.7841 63.5276 13.9427 62.8409 13.0634 62.2052L11.6629 61.2017L13.317 60.7607C17.579 59.6579 27.6966 58.5111 28.3692 58.478L30.084 58.3843L29.086 59.7792C28.4877 60.5999 27.955 61.4664 27.4926 62.3706C24.9894 67.2833 28.463 78.5477 28.7552 79.4629C29.1081 80.1632 30.4093 82.9531 29.0419 84.3921C28.2763 85.1222 27.3211 85.6227 26.2851 85.8367C26.2299 85.8367 25.7337 85.9911 25.3919 86.0462C24.7824 86.1143 24.169 86.1419 23.5558 86.1289ZM15.4232 61.9571C15.9139 62.3541 16.3881 62.7566 16.7244 63.0929C21.3118 67.6031 20.992 80.4995 20.9754 81.0509V81.1556C20.8045 82.2584 20.8597 83.9896 21.411 84.2874C21.9624 84.5851 24.5648 84.5245 25.1382 84.4142C25.3698 84.3701 25.7668 84.2708 25.8991 84.2322C26.6272 84.088 27.3031 83.7509 27.8565 83.2563C28.2865 82.7987 27.7903 81.1281 27.3051 80.1466L27.25 80.0253C27.0846 79.507 23.1588 67.3109 26.0645 61.6042C26.2961 61.1576 26.5387 60.7221 26.8034 60.2865C24.0962 60.5952 18.8747 61.2624 15.4232 61.9571Z" fill="#372420"/>
<path d="M15.5665 76.949C15.5665 76.949 15.0151 83.5102 21.4716 81.7845C28.325 79.9484 26.3181 77.3294 25.6013 76.0889" fill="#9E5429"/>
<path d="M19.4811 82.8982C18.4015 82.9369 17.3442 82.5845 16.5038 81.9057C14.4802 80.2075 14.7339 77.0151 14.7449 76.8773L16.399 77.0206C16.399 77.0206 16.2115 79.5073 17.5789 80.6486C18.3784 81.3158 19.619 81.4315 21.2675 80.9904C24.5096 80.1248 25.3366 79.1599 25.5351 78.6637C25.7832 78.0627 25.4469 77.4286 25.0223 76.7174L24.8955 76.5023L26.3236 75.6753L26.4393 75.8683C26.8859 76.6181 27.6358 77.8752 27.0679 79.2812C26.5 80.6872 24.7356 81.7734 21.6921 82.5894C20.9715 82.7872 20.2283 82.891 19.4811 82.8982Z" fill="#372420"/>
<path d="M14.9104 72.0914C14.9104 72.0914 12.6332 77.4783 17.6231 77.5058C22.2821 77.5058 26.5055 76.0888 26.3842 73.4809C26.2519 70.6138 23.9748 70.7902 23.9748 70.7902" fill="#9E5429"/>
<path d="M17.7333 78.3266H17.6286C16.002 78.3266 14.8332 77.8028 14.166 76.7828C12.9089 74.8806 14.0282 72.0852 14.166 71.7709L15.6878 72.416L14.9269 72.0907L15.6878 72.4105C15.4231 73.039 14.8883 74.8861 15.5499 75.8785C15.8973 76.4023 16.603 76.6725 17.6451 76.678C20.9919 76.678 23.9196 75.9226 25.0775 74.7152C25.2415 74.5629 25.3711 74.3775 25.4576 74.1711C25.5441 73.9648 25.5856 73.7424 25.5792 73.5187C25.61 72.9443 25.4117 72.3812 25.0279 71.9528C24.7625 71.7303 24.4258 71.6108 24.0795 71.6165L23.9527 69.9624C24.7424 69.9281 25.5154 70.1963 26.1141 70.7123C26.4814 71.0634 26.7724 71.4865 26.9687 71.9551C27.1651 72.4238 27.2627 72.9279 27.2554 73.436C27.271 73.883 27.1938 74.3283 27.0287 74.744C26.8636 75.1597 26.6141 75.5366 26.296 75.851C24.7632 77.4058 21.5874 78.3266 17.7333 78.3266Z" fill="#372420"/>
<path d="M20.6555 66.4061C20.6555 66.4061 18.8029 65.4578 15.1419 66.3069C12.3851 66.9465 13.0853 72.5759 16.625 72.0907L21.9237 71.3353" fill="#9E5429"/>
<path d="M16.0846 67.818C17.6869 67.3832 19.3707 67.3435 20.9918 67.7023L20.6554 66.39C20.6554 66.39 18.8028 65.4417 15.1418 66.2908C13.0466 66.776 12.9363 70.1503 14.5904 71.5122C14.1052 70.0235 14.5794 68.1819 16.0846 67.818Z" fill="#C87D36"/>
<path d="M16.1949 72.9456C14.1934 72.9456 12.9859 71.3466 12.6937 69.7366C12.3684 67.9667 13.0411 65.9487 14.9488 65.5077C18.8635 64.5979 20.9421 65.629 21.0138 65.6731L20.2694 67.1452C20.2694 67.1452 18.5768 66.3568 15.3072 67.1121C14.414 67.3161 14.1273 68.4685 14.3037 69.4444C14.3699 69.7918 14.7723 71.512 16.5091 71.2749L21.8022 70.514L22.0338 72.1681L16.7352 72.9235C16.5559 72.9444 16.3753 72.9518 16.1949 72.9456Z" fill="#372420"/>
<path d="M33.177 72.0635C33.177 72.0635 31.9254 64.8957 27.1561 63.3023C22.3868 61.7089 20.2917 66.3183 20.1593 67.7132C20.027 69.1082 19.9994 70.9607 21.637 71.5011C24.5758 72.466 25.6013 68.033 25.6013 68.033C25.6013 68.033 24.0079 72.9512 26.4725 75.0739C27.5042 75.9599 28.8074 76.4676 30.1666 76.513" fill="#9E5429"/>
<path d="M21.5873 69.0306C21.7196 67.6522 23.7927 63.0593 28.5896 64.6197C29.1803 64.8109 29.7382 65.0917 30.2437 65.4522C29.4434 64.4587 28.3817 63.7082 27.1781 63.2854C22.4143 61.7084 20.3136 66.3013 20.1813 67.6963C20.049 69.0912 20.0214 70.9438 21.659 71.4841L21.7692 71.5172C21.5357 70.7101 21.4738 69.8631 21.5873 69.0306Z" fill="#C87D36"/>
<path d="M30.15 77.3177C28.5962 77.2648 27.1076 76.681 25.9321 75.6636C25.4089 75.1661 24.9925 74.5674 24.7082 73.9039C24.4238 73.2404 24.2774 72.5259 24.278 71.804C24.1649 71.8907 24.0451 71.9681 23.9196 72.0356C23.5358 72.2508 23.1104 72.3813 22.672 72.4184C22.2336 72.4555 21.7923 72.3983 21.3778 72.2506C18.9628 71.4622 19.233 68.6558 19.3322 67.6026C19.493 66.6799 19.8367 65.7986 20.3433 65.0107C20.85 64.2229 21.5091 63.5444 22.282 63.0153C23.0388 62.5389 23.8958 62.2446 24.7855 62.1556C25.6753 62.0667 26.5736 62.1854 27.4097 62.5025C32.5925 64.2118 33.9268 71.589 33.982 71.8757L32.3279 72.1624C32.3279 72.0908 31.1039 65.4358 26.8694 64.0408C26.2681 63.8018 25.6192 63.7073 24.9747 63.7647C24.3302 63.8222 23.7082 64.0301 23.1587 64.3717C22.0238 65.1703 21.2353 66.3707 20.9532 67.7295C20.7823 69.5379 21.047 70.387 21.8685 70.6572C22.0652 70.734 22.2764 70.7664 22.487 70.7521C22.6977 70.7378 22.9025 70.6772 23.087 70.5745C23.881 70.1279 24.4158 68.9204 24.6529 68.1926C24.7246 67.9224 24.7742 67.757 24.7907 67.7184L26.3787 68.1595C26.3787 68.2312 26.3125 68.4297 26.2188 68.7109C25.8494 70.1996 25.491 73.1218 26.9797 74.3899C27.8552 75.1454 28.9614 75.5809 30.1169 75.625L30.161 77.2791L30.15 77.3177Z" fill="#372420"/>
<path d="M65.9998 106.965L64.4946 111.299C54.0186 120.743 52.4417 133.794 52.4417 133.794L53.6217 132.879L53.6547 137.152L54.9835 136.088C55.2482 138.894 56.3178 141.298 56.996 143.294C49.7897 144.27 40.6315 145.913 40.4551 153.406C50.6112 158.832 54.1069 156.301 69.7932 153.406C71.4087 147.115 69.738 143.509 69.738 143.509C70.554 137.499 82.5462 125.066 82.5462 125.066L84.5532 124.895L85.6945 106.965H65.9998Z" fill="#9E5429"/>
<path d="M79.4475 125.198L77.435 125.369C77.435 125.369 65.4428 137.802 64.6268 143.812C64.6268 143.812 66.2809 147.418 64.6875 153.704C58.6225 154.806 60.5192 154.988 69.7821 153.279C71.3976 146.994 69.7214 143.382 69.7214 143.382C70.5374 137.378 82.5296 124.945 82.5296 124.945L84.5421 124.768L79.4475 125.198Z" fill="#713915"/>
<path d="M43.2449 153.936C43.6198 149.178 49.0783 146.393 58.1317 145.169L57.1724 143.229C50.0046 143.78 41.7342 146.884 40.8354 152.558C41.2104 153.892 42.7487 154.713 43.2449 153.936Z" fill="#C87D36"/>
<path d="M53.7539 137.008L55.3749 135.994L55.9262 136.733L55.7002 129.852L55.0606 130.249C55.0606 130.249 58.7051 119.139 66.0327 113.019L63.8273 112.528C57.7993 118.197 53.9187 125.777 52.8441 133.981L53.5058 132.741L53.7539 137.008Z" fill="#C87D36"/>
<path d="M51.2619 157.464C47.7663 157.464 44.5297 156.576 40.0196 154.156L39.562 153.908V153.395C39.777 145.257 49.7071 143.47 55.8272 142.61L55.7279 142.335C55.1302 140.824 54.6617 139.265 54.3275 137.676L52.8002 138.9L52.7616 134.544L51.317 135.647L51.5486 133.706C51.6093 133.154 53.2523 120.363 63.7172 110.83L65.3713 106.143H86.5492L85.3252 125.711L82.9102 125.921C81.3223 127.575 71.5245 138.139 70.5817 143.454C70.9456 144.413 72.0373 148.014 70.5817 153.654L70.4439 154.178L69.8925 154.272C66.9096 154.823 64.3789 155.374 62.1348 155.838C57.6412 156.769 54.3606 157.464 51.2619 157.464ZM41.2877 152.937C48.9021 156.902 52.5025 156.141 61.804 154.172C63.9157 153.726 66.2976 153.219 69.071 152.7C70.3667 147.143 68.9497 143.912 68.9386 143.878L68.8394 143.658V143.415C69.683 137.212 81.3774 125.022 81.8736 124.509L82.0942 124.283L83.6987 124.145L84.7518 107.808H66.5567L65.1508 111.778L65.046 111.927C57.3269 118.841 54.5701 127.85 53.6328 131.842L54.4433 131.225L54.4819 135.421L55.6673 134.467L55.8162 136.016C56.073 137.985 56.5846 139.913 57.3379 141.75C57.4978 142.191 57.6522 142.616 57.79 143.024L58.1209 143.989L57.1119 144.127C49.7401 145.147 41.8887 146.735 41.3043 152.937H41.2877Z" fill="#372420"/>
<path d="M42.5944 155.281C42.1753 152.215 44.7998 149.42 46.101 148.615L46.9943 150.032C46.1893 150.545 43.9452 152.789 44.2374 155.055L42.5944 155.281Z" fill="#372420"/>
<path d="M48.8854 156.318L47.2313 156.152C47.5291 153.142 48.8358 150.986 51.2342 149.569L52.0888 151.013C50.1591 152.177 49.128 153.831 48.8854 156.318Z" fill="#372420"/>
<path d="M104.298 106.965L104.849 111.293C111.347 117.112 115.786 124.878 117.503 133.43L116.141 132.879L116.218 137.152L114.862 136.088C114.674 138.894 113.549 141.298 112.921 143.294C120.155 144.27 127.538 146.415 127.935 153.902C119.488 157.426 112.099 156.72 100.532 153.406C98.7508 147.115 100.295 143.509 100.295 143.509C99.3187 137.499 87.0288 125.066 87.0288 125.066L85.0164 124.895L83.4064 106.965H104.298Z" fill="#9E5429"/>
<path d="M100.918 113.582C111.664 123.032 113.566 133.133 113.566 133.133L111.967 131.876L112.044 136.154L110.677 135.085C110.484 137.886 109.662 143.267 109.023 145.263C116.251 146.239 123.209 148.422 124.51 154.956C124.599 155.408 125.977 154.57 127.78 153.82C127.383 146.333 120.723 144.182 113.489 143.206C114.176 140.86 114.586 138.442 114.713 136L116.064 137.07L115.986 132.791L117.591 134.048C115.816 125.658 111.385 118.064 104.954 112.391L100.918 113.582Z" fill="#713915"/>
<path d="M102.71 153.158C101.789 151.3 101.436 145.99 102.335 143.438H100.129C99.2305 146.012 99.5778 151.3 100.499 153.164C101.298 153.583 101.513 153.362 102.71 153.158Z" fill="#C87D36"/>
<path d="M116.488 157.105C111.609 157.105 106.475 156.003 100.3 154.233L99.8535 154.106L99.7267 153.654C98.1277 148.019 99.0981 144.419 99.4289 143.454C98.3262 138.127 88.2528 127.552 86.6483 125.898L84.2389 125.694L82.491 106.132H105.031L105.659 110.879C112.199 116.791 116.648 124.662 118.341 133.314L118.556 134.753L117.012 134.141L117.1 138.927L115.523 137.686C115.225 139.173 114.8 140.632 114.255 142.048L114.051 142.627C120.894 143.658 128.387 145.99 128.784 153.88L128.817 154.475L128.265 154.702C124.544 156.295 120.536 157.113 116.488 157.105ZM101.221 152.728C111.548 155.655 118.837 156.587 127.047 153.356C126.319 146.834 119.471 145.02 112.811 144.121L111.824 143.988L112.121 143.04C112.281 142.533 112.469 142.015 112.673 141.458C113.38 139.722 113.841 137.896 114.04 136.032L114.145 134.45L115.358 135.398L115.292 131.638L116.394 132.062C115.534 128.495 112.601 119.166 104.347 111.905L104.11 111.701L103.597 107.786H84.3436L85.8047 124.117L87.4257 124.261L87.6408 124.481C88.1535 124.994 100.135 137.163 101.138 143.376L101.177 143.614L101.083 143.84C101.055 143.906 99.7432 147.148 101.221 152.728Z" fill="#372420"/>
<path d="M125.293 154.679L123.639 154.453C123.948 152.17 121.71 149.943 120.883 149.436L121.781 148.013C123.066 148.818 125.696 151.625 125.293 154.679Z" fill="#372420"/>
<path d="M119.008 155.716C118.76 153.24 117.751 151.553 115.821 150.412L116.676 148.967C119.069 150.384 120.381 152.54 120.679 155.551L119.008 155.716Z" fill="#372420"/>
<path d="M106.112 112.048L106.944 106.65H63.4746L63.1713 112.958C58.3689 116.718 55.5404 120.887 54.0021 124.724C58.4627 127.271 72.335 133.717 75.5053 134.39C77.6777 129.631 82.833 125.491 82.833 125.491H85.6504C85.6504 125.491 90.9215 129.631 93.0939 134.39C96.2752 133.717 111.03 126.455 115.49 123.914C113.963 120.071 110.258 116.018 106.112 112.048Z" fill="#D22514"/>
<path d="M76.6852 125.965C74.5111 128.008 72.5813 130.297 70.9344 132.785C72.0372 133.166 74.6121 134.279 75.1358 134.39C76.5639 131.263 79.2711 128.407 80.9638 126.814L76.6852 125.965Z" fill="#A8210C"/>
<path d="M102.71 114.132C106.839 118.102 109.844 121.553 111.382 125.391C107.936 127.359 110.671 126.565 115.044 124.067C113.505 120.235 110.5 116.778 106.365 112.809L102.71 114.132Z" fill="#A8210C"/>
<path d="M64.897 114.044L65.0789 109.462L64.0479 111.034L63.3917 112.478C59.2565 116.448 56.2846 120.622 54.7463 124.454C55.1709 124.697 55.6837 124.978 56.2681 125.276C57.8285 121.592 60.9326 117.849 64.897 114.044Z" fill="#E77F6E"/>
<path d="M92.614 135.344L92.3328 134.737C90.5189 130.762 86.3561 127.161 85.3526 126.329H83.1471C82.1547 127.172 78.0911 130.74 76.2826 134.737L76.0014 135.344L75.3453 135.206C72.0812 134.522 58.2034 128.093 53.5885 125.452L52.9544 125.088L53.2246 124.41C55.0165 119.944 58.0876 115.952 62.3497 112.539L62.675 105.812H107.925L107.005 111.751C110.71 115.324 114.636 119.47 116.279 123.594L116.549 124.272L115.915 124.636C111.542 127.139 96.65 134.5 93.2757 135.206L92.614 135.344ZM55.0661 124.355C59.7582 126.924 71.2652 132.261 75.0641 133.403C77.424 128.799 82.1106 125.005 82.3146 124.835L82.6178 124.636H85.7551L86.1741 124.829C86.3891 125 91.1805 128.793 93.5514 133.397C97.3447 132.195 109.541 126.23 114.432 123.55C112.673 119.79 108.786 115.781 105.532 112.655L105.213 112.352L105.968 107.489H64.2739L63.9872 113.383L63.6895 113.62C59.9636 116.422 56.9989 120.112 55.0661 124.355Z" fill="#372420"/>
<path d="M75.9629 127.856L75.3729 126.29C77.7313 125.515 80.1567 124.961 82.6178 124.636L82.9597 126.29C80.7487 126.648 77.9919 127.095 75.9629 127.856Z" fill="#372420"/>
<path d="M92.2888 127.856C90.2598 127.095 87.5085 126.648 85.2975 126.29L85.7551 124.636C88.1767 124.96 90.5619 125.514 92.8787 126.29L92.2888 127.856Z" fill="#372420"/>
<path d="M62.3717 113.228C77.2246 114.954 92.232 114.873 107.065 112.986C107.766 102.951 108.554 93.3352 109.023 84.7835C112.882 85.1585 116.405 84.5078 119.499 83.8958C118.247 77.9852 117.944 69.836 117.817 60.54C114.145 60.9536 110.506 61.6428 106.878 62.3651L84.8233 77.285L59.4605 63.5009C54.6306 65.5575 50.2527 67.6912 47.0548 70.018C47.9646 76.673 49.6131 82.148 51.7524 90.0932L61.1863 88.0145L62.3717 113.228Z" fill="#F4F6F8"/>
<path d="M51.4767 86.3104L61.8479 82.2744L61.9251 86.6522C61.9251 86.6522 55.1929 90.6607 52.1825 90.0707L51.4767 86.3104Z" fill="#CDCFD0"/>
<path d="M118.297 80.3062C113.891 80.9864 109.421 81.1603 104.976 80.8244C104.507 89.3816 103.322 101.109 102.594 111.149C89.2237 112.836 75.711 113.078 62.2891 111.872C62.2891 112.324 62.3442 112.776 62.3663 113.228C77.2192 114.954 92.2265 114.872 107.06 112.986C107.76 102.951 108.549 93.3349 109.017 84.7832C112.877 85.1582 116.4 84.5076 119.493 83.8955C119.08 80.7969 118.991 80.4054 118.297 80.3062Z" fill="#CDCFD0"/>
<path d="M107.302 99.1406C107.214 102.449 106.597 107.35 106.905 112.329C92.211 114.396 77.3041 114.461 62.5923 112.522L62.1236 100.348C76.5252 100.734 91.7815 101.01 107.302 99.1406Z" fill="#2D2F7B"/>
<path d="M64.897 112.522L64.4338 100.392L62.1236 100.348L62.5923 112.55L64.897 112.522Z" fill="#4A4887"/>
<path d="M107.302 99.1406C106.053 99.2913 104.805 99.4255 103.559 99.5431C103.377 103.149 102.892 107.924 103.14 112.814C104.397 112.666 105.648 112.506 106.905 112.329C106.597 107.35 107.214 102.46 107.302 99.1406Z" fill="#22225C"/>
<path d="M46.5421 70.8558C47.3636 71.8317 48.0143 72.4713 48.0143 72.4713C52.9104 68.6724 57.1283 67.123 61.1533 65.0168L60.7011 63.7046C55.3522 64.5565 50.4024 67.0564 46.5421 70.8558Z" fill="white"/>
<path d="M83.9246 115.307C76.6949 115.302 69.4715 114.886 62.289 114.061L61.5888 113.984L61.5502 113.278C61.0705 105.245 60.5522 96.1527 60.3262 89.018C57.5826 89.945 54.7527 90.5934 51.8793 90.9533L51.157 91.0415L50.9695 90.3358L50.1094 87.182C48.3946 80.9075 47.0383 75.9452 46.2498 70.1614L46.1782 69.6651L46.5862 69.3674C49.4257 67.2998 53.4231 65.1991 59.1573 62.751L59.5322 62.5911L84.8178 76.3146L106.569 61.5877L106.734 61.5546C109.971 60.8929 113.814 60.1596 117.762 59.7185L118.683 59.6138V60.5401C118.809 70.3709 119.14 78.0734 120.337 83.7359L120.513 84.5685L119.675 84.7339C116.472 85.3625 113.296 85.9083 109.817 85.6988C109.508 91.2124 109.072 97.0679 108.615 103.276C108.383 106.474 108.14 109.744 107.909 113.057L107.859 113.741L107.181 113.829C99.4685 114.819 91.7004 115.313 83.9246 115.307ZM63.1712 112.479C77.4992 114.09 91.967 114.012 106.277 112.247C106.492 109.165 106.718 106.127 106.938 103.144C107.418 96.6213 107.87 90.4626 108.185 84.7394L108.229 83.8683L109.105 83.951C112.414 84.2708 115.452 83.8242 118.517 83.2397C117.464 77.7261 117.139 70.5087 117.001 61.4884C113.522 61.9185 110.136 62.5911 107.22 63.1425L84.895 78.294L59.4274 64.4713C54.2777 66.6767 50.6056 68.59 47.9646 70.4481C48.753 75.9121 50.0653 80.7145 51.7139 86.7519C51.9289 87.5404 52.1494 88.3564 52.381 89.2C55.2632 88.7874 58.0943 88.0741 60.8279 87.0717L61.9306 86.6802L61.9637 87.8381C62.1567 94.89 62.6805 104.208 63.1712 112.479Z" fill="#372420"/>
<path d="M60.0835 61.3005C71.7724 65.3916 78.5046 69.4717 86.0528 74.8751C92.41 69.7474 102.875 61.6148 107.804 59.9331L113.274 60.9972C104.876 65.2758 90.8552 76.9206 85.4794 81.8664C77.7878 74.6986 63.7336 67.0181 55.7057 64.6418L60.0835 61.3005Z" fill="#D22514"/>
<path d="M85.474 82.9914L84.9226 82.44C77.2035 75.2723 63.2154 67.6965 55.4632 65.4084L53.8973 64.9452L59.9623 60.3468L60.3814 60.4957C71.7395 64.471 78.4661 68.4133 86.0308 73.8111C96.584 65.3367 103.823 60.3965 107.534 59.1283L107.744 59.0566L115.771 60.6501L113.638 61.7528C105.152 66.0755 91.1255 77.8085 86.0253 82.4951L85.474 82.9914ZM57.4536 64.3442C65.3823 67.068 78.0085 74.0152 85.4795 80.7473C90.6017 76.1103 102.511 66.2133 110.87 61.3724L107.865 60.7879C105.296 61.7528 99.5062 65.0941 86.5491 75.5369L86.0584 75.9339L85.5456 75.5645C77.9864 70.1335 71.3921 66.1913 60.216 62.249L57.4536 64.3442Z" fill="#372420"/>
<path d="M133.454 32.2937C137.519 32.2937 140.814 28.9982 140.814 24.933C140.814 20.8678 137.519 17.5723 133.454 17.5723C129.388 17.5723 126.093 20.8678 126.093 24.933C126.093 28.9982 129.388 32.2937 133.454 32.2937Z" fill="#EE7203"/>
<path d="M128.089 29.8898C127.568 28.337 127.58 26.655 128.123 25.1098C128.666 23.5647 129.709 22.2448 131.086 21.359C132.464 20.4731 134.097 20.072 135.729 20.219C137.36 20.366 138.895 21.0528 140.092 22.1707C139.696 21.1346 139.072 20.2014 138.265 19.4407C137.458 18.6799 136.489 18.1114 135.432 17.7775C134.374 17.4436 133.255 17.3531 132.157 17.5125C131.06 17.672 130.012 18.0774 129.094 18.6985C128.175 19.3196 127.408 20.1403 126.851 21.0992C126.294 22.0582 125.961 23.1306 125.876 24.2364C125.792 25.3423 125.958 26.4529 126.364 27.4853C126.769 28.5177 127.402 29.4452 128.216 30.1986C128.172 30.1159 128.127 30.0056 128.089 29.8898Z" fill="#FBBE5E"/>
<path d="M135.141 17.8252C133.683 17.4865 132.157 17.6039 130.769 18.1615C132.294 18.5178 133.666 19.3515 134.685 20.5414C135.704 21.7312 136.317 23.2152 136.434 24.7773C136.552 26.3395 136.168 27.8984 135.338 29.2273C134.509 30.5562 133.277 31.5857 131.822 32.1661C132.776 32.4223 133.773 32.4835 134.752 32.3462C135.731 32.2089 136.672 31.8757 137.519 31.3667C138.367 30.8577 139.103 30.1832 139.684 29.3835C140.265 28.5838 140.679 27.6752 140.901 26.712C141.124 25.7488 141.15 24.7507 140.978 23.7772C140.806 22.8038 140.44 21.8749 139.901 21.046C139.362 20.2172 138.662 19.5053 137.843 18.9528C137.023 18.4004 136.1 18.0188 135.13 17.8307L135.141 17.8252Z" fill="#C05E01"/>
<path d="M133.454 33.1923C131.818 33.1923 130.219 32.7072 128.859 31.7985C127.499 30.8897 126.439 29.598 125.813 28.0868C125.187 26.5756 125.023 24.9127 125.342 23.3083C125.661 21.704 126.449 20.2304 127.605 19.0737C128.762 17.9171 130.236 17.1294 131.84 16.8103C133.444 16.4912 135.107 16.655 136.619 17.2809C138.13 17.9069 139.421 18.9669 140.33 20.327C141.239 21.6871 141.724 23.2861 141.724 24.9218C141.724 27.1153 140.853 29.2189 139.302 30.7699C137.751 32.3209 135.647 33.1923 133.454 33.1923ZM133.454 18.4654C132.174 18.4643 130.923 18.8427 129.859 19.5526C128.795 20.2626 127.965 21.2723 127.474 22.454C126.984 23.6357 126.855 24.9363 127.104 26.1912C127.353 27.4462 127.969 28.5991 128.873 29.5041C129.777 30.4092 130.93 31.0257 132.184 31.2757C133.439 31.5257 134.74 31.3979 135.922 30.9086C137.104 30.4192 138.114 29.5903 138.825 28.5266C139.536 27.4629 139.916 26.2122 139.916 24.9329C139.914 23.219 139.233 21.5756 138.022 20.3632C136.81 19.1508 135.167 18.4683 133.454 18.4654Z" fill="#372420"/>
<path d="M71.0007 75.7465C69.6867 75.7551 68.4051 76.1547 67.3191 76.8943C66.2331 77.634 65.392 78.6803 64.9029 79.8998C64.4137 81.1194 64.2988 82.4569 64.5727 83.742C64.8466 85.0271 65.497 86.2016 66.4409 87.1156C66.6504 87.1156 66.8599 87.1046 67.0694 87.0826C66.0358 86.225 65.3106 85.0534 65.004 83.7459C64.6973 82.4384 64.8261 81.0665 65.3707 79.8388C65.9153 78.6112 66.8459 77.595 68.021 76.9448C69.1961 76.2946 70.5515 76.046 71.8808 76.2367C73.2102 76.4275 74.441 77.0471 75.3859 78.0015C76.3308 78.9559 76.9381 80.1927 77.1156 81.5239C77.2931 82.8552 77.0309 84.2079 76.369 85.3765C75.7071 86.5451 74.6817 87.4655 73.4487 87.9978C73.8103 87.9167 74.1813 87.8851 74.5515 87.9041C75.7492 87.1305 76.6649 85.9906 77.1623 84.6544C77.6597 83.3181 77.7121 81.8569 77.3118 80.4884C76.9114 79.1199 76.0796 77.9174 74.9404 77.06C73.8012 76.2025 72.4155 75.736 70.9896 75.73L71.0007 75.7465Z" fill="#D5A73B"/>
<path d="M72.2136 80.2616L72.6657 81.425C73.1619 81.3368 73.6692 81.2706 74.0607 81.243C73.7723 80.318 73.1919 79.5113 72.4066 78.9438C71.96 79.1368 72.1033 79.9473 72.2136 80.2616Z" fill="#2D2F7B"/>
<path d="M70.7084 83.2559L71.7064 82.9858L72.4783 81.9988L73.6692 82.0705L74.0717 83.4765L73.3605 83.7577L73.4211 83.9341L74.386 83.8183L74.3253 83.6143L74.5569 83.5316L74.1048 81.9051V81.4971C71.9994 81.7763 69.933 82.2962 67.9461 83.0464C68.014 83.3901 68.1043 83.729 68.2162 84.0609C68.3927 83.9782 68.8613 83.7907 69.0708 83.7136C68.5122 84.0695 68.0546 84.5631 67.7421 85.1471L67.8909 85.8418L67.4498 86.6468L68.5526 86.7019L68.9881 85.8804L68.6463 85.329C68.889 84.5526 69.3838 83.8794 70.0523 83.4158L70.4989 83.2945C69.8171 83.7673 69.3356 84.4768 69.148 85.2849L69.5946 85.9135L69.1535 86.7626L70.5154 86.9997L70.9234 86.1506L70.0964 85.3346C70.087 84.5959 70.3003 83.8716 70.7084 83.2559Z" fill="#2D2F7B"/>
<path d="M72.3791 81.4857L72.0207 80.4822C71.8167 79.8977 71.6458 79.0817 72.3019 78.8612C71.3039 78.1665 70.2673 77.9349 70.0082 77.6206H69.9696C69.9255 78.2988 67.4664 79.986 67.913 82.7703C69.3632 82.2181 70.8571 81.7883 72.3791 81.4857Z" fill="#2D2F7B"/>
<path d="M73.2061 82.8818L73.5038 82.3249L72.6051 82.2422L72.186 82.7384L72.969 82.5068L72.6602 82.8763L73.2061 82.8818Z" fill="#2D2F7B"/>
<path d="M74.7278 85.8532L74.2096 85.1144L74.2812 84.7229L73.2061 84.7891L73.6251 84.5134L74.3419 84.4142L74.2206 83.9951L73.2392 84.1054L72.5555 84.5961L70.5816 84.155L70.5044 85.0758L71.6898 86.2943L71.1715 87.8988L72.5003 88.4998L73.4321 88.0752L73.1565 86.5259L74.4466 86.4928L74.7278 85.8532Z" fill="#2D2F7B"/>
<path d="M72.5224 88.1357C70.482 87.1601 68.2084 86.778 65.9612 87.033L65.498 87.7166C67.119 87.5623 69.9916 87.5457 71.1881 88.1081V88.1798C69.1824 87.9678 67.1594 87.9789 65.1562 88.2129L64.3898 89.3487C66.2031 89.9458 68.1472 90.0241 70.0027 89.5747C71.6071 89.277 72.9469 88.9186 74.0662 89.4314L75.588 88.1688C74.8877 87.5016 73.4873 87.7718 72.5224 88.1357Z" fill="#D22514"/>
<path d="M74.7168 90.2744C74.7168 90.5669 74.6006 90.8474 74.3938 91.0542C74.187 91.261 73.9065 91.3771 73.6141 91.3771C73.3216 91.3771 73.0411 91.261 72.8343 91.0542C72.6275 90.8474 72.5113 90.5669 72.5113 90.2744H72.0703C72.0703 90.5669 71.9541 90.8474 71.7473 91.0542C71.5405 91.261 71.26 91.3771 70.9675 91.3771C70.6751 91.3771 70.3946 91.261 70.1878 91.0542C69.981 90.8474 69.8648 90.5669 69.8648 90.2744H69.4568C69.4568 90.5669 69.3406 90.8474 69.1338 91.0542C68.927 91.261 68.6465 91.3771 68.3541 91.3771C68.0616 91.3771 67.7811 91.261 67.5743 91.0542C67.3675 90.8474 67.2513 90.5669 67.2513 90.2744H66.8158C66.8142 90.6095 66.9229 90.9357 67.125 91.2029C67.3272 91.4701 67.6116 91.6635 67.9344 91.7531C68.2572 91.8427 68.6006 91.8237 68.9116 91.699C69.2225 91.5743 69.4839 91.3508 69.6553 91.0629C69.7899 91.2903 69.9815 91.4787 70.2111 91.6096C70.4407 91.7405 70.7005 91.8094 70.9648 91.8094C71.2291 91.8094 71.4888 91.7405 71.7184 91.6096C71.948 91.4787 72.1396 91.2903 72.2743 91.0629C72.4457 91.3508 72.707 91.5743 73.018 91.699C73.3289 91.8237 73.6723 91.8427 73.9951 91.7531C74.318 91.6635 74.6024 91.4701 74.8045 91.2029C75.0067 90.9357 75.1153 90.6095 75.1138 90.2744H74.7168Z" fill="#2D2F7B"/>
<path d="M72.3128 93.1032C72.0203 93.1032 71.7399 92.987 71.5331 92.7802C71.3263 92.5734 71.2101 92.293 71.2101 92.0005H70.7745C70.7745 92.293 70.6583 92.5734 70.4515 92.7802C70.2447 92.987 69.9642 93.1032 69.6718 93.1032C69.3793 93.1032 69.0988 92.987 68.892 92.7802C68.6852 92.5734 68.569 92.293 68.569 92.0005H68.1279C68.1264 92.3355 68.2351 92.6618 68.4372 92.929C68.6394 93.1962 68.9238 93.3895 69.2466 93.4792C69.5694 93.5688 69.9128 93.5498 70.2238 93.4251C70.5347 93.3003 70.7961 93.0768 70.9675 92.7889C71.1404 93.0753 71.4022 93.2973 71.7131 93.421C72.0239 93.5447 72.3667 93.5633 72.6891 93.4739C73.0115 93.3846 73.2958 93.1922 73.4986 92.9262C73.7015 92.6601 73.8117 92.335 73.8125 92.0005H73.3714C73.3717 92.2855 73.2615 92.5595 73.0642 92.765C72.8668 92.9706 72.5975 93.0918 72.3128 93.1032Z" fill="#2D2F7B"/>
</svg>
