<svg width="66" height="22" viewBox="0 0 66 22" fill="none" xmlns="http://www.w3.org/2000/svg">
<g clip-path="url(#clip0_216_520)">
<path d="M27.1855 9.52932L26.2171 7.29255V9.87402H25.4485V6.1665H26.5783L27.5698 8.54116L28.5613 6.1665H29.6681V9.87402H28.8611V7.26957L27.9003 9.52932H27.1855Z" fill="#F2F2F2"/>
<path d="M30.5444 6.1665H31.3668V7.43043H32.1354C32.4991 7.41201 32.8587 7.51439 33.1577 7.72152C33.2906 7.83944 33.394 7.98681 33.4594 8.15179C33.5248 8.31676 33.5505 8.49473 33.5343 8.67138C33.5486 8.8422 33.5219 9.01397 33.4564 9.17248C33.3909 9.33099 33.2885 9.47168 33.1577 9.58294C32.8708 9.79112 32.5205 9.89396 32.1662 9.87402H30.5444V6.1665ZM32.0816 9.15397C32.2463 9.16685 32.4106 9.12656 32.5505 9.03907C32.6034 8.9912 32.6442 8.93156 32.6696 8.865C32.6949 8.79844 32.7042 8.72685 32.6965 8.65606C32.7042 8.58527 32.6949 8.51367 32.6696 8.44711C32.6442 8.38055 32.6034 8.32091 32.5505 8.27305C32.4145 8.17653 32.2477 8.13294 32.0816 8.15049H31.3515V9.19227L32.0816 9.15397ZM33.9955 6.1665H34.8256V9.87402H34.0108L33.9955 6.1665Z" fill="#F2F2F2"/>
<path d="M41.2202 7.62964H36.7085V8.29607H41.2202V7.62964Z" fill="#F2F2F2"/>
<path d="M27.1086 15.259C27.3111 15.2795 27.5139 15.2231 27.6764 15.1009C27.8388 14.9787 27.949 14.7999 27.9848 14.6002L28.8149 14.7381C28.7588 15.1035 28.5667 15.4344 28.2769 15.665C27.9372 15.9058 27.5245 16.0222 27.1086 15.9944C26.8472 15.9983 26.5871 15.9568 26.34 15.8718C26.1255 15.7916 25.9295 15.6691 25.7635 15.5118C25.6021 15.3403 25.4789 15.1367 25.4023 14.9143C25.2178 14.3702 25.2178 13.7808 25.4023 13.2367C25.4853 13.0139 25.6135 12.8105 25.7789 12.6392C25.9432 12.4816 26.1399 12.3613 26.3554 12.2868C26.6029 12.2041 26.863 12.1652 27.124 12.1719C27.5397 12.1454 27.9521 12.2616 28.2922 12.5013C28.5753 12.7322 28.7616 13.06 28.8149 13.4205L27.9925 13.5508C27.9439 13.3735 27.8452 13.214 27.7081 13.0912C27.546 12.9537 27.3363 12.885 27.124 12.8997C26.9908 12.8958 26.8583 12.9213 26.7361 12.9742C26.6139 13.0272 26.5049 13.1063 26.4168 13.2061C26.2162 13.4517 26.1148 13.7631 26.1325 14.0793C26.1119 14.3922 26.2046 14.702 26.3938 14.9526C26.4808 15.0536 26.5896 15.1336 26.7121 15.1867C26.8345 15.2397 26.9675 15.2645 27.1009 15.259" fill="#F2F2F2"/>
<path d="M29.499 15.9408V12.2256H32.7656V15.9408H31.9432V12.9916H30.3214V15.9408H29.499Z" fill="#F2F2F2"/>
<path d="M35.3557 15.9945C35.0941 16.0005 34.8336 15.959 34.5871 15.8719C34.3647 15.8024 34.162 15.6817 33.9952 15.5196C33.8217 15.3518 33.6878 15.1478 33.6032 14.9221C33.5058 14.652 33.4589 14.3664 33.4649 14.0795C33.4587 13.795 33.5057 13.5119 33.6032 13.2445C33.6878 13.0188 33.8217 12.8147 33.9952 12.647C34.1606 12.4742 34.3629 12.3407 34.5871 12.2563C35.087 12.0968 35.6243 12.0968 36.1243 12.2563C36.3456 12.3318 36.5476 12.4547 36.7161 12.6164C36.8872 12.7861 37.0207 12.9896 37.1081 13.2139C37.2057 13.4812 37.2526 13.7644 37.2464 14.0488C37.2525 14.3358 37.2056 14.6214 37.1081 14.8914C37.0207 15.1157 36.8872 15.3192 36.7161 15.4889C36.5493 15.6511 36.3466 15.7718 36.1243 15.8413C35.8777 15.9284 35.6172 15.9699 35.3557 15.9639M35.3557 15.1978C35.4993 15.2073 35.6432 15.1839 35.7764 15.1295C35.9096 15.075 36.0286 14.991 36.1243 14.8838C36.3138 14.636 36.4091 14.3293 36.3933 14.0182C36.3961 13.7277 36.3014 13.4446 36.1243 13.2139C36.0241 13.1119 35.9045 13.031 35.7725 12.9757C35.6405 12.9204 35.4988 12.892 35.3557 12.892C35.2125 12.892 35.0708 12.9204 34.9388 12.9757C34.8068 13.031 34.6872 13.1119 34.5871 13.2139C34.3963 13.461 34.3008 13.7681 34.318 14.0795C34.3022 14.3906 34.3975 14.6973 34.5871 14.9451C34.6827 15.0523 34.8017 15.1363 34.9349 15.1907C35.0681 15.2452 35.212 15.2686 35.3557 15.2591" fill="#F2F2F2"/>
<path d="M37.9614 15.9409V12.2563H39.637C39.9913 12.2364 40.3416 12.3392 40.6285 12.5474C40.7585 12.6657 40.8594 12.8122 40.9234 12.9756C40.9874 13.139 41.0127 13.3149 40.9974 13.4896C41.0105 13.6626 40.9833 13.8362 40.918 13.997C40.8527 14.1578 40.751 14.3014 40.6208 14.4165C40.3243 14.6296 39.9635 14.7351 39.5986 14.7153H38.7838V15.9715L37.9614 15.9409ZM38.7838 13.9799H39.5524C39.7195 13.9952 39.8863 13.9489 40.0213 13.8497C40.1099 13.7416 40.1584 13.6063 40.1584 13.4667C40.1584 13.327 40.1099 13.1917 40.0213 13.0836C39.8852 12.9871 39.7185 12.9435 39.5524 12.9611H38.7838V13.9799Z" fill="#F2F2F2"/>
<path d="M41.3433 12.9916V12.2256H44.6944V12.9916H43.4339V15.9408H42.6038V12.9916H41.3433Z" fill="#F2F2F2"/>
<path d="M47.8302 15.9408V13.4129L46.1085 15.9408H45.2708V12.2256H46.0932V14.7458L47.7995 12.2256H48.6526V15.9408H47.8302Z" fill="#F2F2F2"/>
<path d="M49.5288 15.9409V12.2563H51.2658C51.589 12.2401 51.9091 12.3259 52.1805 12.5015C52.2927 12.5937 52.3813 12.7114 52.4388 12.8446C52.4963 12.9778 52.521 13.1228 52.511 13.2675C52.5121 13.4338 52.4697 13.5974 52.388 13.7424C52.2853 13.9081 52.1232 14.0287 51.9345 14.0795C52.145 14.1131 52.3346 14.2254 52.4649 14.3935C52.5696 14.5582 52.6231 14.7501 52.6186 14.9451C52.6295 15.0914 52.6036 15.238 52.5432 15.3718C52.4828 15.5056 52.3898 15.6222 52.2727 15.7111C51.9773 15.9046 51.6262 15.9961 51.2735 15.9715L49.5288 15.9409ZM51.1506 12.8768H50.382V13.7041H51.1506C51.3009 13.7196 51.4516 13.6786 51.5733 13.5892C51.6165 13.5497 51.65 13.5008 51.6713 13.4464C51.6926 13.392 51.7012 13.3334 51.6963 13.2751C51.7018 13.2191 51.6935 13.1626 51.6721 13.1105C51.6506 13.0585 51.6167 13.0124 51.5733 12.9764C51.4531 12.8972 51.3092 12.8621 51.1659 12.8768M51.1659 14.3706H50.3512V15.2285H51.1813C51.34 15.2404 51.4984 15.2029 51.6348 15.1212C51.6792 15.0791 51.714 15.0278 51.7365 14.9709C51.7591 14.914 51.769 14.8529 51.7654 14.7919C51.77 14.7318 51.7606 14.6716 51.7379 14.6157C51.7153 14.5599 51.68 14.5101 51.6348 14.4701C51.4953 14.3896 51.334 14.3547 51.1736 14.3706" fill="#F2F2F2"/>
<path d="M53.3027 15.9408V12.2256H54.1328V13.681H55.7392V12.2256H56.5693V15.9408H55.7392V14.4547H54.1328V15.9408H53.3027Z" fill="#F2F2F2"/>
<path d="M57.4456 12.2563H58.268V13.5203H59.0366C59.4003 13.5018 59.7598 13.6042 60.0588 13.8114C60.1913 13.9297 60.2943 14.0771 60.3597 14.242C60.425 14.4068 60.451 14.5846 60.4354 14.7612C60.4497 14.932 60.423 15.1038 60.3576 15.2623C60.2921 15.4208 60.1897 15.5615 60.0588 15.6728C59.7729 15.8837 59.4225 15.9893 59.0673 15.9715H57.4456V12.2563ZM58.9828 15.2515C59.1474 15.2644 59.3118 15.2241 59.4516 15.1366C59.5431 15.0298 59.5934 14.894 59.5934 14.7536C59.5934 14.6131 59.5431 14.4773 59.4516 14.3706C59.3127 14.2804 59.1482 14.2374 58.9828 14.248H58.2142V15.2591L58.9828 15.2515ZM60.912 12.2563H61.7421V15.9715H60.912V12.2563Z" fill="#F2F2F2"/>
<path d="M65.1776 15.9409V13.413L63.4559 15.9409H62.6182V12.2563H63.4329V14.7765L65.1469 12.2563H66V15.9715L65.1776 15.9409ZM63.2407 11.1379H63.9171C63.918 11.2445 63.9561 11.3474 64.0247 11.429C64.1083 11.4936 64.211 11.5287 64.3168 11.5287C64.4225 11.5287 64.5253 11.4936 64.6088 11.429C64.6765 11.3473 64.712 11.2438 64.7088 11.1379H65.3928C65.3992 11.2641 65.3785 11.3902 65.3321 11.5077C65.2857 11.6253 65.2147 11.7316 65.1238 11.8197C64.8812 11.9688 64.6018 12.0478 64.3168 12.0478C64.0317 12.0478 63.7523 11.9688 63.5097 11.8197C63.4163 11.7336 63.3436 11.6275 63.297 11.5095C63.2504 11.3914 63.2312 11.2644 63.2407 11.1379Z" fill="#F2F2F2"/>
<path d="M25.4485 22.0001V18.2849H28.7151V22.0001H27.8926V19.0586H26.2709V22.0001H25.4485Z" fill="#F2F2F2"/>
<path d="M29.5913 22.0001V18.2849H32.2968V18.9973H30.4214V19.7863H32.2199V20.4834H30.4214V21.2877H32.2814V22.0001H29.5913Z" fill="#F2F2F2"/>
<path d="M32.7656 19.0586V18.2849H36.1167V19.0586H34.8562V22.0001H34.0338V19.0586H32.7656Z" fill="#F2F2F2"/>
<path d="M36.6931 22.0001V18.2849H39.3986V18.9973H37.5232V19.7863H39.3217V20.4834H37.5232V21.2877H39.3755V22.0001H36.6931Z" fill="#F2F2F2"/>
<path d="M40.1672 22.0001V18.2849H41.8428C42.198 18.2671 42.5484 18.3727 42.8343 18.5836C42.9646 18.7 43.0659 18.845 43.1299 19.0073C43.194 19.1696 43.2191 19.3445 43.2032 19.5182C43.2181 19.6913 43.1918 19.8655 43.1264 20.0266C43.0609 20.1877 42.9582 20.331 42.8266 20.445C42.5335 20.6656 42.1709 20.7743 41.8044 20.7515H41.0358V22.0001H40.1672ZM40.9973 20.0391H41.7659C41.9352 20.0528 42.1039 20.0067 42.2425 19.9088C42.2919 19.8571 42.3298 19.7956 42.3536 19.7283C42.3775 19.6609 42.3867 19.5893 42.3808 19.5182C42.3874 19.4458 42.3784 19.3729 42.3546 19.3042C42.3307 19.2355 42.2925 19.1727 42.2425 19.1198C42.1029 19.0247 41.9343 18.9813 41.7659 18.9973H40.9973V20.0391Z" fill="#F2F2F2"/>
<path d="M43.8489 22.0001V18.2849H46.6312V19.0509H44.679V19.7557H45.5552C45.8981 19.7357 46.2388 19.8213 46.5313 20.0008C46.6523 20.1022 46.7474 20.2307 46.8089 20.3759C46.8704 20.521 46.8964 20.6786 46.8849 20.8357C46.9004 21.0005 46.8773 21.1665 46.8173 21.3208C46.7572 21.475 46.6619 21.6132 46.539 21.7243C46.2601 21.9237 45.9208 22.0211 45.5782 22.0001H43.8489ZM45.486 20.4681H44.7174V21.3183H45.486C45.6387 21.3294 45.7913 21.2947 45.9241 21.2188C45.9728 21.1796 46.0109 21.129 46.0351 21.0715C46.0593 21.014 46.0687 20.9514 46.0625 20.8894C46.0701 20.8272 46.0614 20.7641 46.0371 20.7064C46.0129 20.6486 45.9739 20.5982 45.9241 20.56C45.7897 20.4888 45.6378 20.4569 45.486 20.4681Z" fill="#F2F2F2"/>
<path d="M49.4059 21.119C49.3413 21.2619 49.2669 21.4001 49.183 21.5327C49.1126 21.6343 49.0271 21.7247 48.9294 21.8008C48.8247 21.873 48.7074 21.925 48.5835 21.954C48.4295 21.9871 48.2722 22.0025 48.1146 21.9999H47.6535V21.2339H47.9763C48.0801 21.2355 48.1835 21.2226 48.2837 21.1956C48.3624 21.1822 48.4349 21.1447 48.4913 21.0884L47.0693 18.2771H47.9993L48.937 20.2687L49.8056 18.2771H50.651L49.4059 21.119Z" fill="#F2F2F2"/>
<path d="M51.166 22V18.2848H52.8493C53.2019 18.2688 53.5493 18.3743 53.8331 18.5835C53.9634 18.6999 54.0646 18.8449 54.1287 19.0072C54.1928 19.1695 54.2179 19.3444 54.202 19.5181C54.2129 19.693 54.1824 19.868 54.113 20.029C54.0436 20.19 53.9371 20.3325 53.8023 20.4449C53.5092 20.6655 53.1466 20.7742 52.7801 20.7514H51.9961V22H51.166ZM51.9961 20.039H52.7647C52.9316 20.0529 53.098 20.0067 53.2336 19.9087C53.2844 19.8577 53.3237 19.7965 53.3489 19.7291C53.374 19.6617 53.3845 19.5898 53.3796 19.5181C53.3851 19.4451 53.375 19.3719 53.3498 19.3032C53.3246 19.2345 53.285 19.1719 53.2336 19.1197C53.0969 19.0245 52.9307 18.981 52.7647 18.9972H51.9961V20.039Z" fill="#F2F2F2"/>
<path d="M54.8477 22.0001V18.2849H57.3917V19.0586H55.6777V22.0001H54.8477Z" fill="#F2F2F2"/>
<path d="M14.1806 14.0488H12.4128L14.9723 21.9618H16.7324L14.1806 14.0488Z" fill="#F2F2F2"/>
<path d="M17.6086 21.9618H19.3764L16.817 14.0488H15.0569L17.6086 21.9618Z" fill="#F2F2F2"/>
<path d="M14.0885 2.62744C14.09 3.14893 13.9363 3.65915 13.6467 4.0935C13.3571 4.52785 12.9447 4.86679 12.4617 5.06741C11.9787 5.26802 11.4468 5.3213 10.9334 5.22049C10.42 5.11968 9.94821 4.86932 9.57767 4.5011C9.20713 4.13289 8.95455 3.66337 8.85191 3.152C8.74926 2.64064 8.80117 2.11041 9.00106 1.62847C9.20095 1.14652 9.53983 0.73452 9.9748 0.444632C10.4098 0.154743 10.9213 2.20349e-06 11.4445 0C12.1444 -2.94729e-06 12.8158 0.276571 13.3114 0.769092C13.807 1.26161 14.0865 1.92989 14.0885 2.62744Z" fill="#F2F2F2"/>
<path d="M5.28803 21.9617L9.22328 9.75902L7.37095 9.4373C6.31915 9.23254 5.22881 9.45237 4.33956 10.0485C3.45032 10.6446 2.83494 11.5682 2.62866 12.6163L4.37339 12.9533C4.50446 12.3835 4.84847 11.885 5.33539 11.5591C5.82231 11.2332 6.41554 11.1045 6.99433 11.1991L3.51256 21.9617H5.28803Z" fill="#F2F2F2"/>
<path d="M1.75242 12.4631C1.87406 11.8291 2.11994 11.2252 2.47598 10.686C2.83202 10.1468 3.29124 9.6829 3.82736 9.32076C4.36348 8.95862 4.96599 8.70539 5.6004 8.57554C6.23482 8.44569 6.8887 8.44179 7.52463 8.56404L13.8349 9.66711C14.3562 9.7684 14.8925 9.76631 15.413 9.66097C15.9335 9.55562 16.4281 9.34907 16.8685 9.05314C17.3089 8.7572 17.6865 8.37768 17.9797 7.93625C18.2729 7.49482 18.4759 7.00014 18.5772 6.48048L16.8247 6.17407C16.7643 6.46387 16.6472 6.73897 16.4801 6.98363C16.3129 7.22828 16.099 7.4377 15.8506 7.59991C15.6022 7.76212 15.3241 7.87393 15.0323 7.92896C14.7405 7.98398 14.4407 7.98114 14.15 7.92059L7.83207 6.81753C6.08331 6.4926 4.27664 6.87224 2.80837 7.87316C1.3401 8.87408 0.330124 10.4146 0 12.1567L1.75242 12.4631Z" fill="#F2F2F2"/>
<path d="M19.4304 6.64136C19.1828 7.92078 18.4359 9.05 17.3537 9.78104C16.2714 10.5121 14.9423 10.7852 13.6582 10.5404L10.0534 9.90459L6.14893 21.9617H7.91671L11.1679 11.9039L13.3431 12.2869C14.2106 12.4475 15.1014 12.4362 15.9646 12.2537C16.8277 12.0711 17.6464 11.7209 18.3737 11.2229C19.101 10.725 19.7228 10.0891 20.2034 9.3516C20.6841 8.61412 21.0143 7.78948 21.1751 6.92478L19.4304 6.64136Z" fill="#F2F2F2"/>
</g>
<defs>
<clipPath id="clip0_216_520">
<rect width="66" height="22" fill="white"/>
</clipPath>
</defs>
</svg>
