<?xml version="1.0" standalone="no"?>
<!DOCTYPE svg PUBLIC "-//W3C//DTD SVG 1.1//EN" "http://www.w3.org/Graphics/SVG/1.1/DTD/svg11.dtd" >
<svg xmlns="http://www.w3.org/2000/svg" xmlns:xlink="http://www.w3.org/1999/xlink" version="1.1">
<metadata>
Created by FontForge 20170812 at Thu Feb  2 15:04:02 2023
 By www-data
Copyright 2021 The Wix Madefor Project Authors (https://github.com/wix/wixmadefor/)
</metadata>
<defs>
<font id="WixMadeforDisplay-Medium" horiz-adv-x="0" >
  <font-face 
    font-family="Wix Madefor Display Medium"
    font-weight="500"
    font-stretch="normal"
    units-per-em="1000"
    panose-1="2 11 5 3 2 2 3 2 2 3"
    ascent="800"
    descent="-200"
    x-height="496"
    cap-height="715"
    bbox="-221 -277 1185 1122"
    underline-thickness="64"
    underline-position="-98"
    unicode-range="U+000D-FEFF"
  />
<missing-glyph horiz-adv-x="500" 
d="M50 0v750h400v-750h-400zM100 50h300v650h-300v-650z" />
    <glyph glyph-name=".notdef" horiz-adv-x="500" 
d="M50 0v750h400v-750h-400zM100 50h300v650h-300v-650z" />
    <glyph glyph-name="uni0000" 
 />
    <glyph glyph-name="uni0000" 
 />
    <glyph glyph-name="uni000D" unicode="&#xd;" horiz-adv-x="195" 
 />
    <glyph glyph-name="space" unicode=" " horiz-adv-x="195" 
 />
    <glyph glyph-name="period" unicode="." horiz-adv-x="235" 
d="M182 54q0 -26 -19 -45t-45 -19q-27 0 -46 19t-19 45q0 27 19 45.5t46 18.5q26 0 45 -18.5t19 -45.5z" />
    <glyph glyph-name="colon" unicode=":" horiz-adv-x="235" 
d="M182 54q0 -26 -19 -45t-45 -19q-27 0 -46 19t-19 45q0 27 19 45.5t46 18.5q26 0 45 -18.5t19 -45.5zM182 431q0 -26 -19 -45t-45 -19q-27 0 -46 19t-19 45q0 27 19 45.5t46 18.5q26 0 45 -18.5t19 -45.5z" />
    <glyph glyph-name="comma" unicode="," horiz-adv-x="235" 
d="M112 -124h-60q25 33 40 71t13 65l12 -19q-27 0 -45.5 17.5t-18.5 44.5q0 26 18 44.5t44 18.5q30 0 48.5 -20.5t18.5 -54.5q0 -25 -9.5 -55.5t-26 -59.5t-34.5 -52z" />
    <glyph glyph-name="semicolon" unicode=";" horiz-adv-x="235" 
d="M112 -124h-60q25 33 40 71t13 65l12 -19q-27 0 -45.5 17.5t-18.5 44.5q0 26 18 44.5t44 18.5q30 0 48.5 -20.5t18.5 -54.5q0 -25 -9.5 -55.5t-26 -59.5t-34.5 -52zM182 431q0 -26 -19 -45t-45 -19q-27 0 -46 19t-19 45q0 27 19 45.5t46 18.5q26 0 45 -18.5t19 -45.5z" />
    <glyph glyph-name="question" unicode="?" horiz-adv-x="566" 
d="M296 210h-75q-4 45 7 80.5t39 66.5t74 61q36 25 53 52.5t17 60.5q0 54 -37 87t-96 33q-52 0 -97.5 -28t-81.5 -84l-65 61q49 64 111.5 97.5t134.5 33.5q66 0 116.5 -26t80.5 -70.5t30 -101.5q0 -55 -31 -98.5t-95 -83.5q-47 -30 -66 -61t-19 -80zM323 54q0 -26 -19 -45
t-46 -19t-46 19t-19 45q0 27 19 45.5t46 18.5t46 -18.5t19 -45.5z" />
    <glyph glyph-name="exclam" unicode="!" horiz-adv-x="235" 
d="M182 54q0 -26 -19 -45t-46 -19q-26 0 -45 19t-19 45q0 27 19 45.5t45 18.5q27 0 46 -18.5t19 -45.5zM143 210h-52q-1 18 -3.5 57t-6 90t-6.5 104.5t-6 101t-4.5 79t-1.5 36.5q0 23 15.5 38t38.5 15t39 -15t16 -38q0 -5 -2 -36.5t-4.5 -79t-6 -101t-6.5 -104.5t-5.5 -90
t-4.5 -57z" />
    <glyph glyph-name="questiondown" unicode="&#xbf;" horiz-adv-x="566" 
d="M270 275h75q4 -43 -7 -79t-38.5 -67.5t-74.5 -60.5q-36 -26 -53 -53t-17 -60q0 -53 37 -86.5t96 -33.5q52 0 97.5 28t81.5 83l65 -61q-48 -64 -110.5 -97t-135.5 -33q-65 0 -116 26t-81 71t-30 101q0 55 31.5 98.5t94.5 83.5q47 29 66 61t19 79zM243 432q0 26 19 45
t46 19t46 -19t19 -45q0 -27 -19 -46t-46 -19t-46 19t-19 46z" />
    <glyph glyph-name="exclamdown" unicode="&#xa1;" horiz-adv-x="235" 
d="M53 432q0 26 19 45t45 19q27 0 46 -19t19 -45q0 -27 -19 -46t-46 -19q-26 0 -45 19t-19 46zM91 275h52q2 -16 4.5 -55.5t5.5 -90.5t6.5 -104.5t6 -101t4.5 -79t2 -37.5q0 -22 -16 -37t-39 -15t-38.5 15t-15.5 37q0 6 1.5 37.5t4.5 79t6 101t6.5 104.5t6 90.5t3.5 55.5z
" />
    <glyph glyph-name="quotesingle" unicode="'" horiz-adv-x="235" 
d="M137 499h-39q-8 39 -15 77.5t-11 68t-4 42.5q0 23 14.5 38t35.5 15q20 0 34.5 -15t14.5 -38q0 -13 -4 -42.5t-11 -68t-15 -77.5z" />
    <glyph glyph-name="quotedbl" unicode="&#x22;" horiz-adv-x="377" 
d="M137 499h-39q-8 39 -15 77.5t-11 68t-4 42.5q0 23 14.5 38t35.5 15q20 0 34.5 -15t14.5 -38q0 -13 -4 -42.5t-11 -68t-15 -77.5zM279 499h-39q-8 39 -15 77.5t-11 68t-4 42.5q0 23 14.5 38t35.5 15q20 0 34.5 -15t14.5 -38q0 -13 -4 -42.5t-11 -68t-15 -77.5z" />
    <glyph glyph-name="ellipsis" unicode="&#x2026;" horiz-adv-x="1000" 
d="M230 54q0 -26 -19 -45t-45 -19q-27 0 -46 19t-19 45q0 27 19 45.5t46 18.5q26 0 45 -18.5t19 -45.5zM564 54q0 -26 -19 -45t-45 -19q-27 0 -46 19t-19 45q0 27 19 45.5t46 18.5q26 0 45 -18.5t19 -45.5zM897 54q0 -26 -19 -45t-45 -19q-27 0 -46 19t-19 45q0 27 19 45.5
t46 18.5q26 0 45 -18.5t19 -45.5z" />
    <glyph glyph-name="uni00A0" unicode="&#xa0;" horiz-adv-x="195" 
 />
    <glyph glyph-name="uni2000" unicode="&#x2000;" horiz-adv-x="500" 
 />
    <glyph glyph-name="uni2001" unicode="&#x2001;" horiz-adv-x="1000" 
 />
    <glyph glyph-name="uni2002" unicode="&#x2002;" horiz-adv-x="500" 
 />
    <glyph glyph-name="uni2003" unicode="&#x2003;" horiz-adv-x="1000" 
 />
    <glyph glyph-name="uni2004" unicode="&#x2004;" horiz-adv-x="333" 
 />
    <glyph glyph-name="uni2005" unicode="&#x2005;" horiz-adv-x="250" 
 />
    <glyph glyph-name="uni2006" unicode="&#x2006;" horiz-adv-x="167" 
 />
    <glyph glyph-name="uni2007" unicode="&#x2007;" horiz-adv-x="660" 
 />
    <glyph glyph-name="uni2008" unicode="&#x2008;" horiz-adv-x="235" 
 />
    <glyph glyph-name="uni2009" unicode="&#x2009;" horiz-adv-x="200" 
 />
    <glyph glyph-name="uni200A" unicode="&#x200a;" horiz-adv-x="125" 
 />
    <glyph glyph-name="uni200B" unicode="&#x200b;" 
 />
    <glyph glyph-name="uniFEFF" unicode="&#xfeff;" 
 />
    <glyph glyph-name="zero" unicode="0" horiz-adv-x="649" 
d="M324 -16q-83 0 -143.5 44.5t-92.5 128t-32 200.5q0 177 71.5 275.5t196.5 98.5q126 0 197.5 -98.5t71.5 -275.5q0 -117 -32 -200.5t-92 -128t-145 -44.5zM324 64q82 0 126.5 75.5t44.5 217.5q0 143 -44.5 218.5t-126.5 75.5q-81 0 -126 -75.5t-45 -218.5
q0 -142 45 -217.5t126 -75.5z" />
    <glyph glyph-name="one" unicode="1" horiz-adv-x="466" 
d="M267 715h87v-715h-94v614l-182 -138v99z" />
    <glyph glyph-name="two" unicode="2" horiz-adv-x="598" 
d="M529 0h-479v78l255 238q61 58 93.5 105t32.5 97q0 37 -17.5 67t-48.5 48t-72 18q-57 0 -104 -31.5t-82 -88.5l-65 61q51 69 114.5 104t140.5 35q69 0 120 -28.5t79.5 -76.5t28.5 -109q0 -46 -19.5 -88t-57.5 -86t-97 -97q-30 -28 -61 -56.5t-61.5 -56.5t-60.5 -55h361
v-78z" />
    <glyph glyph-name="three" unicode="3" horiz-adv-x="607" 
d="M35 111l65 61q36 -50 86 -79t113 -29q73 0 117.5 38.5t44.5 98.5q0 41 -22 70.5t-60 45t-86 15.5h-69v80h69q42 0 75.5 15t53 41.5t19.5 61.5q0 54 -38.5 87.5t-100.5 33.5q-58 0 -103 -28.5t-79 -79.5l-65 61q48 60 110.5 93.5t137.5 33.5q70 0 122.5 -26t82.5 -70.5
t30 -100.5q0 -50 -30.5 -90t-85 -62.5t-125.5 -22.5l14 37q73 0 129 -25.5t87 -69.5t31 -102q0 -61 -32.5 -109.5t-90.5 -77t-134 -28.5q-81 0 -148.5 33.5t-117.5 93.5z" />
    <glyph glyph-name="four" unicode="4" horiz-adv-x="653" 
d="M507 0h-93v171h-373v76l373 468h93v-468h107v-76h-107v-171zM414 595l-278 -348h278v348z" />
    <glyph glyph-name="five" unicode="5" horiz-adv-x="599" 
d="M103 182q34 -53 81.5 -85.5t110.5 -32.5q49 0 85.5 23t58 62.5t21.5 87.5q0 47 -20.5 83t-56.5 56.5t-83 20.5q-50 0 -89 -23.5t-68 -64.5l-35 3q12 50 40.5 86.5t71.5 57t97 20.5q69 0 123 -31t85 -85t31 -123q0 -73 -34 -130.5t-92.5 -90t-132.5 -32.5q-82 0 -147 35
t-112 103zM510 637h-362l37 33l-42 -361h-84l47 406h404v-78z" />
    <glyph glyph-name="six" unicode="6" horiz-adv-x="627" 
d="M314 -16q-79 0 -138.5 34.5t-92.5 95t-33 138.5q0 77 33 154.5t99 154.5t164 154h130q-98 -75 -162.5 -137t-101 -117t-53.5 -110l-18 9q28 51 78.5 82t114.5 31q67 0 123 -30.5t89.5 -84.5t33.5 -124q0 -71 -34.5 -127.5t-94.5 -89.5t-137 -33zM314 64q50 0 88 22.5
t60.5 60t22.5 85.5q0 47 -22.5 84t-60.5 58.5t-88 21.5q-48 0 -86.5 -21.5t-60.5 -58.5t-22 -84q0 -48 22 -85.5t60.5 -60t86.5 -22.5z" />
    <glyph glyph-name="seven" unicode="7" horiz-adv-x="597" 
d="M545 715v-80l-352 -635h-105l356 635h-392v80h493z" />
    <glyph glyph-name="eight" unicode="8" horiz-adv-x="630" 
d="M315 -16q-77 0 -137.5 27.5t-95 75t-34.5 109.5q0 59 35 105.5t95 72.5t137 26q78 0 138 -26t94.5 -72.5t34.5 -105.5q0 -62 -34.5 -109.5t-94 -75t-138.5 -27.5zM315 355q-69 0 -123.5 23t-85.5 64t-31 92q0 57 31 101.5t85 70t124 25.5t124.5 -25.5t85 -70t30.5 -101.5
q0 -51 -31 -92t-85 -64t-124 -23zM315 64q48 0 86.5 17t61 47.5t22.5 69.5t-22.5 69t-61 47.5t-86.5 17.5q-47 0 -85.5 -17.5t-61.5 -47.5t-23 -69t23 -69.5t61.5 -47.5t85.5 -17zM315 411q41 0 73.5 15.5t52 42.5t19.5 61q0 35 -19.5 62.5t-52 43.5t-73.5 16q-40 0 -73 -16
t-52 -43.5t-19 -62.5q0 -34 19 -61t52 -42.5t73 -15.5z" />
    <glyph glyph-name="nine" unicode="9" horiz-adv-x="627" 
d="M312 731q80 0 139 -34.5t92.5 -94.5t33.5 -139q0 -77 -33 -154.5t-99 -154t-164 -154.5h-130q99 75 163 137t100.5 117.5t52.5 109.5l18 -9q-27 -51 -77.5 -82t-114.5 -31q-67 0 -123 30.5t-89.5 84.5t-33.5 124q0 71 34.5 127.5t94.5 89.5t136 33zM312 651
q-49 0 -87.5 -22t-61 -60t-22.5 -86q0 -46 22.5 -83.5t61 -59t87.5 -21.5q50 0 88 21.5t60 59t22 83.5q0 48 -22 86t-60 60t-88 22z" />
    <glyph glyph-name="zero.dnom" horiz-adv-x="438" 
d="M219 -9q-78 0 -121.5 56.5t-43.5 156.5q0 101 43.5 157t121.5 56t121.5 -56t43.5 -157q0 -100 -43.5 -156.5t-121.5 -56.5zM219 56q42 0 64 37.5t22 110.5t-22 110.5t-64 37.5t-64 -37.5t-22 -110.5t22 -110.5t64 -37.5z" />
    <glyph glyph-name="one.dnom" horiz-adv-x="366" 
d="M190 411h66v-411h-79v324l-101 -73v79z" />
    <glyph glyph-name="two.dnom" horiz-adv-x="418" 
d="M350 0h-303v57l149 132q34 30 51.5 53.5t17.5 49.5q0 25 -18.5 42.5t-49.5 17.5q-28 0 -55.5 -18t-47.5 -52l-54 50q32 42 72.5 63.5t88.5 21.5q42 0 74.5 -16.5t50 -44.5t17.5 -63q0 -41 -26 -77t-78 -82q-30 -27 -52 -46t-45 -37l-5 13h213v-64z" />
    <glyph glyph-name="three.dnom" horiz-adv-x="403" 
d="M33 69l50 49q23 -31 51.5 -47t61.5 -16q38 0 60.5 18.5t22.5 45.5t-23.5 44.5t-65.5 17.5h-33v63h33q34 0 56 15t22 40q0 23 -19.5 38.5t-50.5 15.5q-30 0 -56.5 -16t-47.5 -46l-49 47q27 37 69 58t90 21q42 0 73.5 -15.5t50 -40.5t18.5 -56q0 -46 -41.5 -74.5
t-112.5 -28.5l2 26q76 0 119.5 -31.5t43.5 -82.5q0 -33 -19.5 -61.5t-55 -45t-82.5 -16.5q-51 0 -95 21t-72 57z" />
    <glyph glyph-name="four.dnom" horiz-adv-x="436" 
d="M338 0h-77v91h-222v63l222 254h77v-254h61v-63h-61v-91zM261 318l-142 -164h142v164z" />
    <glyph glyph-name="five.dnom" horiz-adv-x="396" 
d="M37 69l49 50q24 -33 49.5 -48.5t59.5 -15.5q36 0 59.5 23.5t23.5 56.5q0 31 -23 52t-57 21q-26 0 -45 -8.5t-33 -23.5l-28 2q10 43 41 68.5t75 25.5q64 0 105.5 -38.5t41.5 -98.5q0 -41 -21 -74t-56.5 -51.5t-81.5 -18.5q-101 0 -159 78zM327 344h-207l25 39l-25 -207
h-71l30 232h248v-64z" />
    <glyph glyph-name="six.dnom" horiz-adv-x="418" 
d="M210 -9q-49 0 -85.5 19.5t-57 54t-20.5 79.5q0 44 20.5 88t61 88t100.5 88h106q-90 -64 -138.5 -112.5t-63.5 -95.5l-12 5q14 29 40 47t61 18q41 0 75 -17.5t55 -48.5t21 -71t-21.5 -72.5t-58 -51t-83.5 -18.5zM210 56q37 0 61.5 22t24.5 54q0 33 -24.5 54.5t-61.5 21.5
q-38 0 -62.5 -21.5t-24.5 -54.5q0 -32 24.5 -54t62.5 -22z" />
    <glyph glyph-name="seven.dnom" horiz-adv-x="401" 
d="M352 408v-65l-213 -343h-84l216 343h-222v65h303z" />
    <glyph glyph-name="eight.dnom" horiz-adv-x="420" 
d="M210 -9q-72 0 -118 34t-46 87t46 85.5t118 32.5q73 0 118.5 -32.5t45.5 -85.5t-46 -87t-118 -34zM210 201q-65 0 -106.5 30.5t-41.5 76.5q0 47 41.5 78t106.5 31q64 0 105.5 -31t41.5 -78q0 -46 -41 -76.5t-106 -30.5zM210 55q37 0 61.5 17t24.5 45q0 27 -24.5 45.5
t-61.5 18.5q-36 0 -61 -18.5t-25 -46.5q0 -27 25 -44t61 -17zM210 242q30 0 50 16.5t20 40.5q0 25 -20 39.5t-50 14.5q-29 0 -49.5 -15t-20.5 -40q0 -23 20.5 -39.5t49.5 -16.5z" />
    <glyph glyph-name="nine.dnom" horiz-adv-x="418" 
d="M208 417q49 0 85.5 -19.5t57 -54t20.5 -79.5q0 -44 -20.5 -88t-60.5 -88t-101 -88h-107q92 64 140.5 113t62.5 95l11 -5q-14 -29 -40 -47t-61 -18q-40 0 -74.5 17.5t-55 48.5t-20.5 71q0 41 21.5 73t58.5 50.5t83 18.5zM208 352q-37 0 -62 -21.5t-25 -54.5q0 -32 25 -54
t62 -22t61.5 22t24.5 54q0 33 -24.5 54.5t-61.5 21.5z" />
    <glyph glyph-name="zero.numr" horiz-adv-x="438" 
d="M219 295q-78 0 -121.5 56.5t-43.5 156.5q0 101 43.5 157t121.5 56t121.5 -56t43.5 -157q0 -100 -43.5 -156.5t-121.5 -56.5zM219 360q42 0 64 37.5t22 110.5t-22 110.5t-64 37.5t-64 -37.5t-22 -110.5t22 -110.5t64 -37.5z" />
    <glyph glyph-name="one.numr" horiz-adv-x="366" 
d="M190 715h66v-411h-79v324l-101 -73v79z" />
    <glyph glyph-name="two.numr" horiz-adv-x="418" 
d="M350 304h-303v57l149 132q34 30 51.5 53.5t17.5 49.5q0 25 -18.5 42.5t-49.5 17.5q-28 0 -55.5 -18t-47.5 -52l-54 50q32 42 72.5 63.5t88.5 21.5q42 0 74.5 -16.5t50 -44.5t17.5 -63q0 -41 -26 -77t-78 -82q-30 -27 -52 -46t-45 -37l-5 13h213v-64z" />
    <glyph glyph-name="three.numr" horiz-adv-x="403" 
d="M33 373l50 49q23 -31 51.5 -47t61.5 -16q38 0 60.5 18.5t22.5 45.5t-23.5 44.5t-65.5 17.5h-33v63h33q34 0 56 15t22 40q0 23 -19.5 38.5t-50.5 15.5q-30 0 -56.5 -16t-47.5 -46l-49 47q27 37 69 58t90 21q42 0 73.5 -15.5t50 -40.5t18.5 -56q0 -46 -41.5 -74.5
t-112.5 -28.5l2 26q76 0 119.5 -31.5t43.5 -82.5q0 -33 -19.5 -61.5t-55 -45t-82.5 -16.5q-51 0 -95 21t-72 57z" />
    <glyph glyph-name="four.numr" horiz-adv-x="436" 
d="M338 304h-77v91h-222v63l222 254h77v-254h61v-63h-61v-91zM261 622l-142 -164h142v164z" />
    <glyph glyph-name="five.numr" horiz-adv-x="396" 
d="M37 373l49 50q24 -33 49.5 -48.5t59.5 -15.5q36 0 59.5 23.5t23.5 56.5q0 31 -23 52t-57 21q-26 0 -45 -8.5t-33 -23.5l-28 2q10 43 41 68.5t75 25.5q64 0 105.5 -38.5t41.5 -98.5q0 -41 -21 -74t-56.5 -51.5t-81.5 -18.5q-101 0 -159 78zM327 648h-207l25 39l-25 -207
h-71l30 232h248v-64z" />
    <glyph glyph-name="six.numr" horiz-adv-x="418" 
d="M210 295q-49 0 -85.5 19.5t-57 54t-20.5 79.5q0 44 20.5 88t61 88t100.5 88h106q-90 -64 -138.5 -112.5t-63.5 -95.5l-12 5q14 29 40 47t61 18q41 0 75 -17.5t55 -48.5t21 -71t-21.5 -72.5t-58 -51t-83.5 -18.5zM210 360q37 0 61.5 22t24.5 54q0 33 -24.5 54.5
t-61.5 21.5q-38 0 -62.5 -21.5t-24.5 -54.5q0 -32 24.5 -54t62.5 -22z" />
    <glyph glyph-name="seven.numr" horiz-adv-x="401" 
d="M352 712v-65l-213 -343h-84l216 343h-222v65h303z" />
    <glyph glyph-name="eight.numr" horiz-adv-x="420" 
d="M210 295q-72 0 -118 34t-46 87t46 85.5t118 32.5q73 0 118.5 -32.5t45.5 -85.5t-46 -87t-118 -34zM210 505q-65 0 -106.5 30.5t-41.5 76.5q0 47 41.5 78t106.5 31q64 0 105.5 -31t41.5 -78q0 -46 -41 -76.5t-106 -30.5zM210 359q37 0 61.5 17t24.5 45q0 27 -24.5 45.5
t-61.5 18.5q-36 0 -61 -18.5t-25 -46.5q0 -27 25 -44t61 -17zM210 546q30 0 50 16.5t20 40.5q0 25 -20 39.5t-50 14.5q-29 0 -49.5 -15t-20.5 -40q0 -23 20.5 -39.5t49.5 -16.5z" />
    <glyph glyph-name="nine.numr" horiz-adv-x="418" 
d="M208 721q49 0 85.5 -19.5t57 -54t20.5 -79.5q0 -44 -20.5 -88t-60.5 -88t-101 -88h-107q92 64 140.5 113t62.5 95l11 -5q-14 -29 -40 -47t-61 -18q-40 0 -74.5 17.5t-55 48.5t-20.5 71q0 41 21.5 73t58.5 50.5t83 18.5zM208 656q-37 0 -62 -21.5t-25 -54.5q0 -32 25 -54
t62 -22t61.5 22t24.5 54q0 33 -24.5 54.5t-61.5 21.5z" />
    <glyph glyph-name="uni2080" unicode="&#x2080;" horiz-adv-x="438" 
d="M219 -109q-78 0 -121.5 56.5t-43.5 156.5q0 101 43.5 157t121.5 56t121.5 -56t43.5 -157q0 -100 -43.5 -156.5t-121.5 -56.5zM219 -44q42 0 64 37.5t22 110.5t-22 110.5t-64 37.5t-64 -37.5t-22 -110.5t22 -110.5t64 -37.5z" />
    <glyph glyph-name="uni2081" unicode="&#x2081;" horiz-adv-x="366" 
d="M190 311h66v-411h-79v324l-101 -73v79z" />
    <glyph glyph-name="uni2082" unicode="&#x2082;" horiz-adv-x="418" 
d="M350 -100h-303v57l149 132q34 30 51.5 53.5t17.5 49.5q0 25 -18.5 42.5t-49.5 17.5q-28 0 -55.5 -18t-47.5 -52l-54 50q32 42 72.5 63.5t88.5 21.5q42 0 74.5 -16.5t50 -44.5t17.5 -63q0 -41 -26 -77t-78 -82q-30 -27 -52 -46t-45 -37l-5 13h213v-64z" />
    <glyph glyph-name="uni2083" unicode="&#x2083;" horiz-adv-x="403" 
d="M33 -31l50 49q23 -31 51.5 -47t61.5 -16q38 0 60.5 18.5t22.5 45.5t-23.5 44.5t-65.5 17.5h-33v63h33q34 0 56 15t22 40q0 23 -19.5 38.5t-50.5 15.5q-30 0 -56.5 -16t-47.5 -46l-49 47q27 37 69 58t90 21q42 0 73.5 -15.5t50 -40.5t18.5 -56q0 -46 -41.5 -74.5
t-112.5 -28.5l2 26q76 0 119.5 -31.5t43.5 -82.5q0 -33 -19.5 -61.5t-55 -45t-82.5 -16.5q-51 0 -95 21t-72 57z" />
    <glyph glyph-name="uni2084" unicode="&#x2084;" horiz-adv-x="436" 
d="M338 -100h-77v91h-222v63l222 254h77v-254h61v-63h-61v-91zM261 218l-142 -164h142v164z" />
    <glyph glyph-name="uni2085" unicode="&#x2085;" horiz-adv-x="396" 
d="M37 -31l49 50q24 -33 49.5 -48.5t59.5 -15.5q36 0 59.5 23.5t23.5 56.5q0 31 -23 52t-57 21q-26 0 -45 -8.5t-33 -23.5l-28 2q10 43 41 68.5t75 25.5q64 0 105.5 -38.5t41.5 -98.5q0 -41 -21 -74t-56.5 -51.5t-81.5 -18.5q-101 0 -159 78zM327 244h-207l25 39l-25 -207
h-71l30 232h248v-64z" />
    <glyph glyph-name="uni2086" unicode="&#x2086;" horiz-adv-x="418" 
d="M210 -109q-49 0 -85.5 19.5t-57 54t-20.5 79.5q0 44 20.5 88t61 88t100.5 88h106q-90 -64 -138.5 -112.5t-63.5 -95.5l-12 5q14 29 40 47t61 18q41 0 75 -17.5t55 -48.5t21 -71t-21.5 -72.5t-58 -51t-83.5 -18.5zM210 -44q37 0 61.5 22t24.5 54q0 33 -24.5 54.5
t-61.5 21.5q-38 0 -62.5 -21.5t-24.5 -54.5q0 -32 24.5 -54t62.5 -22z" />
    <glyph glyph-name="uni2087" unicode="&#x2087;" horiz-adv-x="401" 
d="M352 308v-65l-213 -343h-84l216 343h-222v65h303z" />
    <glyph glyph-name="uni2088" unicode="&#x2088;" horiz-adv-x="420" 
d="M210 -109q-72 0 -118 34t-46 87t46 85.5t118 32.5q73 0 118.5 -32.5t45.5 -85.5t-46 -87t-118 -34zM210 101q-65 0 -106.5 30.5t-41.5 76.5q0 47 41.5 78t106.5 31q64 0 105.5 -31t41.5 -78q0 -46 -41 -76.5t-106 -30.5zM210 -45q37 0 61.5 17t24.5 45q0 27 -24.5 45.5
t-61.5 18.5q-36 0 -61 -18.5t-25 -46.5q0 -27 25 -44t61 -17zM210 142q30 0 50 16.5t20 40.5q0 25 -20 39.5t-50 14.5q-29 0 -49.5 -15t-20.5 -40q0 -23 20.5 -39.5t49.5 -16.5z" />
    <glyph glyph-name="uni2089" unicode="&#x2089;" horiz-adv-x="418" 
d="M208 317q49 0 85.5 -19.5t57 -54t20.5 -79.5q0 -44 -20.5 -88t-60.5 -88t-101 -88h-107q92 64 140.5 113t62.5 95l11 -5q-14 -29 -40 -47t-61 -18q-40 0 -74.5 17.5t-55 48.5t-20.5 71q0 41 21.5 73t58.5 50.5t83 18.5zM208 252q-37 0 -62 -21.5t-25 -54.5q0 -32 25 -54
t62 -22t61.5 22t24.5 54q0 33 -24.5 54.5t-61.5 21.5z" />
    <glyph glyph-name="uni2070" unicode="&#x2070;" horiz-adv-x="438" 
d="M219 395q-78 0 -121.5 56.5t-43.5 156.5q0 101 43.5 157t121.5 56t121.5 -56t43.5 -157q0 -100 -43.5 -156.5t-121.5 -56.5zM219 460q42 0 64 37.5t22 110.5t-22 110.5t-64 37.5t-64 -37.5t-22 -110.5t22 -110.5t64 -37.5z" />
    <glyph glyph-name="uni00B9" unicode="&#xb9;" horiz-adv-x="366" 
d="M190 815h66v-411h-79v324l-101 -73v79z" />
    <glyph glyph-name="uni00B2" unicode="&#xb2;" horiz-adv-x="418" 
d="M350 404h-303v57l149 132q34 30 51.5 53.5t17.5 49.5q0 25 -18.5 42.5t-49.5 17.5q-28 0 -55.5 -18t-47.5 -52l-54 50q32 42 72.5 63.5t88.5 21.5q42 0 74.5 -16.5t50 -44.5t17.5 -63q0 -41 -26 -77t-78 -82q-30 -27 -52 -46t-45 -37l-5 13h213v-64z" />
    <glyph glyph-name="uni00B3" unicode="&#xb3;" horiz-adv-x="403" 
d="M33 473l50 49q23 -31 51.5 -47t61.5 -16q38 0 60.5 18.5t22.5 45.5t-23.5 44.5t-65.5 17.5h-33v63h33q34 0 56 15t22 40q0 23 -19.5 38.5t-50.5 15.5q-30 0 -56.5 -16t-47.5 -46l-49 47q27 37 69 58t90 21q42 0 73.5 -15.5t50 -40.5t18.5 -56q0 -46 -41.5 -74.5
t-112.5 -28.5l2 26q76 0 119.5 -31.5t43.5 -82.5q0 -33 -19.5 -61.5t-55 -45t-82.5 -16.5q-51 0 -95 21t-72 57z" />
    <glyph glyph-name="uni2074" unicode="&#x2074;" horiz-adv-x="436" 
d="M338 404h-77v91h-222v63l222 254h77v-254h61v-63h-61v-91zM261 722l-142 -164h142v164z" />
    <glyph glyph-name="uni2075" unicode="&#x2075;" horiz-adv-x="396" 
d="M37 473l49 50q24 -33 49.5 -48.5t59.5 -15.5q36 0 59.5 23.5t23.5 56.5q0 31 -23 52t-57 21q-26 0 -45 -8.5t-33 -23.5l-28 2q10 43 41 68.5t75 25.5q64 0 105.5 -38.5t41.5 -98.5q0 -41 -21 -74t-56.5 -51.5t-81.5 -18.5q-101 0 -159 78zM327 748h-207l25 39l-25 -207
h-71l30 232h248v-64z" />
    <glyph glyph-name="uni2076" unicode="&#x2076;" horiz-adv-x="418" 
d="M210 395q-49 0 -85.5 19.5t-57 54t-20.5 79.5q0 44 20.5 88t61 88t100.5 88h106q-90 -64 -138.5 -112.5t-63.5 -95.5l-12 5q14 29 40 47t61 18q41 0 75 -17.5t55 -48.5t21 -71t-21.5 -72.5t-58 -51t-83.5 -18.5zM210 460q37 0 61.5 22t24.5 54q0 33 -24.5 54.5
t-61.5 21.5q-38 0 -62.5 -21.5t-24.5 -54.5q0 -32 24.5 -54t62.5 -22z" />
    <glyph glyph-name="uni2077" unicode="&#x2077;" horiz-adv-x="401" 
d="M352 812v-65l-213 -343h-84l216 343h-222v65h303z" />
    <glyph glyph-name="uni2078" unicode="&#x2078;" horiz-adv-x="420" 
d="M210 395q-72 0 -118 34t-46 87t46 85.5t118 32.5q73 0 118.5 -32.5t45.5 -85.5t-46 -87t-118 -34zM210 605q-65 0 -106.5 30.5t-41.5 76.5q0 47 41.5 78t106.5 31q64 0 105.5 -31t41.5 -78q0 -46 -41 -76.5t-106 -30.5zM210 459q37 0 61.5 17t24.5 45q0 27 -24.5 45.5
t-61.5 18.5q-36 0 -61 -18.5t-25 -46.5q0 -27 25 -44t61 -17zM210 646q30 0 50 16.5t20 40.5q0 25 -20 39.5t-50 14.5q-29 0 -49.5 -15t-20.5 -40q0 -23 20.5 -39.5t49.5 -16.5z" />
    <glyph glyph-name="uni2079" unicode="&#x2079;" horiz-adv-x="418" 
d="M208 821q49 0 85.5 -19.5t57 -54t20.5 -79.5q0 -44 -20.5 -88t-60.5 -88t-101 -88h-107q92 64 140.5 113t62.5 95l11 -5q-14 -29 -40 -47t-61 -18q-40 0 -74.5 17.5t-55 48.5t-20.5 71q0 41 21.5 73t58.5 50.5t83 18.5zM208 756q-37 0 -62 -21.5t-25 -54.5q0 -32 25 -54
t62 -22t61.5 22t24.5 54q0 33 -24.5 54.5t-61.5 21.5z" />
    <glyph glyph-name="fraction" unicode="&#x2044;" horiz-adv-x="215" 
d="M-84 0h-99l482 715h99z" />
    <glyph glyph-name="zero.percent" horiz-adv-x="377" 
d="M188 -8q-45 0 -81 21t-57 57.5t-21 81.5t21 81.5t57 57.5t81 21q46 0 82 -21t57 -57.5t21 -81.5t-21 -81.5t-57 -57.5t-82 -21zM188 65q36 0 59 24.5t23 62.5t-23 62.5t-59 24.5q-35 0 -58 -24.5t-23 -62.5t23 -62.5t58 -24.5z" />
    <glyph glyph-name="percent" unicode="%" horiz-adv-x="771" 
d="M194 0h-99l482 715h99zM582 -8q-45 0 -81 21t-57 57.5t-21 81.5t21 81.5t57 57.5t81 21q46 0 82 -21t57 -57.5t21 -81.5t-21 -81.5t-57 -57.5t-82 -21zM582 65q36 0 59 24.5t23 62.5t-23 62.5t-59 24.5q-35 0 -58 -24.5t-23 -62.5t23 -62.5t58 -24.5zM188 403
q-45 0 -81 21t-57 57.5t-21 81.5t21 81.5t57 57.5t81 21q46 0 82 -21t57 -57.5t21 -81.5t-21 -81.5t-57 -57.5t-82 -21zM188 476q36 0 59 24.5t23 62.5t-23 62.5t-59 24.5q-35 0 -58 -24.5t-23 -62.5t23 -62.5t58 -24.5z" />
    <glyph glyph-name="perthousand" unicode="&#x2030;" horiz-adv-x="1128" 
d="M194 0h-99l482 715h99zM582 -8q-45 0 -81 21t-57 57.5t-21 81.5t21 81.5t57 57.5t81 21q46 0 82 -21t57 -57.5t21 -81.5t-21 -81.5t-57 -57.5t-82 -21zM582 65q36 0 59 24.5t23 62.5t-23 62.5t-59 24.5q-35 0 -58 -24.5t-23 -62.5t23 -62.5t58 -24.5zM939 -8
q-45 0 -81 21t-57 57.5t-21 81.5t21 81.5t57 57.5t81 21q46 0 82 -21t57 -57.5t21 -81.5t-21 -81.5t-57 -57.5t-82 -21zM939 65q36 0 59 24.5t23 62.5t-23 62.5t-59 24.5q-35 0 -58 -24.5t-23 -62.5t23 -62.5t58 -24.5zM188 403q-45 0 -81 21t-57 57.5t-21 81.5t21 81.5
t57 57.5t81 21q46 0 82 -21t57 -57.5t21 -81.5t-21 -81.5t-57 -57.5t-82 -21zM188 476q36 0 59 24.5t23 62.5t-23 62.5t-59 24.5q-35 0 -58 -24.5t-23 -62.5t23 -62.5t58 -24.5z" />
    <glyph glyph-name="onehalf" unicode="&#xbd;" horiz-adv-x="979" 
d="M269 0h-99l482 715h99zM911 0h-303v57l149 132q34 30 51.5 53.5t17.5 49.5q0 25 -18.5 42.5t-49.5 17.5q-28 0 -55.5 -18t-47.5 -52l-54 50q32 42 72.5 63.5t88.5 21.5q42 0 74.5 -16.5t50 -44.5t17.5 -63q0 -41 -26 -77t-78 -82q-30 -27 -52 -46t-45 -37l-5 13h213v-64z
M190 715h66v-411h-79v324l-101 -73v79z" />
    <glyph glyph-name="onequarter" unicode="&#xbc;" horiz-adv-x="941" 
d="M272 0h-99l482 715h99zM843 0h-77v91h-222v63l222 254h77v-254h61v-63h-61v-91zM766 318l-142 -164h142v164zM190 715h66v-411h-79v324l-101 -73v79z" />
    <glyph glyph-name="threequarters" unicode="&#xbe;" horiz-adv-x="978" 
d="M309 0h-99l482 715h99zM880 0h-77v91h-222v63l222 254h77v-254h61v-63h-61v-91zM803 318l-142 -164h142v164zM33 373l50 49q23 -31 51.5 -47t61.5 -16q38 0 60.5 18.5t22.5 45.5t-23.5 44.5t-65.5 17.5h-33v63h33q34 0 56 15t22 40q0 23 -19.5 38.5t-50.5 15.5
q-30 0 -56.5 -16t-47.5 -46l-49 47q27 37 69 58t90 21q42 0 73.5 -15.5t50 -40.5t18.5 -56q0 -46 -41.5 -74.5t-112.5 -28.5l2 26q76 0 119.5 -31.5t43.5 -82.5q0 -33 -19.5 -61.5t-55 -45t-82.5 -16.5q-51 0 -95 21t-72 57z" />
    <glyph glyph-name="dollar" unicode="$" horiz-adv-x="660" 
d="M57 122l63 60q39 -52 93.5 -81.5t122.5 -29.5q52 0 93.5 16.5t65.5 46t24 68.5q0 36 -19 60t-60.5 40.5t-108.5 26.5q-131 20 -190 66t-59 127q0 58 33 103t90 70.5t128 25.5q75 0 140.5 -34t112.5 -94l-63 -60q-35 53 -83.5 82t-105.5 29q-74 0 -119 -33t-45 -86
q0 -33 17 -55.5t53.5 -37t95.5 -24.5q145 -21 207.5 -69.5t62.5 -134.5q0 -62 -36 -109.5t-97 -74t-136 -26.5q-89 0 -159.5 34t-120.5 94zM372 375h-66v456h66v-456zM371 -116h-66v481h66v-481z" />
    <glyph glyph-name="cent" unicode="&#xa2;" horiz-adv-x="660" 
d="M506 139l60 -58q-36 -45 -88.5 -71t-119.5 -26q-76 0 -135.5 34t-94 93.5t-34.5 136.5q0 76 34.5 135.5t94.5 94t136 34.5q67 0 119.5 -26t87.5 -71l-60 -58q-23 34 -58.5 55.5t-85.5 21.5q-51 0 -90 -23.5t-61.5 -65.5t-22.5 -97t22.5 -97t61.5 -66t90 -24q50 0 85.5 22
t58.5 56zM390 -116h-66v728h66v-728z" />
    <glyph glyph-name="sterling" unicode="&#xa3;" horiz-adv-x="660" 
d="M612 0h-549v78h549v-78zM500 314h-427v76h427v-76zM613 611l-65 -59q-32 51 -67.5 75t-80.5 24q-64 0 -99 -43.5t-35 -116.5v-451h-92v449q0 72 27 126.5t78 85t121 30.5q68 0 121.5 -31t91.5 -89z" />
    <glyph glyph-name="yen" unicode="&#xa5;" horiz-adv-x="660" 
d="M376 0h-92v316l-258 399h106l212 -342h-26l213 342h103l-258 -401v-314zM548 119h-435v72h435v-72zM548 277h-435v73h435v-73z" />
    <glyph glyph-name="Euro" unicode="&#x20ac;" horiz-adv-x="660" 
d="M579 169l63 -60q-45 -58 -108.5 -91.5t-138.5 -33.5q-91 0 -160.5 47.5t-108.5 131.5t-39 194q0 112 39.5 195.5t110 131t161.5 47.5q74 0 137.5 -33.5t107.5 -91.5l-62 -60q-33 47 -80 75t-103 28q-98 0 -157 -76.5t-59 -215.5q0 -90 26.5 -155.5t75 -100.5t113.5 -35
q56 0 102.5 28.5t79.5 74.5zM456 243h-437v73h450zM485 402h-466v72h480z" />
    <glyph glyph-name="uni20BA" unicode="&#x20ba;" horiz-adv-x="660" 
d="M133 0v715h92v-636h68q118 0 180 61t62 189v19l92 -6v-10q0 -168 -86 -250t-251 -82h-157zM415 371l-387 -163v77l387 163v-77zM415 535l-387 -163v77l387 163v-77z" />
    <glyph glyph-name="uni20B9" unicode="&#x20b9;" horiz-adv-x="660" 
d="M52 639v56h237q73 0 127 -23t84.5 -64.5t30.5 -96.5q0 -61 -30.5 -107t-84.5 -71.5t-127 -25.5h-236v76h236q71 0 111 34t40 94t-40 94t-111 34h-237zM611 0h-151l-407 307l127 10zM585 473h-533v76h548zM616 639h-564v76h578z" />
    <glyph glyph-name="uni20BD" unicode="&#x20bd;" horiz-adv-x="660" 
d="M246 0h-93v715h236q73 0 127 -25.5t84.5 -71.5t30.5 -107t-30.5 -107t-84.5 -71.5t-127 -25.5h-354v76h354q69 0 109 34t40 94t-40 94t-109 34h-143v-639zM475 204v-76h-440v76h440z" />
    <glyph glyph-name="currency" unicode="&#xa4;" horiz-adv-x="617" 
d="M309 231q39 0 70 19t49 51.5t18 74.5q0 41 -18 74t-49 51.5t-70 18.5t-70.5 -18.5t-49.5 -51.5t-18 -74q0 -42 18 -74.5t49.5 -51.5t70.5 -19zM309 161q-36 0 -68 10.5t-58 28.5l-74 -74l-48 48l74 73q-19 27 -30.5 59.5t-11.5 69.5q0 36 11.5 69t30.5 59l-74 74l48 48
l74 -75q26 19 58 29.5t68 10.5q35 0 67 -10.5t58 -29.5l75 75l47 -48l-73 -74q19 -26 30 -59t11 -69q0 -37 -11 -69.5t-30 -59.5l73 -73l-47 -48l-75 74q-26 -18 -58 -28.5t-67 -10.5z" />
    <glyph glyph-name="dong" unicode="&#x20ab;" horiz-adv-x="652" 
d="M291 139q-55 0 -99.5 26.5t-71 72.5t-26.5 106q0 59 26 105t70 72.5t100 26.5q65 0 108.5 -36.5t52.5 -96.5h-22v300h88v-563h-87v96l-1 5v85q0 59 -34.5 97.5t-88.5 38.5q-53 0 -87 -36.5t-34 -93.5t35 -93.5t90 -36.5q49 0 85 28.5t41 74.5l19 -15q4 -45 -16 -82
t-58 -59t-90 -22zM109 1v72h408v-72h-408zM316 597v60h269v-60h-269z" />
    <glyph glyph-name="asciicircum" unicode="^" horiz-adv-x="660" 
d="M300 715h83l182 -361h-91zM277 715h80l-176 -361h-86z" />
    <glyph glyph-name="plus" unicode="+" horiz-adv-x="660" 
d="M541 319h-422v76h422v-76zM368 146h-76v422h76v-422z" />
    <glyph glyph-name="minus" unicode="&#x2212;" horiz-adv-x="660" 
d="M543 319h-426v76h426v-76z" />
    <glyph glyph-name="plusminus" unicode="&#xb1;" horiz-adv-x="660" 
d="M541 327h-422v76h422v-76zM368 154h-76v422h76v-422zM543 0h-426v76h426v-76z" />
    <glyph glyph-name="equal" unicode="=" horiz-adv-x="660" 
d="M533 214h-406v77h406v-77zM533 423h-406v77h406v-77z" />
    <glyph glyph-name="divide" unicode="&#xf7;" horiz-adv-x="660" 
d="M561 319h-462v76h462v-76zM330 460q-25 0 -43 17.5t-18 42.5q0 26 18 43.5t43 17.5q26 0 43.5 -17.5t17.5 -43.5q0 -25 -17.5 -42.5t-43.5 -17.5zM330 133q-25 0 -43 17.5t-18 42.5q0 26 18 43.5t43 17.5q26 0 43.5 -17.5t17.5 -43.5q0 -25 -17.5 -42.5t-43.5 -17.5z" />
    <glyph glyph-name="less" unicode="&#x3c;" horiz-adv-x="660" 
d="M121 389l418 -171v-88l-418 178v81zM121 412l418 176v-85l-418 -170v79z" />
    <glyph glyph-name="greater" unicode="&#x3e;" horiz-adv-x="660" 
d="M121 500v88l418 -177v-81zM121 130v85l418 170v-78z" />
    <glyph glyph-name="asciitilde" unicode="~" horiz-adv-x="660" 
d="M498 445l72 -32q-18 -78 -51.5 -113.5t-87.5 -35.5q-20 0 -48.5 12t-66.5 43q-28 21 -43.5 32t-25 14.5t-17.5 3.5q-27 0 -43.5 -26t-25.5 -74l-72 32q18 78 51.5 113.5t87.5 35.5q20 0 48.5 -12t67.5 -43q27 -21 42.5 -32t25 -14.5t17.5 -3.5q28 0 44.5 26.5t24.5 73.5z
" />
    <glyph glyph-name="logicalnot" unicode="&#xac;" horiz-adv-x="660" 
d="M543 168h-76v151h-350v76h426v-227z" />
    <glyph glyph-name="multiply" unicode="&#xd7;" horiz-adv-x="660" 
d="M525 214l-52 -52l-338 339l52 52zM473 553l52 -52l-338 -339l-52 52z" />
    <glyph glyph-name="underscore" unicode="_" horiz-adv-x="500" 
d="M500 -135h-500v76h500v-76z" />
    <glyph glyph-name="section" unicode="&#xa7;" horiz-adv-x="590" 
d="M523 306q0 -46 -26.5 -82.5t-71.5 -57.5q36 -22 55 -53.5t19 -76.5q0 -46 -26 -83t-71.5 -59t-102.5 -22q-65 0 -123.5 25t-96.5 67l48 56q30 -33 75.5 -54t96.5 -21t84 25.5t33 61.5q0 43 -29.5 67t-91.5 39q-101 24 -153.5 61.5t-52.5 103.5q0 46 27 82t72 58
q-74 45 -74 122q0 48 25.5 85.5t68.5 59t97 21.5q60 0 114 -25t90 -66l-50 -56q-27 32 -66 53.5t-87 21.5q-47 0 -77.5 -24.5t-30.5 -65.5q0 -36 29 -59.5t91 -38.5q102 -24 153.5 -61t51.5 -104zM440 298q-1 37 -34 58.5t-99 38.5l-49 13q-34 -12 -59.5 -36t-25.5 -59
q0 -38 33 -60t100 -39l48 -13q35 12 60.5 36.5t25.5 60.5z" />
    <glyph glyph-name="paragraph" unicode="&#xb6;" horiz-adv-x="633" 
d="M345 -130h-86v419q-63 5 -111 33t-75 74.5t-27 104.5q0 64 31.5 112t88.5 75t132 27h246v-845h-86v766h-113v-766z" />
    <glyph glyph-name="numbersign" unicode="#" horiz-adv-x="674" 
d="M431 0h-82l152 715h82zM563 190h-523l15 71h523zM243 715h82l-152 -715h-82zM111 525h523l-15 -71h-523z" />
    <glyph glyph-name="bar" unicode="|" horiz-adv-x="222" 
d="M157 -129h-92v865h92v-865z" />
    <glyph glyph-name="dagger" unicode="&#x2020;" horiz-adv-x="481" 
d="M288 -129h-92v865h92v-865zM432 419h-383v76h383v-76z" />
    <glyph glyph-name="daggerdbl" unicode="&#x2021;" horiz-adv-x="481" 
d="M288 -129h-92v865h92v-865zM432 419h-383v76h383v-76zM49 188h383v-76h-383v76z" />
    <glyph glyph-name="degree" unicode="&#xb0;" horiz-adv-x="457" 
d="M229 384q-48 0 -87.5 23.5t-63 63.5t-23.5 87q0 48 23.5 87t63 62.5t87.5 23.5t87 -23.5t63 -62.5t24 -87q0 -47 -24 -87t-63 -63.5t-87 -23.5zM229 455q41 0 69 29.5t28 73.5q0 43 -28 72.5t-69 29.5t-69.5 -29.5t-28.5 -72.5q0 -44 28.5 -73.5t69.5 -29.5z" />
    <glyph glyph-name="arrowup" unicode="&#x2191;" horiz-adv-x="752" 
d="M413 643v-643h-74v643h74zM100 374v101l276 256l276 -256v-101l-276 257z" />
    <glyph glyph-name="arrowdown" unicode="&#x2193;" horiz-adv-x="752" 
d="M413 715v-643h-74v643h74zM100 240v101l276 -257l276 257v-101l-276 -256z" />
    <glyph glyph-name="arrowleft" unicode="&#x2190;" horiz-adv-x="931" 
d="M460 0h-104l-256 246l256 246h104l-252 -246zM831 210h-638v72h638v-72z" />
    <glyph glyph-name="arrowright" unicode="&#x2192;" horiz-adv-x="931" 
d="M575 0h-104l252 246l-252 246h104l256 -246zM738 210h-638v72h638v-72z" />
    <glyph glyph-name="triagup" unicode="&#x25b2;" horiz-adv-x="752" 
d="M100 66v102l276 256l276 -256v-102l-276 252z" />
    <glyph glyph-name="triagdn" unicode="&#x25bc;" horiz-adv-x="752" 
d="M100 322v102l276 -252l276 252v-102l-276 -256z" />
    <glyph glyph-name="uni25C0" unicode="&#x25c0;" horiz-adv-x="562" 
d="M462 0h-106l-256 246l256 246h106l-252 -246z" />
    <glyph glyph-name="uni25B6" unicode="&#x25b6;" horiz-adv-x="562" 
d="M206 0h-106l252 246l-252 246h106l256 -246z" />
    <glyph glyph-name="hyphen" unicode="-" horiz-adv-x="335" 
d="M303 244h-272v81h272v-81z" />
    <glyph glyph-name="uni2010" unicode="&#x2010;" horiz-adv-x="335" 
d="M303 244h-272v81h272v-81z" />
    <glyph glyph-name="uni2011" unicode="&#x2011;" horiz-adv-x="335" 
d="M303 244h-272v81h272v-81z" />
    <glyph glyph-name="endash" unicode="&#x2013;" horiz-adv-x="500" 
d="M500 239h-500v76h500v-76z" />
    <glyph glyph-name="emdash" unicode="&#x2014;" horiz-adv-x="1000" 
d="M1000 239h-1000v76h1000v-76z" />
    <glyph glyph-name="parenleft" unicode="(" horiz-adv-x="325" 
d="M57 301q0 120 37 229t106 201h89q-71 -104 -106.5 -210.5t-35.5 -219.5q0 -222 142 -430h-89q-69 92 -106 201t-37 229z" />
    <glyph glyph-name="parenright" unicode=")" horiz-adv-x="325" 
d="M268 301q0 -120 -36.5 -229t-106.5 -201h-90q143 208 143 430q0 113 -35.5 219.5t-107.5 210.5h90q70 -92 106.5 -201t36.5 -229z" />
    <glyph glyph-name="slash" unicode="/" horiz-adv-x="491" 
d="M144 0h-88l291 731h88z" />
    <glyph glyph-name="backslash" unicode="\" horiz-adv-x="491" 
d="M435 0h-88l-291 731h88z" />
    <glyph glyph-name="bracketleft" unicode="[" horiz-adv-x="318" 
d="M276 -129h-211v860h211v-75h-119v-710h119v-75z" />
    <glyph glyph-name="bracketright" unicode="]" horiz-adv-x="318" 
d="M253 -129h-211v75h119v710h-119v75h211v-860z" />
    <glyph glyph-name="braceleft" unicode="{" horiz-adv-x="390" 
d="M348 -54v-75h-84q-126 0 -126 126v208q0 31 -14 45t-45 14h-37v76h37q31 0 45 14t14 45v206q0 126 126 126h84v-75h-60q-31 0 -44.5 -14t-13.5 -46v-180q0 -126 -127 -126v24q127 0 127 -127v-181q0 -31 13.5 -45.5t44.5 -14.5h60z" />
    <glyph glyph-name="braceright" unicode="}" horiz-adv-x="390" 
d="M42 -129v75h60q31 0 45 14.5t14 45.5v181q0 127 126 127v-24q-126 0 -126 126v180q0 32 -14 46t-45 14h-60v75h85q126 0 126 -126v-206q0 -31 13.5 -45t45.5 -14h36v-76h-36q-32 0 -45.5 -14t-13.5 -45v-208q0 -126 -126 -126h-85z" />
    <glyph glyph-name="bullet" unicode="&#x2022;" horiz-adv-x="354" 
d="M59 274q0 33 16 59.5t43 42.5t59 16q33 0 59.5 -16t42.5 -42.5t16 -59.5q0 -32 -16 -59t-42.5 -43t-59.5 -16q-32 0 -59 16t-43 43t-16 59z" />
    <glyph glyph-name="guilsinglleft" unicode="&#x2039;" horiz-adv-x="333" 
d="M182 34l-144 214l144 214h104l-146 -214l146 -214h-104z" />
    <glyph glyph-name="guilsinglright" unicode="&#x203a;" horiz-adv-x="333" 
d="M151 462l145 -214l-145 -214h-103l146 214l-146 214h103z" />
    <glyph glyph-name="guillemotleft" unicode="&#xab;" horiz-adv-x="531" 
d="M182 34l-144 214l144 214h104l-146 -214l146 -214h-104zM380 34l-144 214l144 214h104l-146 -214l146 -214h-104z" />
    <glyph glyph-name="guillemotright" unicode="&#xbb;" horiz-adv-x="531" 
d="M151 462l145 -214l-145 -214h-103l146 214l-146 214h103zM349 462l145 -214l-145 -214h-103l146 214l-146 214h103z" />
    <glyph glyph-name="at" unicode="@" horiz-adv-x="1046" 
d="M497 43q-58 0 -106 28.5t-76 77.5t-28 111q0 64 28 113t76 77t107 28q53 0 92.5 -23.5t62 -64t22.5 -91.5q0 -11 -1.5 -23.5t-5.5 -27.5l-20 17q0 41 -17.5 73t-49 51.5t-72.5 19.5q-39 0 -70.5 -19.5t-49.5 -53t-18 -76.5q0 -42 17.5 -75t49 -52.5t72.5 -19.5
q42 0 77 19t56.5 52.5t21.5 74.5l19 -23q10 -53 -13.5 -97t-69.5 -70t-104 -26zM768 -25l59 -61q-27 -30 -71 -54.5t-101.5 -39t-124.5 -14.5q-99 0 -184 34.5t-148 96.5t-98.5 145t-35.5 180q0 100 35.5 185.5t100 149t150.5 99t187 35.5q96 0 178 -33.5t142.5 -94
t93.5 -141.5t33 -175q0 -113 -49.5 -178.5t-137.5 -65.5q-65 0 -107 41.5t-42 108.5v145l1 7v119h80v-254q0 -48 20.5 -69.5t53.5 -21.5q46 0 71.5 42.5t25.5 120.5q0 109 -46 193t-127.5 132t-188.5 48q-84 0 -155 -29.5t-124 -82.5t-82 -125t-29 -156q0 -80 29.5 -149.5
t81.5 -121t121.5 -80.5t150.5 -29q80 0 144 26.5t93 66.5z" />
    <glyph glyph-name="periodcentered" unicode="&#xb7;" horiz-adv-x="235" 
d="M182 285q0 -26 -19 -45t-45 -19q-27 0 -46 19t-19 45q0 27 19 45.5t46 18.5q26 0 45 -18.5t19 -45.5z" />
    <glyph glyph-name="ampersand" unicode="&#x26;" horiz-adv-x="687" 
d="M658 300l-122 -167q-64 -82 -125 -115.5t-136 -33.5q-71 0 -123.5 26.5t-81 72t-28.5 101.5q0 80 55.5 137.5t166.5 92.5l23 -61q-76 -28 -111.5 -68.5t-35.5 -92.5q0 -55 38 -92.5t102 -37.5q33 0 63.5 11t62 38t65.5 75l119 163zM679 53l-60 -62l-373 353l-15 13
q-46 44 -72 77.5t-37 63t-11 62.5q0 46 25.5 85t69 62.5t98.5 23.5q54 0 98 -23.5t69 -62t25 -86.5q0 -49 -26 -88t-71 -68t-100 -48l-28 60q62 21 99 54t37 84q0 44 -29 73t-74 29q-42 0 -72 -29t-30 -72q0 -24 10.5 -48t33.5 -50t61 -58l18 -15z" />
    <glyph glyph-name="asterisk" unicode="*" horiz-adv-x="421" 
d="M211 496q-18 -44 -33 -73.5t-23 -40.5q-15 -22 -37 -22q-17 0 -30 12.5t-13 28.5q0 15 12 31q9 12 30.5 34.5t58.5 52.5q-48 4 -76 9.5t-42 9.5q-33 10 -33 40q0 19 11.5 31t28.5 12q13 0 25 -5q14 -5 37 -17.5t62 -38.5q-11 47 -16 78.5t-5 46.5q0 21 11.5 33.5
t31.5 12.5q19 0 30.5 -12.5t11.5 -33.5q0 -15 -4.5 -46.5t-16.5 -78.5q39 26 62 38.5t38 17.5q13 5 25 5q18 0 29 -12t11 -31q0 -30 -33 -40q-14 -4 -42 -9.5t-77 -9.5q37 -30 59.5 -52.5t29.5 -34.5q12 -16 12 -31q0 -16 -13 -28.5t-30 -12.5q-22 0 -36 22
q-9 11 -23.5 40.5t-32.5 73.5z" />
    <glyph glyph-name="hyphen.case" horiz-adv-x="335" 
d="M303 317h-272v81h272v-81z" />
    <glyph glyph-name="uni2010.case" horiz-adv-x="335" 
d="M303 317h-272v81h272v-81z" />
    <glyph glyph-name="uni2011.case" horiz-adv-x="335" 
d="M303 317h-272v81h272v-81z" />
    <glyph glyph-name="endash.case" horiz-adv-x="500" 
d="M500 319h-500v76h500v-76z" />
    <glyph glyph-name="emdash.case" horiz-adv-x="1000" 
d="M1000 319h-1000v76h1000v-76z" />
    <glyph glyph-name="parenleft.case" horiz-adv-x="325" 
d="M57 357q0 120 37 229t106 201h89q-71 -104 -106.5 -210.5t-35.5 -219.5q0 -222 142 -430h-89q-69 92 -106 201t-37 229z" />
    <glyph glyph-name="parenright.case" horiz-adv-x="325" 
d="M268 357q0 -120 -36.5 -229t-106.5 -201h-90q143 208 143 430q0 113 -35.5 219.5t-107.5 210.5h90q70 -92 106.5 -201t36.5 -229z" />
    <glyph glyph-name="slash.case" horiz-adv-x="491" 
d="M144 0h-88l291 731h88z" />
    <glyph glyph-name="backslash.case" horiz-adv-x="491" 
d="M435 0h-88l-291 731h88z" />
    <glyph glyph-name="bracketleft.case" horiz-adv-x="318" 
d="M276 -73h-211v860h211v-75h-119v-710h119v-75z" />
    <glyph glyph-name="bracketright.case" horiz-adv-x="318" 
d="M253 -73h-211v75h119v710h-119v75h211v-860z" />
    <glyph glyph-name="braceleft.case" horiz-adv-x="390" 
d="M348 2v-75h-84q-126 0 -126 126v208q0 31 -14 45t-45 14h-37v76h37q31 0 45 14t14 45v206q0 126 126 126h84v-75h-60q-31 0 -44.5 -14t-13.5 -46v-180q0 -126 -127 -126v24q127 0 127 -127v-181q0 -31 13.5 -45.5t44.5 -14.5h60z" />
    <glyph glyph-name="braceright.case" horiz-adv-x="390" 
d="M42 -73v75h60q31 0 45 14.5t14 45.5v181q0 127 126 127v-24q-126 0 -126 126v180q0 32 -14 46t-45 14h-60v75h85q126 0 126 -126v-206q0 -31 13.5 -45t45.5 -14h36v-76h-36q-32 0 -45.5 -14t-13.5 -45v-208q0 -126 -126 -126h-85z" />
    <glyph glyph-name="bullet.case" horiz-adv-x="354" 
d="M59 357q0 33 16 59.5t43 42.5t59 16q33 0 59.5 -16t42.5 -42.5t16 -59.5q0 -32 -16 -59t-42.5 -43t-59.5 -16q-32 0 -59 16t-43 43t-16 59z" />
    <glyph glyph-name="guilsinglleft.case" horiz-adv-x="333" 
d="M182 143l-144 214l144 214h104l-146 -214l146 -214h-104z" />
    <glyph glyph-name="guilsinglright.case" horiz-adv-x="333" 
d="M151 571l145 -214l-145 -214h-103l146 214l-146 214h103z" />
    <glyph glyph-name="guillemotleft.case" horiz-adv-x="531" 
d="M182 143l-144 214l144 214h104l-146 -214l146 -214h-104zM380 143l-144 214l144 214h104l-146 -214l146 -214h-104z" />
    <glyph glyph-name="guillemotright.case" horiz-adv-x="531" 
d="M151 571l145 -214l-145 -214h-103l146 214l-146 214h103zM349 571l145 -214l-145 -214h-103l146 214l-146 214h103z" />
    <glyph glyph-name="at.case" horiz-adv-x="1046" 
d="M497 132q-58 0 -106 28.5t-76 77.5t-28 111q0 64 28 113t76 77t107 28q53 0 92.5 -23.5t62 -64t22.5 -91.5q0 -11 -1.5 -23.5t-5.5 -27.5l-20 17q0 41 -17.5 73t-49 51.5t-72.5 19.5q-39 0 -70.5 -19.5t-49.5 -53t-18 -76.5q0 -42 17.5 -75t49 -52.5t72.5 -19.5
q42 0 77 19t56.5 52.5t21.5 74.5l19 -23q10 -53 -13.5 -97t-69.5 -70t-104 -26zM768 64l59 -61q-27 -30 -71 -54.5t-101.5 -39t-124.5 -14.5q-99 0 -184 34.5t-148 96.5t-98.5 145t-35.5 180q0 100 35.5 185.5t100 149t150.5 99t187 35.5q96 0 178 -33.5t142.5 -94
t93.5 -141.5t33 -175q0 -113 -49.5 -178.5t-137.5 -65.5q-65 0 -107 41.5t-42 108.5v145l1 7v119h80v-254q0 -48 20.5 -69.5t53.5 -21.5q46 0 71.5 42.5t25.5 120.5q0 109 -46 193t-127.5 132t-188.5 48q-84 0 -155 -29.5t-124 -82.5t-82 -125t-29 -156q0 -80 29.5 -149.5
t81.5 -121t121.5 -80.5t150.5 -29q80 0 144 26.5t93 66.5z" />
    <glyph glyph-name="periodcentered.case" horiz-adv-x="235" 
d="M182 357q0 -26 -19 -45t-45 -19q-27 0 -46 19t-19 45q0 27 19 45.5t46 18.5q26 0 45 -18.5t19 -45.5z" />
    <glyph glyph-name="uni00AD" unicode="&#xad;" horiz-adv-x="335" 
d="M303 244h-272v81h272v-81z" />
    <glyph glyph-name="figuredash" unicode="&#x2012;" horiz-adv-x="660" 
d="M580 319h-500v76h500v-76z" />
    <glyph glyph-name="uni2015" unicode="&#x2015;" horiz-adv-x="1000" 
d="M1000 239h-1000v76h1000v-76z" />
    <glyph glyph-name="A" unicode="A" horiz-adv-x="741" 
d="M568 186h-400v83h400v-83zM708 0h-102l-255 653h36l-255 -653h-98l284 715h105z" />
    <glyph glyph-name="B" unicode="B" horiz-adv-x="669" 
d="M80 0v715h278q70 0 121.5 -23.5t80 -65.5t28.5 -99q0 -52 -28.5 -92.5t-80 -63t-121.5 -22.5h-172v49h190q73 0 127.5 -24t85 -67.5t30.5 -103.5q0 -61 -30.5 -107t-85 -71t-127.5 -25h-296zM176 83h201q67 0 105.5 32t38.5 90t-38.5 90t-105.5 32h-211v81h190
q62 0 98 30.5t36 83.5q0 51 -36 80.5t-98 29.5h-180v-549z" />
    <glyph glyph-name="C" unicode="C" horiz-adv-x="743" 
d="M638 184l67 -65q-47 -62 -122 -98.5t-165 -36.5q-79 0 -145.5 28t-115.5 78.5t-76.5 118.5t-27.5 148t28 148.5t77.5 119t116.5 78.5t146 28q89 0 163 -36.5t121 -98.5l-67 -65q-36 52 -91 83t-126 31q-76 0 -136.5 -37.5t-95.5 -102t-35 -148.5q0 -82 35 -147
t95.5 -102.5t136.5 -37.5q71 0 126 31t91 83z" />
    <glyph glyph-name="D" unicode="D" horiz-adv-x="746" 
d="M80 0v715h238q111 0 195.5 -46t132 -126.5t47.5 -184.5t-47.5 -185t-132 -127t-195.5 -46h-238zM176 85h142q84 0 146 34t95.5 95.5t33.5 143.5t-33.5 143t-95.5 95t-146 34h-142v-545z" />
    <glyph glyph-name="E" unicode="E" horiz-adv-x="608" 
d="M563 0h-483v715h483v-83h-387v-549h387v-83zM544 323h-378v83h378v-83z" />
    <glyph glyph-name="F" unicode="F" horiz-adv-x="583" 
d="M176 0h-96v715h463v-83h-367v-632zM524 323h-358v83h358v-83z" />
    <glyph glyph-name="G" unicode="G" horiz-adv-x="801" 
d="M743 0h-91v103l12 -4q-36 -54 -99.5 -84.5t-141.5 -30.5q-79 0 -146.5 27.5t-118 78t-78 119t-27.5 149.5q0 80 28 148t78.5 118.5t118.5 78.5t148 28q93 0 168 -36.5t124 -98.5l-67 -65q-37 52 -93.5 83t-131.5 31q-78 0 -140 -37.5t-97 -102t-35 -147.5t35 -148.5
t97.5 -103t143.5 -37.5q80 0 141.5 35t88.5 95l-9 -38v136h-230v81h322v-378z" />
    <glyph glyph-name="H" unicode="H" horiz-adv-x="746" 
d="M569 0v715h96v-715h-96zM176 0h-96v715h96v-715zM166 328v84h413v-84h-413z" />
    <glyph glyph-name="I" unicode="I" horiz-adv-x="257" 
d="M176 0h-96v715h96v-715z" />
    <glyph glyph-name="J" unicode="J" horiz-adv-x="655" 
d="M583 715v-441q0 -139 -71 -214.5t-203 -75.5q-78 0 -136 29t-92 83.5t-42 131.5l95 11q9 -83 53.5 -126t121.5 -43q87 0 132.5 52.5t45.5 151.5v441h96z" />
    <glyph glyph-name="K" unicode="K" horiz-adv-x="704" 
d="M176 0h-96v715h96v-715zM687 0h-139l-396 371h15l354 344h124l-376 -357v26z" />
    <glyph glyph-name="L" unicode="L" horiz-adv-x="568" 
d="M533 0h-453v715h96v-630h357v-85z" />
    <glyph glyph-name="M" unicode="M" horiz-adv-x="906" 
d="M488 66h-72l-285 595l41 1v-662h-93v715h119l280 -588h-50l281 588h116v-715h-93v662l41 -1z" />
    <glyph glyph-name="N" unicode="N" horiz-adv-x="744" 
d="M172 0h-93v715h103l418 -616h-27v616h93v-715h-103l-419 616h28v-616z" />
    <glyph glyph-name="O" unicode="O" horiz-adv-x="856" 
d="M428 -16q-81 0 -149 28t-119 78.5t-79 119t-28 148.5t28 148t79 118.5t119 78.5t149 28t149 -28t119 -78.5t79 -118.5t28 -148t-28 -148.5t-79 -119t-119 -78.5t-149 -28zM428 70q81 0 143 37t96.5 102.5t34.5 148.5t-34.5 148t-96.5 102t-143 37q-80 0 -142.5 -37
t-97 -102t-34.5 -148t34.5 -148.5t97 -102.5t142.5 -37z" />
    <glyph glyph-name="P" unicode="P" horiz-adv-x="648" 
d="M176 0h-96v715h282q73 0 127 -26t84.5 -72t30.5 -108t-30.5 -108t-84.5 -72t-127 -26h-196v83h196q67 0 105.5 32.5t38.5 90.5t-38.5 90.5t-105.5 32.5h-186v-632z" />
    <glyph glyph-name="Q" unicode="Q" horiz-adv-x="856" 
d="M723 -39l-257 265l58 56l256 -265zM428 -16q-81 0 -149 28t-119 78.5t-79 119t-28 148.5t28 148t79 118.5t119 78.5t149 28t149 -28t119 -78.5t79 -118.5t28 -148t-28 -148.5t-79 -119t-119 -78.5t-149 -28zM428 70q82 0 144 36.5t96 101.5t34 150q0 83 -34.5 148
t-96.5 102t-143 37q-80 0 -142.5 -37t-97 -102t-34.5 -148t34.5 -148.5t97 -102.5t142.5 -37z" />
    <glyph glyph-name="R" unicode="R" horiz-adv-x="694" 
d="M176 0h-96v715h282q73 0 127 -26t84.5 -72t30.5 -108t-30.5 -108t-84.5 -72t-127 -26h-196v83h196q67 0 105.5 32.5t38.5 90.5t-38.5 90.5t-105.5 32.5h-186v-632zM675 0h-121l-268 333h112z" />
    <glyph glyph-name="S" unicode="S" horiz-adv-x="685" 
d="M36 116l68 66q29 -35 67 -60t82 -39t93 -14q55 0 97 16.5t66 45.5t24 68q0 51 -44.5 80.5t-152.5 45.5q-98 15 -157 40t-86 63.5t-27 91.5q0 62 35 110t96.5 74.5t140.5 26.5q91 0 161.5 -35.5t123.5 -96.5l-67 -65q-41 51 -93 81.5t-125 30.5q-76 0 -124.5 -33.5
t-48.5 -89.5q0 -29 18 -49.5t59 -34.5t110 -25q100 -14 161.5 -41.5t90 -69.5t28.5 -101q0 -65 -36.5 -114t-101 -76.5t-148.5 -27.5q-99 0 -176 35.5t-134 96.5z" />
    <glyph glyph-name="T" unicode="T" horiz-adv-x="632" 
d="M364 0h-96v641h96v-641zM598 631h-563v84h563v-84z" />
    <glyph glyph-name="U" unicode="U" horiz-adv-x="728" 
d="M656 715v-433q0 -141 -77.5 -219.5t-214.5 -78.5q-136 0 -214 78.5t-78 219.5v433h96v-433q0 -102 51.5 -157t144.5 -55q94 0 145.5 55t51.5 157v433h95z" />
    <glyph glyph-name="V" unicode="V" horiz-adv-x="727" 
d="M414 0h-101l-279 715h104l244 -652h-34l245 652h100z" />
    <glyph glyph-name="W" unicode="W" horiz-adv-x="1058" 
d="M806 0h-111l-171 600h11l-172 -600h-110l-215 715h103l185 -650h-32l186 650h99l187 -650h-30l185 650h99z" />
    <glyph glyph-name="X" unicode="X" horiz-adv-x="686" 
d="M131 0h-113l275 392v-42l-251 365h113l202 -304h-27l202 304h111l-250 -365l1 42l274 -392h-114l-225 330h28z" />
    <glyph glyph-name="Y" unicode="Y" horiz-adv-x="668" 
d="M382 0h-96v307l-268 408h112l218 -346h-26l219 346h109l-268 -410v-305z" />
    <glyph glyph-name="Z" unicode="Z" horiz-adv-x="620" 
d="M578 0h-534v84l406 547h-393v84h508v-84l-406 -547h419v-84z" />
    <glyph glyph-name="a" unicode="a" horiz-adv-x="558" 
d="M499 0h-87v98l-3 24v185q0 59 -38 93.5t-103 34.5q-47 0 -86 -19.5t-68 -53.5l-58 60q41 43 94.5 66.5t119.5 23.5q68 0 119.5 -25t80.5 -69.5t29 -107.5v-310zM229 -16q-56 0 -99 20.5t-67 56.5t-24 82q0 52 29.5 88.5t81.5 56t119 19.5h151v-69h-141
q-63 0 -103.5 -22.5t-40.5 -69.5q0 -40 30.5 -64t79.5 -24q48 0 87 19t62.5 53.5t26.5 79.5l33 -18q0 -60 -29 -107t-79.5 -74t-116.5 -27z" />
    <glyph glyph-name="b" unicode="b" horiz-adv-x="639" 
d="M158 0h-92v720h93v-376h-23q8 49 37.5 87t74 59.5t98.5 21.5q72 0 128 -34.5t88 -94t32 -135.5q0 -77 -32.5 -136.5t-90 -93.5t-130.5 -34q-67 0 -116 27.5t-74 75t-20 106.5l19 19q4 -43 28.5 -77t63 -52.5t83.5 -18.5q52 0 90 23.5t60 65.5t22 95t-20.5 94.5t-58 65.5
t-87.5 24t-88.5 -24.5t-61 -68.5t-22.5 -102v-105l-1 -3v-129z" />
    <glyph glyph-name="c" unicode="c" horiz-adv-x="552" 
d="M454 141l63 -60q-36 -45 -89 -71t-120 -26q-76 0 -135.5 34t-93.5 93.5t-34 136.5q0 76 34 135.5t94.5 94t136.5 34.5q66 0 118.5 -26t88.5 -71l-63 -60q-23 35 -58 56t-84 21q-50 0 -88.5 -23.5t-60 -65t-21.5 -95.5t21.5 -95.5t60 -65t88.5 -23.5t84.5 21t57.5 56z" />
    <glyph glyph-name="d" unicode="d" horiz-adv-x="639" 
d="M573 0h-92v129l-1 3v105q0 58 -21.5 102t-60 68.5t-88.5 24.5t-88 -24t-59 -65.5t-21 -94.5t22 -95t60.5 -65.5t89.5 -23.5q46 0 84 18.5t62.5 52.5t28.5 77l19 -19q6 -59 -19.5 -106.5t-74.5 -75t-116 -27.5q-73 0 -130.5 34t-90 93.5t-32.5 136.5q0 76 32.5 135.5
t89.5 94t128 34.5q55 0 99 -21t73 -59t36 -88h-23v376h93v-720z" />
    <glyph glyph-name="e" unicode="e" horiz-adv-x="604" 
d="M488 146l58 -60q-39 -48 -95.5 -75t-127.5 -27q-81 0 -144 34t-98.5 93.5t-35.5 136.5t34 136.5t94 93.5t135 34q73 0 129.5 -33.5t89 -92t32.5 -135.5v-6h-94v9q0 54 -20 94.5t-55.5 63t-81.5 22.5q-49 0 -87 -23t-59 -64.5t-21 -97.5t23.5 -98.5t65.5 -65.5t96 -23
q99 0 162 84zM559 217h-445v69h429l16 -35v-34z" />
    <glyph glyph-name="f" unicode="f" horiz-adv-x="390" 
d="M222 0h-93v594q0 126 126 126h105v-75h-79q-32 0 -45.5 -14t-13.5 -46v-585zM360 418h-329v78h329v-78z" />
    <glyph glyph-name="g" unicode="g" horiz-adv-x="639" 
d="M573 48q0 -76 -34.5 -134t-94.5 -91t-138 -33q-71 0 -129 24.5t-96 67.5l58 62q28 -35 68.5 -55t96.5 -20q53 0 92.5 22.5t61.5 62t22 92.5v191q0 64 -24 107t-62.5 65.5t-83.5 22.5q-49 0 -87.5 -24t-59.5 -64.5t-21 -91.5q0 -52 21.5 -92t60 -62.5t90.5 -22.5
q46 0 84 19t62.5 52.5t28.5 76.5l19 -19q7 -60 -19.5 -107t-76 -74.5t-114.5 -27.5q-72 0 -129.5 32.5t-90.5 91t-33 133.5q0 76 33.5 134.5t90 92t126.5 33.5q51 0 94.5 -19t73.5 -56.5t39 -92.5h-21v152h92v-448z" />
    <glyph glyph-name="h" unicode="h" horiz-adv-x="589" 
d="M530 0h-93v286q0 73 -33 109.5t-89 36.5q-40 0 -76 -21t-58 -66t-22 -116v-229h-93v720h93v-376h-14q11 63 39.5 99.5t68.5 52.5t83 16q90 0 142 -55.5t52 -160.5v-296z" />
    <glyph glyph-name="i" unicode="i" horiz-adv-x="225" 
d="M159 0h-93v496h93v-496zM113 613q-26 0 -44.5 17.5t-18.5 43.5t18.5 44t44.5 18t44 -18t18 -44t-18 -43.5t-44 -17.5z" />
    <glyph glyph-name="j" unicode="j" horiz-adv-x="225" 
d="M-27 -194v78h34q32 0 45.5 14.5t13.5 45.5v552h93v-564q0 -126 -126 -126h-60zM113 613q-26 0 -44.5 17.5t-18.5 43.5t18.5 44t44.5 18t44 -18t18 -44t-18 -43.5t-44 -17.5z" />
    <glyph glyph-name="k" unicode="k" horiz-adv-x="566" 
d="M159 0h-93v720h93v-720zM553 0h-129l-292 257h10l262 239h120l-278 -248v18z" />
    <glyph glyph-name="l" unicode="l" horiz-adv-x="225" 
d="M159 0h-93v720h93v-720z" />
    <glyph glyph-name="m" unicode="m" horiz-adv-x="920" 
d="M860 0h-93v287q0 72 -30 108.5t-82 36.5q-37 0 -70.5 -21t-54 -65.5t-20.5 -115.5v-230h-93v287q0 72 -30.5 108.5t-81.5 36.5q-38 0 -71.5 -21t-54 -65.5t-20.5 -115.5v-230h-93v496h92v-121l-8 1q14 51 41.5 80t63 42.5t72.5 13.5q67 0 110.5 -37t56.5 -109h-12
q14 53 43.5 85t68 46.5t78.5 14.5q89 0 138.5 -55.5t49.5 -160.5v-296z" />
    <glyph glyph-name="n" unicode="n" horiz-adv-x="589" 
d="M530 0h-93v286q0 73 -33 109.5t-89 36.5q-40 0 -76 -21t-58 -66t-22 -116v-229h-93v496h92v-152h-14q11 63 40 99.5t69 52.5t83 16q90 0 142 -55.5t52 -160.5v-296z" />
    <glyph glyph-name="o" unicode="o" horiz-adv-x="621" 
d="M311 -16q-78 0 -138 34t-94 93.5t-34 136.5t34 136t94 93.5t138 34.5t137.5 -34.5t94 -93.5t34.5 -136t-34.5 -136.5t-94 -93.5t-137.5 -34zM311 64q50 0 88 23t59 65t21 96t-21 95.5t-59 65t-88 23.5t-88.5 -23.5t-59.5 -65t-21 -95.5t21 -96t59.5 -65t88.5 -23z" />
    <glyph glyph-name="p" unicode="p" horiz-adv-x="639" 
d="M159 -194h-93v690h92v-152h-21q8 49 37.5 87t74 59.5t97.5 21.5q72 0 128 -34.5t88 -94t32 -135.5q0 -77 -32.5 -136.5t-90 -93.5t-130.5 -34q-67 0 -116 27.5t-74 75t-20 106.5l19 19q4 -43 28.5 -77t63 -52.5t83.5 -18.5q52 0 90 23.5t60 65.5t22 95t-21 94.5t-58 65.5
t-87 24t-88.5 -24.5t-61 -68.5t-22.5 -102v-431z" />
    <glyph glyph-name="q" unicode="q" horiz-adv-x="639" 
d="M573 -194h-93v431q0 58 -21.5 102t-60 68.5t-88.5 24.5q-49 0 -87.5 -24t-59.5 -65.5t-21 -94.5t22 -95t60.5 -65.5t89.5 -23.5q46 0 84 18.5t62.5 52.5t28.5 77l19 -19q6 -59 -19.5 -106.5t-74.5 -75t-116 -27.5q-73 0 -130.5 34t-90 93.5t-32.5 136.5q0 76 32.5 135.5
t89.5 94t128 34.5q55 0 98.5 -21t72.5 -59t36 -88h-21v152h92v-690z" />
    <glyph glyph-name="r" unicode="r" horiz-adv-x="375" 
d="M346 504v-88h-22q-45 0 -82.5 -21.5t-60 -67t-22.5 -118.5v-209h-93v496h92v-159h-14q11 63 40.5 99t68.5 52t80 16h13z" />
    <glyph glyph-name="s" unicode="s" horiz-adv-x="523" 
d="M26 76l59 60q35 -36 80 -56.5t98 -20.5q56 0 91 22.5t35 57.5q0 32 -30 49.5t-104 27.5q-111 16 -158.5 49.5t-47.5 91.5q0 46 27 81t74 54.5t108 19.5q68 0 122 -24t94 -67l-58 -60q-30 35 -69.5 55.5t-88.5 20.5q-51 0 -83.5 -21t-32.5 -54q0 -26 28.5 -40.5
t98.5 -24.5q113 -16 162.5 -52t49.5 -101q0 -47 -28 -83.5t-77.5 -56.5t-114.5 -20q-73 0 -131.5 24.5t-103.5 67.5z" />
    <glyph glyph-name="t" unicode="t" horiz-adv-x="401" 
d="M366 0h-119q-58 0 -88.5 30.5t-30.5 87.5v518h93v-506q0 -25 13 -38.5t38 -13.5h94v-78zM359 418h-328v78h328v-78z" />
    <glyph glyph-name="u" unicode="u" horiz-adv-x="587" 
d="M521 0h-92v96l-1 28v372h93v-496zM437 212l19 -20q4 -61 -21.5 -107.5t-72 -73.5t-107.5 -27q-89 0 -142 53t-53 153v306h93v-296q0 -67 32.5 -101.5t90.5 -34.5q41 0 76 18.5t58 52t27 77.5z" />
    <glyph glyph-name="v" unicode="v" horiz-adv-x="555" 
d="M323 0h-91l-213 496h99l177 -440h-32l178 440h95z" />
    <glyph glyph-name="w" unicode="w" horiz-adv-x="790" 
d="M613 0h-101l-129 415h23l-129 -415h-100l-158 496h94l132 -450h-31l139 450h88l137 -450h-30l131 450h92z" />
    <glyph glyph-name="x" unicode="x" horiz-adv-x="529" 
d="M119 0h-107l193 257l-176 239h106l130 -185l129 185h106l-176 -239l194 -257h-109l-144 200z" />
    <glyph glyph-name="y" unicode="y" horiz-adv-x="555" 
d="M441 496h95l-247 -575q-23 -55 -58.5 -85t-101.5 -30h-54v78h52q31 0 51.5 15.5t33.5 45.5l21 53l-214 498h99l179 -445h-36z" />
    <glyph glyph-name="z" unicode="z" horiz-adv-x="498" 
d="M460 0h-421v76l298 343h-288v77h401v-77l-297 -343h307v-76z" />
    <glyph glyph-name="trademark" unicode="&#x2122;" horiz-adv-x="894" 
d="M234 313h-73v345h73v-345zM363 652h-331v63h331v-63zM666 357h-54l-160 326l36 2v-372h-72v402h88l151 -309h-31l152 309h86v-402h-72v372l37 -2z" />
    <glyph glyph-name="ordfeminine" unicode="&#xaa;" horiz-adv-x="464" 
d="M404 313h-75v78l-3 16v146q0 45 -29 70.5t-78 25.5q-36 0 -66 -14.5t-52 -40.5l-48 52q31 32 74 50.5t94 18.5q82 0 132.5 -43t50.5 -117v-242zM189 301q-67 0 -108.5 35t-41.5 90q0 61 50.5 95t132.5 34h112v-58h-104q-47 0 -77 -17t-30 -51q0 -30 23 -47.5t60 -17.5
q53 0 89 31.5t40 81.5l26 -14q0 -48 -22.5 -84.5t-61 -57t-88.5 -20.5z" />
    <glyph glyph-name="ordmasculine" unicode="&#xba;" horiz-adv-x="512" 
d="M256 302q-61 0 -109 26t-75 73t-27 107q0 61 27 107.5t75 73t109 26.5q62 0 109.5 -26.5t74.5 -73t27 -107.5q0 -60 -27 -107t-74.5 -73t-109.5 -26zM256 371q55 0 90 38.5t35 98.5q0 61 -35 99.5t-90 38.5t-90 -38.5t-35 -99.5q0 -60 35 -98.5t90 -38.5z" />
    <glyph glyph-name="copyright" unicode="&#xa9;" horiz-adv-x="852" 
d="M547 272l50 -50q-27 -35 -70.5 -56t-98.5 -21q-61 0 -109.5 28t-75.5 76t-27 109q0 62 27.5 110.5t76.5 76t110 27.5q55 0 97.5 -21t69.5 -56l-50 -49q-19 28 -48.5 44t-66.5 16q-39 0 -70.5 -19t-49.5 -52.5t-18 -76.5q0 -42 18 -75.5t49.5 -52.5t70.5 -19q37 0 66.5 16
t48.5 45zM426 -26q-79 0 -148.5 29.5t-121.5 82.5t-81.5 122.5t-29.5 149.5t29.5 149.5t81.5 122.5t121.5 82.5t148.5 29.5q80 0 149 -29.5t121 -82.5t81.5 -122.5t29.5 -149.5t-29.5 -149.5t-81.5 -122.5t-121 -82.5t-149 -29.5zM426 43q65 0 121.5 24t99 67t66.5 100.5
t24 123.5t-24 123.5t-66.5 100.5t-99 67t-121.5 24t-121.5 -24t-99 -67t-66.5 -100.5t-24 -123.5t24 -123.5t66.5 -100.5t99 -67t121.5 -24z" />
    <glyph glyph-name="registered" unicode="&#xae;" horiz-adv-x="527" 
d="M219 383h-43v220h98q38 0 62 -19.5t24 -49.5t-24 -49.5t-62 -19.5h-58v37h58q19 0 30.5 9t11.5 23t-11.5 23.5t-30.5 9.5h-55v-184zM380 383h-53l-83 91h51zM263 261q-61 0 -111.5 30.5t-80.5 82t-30 114.5t30 114.5t80.5 82t111.5 30.5q62 0 112.5 -30.5t80.5 -82
t30 -114.5t-30 -114.5t-80.5 -82t-112.5 -30.5zM263 317q47 0 84.5 21.5t59 60.5t21.5 89q0 51 -21.5 89.5t-59 60t-84.5 21.5t-84 -21.5t-58.5 -60t-21.5 -89.5q0 -50 21.5 -89t58.5 -60.5t84 -21.5z" />
    <glyph glyph-name="quoteleft" unicode="&#x2018;" horiz-adv-x="235" 
d="M122 742h60q-25 -33 -39.5 -72t-13.5 -66l-12 19q27 0 45.5 -17.5t18.5 -43.5t-18 -44.5t-43 -18.5q-29 0 -48 21t-19 53q0 26 9.5 56.5t25.5 60t34 52.5z" />
    <glyph glyph-name="quoteright" unicode="&#x2019;" horiz-adv-x="235" 
d="M113 497h-60q25 34 40 72.5t13 65.5l12 -20q-27 0 -45.5 18t-18.5 44t18 44.5t44 18.5q29 0 48 -20.5t19 -53.5q0 -26 -10 -56.5t-26 -60t-34 -52.5z" />
    <glyph glyph-name="quotesinglbase" unicode="&#x201a;" horiz-adv-x="235" 
d="M113 -126h-60q25 34 40 72.5t13 65.5l12 -20q-27 0 -45.5 18t-18.5 44t18 44.5t44 18.5q29 0 48 -20.5t19 -53.5q0 -26 -10 -56.5t-26 -60t-34 -52.5z" />
    <glyph glyph-name="quotedblleft" unicode="&#x201c;" horiz-adv-x="391" 
d="M122 742h60q-25 -33 -39.5 -72t-13.5 -66l-12 19q27 0 45.5 -17.5t18.5 -43.5t-18 -44.5t-43 -18.5q-29 0 -48 21t-19 53q0 26 9.5 56.5t25.5 60t34 52.5zM278 742h60q-25 -33 -39.5 -72t-13.5 -66l-12 19q27 0 45.5 -17.5t18.5 -43.5t-18 -44.5t-43 -18.5q-29 0 -48 21
t-19 53q0 26 9.5 56.5t25.5 60t34 52.5z" />
    <glyph glyph-name="quotedblright" unicode="&#x201d;" horiz-adv-x="391" 
d="M113 497h-60q25 34 40 72.5t13 65.5l12 -20q-27 0 -45.5 18t-18.5 44t18 44.5t44 18.5q29 0 48 -20.5t19 -53.5q0 -26 -10 -56.5t-26 -60t-34 -52.5zM269 497h-60q25 34 40 72.5t13 65.5l12 -20q-27 0 -45.5 18t-18.5 44t18 44.5t44 18.5q29 0 48 -20.5t19 -53.5
q0 -26 -10 -56.5t-26 -60t-34 -52.5z" />
    <glyph glyph-name="quotedblbase" unicode="&#x201e;" horiz-adv-x="391" 
d="M113 -126h-60q25 34 40 72.5t13 65.5l12 -20q-27 0 -45.5 18t-18.5 44t18 44.5t44 18.5q29 0 48 -20.5t19 -53.5q0 -26 -10 -56.5t-26 -60t-34 -52.5zM269 -126h-60q25 34 40 72.5t13 65.5l12 -20q-27 0 -45.5 18t-18.5 44t18 44.5t44 18.5q29 0 48 -20.5t19 -53.5
q0 -26 -10 -56.5t-26 -60t-34 -52.5z" />
    <glyph glyph-name="periodcentered.loclCAT" horiz-adv-x="175" 
d="M152 366q0 -26 -19 -45t-45 -19q-27 0 -46 19t-19 45q0 27 19 45.5t46 18.5q26 0 45 -18.5t19 -45.5z" />
    <glyph glyph-name="periodcentered.loclCAT.cap" 
d="M-92 366q0 -26 -19 -45t-45 -19q-27 0 -46 19t-19 45q0 27 19 45.5t46 18.5q26 0 45 -18.5t19 -45.5z" />
    <glyph glyph-name="dotlessi" unicode="&#x131;" horiz-adv-x="225" 
d="M159 0h-93v496h93v-496z" />
    <glyph glyph-name="uni0237" unicode="&#x237;" horiz-adv-x="225" 
d="M-27 -194v78h34q32 0 45.5 14.5t13.5 45.5v552h93v-564q0 -126 -126 -126h-60z" />
    <glyph glyph-name="IJ" unicode="&#x132;" horiz-adv-x="690" 
d="M168 325h-96v390h96v-390zM618 715v-441q0 -139 -71 -214.5t-203 -75.5q-78 0 -136 29t-92.5 83.5t-42.5 131.5l96 11q9 -83 53.5 -126t121.5 -43q87 0 132.5 52.5t45.5 151.5v441h96z" />
    <glyph glyph-name="Thorn" unicode="&#xde;" horiz-adv-x="648" 
d="M166 480v83h196q73 0 127 -26t84.5 -72t30.5 -108t-30.5 -108t-84.5 -72t-127 -26h-196v83h196q67 0 105.5 32.5t38.5 90.5t-38.5 90.5t-105.5 32.5h-196zM176 0h-96v715h96v-715z" />
    <glyph glyph-name="AE" unicode="&#xc6;" horiz-adv-x="1055" 
d="M579 715l-453 -715h-103l460 715h96zM563 186h-342v83h342v-83zM1010 0h-483v715h483v-83h-387v-549h387v-83zM991 323h-378v83h378v-83z" />
    <glyph glyph-name="OE" unicode="&#x152;" horiz-adv-x="1230" 
d="M425 -16q-80 0 -147.5 28t-118 78.5t-78.5 119t-28 148.5t28 148t78.5 118.5t118 78.5t147.5 28q76 0 140 -28t111.5 -78.5t74 -118.5t26.5 -148t-26.5 -148.5t-74 -119t-111.5 -78.5t-140 -28zM428 70q81 0 143 37t96.5 102.5t34.5 148.5t-34.5 148t-96.5 102t-143 37
q-80 0 -142.5 -37t-97 -102t-34.5 -148t34.5 -148.5t97 -102.5t142.5 -37zM1185 0h-483v715h483v-83h-387v-549h387v-83zM1166 323h-378v83h378v-83z" />
    <glyph glyph-name="uni1E9E" unicode="&#x1e9e;" horiz-adv-x="759" 
d="M241 71l62 67q32 -32 73.5 -52t92.5 -20q50 0 87 19.5t57.5 52t20.5 73.5q0 62 -42.5 101.5t-111.5 39.5q-26 0 -48.5 -7t-44.5 -24l-57 50l265 298l25 -36h-245q-100 0 -153.5 -56t-53.5 -160v-417h-96v417q0 140 80 219t223 79h296v-81l-201 -227l-15 10
q52 10 101.5 -1t89 -39.5t63 -71t23.5 -96.5q0 -62 -34 -113.5t-93 -81.5t-135 -30q-67 0 -126.5 23.5t-102.5 63.5z" />
    <glyph glyph-name="Eng" unicode="&#x14a;" horiz-adv-x="744" 
d="M228 -146l54 76q28 -26 61 -37t70 -11q78 0 119 48.5t41 143.5v641h93v-641q0 -137 -65.5 -207.5t-187.5 -70.5q-58 0 -105 15t-80 43zM172 0h-93v715h103l428 -616l-38 -99l-428 616h28v-616z" />
    <glyph glyph-name="Eth" unicode="&#xd0;" horiz-adv-x="746" 
d="M80 0v715h238q111 0 195.5 -46t132 -126.5t47.5 -184.5t-47.5 -185t-132 -127t-195.5 -46h-238zM176 85h142q84 0 146 34t95.5 95.5t33.5 143.5t-33.5 143t-95.5 95t-146 34h-142v-545zM367 323h-358v83h358v-83z" />
    <glyph glyph-name="Dcroat" unicode="&#x110;" horiz-adv-x="746" 
d="M80 0v715h238q111 0 195.5 -46t132 -126.5t47.5 -184.5t-47.5 -185t-132 -127t-195.5 -46h-238zM176 85h142q84 0 146 34t95.5 95.5t33.5 143.5t-33.5 143t-95.5 95t-146 34h-142v-545zM367 323h-358v83h358v-83z" />
    <glyph glyph-name="Hbar" unicode="&#x126;" horiz-adv-x="750" 
d="M571 0v715h96v-715h-96zM178 0h-96v715h96v-715zM168 328v84h413v-84h-413zM735 524h-720v81h720v-81z" />
    <glyph glyph-name="Tbar" unicode="&#x166;" horiz-adv-x="632" 
d="M364 0h-96v641h96v-641zM598 631h-563v84h563v-84zM528 323h-423v83h423v-83z" />
    <glyph glyph-name="Lslash" unicode="&#x141;" horiz-adv-x="601" 
d="M566 0h-453v715h96v-630h357v-85zM425 434l-367 -238l-43 69l367 238z" />
    <glyph glyph-name="Oslash" unicode="&#xd8;" horiz-adv-x="856" 
d="M428 -16q-81 0 -149 28t-119 78.5t-79 119t-28 148.5t28 148t79 118.5t119 78.5t149 28t149 -28t119 -78.5t79 -118.5t28 -148t-28 -148.5t-79 -119t-119 -78.5t-149 -28zM428 70q81 0 143 37t96.5 102.5t34.5 148.5t-34.5 148t-96.5 102t-143 37q-80 0 -142.5 -37
t-97 -102t-34.5 -148t34.5 -148.5t97 -102.5t142.5 -37zM104 -22l-57 56l705 703l57 -56z" />
    <glyph glyph-name="ij" unicode="&#x133;" horiz-adv-x="451" 
d="M198 -194v78h34q32 0 45.5 14.5t13.5 45.5v552h93v-564q0 -126 -126 -126h-60zM338 613q-26 0 -44.5 17.5t-18.5 43.5t18.5 44t44.5 18t44 -18t18 -44t-18 -43.5t-44 -17.5zM159 0h-93v496h93v-496zM113 613q-26 0 -44.5 17.5t-18.5 43.5t18.5 44t44.5 18t44 -18t18 -44
t-18 -43.5t-44 -17.5z" />
    <glyph glyph-name="thorn" unicode="&#xfe;" horiz-adv-x="639" 
d="M159 -194h-93v914h93v-376h-21q8 49 37 87t73.5 59.5t97.5 21.5q72 0 128 -34.5t88 -94t32 -135.5q0 -77 -32.5 -136.5t-90 -93.5t-130.5 -34q-67 0 -116 27.5t-74 75t-20 106.5l19 19q4 -43 28.5 -77t63 -52.5t83.5 -18.5q52 0 90 23.5t60 65.5t22 95t-21 94.5t-58 65.5
t-87 24t-88.5 -24.5t-61 -68.5t-22.5 -102v-431z" />
    <glyph glyph-name="ae" unicode="&#xe6;" horiz-adv-x="965" 
d="M849 146l58 -60q-39 -48 -95.5 -75t-127.5 -27q-80 0 -141.5 34t-96 93.5t-34.5 136.5t33.5 136.5t92 93.5t132.5 34q73 0 129 -33.5t88.5 -92t32.5 -135.5v-6h-94v9q0 54 -20.5 94.5t-55.5 63t-81 22.5q-50 0 -87.5 -23t-58.5 -64.5t-21 -97.5t23 -98.5t65 -65.5t97 -23
q99 0 162 84zM920 225h-445v67h429l16 -41v-26zM486 254h-77v39q0 64 -38.5 103t-102.5 39q-47 0 -86 -19.5t-68 -53.5l-58 60q41 43 94.5 66.5t119.5 23.5q65 0 113.5 -27.5t75.5 -75.5t27 -113v-42zM239 -16q-59 0 -104 20.5t-70.5 56t-25.5 81.5q0 50 29 83.5t81 50.5
t119 17h160v-68h-150q-63 0 -103 -18t-40 -61q0 -40 33 -64t85 -24q46 0 86 17.5t67 48t32 69.5l59 -17q-6 -55 -41.5 -98t-91.5 -68.5t-125 -25.5z" />
    <glyph glyph-name="oe" unicode="&#x153;" horiz-adv-x="1032" 
d="M308 -16q-76 0 -135.5 34t-93.5 93.5t-34 136.5t34 136t93.5 93.5t135.5 34.5q75 0 131.5 -34.5t89 -93.5t32.5 -136t-32.5 -136.5t-89 -93.5t-131.5 -34zM311 64q50 0 88 23t59 65t21 96t-21 95.5t-59 65t-88 23.5t-88.5 -23.5t-59.5 -65t-21 -95.5t21 -96t59.5 -65
t88.5 -23zM916 146l58 -60q-39 -48 -95.5 -75t-127.5 -27q-77 0 -137.5 34t-95 93.5t-34.5 136.5t33 136.5t90.5 93.5t129.5 34q73 0 129 -33.5t88.5 -92t32.5 -135.5v-6h-94v9q0 54 -20.5 94.5t-55.5 63t-81 22.5q-50 0 -87.5 -23t-58.5 -64.5t-21 -97.5t23 -98.5t65 -65.5
t97 -23q99 0 162 84zM987 217h-445v69h429l16 -35v-34z" />
    <glyph glyph-name="germandbls" unicode="&#xdf;" horiz-adv-x="630" 
d="M153 0h-93v466q0 85 32.5 144t89 90t127.5 31q66 0 116 -26t78 -69t28 -97q0 -51 -28 -92.5t-80 -65.5t-125 -24h-3v43h38q71 0 129 -25.5t92.5 -73t34.5 -113.5q0 -61 -28 -107t-76.5 -71.5t-111.5 -25.5q-30 0 -60.5 7t-58 19.5t-47.5 30.5l49 66q21 -23 51.5 -34.5
t61.5 -11.5q53 0 88.5 34t35.5 92q0 47 -25 80t-64 50t-83 17h-45v79h22q61 0 99 34.5t38 90.5q0 50 -32.5 82.5t-92.5 32.5q-68 0 -112.5 -49.5t-44.5 -149.5v-454z" />
    <glyph glyph-name="eng" unicode="&#x14b;" horiz-adv-x="589" 
d="M344 -194v78h34q31 0 45 14.5t14 45.5v342q0 73 -33 109.5t-89 36.5q-40 0 -76 -21t-58 -66t-22 -116v-229h-93v496h92v-152h-14q11 63 40 99.5t69 52.5t83 16q90 0 142 -55.5t52 -160.5v-364q0 -126 -126 -126h-60z" />
    <glyph glyph-name="eth" unicode="&#xf0;" horiz-adv-x="621" 
d="M520 237h-29q0 112 -31 200.5t-96.5 160.5t-167.5 133l71 33q99 -51 168 -125.5t105.5 -165t36.5 -192.5q0 -98 -35 -164t-94.5 -99.5t-136.5 -33.5t-137 33t-94.5 90.5t-34.5 129.5q0 73 34 129.5t92.5 89t130.5 32.5t120.5 -33t73 -89.5t24.5 -128.5zM311 64
q50 0 88 22t59 61.5t21 89.5q0 51 -21 90t-59 61t-88 22t-88 -22t-59.5 -61t-21.5 -90q0 -50 21.5 -89.5t59.5 -61.5t88 -22zM515 677l-300 -142l-31 66l300 141z" />
    <glyph glyph-name="dcroat" unicode="&#x111;" horiz-adv-x="668" 
d="M573 0h-92v129l-1 3v99q0 58 -21.5 102t-60 68.5t-88.5 24.5t-88 -23.5t-59 -64.5t-21 -93q0 -53 22 -94t60.5 -64t89.5 -23q47 0 85 18.5t62 52.5t28 77l19 -19q6 -59 -19.5 -106.5t-74.5 -75t-116 -27.5q-73 0 -130.5 33.5t-90 92.5t-32.5 135q0 75 32.5 134t89.5 93
t128 34q55 0 99 -21t73 -59t36 -88h-23v382h93v-720zM654 566h-335v73h335v-73z" />
    <glyph glyph-name="hbar" unicode="&#x127;" horiz-adv-x="618" 
d="M349 566h-335v73h335v-73zM559 0h-93v280q0 73 -33 109.5t-89 36.5q-40 0 -76 -21t-58 -66t-22 -116v-223h-93v720h93v-382h-14q11 63 39.5 99.5t68.5 52.5t83 16q90 0 142 -55.5t52 -160.5v-290z" />
    <glyph glyph-name="tbar" unicode="&#x167;" horiz-adv-x="401" 
d="M366 0h-119q-58 0 -88.5 30.5t-30.5 87.5v518h93v-506q0 -25 13 -38.5t38 -13.5h94v-78zM359 418h-328v78h328v-78zM359 238h-328v73h328v-73z" />
    <glyph glyph-name="lslash" unicode="&#x142;" horiz-adv-x="336" 
d="M204 0h-93v720h93v-720zM331 441l-290 -187l-36 59l290 187z" />
    <glyph glyph-name="oslash" unicode="&#xf8;" horiz-adv-x="623" 
d="M311 -16q-77 0 -137 34t-94.5 93.5t-34.5 136.5t34.5 136t94.5 93.5t137 34.5q78 0 138 -34.5t94 -93.5t34 -136t-34 -136.5t-94 -93.5t-138 -34zM311 64q51 0 89 23t59 65t21 96t-21 95.5t-59 65t-89 23.5q-50 0 -88 -23.5t-59 -65t-21 -95.5t21 -96t59 -65t88 -23z
M82 -28l-49 48l508 504l49 -49z" />
    <glyph glyph-name="kgreenlandic" unicode="&#x138;" horiz-adv-x="566" 
d="M159 0h-93v496h93v-496zM553 0h-129l-292 257h10l262 239h120l-278 -248v18z" />
    <glyph glyph-name="uni0327" unicode="&#x327;" 
d="M-128 -220l34 53q11 -13 30 -21t39 -8q24 0 38.5 11.5t14.5 31.5t-15.5 32.5t-44.5 12.5q-9 0 -19 -1t-20 -5l35 124h60l-25 -88l-30 28q37 0 67 -12.5t47.5 -35.5t17.5 -53q0 -45 -33.5 -75.5t-95.5 -30.5q-30 0 -56 10t-44 27z" />
    <glyph glyph-name="uni0327.cap" 
d="M-113 -220l35 54q12 -12 30.5 -20t39.5 -8q23 0 37 11.5t14 29.5t-15.5 30.5t-44.5 12.5q-9 0 -19 -1t-21 -5l29 126h59l-17 -89l-29 29q37 0 67.5 -12.5t48 -35.5t17.5 -53q0 -45 -33.5 -75.5t-97.5 -30.5q-29 0 -55 10t-45 27z" />
    <glyph glyph-name="cedilla" unicode="&#xb8;" horiz-adv-x="589" 
d="M162 -220l34 53q11 -13 30 -21t39 -8q24 0 38.5 11.5t14.5 31.5t-15.5 32.5t-44.5 12.5q-9 0 -19 -1t-20 -5l35 124h60l-25 -88l-30 28q37 0 67 -12.5t47.5 -35.5t17.5 -53q0 -45 -33.5 -75.5t-95.5 -30.5q-30 0 -56 10t-44 27z" />
    <glyph glyph-name="uni0326" unicode="&#x326;" 
d="M-2 -277h-56q19 27 32 57.5t11 51.5l18 -20q-24 0 -41 15t-17 36t15.5 36t36.5 15q25 0 40.5 -17t15.5 -43q0 -20 -8 -44t-20 -46.5t-27 -40.5z" />
    <glyph glyph-name="uni0326.cap" 
d="M0 -277h-60q19 27 32 57.5t11 51.5l18 -20q-24 0 -41 15t-17 36t15.5 36t38.5 15q26 0 42 -17t16 -43q0 -20 -8 -44t-20 -46.5t-27 -40.5z" />
    <glyph glyph-name="uni0312" unicode="&#x312;" 
d="M1 770h57q-20 -27 -32 -57.5t-11 -51.5l-18 20q24 0 40.5 -14.5t16.5 -36.5q0 -21 -15 -36t-37 -15q-24 0 -40 17t-16 43q0 21 8 44.5t20.5 46.5t26.5 40z" />
    <glyph glyph-name="uni0328" unicode="&#x328;" 
d="M107 -173v-72q-11 -2 -21 -3t-20 -1q-53 0 -89 29t-36 83q0 44 26.5 83t83.5 76l56 -22q-47 -30 -68 -60.5t-21 -59.5t17.5 -43t42.5 -14q5 0 13 1t16 3z" />
    <glyph glyph-name="uni0328.cap" 
d="M107 -172v-73q-11 -2 -21 -3t-20 -1q-54 0 -90.5 29.5t-36.5 84.5q0 44 26 83t78 74l64 -22q-46 -27 -67.5 -57.5t-21.5 -60.5q0 -28 17.5 -43t42.5 -15q5 0 13 1t16 3z" />
    <glyph glyph-name="uni0328.round" 
d="M107 -173v-72q-11 -2 -21 -3t-20 -1q-53 0 -89 30t-36 83q0 51 36.5 99.5t101.5 89.5l46 -4q-58 -50 -82.5 -91.5t-24.5 -74.5q0 -30 17.5 -45t42.5 -15q5 0 13 1t16 3z" />
    <glyph glyph-name="uni0328.round.cap" 
d="M97 -172v-73q-10 -2 -20 -3t-21 -1q-53 0 -89.5 29.5t-36.5 84.5q0 44 27.5 82t95.5 75l69 1q-56 -30 -84.5 -66t-28.5 -74q0 -29 17 -44t42 -15q5 0 13 1t16 3z" />
    <glyph glyph-name="ogonek" unicode="&#x2db;" horiz-adv-x="589" 
d="M397 -173v-72q-11 -2 -21 -3t-20 -1q-53 0 -89 29t-36 83q0 44 26.5 83t83.5 76l56 -22q-47 -30 -68 -60.5t-21 -59.5t17.5 -43t42.5 -14q5 0 13 1t16 3z" />
    <glyph glyph-name="Ccedilla" unicode="&#xc7;" horiz-adv-x="743" 
d="M638 184l67 -65q-47 -62 -122 -98.5t-165 -36.5q-79 0 -145.5 28t-115.5 78.5t-76.5 118.5t-27.5 148t28 148.5t77.5 119t116.5 78.5t146 28q89 0 163 -36.5t121 -98.5l-67 -65q-36 52 -91 83t-126 31q-76 0 -136.5 -37.5t-95.5 -102t-35 -148.5q0 -82 35 -147
t95.5 -102.5t136.5 -37.5q71 0 126 31t91 83zM306 -220l35 54q12 -12 30.5 -20t39.5 -8q23 0 37 11.5t14 29.5t-15.5 30.5t-44.5 12.5q-9 0 -19 -1t-21 -5l29 126h59l-17 -89l-29 29q37 0 67.5 -12.5t48 -35.5t17.5 -53q0 -45 -33.5 -75.5t-97.5 -30.5q-29 0 -55 10t-45 27z
" />
    <glyph glyph-name="Scedilla" unicode="&#x15e;" horiz-adv-x="685" 
d="M41 116l68 66q29 -35 67 -60t82 -39t93 -14q55 0 97 16.5t66 45.5t24 68q0 51 -44.5 80.5t-152.5 45.5q-98 15 -157 40t-86 63.5t-27 91.5q0 62 35 110t96.5 74.5t140.5 26.5q91 0 161.5 -35.5t123.5 -96.5l-67 -65q-41 51 -93 81.5t-125 30.5q-76 0 -124.5 -33.5
t-48.5 -89.5q0 -29 18 -49.5t59 -34.5t110 -25q100 -14 161.5 -41.5t90 -69.5t28.5 -101q0 -65 -36.5 -114t-101 -76.5t-148.5 -27.5q-99 0 -176 35.5t-134 96.5zM239 -220l35 54q12 -12 30.5 -20t39.5 -8q23 0 37 11.5t14 29.5t-15.5 30.5t-44.5 12.5q-9 0 -19 -1t-21 -5
l29 126h59l-17 -89l-29 29q37 0 67.5 -12.5t48 -35.5t17.5 -53q0 -45 -33.5 -75.5t-97.5 -30.5q-29 0 -55 10t-45 27z" />
    <glyph glyph-name="uni0162" unicode="&#x162;" horiz-adv-x="632" 
d="M364 0h-96v641h96v-641zM598 631h-563v84h563v-84zM203 -220l35 54q12 -12 30.5 -20t39.5 -8q23 0 37 11.5t14 29.5t-15.5 30.5t-44.5 12.5q-9 0 -19 -1t-21 -5l29 126h59l-17 -89l-29 29q37 0 67.5 -12.5t48 -35.5t17.5 -53q0 -45 -33.5 -75.5t-97.5 -30.5q-29 0 -55 10
t-45 27z" />
    <glyph glyph-name="uni0122" unicode="&#x122;" horiz-adv-x="801" 
d="M743 0h-91v103l12 -4q-36 -54 -99.5 -84.5t-141.5 -30.5q-79 0 -146.5 27.5t-118 78t-78 119t-27.5 149.5q0 80 28 148t78.5 118.5t118.5 78.5t148 28q93 0 168 -36.5t124 -98.5l-67 -65q-37 52 -93.5 83t-131.5 31q-78 0 -140 -37.5t-97 -102t-35 -147.5t35 -148.5
t97.5 -103t143.5 -37.5q80 0 141.5 35t88.5 95l-9 -38v136h-230v81h322v-378zM426 -277h-60q19 27 32 57.5t11 51.5l18 -20q-24 0 -41 15t-17 36t15.5 36t38.5 15q26 0 42 -17t16 -43q0 -20 -8 -44t-20 -46.5t-27 -40.5z" />
    <glyph glyph-name="uni0136" unicode="&#x136;" horiz-adv-x="704" 
d="M176 0h-96v715h96v-715zM687 0h-139l-396 371h15l354 344h124l-376 -357v26zM354 -277h-60q19 27 32 57.5t11 51.5l18 -20q-24 0 -41 15t-17 36t15.5 36t38.5 15q26 0 42 -17t16 -43q0 -20 -8 -44t-20 -46.5t-27 -40.5z" />
    <glyph glyph-name="uni013B" unicode="&#x13b;" horiz-adv-x="568" 
d="M533 0h-453v715h96v-630h357v-85zM306 -277h-60q19 27 32 57.5t11 51.5l18 -20q-24 0 -41 15t-17 36t15.5 36t38.5 15q26 0 42 -17t16 -43q0 -20 -8 -44t-20 -46.5t-27 -40.5z" />
    <glyph glyph-name="uni0145" unicode="&#x145;" horiz-adv-x="744" 
d="M172 0h-93v715h103l418 -616h-27v616h93v-715h-103l-419 616h28v-616zM372 -277h-60q19 27 32 57.5t11 51.5l18 -20q-24 0 -41 15t-17 36t15.5 36t38.5 15q26 0 42 -17t16 -43q0 -20 -8 -44t-20 -46.5t-27 -40.5z" />
    <glyph glyph-name="uni0218" unicode="&#x218;" horiz-adv-x="685" 
d="M41 116l68 66q29 -35 67 -60t82 -39t93 -14q55 0 97 16.5t66 45.5t24 68q0 51 -44.5 80.5t-152.5 45.5q-98 15 -157 40t-86 63.5t-27 91.5q0 62 35 110t96.5 74.5t140.5 26.5q91 0 161.5 -35.5t123.5 -96.5l-67 -65q-41 51 -93 81.5t-125 30.5q-76 0 -124.5 -33.5
t-48.5 -89.5q0 -29 18 -49.5t59 -34.5t110 -25q100 -14 161.5 -41.5t90 -69.5t28.5 -101q0 -65 -36.5 -114t-101 -76.5t-148.5 -27.5q-99 0 -176 35.5t-134 96.5zM352 -277h-60q19 27 32 57.5t11 51.5l18 -20q-24 0 -41 15t-17 36t15.5 36t38.5 15q26 0 42 -17t16 -43
q0 -20 -8 -44t-20 -46.5t-27 -40.5z" />
    <glyph glyph-name="uni021A" unicode="&#x21a;" horiz-adv-x="632" 
d="M364 0h-96v641h96v-641zM598 631h-563v84h563v-84zM316 -277h-60q19 27 32 57.5t11 51.5l18 -20q-24 0 -41 15t-17 36t15.5 36t38.5 15q26 0 42 -17t16 -43q0 -20 -8 -44t-20 -46.5t-27 -40.5z" />
    <glyph glyph-name="Aogonek" unicode="&#x104;" horiz-adv-x="741" 
d="M568 186h-400v83h400v-83zM708 0h-102l-255 653h36l-255 -653h-98l284 715h105zM698 -172v-73q-11 -2 -21 -3t-20 -1q-54 0 -90.5 29.5t-36.5 84.5q0 44 26 83t78 74l64 -22q-46 -27 -67.5 -57.5t-21.5 -60.5q0 -28 17.5 -43t42.5 -15q5 0 13 1t16 3z" />
    <glyph glyph-name="Eogonek" unicode="&#x118;" horiz-adv-x="608" 
d="M563 0h-483v715h483v-83h-387v-549h387v-83zM544 323h-378v83h378v-83zM564 -172v-73q-11 -2 -21 -3t-20 -1q-54 0 -90.5 29.5t-36.5 84.5q0 44 26 83t78 74l64 -22q-46 -27 -67.5 -57.5t-21.5 -60.5q0 -28 17.5 -43t42.5 -15q5 0 13 1t16 3z" />
    <glyph glyph-name="Iogonek" unicode="&#x12e;" horiz-adv-x="257" 
d="M176 0h-96v715h96v-715zM177 -172v-73q-11 -2 -21 -3t-20 -1q-54 0 -90.5 29.5t-36.5 84.5q0 44 26 83t78 74l64 -22q-46 -27 -67.5 -57.5t-21.5 -60.5q0 -28 17.5 -43t42.5 -15q5 0 13 1t16 3z" />
    <glyph glyph-name="Uogonek" unicode="&#x172;" horiz-adv-x="728" 
d="M656 715v-433q0 -141 -77.5 -219.5t-214.5 -78.5q-136 0 -214 78.5t-78 219.5v433h96v-433q0 -102 51.5 -157t144.5 -55q94 0 145.5 55t51.5 157v433h95zM502 -172v-73q-10 -2 -20 -3t-21 -1q-53 0 -89.5 29.5t-36.5 84.5q0 44 27.5 82t95.5 75l69 1q-56 -30 -84.5 -66
t-28.5 -74q0 -29 17 -44t42 -15q5 0 13 1t16 3z" />
    <glyph glyph-name="ccedilla" unicode="&#xe7;" horiz-adv-x="552" 
d="M454 141l63 -60q-36 -45 -89 -71t-120 -26q-76 0 -135.5 34t-93.5 93.5t-34 136.5q0 76 34 135.5t94.5 94t136.5 34.5q66 0 118.5 -26t88.5 -71l-63 -60q-23 35 -58 56t-84 21q-50 0 -88.5 -23.5t-60 -65t-21.5 -95.5t21.5 -95.5t60 -65t88.5 -23.5t84.5 21t57.5 56z
M182 -220l34 53q11 -13 30 -21t39 -8q24 0 38.5 11.5t14.5 31.5t-15.5 32.5t-44.5 12.5q-9 0 -19 -1t-20 -5l35 124h60l-25 -88l-30 28q37 0 67 -12.5t47.5 -35.5t17.5 -53q0 -45 -33.5 -75.5t-95.5 -30.5q-30 0 -56 10t-44 27z" />
    <glyph glyph-name="scedilla" unicode="&#x15f;" horiz-adv-x="523" 
d="M26 76l59 60q35 -36 80 -56.5t98 -20.5q56 0 91 22.5t35 57.5q0 32 -30 49.5t-104 27.5q-111 16 -158.5 49.5t-47.5 91.5q0 46 27 81t74 54.5t108 19.5q68 0 122 -24t94 -67l-58 -60q-30 35 -69.5 55.5t-88.5 20.5q-51 0 -83.5 -21t-32.5 -54q0 -26 28.5 -40.5
t98.5 -24.5q113 -16 162.5 -52t49.5 -101q0 -47 -28 -83.5t-77.5 -56.5t-114.5 -20q-73 0 -131.5 24.5t-103.5 67.5zM130 -220l34 53q11 -13 30 -21t39 -8q24 0 38.5 11.5t14.5 31.5t-15.5 32.5t-44.5 12.5q-9 0 -19 -1t-20 -5l35 124h60l-25 -88l-30 28q37 0 67 -12.5
t47.5 -35.5t17.5 -53q0 -45 -33.5 -75.5t-95.5 -30.5q-30 0 -56 10t-44 27z" />
    <glyph glyph-name="uni0163" unicode="&#x163;" horiz-adv-x="401" 
d="M366 0h-119q-58 0 -88.5 30.5t-30.5 87.5v518h93v-506q0 -25 13 -38.5t38 -13.5h94v-78zM359 418h-328v78h328v-78zM129 -220l34 53q11 -13 30 -21t39 -8q24 0 38.5 11.5t14.5 31.5t-15.5 32.5t-44.5 12.5q-9 0 -19 -1t-20 -5l35 124h60l-25 -88l-30 28q37 0 67 -12.5
t47.5 -35.5t17.5 -53q0 -45 -33.5 -75.5t-95.5 -30.5q-30 0 -56 10t-44 27z" />
    <glyph glyph-name="uni0123" unicode="&#x123;" horiz-adv-x="639" 
d="M573 48q0 -76 -34.5 -134t-94.5 -91t-138 -33q-71 0 -129 24.5t-96 67.5l58 62q28 -35 68.5 -55t96.5 -20q53 0 92.5 22.5t61.5 62t22 92.5v191q0 64 -24 107t-62.5 65.5t-83.5 22.5q-49 0 -87.5 -24t-59.5 -64.5t-21 -91.5q0 -52 21.5 -92t60 -62.5t90.5 -22.5
q46 0 84 19t62.5 52.5t28.5 76.5l19 -19q7 -60 -19.5 -107t-76 -74.5t-114.5 -27.5q-72 0 -129.5 32.5t-90.5 91t-33 133.5q0 76 33.5 134.5t90 92t126.5 33.5q51 0 94.5 -19t73.5 -56.5t39 -92.5h-21v152h92v-448zM312 770h57q-20 -27 -32 -57.5t-11 -51.5l-18 20
q24 0 40.5 -14.5t16.5 -36.5q0 -21 -15 -36t-37 -15q-24 0 -40 17t-16 43q0 21 8 44.5t20.5 46.5t26.5 40z" />
    <glyph glyph-name="uni0137" unicode="&#x137;" horiz-adv-x="566" 
d="M159 0h-93v720h93v-720zM553 0h-129l-292 257h10l262 239h120l-278 -248v18zM295 -277h-56q19 27 32 57.5t11 51.5l18 -20q-24 0 -41 15t-17 36t15.5 36t36.5 15q25 0 40.5 -17t15.5 -43q0 -20 -8 -44t-20 -46.5t-27 -40.5z" />
    <glyph glyph-name="uni013C" unicode="&#x13c;" horiz-adv-x="225" 
d="M159 0h-93v720h93v-720zM111 -277h-56q19 27 32 57.5t11 51.5l18 -20q-24 0 -41 15t-17 36t15.5 36t36.5 15q25 0 40.5 -17t15.5 -43q0 -20 -8 -44t-20 -46.5t-27 -40.5z" />
    <glyph glyph-name="uni0146" unicode="&#x146;" horiz-adv-x="589" 
d="M530 0h-93v286q0 73 -33 109.5t-89 36.5q-40 0 -76 -21t-58 -66t-22 -116v-229h-93v496h92v-152h-14q11 63 40 99.5t69 52.5t83 16q90 0 142 -55.5t52 -160.5v-296zM296 -277h-56q19 27 32 57.5t11 51.5l18 -20q-24 0 -41 15t-17 36t15.5 36t36.5 15q25 0 40.5 -17
t15.5 -43q0 -20 -8 -44t-20 -46.5t-27 -40.5z" />
    <glyph glyph-name="uni0219" unicode="&#x219;" horiz-adv-x="523" 
d="M26 76l59 60q35 -36 80 -56.5t98 -20.5q56 0 91 22.5t35 57.5q0 32 -30 49.5t-104 27.5q-111 16 -158.5 49.5t-47.5 91.5q0 46 27 81t74 54.5t108 19.5q68 0 122 -24t94 -67l-58 -60q-30 35 -69.5 55.5t-88.5 20.5q-51 0 -83.5 -21t-32.5 -54q0 -26 28.5 -40.5
t98.5 -24.5q113 -16 162.5 -52t49.5 -101q0 -47 -28 -83.5t-77.5 -56.5t-114.5 -20q-73 0 -131.5 24.5t-103.5 67.5zM256 -277h-56q19 27 32 57.5t11 51.5l18 -20q-24 0 -41 15t-17 36t15.5 36t36.5 15q25 0 40.5 -17t15.5 -43q0 -20 -8 -44t-20 -46.5t-27 -40.5z" />
    <glyph glyph-name="uni021B" unicode="&#x21b;" horiz-adv-x="401" 
d="M366 0h-119q-58 0 -88.5 30.5t-30.5 87.5v518h93v-506q0 -25 13 -38.5t38 -13.5h94v-78zM359 418h-328v78h328v-78zM255 -277h-56q19 27 32 57.5t11 51.5l18 -20q-24 0 -41 15t-17 36t15.5 36t36.5 15q25 0 40.5 -17t15.5 -43q0 -20 -8 -44t-20 -46.5t-27 -40.5z" />
    <glyph glyph-name="aogonek" unicode="&#x105;" horiz-adv-x="558" 
d="M499 0h-87v98l-3 24v185q0 59 -38 93.5t-103 34.5q-47 0 -86 -19.5t-68 -53.5l-58 60q41 43 94.5 66.5t119.5 23.5q68 0 119.5 -25t80.5 -69.5t29 -107.5v-310zM229 -16q-56 0 -99 20.5t-67 56.5t-24 82q0 52 29.5 88.5t81.5 56t119 19.5h151v-69h-141
q-63 0 -103.5 -22.5t-40.5 -69.5q0 -40 30.5 -64t79.5 -24q48 0 87 19t62.5 53.5t26.5 79.5l33 -18q0 -60 -29 -107t-79.5 -74t-116.5 -27zM499 -173v-72q-11 -2 -21 -3t-20 -1q-53 0 -89 29t-36 83q0 44 26.5 83t83.5 76l56 -22q-47 -30 -68 -60.5t-21 -59.5t17.5 -43
t42.5 -14q5 0 13 1t16 3z" />
    <glyph glyph-name="eogonek" unicode="&#x119;" horiz-adv-x="604" 
d="M488 146l58 -60q-39 -48 -95.5 -75t-127.5 -27q-81 0 -144 34t-98.5 93.5t-35.5 136.5t34 136.5t94 93.5t135 34q73 0 129.5 -33.5t89 -92t32.5 -135.5v-6h-94v9q0 54 -20 94.5t-55.5 63t-81.5 22.5q-49 0 -87 -23t-59 -64.5t-21 -97.5t23.5 -98.5t65.5 -65.5t96 -23
q99 0 162 84zM559 217h-445v69h429l16 -35v-34zM490 -173v-72q-11 -2 -21 -3t-20 -1q-53 0 -89 30t-36 83q0 51 36.5 99.5t101.5 89.5l46 -4q-58 -50 -82.5 -91.5t-24.5 -74.5q0 -30 17.5 -45t42.5 -15q5 0 13 1t16 3z" />
    <glyph glyph-name="iogonek" unicode="&#x12f;" horiz-adv-x="225" 
d="M159 0h-93v496h93v-496zM113 613q-26 0 -44.5 17.5t-18.5 43.5t18.5 44t44.5 18t44 -18t18 -44t-18 -43.5t-44 -17.5zM160 -173v-72q-11 -2 -21 -3t-20 -1q-53 0 -89 29t-36 83q0 44 26.5 83t83.5 76l56 -22q-47 -30 -68 -60.5t-21 -59.5t17.5 -43t42.5 -14q5 0 13 1
t16 3z" />
    <glyph glyph-name="uogonek" unicode="&#x173;" horiz-adv-x="587" 
d="M521 0h-92v96l-1 28v372h93v-496zM437 212l19 -20q4 -61 -21.5 -107.5t-72 -73.5t-107.5 -27q-89 0 -142 53t-53 153v306h93v-296q0 -67 32.5 -101.5t90.5 -34.5q41 0 76 18.5t58 52t27 77.5zM522 -173v-72q-11 -2 -21 -3t-20 -1q-53 0 -89 29t-36 83q0 44 26.5 83
t83.5 76l56 -22q-47 -30 -68 -60.5t-21 -59.5t17.5 -43t42.5 -14q5 0 13 1t16 3z" />
    <glyph glyph-name="acutecomb" unicode="&#x301;" 
d="M163 761l-139 -174h-81l114 174h106z" />
    <glyph glyph-name="acutecomb.cap" 
d="M190 941l-159 -144h-93l134 144h118z" />
    <glyph glyph-name="acutecomb.asc" 
d="M167 731l-139 -144h-85l114 144h110z" />
    <glyph glyph-name="acutecomb.narrow" 
d="M138 761l-117 -174h-77l92 174h102z" />
    <glyph glyph-name="acute" unicode="&#xb4;" horiz-adv-x="589" 
d="M400 761l-139 -174h-81l114 174h106z" />
    <glyph glyph-name="uni030B" unicode="&#x30b;" 
d="M101 761l-167 -174h-83l144 174h106zM287 761l-173 -174h-83l150 174h106z" />
    <glyph glyph-name="uni030B.cap" 
d="M99 941l-152 -144h-93l130 144h115zM287 941l-158 -144h-93l136 144h115z" />
    <glyph glyph-name="hungarumlaut" unicode="&#x2dd;" horiz-adv-x="589" 
d="M318 761l-167 -174h-83l144 174h106zM504 761l-173 -174h-83l150 174h106z" />
    <glyph glyph-name="Aacute" unicode="&#xc1;" horiz-adv-x="741" 
d="M568 186h-400v83h400v-83zM708 0h-102l-255 653h36l-255 -653h-98l284 715h105zM560 941l-159 -144h-93l134 144h118z" />
    <glyph glyph-name="Cacute" unicode="&#x106;" horiz-adv-x="743" 
d="M638 184l67 -65q-47 -62 -122 -98.5t-165 -36.5q-79 0 -145.5 28t-115.5 78.5t-76.5 118.5t-27.5 148t28 148.5t77.5 119t116.5 78.5t146 28q89 0 163 -36.5t121 -98.5l-67 -65q-36 52 -91 83t-126 31q-76 0 -136.5 -37.5t-95.5 -102t-35 -148.5q0 -82 35 -147
t95.5 -102.5t136.5 -37.5q71 0 126 31t91 83zM609 941l-159 -144h-93l134 144h118z" />
    <glyph glyph-name="Eacute" unicode="&#xc9;" horiz-adv-x="608" 
d="M563 0h-483v715h483v-83h-387v-549h387v-83zM544 323h-378v83h378v-83zM511 941l-159 -144h-93l134 144h118z" />
    <glyph glyph-name="Iacute" unicode="&#xcd;" horiz-adv-x="257" 
d="M176 0h-96v715h96v-715zM318 941l-159 -144h-93l134 144h118z" />
    <glyph glyph-name="IJacute" horiz-adv-x="690" 
d="M168 325h-96v390h96v-390zM618 715v-441q0 -139 -71 -214.5t-203 -75.5q-78 0 -136 29t-92.5 83.5t-42.5 131.5l96 11q9 -83 53.5 -126t121.5 -43q87 0 132.5 52.5t45.5 151.5v441h96zM310 941l-159 -144h-93l134 144h118zM759 941l-159 -144h-93l134 144h118z" />
    <glyph glyph-name="Lacute" unicode="&#x139;" horiz-adv-x="568" 
d="M533 0h-453v715h96v-630h357v-85zM313 941l-159 -144h-93l134 144h118z" />
    <glyph glyph-name="Nacute" unicode="&#x143;" horiz-adv-x="744" 
d="M172 0h-93v715h103l418 -616h-27v616h93v-715h-103l-419 616h28v-616zM562 941l-159 -144h-93l134 144h118z" />
    <glyph glyph-name="Oacute" unicode="&#xd3;" horiz-adv-x="856" 
d="M428 -16q-81 0 -149 28t-119 78.5t-79 119t-28 148.5t28 148t79 118.5t119 78.5t149 28t149 -28t119 -78.5t79 -118.5t28 -148t-28 -148.5t-79 -119t-119 -78.5t-149 -28zM428 70q81 0 143 37t96.5 102.5t34.5 148.5t-34.5 148t-96.5 102t-143 37q-80 0 -142.5 -37
t-97 -102t-34.5 -148t34.5 -148.5t97 -102.5t142.5 -37zM618 941l-159 -144h-93l134 144h118z" />
    <glyph glyph-name="Racute" unicode="&#x154;" horiz-adv-x="694" 
d="M176 0h-96v715h282q73 0 127 -26t84.5 -72t30.5 -108t-30.5 -108t-84.5 -72t-127 -26h-196v83h196q67 0 105.5 32.5t38.5 90.5t-38.5 90.5t-105.5 32.5h-186v-632zM675 0h-121l-268 333h112zM519 941l-159 -144h-93l134 144h118z" />
    <glyph glyph-name="Sacute" unicode="&#x15a;" horiz-adv-x="685" 
d="M41 116l68 66q29 -35 67 -60t82 -39t93 -14q55 0 97 16.5t66 45.5t24 68q0 51 -44.5 80.5t-152.5 45.5q-98 15 -157 40t-86 63.5t-27 91.5q0 62 35 110t96.5 74.5t140.5 26.5q91 0 161.5 -35.5t123.5 -96.5l-67 -65q-41 51 -93 81.5t-125 30.5q-76 0 -124.5 -33.5
t-48.5 -89.5q0 -29 18 -49.5t59 -34.5t110 -25q100 -14 161.5 -41.5t90 -69.5t28.5 -101q0 -65 -36.5 -114t-101 -76.5t-148.5 -27.5q-99 0 -176 35.5t-134 96.5zM534 941l-159 -144h-93l134 144h118z" />
    <glyph glyph-name="Uacute" unicode="&#xda;" horiz-adv-x="728" 
d="M656 715v-433q0 -141 -77.5 -219.5t-214.5 -78.5q-136 0 -214 78.5t-78 219.5v433h96v-433q0 -102 51.5 -157t144.5 -55q94 0 145.5 55t51.5 157v433h95zM554 941l-159 -144h-93l134 144h118z" />
    <glyph glyph-name="Wacute" unicode="&#x1e82;" horiz-adv-x="1058" 
d="M806 0h-111l-171 600h11l-172 -600h-110l-215 715h103l185 -650h-32l186 650h99l187 -650h-30l185 650h99zM719 941l-159 -144h-93l134 144h118z" />
    <glyph glyph-name="Yacute" unicode="&#xdd;" horiz-adv-x="668" 
d="M382 0h-96v307l-268 408h112l218 -346h-26l219 346h109l-268 -410v-305zM524 941l-159 -144h-93l134 144h118z" />
    <glyph glyph-name="Zacute" unicode="&#x179;" horiz-adv-x="620" 
d="M578 0h-534v84l406 547h-393v84h508v-84l-406 -547h419v-84zM501 941l-159 -144h-93l134 144h118z" />
    <glyph glyph-name="Ohungarumlaut" unicode="&#x150;" horiz-adv-x="856" 
d="M428 -16q-81 0 -149 28t-119 78.5t-79 119t-28 148.5t28 148t79 118.5t119 78.5t149 28t149 -28t119 -78.5t79 -118.5t28 -148t-28 -148.5t-79 -119t-119 -78.5t-149 -28zM428 70q81 0 143 37t96.5 102.5t34.5 148.5t-34.5 148t-96.5 102t-143 37q-80 0 -142.5 -37
t-97 -102t-34.5 -148t34.5 -148.5t97 -102.5t142.5 -37zM527 941l-152 -144h-93l130 144h115zM715 941l-158 -144h-93l136 144h115z" />
    <glyph glyph-name="Uhungarumlaut" unicode="&#x170;" horiz-adv-x="728" 
d="M656 715v-433q0 -141 -77.5 -219.5t-214.5 -78.5q-136 0 -214 78.5t-78 219.5v433h96v-433q0 -102 51.5 -157t144.5 -55q94 0 145.5 55t51.5 157v433h95zM463 941l-152 -144h-93l130 144h115zM651 941l-158 -144h-93l136 144h115z" />
    <glyph glyph-name="aacute" unicode="&#xe1;" horiz-adv-x="558" 
d="M499 0h-87v98l-3 24v185q0 59 -38 93.5t-103 34.5q-47 0 -86 -19.5t-68 -53.5l-58 60q41 43 94.5 66.5t119.5 23.5q68 0 119.5 -25t80.5 -69.5t29 -107.5v-310zM229 -16q-56 0 -99 20.5t-67 56.5t-24 82q0 52 29.5 88.5t81.5 56t119 19.5h151v-69h-141
q-63 0 -103.5 -22.5t-40.5 -69.5q0 -40 30.5 -64t79.5 -24q48 0 87 19t62.5 53.5t26.5 79.5l33 -18q0 -60 -29 -107t-79.5 -74t-116.5 -27zM435 761l-139 -174h-81l114 174h106z" />
    <glyph glyph-name="cacute" unicode="&#x107;" horiz-adv-x="552" 
d="M454 141l63 -60q-36 -45 -89 -71t-120 -26q-76 0 -135.5 34t-93.5 93.5t-34 136.5q0 76 34 135.5t94.5 94t136.5 34.5q66 0 118.5 -26t88.5 -71l-63 -60q-23 35 -58 56t-84 21q-50 0 -88.5 -23.5t-60 -65t-21.5 -95.5t21.5 -95.5t60 -65t88.5 -23.5t84.5 21t57.5 56z
M473 761l-139 -174h-81l114 174h106z" />
    <glyph glyph-name="eacute" unicode="&#xe9;" horiz-adv-x="604" 
d="M488 146l58 -60q-39 -48 -95.5 -75t-127.5 -27q-81 0 -144 34t-98.5 93.5t-35.5 136.5t34 136.5t94 93.5t135 34q73 0 129.5 -33.5t89 -92t32.5 -135.5v-6h-94v9q0 54 -20 94.5t-55.5 63t-81.5 22.5q-49 0 -87 -23t-59 -64.5t-21 -97.5t23.5 -98.5t65.5 -65.5t96 -23
q99 0 162 84zM559 217h-445v69h429l16 -35v-34zM471 761l-139 -174h-81l114 174h106z" />
    <glyph glyph-name="iacute" unicode="&#xed;" horiz-adv-x="225" 
d="M159 0h-93v496h93v-496zM251 761l-117 -174h-77l92 174h102z" />
    <glyph glyph-name="ijacute" horiz-adv-x="451" 
d="M198 -194v78h34q32 0 45.5 14.5t13.5 45.5v552h93v-564q0 -126 -126 -126h-60zM159 0h-93v496h93v-496zM276 761l-139 -174h-81l114 174h106zM501 761l-139 -174h-81l114 174h106z" />
    <glyph glyph-name="lacute" unicode="&#x13a;" horiz-adv-x="225" 
d="M159 0h-93v720h93v-720zM280 953l-139 -144h-85l114 144h110z" />
    <glyph glyph-name="nacute" unicode="&#x144;" horiz-adv-x="589" 
d="M530 0h-93v286q0 73 -33 109.5t-89 36.5q-40 0 -76 -21t-58 -66t-22 -116v-229h-93v496h92v-152h-14q11 63 40 99.5t69 52.5t83 16q90 0 142 -55.5t52 -160.5v-296zM476 761l-139 -174h-81l114 174h106z" />
    <glyph glyph-name="oacute" unicode="&#xf3;" horiz-adv-x="621" 
d="M311 -16q-78 0 -138 34t-94 93.5t-34 136.5t34 136t94 93.5t138 34.5t137.5 -34.5t94 -93.5t34.5 -136t-34.5 -136.5t-94 -93.5t-137.5 -34zM311 64q50 0 88 23t59 65t21 96t-21 95.5t-59 65t-88 23.5t-88.5 -23.5t-59.5 -65t-21 -95.5t21 -96t59.5 -65t88.5 -23z
M474 761l-139 -174h-81l114 174h106z" />
    <glyph glyph-name="racute" unicode="&#x155;" horiz-adv-x="375" 
d="M346 504v-88h-22q-45 0 -82.5 -21.5t-60 -67t-22.5 -118.5v-209h-93v496h92v-159h-14q11 63 40.5 99t68.5 52t80 16h13zM375 761l-139 -174h-81l114 174h106z" />
    <glyph glyph-name="sacute" unicode="&#x15b;" horiz-adv-x="523" 
d="M26 76l59 60q35 -36 80 -56.5t98 -20.5q56 0 91 22.5t35 57.5q0 32 -30 49.5t-104 27.5q-111 16 -158.5 49.5t-47.5 91.5q0 46 27 81t74 54.5t108 19.5q68 0 122 -24t94 -67l-58 -60q-30 35 -69.5 55.5t-88.5 20.5q-51 0 -83.5 -21t-32.5 -54q0 -26 28.5 -40.5
t98.5 -24.5q113 -16 162.5 -52t49.5 -101q0 -47 -28 -83.5t-77.5 -56.5t-114.5 -20q-73 0 -131.5 24.5t-103.5 67.5zM421 761l-139 -174h-81l114 174h106z" />
    <glyph glyph-name="uacute" unicode="&#xfa;" horiz-adv-x="587" 
d="M521 0h-92v96l-1 28v372h93v-496zM437 212l19 -20q4 -61 -21.5 -107.5t-72 -73.5t-107.5 -27q-89 0 -142 53t-53 153v306h93v-296q0 -67 32.5 -101.5t90.5 -34.5q41 0 76 18.5t58 52t27 77.5zM453 761l-139 -174h-81l114 174h106z" />
    <glyph glyph-name="wacute" unicode="&#x1e83;" horiz-adv-x="790" 
d="M613 0h-101l-129 415h23l-129 -415h-100l-158 496h94l132 -450h-31l139 450h88l137 -450h-30l131 450h92zM558 761l-139 -174h-81l114 174h106z" />
    <glyph glyph-name="yacute" unicode="&#xfd;" horiz-adv-x="555" 
d="M441 496h95l-247 -575q-23 -55 -58.5 -85t-101.5 -30h-54v78h52q31 0 51.5 15.5t33.5 45.5l21 53l-214 498h99l179 -445h-36zM441 761l-139 -174h-81l114 174h106z" />
    <glyph glyph-name="zacute" unicode="&#x17a;" horiz-adv-x="498" 
d="M460 0h-421v76l298 343h-288v77h401v-77l-297 -343h307v-76zM410 761l-139 -174h-81l114 174h106z" />
    <glyph glyph-name="ohungarumlaut" unicode="&#x151;" horiz-adv-x="621" 
d="M311 -16q-78 0 -138 34t-94 93.5t-34 136.5t34 136t94 93.5t138 34.5t137.5 -34.5t94 -93.5t34.5 -136t-34.5 -136.5t-94 -93.5t-137.5 -34zM311 64q50 0 88 23t59 65t21 96t-21 95.5t-59 65t-88 23.5t-88.5 -23.5t-59.5 -65t-21 -95.5t21 -96t59.5 -65t88.5 -23z
M412 761l-167 -174h-83l144 174h106zM598 761l-173 -174h-83l150 174h106z" />
    <glyph glyph-name="uhungarumlaut" unicode="&#x171;" horiz-adv-x="587" 
d="M521 0h-92v96l-1 28v372h93v-496zM437 212l19 -20q4 -61 -21.5 -107.5t-72 -73.5t-107.5 -27q-89 0 -142 53t-53 153v306h93v-296q0 -67 32.5 -101.5t90.5 -34.5q41 0 76 18.5t58 52t27 77.5zM391 761l-167 -174h-83l144 174h106zM577 761l-173 -174h-83l150 174h106z
" />
    <glyph glyph-name="gravecomb" unicode="&#x300;" 
d="M-24 587l-139 174h106l114 -174h-81z" />
    <glyph glyph-name="gravecomb.cap" 
d="M-31 797l-159 144h118l134 -144h-93z" />
    <glyph glyph-name="gravecomb.narrow" 
d="M-21 587l-117 174h102l92 -174h-77z" />
    <glyph glyph-name="grave" unicode="`" horiz-adv-x="589" 
d="M319 587l-139 174h106l114 -174h-81z" />
    <glyph glyph-name="Agrave" unicode="&#xc0;" horiz-adv-x="741" 
d="M568 186h-400v83h400v-83zM708 0h-102l-255 653h36l-255 -653h-98l284 715h105zM339 797l-159 144h118l134 -144h-93z" />
    <glyph glyph-name="Egrave" unicode="&#xc8;" horiz-adv-x="608" 
d="M563 0h-483v715h483v-83h-387v-549h387v-83zM544 323h-378v83h378v-83zM290 797l-159 144h118l134 -144h-93z" />
    <glyph glyph-name="Igrave" unicode="&#xcc;" horiz-adv-x="257" 
d="M176 0h-96v715h96v-715zM97 797l-159 144h118l134 -144h-93z" />
    <glyph glyph-name="Ograve" unicode="&#xd2;" horiz-adv-x="856" 
d="M428 -16q-81 0 -149 28t-119 78.5t-79 119t-28 148.5t28 148t79 118.5t119 78.5t149 28t149 -28t119 -78.5t79 -118.5t28 -148t-28 -148.5t-79 -119t-119 -78.5t-149 -28zM428 70q81 0 143 37t96.5 102.5t34.5 148.5t-34.5 148t-96.5 102t-143 37q-80 0 -142.5 -37
t-97 -102t-34.5 -148t34.5 -148.5t97 -102.5t142.5 -37zM397 797l-159 144h118l134 -144h-93z" />
    <glyph glyph-name="Ugrave" unicode="&#xd9;" horiz-adv-x="728" 
d="M656 715v-433q0 -141 -77.5 -219.5t-214.5 -78.5q-136 0 -214 78.5t-78 219.5v433h96v-433q0 -102 51.5 -157t144.5 -55q94 0 145.5 55t51.5 157v433h95zM333 797l-159 144h118l134 -144h-93z" />
    <glyph glyph-name="Wgrave" unicode="&#x1e80;" horiz-adv-x="1058" 
d="M806 0h-111l-171 600h11l-172 -600h-110l-215 715h103l185 -650h-32l186 650h99l187 -650h-30l185 650h99zM498 797l-159 144h118l134 -144h-93z" />
    <glyph glyph-name="Ygrave" unicode="&#x1ef2;" horiz-adv-x="668" 
d="M382 0h-96v307l-268 408h112l218 -346h-26l219 346h109l-268 -410v-305zM303 797l-159 144h118l134 -144h-93z" />
    <glyph glyph-name="agrave" unicode="&#xe0;" horiz-adv-x="558" 
d="M499 0h-87v98l-3 24v185q0 59 -38 93.5t-103 34.5q-47 0 -86 -19.5t-68 -53.5l-58 60q41 43 94.5 66.5t119.5 23.5q68 0 119.5 -25t80.5 -69.5t29 -107.5v-310zM229 -16q-56 0 -99 20.5t-67 56.5t-24 82q0 52 29.5 88.5t81.5 56t119 19.5h151v-69h-141
q-63 0 -103.5 -22.5t-40.5 -69.5q0 -40 30.5 -64t79.5 -24q48 0 87 19t62.5 53.5t26.5 79.5l33 -18q0 -60 -29 -107t-79.5 -74t-116.5 -27zM248 587l-139 174h106l114 -174h-81z" />
    <glyph glyph-name="egrave" unicode="&#xe8;" horiz-adv-x="604" 
d="M488 146l58 -60q-39 -48 -95.5 -75t-127.5 -27q-81 0 -144 34t-98.5 93.5t-35.5 136.5t34 136.5t94 93.5t135 34q73 0 129.5 -33.5t89 -92t32.5 -135.5v-6h-94v9q0 54 -20 94.5t-55.5 63t-81.5 22.5q-49 0 -87 -23t-59 -64.5t-21 -97.5t23.5 -98.5t65.5 -65.5t96 -23
q99 0 162 84zM559 217h-445v69h429l16 -35v-34zM284 587l-139 174h106l114 -174h-81z" />
    <glyph glyph-name="igrave" unicode="&#xec;" horiz-adv-x="225" 
d="M159 0h-93v496h93v-496zM92 587l-117 174h102l92 -174h-77z" />
    <glyph glyph-name="ograve" unicode="&#xf2;" horiz-adv-x="621" 
d="M311 -16q-78 0 -138 34t-94 93.5t-34 136.5t34 136t94 93.5t138 34.5t137.5 -34.5t94 -93.5t34.5 -136t-34.5 -136.5t-94 -93.5t-137.5 -34zM311 64q50 0 88 23t59 65t21 96t-21 95.5t-59 65t-88 23.5t-88.5 -23.5t-59.5 -65t-21 -95.5t21 -96t59.5 -65t88.5 -23z
M287 587l-139 174h106l114 -174h-81z" />
    <glyph glyph-name="ugrave" unicode="&#xf9;" horiz-adv-x="587" 
d="M521 0h-92v96l-1 28v372h93v-496zM437 212l19 -20q4 -61 -21.5 -107.5t-72 -73.5t-107.5 -27q-89 0 -142 53t-53 153v306h93v-296q0 -67 32.5 -101.5t90.5 -34.5q41 0 76 18.5t58 52t27 77.5zM266 587l-139 174h106l114 -174h-81z" />
    <glyph glyph-name="wgrave" unicode="&#x1e81;" horiz-adv-x="790" 
d="M613 0h-101l-129 415h23l-129 -415h-100l-158 496h94l132 -450h-31l139 450h88l137 -450h-30l131 450h92zM371 587l-139 174h106l114 -174h-81z" />
    <glyph glyph-name="ygrave" unicode="&#x1ef3;" horiz-adv-x="555" 
d="M441 496h95l-247 -575q-23 -55 -58.5 -85t-101.5 -30h-54v78h52q31 0 51.5 15.5t33.5 45.5l21 53l-214 498h99l179 -445h-36zM254 587l-139 174h106l114 -174h-81z" />
    <glyph glyph-name="uni0302" unicode="&#x302;" 
d="M169 587h-86l-123 158h77l-123 -158h-83l124 174h90z" />
    <glyph glyph-name="uni0302.cap" 
d="M178 799h-92l-132 128h90l-131 -128h-91l133 144h90z" />
    <glyph glyph-name="uni0302.narrow" 
d="M159 587h-82l-120 155h83l-120 -155h-79l124 174h70z" />
    <glyph glyph-name="circumflex" unicode="&#x2c6;" horiz-adv-x="589" 
d="M459 587h-86l-123 158h77l-123 -158h-83l124 174h90z" />
    <glyph glyph-name="tildecomb" unicode="&#x303;" 
d="M108 726l64 -28q-11 -56 -38.5 -80t-60.5 -24q-24 0 -46 9.5t-43 25.5q-18 14 -29.5 20.5t-22.5 6.5q-14 0 -25 -15.5t-15 -47.5l-64 28q10 56 37.5 80.5t60.5 24.5q25 0 46.5 -10t42.5 -25q18 -15 30 -21.5t22 -6.5q14 0 25 15.5t16 47.5z" />
    <glyph glyph-name="tildecomb.cap" 
d="M116 917l66 -27q-10 -52 -43 -76t-69 -24q-23 0 -45 10t-43 24q-20 13 -31.5 19.5t-22.5 6.5q-15 0 -27.5 -13t-17.5 -44l-66 27q10 52 43 76t69 24q23 0 45 -10t43 -24q20 -13 31.5 -19.5t22.5 -6.5q15 0 28 13.5t17 43.5z" />
    <glyph glyph-name="tildecomb.narrow" 
d="M96 726l58 -28q-9 -56 -34 -80t-55 -24q-21 0 -41 9.5t-38 25.5q-17 14 -27 20.5t-19 6.5q-12 0 -22.5 -15.5t-13.5 -47.5l-59 28q9 56 34 80.5t55 24.5q22 0 41.5 -10t37.5 -25q17 -15 27 -21.5t19 -6.5q14 0 23.5 15.5t13.5 47.5z" />
    <glyph glyph-name="tilde" unicode="&#x2dc;" horiz-adv-x="589" 
d="M398 726l64 -28q-11 -56 -38.5 -80t-60.5 -24q-24 0 -46 9.5t-43 25.5q-18 14 -29.5 20.5t-22.5 6.5q-14 0 -25 -15.5t-15 -47.5l-64 28q10 56 37.5 80.5t60.5 24.5q25 0 46.5 -10t42.5 -25q18 -15 30 -21.5t22 -6.5q14 0 25 15.5t16 47.5z" />
    <glyph glyph-name="Acircumflex" unicode="&#xc2;" horiz-adv-x="741" 
d="M568 186h-400v83h400v-83zM708 0h-102l-255 653h36l-255 -653h-98l284 715h105zM548 799h-92l-132 128h90l-131 -128h-91l133 144h90z" />
    <glyph glyph-name="Ecircumflex" unicode="&#xca;" horiz-adv-x="608" 
d="M563 0h-483v715h483v-83h-387v-549h387v-83zM544 323h-378v83h378v-83zM499 799h-92l-132 128h90l-131 -128h-91l133 144h90z" />
    <glyph glyph-name="Icircumflex" unicode="&#xce;" horiz-adv-x="257" 
d="M176 0h-96v715h96v-715zM306 799h-92l-132 128h90l-131 -128h-91l133 144h90z" />
    <glyph glyph-name="Ocircumflex" unicode="&#xd4;" horiz-adv-x="856" 
d="M428 -16q-81 0 -149 28t-119 78.5t-79 119t-28 148.5t28 148t79 118.5t119 78.5t149 28t149 -28t119 -78.5t79 -118.5t28 -148t-28 -148.5t-79 -119t-119 -78.5t-149 -28zM428 70q81 0 143 37t96.5 102.5t34.5 148.5t-34.5 148t-96.5 102t-143 37q-80 0 -142.5 -37
t-97 -102t-34.5 -148t34.5 -148.5t97 -102.5t142.5 -37zM606 799h-92l-132 128h90l-131 -128h-91l133 144h90z" />
    <glyph glyph-name="Ucircumflex" unicode="&#xdb;" horiz-adv-x="728" 
d="M656 715v-433q0 -141 -77.5 -219.5t-214.5 -78.5q-136 0 -214 78.5t-78 219.5v433h96v-433q0 -102 51.5 -157t144.5 -55q94 0 145.5 55t51.5 157v433h95zM542 799h-92l-132 128h90l-131 -128h-91l133 144h90z" />
    <glyph glyph-name="Wcircumflex" unicode="&#x174;" horiz-adv-x="1058" 
d="M806 0h-111l-171 600h11l-172 -600h-110l-215 715h103l185 -650h-32l186 650h99l187 -650h-30l185 650h99zM707 799h-92l-132 128h90l-131 -128h-91l133 144h90z" />
    <glyph glyph-name="Ycircumflex" unicode="&#x176;" horiz-adv-x="668" 
d="M382 0h-96v307l-268 408h112l218 -346h-26l219 346h109l-268 -410v-305zM512 799h-92l-132 128h90l-131 -128h-91l133 144h90z" />
    <glyph glyph-name="Atilde" unicode="&#xc3;" horiz-adv-x="741" 
d="M568 186h-400v83h400v-83zM708 0h-102l-255 653h36l-255 -653h-98l284 715h105zM486 917l66 -27q-10 -52 -43 -76t-69 -24q-23 0 -45 10t-43 24q-20 13 -31.5 19.5t-22.5 6.5q-15 0 -27.5 -13t-17.5 -44l-66 27q10 52 43 76t69 24q23 0 45 -10t43 -24q20 -13 31.5 -19.5
t22.5 -6.5q15 0 28 13.5t17 43.5z" />
    <glyph glyph-name="Itilde" unicode="&#x128;" horiz-adv-x="257" 
d="M176 0h-96v715h96v-715zM244 917l66 -27q-10 -52 -43 -76t-69 -24q-23 0 -45 10t-43 24q-20 13 -31.5 19.5t-22.5 6.5q-15 0 -27.5 -13t-17.5 -44l-66 27q10 52 43 76t69 24q23 0 45 -10t43 -24q20 -13 31.5 -19.5t22.5 -6.5q15 0 28 13.5t17 43.5z" />
    <glyph glyph-name="Ntilde" unicode="&#xd1;" horiz-adv-x="744" 
d="M172 0h-93v715h103l418 -616h-27v616h93v-715h-103l-419 616h28v-616zM488 917l66 -27q-10 -52 -43 -76t-69 -24q-23 0 -45 10t-43 24q-20 13 -31.5 19.5t-22.5 6.5q-15 0 -27.5 -13t-17.5 -44l-66 27q10 52 43 76t69 24q23 0 45 -10t43 -24q20 -13 31.5 -19.5t22.5 -6.5
q15 0 28 13.5t17 43.5z" />
    <glyph glyph-name="Otilde" unicode="&#xd5;" horiz-adv-x="856" 
d="M428 -16q-81 0 -149 28t-119 78.5t-79 119t-28 148.5t28 148t79 118.5t119 78.5t149 28t149 -28t119 -78.5t79 -118.5t28 -148t-28 -148.5t-79 -119t-119 -78.5t-149 -28zM428 70q81 0 143 37t96.5 102.5t34.5 148.5t-34.5 148t-96.5 102t-143 37q-80 0 -142.5 -37
t-97 -102t-34.5 -148t34.5 -148.5t97 -102.5t142.5 -37zM544 917l66 -27q-10 -52 -43 -76t-69 -24q-23 0 -45 10t-43 24q-20 13 -31.5 19.5t-22.5 6.5q-15 0 -27.5 -13t-17.5 -44l-66 27q10 52 43 76t69 24q23 0 45 -10t43 -24q20 -13 31.5 -19.5t22.5 -6.5q15 0 28 13.5
t17 43.5z" />
    <glyph glyph-name="Utilde" unicode="&#x168;" horiz-adv-x="728" 
d="M656 715v-433q0 -141 -77.5 -219.5t-214.5 -78.5q-136 0 -214 78.5t-78 219.5v433h96v-433q0 -102 51.5 -157t144.5 -55q94 0 145.5 55t51.5 157v433h95zM480 917l66 -27q-10 -52 -43 -76t-69 -24q-23 0 -45 10t-43 24q-20 13 -31.5 19.5t-22.5 6.5q-15 0 -27.5 -13
t-17.5 -44l-66 27q10 52 43 76t69 24q23 0 45 -10t43 -24q20 -13 31.5 -19.5t22.5 -6.5q15 0 28 13.5t17 43.5z" />
    <glyph glyph-name="acircumflex" unicode="&#xe2;" horiz-adv-x="558" 
d="M499 0h-87v98l-3 24v185q0 59 -38 93.5t-103 34.5q-47 0 -86 -19.5t-68 -53.5l-58 60q41 43 94.5 66.5t119.5 23.5q68 0 119.5 -25t80.5 -69.5t29 -107.5v-310zM229 -16q-56 0 -99 20.5t-67 56.5t-24 82q0 52 29.5 88.5t81.5 56t119 19.5h151v-69h-141
q-63 0 -103.5 -22.5t-40.5 -69.5q0 -40 30.5 -64t79.5 -24q48 0 87 19t62.5 53.5t26.5 79.5l33 -18q0 -60 -29 -107t-79.5 -74t-116.5 -27zM441 587h-86l-123 158h77l-123 -158h-83l124 174h90z" />
    <glyph glyph-name="ecircumflex" unicode="&#xea;" horiz-adv-x="604" 
d="M488 146l58 -60q-39 -48 -95.5 -75t-127.5 -27q-81 0 -144 34t-98.5 93.5t-35.5 136.5t34 136.5t94 93.5t135 34q73 0 129.5 -33.5t89 -92t32.5 -135.5v-6h-94v9q0 54 -20 94.5t-55.5 63t-81.5 22.5q-49 0 -87 -23t-59 -64.5t-21 -97.5t23.5 -98.5t65.5 -65.5t96 -23
q99 0 162 84zM559 217h-445v69h429l16 -35v-34zM477 587h-86l-123 158h77l-123 -158h-83l124 174h90z" />
    <glyph glyph-name="icircumflex" unicode="&#xee;" horiz-adv-x="225" 
d="M159 0h-93v496h93v-496zM272 587h-82l-120 155h83l-120 -155h-79l124 174h70z" />
    <glyph glyph-name="ocircumflex" unicode="&#xf4;" horiz-adv-x="621" 
d="M311 -16q-78 0 -138 34t-94 93.5t-34 136.5t34 136t94 93.5t138 34.5t137.5 -34.5t94 -93.5t34.5 -136t-34.5 -136.5t-94 -93.5t-137.5 -34zM311 64q50 0 88 23t59 65t21 96t-21 95.5t-59 65t-88 23.5t-88.5 -23.5t-59.5 -65t-21 -95.5t21 -96t59.5 -65t88.5 -23z
M480 587h-86l-123 158h77l-123 -158h-83l124 174h90z" />
    <glyph glyph-name="ucircumflex" unicode="&#xfb;" horiz-adv-x="587" 
d="M521 0h-92v96l-1 28v372h93v-496zM437 212l19 -20q4 -61 -21.5 -107.5t-72 -73.5t-107.5 -27q-89 0 -142 53t-53 153v306h93v-296q0 -67 32.5 -101.5t90.5 -34.5q41 0 76 18.5t58 52t27 77.5zM459 587h-86l-123 158h77l-123 -158h-83l124 174h90z" />
    <glyph glyph-name="wcircumflex" unicode="&#x175;" horiz-adv-x="790" 
d="M613 0h-101l-129 415h23l-129 -415h-100l-158 496h94l132 -450h-31l139 450h88l137 -450h-30l131 450h92zM564 587h-86l-123 158h77l-123 -158h-83l124 174h90z" />
    <glyph glyph-name="ycircumflex" unicode="&#x177;" horiz-adv-x="555" 
d="M441 496h95l-247 -575q-23 -55 -58.5 -85t-101.5 -30h-54v78h52q31 0 51.5 15.5t33.5 45.5l21 53l-214 498h99l179 -445h-36zM447 587h-86l-123 158h77l-123 -158h-83l124 174h90z" />
    <glyph glyph-name="atilde" unicode="&#xe3;" horiz-adv-x="558" 
d="M499 0h-87v98l-3 24v185q0 59 -38 93.5t-103 34.5q-47 0 -86 -19.5t-68 -53.5l-58 60q41 43 94.5 66.5t119.5 23.5q68 0 119.5 -25t80.5 -69.5t29 -107.5v-310zM229 -16q-56 0 -99 20.5t-67 56.5t-24 82q0 52 29.5 88.5t81.5 56t119 19.5h151v-69h-141
q-63 0 -103.5 -22.5t-40.5 -69.5q0 -40 30.5 -64t79.5 -24q48 0 87 19t62.5 53.5t26.5 79.5l33 -18q0 -60 -29 -107t-79.5 -74t-116.5 -27zM380 726l64 -28q-11 -56 -38.5 -80t-60.5 -24q-24 0 -46 9.5t-43 25.5q-18 14 -29.5 20.5t-22.5 6.5q-14 0 -25 -15.5t-15 -47.5
l-64 28q10 56 37.5 80.5t60.5 24.5q25 0 46.5 -10t42.5 -25q18 -15 30 -21.5t22 -6.5q14 0 25 15.5t16 47.5z" />
    <glyph glyph-name="itilde" unicode="&#x129;" horiz-adv-x="225" 
d="M159 0h-93v496h93v-496zM209 726l58 -28q-9 -56 -34 -80t-55 -24q-21 0 -41 9.5t-38 25.5q-17 14 -27 20.5t-19 6.5q-12 0 -22.5 -15.5t-13.5 -47.5l-59 28q9 56 34 80.5t55 24.5q22 0 41.5 -10t37.5 -25q17 -15 27 -21.5t19 -6.5q14 0 23.5 15.5t13.5 47.5z" />
    <glyph glyph-name="ntilde" unicode="&#xf1;" horiz-adv-x="589" 
d="M530 0h-93v286q0 73 -33 109.5t-89 36.5q-40 0 -76 -21t-58 -66t-22 -116v-229h-93v496h92v-152h-14q11 63 40 99.5t69 52.5t83 16q90 0 142 -55.5t52 -160.5v-296zM421 726l64 -28q-11 -56 -38.5 -80t-60.5 -24q-24 0 -46 9.5t-43 25.5q-18 14 -29.5 20.5t-22.5 6.5
q-14 0 -25 -15.5t-15 -47.5l-64 28q10 56 37.5 80.5t60.5 24.5q25 0 46.5 -10t42.5 -25q18 -15 30 -21.5t22 -6.5q14 0 25 15.5t16 47.5z" />
    <glyph glyph-name="otilde" unicode="&#xf5;" horiz-adv-x="621" 
d="M311 -16q-78 0 -138 34t-94 93.5t-34 136.5t34 136t94 93.5t138 34.5t137.5 -34.5t94 -93.5t34.5 -136t-34.5 -136.5t-94 -93.5t-137.5 -34zM311 64q50 0 88 23t59 65t21 96t-21 95.5t-59 65t-88 23.5t-88.5 -23.5t-59.5 -65t-21 -95.5t21 -96t59.5 -65t88.5 -23z
M419 726l64 -28q-11 -56 -38.5 -80t-60.5 -24q-24 0 -46 9.5t-43 25.5q-18 14 -29.5 20.5t-22.5 6.5q-14 0 -25 -15.5t-15 -47.5l-64 28q10 56 37.5 80.5t60.5 24.5q25 0 46.5 -10t42.5 -25q18 -15 30 -21.5t22 -6.5q14 0 25 15.5t16 47.5z" />
    <glyph glyph-name="utilde" unicode="&#x169;" horiz-adv-x="587" 
d="M521 0h-92v96l-1 28v372h93v-496zM437 212l19 -20q4 -61 -21.5 -107.5t-72 -73.5t-107.5 -27q-89 0 -142 53t-53 153v306h93v-296q0 -67 32.5 -101.5t90.5 -34.5q41 0 76 18.5t58 52t27 77.5zM398 726l64 -28q-11 -56 -38.5 -80t-60.5 -24q-24 0 -46 9.5t-43 25.5
q-18 14 -29.5 20.5t-22.5 6.5q-14 0 -25 -15.5t-15 -47.5l-64 28q10 56 37.5 80.5t60.5 24.5q25 0 46.5 -10t42.5 -25q18 -15 30 -21.5t22 -6.5q14 0 25 15.5t16 47.5z" />
    <glyph glyph-name="uni030C" unicode="&#x30c;" 
d="M-169 761h86l123 -158h-77l123 158h83l-124 -174h-90z" />
    <glyph glyph-name="uni030C.cap" 
d="M-178 943h92l132 -128h-90l131 128h91l-133 -144h-90z" />
    <glyph glyph-name="caron" unicode="&#x2c7;" horiz-adv-x="589" 
d="M121 761h86l123 -158h-77l123 158h83l-124 -174h-90z" />
    <glyph glyph-name="uni0315" unicode="&#x315;" 
d="M-1 513h-53q22 29 35.5 64t11.5 59l11 -18q-24 0 -40.5 16.5t-16.5 39.5q0 24 16 40.5t39 16.5q27 0 44 -18.5t17 -48.5q0 -23 -9 -50.5t-23.5 -54t-31.5 -46.5z" />
    <glyph glyph-name="uni0315.short" 
d="M17 554h-59q18 26 30.5 53.5t10.5 47.5l19 -23q-24 0 -41.5 16t-17.5 37q0 22 15.5 37.5t38.5 15.5q26 0 42 -17t16 -45q0 -29 -17 -62.5t-37 -59.5z" />
    <glyph glyph-name="uni0304" unicode="&#x304;" 
d="M143 616h-286v71h286v-71z" />
    <glyph glyph-name="uni0304.cap" 
d="M154 820h-308v74h308v-74z" />
    <glyph glyph-name="uni0304.narrow" 
d="M129 616h-258v71h258v-71z" />
    <glyph glyph-name="macron" unicode="&#xaf;" horiz-adv-x="589" 
d="M433 616h-286v71h286v-71z" />
    <glyph glyph-name="Ccaron" unicode="&#x10c;" horiz-adv-x="743" 
d="M638 184l67 -65q-47 -62 -122 -98.5t-165 -36.5q-79 0 -145.5 28t-115.5 78.5t-76.5 118.5t-27.5 148t28 148.5t77.5 119t116.5 78.5t146 28q89 0 163 -36.5t121 -98.5l-67 -65q-36 52 -91 83t-126 31q-76 0 -136.5 -37.5t-95.5 -102t-35 -148.5q0 -82 35 -147
t95.5 -102.5t136.5 -37.5q71 0 126 31t91 83zM241 943h92l132 -128h-90l131 128h91l-133 -144h-90z" />
    <glyph glyph-name="Dcaron" unicode="&#x10e;" horiz-adv-x="746" 
d="M80 0v715h238q111 0 195.5 -46t132 -126.5t47.5 -184.5t-47.5 -185t-132 -127t-195.5 -46h-238zM176 85h142q84 0 146 34t95.5 95.5t33.5 143.5t-33.5 143t-95.5 95t-146 34h-142v-545zM163 943h92l132 -128h-90l131 128h91l-133 -144h-90z" />
    <glyph glyph-name="Ecaron" unicode="&#x11a;" horiz-adv-x="608" 
d="M563 0h-483v715h483v-83h-387v-549h387v-83zM544 323h-378v83h378v-83zM143 943h92l132 -128h-90l131 128h91l-133 -144h-90z" />
    <glyph glyph-name="Lcaron" unicode="&#x13d;" horiz-adv-x="568" 
d="M533 0h-453v715h96v-630h357v-85zM372 513h-53q22 29 35.5 64t11.5 59l11 -18q-24 0 -40.5 16.5t-16.5 39.5q0 24 16 40.5t39 16.5q27 0 44 -18.5t17 -48.5q0 -23 -9 -50.5t-23.5 -54t-31.5 -46.5z" />
    <glyph glyph-name="Ncaron" unicode="&#x147;" horiz-adv-x="744" 
d="M172 0h-93v715h103l418 -616h-27v616h93v-715h-103l-419 616h28v-616zM194 943h92l132 -128h-90l131 128h91l-133 -144h-90z" />
    <glyph glyph-name="Rcaron" unicode="&#x158;" horiz-adv-x="694" 
d="M176 0h-96v715h282q73 0 127 -26t84.5 -72t30.5 -108t-30.5 -108t-84.5 -72t-127 -26h-196v83h196q67 0 105.5 32.5t38.5 90.5t-38.5 90.5t-105.5 32.5h-186v-632zM675 0h-121l-268 333h112zM151 943h92l132 -128h-90l131 128h91l-133 -144h-90z" />
    <glyph glyph-name="Scaron" unicode="&#x160;" horiz-adv-x="685" 
d="M41 116l68 66q29 -35 67 -60t82 -39t93 -14q55 0 97 16.5t66 45.5t24 68q0 51 -44.5 80.5t-152.5 45.5q-98 15 -157 40t-86 63.5t-27 91.5q0 62 35 110t96.5 74.5t140.5 26.5q91 0 161.5 -35.5t123.5 -96.5l-67 -65q-41 51 -93 81.5t-125 30.5q-76 0 -124.5 -33.5
t-48.5 -89.5q0 -29 18 -49.5t59 -34.5t110 -25q100 -14 161.5 -41.5t90 -69.5t28.5 -101q0 -65 -36.5 -114t-101 -76.5t-148.5 -27.5q-99 0 -176 35.5t-134 96.5zM166 943h92l132 -128h-90l131 128h91l-133 -144h-90z" />
    <glyph glyph-name="Tcaron" unicode="&#x164;" horiz-adv-x="632" 
d="M364 0h-96v641h96v-641zM598 631h-563v84h563v-84zM138 943h92l132 -128h-90l131 128h91l-133 -144h-90z" />
    <glyph glyph-name="Zcaron" unicode="&#x17d;" horiz-adv-x="620" 
d="M578 0h-534v84l406 547h-393v84h508v-84l-406 -547h419v-84zM133 943h92l132 -128h-90l131 128h91l-133 -144h-90z" />
    <glyph glyph-name="Amacron" unicode="&#x100;" horiz-adv-x="741" 
d="M568 186h-400v83h400v-83zM708 0h-102l-255 653h36l-255 -653h-98l284 715h105zM524 820h-308v74h308v-74z" />
    <glyph glyph-name="Emacron" unicode="&#x112;" horiz-adv-x="608" 
d="M563 0h-483v715h483v-83h-387v-549h387v-83zM544 323h-378v83h378v-83zM475 820h-308v74h308v-74z" />
    <glyph glyph-name="Imacron" unicode="&#x12a;" horiz-adv-x="257" 
d="M176 0h-96v715h96v-715zM282 820h-308v74h308v-74z" />
    <glyph glyph-name="Umacron" unicode="&#x16a;" horiz-adv-x="728" 
d="M656 715v-433q0 -141 -77.5 -219.5t-214.5 -78.5q-136 0 -214 78.5t-78 219.5v433h96v-433q0 -102 51.5 -157t144.5 -55q94 0 145.5 55t51.5 157v433h95zM518 820h-308v74h308v-74z" />
    <glyph glyph-name="ccaron" unicode="&#x10d;" horiz-adv-x="552" 
d="M454 141l63 -60q-36 -45 -89 -71t-120 -26q-76 0 -135.5 34t-93.5 93.5t-34 136.5q0 76 34 135.5t94.5 94t136.5 34.5q66 0 118.5 -26t88.5 -71l-63 -60q-23 35 -58 56t-84 21q-50 0 -88.5 -23.5t-60 -65t-21.5 -95.5t21.5 -95.5t60 -65t88.5 -23.5t84.5 21t57.5 56z
M141 761h86l123 -158h-77l123 158h83l-124 -174h-90z" />
    <glyph glyph-name="dcaron" unicode="&#x10f;" horiz-adv-x="755" 
d="M573 0h-92v129l-1 3v105q0 58 -21.5 102t-60 68.5t-88.5 24.5t-88 -24t-59 -65.5t-21 -94.5t22 -95t60.5 -65.5t89.5 -23.5q46 0 84 18.5t62.5 52.5t28.5 77l19 -19q6 -59 -19.5 -106.5t-74.5 -75t-116 -27.5q-73 0 -130.5 34t-90 93.5t-32.5 136.5q0 76 32.5 135.5
t89.5 94t128 34.5q55 0 99 -21t73 -59t36 -88h-23v376h93v-720zM679 513h-53q22 29 35.5 64t11.5 59l11 -18q-24 0 -40.5 16.5t-16.5 39.5q0 24 16 40.5t39 16.5q27 0 44 -18.5t17 -48.5q0 -23 -9 -50.5t-23.5 -54t-31.5 -46.5z" />
    <glyph glyph-name="ecaron" unicode="&#x11b;" horiz-adv-x="604" 
d="M488 146l58 -60q-39 -48 -95.5 -75t-127.5 -27q-81 0 -144 34t-98.5 93.5t-35.5 136.5t34 136.5t94 93.5t135 34q73 0 129.5 -33.5t89 -92t32.5 -135.5v-6h-94v9q0 54 -20 94.5t-55.5 63t-81.5 22.5q-49 0 -87 -23t-59 -64.5t-21 -97.5t23.5 -98.5t65.5 -65.5t96 -23
q99 0 162 84zM559 217h-445v69h429l16 -35v-34zM139 761h86l123 -158h-77l123 158h83l-124 -174h-90z" />
    <glyph glyph-name="lcaron" unicode="&#x13e;" horiz-adv-x="341" 
d="M159 0h-93v720h93v-720zM265 513h-53q22 29 35.5 64t11.5 59l11 -18q-24 0 -40.5 16.5t-16.5 39.5q0 24 16 40.5t39 16.5q27 0 44 -18.5t17 -48.5q0 -23 -9 -50.5t-23.5 -54t-31.5 -46.5z" />
    <glyph glyph-name="ncaron" unicode="&#x148;" horiz-adv-x="589" 
d="M530 0h-93v286q0 73 -33 109.5t-89 36.5q-40 0 -76 -21t-58 -66t-22 -116v-229h-93v496h92v-152h-14q11 63 40 99.5t69 52.5t83 16q90 0 142 -55.5t52 -160.5v-296zM144 761h86l123 -158h-77l123 158h83l-124 -174h-90z" />
    <glyph glyph-name="rcaron" unicode="&#x159;" horiz-adv-x="375" 
d="M346 504v-88h-22q-45 0 -82.5 -21.5t-60 -67t-22.5 -118.5v-209h-93v496h92v-159h-14q11 63 40.5 99t68.5 52t80 16h13zM43 761h86l123 -158h-77l123 158h83l-124 -174h-90z" />
    <glyph glyph-name="scaron" unicode="&#x161;" horiz-adv-x="523" 
d="M26 76l59 60q35 -36 80 -56.5t98 -20.5q56 0 91 22.5t35 57.5q0 32 -30 49.5t-104 27.5q-111 16 -158.5 49.5t-47.5 91.5q0 46 27 81t74 54.5t108 19.5q68 0 122 -24t94 -67l-58 -60q-30 35 -69.5 55.5t-88.5 20.5q-51 0 -83.5 -21t-32.5 -54q0 -26 28.5 -40.5
t98.5 -24.5q113 -16 162.5 -52t49.5 -101q0 -47 -28 -83.5t-77.5 -56.5t-114.5 -20q-73 0 -131.5 24.5t-103.5 67.5zM89 761h86l123 -158h-77l123 158h83l-124 -174h-90z" />
    <glyph glyph-name="tcaron" unicode="&#x165;" horiz-adv-x="406" 
d="M366 0h-119q-58 0 -88.5 30.5t-30.5 87.5v518h93v-506q0 -25 13 -38.5t38 -13.5h94v-78zM359 418h-328v78h328v-78zM335 554h-59q18 26 30.5 53.5t10.5 47.5l19 -23q-24 0 -41.5 16t-17.5 37q0 22 15.5 37.5t38.5 15.5q26 0 42 -17t16 -45q0 -29 -17 -62.5t-37 -59.5z
" />
    <glyph glyph-name="zcaron" unicode="&#x17e;" horiz-adv-x="498" 
d="M460 0h-421v76l298 343h-288v77h401v-77l-297 -343h307v-76zM78 761h86l123 -158h-77l123 158h83l-124 -174h-90z" />
    <glyph glyph-name="amacron" unicode="&#x101;" horiz-adv-x="558" 
d="M499 0h-87v98l-3 24v185q0 59 -38 93.5t-103 34.5q-47 0 -86 -19.5t-68 -53.5l-58 60q41 43 94.5 66.5t119.5 23.5q68 0 119.5 -25t80.5 -69.5t29 -107.5v-310zM229 -16q-56 0 -99 20.5t-67 56.5t-24 82q0 52 29.5 88.5t81.5 56t119 19.5h151v-69h-141
q-63 0 -103.5 -22.5t-40.5 -69.5q0 -40 30.5 -64t79.5 -24q48 0 87 19t62.5 53.5t26.5 79.5l33 -18q0 -60 -29 -107t-79.5 -74t-116.5 -27zM415 616h-286v71h286v-71z" />
    <glyph glyph-name="emacron" unicode="&#x113;" horiz-adv-x="604" 
d="M488 146l58 -60q-39 -48 -95.5 -75t-127.5 -27q-81 0 -144 34t-98.5 93.5t-35.5 136.5t34 136.5t94 93.5t135 34q73 0 129.5 -33.5t89 -92t32.5 -135.5v-6h-94v9q0 54 -20 94.5t-55.5 63t-81.5 22.5q-49 0 -87 -23t-59 -64.5t-21 -97.5t23.5 -98.5t65.5 -65.5t96 -23
q99 0 162 84zM559 217h-445v69h429l16 -35v-34zM451 616h-286v71h286v-71z" />
    <glyph glyph-name="imacron" unicode="&#x12b;" horiz-adv-x="225" 
d="M159 0h-93v496h93v-496zM242 616h-258v71h258v-71z" />
    <glyph glyph-name="umacron" unicode="&#x16b;" horiz-adv-x="587" 
d="M521 0h-92v96l-1 28v372h93v-496zM437 212l19 -20q4 -61 -21.5 -107.5t-72 -73.5t-107.5 -27q-89 0 -142 53t-53 153v306h93v-296q0 -67 32.5 -101.5t90.5 -34.5q41 0 76 18.5t58 52t27 77.5zM433 616h-286v71h286v-71z" />
    <glyph glyph-name="uni0308" unicode="&#x308;" 
d="M105 614q-26 0 -44 17.5t-18 42.5q0 26 18 43.5t44 17.5t43.5 -17.5t17.5 -43.5q0 -25 -17.5 -42.5t-43.5 -17.5zM-105 614q-25 0 -43 17.5t-18 42.5q0 26 18 43.5t43 17.5q27 0 44.5 -17.5t17.5 -43.5q0 -25 -17.5 -42.5t-44.5 -17.5z" />
    <glyph glyph-name="uni0308.cap" 
d="M109 804q-27 0 -45 18t-18 43q0 26 18 44t45 18q26 0 44 -18t18 -44q0 -25 -18 -43t-44 -18zM-109 804q-26 0 -44 18t-18 43q0 26 18 44t44 18q27 0 45 -18t18 -44q0 -25 -18 -43t-45 -18z" />
    <glyph glyph-name="uni0308.narrow" 
d="M83 616q-25 0 -42.5 16.5t-17.5 41.5t17.5 42t42.5 17t42.5 -17t17.5 -42t-17.5 -41.5t-42.5 -16.5zM-83 616q-25 0 -42.5 16.5t-17.5 41.5t17.5 42t42.5 17t42.5 -17t17.5 -42t-17.5 -41.5t-42.5 -16.5z" />
    <glyph glyph-name="dieresis" unicode="&#xa8;" horiz-adv-x="589" 
d="M395 614q-26 0 -44 17.5t-18 42.5q0 26 18 43.5t44 17.5t43.5 -17.5t17.5 -43.5q0 -25 -17.5 -42.5t-43.5 -17.5zM185 614q-25 0 -43 17.5t-18 42.5q0 26 18 43.5t43 17.5q27 0 44.5 -17.5t17.5 -43.5q0 -25 -17.5 -42.5t-44.5 -17.5z" />
    <glyph glyph-name="uni0306" unicode="&#x306;" 
d="M0 583q-61 0 -106 41.5t-51 112.5h74q5 -44 28 -65.5t55 -21.5t55 21.5t28 65.5h74q-6 -71 -51 -112.5t-106 -41.5z" />
    <glyph glyph-name="uni0306.cap" 
d="M0 795q-68 0 -114.5 39.5t-53.5 103.5h77q5 -35 30 -55t61 -20t61 20t30 55h77q-7 -64 -53.5 -103.5t-114.5 -39.5z" />
    <glyph glyph-name="breve" unicode="&#x2d8;" horiz-adv-x="589" 
d="M290 583q-61 0 -106 41.5t-51 112.5h74q5 -44 28 -65.5t55 -21.5t55 21.5t28 65.5h74q-6 -71 -51 -112.5t-106 -41.5z" />
    <glyph glyph-name="Adieresis" unicode="&#xc4;" horiz-adv-x="741" 
d="M568 186h-400v83h400v-83zM708 0h-102l-255 653h36l-255 -653h-98l284 715h105zM479 804q-27 0 -45 18t-18 43q0 26 18 44t45 18q26 0 44 -18t18 -44q0 -25 -18 -43t-44 -18zM261 804q-26 0 -44 18t-18 43q0 26 18 44t44 18q27 0 45 -18t18 -44q0 -25 -18 -43t-45 -18z
" />
    <glyph glyph-name="Edieresis" unicode="&#xcb;" horiz-adv-x="608" 
d="M563 0h-483v715h483v-83h-387v-549h387v-83zM544 323h-378v83h378v-83zM430 804q-27 0 -45 18t-18 43q0 26 18 44t45 18q26 0 44 -18t18 -44q0 -25 -18 -43t-44 -18zM212 804q-26 0 -44 18t-18 43q0 26 18 44t44 18q27 0 45 -18t18 -44q0 -25 -18 -43t-45 -18z" />
    <glyph glyph-name="Idieresis" unicode="&#xcf;" horiz-adv-x="257" 
d="M176 0h-96v715h96v-715zM237 804q-27 0 -45 18t-18 43q0 26 18 44t45 18q26 0 44 -18t18 -44q0 -25 -18 -43t-44 -18zM19 804q-26 0 -44 18t-18 43q0 26 18 44t44 18q27 0 45 -18t18 -44q0 -25 -18 -43t-45 -18z" />
    <glyph glyph-name="Odieresis" unicode="&#xd6;" horiz-adv-x="856" 
d="M428 -16q-81 0 -149 28t-119 78.5t-79 119t-28 148.5t28 148t79 118.5t119 78.5t149 28t149 -28t119 -78.5t79 -118.5t28 -148t-28 -148.5t-79 -119t-119 -78.5t-149 -28zM428 70q81 0 143 37t96.5 102.5t34.5 148.5t-34.5 148t-96.5 102t-143 37q-80 0 -142.5 -37
t-97 -102t-34.5 -148t34.5 -148.5t97 -102.5t142.5 -37zM537 804q-27 0 -45 18t-18 43q0 26 18 44t45 18q26 0 44 -18t18 -44q0 -25 -18 -43t-44 -18zM319 804q-26 0 -44 18t-18 43q0 26 18 44t44 18q27 0 45 -18t18 -44q0 -25 -18 -43t-45 -18z" />
    <glyph glyph-name="Udieresis" unicode="&#xdc;" horiz-adv-x="728" 
d="M656 715v-433q0 -141 -77.5 -219.5t-214.5 -78.5q-136 0 -214 78.5t-78 219.5v433h96v-433q0 -102 51.5 -157t144.5 -55q94 0 145.5 55t51.5 157v433h95zM473 804q-27 0 -45 18t-18 43q0 26 18 44t45 18q26 0 44 -18t18 -44q0 -25 -18 -43t-44 -18zM255 804q-26 0 -44 18
t-18 43q0 26 18 44t44 18q27 0 45 -18t18 -44q0 -25 -18 -43t-45 -18z" />
    <glyph glyph-name="Wdieresis" unicode="&#x1e84;" horiz-adv-x="1058" 
d="M806 0h-111l-171 600h11l-172 -600h-110l-215 715h103l185 -650h-32l186 650h99l187 -650h-30l185 650h99zM638 804q-27 0 -45 18t-18 43q0 26 18 44t45 18q26 0 44 -18t18 -44q0 -25 -18 -43t-44 -18zM420 804q-26 0 -44 18t-18 43q0 26 18 44t44 18q27 0 45 -18t18 -44
q0 -25 -18 -43t-45 -18z" />
    <glyph glyph-name="Ydieresis" unicode="&#x178;" horiz-adv-x="668" 
d="M382 0h-96v307l-268 408h112l218 -346h-26l219 346h109l-268 -410v-305zM443 804q-27 0 -45 18t-18 43q0 26 18 44t45 18q26 0 44 -18t18 -44q0 -25 -18 -43t-44 -18zM225 804q-26 0 -44 18t-18 43q0 26 18 44t44 18q27 0 45 -18t18 -44q0 -25 -18 -43t-45 -18z" />
    <glyph glyph-name="Abreve" unicode="&#x102;" horiz-adv-x="741" 
d="M568 186h-400v83h400v-83zM708 0h-102l-255 653h36l-255 -653h-98l284 715h105zM370 795q-68 0 -114.5 39.5t-53.5 103.5h77q5 -35 30 -55t61 -20t61 20t30 55h77q-7 -64 -53.5 -103.5t-114.5 -39.5z" />
    <glyph glyph-name="Gbreve" unicode="&#x11e;" horiz-adv-x="801" 
d="M743 0h-91v103l12 -4q-36 -54 -99.5 -84.5t-141.5 -30.5q-79 0 -146.5 27.5t-118 78t-78 119t-27.5 149.5q0 80 28 148t78.5 118.5t118.5 78.5t148 28q93 0 168 -36.5t124 -98.5l-67 -65q-37 52 -93.5 83t-131.5 31q-78 0 -140 -37.5t-97 -102t-35 -147.5t35 -148.5
t97.5 -103t143.5 -37.5q80 0 141.5 35t88.5 95l-9 -38v136h-230v81h322v-378zM426 795q-68 0 -114.5 39.5t-53.5 103.5h77q5 -35 30 -55t61 -20t61 20t30 55h77q-7 -64 -53.5 -103.5t-114.5 -39.5z" />
    <glyph glyph-name="adieresis" unicode="&#xe4;" horiz-adv-x="558" 
d="M499 0h-87v98l-3 24v185q0 59 -38 93.5t-103 34.5q-47 0 -86 -19.5t-68 -53.5l-58 60q41 43 94.5 66.5t119.5 23.5q68 0 119.5 -25t80.5 -69.5t29 -107.5v-310zM229 -16q-56 0 -99 20.5t-67 56.5t-24 82q0 52 29.5 88.5t81.5 56t119 19.5h151v-69h-141
q-63 0 -103.5 -22.5t-40.5 -69.5q0 -40 30.5 -64t79.5 -24q48 0 87 19t62.5 53.5t26.5 79.5l33 -18q0 -60 -29 -107t-79.5 -74t-116.5 -27zM377 614q-26 0 -44 17.5t-18 42.5q0 26 18 43.5t44 17.5t43.5 -17.5t17.5 -43.5q0 -25 -17.5 -42.5t-43.5 -17.5zM167 614
q-25 0 -43 17.5t-18 42.5q0 26 18 43.5t43 17.5q27 0 44.5 -17.5t17.5 -43.5q0 -25 -17.5 -42.5t-44.5 -17.5z" />
    <glyph glyph-name="edieresis" unicode="&#xeb;" horiz-adv-x="604" 
d="M488 146l58 -60q-39 -48 -95.5 -75t-127.5 -27q-81 0 -144 34t-98.5 93.5t-35.5 136.5t34 136.5t94 93.5t135 34q73 0 129.5 -33.5t89 -92t32.5 -135.5v-6h-94v9q0 54 -20 94.5t-55.5 63t-81.5 22.5q-49 0 -87 -23t-59 -64.5t-21 -97.5t23.5 -98.5t65.5 -65.5t96 -23
q99 0 162 84zM559 217h-445v69h429l16 -35v-34zM413 614q-26 0 -44 17.5t-18 42.5q0 26 18 43.5t44 17.5t43.5 -17.5t17.5 -43.5q0 -25 -17.5 -42.5t-43.5 -17.5zM203 614q-25 0 -43 17.5t-18 42.5q0 26 18 43.5t43 17.5q27 0 44.5 -17.5t17.5 -43.5q0 -25 -17.5 -42.5
t-44.5 -17.5z" />
    <glyph glyph-name="idieresis" unicode="&#xef;" horiz-adv-x="225" 
d="M159 0h-93v496h93v-496zM196 616q-25 0 -42.5 16.5t-17.5 41.5t17.5 42t42.5 17t42.5 -17t17.5 -42t-17.5 -41.5t-42.5 -16.5zM30 616q-25 0 -42.5 16.5t-17.5 41.5t17.5 42t42.5 17t42.5 -17t17.5 -42t-17.5 -41.5t-42.5 -16.5z" />
    <glyph glyph-name="odieresis" unicode="&#xf6;" horiz-adv-x="621" 
d="M311 -16q-78 0 -138 34t-94 93.5t-34 136.5t34 136t94 93.5t138 34.5t137.5 -34.5t94 -93.5t34.5 -136t-34.5 -136.5t-94 -93.5t-137.5 -34zM311 64q50 0 88 23t59 65t21 96t-21 95.5t-59 65t-88 23.5t-88.5 -23.5t-59.5 -65t-21 -95.5t21 -96t59.5 -65t88.5 -23z
M416 614q-26 0 -44 17.5t-18 42.5q0 26 18 43.5t44 17.5t43.5 -17.5t17.5 -43.5q0 -25 -17.5 -42.5t-43.5 -17.5zM206 614q-25 0 -43 17.5t-18 42.5q0 26 18 43.5t43 17.5q27 0 44.5 -17.5t17.5 -43.5q0 -25 -17.5 -42.5t-44.5 -17.5z" />
    <glyph glyph-name="udieresis" unicode="&#xfc;" horiz-adv-x="587" 
d="M521 0h-92v96l-1 28v372h93v-496zM437 212l19 -20q4 -61 -21.5 -107.5t-72 -73.5t-107.5 -27q-89 0 -142 53t-53 153v306h93v-296q0 -67 32.5 -101.5t90.5 -34.5q41 0 76 18.5t58 52t27 77.5zM395 614q-26 0 -44 17.5t-18 42.5q0 26 18 43.5t44 17.5t43.5 -17.5
t17.5 -43.5q0 -25 -17.5 -42.5t-43.5 -17.5zM185 614q-25 0 -43 17.5t-18 42.5q0 26 18 43.5t43 17.5q27 0 44.5 -17.5t17.5 -43.5q0 -25 -17.5 -42.5t-44.5 -17.5z" />
    <glyph glyph-name="wdieresis" unicode="&#x1e85;" horiz-adv-x="790" 
d="M613 0h-101l-129 415h23l-129 -415h-100l-158 496h94l132 -450h-31l139 450h88l137 -450h-30l131 450h92zM500 614q-26 0 -44 17.5t-18 42.5q0 26 18 43.5t44 17.5t43.5 -17.5t17.5 -43.5q0 -25 -17.5 -42.5t-43.5 -17.5zM290 614q-25 0 -43 17.5t-18 42.5q0 26 18 43.5
t43 17.5q27 0 44.5 -17.5t17.5 -43.5q0 -25 -17.5 -42.5t-44.5 -17.5z" />
    <glyph glyph-name="ydieresis" unicode="&#xff;" horiz-adv-x="555" 
d="M441 496h95l-247 -575q-23 -55 -58.5 -85t-101.5 -30h-54v78h52q31 0 51.5 15.5t33.5 45.5l21 53l-214 498h99l179 -445h-36zM383 614q-26 0 -44 17.5t-18 42.5q0 26 18 43.5t44 17.5t43.5 -17.5t17.5 -43.5q0 -25 -17.5 -42.5t-43.5 -17.5zM173 614q-25 0 -43 17.5
t-18 42.5q0 26 18 43.5t43 17.5q27 0 44.5 -17.5t17.5 -43.5q0 -25 -17.5 -42.5t-44.5 -17.5z" />
    <glyph glyph-name="abreve" unicode="&#x103;" horiz-adv-x="558" 
d="M499 0h-87v98l-3 24v185q0 59 -38 93.5t-103 34.5q-47 0 -86 -19.5t-68 -53.5l-58 60q41 43 94.5 66.5t119.5 23.5q68 0 119.5 -25t80.5 -69.5t29 -107.5v-310zM229 -16q-56 0 -99 20.5t-67 56.5t-24 82q0 52 29.5 88.5t81.5 56t119 19.5h151v-69h-141
q-63 0 -103.5 -22.5t-40.5 -69.5q0 -40 30.5 -64t79.5 -24q48 0 87 19t62.5 53.5t26.5 79.5l33 -18q0 -60 -29 -107t-79.5 -74t-116.5 -27zM272 583q-61 0 -106 41.5t-51 112.5h74q5 -44 28 -65.5t55 -21.5t55 21.5t28 65.5h74q-6 -71 -51 -112.5t-106 -41.5z" />
    <glyph glyph-name="gbreve" unicode="&#x11f;" horiz-adv-x="639" 
d="M573 48q0 -76 -34.5 -134t-94.5 -91t-138 -33q-71 0 -129 24.5t-96 67.5l58 62q28 -35 68.5 -55t96.5 -20q53 0 92.5 22.5t61.5 62t22 92.5v191q0 64 -24 107t-62.5 65.5t-83.5 22.5q-49 0 -87.5 -24t-59.5 -64.5t-21 -91.5q0 -52 21.5 -92t60 -62.5t90.5 -22.5
q46 0 84 19t62.5 52.5t28.5 76.5l19 -19q7 -60 -19.5 -107t-76 -74.5t-114.5 -27.5q-72 0 -129.5 32.5t-90.5 91t-33 133.5q0 76 33.5 134.5t90 92t126.5 33.5q51 0 94.5 -19t73.5 -56.5t39 -92.5h-21v152h92v-448zM311 583q-61 0 -106 41.5t-51 112.5h74q5 -44 28 -65.5
t55 -21.5t55 21.5t28 65.5h74q-6 -71 -51 -112.5t-106 -41.5z" />
    <glyph glyph-name="uni0307" unicode="&#x307;" 
d="M0 614q-25 0 -43.5 17.5t-18.5 42.5q0 26 18.5 43.5t43.5 17.5q26 0 44 -17.5t18 -43.5q0 -25 -18 -42.5t-44 -17.5z" />
    <glyph glyph-name="uni0307.cap" 
d="M0 803q-28 0 -46 17.5t-18 44.5q0 28 18 45.5t46 17.5t46 -17.5t18 -45.5q0 -27 -18 -44.5t-46 -17.5z" />
    <glyph glyph-name="dotaccent" unicode="&#x2d9;" horiz-adv-x="589" 
d="M290 614q-25 0 -43.5 17.5t-18.5 42.5q0 26 18.5 43.5t43.5 17.5q26 0 44 -17.5t18 -43.5q0 -25 -18 -42.5t-44 -17.5z" />
    <glyph glyph-name="Edotaccent" unicode="&#x116;" horiz-adv-x="608" 
d="M563 0h-483v715h483v-83h-387v-549h387v-83zM544 323h-378v83h378v-83zM321 803q-28 0 -46 17.5t-18 44.5q0 28 18 45.5t46 17.5t46 -17.5t18 -45.5q0 -27 -18 -44.5t-46 -17.5z" />
    <glyph glyph-name="Idotaccent" unicode="&#x130;" horiz-adv-x="257" 
d="M176 0h-96v715h96v-715zM128 803q-28 0 -46 17.5t-18 44.5q0 28 18 45.5t46 17.5t46 -17.5t18 -45.5q0 -27 -18 -44.5t-46 -17.5z" />
    <glyph glyph-name="Cdotaccent" unicode="&#x10a;" horiz-adv-x="743" 
d="M638 184l67 -65q-47 -62 -122 -98.5t-165 -36.5q-79 0 -145.5 28t-115.5 78.5t-76.5 118.5t-27.5 148t28 148.5t77.5 119t116.5 78.5t146 28q89 0 163 -36.5t121 -98.5l-67 -65q-36 52 -91 83t-126 31q-76 0 -136.5 -37.5t-95.5 -102t-35 -148.5q0 -82 35 -147
t95.5 -102.5t136.5 -37.5q71 0 126 31t91 83zM419 803q-28 0 -46 17.5t-18 44.5q0 28 18 45.5t46 17.5t46 -17.5t18 -45.5q0 -27 -18 -44.5t-46 -17.5z" />
    <glyph glyph-name="Gdotaccent" unicode="&#x120;" horiz-adv-x="801" 
d="M743 0h-91v103l12 -4q-36 -54 -99.5 -84.5t-141.5 -30.5q-79 0 -146.5 27.5t-118 78t-78 119t-27.5 149.5q0 80 28 148t78.5 118.5t118.5 78.5t148 28q93 0 168 -36.5t124 -98.5l-67 -65q-37 52 -93.5 83t-131.5 31q-78 0 -140 -37.5t-97 -102t-35 -147.5t35 -148.5
t97.5 -103t143.5 -37.5q80 0 141.5 35t88.5 95l-9 -38v136h-230v81h322v-378zM426 803q-28 0 -46 17.5t-18 44.5q0 28 18 45.5t46 17.5t46 -17.5t18 -45.5q0 -27 -18 -44.5t-46 -17.5z" />
    <glyph glyph-name="Zdotaccent" unicode="&#x17b;" horiz-adv-x="620" 
d="M578 0h-534v84l406 547h-393v84h508v-84l-406 -547h419v-84zM311 803q-28 0 -46 17.5t-18 44.5q0 28 18 45.5t46 17.5t46 -17.5t18 -45.5q0 -27 -18 -44.5t-46 -17.5z" />
    <glyph glyph-name="uni1E24" unicode="&#x1e24;" horiz-adv-x="746" 
d="M569 0v715h96v-715h-96zM176 0h-96v715h96v-715zM166 328v84h413v-84h-413zM373 -228q-28 0 -46 17.5t-18 44.5q0 28 18 45.5t46 17.5t46 -17.5t18 -45.5q0 -27 -18 -44.5t-46 -17.5z" />
    <glyph glyph-name="uni1E36" unicode="&#x1e36;" horiz-adv-x="568" 
d="M533 0h-453v715h96v-630h357v-85zM306 -228q-28 0 -46 17.5t-18 44.5q0 28 18 45.5t46 17.5t46 -17.5t18 -45.5q0 -27 -18 -44.5t-46 -17.5z" />
    <glyph glyph-name="edotaccent" unicode="&#x117;" horiz-adv-x="604" 
d="M488 146l58 -60q-39 -48 -95.5 -75t-127.5 -27q-81 0 -144 34t-98.5 93.5t-35.5 136.5t34 136.5t94 93.5t135 34q73 0 129.5 -33.5t89 -92t32.5 -135.5v-6h-94v9q0 54 -20 94.5t-55.5 63t-81.5 22.5q-49 0 -87 -23t-59 -64.5t-21 -97.5t23.5 -98.5t65.5 -65.5t96 -23
q99 0 162 84zM559 217h-445v69h429l16 -35v-34zM308 614q-25 0 -43.5 17.5t-18.5 42.5q0 26 18.5 43.5t43.5 17.5q26 0 44 -17.5t18 -43.5q0 -25 -18 -42.5t-44 -17.5z" />
    <glyph glyph-name="cdotaccent" unicode="&#x10b;" horiz-adv-x="552" 
d="M454 141l63 -60q-36 -45 -89 -71t-120 -26q-76 0 -135.5 34t-93.5 93.5t-34 136.5q0 76 34 135.5t94.5 94t136.5 34.5q66 0 118.5 -26t88.5 -71l-63 -60q-23 35 -58 56t-84 21q-50 0 -88.5 -23.5t-60 -65t-21.5 -95.5t21.5 -95.5t60 -65t88.5 -23.5t84.5 21t57.5 56z
M310 614q-25 0 -43.5 17.5t-18.5 42.5q0 26 18.5 43.5t43.5 17.5q26 0 44 -17.5t18 -43.5q0 -25 -18 -42.5t-44 -17.5z" />
    <glyph glyph-name="gdotaccent" unicode="&#x121;" horiz-adv-x="639" 
d="M573 48q0 -76 -34.5 -134t-94.5 -91t-138 -33q-71 0 -129 24.5t-96 67.5l58 62q28 -35 68.5 -55t96.5 -20q53 0 92.5 22.5t61.5 62t22 92.5v191q0 64 -24 107t-62.5 65.5t-83.5 22.5q-49 0 -87.5 -24t-59.5 -64.5t-21 -91.5q0 -52 21.5 -92t60 -62.5t90.5 -22.5
q46 0 84 19t62.5 52.5t28.5 76.5l19 -19q7 -60 -19.5 -107t-76 -74.5t-114.5 -27.5q-72 0 -129.5 32.5t-90.5 91t-33 133.5q0 76 33.5 134.5t90 92t126.5 33.5q51 0 94.5 -19t73.5 -56.5t39 -92.5h-21v152h92v-448zM311 614q-25 0 -43.5 17.5t-18.5 42.5q0 26 18.5 43.5
t43.5 17.5q26 0 44 -17.5t18 -43.5q0 -25 -18 -42.5t-44 -17.5z" />
    <glyph glyph-name="zdotaccent" unicode="&#x17c;" horiz-adv-x="498" 
d="M460 0h-421v76l298 343h-288v77h401v-77l-297 -343h307v-76zM247 614q-25 0 -43.5 17.5t-18.5 42.5q0 26 18.5 43.5t43.5 17.5q26 0 44 -17.5t18 -43.5q0 -25 -18 -42.5t-44 -17.5z" />
    <glyph glyph-name="uni1E25" unicode="&#x1e25;" horiz-adv-x="589" 
d="M530 0h-93v286q0 73 -33 109.5t-89 36.5q-40 0 -76 -21t-58 -66t-22 -116v-229h-93v720h93v-376h-14q11 63 39.5 99.5t68.5 52.5t83 16q90 0 142 -55.5t52 -160.5v-296zM298 -241q-25 0 -43.5 17.5t-18.5 42.5q0 26 18.5 43.5t43.5 17.5q26 0 44 -17.5t18 -43.5
q0 -25 -18 -42.5t-44 -17.5z" />
    <glyph glyph-name="uni1E37" unicode="&#x1e37;" horiz-adv-x="225" 
d="M159 0h-93v720h93v-720zM113 -241q-25 0 -43.5 17.5t-18.5 42.5q0 26 18.5 43.5t43.5 17.5q26 0 44 -17.5t18 -43.5q0 -25 -18 -42.5t-44 -17.5z" />
    <glyph glyph-name="uni030A" unicode="&#x30a;" 
d="M114 674q0 -31 -15.5 -56t-41 -40t-57.5 -15q-31 0 -57 15t-41.5 40t-15.5 56q0 32 15.5 57.5t41.5 40t57 14.5q32 0 57.5 -14.5t41 -40t15.5 -57.5zM53 674q0 23 -15.5 39t-37.5 16q-21 0 -37 -16t-16 -39t16 -39t37 -16q22 0 37.5 16t15.5 39z" />
    <glyph glyph-name="uni030A.cap" 
d="M0 747q-32 0 -58 15t-42 41t-16 57q0 33 16 58.5t42 40.5t58 15t58 -15t42 -40.5t16 -58.5q0 -31 -16 -57t-42 -41t-58 -15zM0 804q23 0 38.5 16t15.5 40q0 25 -15.5 41t-38.5 16t-38.5 -16t-15.5 -41q0 -24 15.5 -40t38.5 -16z" />
    <glyph glyph-name="ring" unicode="&#x2da;" horiz-adv-x="589" 
d="M404 674q0 -31 -15.5 -56t-41 -40t-57.5 -15q-31 0 -57 15t-41.5 40t-15.5 56q0 32 15.5 57.5t41.5 40t57 14.5q32 0 57.5 -14.5t41 -40t15.5 -57.5zM343 674q0 23 -15.5 39t-37.5 16q-21 0 -37 -16t-16 -39t16 -39t37 -16q22 0 37.5 16t15.5 39z" />
    <glyph glyph-name="Aring" unicode="&#xc5;" horiz-adv-x="741" 
d="M568 186h-400v83h400v-83zM708 0h-102l-255 653h36l-255 -653h-98l284 715h105zM370 747q-32 0 -58 15t-42 41t-16 57q0 33 16 58.5t42 40.5t58 15t58 -15t42 -40.5t16 -58.5q0 -31 -16 -57t-42 -41t-58 -15zM370 804q23 0 38.5 16t15.5 40q0 25 -15.5 41t-38.5 16
t-38.5 -16t-15.5 -41q0 -24 15.5 -40t38.5 -16z" />
    <glyph glyph-name="Uring" unicode="&#x16e;" horiz-adv-x="728" 
d="M656 715v-433q0 -141 -77.5 -219.5t-214.5 -78.5q-136 0 -214 78.5t-78 219.5v433h96v-433q0 -102 51.5 -157t144.5 -55q94 0 145.5 55t51.5 157v433h95zM364 747q-32 0 -58 15t-42 41t-16 57q0 33 16 58.5t42 40.5t58 15t58 -15t42 -40.5t16 -58.5q0 -31 -16 -57
t-42 -41t-58 -15zM364 804q23 0 38.5 16t15.5 40q0 25 -15.5 41t-38.5 16t-38.5 -16t-15.5 -41q0 -24 15.5 -40t38.5 -16z" />
    <glyph glyph-name="aring" unicode="&#xe5;" horiz-adv-x="558" 
d="M499 0h-87v98l-3 24v185q0 59 -38 93.5t-103 34.5q-47 0 -86 -19.5t-68 -53.5l-58 60q41 43 94.5 66.5t119.5 23.5q68 0 119.5 -25t80.5 -69.5t29 -107.5v-310zM229 -16q-56 0 -99 20.5t-67 56.5t-24 82q0 52 29.5 88.5t81.5 56t119 19.5h151v-69h-141
q-63 0 -103.5 -22.5t-40.5 -69.5q0 -40 30.5 -64t79.5 -24q48 0 87 19t62.5 53.5t26.5 79.5l33 -18q0 -60 -29 -107t-79.5 -74t-116.5 -27zM386 674q0 -31 -15.5 -56t-41 -40t-57.5 -15q-31 0 -57 15t-41.5 40t-15.5 56q0 32 15.5 57.5t41.5 40t57 14.5q32 0 57.5 -14.5
t41 -40t15.5 -57.5zM325 674q0 23 -15.5 39t-37.5 16q-21 0 -37 -16t-16 -39t16 -39t37 -16q22 0 37.5 16t15.5 39z" />
    <glyph glyph-name="uring" unicode="&#x16f;" horiz-adv-x="587" 
d="M521 0h-92v96l-1 28v372h93v-496zM437 212l19 -20q4 -61 -21.5 -107.5t-72 -73.5t-107.5 -27q-89 0 -142 53t-53 153v306h93v-296q0 -67 32.5 -101.5t90.5 -34.5q41 0 76 18.5t58 52t27 77.5zM404 674q0 -31 -15.5 -56t-41 -40t-57.5 -15q-31 0 -57 15t-41.5 40t-15.5 56
q0 32 15.5 57.5t41.5 40t57 14.5q32 0 57.5 -14.5t41 -40t15.5 -57.5zM343 674q0 23 -15.5 39t-37.5 16q-21 0 -37 -16t-16 -39t16 -39t37 -16q22 0 37.5 16t15.5 39z" />
    <glyph glyph-name="dotbelowcomb" unicode="&#x323;" 
d="M0 -241q-25 0 -43.5 17.5t-18.5 42.5q0 26 18.5 43.5t43.5 17.5q26 0 44 -17.5t18 -43.5q0 -25 -18 -42.5t-44 -17.5z" />
    <glyph glyph-name="dotbelowcomb.cap" 
d="M0 -228q-28 0 -46 17.5t-18 44.5q0 28 18 45.5t46 17.5t46 -17.5t18 -45.5q0 -27 -18 -44.5t-46 -17.5z" />
    <glyph glyph-name="hookabovecomb" unicode="&#x309;" 
d="M-8 560l-26 48q32 15 47.5 30t15.5 31q0 36 -44 36q-28 0 -54 -21l-36 44q44 39 100 39q45 0 75 -26t30 -66q0 -36 -28 -66t-80 -49z" />
    <glyph glyph-name="hookabovecomb.cap" 
d="M-9 765l-26 49q32 14 47.5 30t15.5 35q0 36 -44 36q-28 0 -54 -21l-36 45q44 39 100 39q45 0 75 -26.5t30 -66.5q0 -38 -28 -69t-80 -51z" />
    <glyph glyph-name="uni1EA0" unicode="&#x1ea0;" horiz-adv-x="741" 
d="M568 186h-400v83h400v-83zM708 0h-102l-255 653h36l-255 -653h-98l284 715h105zM370 -228q-28 0 -46 17.5t-18 44.5q0 28 18 45.5t46 17.5t46 -17.5t18 -45.5q0 -27 -18 -44.5t-46 -17.5z" />
    <glyph glyph-name="uni1EB8" unicode="&#x1eb8;" horiz-adv-x="608" 
d="M563 0h-483v715h483v-83h-387v-549h387v-83zM544 323h-378v83h378v-83zM321 -228q-28 0 -46 17.5t-18 44.5q0 28 18 45.5t46 17.5t46 -17.5t18 -45.5q0 -27 -18 -44.5t-46 -17.5z" />
    <glyph glyph-name="uni1ECA" unicode="&#x1eca;" horiz-adv-x="257" 
d="M176 0h-96v715h96v-715zM128 -228q-28 0 -46 17.5t-18 44.5q0 28 18 45.5t46 17.5t46 -17.5t18 -45.5q0 -27 -18 -44.5t-46 -17.5z" />
    <glyph glyph-name="uni1ECC" unicode="&#x1ecc;" horiz-adv-x="856" 
d="M428 -16q-81 0 -149 28t-119 78.5t-79 119t-28 148.5t28 148t79 118.5t119 78.5t149 28t149 -28t119 -78.5t79 -118.5t28 -148t-28 -148.5t-79 -119t-119 -78.5t-149 -28zM428 70q81 0 143 37t96.5 102.5t34.5 148.5t-34.5 148t-96.5 102t-143 37q-80 0 -142.5 -37
t-97 -102t-34.5 -148t34.5 -148.5t97 -102.5t142.5 -37zM428 -228q-28 0 -46 17.5t-18 44.5q0 28 18 45.5t46 17.5t46 -17.5t18 -45.5q0 -27 -18 -44.5t-46 -17.5z" />
    <glyph glyph-name="uni1EE4" unicode="&#x1ee4;" horiz-adv-x="728" 
d="M656 715v-433q0 -141 -77.5 -219.5t-214.5 -78.5q-136 0 -214 78.5t-78 219.5v433h96v-433q0 -102 51.5 -157t144.5 -55q94 0 145.5 55t51.5 157v433h95zM365 -228q-28 0 -46 17.5t-18 44.5q0 28 18 45.5t46 17.5t46 -17.5t18 -45.5q0 -27 -18 -44.5t-46 -17.5z" />
    <glyph glyph-name="uni1EF4" unicode="&#x1ef4;" horiz-adv-x="668" 
d="M382 0h-96v307l-268 408h112l218 -346h-26l219 346h109l-268 -410v-305zM334 -228q-28 0 -46 17.5t-18 44.5q0 28 18 45.5t46 17.5t46 -17.5t18 -45.5q0 -27 -18 -44.5t-46 -17.5z" />
    <glyph glyph-name="uni1EA2" unicode="&#x1ea2;" horiz-adv-x="741" 
d="M568 186h-400v83h400v-83zM708 0h-102l-255 653h36l-255 -653h-98l284 715h105zM361 765l-26 49q32 14 47.5 30t15.5 35q0 36 -44 36q-28 0 -54 -21l-36 45q44 39 100 39q45 0 75 -26.5t30 -66.5q0 -38 -28 -69t-80 -51z" />
    <glyph glyph-name="uni1EBA" unicode="&#x1eba;" horiz-adv-x="608" 
d="M563 0h-483v715h483v-83h-387v-549h387v-83zM544 323h-378v83h378v-83zM312 765l-26 49q32 14 47.5 30t15.5 35q0 36 -44 36q-28 0 -54 -21l-36 45q44 39 100 39q45 0 75 -26.5t30 -66.5q0 -38 -28 -69t-80 -51z" />
    <glyph glyph-name="uni1EC8" unicode="&#x1ec8;" horiz-adv-x="257" 
d="M176 0h-96v715h96v-715zM119 765l-26 49q32 14 47.5 30t15.5 35q0 36 -44 36q-28 0 -54 -21l-36 45q44 39 100 39q45 0 75 -26.5t30 -66.5q0 -38 -28 -69t-80 -51z" />
    <glyph glyph-name="uni1ECE" unicode="&#x1ece;" horiz-adv-x="856" 
d="M428 -16q-81 0 -149 28t-119 78.5t-79 119t-28 148.5t28 148t79 118.5t119 78.5t149 28t149 -28t119 -78.5t79 -118.5t28 -148t-28 -148.5t-79 -119t-119 -78.5t-149 -28zM428 70q81 0 143 37t96.5 102.5t34.5 148.5t-34.5 148t-96.5 102t-143 37q-80 0 -142.5 -37
t-97 -102t-34.5 -148t34.5 -148.5t97 -102.5t142.5 -37zM419 765l-26 49q32 14 47.5 30t15.5 35q0 36 -44 36q-28 0 -54 -21l-36 45q44 39 100 39q45 0 75 -26.5t30 -66.5q0 -38 -28 -69t-80 -51z" />
    <glyph glyph-name="uni1EE6" unicode="&#x1ee6;" horiz-adv-x="728" 
d="M656 715v-433q0 -141 -77.5 -219.5t-214.5 -78.5q-136 0 -214 78.5t-78 219.5v433h96v-433q0 -102 51.5 -157t144.5 -55q94 0 145.5 55t51.5 157v433h95zM355 765l-26 49q32 14 47.5 30t15.5 35q0 36 -44 36q-28 0 -54 -21l-36 45q44 39 100 39q45 0 75 -26.5t30 -66.5
q0 -38 -28 -69t-80 -51z" />
    <glyph glyph-name="uni1EF6" unicode="&#x1ef6;" horiz-adv-x="668" 
d="M382 0h-96v307l-268 408h112l218 -346h-26l219 346h109l-268 -410v-305zM325 765l-26 49q32 14 47.5 30t15.5 35q0 36 -44 36q-28 0 -54 -21l-36 45q44 39 100 39q45 0 75 -26.5t30 -66.5q0 -38 -28 -69t-80 -51z" />
    <glyph glyph-name="uni1EA1" unicode="&#x1ea1;" horiz-adv-x="558" 
d="M499 0h-87v98l-3 24v185q0 59 -38 93.5t-103 34.5q-47 0 -86 -19.5t-68 -53.5l-58 60q41 43 94.5 66.5t119.5 23.5q68 0 119.5 -25t80.5 -69.5t29 -107.5v-310zM229 -16q-56 0 -99 20.5t-67 56.5t-24 82q0 52 29.5 88.5t81.5 56t119 19.5h151v-69h-141
q-63 0 -103.5 -22.5t-40.5 -69.5q0 -40 30.5 -64t79.5 -24q48 0 87 19t62.5 53.5t26.5 79.5l33 -18q0 -60 -29 -107t-79.5 -74t-116.5 -27zM272 -241q-25 0 -43.5 17.5t-18.5 42.5q0 26 18.5 43.5t43.5 17.5q26 0 44 -17.5t18 -43.5q0 -25 -18 -42.5t-44 -17.5z" />
    <glyph glyph-name="uni1EB9" unicode="&#x1eb9;" horiz-adv-x="604" 
d="M488 146l58 -60q-39 -48 -95.5 -75t-127.5 -27q-81 0 -144 34t-98.5 93.5t-35.5 136.5t34 136.5t94 93.5t135 34q73 0 129.5 -33.5t89 -92t32.5 -135.5v-6h-94v9q0 54 -20 94.5t-55.5 63t-81.5 22.5q-49 0 -87 -23t-59 -64.5t-21 -97.5t23.5 -98.5t65.5 -65.5t96 -23
q99 0 162 84zM559 217h-445v69h429l16 -35v-34zM308 -241q-25 0 -43.5 17.5t-18.5 42.5q0 26 18.5 43.5t43.5 17.5q26 0 44 -17.5t18 -43.5q0 -25 -18 -42.5t-44 -17.5z" />
    <glyph glyph-name="uni1ECB" unicode="&#x1ecb;" horiz-adv-x="225" 
d="M159 0h-93v496h93v-496zM113 613q-26 0 -44.5 17.5t-18.5 43.5t18.5 44t44.5 18t44 -18t18 -44t-18 -43.5t-44 -17.5zM113 -241q-25 0 -43.5 17.5t-18.5 42.5q0 26 18.5 43.5t43.5 17.5q26 0 44 -17.5t18 -43.5q0 -25 -18 -42.5t-44 -17.5z" />
    <glyph glyph-name="uni1ECD" unicode="&#x1ecd;" horiz-adv-x="621" 
d="M311 -16q-78 0 -138 34t-94 93.5t-34 136.5t34 136t94 93.5t138 34.5t137.5 -34.5t94 -93.5t34.5 -136t-34.5 -136.5t-94 -93.5t-137.5 -34zM311 64q50 0 88 23t59 65t21 96t-21 95.5t-59 65t-88 23.5t-88.5 -23.5t-59.5 -65t-21 -95.5t21 -96t59.5 -65t88.5 -23z
M311 -241q-25 0 -43.5 17.5t-18.5 42.5q0 26 18.5 43.5t43.5 17.5q26 0 44 -17.5t18 -43.5q0 -25 -18 -42.5t-44 -17.5z" />
    <glyph glyph-name="uni1EE5" unicode="&#x1ee5;" horiz-adv-x="587" 
d="M521 0h-92v96l-1 28v372h93v-496zM437 212l19 -20q4 -61 -21.5 -107.5t-72 -73.5t-107.5 -27q-89 0 -142 53t-53 153v306h93v-296q0 -67 32.5 -101.5t90.5 -34.5q41 0 76 18.5t58 52t27 77.5zM290 -241q-25 0 -43.5 17.5t-18.5 42.5q0 26 18.5 43.5t43.5 17.5
q26 0 44 -17.5t18 -43.5q0 -25 -18 -42.5t-44 -17.5z" />
    <glyph glyph-name="uni1EF5" unicode="&#x1ef5;" horiz-adv-x="555" 
d="M441 496h95l-247 -575q-23 -55 -58.5 -85t-101.5 -30h-54v78h52q31 0 51.5 15.5t33.5 45.5l21 53l-214 498h99l179 -445h-36zM395 -241q-25 0 -43.5 17.5t-18.5 42.5q0 26 18.5 43.5t43.5 17.5q26 0 44 -17.5t18 -43.5q0 -25 -18 -42.5t-44 -17.5z" />
    <glyph glyph-name="uni1EA3" unicode="&#x1ea3;" horiz-adv-x="558" 
d="M499 0h-87v98l-3 24v185q0 59 -38 93.5t-103 34.5q-47 0 -86 -19.5t-68 -53.5l-58 60q41 43 94.5 66.5t119.5 23.5q68 0 119.5 -25t80.5 -69.5t29 -107.5v-310zM229 -16q-56 0 -99 20.5t-67 56.5t-24 82q0 52 29.5 88.5t81.5 56t119 19.5h151v-69h-141
q-63 0 -103.5 -22.5t-40.5 -69.5q0 -40 30.5 -64t79.5 -24q48 0 87 19t62.5 53.5t26.5 79.5l33 -18q0 -60 -29 -107t-79.5 -74t-116.5 -27zM264 560l-26 48q32 15 47.5 30t15.5 31q0 36 -44 36q-28 0 -54 -21l-36 44q44 39 100 39q45 0 75 -26t30 -66q0 -36 -28 -66t-80 -49
z" />
    <glyph glyph-name="uni1EBB" unicode="&#x1ebb;" horiz-adv-x="604" 
d="M488 146l58 -60q-39 -48 -95.5 -75t-127.5 -27q-81 0 -144 34t-98.5 93.5t-35.5 136.5t34 136.5t94 93.5t135 34q73 0 129.5 -33.5t89 -92t32.5 -135.5v-6h-94v9q0 54 -20 94.5t-55.5 63t-81.5 22.5q-49 0 -87 -23t-59 -64.5t-21 -97.5t23.5 -98.5t65.5 -65.5t96 -23
q99 0 162 84zM559 217h-445v69h429l16 -35v-34zM300 560l-26 48q32 15 47.5 30t15.5 31q0 36 -44 36q-28 0 -54 -21l-36 44q44 39 100 39q45 0 75 -26t30 -66q0 -36 -28 -66t-80 -49z" />
    <glyph glyph-name="uni1EC9" unicode="&#x1ec9;" horiz-adv-x="225" 
d="M159 0h-93v496h93v-496zM105 560l-26 48q32 15 47.5 30t15.5 31q0 36 -44 36q-28 0 -54 -21l-36 44q44 39 100 39q45 0 75 -26t30 -66q0 -36 -28 -66t-80 -49z" />
    <glyph glyph-name="uni1ECF" unicode="&#x1ecf;" horiz-adv-x="621" 
d="M311 -16q-78 0 -138 34t-94 93.5t-34 136.5t34 136t94 93.5t138 34.5t137.5 -34.5t94 -93.5t34.5 -136t-34.5 -136.5t-94 -93.5t-137.5 -34zM311 64q50 0 88 23t59 65t21 96t-21 95.5t-59 65t-88 23.5t-88.5 -23.5t-59.5 -65t-21 -95.5t21 -96t59.5 -65t88.5 -23z
M303 560l-26 48q32 15 47.5 30t15.5 31q0 36 -44 36q-28 0 -54 -21l-36 44q44 39 100 39q45 0 75 -26t30 -66q0 -36 -28 -66t-80 -49z" />
    <glyph glyph-name="uni1EE7" unicode="&#x1ee7;" horiz-adv-x="587" 
d="M521 0h-92v96l-1 28v372h93v-496zM437 212l19 -20q4 -61 -21.5 -107.5t-72 -73.5t-107.5 -27q-89 0 -142 53t-53 153v306h93v-296q0 -67 32.5 -101.5t90.5 -34.5q41 0 76 18.5t58 52t27 77.5zM282 560l-26 48q32 15 47.5 30t15.5 31q0 36 -44 36q-28 0 -54 -21l-36 44
q44 39 100 39q45 0 75 -26t30 -66q0 -36 -28 -66t-80 -49z" />
    <glyph glyph-name="uni1EF7" unicode="&#x1ef7;" horiz-adv-x="555" 
d="M441 496h95l-247 -575q-23 -55 -58.5 -85t-101.5 -30h-54v78h52q31 0 51.5 15.5t33.5 45.5l21 53l-214 498h99l179 -445h-36zM270 560l-26 48q32 15 47.5 30t15.5 31q0 36 -44 36q-28 0 -54 -21l-36 44q44 39 100 39q45 0 75 -26t30 -66q0 -36 -28 -66t-80 -49z" />
    <glyph glyph-name="circumflexacutecomb" 
d="M-166 587l122 142h88l122 -142h-89l-117 115h77l-117 -115h-86zM130 677l105 144h103l-138 -144h-70z" />
    <glyph glyph-name="circumflexacutecomb.cap" 
d="M-169 799l123 135h92l123 -135h-90l-119 111h78l-119 -111h-88zM138 876l111 148h103l-143 -148h-71z" />
    <glyph glyph-name="circumflexgravecomb" 
d="M-166 587l122 142h88l122 -142h-89l-117 115h77l-117 -115h-86zM163 677l-137 144h104l106 -144h-73z" />
    <glyph glyph-name="circumflexgravecomb.cap" 
d="M169 799h-90l-119 111h78l-119 -111h-88l123 135h92zM186 876l-139 148h102l107 -148h-70z" />
    <glyph glyph-name="circumflexhookabovecomb" 
d="M-166 587l122 142h88l122 -142h-89l-117 115h77l-117 -115h-86zM162 652l-25 47q30 13 45 27.5t15 30.5q0 33 -41 33q-27 0 -53 -20l-34 43q40 37 96 37q42 0 70.5 -25.5t28.5 -63.5q0 -33 -26 -61.5t-76 -47.5z" />
    <glyph glyph-name="circumflexhookabovecomb.cap" 
d="M-169 799l123 135h92l123 -135h-90l-119 111h78l-119 -111h-88zM167 859l-25 46q60 29 60 63t-42 34q-26 0 -51 -20l-35 43q43 37 96 37q43 0 71.5 -25.5t28.5 -63.5q0 -36 -27 -65.5t-76 -48.5z" />
    <glyph glyph-name="circumflextildecomb" 
d="M-166 587l122 142h88l122 -142h-89l-117 115h77l-117 -115h-86zM-99 761l-56 23q8 44 31.5 68.5t57.5 24.5q22 0 39 -7t38 -22q22 -16 31.5 -21t18.5 -5q30 0 39 54l56 -24q-8 -44 -31.5 -68.5t-57.5 -24.5q-22 0 -38.5 7t-38.5 22q-20 15 -30.5 21t-19.5 6
q-15 0 -25 -14t-14 -40z" />
    <glyph glyph-name="circumflextildecomb.cap" 
d="M-172 799l123 135h92l123 -135h-91l-119 111h78l-118 -111h-88zM-114 959l-62 25q7 44 34 70t65 26q20 0 38.5 -7t49.5 -26q26 -15 37 -20t21 -5q16 0 28 14t16 41l62 -26q-7 -43 -34 -69t-65 -26q-20 0 -40.5 7t-49.5 25q-21 13 -33 19.5t-23 6.5q-16 0 -28 -14.5
t-16 -40.5z" />
    <glyph glyph-name="uni1EA4" unicode="&#x1ea4;" horiz-adv-x="741" 
d="M568 186h-400v83h400v-83zM708 0h-102l-255 653h36l-255 -653h-98l284 715h105zM201 799l123 135h92l123 -135h-90l-119 111h78l-119 -111h-88zM508 876l111 148h103l-143 -148h-71z" />
    <glyph glyph-name="uni1EBE" unicode="&#x1ebe;" horiz-adv-x="608" 
d="M563 0h-483v715h483v-83h-387v-549h387v-83zM544 323h-378v83h378v-83zM152 799l123 135h92l123 -135h-90l-119 111h78l-119 -111h-88zM459 876l111 148h103l-143 -148h-71z" />
    <glyph glyph-name="uni1ED0" unicode="&#x1ed0;" horiz-adv-x="856" 
d="M428 -16q-81 0 -149 28t-119 78.5t-79 119t-28 148.5t28 148t79 118.5t119 78.5t149 28t149 -28t119 -78.5t79 -118.5t28 -148t-28 -148.5t-79 -119t-119 -78.5t-149 -28zM428 70q81 0 143 37t96.5 102.5t34.5 148.5t-34.5 148t-96.5 102t-143 37q-80 0 -142.5 -37
t-97 -102t-34.5 -148t34.5 -148.5t97 -102.5t142.5 -37zM259 799l123 135h92l123 -135h-90l-119 111h78l-119 -111h-88zM566 876l111 148h103l-143 -148h-71z" />
    <glyph glyph-name="uni1EA6" unicode="&#x1ea6;" horiz-adv-x="741" 
d="M568 186h-400v83h400v-83zM708 0h-102l-255 653h36l-255 -653h-98l284 715h105zM539 799h-90l-119 111h78l-119 -111h-88l123 135h92zM556 876l-139 148h102l107 -148h-70z" />
    <glyph glyph-name="uni1EC0" unicode="&#x1ec0;" horiz-adv-x="608" 
d="M563 0h-483v715h483v-83h-387v-549h387v-83zM544 323h-378v83h378v-83zM490 799h-90l-119 111h78l-119 -111h-88l123 135h92zM507 876l-139 148h102l107 -148h-70z" />
    <glyph glyph-name="uni1ED2" unicode="&#x1ed2;" horiz-adv-x="856" 
d="M428 -16q-81 0 -149 28t-119 78.5t-79 119t-28 148.5t28 148t79 118.5t119 78.5t149 28t149 -28t119 -78.5t79 -118.5t28 -148t-28 -148.5t-79 -119t-119 -78.5t-149 -28zM428 70q81 0 143 37t96.5 102.5t34.5 148.5t-34.5 148t-96.5 102t-143 37q-80 0 -142.5 -37
t-97 -102t-34.5 -148t34.5 -148.5t97 -102.5t142.5 -37zM597 799h-90l-119 111h78l-119 -111h-88l123 135h92zM614 876l-139 148h102l107 -148h-70z" />
    <glyph glyph-name="uni1EA8" unicode="&#x1ea8;" horiz-adv-x="741" 
d="M568 186h-400v83h400v-83zM708 0h-102l-255 653h36l-255 -653h-98l284 715h105zM201 799l123 135h92l123 -135h-90l-119 111h78l-119 -111h-88zM537 859l-25 46q60 29 60 63t-42 34q-26 0 -51 -20l-35 43q43 37 96 37q43 0 71.5 -25.5t28.5 -63.5q0 -36 -27 -65.5
t-76 -48.5z" />
    <glyph glyph-name="uni1EC2" unicode="&#x1ec2;" horiz-adv-x="608" 
d="M563 0h-483v715h483v-83h-387v-549h387v-83zM544 323h-378v83h378v-83zM152 799l123 135h92l123 -135h-90l-119 111h78l-119 -111h-88zM488 859l-25 46q60 29 60 63t-42 34q-26 0 -51 -20l-35 43q43 37 96 37q43 0 71.5 -25.5t28.5 -63.5q0 -36 -27 -65.5t-76 -48.5z" />
    <glyph glyph-name="uni1ED4" unicode="&#x1ed4;" horiz-adv-x="856" 
d="M428 -16q-81 0 -149 28t-119 78.5t-79 119t-28 148.5t28 148t79 118.5t119 78.5t149 28t149 -28t119 -78.5t79 -118.5t28 -148t-28 -148.5t-79 -119t-119 -78.5t-149 -28zM428 70q81 0 143 37t96.5 102.5t34.5 148.5t-34.5 148t-96.5 102t-143 37q-80 0 -142.5 -37
t-97 -102t-34.5 -148t34.5 -148.5t97 -102.5t142.5 -37zM259 799l123 135h92l123 -135h-90l-119 111h78l-119 -111h-88zM595 859l-25 46q60 29 60 63t-42 34q-26 0 -51 -20l-35 43q43 37 96 37q43 0 71.5 -25.5t28.5 -63.5q0 -36 -27 -65.5t-76 -48.5z" />
    <glyph glyph-name="uni1EAA" unicode="&#x1eaa;" horiz-adv-x="741" 
d="M568 186h-400v83h400v-83zM708 0h-102l-255 653h36l-255 -653h-98l284 715h105zM198 799l123 135h92l123 -135h-91l-119 111h78l-118 -111h-88zM256 959l-62 25q7 44 34 70t65 26q20 0 38.5 -7t49.5 -26q26 -15 37 -20t21 -5q16 0 28 14t16 41l62 -26q-7 -43 -34 -69
t-65 -26q-20 0 -40.5 7t-49.5 25q-21 13 -33 19.5t-23 6.5q-16 0 -28 -14.5t-16 -40.5z" />
    <glyph glyph-name="uni1EC4" unicode="&#x1ec4;" horiz-adv-x="608" 
d="M563 0h-483v715h483v-83h-387v-549h387v-83zM544 323h-378v83h378v-83zM149 799l123 135h92l123 -135h-91l-119 111h78l-118 -111h-88zM207 959l-62 25q7 44 34 70t65 26q20 0 38.5 -7t49.5 -26q26 -15 37 -20t21 -5q16 0 28 14t16 41l62 -26q-7 -43 -34 -69t-65 -26
q-20 0 -40.5 7t-49.5 25q-21 13 -33 19.5t-23 6.5q-16 0 -28 -14.5t-16 -40.5z" />
    <glyph glyph-name="uni1ED6" unicode="&#x1ed6;" horiz-adv-x="856" 
d="M428 -16q-81 0 -149 28t-119 78.5t-79 119t-28 148.5t28 148t79 118.5t119 78.5t149 28t149 -28t119 -78.5t79 -118.5t28 -148t-28 -148.5t-79 -119t-119 -78.5t-149 -28zM428 70q81 0 143 37t96.5 102.5t34.5 148.5t-34.5 148t-96.5 102t-143 37q-80 0 -142.5 -37
t-97 -102t-34.5 -148t34.5 -148.5t97 -102.5t142.5 -37zM256 799l123 135h92l123 -135h-91l-119 111h78l-118 -111h-88zM314 959l-62 25q7 44 34 70t65 26q20 0 38.5 -7t49.5 -26q26 -15 37 -20t21 -5q16 0 28 14t16 41l62 -26q-7 -43 -34 -69t-65 -26q-20 0 -40.5 7
t-49.5 25q-21 13 -33 19.5t-23 6.5q-16 0 -28 -14.5t-16 -40.5z" />
    <glyph glyph-name="uni1EAC" unicode="&#x1eac;" horiz-adv-x="741" 
d="M568 186h-400v83h400v-83zM708 0h-102l-255 653h36l-255 -653h-98l284 715h105zM548 799h-92l-132 128h90l-131 -128h-91l133 144h90zM370 -228q-28 0 -46 17.5t-18 44.5q0 28 18 45.5t46 17.5t46 -17.5t18 -45.5q0 -27 -18 -44.5t-46 -17.5z" />
    <glyph glyph-name="uni1EC6" unicode="&#x1ec6;" horiz-adv-x="608" 
d="M563 0h-483v715h483v-83h-387v-549h387v-83zM544 323h-378v83h378v-83zM499 799h-92l-132 128h90l-131 -128h-91l133 144h90zM321 -228q-28 0 -46 17.5t-18 44.5q0 28 18 45.5t46 17.5t46 -17.5t18 -45.5q0 -27 -18 -44.5t-46 -17.5z" />
    <glyph glyph-name="uni1ED8" unicode="&#x1ed8;" horiz-adv-x="856" 
d="M428 -16q-81 0 -149 28t-119 78.5t-79 119t-28 148.5t28 148t79 118.5t119 78.5t149 28t149 -28t119 -78.5t79 -118.5t28 -148t-28 -148.5t-79 -119t-119 -78.5t-149 -28zM428 70q81 0 143 37t96.5 102.5t34.5 148.5t-34.5 148t-96.5 102t-143 37q-80 0 -142.5 -37
t-97 -102t-34.5 -148t34.5 -148.5t97 -102.5t142.5 -37zM606 799h-92l-132 128h90l-131 -128h-91l133 144h90zM428 -228q-28 0 -46 17.5t-18 44.5q0 28 18 45.5t46 17.5t46 -17.5t18 -45.5q0 -27 -18 -44.5t-46 -17.5z" />
    <glyph glyph-name="uni1EA5" unicode="&#x1ea5;" horiz-adv-x="558" 
d="M499 0h-87v98l-3 24v185q0 59 -38 93.5t-103 34.5q-47 0 -86 -19.5t-68 -53.5l-58 60q41 43 94.5 66.5t119.5 23.5q68 0 119.5 -25t80.5 -69.5t29 -107.5v-310zM229 -16q-56 0 -99 20.5t-67 56.5t-24 82q0 52 29.5 88.5t81.5 56t119 19.5h151v-69h-141
q-63 0 -103.5 -22.5t-40.5 -69.5q0 -40 30.5 -64t79.5 -24q48 0 87 19t62.5 53.5t26.5 79.5l33 -18q0 -60 -29 -107t-79.5 -74t-116.5 -27zM106 587l122 142h88l122 -142h-89l-117 115h77l-117 -115h-86zM402 677l105 144h103l-138 -144h-70z" />
    <glyph glyph-name="uni1EBF" unicode="&#x1ebf;" horiz-adv-x="604" 
d="M488 146l58 -60q-39 -48 -95.5 -75t-127.5 -27q-81 0 -144 34t-98.5 93.5t-35.5 136.5t34 136.5t94 93.5t135 34q73 0 129.5 -33.5t89 -92t32.5 -135.5v-6h-94v9q0 54 -20 94.5t-55.5 63t-81.5 22.5q-49 0 -87 -23t-59 -64.5t-21 -97.5t23.5 -98.5t65.5 -65.5t96 -23
q99 0 162 84zM559 217h-445v69h429l16 -35v-34zM142 587l122 142h88l122 -142h-89l-117 115h77l-117 -115h-86zM438 677l105 144h103l-138 -144h-70z" />
    <glyph glyph-name="uni1ED1" unicode="&#x1ed1;" horiz-adv-x="621" 
d="M311 -16q-78 0 -138 34t-94 93.5t-34 136.5t34 136t94 93.5t138 34.5t137.5 -34.5t94 -93.5t34.5 -136t-34.5 -136.5t-94 -93.5t-137.5 -34zM311 64q50 0 88 23t59 65t21 96t-21 95.5t-59 65t-88 23.5t-88.5 -23.5t-59.5 -65t-21 -95.5t21 -96t59.5 -65t88.5 -23z
M145 587l122 142h88l122 -142h-89l-117 115h77l-117 -115h-86zM441 677l105 144h103l-138 -144h-70z" />
    <glyph glyph-name="uni1EA7" unicode="&#x1ea7;" horiz-adv-x="558" 
d="M499 0h-87v98l-3 24v185q0 59 -38 93.5t-103 34.5q-47 0 -86 -19.5t-68 -53.5l-58 60q41 43 94.5 66.5t119.5 23.5q68 0 119.5 -25t80.5 -69.5t29 -107.5v-310zM229 -16q-56 0 -99 20.5t-67 56.5t-24 82q0 52 29.5 88.5t81.5 56t119 19.5h151v-69h-141
q-63 0 -103.5 -22.5t-40.5 -69.5q0 -40 30.5 -64t79.5 -24q48 0 87 19t62.5 53.5t26.5 79.5l33 -18q0 -60 -29 -107t-79.5 -74t-116.5 -27zM106 587l122 142h88l122 -142h-89l-117 115h77l-117 -115h-86zM435 677l-137 144h104l106 -144h-73z" />
    <glyph glyph-name="uni1EC1" unicode="&#x1ec1;" horiz-adv-x="604" 
d="M488 146l58 -60q-39 -48 -95.5 -75t-127.5 -27q-81 0 -144 34t-98.5 93.5t-35.5 136.5t34 136.5t94 93.5t135 34q73 0 129.5 -33.5t89 -92t32.5 -135.5v-6h-94v9q0 54 -20 94.5t-55.5 63t-81.5 22.5q-49 0 -87 -23t-59 -64.5t-21 -97.5t23.5 -98.5t65.5 -65.5t96 -23
q99 0 162 84zM559 217h-445v69h429l16 -35v-34zM142 587l122 142h88l122 -142h-89l-117 115h77l-117 -115h-86zM471 677l-137 144h104l106 -144h-73z" />
    <glyph glyph-name="uni1ED3" unicode="&#x1ed3;" horiz-adv-x="621" 
d="M311 -16q-78 0 -138 34t-94 93.5t-34 136.5t34 136t94 93.5t138 34.5t137.5 -34.5t94 -93.5t34.5 -136t-34.5 -136.5t-94 -93.5t-137.5 -34zM311 64q50 0 88 23t59 65t21 96t-21 95.5t-59 65t-88 23.5t-88.5 -23.5t-59.5 -65t-21 -95.5t21 -96t59.5 -65t88.5 -23z
M145 587l122 142h88l122 -142h-89l-117 115h77l-117 -115h-86zM474 677l-137 144h104l106 -144h-73z" />
    <glyph glyph-name="uni1EA9" unicode="&#x1ea9;" horiz-adv-x="558" 
d="M499 0h-87v98l-3 24v185q0 59 -38 93.5t-103 34.5q-47 0 -86 -19.5t-68 -53.5l-58 60q41 43 94.5 66.5t119.5 23.5q68 0 119.5 -25t80.5 -69.5t29 -107.5v-310zM229 -16q-56 0 -99 20.5t-67 56.5t-24 82q0 52 29.5 88.5t81.5 56t119 19.5h151v-69h-141
q-63 0 -103.5 -22.5t-40.5 -69.5q0 -40 30.5 -64t79.5 -24q48 0 87 19t62.5 53.5t26.5 79.5l33 -18q0 -60 -29 -107t-79.5 -74t-116.5 -27zM106 587l122 142h88l122 -142h-89l-117 115h77l-117 -115h-86zM434 652l-25 47q30 13 45 27.5t15 30.5q0 33 -41 33q-27 0 -53 -20
l-34 43q40 37 96 37q42 0 70.5 -25.5t28.5 -63.5q0 -33 -26 -61.5t-76 -47.5z" />
    <glyph glyph-name="uni1EC3" unicode="&#x1ec3;" horiz-adv-x="604" 
d="M488 146l58 -60q-39 -48 -95.5 -75t-127.5 -27q-81 0 -144 34t-98.5 93.5t-35.5 136.5t34 136.5t94 93.5t135 34q73 0 129.5 -33.5t89 -92t32.5 -135.5v-6h-94v9q0 54 -20 94.5t-55.5 63t-81.5 22.5q-49 0 -87 -23t-59 -64.5t-21 -97.5t23.5 -98.5t65.5 -65.5t96 -23
q99 0 162 84zM559 217h-445v69h429l16 -35v-34zM142 587l122 142h88l122 -142h-89l-117 115h77l-117 -115h-86zM470 652l-25 47q30 13 45 27.5t15 30.5q0 33 -41 33q-27 0 -53 -20l-34 43q40 37 96 37q42 0 70.5 -25.5t28.5 -63.5q0 -33 -26 -61.5t-76 -47.5z" />
    <glyph glyph-name="uni1ED5" unicode="&#x1ed5;" horiz-adv-x="621" 
d="M311 -16q-78 0 -138 34t-94 93.5t-34 136.5t34 136t94 93.5t138 34.5t137.5 -34.5t94 -93.5t34.5 -136t-34.5 -136.5t-94 -93.5t-137.5 -34zM311 64q50 0 88 23t59 65t21 96t-21 95.5t-59 65t-88 23.5t-88.5 -23.5t-59.5 -65t-21 -95.5t21 -96t59.5 -65t88.5 -23z
M145 587l122 142h88l122 -142h-89l-117 115h77l-117 -115h-86zM473 652l-25 47q30 13 45 27.5t15 30.5q0 33 -41 33q-27 0 -53 -20l-34 43q40 37 96 37q42 0 70.5 -25.5t28.5 -63.5q0 -33 -26 -61.5t-76 -47.5z" />
    <glyph glyph-name="uni1EAB" unicode="&#x1eab;" horiz-adv-x="558" 
d="M499 0h-87v98l-3 24v185q0 59 -38 93.5t-103 34.5q-47 0 -86 -19.5t-68 -53.5l-58 60q41 43 94.5 66.5t119.5 23.5q68 0 119.5 -25t80.5 -69.5t29 -107.5v-310zM229 -16q-56 0 -99 20.5t-67 56.5t-24 82q0 52 29.5 88.5t81.5 56t119 19.5h151v-69h-141
q-63 0 -103.5 -22.5t-40.5 -69.5q0 -40 30.5 -64t79.5 -24q48 0 87 19t62.5 53.5t26.5 79.5l33 -18q0 -60 -29 -107t-79.5 -74t-116.5 -27zM106 587l122 142h88l122 -142h-89l-117 115h77l-117 -115h-86zM173 761l-56 23q8 44 31.5 68.5t57.5 24.5q22 0 39 -7t38 -22
q22 -16 31.5 -21t18.5 -5q30 0 39 54l56 -24q-8 -44 -31.5 -68.5t-57.5 -24.5q-22 0 -38.5 7t-38.5 22q-20 15 -30.5 21t-19.5 6q-15 0 -25 -14t-14 -40z" />
    <glyph glyph-name="uni1EC5" unicode="&#x1ec5;" horiz-adv-x="604" 
d="M488 146l58 -60q-39 -48 -95.5 -75t-127.5 -27q-81 0 -144 34t-98.5 93.5t-35.5 136.5t34 136.5t94 93.5t135 34q73 0 129.5 -33.5t89 -92t32.5 -135.5v-6h-94v9q0 54 -20 94.5t-55.5 63t-81.5 22.5q-49 0 -87 -23t-59 -64.5t-21 -97.5t23.5 -98.5t65.5 -65.5t96 -23
q99 0 162 84zM559 217h-445v69h429l16 -35v-34zM142 587l122 142h88l122 -142h-89l-117 115h77l-117 -115h-86zM209 761l-56 23q8 44 31.5 68.5t57.5 24.5q22 0 39 -7t38 -22q22 -16 31.5 -21t18.5 -5q30 0 39 54l56 -24q-8 -44 -31.5 -68.5t-57.5 -24.5q-22 0 -38.5 7
t-38.5 22q-20 15 -30.5 21t-19.5 6q-15 0 -25 -14t-14 -40z" />
    <glyph glyph-name="uni1ED7" unicode="&#x1ed7;" horiz-adv-x="621" 
d="M311 -16q-78 0 -138 34t-94 93.5t-34 136.5t34 136t94 93.5t138 34.5t137.5 -34.5t94 -93.5t34.5 -136t-34.5 -136.5t-94 -93.5t-137.5 -34zM311 64q50 0 88 23t59 65t21 96t-21 95.5t-59 65t-88 23.5t-88.5 -23.5t-59.5 -65t-21 -95.5t21 -96t59.5 -65t88.5 -23z
M145 587l122 142h88l122 -142h-89l-117 115h77l-117 -115h-86zM212 761l-56 23q8 44 31.5 68.5t57.5 24.5q22 0 39 -7t38 -22q22 -16 31.5 -21t18.5 -5q30 0 39 54l56 -24q-8 -44 -31.5 -68.5t-57.5 -24.5q-22 0 -38.5 7t-38.5 22q-20 15 -30.5 21t-19.5 6q-15 0 -25 -14
t-14 -40z" />
    <glyph glyph-name="uni1EAD" unicode="&#x1ead;" horiz-adv-x="558" 
d="M499 0h-87v98l-3 24v185q0 59 -38 93.5t-103 34.5q-47 0 -86 -19.5t-68 -53.5l-58 60q41 43 94.5 66.5t119.5 23.5q68 0 119.5 -25t80.5 -69.5t29 -107.5v-310zM229 -16q-56 0 -99 20.5t-67 56.5t-24 82q0 52 29.5 88.5t81.5 56t119 19.5h151v-69h-141
q-63 0 -103.5 -22.5t-40.5 -69.5q0 -40 30.5 -64t79.5 -24q48 0 87 19t62.5 53.5t26.5 79.5l33 -18q0 -60 -29 -107t-79.5 -74t-116.5 -27zM441 587h-86l-123 158h77l-123 -158h-83l124 174h90zM272 -241q-25 0 -43.5 17.5t-18.5 42.5q0 26 18.5 43.5t43.5 17.5
q26 0 44 -17.5t18 -43.5q0 -25 -18 -42.5t-44 -17.5z" />
    <glyph glyph-name="uni1EC7" unicode="&#x1ec7;" horiz-adv-x="604" 
d="M488 146l58 -60q-39 -48 -95.5 -75t-127.5 -27q-81 0 -144 34t-98.5 93.5t-35.5 136.5t34 136.5t94 93.5t135 34q73 0 129.5 -33.5t89 -92t32.5 -135.5v-6h-94v9q0 54 -20 94.5t-55.5 63t-81.5 22.5q-49 0 -87 -23t-59 -64.5t-21 -97.5t23.5 -98.5t65.5 -65.5t96 -23
q99 0 162 84zM559 217h-445v69h429l16 -35v-34zM477 587h-86l-123 158h77l-123 -158h-83l124 174h90zM308 -241q-25 0 -43.5 17.5t-18.5 42.5q0 26 18.5 43.5t43.5 17.5q26 0 44 -17.5t18 -43.5q0 -25 -18 -42.5t-44 -17.5z" />
    <glyph glyph-name="uni1ED9" unicode="&#x1ed9;" horiz-adv-x="621" 
d="M311 -16q-78 0 -138 34t-94 93.5t-34 136.5t34 136t94 93.5t138 34.5t137.5 -34.5t94 -93.5t34.5 -136t-34.5 -136.5t-94 -93.5t-137.5 -34zM311 64q50 0 88 23t59 65t21 96t-21 95.5t-59 65t-88 23.5t-88.5 -23.5t-59.5 -65t-21 -95.5t21 -96t59.5 -65t88.5 -23z
M480 587h-86l-123 158h77l-123 -158h-83l124 174h90zM311 -241q-25 0 -43.5 17.5t-18.5 42.5q0 26 18.5 43.5t43.5 17.5q26 0 44 -17.5t18 -43.5q0 -25 -18 -42.5t-44 -17.5z" />
    <glyph glyph-name="breveacutecomb" 
d="M0 583q-61 0 -106 41.5t-51 112.5h74q5 -44 28 -65.5t55 -21.5t55 21.5t28 65.5h74q-6 -71 -51 -112.5t-106 -41.5zM-46 735l106 144h102l-137 -144h-71z" />
    <glyph glyph-name="breveacutecomb.cap" 
d="M0 795q-68 0 -114.5 39.5t-53.5 103.5h77q5 -35 30 -55t61 -20t61 20t30 55h77q-7 -64 -53.5 -103.5t-114.5 -39.5zM-43 936l112 147h103l-143 -147h-72z" />
    <glyph glyph-name="brevegravecomb" 
d="M0 583q-61 0 -106 41.5t-51 112.5h74q5 -44 28 -65.5t55 -21.5t55 21.5t28 65.5h74q-6 -71 -51 -112.5t-106 -41.5zM-27 735l-137 144h104l106 -144h-73z" />
    <glyph glyph-name="brevegravecomb.cap" 
d="M0 795q-68 0 -114.5 39.5t-53.5 103.5h77q5 -35 30 -55t61 -20t61 20t30 55h77q-7 -64 -53.5 -103.5t-114.5 -39.5zM-22 936l-138 147h102l107 -147h-71z" />
    <glyph glyph-name="brevehookabovecomb" 
d="M0 583q-61 0 -106 41.5t-51 112.5h74q5 -44 28 -65.5t55 -21.5t55 21.5t28 65.5h74q-6 -71 -51 -112.5t-106 -41.5zM-14 710l-24 47q29 13 44.5 27.5t15.5 30.5q0 33 -42 33q-27 0 -52 -20l-34 43q40 37 95 37q43 0 71.5 -25.5t28.5 -63.5q0 -33 -26.5 -61.5t-76.5 -47.5
z" />
    <glyph glyph-name="brevehookabovecomb.cap" 
d="M0 795q-68 0 -114.5 39.5t-53.5 103.5h77q5 -35 30 -55t61 -20t61 20t30 55h77q-7 -64 -53.5 -103.5t-114.5 -39.5zM-14 919l-24 46q60 29 60 62q0 35 -42 35q-27 0 -52 -20l-34 43q42 37 95 37q43 0 71.5 -25.5t28.5 -63.5q0 -36 -26.5 -65.5t-76.5 -48.5z" />
    <glyph glyph-name="brevetildecomb" 
d="M0 583q-61 0 -106 41.5t-51 112.5h74q5 -44 28 -65.5t55 -21.5t55 21.5t28 65.5h74q-6 -71 -51 -112.5t-106 -41.5zM-100 777l-56 23q8 45 31.5 69.5t57.5 24.5q22 0 39.5 -7.5t38.5 -22.5t31 -20.5t18 -5.5q31 0 39 54l56 -23q-8 -45 -31.5 -69t-57.5 -24
q-22 0 -38.5 6.5t-37.5 22.5q-21 15 -31.5 20.5t-19.5 5.5q-15 0 -25 -14t-14 -40z" />
    <glyph glyph-name="brevetildecomb.cap" 
d="M0 795q-68 0 -114.5 39.5t-53.5 103.5h77q5 -35 30 -55t61 -20t61 20t30 55h77q-7 -64 -53.5 -103.5t-114.5 -39.5zM-113 970l-62 25q7 44 34 70t65 26q19 0 38 -7.5t50 -25.5q25 -16 36.5 -20.5t21.5 -4.5q16 0 28 14t16 40l62 -25q-7 -43 -34 -69.5t-65 -26.5
q-20 0 -40.5 7.5t-50.5 25.5q-20 13 -32 19t-23 6q-16 0 -28 -14t-16 -40z" />
    <glyph glyph-name="uni1EAE" unicode="&#x1eae;" horiz-adv-x="741" 
d="M568 186h-400v83h400v-83zM708 0h-102l-255 653h36l-255 -653h-98l284 715h105zM370 795q-68 0 -114.5 39.5t-53.5 103.5h77q5 -35 30 -55t61 -20t61 20t30 55h77q-7 -64 -53.5 -103.5t-114.5 -39.5zM327 936l112 147h103l-143 -147h-72z" />
    <glyph glyph-name="uni1EB0" unicode="&#x1eb0;" horiz-adv-x="741" 
d="M568 186h-400v83h400v-83zM708 0h-102l-255 653h36l-255 -653h-98l284 715h105zM370 795q-68 0 -114.5 39.5t-53.5 103.5h77q5 -35 30 -55t61 -20t61 20t30 55h77q-7 -64 -53.5 -103.5t-114.5 -39.5zM348 936l-138 147h102l107 -147h-71z" />
    <glyph glyph-name="uni1EB2" unicode="&#x1eb2;" horiz-adv-x="741" 
d="M568 186h-400v83h400v-83zM708 0h-102l-255 653h36l-255 -653h-98l284 715h105zM370 795q-68 0 -114.5 39.5t-53.5 103.5h77q5 -35 30 -55t61 -20t61 20t30 55h77q-7 -64 -53.5 -103.5t-114.5 -39.5zM356 919l-24 46q60 29 60 62q0 35 -42 35q-27 0 -52 -20l-34 43
q42 37 95 37q43 0 71.5 -25.5t28.5 -63.5q0 -36 -26.5 -65.5t-76.5 -48.5z" />
    <glyph glyph-name="uni1EB4" unicode="&#x1eb4;" horiz-adv-x="741" 
d="M568 186h-400v83h400v-83zM708 0h-102l-255 653h36l-255 -653h-98l284 715h105zM370 795q-68 0 -114.5 39.5t-53.5 103.5h77q5 -35 30 -55t61 -20t61 20t30 55h77q-7 -64 -53.5 -103.5t-114.5 -39.5zM257 970l-62 25q7 44 34 70t65 26q19 0 38 -7.5t50 -25.5
q25 -16 36.5 -20.5t21.5 -4.5q16 0 28 14t16 40l62 -25q-7 -43 -34 -69.5t-65 -26.5q-20 0 -40.5 7.5t-50.5 25.5q-20 13 -32 19t-23 6q-16 0 -28 -14t-16 -40z" />
    <glyph glyph-name="uni1EB6" unicode="&#x1eb6;" horiz-adv-x="741" 
d="M568 186h-400v83h400v-83zM708 0h-102l-255 653h36l-255 -653h-98l284 715h105zM370 795q-68 0 -114.5 39.5t-53.5 103.5h77q5 -35 30 -55t61 -20t61 20t30 55h77q-7 -64 -53.5 -103.5t-114.5 -39.5zM370 -228q-28 0 -46 17.5t-18 44.5q0 28 18 45.5t46 17.5t46 -17.5
t18 -45.5q0 -27 -18 -44.5t-46 -17.5z" />
    <glyph glyph-name="uni1EBC" unicode="&#x1ebc;" horiz-adv-x="608" 
d="M563 0h-483v715h483v-83h-387v-549h387v-83zM544 323h-378v83h378v-83zM437 917l66 -27q-10 -52 -43 -76t-69 -24q-23 0 -45 10t-43 24q-20 13 -31.5 19.5t-22.5 6.5q-15 0 -27.5 -13t-17.5 -44l-66 27q10 52 43 76t69 24q23 0 45 -10t43 -24q20 -13 31.5 -19.5
t22.5 -6.5q15 0 28 13.5t17 43.5z" />
    <glyph glyph-name="uni1EF8" unicode="&#x1ef8;" horiz-adv-x="668" 
d="M382 0h-96v307l-268 408h112l218 -346h-26l219 346h109l-268 -410v-305zM450 917l66 -27q-10 -52 -43 -76t-69 -24q-23 0 -45 10t-43 24q-20 13 -31.5 19.5t-22.5 6.5q-15 0 -27.5 -13t-17.5 -44l-66 27q10 52 43 76t69 24q23 0 45 -10t43 -24q20 -13 31.5 -19.5
t22.5 -6.5q15 0 28 13.5t17 43.5z" />
    <glyph glyph-name="uni1EAF" unicode="&#x1eaf;" horiz-adv-x="558" 
d="M499 0h-87v98l-3 24v185q0 59 -38 93.5t-103 34.5q-47 0 -86 -19.5t-68 -53.5l-58 60q41 43 94.5 66.5t119.5 23.5q68 0 119.5 -25t80.5 -69.5t29 -107.5v-310zM229 -16q-56 0 -99 20.5t-67 56.5t-24 82q0 52 29.5 88.5t81.5 56t119 19.5h151v-69h-141
q-63 0 -103.5 -22.5t-40.5 -69.5q0 -40 30.5 -64t79.5 -24q48 0 87 19t62.5 53.5t26.5 79.5l33 -18q0 -60 -29 -107t-79.5 -74t-116.5 -27zM272 583q-61 0 -106 41.5t-51 112.5h74q5 -44 28 -65.5t55 -21.5t55 21.5t28 65.5h74q-6 -71 -51 -112.5t-106 -41.5zM226 735
l106 144h102l-137 -144h-71z" />
    <glyph glyph-name="uni1EB1" unicode="&#x1eb1;" horiz-adv-x="558" 
d="M499 0h-87v98l-3 24v185q0 59 -38 93.5t-103 34.5q-47 0 -86 -19.5t-68 -53.5l-58 60q41 43 94.5 66.5t119.5 23.5q68 0 119.5 -25t80.5 -69.5t29 -107.5v-310zM229 -16q-56 0 -99 20.5t-67 56.5t-24 82q0 52 29.5 88.5t81.5 56t119 19.5h151v-69h-141
q-63 0 -103.5 -22.5t-40.5 -69.5q0 -40 30.5 -64t79.5 -24q48 0 87 19t62.5 53.5t26.5 79.5l33 -18q0 -60 -29 -107t-79.5 -74t-116.5 -27zM272 583q-61 0 -106 41.5t-51 112.5h74q5 -44 28 -65.5t55 -21.5t55 21.5t28 65.5h74q-6 -71 -51 -112.5t-106 -41.5zM245 735
l-137 144h104l106 -144h-73z" />
    <glyph glyph-name="uni1EB3" unicode="&#x1eb3;" horiz-adv-x="558" 
d="M499 0h-87v98l-3 24v185q0 59 -38 93.5t-103 34.5q-47 0 -86 -19.5t-68 -53.5l-58 60q41 43 94.5 66.5t119.5 23.5q68 0 119.5 -25t80.5 -69.5t29 -107.5v-310zM229 -16q-56 0 -99 20.5t-67 56.5t-24 82q0 52 29.5 88.5t81.5 56t119 19.5h151v-69h-141
q-63 0 -103.5 -22.5t-40.5 -69.5q0 -40 30.5 -64t79.5 -24q48 0 87 19t62.5 53.5t26.5 79.5l33 -18q0 -60 -29 -107t-79.5 -74t-116.5 -27zM272 583q-61 0 -106 41.5t-51 112.5h74q5 -44 28 -65.5t55 -21.5t55 21.5t28 65.5h74q-6 -71 -51 -112.5t-106 -41.5zM258 710
l-24 47q29 13 44.5 27.5t15.5 30.5q0 33 -42 33q-27 0 -52 -20l-34 43q40 37 95 37q43 0 71.5 -25.5t28.5 -63.5q0 -33 -26.5 -61.5t-76.5 -47.5z" />
    <glyph glyph-name="uni1EB5" unicode="&#x1eb5;" horiz-adv-x="558" 
d="M499 0h-87v98l-3 24v185q0 59 -38 93.5t-103 34.5q-47 0 -86 -19.5t-68 -53.5l-58 60q41 43 94.5 66.5t119.5 23.5q68 0 119.5 -25t80.5 -69.5t29 -107.5v-310zM229 -16q-56 0 -99 20.5t-67 56.5t-24 82q0 52 29.5 88.5t81.5 56t119 19.5h151v-69h-141
q-63 0 -103.5 -22.5t-40.5 -69.5q0 -40 30.5 -64t79.5 -24q48 0 87 19t62.5 53.5t26.5 79.5l33 -18q0 -60 -29 -107t-79.5 -74t-116.5 -27zM272 583q-61 0 -106 41.5t-51 112.5h74q5 -44 28 -65.5t55 -21.5t55 21.5t28 65.5h74q-6 -71 -51 -112.5t-106 -41.5zM172 777
l-56 23q8 45 31.5 69.5t57.5 24.5q22 0 39.5 -7.5t38.5 -22.5t31 -20.5t18 -5.5q31 0 39 54l56 -23q-8 -45 -31.5 -69t-57.5 -24q-22 0 -38.5 6.5t-37.5 22.5q-21 15 -31.5 20.5t-19.5 5.5q-15 0 -25 -14t-14 -40z" />
    <glyph glyph-name="uni1EB7" unicode="&#x1eb7;" horiz-adv-x="558" 
d="M499 0h-87v98l-3 24v185q0 59 -38 93.5t-103 34.5q-47 0 -86 -19.5t-68 -53.5l-58 60q41 43 94.5 66.5t119.5 23.5q68 0 119.5 -25t80.5 -69.5t29 -107.5v-310zM229 -16q-56 0 -99 20.5t-67 56.5t-24 82q0 52 29.5 88.5t81.5 56t119 19.5h151v-69h-141
q-63 0 -103.5 -22.5t-40.5 -69.5q0 -40 30.5 -64t79.5 -24q48 0 87 19t62.5 53.5t26.5 79.5l33 -18q0 -60 -29 -107t-79.5 -74t-116.5 -27zM272 583q-61 0 -106 41.5t-51 112.5h74q5 -44 28 -65.5t55 -21.5t55 21.5t28 65.5h74q-6 -71 -51 -112.5t-106 -41.5zM272 -241
q-25 0 -43.5 17.5t-18.5 42.5q0 26 18.5 43.5t43.5 17.5q26 0 44 -17.5t18 -43.5q0 -25 -18 -42.5t-44 -17.5z" />
    <glyph glyph-name="uni1EBD" unicode="&#x1ebd;" horiz-adv-x="604" 
d="M488 146l58 -60q-39 -48 -95.5 -75t-127.5 -27q-81 0 -144 34t-98.5 93.5t-35.5 136.5t34 136.5t94 93.5t135 34q73 0 129.5 -33.5t89 -92t32.5 -135.5v-6h-94v9q0 54 -20 94.5t-55.5 63t-81.5 22.5q-49 0 -87 -23t-59 -64.5t-21 -97.5t23.5 -98.5t65.5 -65.5t96 -23
q99 0 162 84zM559 217h-445v69h429l16 -35v-34zM416 726l64 -28q-11 -56 -38.5 -80t-60.5 -24q-24 0 -46 9.5t-43 25.5q-18 14 -29.5 20.5t-22.5 6.5q-14 0 -25 -15.5t-15 -47.5l-64 28q10 56 37.5 80.5t60.5 24.5q25 0 46.5 -10t42.5 -25q18 -15 30 -21.5t22 -6.5
q14 0 25 15.5t16 47.5z" />
    <glyph glyph-name="uni1EF9" unicode="&#x1ef9;" horiz-adv-x="555" 
d="M441 496h95l-247 -575q-23 -55 -58.5 -85t-101.5 -30h-54v78h52q31 0 51.5 15.5t33.5 45.5l21 53l-214 498h99l179 -445h-36zM386 726l64 -28q-11 -56 -38.5 -80t-60.5 -24q-24 0 -46 9.5t-43 25.5q-18 14 -29.5 20.5t-22.5 6.5q-14 0 -25 -15.5t-15 -47.5l-64 28
q10 56 37.5 80.5t60.5 24.5q25 0 46.5 -10t42.5 -25q18 -15 30 -21.5t22 -6.5q14 0 25 15.5t16 47.5z" />
    <glyph glyph-name="uni031B" unicode="&#x31b;" 
d="M0 426v70h43q46 0 65.5 18t19.5 57v44h84v-38q0 -77 -42 -114t-133 -37h-37z" />
    <glyph glyph-name="Ohorn" unicode="&#x1a0;" horiz-adv-x="868" 
d="M428 -16q-81 0 -149 28t-119 78.5t-79 119t-28 148.5t28 148t79 118.5t119 78.5t149 28q21 0 40.5 -2t45.5 -7q25 -4 61 -6.5t67 -2.5q38 0 64.5 7.5t40.5 28t14 61.5v59h89v-51q0 -83 -41 -127.5t-116 -44.5q-14 0 -27.5 1.5t-23.5 3.5l6 14q72 -50 113.5 -129.5
t41.5 -177.5q0 -80 -28 -148.5t-79 -119t-119 -78.5t-149 -28zM428 70q81 0 143 37t96.5 102.5t34.5 148.5t-34.5 148t-96.5 102t-143 37q-80 0 -142.5 -37t-97 -102t-34.5 -148t34.5 -148.5t97 -102.5t142.5 -37z" />
    <glyph glyph-name="Uhorn" unicode="&#x1af;" horiz-adv-x="764" 
d="M364 -16q-136 0 -214 78.5t-78 219.5v433h96v-433q0 -102 51.5 -157t144.5 -55q94 0 145.5 55t51.5 157v433h75q47 0 71 24t24 71v59h89v-51q0 -90 -51.5 -134t-149.5 -39l37 45v-408q0 -141 -77.5 -219.5t-214.5 -78.5z" />
    <glyph glyph-name="uni1EDA" unicode="&#x1eda;" horiz-adv-x="868" 
d="M428 -16q-81 0 -149 28t-119 78.5t-79 119t-28 148.5t28 148t79 118.5t119 78.5t149 28q21 0 40.5 -2t45.5 -7q25 -4 61 -6.5t67 -2.5q38 0 64.5 7.5t40.5 28t14 61.5v59h89v-51q0 -83 -41 -127.5t-116 -44.5q-14 0 -27.5 1.5t-23.5 3.5l6 14q72 -50 113.5 -129.5
t41.5 -177.5q0 -80 -28 -148.5t-79 -119t-119 -78.5t-149 -28zM428 70q81 0 143 37t96.5 102.5t34.5 148.5t-34.5 148t-96.5 102t-143 37q-80 0 -142.5 -37t-97 -102t-34.5 -148t34.5 -148.5t97 -102.5t142.5 -37zM618 941l-159 -144h-93l134 144h118z" />
    <glyph glyph-name="uni1EE8" unicode="&#x1ee8;" horiz-adv-x="764" 
d="M364 -16q-136 0 -214 78.5t-78 219.5v433h96v-433q0 -102 51.5 -157t144.5 -55q94 0 145.5 55t51.5 157v433h75q47 0 71 24t24 71v59h89v-51q0 -90 -51.5 -134t-149.5 -39l37 45v-408q0 -141 -77.5 -219.5t-214.5 -78.5zM554 941l-159 -144h-93l134 144h118z" />
    <glyph glyph-name="uni1EDC" unicode="&#x1edc;" horiz-adv-x="868" 
d="M428 -16q-81 0 -149 28t-119 78.5t-79 119t-28 148.5t28 148t79 118.5t119 78.5t149 28q21 0 40.5 -2t45.5 -7q25 -4 61 -6.5t67 -2.5q38 0 64.5 7.5t40.5 28t14 61.5v59h89v-51q0 -83 -41 -127.5t-116 -44.5q-14 0 -27.5 1.5t-23.5 3.5l6 14q72 -50 113.5 -129.5
t41.5 -177.5q0 -80 -28 -148.5t-79 -119t-119 -78.5t-149 -28zM428 70q81 0 143 37t96.5 102.5t34.5 148.5t-34.5 148t-96.5 102t-143 37q-80 0 -142.5 -37t-97 -102t-34.5 -148t34.5 -148.5t97 -102.5t142.5 -37zM397 797l-159 144h118l134 -144h-93z" />
    <glyph glyph-name="uni1EEA" unicode="&#x1eea;" horiz-adv-x="764" 
d="M364 -16q-136 0 -214 78.5t-78 219.5v433h96v-433q0 -102 51.5 -157t144.5 -55q94 0 145.5 55t51.5 157v433h75q47 0 71 24t24 71v59h89v-51q0 -90 -51.5 -134t-149.5 -39l37 45v-408q0 -141 -77.5 -219.5t-214.5 -78.5zM333 797l-159 144h118l134 -144h-93z" />
    <glyph glyph-name="uni1EDE" unicode="&#x1ede;" horiz-adv-x="868" 
d="M428 -16q-81 0 -149 28t-119 78.5t-79 119t-28 148.5t28 148t79 118.5t119 78.5t149 28q21 0 40.5 -2t45.5 -7q25 -4 61 -6.5t67 -2.5q38 0 64.5 7.5t40.5 28t14 61.5v59h89v-51q0 -83 -41 -127.5t-116 -44.5q-14 0 -27.5 1.5t-23.5 3.5l6 14q72 -50 113.5 -129.5
t41.5 -177.5q0 -80 -28 -148.5t-79 -119t-119 -78.5t-149 -28zM428 70q81 0 143 37t96.5 102.5t34.5 148.5t-34.5 148t-96.5 102t-143 37q-80 0 -142.5 -37t-97 -102t-34.5 -148t34.5 -148.5t97 -102.5t142.5 -37zM419 765l-26 49q32 14 47.5 30t15.5 35q0 36 -44 36
q-28 0 -54 -21l-36 45q44 39 100 39q45 0 75 -26.5t30 -66.5q0 -38 -28 -69t-80 -51z" />
    <glyph glyph-name="uni1EEC" unicode="&#x1eec;" horiz-adv-x="764" 
d="M364 -16q-136 0 -214 78.5t-78 219.5v433h96v-433q0 -102 51.5 -157t144.5 -55q94 0 145.5 55t51.5 157v433h75q47 0 71 24t24 71v59h89v-51q0 -90 -51.5 -134t-149.5 -39l37 45v-408q0 -141 -77.5 -219.5t-214.5 -78.5zM355 765l-26 49q32 14 47.5 30t15.5 35
q0 36 -44 36q-28 0 -54 -21l-36 45q44 39 100 39q45 0 75 -26.5t30 -66.5q0 -38 -28 -69t-80 -51z" />
    <glyph glyph-name="uni1EE0" unicode="&#x1ee0;" horiz-adv-x="868" 
d="M428 -16q-81 0 -149 28t-119 78.5t-79 119t-28 148.5t28 148t79 118.5t119 78.5t149 28q21 0 40.5 -2t45.5 -7q25 -4 61 -6.5t67 -2.5q38 0 64.5 7.5t40.5 28t14 61.5v59h89v-51q0 -83 -41 -127.5t-116 -44.5q-14 0 -27.5 1.5t-23.5 3.5l6 14q72 -50 113.5 -129.5
t41.5 -177.5q0 -80 -28 -148.5t-79 -119t-119 -78.5t-149 -28zM428 70q81 0 143 37t96.5 102.5t34.5 148.5t-34.5 148t-96.5 102t-143 37q-80 0 -142.5 -37t-97 -102t-34.5 -148t34.5 -148.5t97 -102.5t142.5 -37zM544 917l66 -27q-10 -52 -43 -76t-69 -24q-23 0 -45 10
t-43 24q-20 13 -31.5 19.5t-22.5 6.5q-15 0 -27.5 -13t-17.5 -44l-66 27q10 52 43 76t69 24q23 0 45 -10t43 -24q20 -13 31.5 -19.5t22.5 -6.5q15 0 28 13.5t17 43.5z" />
    <glyph glyph-name="uni1EEE" unicode="&#x1eee;" horiz-adv-x="764" 
d="M364 -16q-136 0 -214 78.5t-78 219.5v433h96v-433q0 -102 51.5 -157t144.5 -55q94 0 145.5 55t51.5 157v433h75q47 0 71 24t24 71v59h89v-51q0 -90 -51.5 -134t-149.5 -39l37 45v-408q0 -141 -77.5 -219.5t-214.5 -78.5zM480 917l66 -27q-10 -52 -43 -76t-69 -24
q-23 0 -45 10t-43 24q-20 13 -31.5 19.5t-22.5 6.5q-15 0 -27.5 -13t-17.5 -44l-66 27q10 52 43 76t69 24q23 0 45 -10t43 -24q20 -13 31.5 -19.5t22.5 -6.5q15 0 28 13.5t17 43.5z" />
    <glyph glyph-name="uni1EE2" unicode="&#x1ee2;" horiz-adv-x="868" 
d="M428 -16q-81 0 -149 28t-119 78.5t-79 119t-28 148.5t28 148t79 118.5t119 78.5t149 28q21 0 40.5 -2t45.5 -7q25 -4 61 -6.5t67 -2.5q38 0 64.5 7.5t40.5 28t14 61.5v59h89v-51q0 -83 -41 -127.5t-116 -44.5q-14 0 -27.5 1.5t-23.5 3.5l6 14q72 -50 113.5 -129.5
t41.5 -177.5q0 -80 -28 -148.5t-79 -119t-119 -78.5t-149 -28zM428 70q81 0 143 37t96.5 102.5t34.5 148.5t-34.5 148t-96.5 102t-143 37q-80 0 -142.5 -37t-97 -102t-34.5 -148t34.5 -148.5t97 -102.5t142.5 -37zM428 -228q-28 0 -46 17.5t-18 44.5q0 28 18 45.5t46 17.5
t46 -17.5t18 -45.5q0 -27 -18 -44.5t-46 -17.5z" />
    <glyph glyph-name="uni1EF0" unicode="&#x1ef0;" horiz-adv-x="764" 
d="M364 -16q-136 0 -214 78.5t-78 219.5v433h96v-433q0 -102 51.5 -157t144.5 -55q94 0 145.5 55t51.5 157v433h75q47 0 71 24t24 71v59h89v-51q0 -90 -51.5 -134t-149.5 -39l37 45v-408q0 -141 -77.5 -219.5t-214.5 -78.5zM365 -228q-28 0 -46 17.5t-18 44.5q0 28 18 45.5
t46 17.5t46 -17.5t18 -45.5q0 -27 -18 -44.5t-46 -17.5z" />
    <glyph glyph-name="ohorn" unicode="&#x1a1;" horiz-adv-x="633" 
d="M311 -16q-78 0 -138 34t-94 93.5t-34 136.5t34 136t94 93.5t138 34.5q19 0 37 -2t35 -7q19 -4 33 -6t28 -2q46 0 67.5 17.5t21.5 58.5v44h84v-38q0 -72 -35.5 -108t-111.5 -42l15 25q42 -34 67 -87t25 -117q0 -77 -34.5 -136.5t-94 -93.5t-137.5 -34zM311 64q50 0 88 23
t59 65t21 96t-21 95.5t-59 65t-88 23.5t-88.5 -23.5t-59.5 -65t-21 -95.5t21 -96t59.5 -65t88.5 -23z" />
    <glyph glyph-name="uhorn" unicode="&#x1b0;" horiz-adv-x="641" 
d="M437 212l19 -20q4 -61 -21.5 -107.5t-72 -73.5t-107.5 -27q-89 0 -142 53t-53 153v306h93v-296q0 -67 32.5 -101.5t90.5 -34.5q41 0 76 18.5t58 52t27 77.5zM581 615h84v-38q0 -79 -44 -115.5t-141 -35.5l41 46v-472h-92v96l-1 28v372h68q46 0 65.5 18t19.5 57v44z" />
    <glyph glyph-name="uni1EDB" unicode="&#x1edb;" horiz-adv-x="633" 
d="M311 -16q-78 0 -138 34t-94 93.5t-34 136.5t34 136t94 93.5t138 34.5q19 0 37 -2t35 -7q19 -4 33 -6t28 -2q46 0 67.5 17.5t21.5 58.5v44h84v-38q0 -72 -35.5 -108t-111.5 -42l15 25q42 -34 67 -87t25 -117q0 -77 -34.5 -136.5t-94 -93.5t-137.5 -34zM311 64q50 0 88 23
t59 65t21 96t-21 95.5t-59 65t-88 23.5t-88.5 -23.5t-59.5 -65t-21 -95.5t21 -96t59.5 -65t88.5 -23zM474 761l-139 -174h-81l114 174h106z" />
    <glyph glyph-name="uni1EE9" unicode="&#x1ee9;" horiz-adv-x="641" 
d="M437 212l19 -20q4 -61 -21.5 -107.5t-72 -73.5t-107.5 -27q-89 0 -142 53t-53 153v306h93v-296q0 -67 32.5 -101.5t90.5 -34.5q41 0 76 18.5t58 52t27 77.5zM581 615h84v-38q0 -79 -44 -115.5t-141 -35.5l41 46v-472h-92v96l-1 28v372h68q46 0 65.5 18t19.5 57v44z
M453 761l-139 -174h-81l114 174h106z" />
    <glyph glyph-name="uni1EDD" unicode="&#x1edd;" horiz-adv-x="633" 
d="M311 -16q-78 0 -138 34t-94 93.5t-34 136.5t34 136t94 93.5t138 34.5q19 0 37 -2t35 -7q19 -4 33 -6t28 -2q46 0 67.5 17.5t21.5 58.5v44h84v-38q0 -72 -35.5 -108t-111.5 -42l15 25q42 -34 67 -87t25 -117q0 -77 -34.5 -136.5t-94 -93.5t-137.5 -34zM311 64q50 0 88 23
t59 65t21 96t-21 95.5t-59 65t-88 23.5t-88.5 -23.5t-59.5 -65t-21 -95.5t21 -96t59.5 -65t88.5 -23zM287 587l-139 174h106l114 -174h-81z" />
    <glyph glyph-name="uni1EEB" unicode="&#x1eeb;" horiz-adv-x="641" 
d="M437 212l19 -20q4 -61 -21.5 -107.5t-72 -73.5t-107.5 -27q-89 0 -142 53t-53 153v306h93v-296q0 -67 32.5 -101.5t90.5 -34.5q41 0 76 18.5t58 52t27 77.5zM581 615h84v-38q0 -79 -44 -115.5t-141 -35.5l41 46v-472h-92v96l-1 28v372h68q46 0 65.5 18t19.5 57v44z
M266 587l-139 174h106l114 -174h-81z" />
    <glyph glyph-name="uni1EDF" unicode="&#x1edf;" horiz-adv-x="633" 
d="M311 -16q-78 0 -138 34t-94 93.5t-34 136.5t34 136t94 93.5t138 34.5q19 0 37 -2t35 -7q19 -4 33 -6t28 -2q46 0 67.5 17.5t21.5 58.5v44h84v-38q0 -72 -35.5 -108t-111.5 -42l15 25q42 -34 67 -87t25 -117q0 -77 -34.5 -136.5t-94 -93.5t-137.5 -34zM311 64q50 0 88 23
t59 65t21 96t-21 95.5t-59 65t-88 23.5t-88.5 -23.5t-59.5 -65t-21 -95.5t21 -96t59.5 -65t88.5 -23zM303 560l-26 48q32 15 47.5 30t15.5 31q0 36 -44 36q-28 0 -54 -21l-36 44q44 39 100 39q45 0 75 -26t30 -66q0 -36 -28 -66t-80 -49z" />
    <glyph glyph-name="uni1EED" unicode="&#x1eed;" horiz-adv-x="641" 
d="M437 212l19 -20q4 -61 -21.5 -107.5t-72 -73.5t-107.5 -27q-89 0 -142 53t-53 153v306h93v-296q0 -67 32.5 -101.5t90.5 -34.5q41 0 76 18.5t58 52t27 77.5zM581 615h84v-38q0 -79 -44 -115.5t-141 -35.5l41 46v-472h-92v96l-1 28v372h68q46 0 65.5 18t19.5 57v44z
M282 560l-26 48q32 15 47.5 30t15.5 31q0 36 -44 36q-28 0 -54 -21l-36 44q44 39 100 39q45 0 75 -26t30 -66q0 -36 -28 -66t-80 -49z" />
    <glyph glyph-name="uni1EE1" unicode="&#x1ee1;" horiz-adv-x="633" 
d="M311 -16q-78 0 -138 34t-94 93.5t-34 136.5t34 136t94 93.5t138 34.5q19 0 37 -2t35 -7q19 -4 33 -6t28 -2q46 0 67.5 17.5t21.5 58.5v44h84v-38q0 -72 -35.5 -108t-111.5 -42l15 25q42 -34 67 -87t25 -117q0 -77 -34.5 -136.5t-94 -93.5t-137.5 -34zM311 64q50 0 88 23
t59 65t21 96t-21 95.5t-59 65t-88 23.5t-88.5 -23.5t-59.5 -65t-21 -95.5t21 -96t59.5 -65t88.5 -23zM419 726l64 -28q-11 -56 -38.5 -80t-60.5 -24q-24 0 -46 9.5t-43 25.5q-18 14 -29.5 20.5t-22.5 6.5q-14 0 -25 -15.5t-15 -47.5l-64 28q10 56 37.5 80.5t60.5 24.5
q25 0 46.5 -10t42.5 -25q18 -15 30 -21.5t22 -6.5q14 0 25 15.5t16 47.5z" />
    <glyph glyph-name="uni1EEF" unicode="&#x1eef;" horiz-adv-x="641" 
d="M437 212l19 -20q4 -61 -21.5 -107.5t-72 -73.5t-107.5 -27q-89 0 -142 53t-53 153v306h93v-296q0 -67 32.5 -101.5t90.5 -34.5q41 0 76 18.5t58 52t27 77.5zM581 615h84v-38q0 -79 -44 -115.5t-141 -35.5l41 46v-472h-92v96l-1 28v372h68q46 0 65.5 18t19.5 57v44z
M398 726l64 -28q-11 -56 -38.5 -80t-60.5 -24q-24 0 -46 9.5t-43 25.5q-18 14 -29.5 20.5t-22.5 6.5q-14 0 -25 -15.5t-15 -47.5l-64 28q10 56 37.5 80.5t60.5 24.5q25 0 46.5 -10t42.5 -25q18 -15 30 -21.5t22 -6.5q14 0 25 15.5t16 47.5z" />
    <glyph glyph-name="uni1EE3" unicode="&#x1ee3;" horiz-adv-x="633" 
d="M311 -16q-78 0 -138 34t-94 93.5t-34 136.5t34 136t94 93.5t138 34.5q19 0 37 -2t35 -7q19 -4 33 -6t28 -2q46 0 67.5 17.5t21.5 58.5v44h84v-38q0 -72 -35.5 -108t-111.5 -42l15 25q42 -34 67 -87t25 -117q0 -77 -34.5 -136.5t-94 -93.5t-137.5 -34zM311 64q50 0 88 23
t59 65t21 96t-21 95.5t-59 65t-88 23.5t-88.5 -23.5t-59.5 -65t-21 -95.5t21 -96t59.5 -65t88.5 -23zM311 -241q-25 0 -43.5 17.5t-18.5 42.5q0 26 18.5 43.5t43.5 17.5q26 0 44 -17.5t18 -43.5q0 -25 -18 -42.5t-44 -17.5z" />
    <glyph glyph-name="uni1EF1" unicode="&#x1ef1;" horiz-adv-x="641" 
d="M437 212l19 -20q4 -61 -21.5 -107.5t-72 -73.5t-107.5 -27q-89 0 -142 53t-53 153v306h93v-296q0 -67 32.5 -101.5t90.5 -34.5q41 0 76 18.5t58 52t27 77.5zM581 615h84v-38q0 -79 -44 -115.5t-141 -35.5l41 46v-472h-92v96l-1 28v372h68q46 0 65.5 18t19.5 57v44z
M290 -241q-25 0 -43.5 17.5t-18.5 42.5q0 26 18.5 43.5t43.5 17.5q26 0 44 -17.5t18 -43.5q0 -25 -18 -42.5t-44 -17.5z" />
    <glyph glyph-name="uni0410" unicode="&#x410;" horiz-adv-x="741" 
d="M568 186h-400v83h400v-83zM708 0h-102l-255 653h36l-255 -653h-98l284 715h105z" />
    <glyph glyph-name="uni0411" unicode="&#x411;" horiz-adv-x="668" 
d="M92 0v715h96v-644l-12 12h210q68 0 106 33t38 92t-38 91.5t-106 32.5h-245v83h245q74 0 128.5 -25.5t84 -72t29.5 -109.5q0 -62 -30 -109t-84.5 -73t-127.5 -26h-294zM152 631v84h420v-84h-420z" />
    <glyph glyph-name="uni0412" unicode="&#x412;" horiz-adv-x="680" 
d="M92 0v715h278q70 0 121.5 -23.5t80 -65.5t28.5 -99q0 -52 -28.5 -92.5t-80 -63t-121.5 -22.5h-172v49h190q73 0 127.5 -24t85 -67.5t30.5 -103.5q0 -61 -30.5 -107t-85 -71t-127.5 -25h-296zM188 83h201q67 0 105.5 32t38.5 90t-38.5 90t-105.5 32h-211v81h190
q62 0 98 30.5t36 83.5q0 51 -36 80.5t-98 29.5h-180v-549z" />
    <glyph glyph-name="uni0413" unicode="&#x413;" horiz-adv-x="556" 
d="M92 0v715h453v-84h-409l52 62v-693h-96z" />
    <glyph glyph-name="uni0414" unicode="&#x414;" horiz-adv-x="794" 
d="M69 40v44h29q28 0 44.5 37t26.5 118l55 476h449v-670h-95v651l58 -65h-388l68 65l-56 -469q-7 -61 -22.5 -102.5t-45 -63t-80.5 -21.5h-43zM30 -174v258h721v-258h-92v234l69 -60h-637l31 57v-231h-92z" />
    <glyph glyph-name="uni0415" unicode="&#x415;" horiz-adv-x="620" 
d="M575 0h-483v715h483v-83h-387v-549h387v-83zM556 323h-378v83h378v-83z" />
    <glyph glyph-name="uni0416" unicode="&#x416;" horiz-adv-x="1028" 
d="M886 0l-348 371h14l320 344h119l-324 -345l345 -370h-126zM16 0l345 370l-324 345h119l320 -344h14l-348 -371h-126zM466 0v715h96v-715h-96z" />
    <glyph glyph-name="uni0417" unicode="&#x417;" horiz-adv-x="644" 
d="M311 -16q-88 0 -162.5 35.5t-125.5 99.5l65 64q41 -56 98.5 -84.5t126.5 -28.5q53 0 94.5 18t65 49t23.5 70q0 57 -45.5 90t-123.5 33h-148v83h148q67 0 108 32t41 84t-45.5 84t-118.5 32q-66 0 -113 -25.5t-94 -85.5l-65 61q56 71 121.5 103.5t152.5 32.5
q75 0 133.5 -25t92.5 -68.5t34 -99.5q0 -54 -31 -96t-86 -64q65 -21 101 -67t36 -107q0 -62 -37.5 -112t-101.5 -79t-144 -29z" />
    <glyph glyph-name="uni0418" unicode="&#x418;" horiz-adv-x="770" 
d="M92 0v715h96v-662h-60l446 662h104v-715h-96v659h56l-444 -659h-102z" />
    <glyph glyph-name="uni041A" unicode="&#x41a;" horiz-adv-x="715" 
d="M188 0h-96v715h96v-715zM699 0h-139l-396 371h15l354 344h124l-376 -357v26z" />
    <glyph glyph-name="uni041B" unicode="&#x41b;" horiz-adv-x="738" 
d="M22 0v84h51q27 0 40.5 12.5t17.5 40.5l71 578h444v-715h-96v696l59 -65h-380l65 65l-72 -571q-5 -43 -21.5 -70.5t-45 -41t-70.5 -13.5h-63z" />
    <glyph glyph-name="uni041C" unicode="&#x41c;" horiz-adv-x="931" 
d="M501 66h-72l-285 595l41 1v-662h-93v715h119l280 -588h-50l281 588h116v-715h-93v662l41 -1z" />
    <glyph glyph-name="uni041D" unicode="&#x41d;" horiz-adv-x="769" 
d="M581 0v715h96v-715h-96zM188 0h-96v715h96v-715zM178 328v84h413v-84h-413z" />
    <glyph glyph-name="uni041E" unicode="&#x41e;" horiz-adv-x="856" 
d="M428 -16q-81 0 -149 28t-119 78.5t-79 119t-28 148.5t28 148t79 118.5t119 78.5t149 28t149 -28t119 -78.5t79 -118.5t28 -148t-28 -148.5t-79 -119t-119 -78.5t-149 -28zM428 70q81 0 143 37t96.5 102.5t34.5 148.5t-34.5 148t-96.5 102t-143 37q-80 0 -142.5 -37
t-97 -102t-34.5 -148t34.5 -148.5t97 -102.5t142.5 -37z" />
    <glyph glyph-name="uni041F" unicode="&#x41f;" horiz-adv-x="765" 
d="M92 0v715h581v-715h-96v693l50 -62h-491l52 62v-693h-96z" />
    <glyph glyph-name="uni0420" unicode="&#x420;" horiz-adv-x="660" 
d="M188 0h-96v715h282q73 0 127 -26t84.5 -72t30.5 -108t-30.5 -108t-84.5 -72t-127 -26h-196v83h196q67 0 105.5 32.5t38.5 90.5t-38.5 90.5t-105.5 32.5h-186v-632z" />
    <glyph glyph-name="uni0421" unicode="&#x421;" horiz-adv-x="743" 
d="M638 184l67 -65q-47 -62 -122 -98.5t-165 -36.5q-79 0 -145.5 28t-115.5 78.5t-76.5 118.5t-27.5 148t28 148.5t77.5 119t116.5 78.5t146 28q89 0 163 -36.5t121 -98.5l-67 -65q-36 52 -91 83t-126 31q-76 0 -136.5 -37.5t-95.5 -102t-35 -148.5q0 -82 35 -147
t95.5 -102.5t136.5 -37.5q71 0 126 31t91 83z" />
    <glyph glyph-name="uni0422" unicode="&#x422;" horiz-adv-x="632" 
d="M364 0h-96v641h96v-641zM598 631h-563v84h563v-84z" />
    <glyph glyph-name="uni0423" unicode="&#x423;" horiz-adv-x="669" 
d="M77 0v82h85q33 0 56 10t41 33.5t38 64.5l254 525h100l-282 -567q-27 -55 -55 -87.5t-63 -46.5t-87 -14h-87zM302 161l-284 554h100l258 -511z" />
    <glyph glyph-name="uni0424" unicode="&#x424;" horiz-adv-x="874" 
d="M437 73q-188 0 -286 72.5t-98 212.5t98 212t286 72q189 0 286 -72t97 -212t-97 -212.5t-286 -72.5zM437 157q145 0 215.5 49t70.5 152q0 102 -71 151t-215 49t-215 -49t-71 -151q0 -101 71.5 -151t214.5 -50zM389 -31v127l3 44v437l-3 39v130h96v-130l-4 -39v-437l4 -44
v-127h-96z" />
    <glyph glyph-name="uni0425" unicode="&#x425;" horiz-adv-x="686" 
d="M131 0h-113l275 392v-42l-251 365h113l202 -304h-27l202 304h111l-250 -365l1 42l274 -392h-114l-225 330h28z" />
    <glyph glyph-name="uni0426" unicode="&#x426;" horiz-adv-x="792" 
d="M92 0v715h96v-693l-52 62h489l-50 -62v693h96v-715h-579zM657 -174v258h92v-258h-92z" />
    <glyph glyph-name="uni0427" unicode="&#x427;" horiz-adv-x="683" 
d="M303 263q-119 0 -184.5 58t-65.5 164v230h96v-219q0 -72 43.5 -110t122.5 -38q54 0 105.5 17.5t85.5 45.5l33 -63q-44 -42 -104.5 -63.5t-131.5 -21.5zM495 0v715h96v-715h-96z" />
    <glyph glyph-name="uni0428" unicode="&#x428;" horiz-adv-x="1122" 
d="M92 0v715h96v-695l-54 64h417l-38 -64v695h96v-695l-38 64h417l-54 -64v695h96v-715h-938z" />
    <glyph glyph-name="uni0429" unicode="&#x429;" horiz-adv-x="1150" 
d="M92 0v715h96v-663l-30 32h377l-22 -32v663h96v-663l-22 32h377l-30 -32v663h96v-715h-938zM1015 -174v258h92v-258h-92z" />
    <glyph glyph-name="uni042A" unicode="&#x42a;" horiz-adv-x="733" 
d="M155 0v643l12 -12h-154v84h238v-643l-12 12h210q68 0 106.5 34.5t38.5 93.5q0 60 -38.5 94t-106.5 34h-232v84h232q74 0 128.5 -26t84.5 -73.5t30 -112.5q0 -63 -30.5 -110.5t-85 -74.5t-127.5 -27h-294z" />
    <glyph glyph-name="uni042B" unicode="&#x42b;" horiz-adv-x="917" 
d="M92 0v715h96v-644l-12 13h210q68 0 106 34.5t38 93.5q0 60 -38 94t-106 34h-245v84h245q74 0 128.5 -26t84 -73.5t29.5 -112.5q0 -63 -30 -110.5t-84.5 -74.5t-127.5 -27h-294zM828 0h-96v715h96v-715z" />
    <glyph glyph-name="uni042C" unicode="&#x42c;" horiz-adv-x="670" 
d="M92 0v715h96v-644l-12 13h210q68 0 106 34.5t38 93.5q0 60 -38 94t-106 34h-245v84h245q74 0 128.5 -26t84 -73.5t29.5 -112.5q0 -63 -30 -110.5t-84.5 -74.5t-127.5 -27h-294z" />
    <glyph glyph-name="uni042D" unicode="&#x42d;" horiz-adv-x="741" 
d="M333 -16q-92 0 -170.5 36.5t-126.5 98.5l63 61q39 -49 98.5 -79.5t132.5 -30.5q78 0 136.5 36t90.5 101t32 150q0 86 -33 150.5t-91.5 101t-135.5 36.5q-71 0 -127.5 -31t-98.5 -81l-65 63q50 62 125 98.5t167 36.5q77 0 143 -27.5t114 -77t74.5 -118t26.5 -151.5
q0 -110 -44.5 -194t-124 -131.5t-186.5 -47.5zM190 328v84h445v-84h-445z" />
    <glyph glyph-name="uni042E" unicode="&#x42e;" horiz-adv-x="1085" 
d="M673 -16q-77 0 -142.5 28t-114 78.5t-75.5 119t-27 148.5t27 148t75.5 118.5t114 78.5t142.5 28q78 0 143 -28t114 -78.5t75.5 -118.5t26.5 -148t-26.5 -148.5t-75.5 -119t-114 -78.5t-143 -28zM92 0v715h96v-715h-96zM164 328v84h210v-84h-210zM673 70q77 0 135 37
t91 102t33 149t-33 148.5t-91 101.5t-135 37q-75 0 -134 -37t-92 -101.5t-33 -148.5t33 -149t92 -102t134 -37z" />
    <glyph glyph-name="uni042F" unicode="&#x42f;" horiz-adv-x="691" 
d="M503 0v632h-186q-67 0 -105.5 -32.5t-38.5 -90.5t38.5 -90.5t105.5 -32.5h196v-83h-196q-72 0 -126.5 26t-85 72t-30.5 108t30.5 108t85 72t126.5 26h282v-715h-96zM31 0l242 333h107l-234 -333h-115z" />
    <glyph glyph-name="uni0430" unicode="&#x430;" horiz-adv-x="558" 
d="M499 0h-87v98l-3 24v185q0 59 -38 93.5t-103 34.5q-47 0 -86 -19.5t-68 -53.5l-58 60q41 43 94.5 66.5t119.5 23.5q68 0 119.5 -25t80.5 -69.5t29 -107.5v-310zM229 -16q-56 0 -99 20.5t-67 56.5t-24 82q0 52 29.5 88.5t81.5 56t119 19.5h151v-69h-141
q-63 0 -103.5 -22.5t-40.5 -69.5q0 -40 30.5 -64t79.5 -24q48 0 87 19t62.5 53.5t26.5 79.5l33 -18q0 -60 -29 -107t-79.5 -74t-116.5 -27z" />
    <glyph glyph-name="uni0431" unicode="&#x431;" horiz-adv-x="600" 
d="M304 -16q-126 0 -192.5 90.5t-66.5 260.5q0 165 55 248.5t175 101.5l219 34l14 -79l-218 -36q-57 -9 -91 -37t-50 -82.5t-19 -144.5l-15 -30q8 53 39 91t77.5 58.5t98.5 20.5q72 0 122 -31.5t76.5 -85.5t26.5 -123q0 -78 -30.5 -135.5t-87.5 -89t-133 -31.5zM301 64
q74 0 116 46.5t42 126.5q0 78 -39.5 121.5t-109.5 43.5q-42 0 -77 -20t-60 -55.5t-34 -82.5l4 58q-3 -121 36 -179.5t122 -58.5z" />
    <glyph glyph-name="uni0432" unicode="&#x432;" horiz-adv-x="552" 
d="M76 0v496h253q78 0 123.5 -36t45.5 -96q0 -38 -22.5 -66t-60.5 -43l-1 9q47 -13 77 -44t30 -76q0 -42 -25 -75t-67 -51t-94 -18h-259zM165 22l-52 51h215q46 0 72 19.5t26 55.5q0 35 -26 54.5t-72 19.5h-204v70h199q44 0 62 18t18 50q0 31 -18.5 46.5t-61.5 15.5h-211
l53 53v-453z" />
    <glyph glyph-name="uni0433" unicode="&#x433;" horiz-adv-x="457" 
d="M76 0v496h352v-78h-334l75 59v-477h-93z" />
    <glyph glyph-name="uni0434" unicode="&#x434;" horiz-adv-x="618" 
d="M43 34v43h18q21 0 32.5 9t18.5 30.5t11 60.5l36 319h357v-450h-92v433l65 -61h-315l74 61l-38 -309q-6 -51 -19.5 -80.5t-39.5 -42.5t-71 -13h-37zM21 -131v208h569v-208h-88v190l58 -59h-486l35 59v-190h-88z" />
    <glyph glyph-name="uni0435" unicode="&#x435;" horiz-adv-x="604" 
d="M488 146l58 -60q-39 -48 -95.5 -75t-127.5 -27q-81 0 -144 34t-98.5 93.5t-35.5 136.5t34 136.5t94 93.5t135 34q73 0 129.5 -33.5t89 -92t32.5 -135.5v-6h-94v9q0 54 -20 94.5t-55.5 63t-81.5 22.5q-49 0 -87 -23t-59 -64.5t-21 -97.5t23.5 -98.5t65.5 -65.5t96 -23
q99 0 162 84zM559 217h-445v69h429l16 -35v-34z" />
    <glyph glyph-name="uni0436" unicode="&#x436;" horiz-adv-x="791" 
d="M658 0l-243 257h10l227 239h114l-231 -243l243 -253h-120zM13 0l243 253l-230 243h114l226 -239h10l-242 -257h-121zM349 0v496h92v-496h-92z" />
    <glyph glyph-name="uni0437" unicode="&#x437;" horiz-adv-x="495" 
d="M238 -17q-62 0 -122 22.5t-100 65.5l55 58q66 -67 165 -67q62 0 98.5 23.5t36.5 62.5q0 72 -122 72h-101v70h102q52 0 79 17.5t27 50.5q0 35 -32.5 55.5t-87.5 20.5q-90 0 -153 -68l-55 60q82 86 209 86q62 0 109 -18.5t74.5 -50.5t27.5 -74q0 -40 -24.5 -69.5
t-69.5 -42.5l-1 8q53 -13 82 -45t29 -78q0 -45 -30 -81t-80.5 -57t-115.5 -21z" />
    <glyph glyph-name="uni0438" unicode="&#x438;" horiz-adv-x="615" 
d="M76 0v496h91v-374l-7 2l297 372h81v-496h-91v374l8 -3l-298 -371h-81z" />
    <glyph glyph-name="uni043A" unicode="&#x43a;" horiz-adv-x="553" 
d="M413 0l-271 257h10l245 239h119l-266 -259l-19 52l309 -289h-127zM76 0v496h93v-496h-93z" />
    <glyph glyph-name="uni043B" unicode="&#x43b;" horiz-adv-x="587" 
d="M19 0v78h38q28 0 41.5 14t16.5 49l31 355h365v-496h-93v479l66 -61h-320l72 61l-34 -354q-6 -70 -37 -97.5t-93 -27.5h-53z" />
    <glyph glyph-name="uni043C" unicode="&#x43c;" horiz-adv-x="734" 
d="M76 0v496h103l195 -366h-17l194 366h106v-496h-87v464l43 -12l-215 -405h-70l-214 405l47 11v-463h-85z" />
    <glyph glyph-name="uni043D" unicode="&#x43d;" horiz-adv-x="618" 
d="M449 0v496h93v-496h-93zM76 0v496h93v-496h-93zM121 222v77h380v-77h-380z" />
    <glyph glyph-name="uni043E" unicode="&#x43e;" horiz-adv-x="621" 
d="M311 -16q-78 0 -138 34t-94 93.5t-34 136.5t34 136t94 93.5t138 34.5t137.5 -34.5t94 -93.5t34.5 -136t-34.5 -136.5t-94 -93.5t-137.5 -34zM311 64q50 0 88 23t59 65t21 96t-21 95.5t-59 65t-88 23.5t-88.5 -23.5t-59.5 -65t-21 -95.5t21 -96t59.5 -65t88.5 -23z" />
    <glyph glyph-name="uni043F" unicode="&#x43f;" horiz-adv-x="601" 
d="M76 0v496h448v-496h-93v479l66 -61h-402l74 61v-479h-93z" />
    <glyph glyph-name="uni0440" unicode="&#x440;" horiz-adv-x="649" 
d="M169 -194h-93v690h92v-152h-21q8 49 37.5 87t74 59.5t97.5 21.5q72 0 128 -34.5t88 -94t32 -135.5q0 -77 -32.5 -136.5t-90 -93.5t-130.5 -34q-67 0 -116 27.5t-74 75t-20 106.5l19 19q4 -43 28.5 -77t63 -52.5t83.5 -18.5q52 0 90 23.5t60 65.5t22 95t-21 94.5t-58 65.5
t-87 24t-88.5 -24.5t-61 -68.5t-22.5 -102v-431z" />
    <glyph glyph-name="uni0441" unicode="&#x441;" horiz-adv-x="552" 
d="M454 141l63 -60q-36 -45 -89 -71t-120 -26q-76 0 -135.5 34t-93.5 93.5t-34 136.5q0 76 34 135.5t94.5 94t136.5 34.5q66 0 118.5 -26t88.5 -71l-63 -60q-23 35 -58 56t-84 21q-50 0 -88.5 -23.5t-60 -65t-21.5 -95.5t21.5 -95.5t60 -65t88.5 -23.5t84.5 21t57.5 56z" />
    <glyph glyph-name="uni0442" unicode="&#x442;" horiz-adv-x="498" 
d="M203 0v467h93v-467h-93zM24 418v78h450v-78h-450z" />
    <glyph glyph-name="uni0443" unicode="&#x443;" horiz-adv-x="555" 
d="M441 496h95l-247 -575q-23 -55 -58.5 -85t-101.5 -30h-54v78h52q31 0 51.5 15.5t33.5 45.5l21 53l-214 498h99l179 -445h-36z" />
    <glyph glyph-name="uni0444" unicode="&#x444;" horiz-adv-x="778" 
d="M374 -16q-101 0 -175 32t-114 91.5t-40 140.5t40 140t114 91.5t175 32.5h30q102 0 175.5 -32.5t113.5 -91.5t40 -140t-40 -140.5t-113.5 -91.5t-175.5 -32h-30zM374 63h30q117 0 176 46.5t59 138.5q0 91 -59 137.5t-176 46.5h-30q-117 0 -176 -46t-59 -138t59 -138.5
t176 -46.5zM343 -204v221l2 15v423l-2 16v249h93v-249l-2 -16v-423l2 -15v-221h-93z" />
    <glyph glyph-name="uni0445" unicode="&#x445;" horiz-adv-x="529" 
d="M119 0h-107l193 257l-176 239h106l130 -185l129 185h106l-176 -239l194 -257h-109l-144 200z" />
    <glyph glyph-name="uni0446" unicode="&#x446;" horiz-adv-x="613" 
d="M76 0v496h93v-480l-74 61h381l-54 -61v480h93v-496h-439zM497 -131v208h88v-208h-88z" />
    <glyph glyph-name="uni0447" unicode="&#x447;" horiz-adv-x="569" 
d="M241 162q-95 0 -145.5 50t-50.5 144v140h93v-130q0 -70 32 -97.5t92 -27.5q71 0 142 48l25 -62q-26 -21 -56.5 -35.5t-64 -22t-67.5 -7.5zM399 0v496h93v-496h-93z" />
    <glyph glyph-name="uni0448" unicode="&#x448;" horiz-adv-x="847" 
d="M76 0v496h92v-475l-24 56h259l-26 -56v475h92v-475l-19 56h261l-33 -56v475h92v-496h-694z" />
    <glyph glyph-name="uni0449" unicode="&#x449;" horiz-adv-x="868" 
d="M76 0v496h92v-475l-24 56h259l-26 -56v475h92v-475l-19 56h261l-33 -56v475h92v-496h-694zM753 -131v208h87v-208h-87z" />
    <glyph glyph-name="uni044A" unicode="&#x44a;" horiz-adv-x="581" 
d="M128 0v479l48 -60h-147v77h191v-482l-56 62h201q46 0 71.5 22.5t25.5 62.5q0 39 -25.5 61t-71.5 22h-187v76h191q85 0 136.5 -44t51.5 -114q0 -47 -24 -83.5t-66.5 -57.5t-97.5 -21h-241z" />
    <glyph glyph-name="uni044B" unicode="&#x44b;" horiz-adv-x="736" 
d="M76 0v496h92v-482l-62 63h205q47 0 72 22.5t25 62.5q0 39 -25 60.5t-72 21.5h-190v78h195q84 0 136 -44.5t52 -114.5q0 -48 -24.5 -84.5t-67 -57.5t-96.5 -21h-240zM567 0v496h93v-496h-93z" />
    <glyph glyph-name="uni044C" unicode="&#x44c;" horiz-adv-x="529" 
d="M76 0v496h92v-482l-61 63h206q46 0 71.5 22.5t25.5 62.5q0 39 -25.5 60.5t-71.5 21.5h-191v78h195q85 0 136.5 -44.5t51.5 -114.5q0 -48 -24 -84.5t-66.5 -57.5t-97.5 -21h-241z" />
    <glyph glyph-name="uni044D" unicode="&#x44d;" horiz-adv-x="554" 
d="M243 -16q-67 0 -121.5 26t-91.5 71l62 58q24 -36 61.5 -56.5t87.5 -20.5q80 0 126 50.5t46 135.5q0 87 -46 136.5t-124 49.5q-51 0 -88 -21t-61 -56l-61 58q37 45 90 71t121 26q79 0 138.5 -33t93 -92t33.5 -139q0 -78 -33.5 -138t-93.5 -93t-139 -33zM140 218v71h322
v-71h-322z" />
    <glyph glyph-name="uni044E" unicode="&#x44e;" horiz-adv-x="833" 
d="M529 -16q-76 0 -135 34t-92 93.5t-33 136.5t33 136t92 93.5t135 34.5q77 0 135 -34.5t91 -93.5t33 -136t-33 -136.5t-91 -93.5t-135 -34zM76 0v496h93v-496h-93zM122 222v77h208v-77h-208zM529 64q49 0 85.5 23t56.5 65t20 96t-20 95.5t-56.5 65t-85.5 23.5
q-50 0 -86.5 -23.5t-57 -65t-20.5 -95.5t20.5 -96t57 -65t86.5 -23z" />
    <glyph glyph-name="uni044F" unicode="&#x44f;" horiz-adv-x="561" 
d="M395 0v482l59 -61h-197q-39 0 -68 -18.5t-29 -60.5q0 -38 26 -59t72 -21h181v-72h-187q-84 0 -135 41.5t-51 110.5q0 44 24.5 78.5t67 55t95.5 20.5h231v-496h-89zM43 0l177 226h99l-168 -226h-108z" />
    <glyph glyph-name="uni0414.loclBGR" horiz-adv-x="796" 
d="M79 24l266 691h105l266 -691h-102l-218 581l-219 -581h-98zM30 -174v258h736v-258h-92v174h-552v-174h-92z" />
    <glyph glyph-name="uni041B.loclBGR" horiz-adv-x="739" 
d="M34 0l283 715h105l284 -715h-104l-234 604l-234 -604h-100z" />
    <glyph glyph-name="uni0424.loclBGR" horiz-adv-x="874" 
d="M437 53q-188 0 -286 77.5t-98 227.5t98 227t286 77q189 0 286 -77t97 -227t-97 -227.5t-286 -77.5zM437 137q145 0 215.5 54t70.5 167q0 112 -71 166t-215 54t-215 -54t-71 -166q0 -110 71.5 -165.5t214.5 -55.5zM389 -51v127l3 44v477l-3 39v130h96v-130l-4 -39v-477
l4 -44v-127h-96z" />
    <glyph glyph-name="uni0431.loclMKDSRB" horiz-adv-x="604" 
d="M305 -16q-78 0 -136.5 29t-90.5 81t-32 123q0 65 28.5 117.5t82 88.5t126.5 51l41 -49q-53 -11 -94.5 -41t-64.5 -72t-23 -91q0 -71 44.5 -114t116.5 -43q48 0 84 21t56 58t20 85q0 59 -34.5 105.5t-98.5 74.5l-114 48q-53 24 -77 53t-24 69q0 54 39 85t115 38l229 18
l8 -79l-227 -20q-40 -4 -56 -13.5t-16 -30.5q0 -14 10 -23.5t30 -19.5l129 -56q183 -79 183 -246q0 -72 -32 -128t-89.5 -87.5t-132.5 -31.5z" />
    <glyph glyph-name="uni0432.loclBGR" horiz-adv-x="588" 
d="M301 -16q-74 0 -129 27t-85 76.5t-30 118.5v299q0 68 30 120t84.5 81.5t124.5 29.5q68 0 119 -25t80 -68.5t29 -99.5q0 -42 -17 -77.5t-47.5 -59t-70.5 -30.5v7q73 -10 117 -61t44 -124q0 -63 -31 -111.5t-87 -75.5t-131 -27zM302 64q71 0 112 38.5t41 99.5
q0 63 -46.5 98.5t-128.5 35.5h-156v75h158q67 0 108.5 34.5t41.5 90.5q0 55 -37.5 87.5t-99.5 32.5q-69 0 -108 -42.5t-39 -117.5v-270q0 -77 41.5 -119.5t112.5 -42.5z" />
    <glyph glyph-name="uni0433.loclBGR" horiz-adv-x="520" 
d="M261 -16q-66 0 -115 20.5t-77 58t-28 86.5q0 39 20 66.5t65.5 46.5t120.5 32q52 10 80.5 19t40 21.5t11.5 30.5q0 33 -30.5 52.5t-81.5 19.5q-48 0 -89.5 -19t-74.5 -57l-56 60q44 46 98.5 68.5t120.5 22.5q63 0 109 -19.5t71.5 -53.5t25.5 -81q0 -37 -19.5 -63.5
t-63.5 -45t-118 -32.5q-79 -15 -108 -31t-29 -46q0 -36 34 -58.5t90 -22.5q52 0 97.5 19.5t81.5 57.5l57 -60q-47 -46 -105.5 -69t-127.5 -23z" />
    <glyph glyph-name="uni0434.loclBGR" horiz-adv-x="649" 
d="M573 48q0 -76 -34.5 -134t-94.5 -91t-138 -33q-71 0 -129 24.5t-96 67.5l58 62q28 -35 68.5 -55t96.5 -20q53 0 92.5 22.5t61.5 62t22 92.5v191q0 64 -24 107t-62.5 65.5t-83.5 22.5q-49 0 -87.5 -24t-59.5 -64.5t-21 -91.5q0 -52 21.5 -92t60 -62.5t90.5 -22.5
q46 0 84 19t62.5 52.5t28.5 76.5l19 -19q7 -60 -19.5 -107t-76 -74.5t-114.5 -27.5q-72 0 -129.5 32.5t-90.5 91t-33 133.5q0 76 33.5 134.5t90 92t126.5 33.5q51 0 94.5 -19t73.5 -56.5t39 -92.5h-21v152h92v-448z" />
    <glyph glyph-name="uni0436.loclBGR" horiz-adv-x="791" 
d="M658 0l-243 257h10l227 239h114l-231 -243l243 -253h-120zM13 0l243 253l-230 243h114l226 -239h10l-242 -257h-121zM349 0v720h92v-720h-92z" />
    <glyph glyph-name="uni0437.loclBGR" horiz-adv-x="521" 
d="M236 -199q-69 0 -127 25t-97 70l55 57q31 -35 73.5 -53.5t94.5 -18.5q43 0 75.5 13.5t51.5 43t19 73.5q0 61 -36 88.5t-94 27.5h-100v77h100q52 0 84.5 31.5t32.5 85.5q0 38 -17.5 62.5t-47 36.5t-66.5 12q-91 0 -158 -72l-56 59q42 46 96 69.5t119 23.5t115 -24
t78.5 -65t28.5 -96q0 -56 -28 -98.5t-77 -58.5q54 -17 86 -62.5t32 -107.5q0 -60 -30 -105t-83 -69.5t-124 -24.5z" />
    <glyph glyph-name="uni0438.loclBGR" horiz-adv-x="598" 
d="M521 0h-92v96l-1 28v372h93v-496zM437 212l19 -20q4 -61 -21.5 -107.5t-72 -73.5t-107.5 -27q-89 0 -142 53t-53 153v306h93v-296q0 -67 32.5 -101.5t90.5 -34.5q41 0 76 18.5t58 52t27 77.5z" />
    <glyph glyph-name="uni043A.loclBGR" horiz-adv-x="566" 
d="M159 0h-93v720h93v-720zM553 0h-129l-292 257h10l262 239h120l-278 -248v18z" />
    <glyph glyph-name="uni043B.loclBGR" horiz-adv-x="575" 
d="M19 0l223 496h91l223 -496h-100l-171 399l-171 -399h-95z" />
    <glyph glyph-name="uni043F.loclBGR" horiz-adv-x="600" 
d="M540 0h-93v286q0 73 -33 109.5t-89 36.5q-40 0 -76 -21t-58 -66t-22 -116v-229h-93v496h92v-152h-14q11 63 40 99.5t69 52.5t83 16q90 0 142 -55.5t52 -160.5v-296z" />
    <glyph glyph-name="uni0442.loclBGR" horiz-adv-x="930" 
d="M870 0h-93v287q0 72 -30 108.5t-82 36.5q-37 0 -70.5 -21t-54 -65.5t-20.5 -115.5v-230h-93v287q0 72 -30.5 108.5t-81.5 36.5q-38 0 -71.5 -21t-54 -65.5t-20.5 -115.5v-230h-93v496h92v-121l-8 1q14 51 41.5 80t63 42.5t72.5 13.5q67 0 110.5 -37t56.5 -109h-12
q14 53 43.5 85t68 46.5t78.5 14.5q89 0 138.5 -55.5t49.5 -160.5v-296z" />
    <glyph glyph-name="uni0446.loclBGR" horiz-adv-x="619" 
d="M255 -16q-89 0 -142 53t-53 153v306h93v-296q0 -67 32.5 -101.5t90.5 -34.5q41 0 76 18.5t58 52t27 77.5l19 -20q4 -61 -21.5 -107.5t-72 -73.5t-107.5 -27zM503 -131v167l33 -36q-47 0 -75.5 28.5t-31.5 78.5l-1 21v368h93v-360q0 -30 14 -44.5t45 -14.5h11v-208h-88z
" />
    <glyph glyph-name="uni0447.loclBGR" horiz-adv-x="568" 
d="M230 162q-85 0 -135 53t-50 153v128h93v-118q0 -68 30.5 -102t83.5 -34q60 0 102.5 41t48.5 107l19 -20q4 -61 -19.5 -107.5t-68 -73.5t-104.5 -27zM399 0v496h93v-496h-93z" />
    <glyph glyph-name="uni0448.loclBGR" horiz-adv-x="930" 
d="M253 -16q-91 0 -142 54t-51 152v306h93v-296q0 -67 29.5 -101.5t86.5 -34.5q40 0 72 19t53 52.5t25 76.5l34 -20q-6 -97 -59.5 -152.5t-140.5 -55.5zM596 -16q-88 0 -137 54.5t-49 151.5v306h93v-296q0 -66 30 -101t85 -35q40 0 73 19t54 52.5t25 76.5l17 -20
q4 -60 -19.5 -107.5t-68 -74t-103.5 -26.5zM762 0v96l-1 28v372h93v-496h-92z" />
    <glyph glyph-name="uni0449.loclBGR" horiz-adv-x="952" 
d="M253 -16q-91 0 -142 54t-51 152v306h93v-296q0 -67 29.5 -101.5t86.5 -34.5q40 0 72 19t53 52.5t25 76.5l34 -20q-6 -97 -59.5 -152.5t-140.5 -55.5zM596 -16q-88 0 -137 54.5t-49 151.5v306h93v-296q0 -66 30 -101t85 -35q40 0 73 19t54 52.5t25 76.5l17 -20
q4 -60 -19.5 -107.5t-68 -74t-103.5 -26.5zM836 -131v167l33 -36q-47 0 -75.5 28.5t-31.5 78.5l-1 21v368h93v-360q0 -30 13.5 -44.5t45.5 -14.5h11v-208h-88z" />
    <glyph glyph-name="uni044A.loclBGR" horiz-adv-x="589" 
d="M347 -16q-101 0 -160 53.5t-59 146.5v247l12 -12h-111v77h191v-226l-6 4q18 34 59 55.5t89 21.5q60 0 104.5 -23t70 -63.5t25.5 -93.5q0 -55 -28 -96.5t-76.5 -66t-110.5 -24.5zM347 63q54 0 86.5 28.5t32.5 76.5q0 46 -33 75t-86 29q-55 0 -90 -29t-35 -75
q0 -48 34.5 -76.5t90.5 -28.5z" />
    <glyph glyph-name="uni044C.loclBGR" horiz-adv-x="520" 
d="M278 -16q-101 0 -159.5 53.5t-58.5 146.5v312h91v-253l-15 11q9 28 32 49.5t56.5 34.5t69.5 13q59 0 103.5 -23t70 -63.5t25.5 -93.5q0 -55 -28 -96.5t-76 -66t-111 -24.5zM279 63q53 0 85.5 28.5t32.5 76.5q0 46 -33 75t-85 29q-56 0 -90.5 -29t-34.5 -75
q0 -48 34 -76.5t91 -28.5z" />
    <glyph glyph-name="uni044E.loclBGR" horiz-adv-x="833" 
d="M529 -16q-76 0 -135 34t-92 93.5t-33 136.5t33 136t92 93.5t135 34.5q77 0 135 -34.5t91 -93.5t33 -136t-33 -136.5t-91 -93.5t-135 -34zM76 0v720h93v-720h-93zM122 222v77h208v-77h-208zM529 64q49 0 85.5 23t56.5 65t20 96t-20 95.5t-56.5 65t-85.5 23.5
q-50 0 -86.5 -23.5t-57 -65t-20.5 -95.5t20.5 -96t57 -65t86.5 -23z" />
    <glyph glyph-name="uni0404" unicode="&#x404;" horiz-adv-x="743" 
d="M418 -16q-79 0 -145.5 28t-115.5 78.5t-76.5 118.5t-27.5 148t27.5 148.5t77.5 119t117 78.5t146 28q88 0 162 -36t122 -99l-67 -65q-38 55 -93.5 84.5t-123.5 29.5q-76 0 -137 -37.5t-95.5 -102.5t-34.5 -148q0 -82 34.5 -147t95.5 -102.5t137 -37.5q68 0 123.5 29.5
t93.5 84.5l67 -65q-48 -63 -123.5 -99t-163.5 -36zM112 328v84h447v-84h-447z" />
    <glyph glyph-name="uni0406" unicode="&#x406;" horiz-adv-x="280" 
d="M188 0h-96v715h96v-715z" />
    <glyph glyph-name="uni0408" unicode="&#x408;" horiz-adv-x="655" 
d="M583 715v-441q0 -139 -71 -214.5t-203 -75.5q-78 0 -136 29t-92 83.5t-42 131.5l95 11q9 -83 53.5 -126t121.5 -43q87 0 132.5 52.5t45.5 151.5v441h96z" />
    <glyph glyph-name="uni0405" unicode="&#x405;" horiz-adv-x="685" 
d="M36 116l68 66q29 -35 67 -60t82 -39t93 -14q55 0 97 16.5t66 45.5t24 68q0 51 -44.5 80.5t-152.5 45.5q-98 15 -157 40t-86 63.5t-27 91.5q0 62 35 110t96.5 74.5t140.5 26.5q91 0 161.5 -35.5t123.5 -96.5l-67 -65q-41 51 -93 81.5t-125 30.5q-76 0 -124.5 -33.5
t-48.5 -89.5q0 -29 18 -49.5t59 -34.5t110 -25q100 -14 161.5 -41.5t90 -69.5t28.5 -101q0 -65 -36.5 -114t-101 -76.5t-148.5 -27.5q-99 0 -176 35.5t-134 96.5z" />
    <glyph glyph-name="uni0409" unicode="&#x409;" horiz-adv-x="1108" 
d="M22 0v84h51q27 0 40.5 12.5t17.5 40.5l71 578h435v-656l-25 25h212q68 0 106.5 34.5t38.5 93.5q0 60 -38.5 94t-106.5 34h-234v84h234q74 0 128.5 -26t84.5 -73.5t30 -112.5q0 -63 -30.5 -110.5t-85 -74.5t-127.5 -27h-283v656l25 -25h-305l28 25l-67 -531
q-5 -43 -21.5 -70.5t-45 -41t-70.5 -13.5h-63z" />
    <glyph glyph-name="uni040A" unicode="&#x40a;" horiz-adv-x="1135" 
d="M557 0v715h96v-657l-25 25h223q68 0 106 33t38 91t-38 91t-106 33h-245v83h244q74 0 128.5 -25.5t84.5 -72t30 -109.5q0 -62 -30 -108.5t-85 -72.5t-128 -26h-293zM92 0v715h96v-715h-96zM164 330v84h427v-84h-427z" />
    <glyph glyph-name="uni040B" unicode="&#x40b;" horiz-adv-x="746" 
d="M596 0v216q0 69 -43.5 105.5t-124.5 36.5q-52 0 -102.5 -13t-89.5 -37l-29 68q48 33 107.5 50t130.5 17q119 0 183 -55.5t64 -160.5v-227h-96zM155 0v668h96v-668h-96zM13 631v84h503v-84h-503z" />
    <glyph glyph-name="uni0402" unicode="&#x402;" horiz-adv-x="739" 
d="M367 0v84h45q93 0 138.5 33.5t45.5 101.5q0 66 -43.5 102.5t-124.5 36.5q-53 0 -103.5 -13.5t-88.5 -37.5l-29 68q96 68 232 68q120 0 186.5 -58t66.5 -163q0 -109 -68 -165.5t-200 -56.5h-57zM155 0v668h96v-668h-96zM13 631v84h503v-84h-503z" />
    <glyph glyph-name="uni040F" unicode="&#x40f;" horiz-adv-x="763" 
d="M92 0v715h96v-631h387v631h96v-715h-579zM335 -174v224h92v-224h-92z" />
    <glyph glyph-name="uni0490" unicode="&#x490;" horiz-adv-x="566" 
d="M92 0v715h415l-54 -54v218h92v-248h-409l52 62v-693h-96z" />
    <glyph glyph-name="uni0462" unicode="&#x462;" horiz-adv-x="710" 
d="M133 0v715h96v-644l-12 13h209q68 0 106.5 34t38.5 93t-38.5 92.5t-106.5 33.5h-244v84h244q74 0 128.5 -26t84.5 -73t30 -111q0 -63 -30.5 -110.5t-85 -74t-127.5 -26.5h-293zM13 549v84h493v-84h-493z" />
    <glyph glyph-name="uni0472" unicode="&#x472;" horiz-adv-x="856" 
d="M428 -16q-81 0 -149 28t-119 78.5t-79 119t-28 148.5t28 148t79 118.5t119 78.5t149 28t149 -28t119 -78.5t79 -118.5t28 -148t-28 -148.5t-79 -119t-119 -78.5t-149 -28zM428 69q82 0 144.5 37t97.5 102.5t35 149.5t-35 149t-97.5 102t-144.5 37q-81 0 -144 -37
t-98 -102t-35 -149t35 -149.5t98 -102.5t144 -37zM107 328v84h642v-84h-642z" />
    <glyph glyph-name="uni0474" unicode="&#x474;" horiz-adv-x="762" 
d="M313 0l-279 715h104l244 -652h-34l203 558q13 36 29 56.5t38.5 29t53.5 8.5h74v-84h-55q-23 0 -34.5 -9.5t-22.5 -35.5l-220 -586h-101z" />
    <glyph glyph-name="uni0454" unicode="&#x454;" horiz-adv-x="559" 
d="M310 -16q-79 0 -139 33t-93 93t-33 138q0 80 33.5 139t93.5 92t137 33q69 0 122.5 -26t89.5 -71l-62 -58q-24 35 -61 56t-87 21q-78 0 -124 -49.5t-46 -136.5q0 -85 46 -135.5t125 -50.5q51 0 88.5 21t61.5 56l61 -58q-36 -45 -90.5 -71t-122.5 -26zM91 218v71h323v-71
h-323z" />
    <glyph glyph-name="uni0456" unicode="&#x456;" horiz-adv-x="246" 
d="M169 0h-93v496h93v-496zM123 613q-26 0 -44.5 17.5t-18.5 43.5t18.5 44t44.5 18t44 -18t18 -44t-18 -43.5t-44 -17.5z" />
    <glyph glyph-name="uni0458" unicode="&#x458;" horiz-adv-x="225" 
d="M-27 -194v78h34q32 0 45.5 14.5t13.5 45.5v552h93v-564q0 -126 -126 -126h-60zM113 613q-26 0 -44.5 17.5t-18.5 43.5t18.5 44t44.5 18t44 -18t18 -44t-18 -43.5t-44 -17.5z" />
    <glyph glyph-name="uni0455" unicode="&#x455;" horiz-adv-x="523" 
d="M26 76l59 60q35 -36 80 -56.5t98 -20.5q56 0 91 22.5t35 57.5q0 32 -30 49.5t-104 27.5q-111 16 -158.5 49.5t-47.5 91.5q0 46 27 81t74 54.5t108 19.5q68 0 122 -24t94 -67l-58 -60q-30 35 -69.5 55.5t-88.5 20.5q-51 0 -83.5 -21t-32.5 -54q0 -26 28.5 -40.5
t98.5 -24.5q113 -16 162.5 -52t49.5 -101q0 -47 -28 -83.5t-77.5 -56.5t-114.5 -20q-73 0 -131.5 24.5t-103.5 67.5z" />
    <glyph glyph-name="uni0459" unicode="&#x459;" horiz-adv-x="848" 
d="M19 0v78h38q28 0 41.5 14t16.5 49l31 355h355v-432l-12 12h143q46 0 71.5 22.5t25.5 62.5q0 39 -25.5 61t-71.5 22h-156v76h160q85 0 137 -44t52 -114q0 -47 -24.5 -83.5t-67 -57.5t-97.5 -21h-228v430l12 -12h-202l13 12l-29 -305q-6 -70 -37 -97.5t-93 -27.5h-53z" />
    <glyph glyph-name="uni045A" unicode="&#x45a;" horiz-adv-x="865" 
d="M425 0v496h93v-432l-12 12h143q46 0 71.5 22t25.5 58q0 38 -25.5 59t-71.5 21h-150v77h154q85 0 136.5 -43.5t51.5 -113.5q0 -44 -24 -79t-66.5 -56t-97.5 -21h-228zM76 0v496h93v-496h-93zM146 233v77h302v-77h-302z" />
    </font>
</defs>
</svg>
