<?xml version="1.0" standalone="no"?>
<!DOCTYPE svg PUBLIC "-//W3C//DTD SVG 1.1//EN" "http://www.w3.org/Graphics/SVG/1.1/DTD/svg11.dtd" >
<svg xmlns="http://www.w3.org/2000/svg" xmlns:xlink="http://www.w3.org/1999/xlink" version="1.1">
<metadata>
Created by FontForge 20170812 at Thu Feb  2 15:04:02 2023
 By www-data
Copyright 2021 The Wix Madefor Project Authors (https://github.com/wix/wixmadefor/)
</metadata>
<defs>
<font id="WixMadeforDisplay-SemiBold" horiz-adv-x="0" >
  <font-face 
    font-family="Wix Madefor Display SemiBold"
    font-weight="600"
    font-stretch="normal"
    units-per-em="1000"
    panose-1="2 11 5 3 2 2 3 2 2 3"
    ascent="800"
    descent="-200"
    x-height="499"
    cap-height="715"
    bbox="-226 -284 1183 1135"
    underline-thickness="64"
    underline-position="-98"
    unicode-range="U+000D-FEFF"
  />
<missing-glyph horiz-adv-x="500" 
d="M50 0v750h400v-750h-400zM100 50h300v650h-300v-650z" />
    <glyph glyph-name=".notdef" horiz-adv-x="500" 
d="M50 0v750h400v-750h-400zM100 50h300v650h-300v-650z" />
    <glyph glyph-name="uni0000" 
 />
    <glyph glyph-name="uni0000" 
 />
    <glyph glyph-name="uni000D" unicode="&#xd;" horiz-adv-x="195" 
 />
    <glyph glyph-name="space" unicode=" " horiz-adv-x="195" 
 />
    <glyph glyph-name="period" unicode="." horiz-adv-x="248" 
d="M198 62q0 -30 -21.5 -51t-52.5 -21q-30 0 -51.5 21t-21.5 51t21.5 51t51.5 21q31 0 52.5 -21t21.5 -51z" />
    <glyph glyph-name="colon" unicode=":" horiz-adv-x="248" 
d="M198 62q0 -30 -21.5 -51t-52.5 -21q-30 0 -51.5 21t-21.5 51t21.5 51t51.5 21q31 0 52.5 -21t21.5 -51zM198 427q0 -30 -21.5 -51t-52.5 -21q-30 0 -51.5 21t-21.5 51t21.5 51t51.5 21q31 0 52.5 -21t21.5 -51z" />
    <glyph glyph-name="comma" unicode="," horiz-adv-x="248" 
d="M118 -128h-70q28 35 45 75t14 68l17 -23q-31 0 -52 20.5t-21 50.5t20.5 50.5t49.5 20.5q34 0 55.5 -23t21.5 -61q0 -27 -11.5 -59.5t-29.5 -63t-39 -55.5z" />
    <glyph glyph-name="semicolon" unicode=";" horiz-adv-x="248" 
d="M118 -128h-70q28 35 45 75t14 68l17 -23q-31 0 -52 20.5t-21 50.5t20.5 50.5t49.5 20.5q34 0 55.5 -23t21.5 -61q0 -27 -11.5 -59.5t-29.5 -63t-39 -55.5zM198 427q0 -30 -21.5 -51t-52.5 -21q-30 0 -51.5 21t-21.5 51t21.5 51t51.5 21q31 0 52.5 -21t21.5 -51z" />
    <glyph glyph-name="question" unicode="?" horiz-adv-x="571" 
d="M308 217h-88q-4 44 6.5 79t38 65.5t74.5 62.5q34 24 50 48.5t16 54.5q0 48 -34 78t-89 30q-49 0 -93.5 -26.5t-81.5 -82.5l-75 73q49 64 114 98t139 34q67 0 119.5 -27t83 -72.5t30.5 -103.5q0 -55 -31 -99t-95 -82q-48 -29 -66 -58t-18 -72zM338 62q0 -30 -21.5 -51
t-52.5 -21q-30 0 -51.5 21t-21.5 51t21.5 51t51.5 21q31 0 52.5 -21t21.5 -51z" />
    <glyph glyph-name="exclam" unicode="!" horiz-adv-x="248" 
d="M197 62q0 -30 -21.5 -51t-51.5 -21q-31 0 -52.5 21t-21.5 51t21.5 51t52.5 21q30 0 51.5 -21t21.5 -51zM153 217h-58q-2 16 -5 53.5t-7 86.5t-8 101t-7.5 98t-6 76.5t-2.5 36.5q0 27 19 44.5t46 17.5t45.5 -17.5t18.5 -44.5q0 -6 -2 -36.5t-5.5 -76.5t-7.5 -98t-8 -101
t-7 -86.5t-5 -53.5z" />
    <glyph glyph-name="questiondown" unicode="&#xbf;" horiz-adv-x="571" 
d="M263 272h88q4 -43 -6.5 -78.5t-37.5 -66t-75 -61.5q-34 -24 -50 -49t-16 -55q0 -47 34 -77.5t89 -30.5q49 0 93.5 27t81.5 82l75 -73q-49 -64 -114 -98t-139 -34q-66 0 -119 27t-83.5 73t-30.5 103q0 55 31.5 99t94.5 83q48 28 66 57.5t18 71.5zM233 427q0 30 21.5 51
t52.5 21q30 0 51.5 -21t21.5 -51t-21.5 -51t-51.5 -21q-31 0 -52.5 21t-21.5 51z" />
    <glyph glyph-name="exclamdown" unicode="&#xa1;" horiz-adv-x="248" 
d="M50 427q0 30 21.5 51t52.5 21q30 0 51.5 -21t21.5 -51t-21.5 -51t-51.5 -21q-31 0 -52.5 21t-21.5 51zM95 272h58q2 -15 5 -53t7 -87t8 -100.5t7.5 -97.5t5.5 -77t2 -37q0 -27 -18.5 -44.5t-45.5 -17.5t-46 17.5t-19 44.5q0 6 2.5 37t6 77t7.5 97.5t8 100.5t7 87t5 53z
" />
    <glyph glyph-name="quotesingle" unicode="'" horiz-adv-x="248" 
d="M146 485h-43q-10 42 -18 82t-12.5 71.5t-4.5 45.5q0 27 16.5 43t39.5 16t39.5 -16t16.5 -43q0 -14 -4.5 -45.5t-12.5 -71.5t-17 -82z" />
    <glyph glyph-name="quotedbl" unicode="&#x22;" horiz-adv-x="402" 
d="M146 485h-43q-10 42 -18 82t-12.5 71.5t-4.5 45.5q0 27 16.5 43t39.5 16t39.5 -16t16.5 -43q0 -14 -4.5 -45.5t-12.5 -71.5t-17 -82zM300 485h-43q-10 42 -18 82t-12.5 71.5t-4.5 45.5q0 27 16.5 43t39.5 16t39.5 -16t16.5 -43q0 -14 -4.5 -45.5t-12.5 -71.5t-17 -82z
" />
    <glyph glyph-name="ellipsis" unicode="&#x2026;" horiz-adv-x="1000" 
d="M240 62q0 -30 -21.5 -51t-52.5 -21q-30 0 -51.5 21t-21.5 51t21.5 51t51.5 21q31 0 52.5 -21t21.5 -51zM574 62q0 -30 -21.5 -51t-52.5 -21q-30 0 -51.5 21t-21.5 51t21.5 51t51.5 21q31 0 52.5 -21t21.5 -51zM907 62q0 -30 -21.5 -51t-52.5 -21q-30 0 -51.5 21t-21.5 51
t21.5 51t51.5 21q31 0 52.5 -21t21.5 -51z" />
    <glyph glyph-name="uni00A0" unicode="&#xa0;" horiz-adv-x="195" 
 />
    <glyph glyph-name="uni2000" unicode="&#x2000;" horiz-adv-x="500" 
 />
    <glyph glyph-name="uni2001" unicode="&#x2001;" horiz-adv-x="1000" 
 />
    <glyph glyph-name="uni2002" unicode="&#x2002;" horiz-adv-x="500" 
 />
    <glyph glyph-name="uni2003" unicode="&#x2003;" horiz-adv-x="1000" 
 />
    <glyph glyph-name="uni2004" unicode="&#x2004;" horiz-adv-x="333" 
 />
    <glyph glyph-name="uni2005" unicode="&#x2005;" horiz-adv-x="250" 
 />
    <glyph glyph-name="uni2006" unicode="&#x2006;" horiz-adv-x="167" 
 />
    <glyph glyph-name="uni2007" unicode="&#x2007;" horiz-adv-x="660" 
 />
    <glyph glyph-name="uni2008" unicode="&#x2008;" horiz-adv-x="248" 
 />
    <glyph glyph-name="uni2009" unicode="&#x2009;" horiz-adv-x="200" 
 />
    <glyph glyph-name="uni200A" unicode="&#x200a;" horiz-adv-x="125" 
 />
    <glyph glyph-name="uni200B" unicode="&#x200b;" 
 />
    <glyph glyph-name="uniFEFF" unicode="&#xfeff;" 
 />
    <glyph glyph-name="zero" unicode="0" horiz-adv-x="652" 
d="M326 -16q-86 0 -148.5 44t-95.5 127.5t-33 201.5q0 178 73.5 276t203.5 98q129 0 202.5 -98t73.5 -276q0 -118 -33 -201.5t-94.5 -127.5t-148.5 -44zM326 78q76 0 118 71.5t42 207.5q0 137 -42 208.5t-118 71.5t-118 -71.5t-42 -208.5q0 -136 42 -207.5t118 -71.5z" />
    <glyph glyph-name="one" unicode="1" horiz-adv-x="476" 
d="M271 715h100v-715h-114v594l-181 -130v117z" />
    <glyph glyph-name="two" unicode="2" horiz-adv-x="598" 
d="M537 0h-489v93l262 239q55 51 83 93.5t28 87.5q0 34 -16 62t-45 44t-67 16q-53 0 -98.5 -29.5t-81.5 -85.5l-75 73q50 68 115 103t145 35q71 0 124 -28.5t82 -78t29 -111.5q0 -46 -19 -88.5t-57 -86.5t-97 -96q-25 -23 -54.5 -49t-58 -51.5t-55.5 -48.5h345v-93z" />
    <glyph glyph-name="three" unicode="3" horiz-adv-x="614" 
d="M32 108l75 73q36 -48 84 -74.5t107 -26.5q69 0 111 34.5t42 90.5q0 37 -20 63.5t-55.5 41t-80.5 14.5h-67v94h67q39 0 70 13.5t48.5 37.5t17.5 56q0 50 -35.5 80t-93.5 30q-55 0 -98.5 -26.5t-76.5 -74.5l-75 73q48 59 112.5 91.5t140.5 32.5q72 0 126.5 -26.5t85.5 -71
t31 -100.5q0 -51 -30.5 -90t-84.5 -61.5t-126 -22.5l18 37q72 0 127 -25t85.5 -69t30.5 -101q0 -62 -34 -111t-93.5 -77.5t-139.5 -28.5q-81 0 -149.5 32.5t-119.5 91.5z" />
    <glyph glyph-name="four" unicode="4" horiz-adv-x="660" 
d="M518 0h-112v158h-366v91l366 466h112v-466h104v-91h-104v-158zM406 571l-255 -322h255v322z" />
    <glyph glyph-name="five" unicode="5" horiz-adv-x="606" 
d="M111 191q34 -51 80 -81t106 -30q46 0 80 21t54 57t20 81q0 44 -19 77t-52.5 52t-76.5 19q-47 0 -83.5 -21t-62.5 -59l-40 3q10 51 38 89t71.5 59.5t98.5 21.5q70 0 124.5 -31t85 -85.5t30.5 -124.5q0 -74 -34.5 -132t-94.5 -90.5t-136 -32.5q-82 0 -148.5 34t-115.5 101z
M522 622h-371l49 50l-43 -365h-100l49 408h416v-93z" />
    <glyph glyph-name="six" unicode="6" horiz-adv-x="631" 
d="M316 -16q-80 0 -141 35t-95 96t-34 140q0 81 34.5 158.5t99.5 152.5t157 149h152q-94 -73 -156.5 -133t-99.5 -112t-55 -102l-16 7q27 45 73.5 73t105.5 28q70 0 126 -31t89 -84.5t33 -123.5q0 -73 -35.5 -130t-97 -90t-140.5 -33zM317 79q46 0 82 20.5t56.5 55.5
t20.5 79t-20.5 78t-56.5 54t-82 20t-81.5 -20t-56 -54t-20.5 -78t20.5 -79t56 -55.5t81.5 -20.5z" />
    <glyph glyph-name="seven" unicode="7" horiz-adv-x="600" 
d="M551 715v-94l-345 -621h-125l351 621h-383v94h502z" />
    <glyph glyph-name="eight" unicode="8" horiz-adv-x="637" 
d="M318 -16q-79 0 -141 27.5t-97 76t-35 109.5q0 60 36 106.5t97.5 73t139.5 26.5q80 0 141.5 -26.5t96.5 -73t35 -106.5q0 -61 -35 -109.5t-96 -76t-142 -27.5zM318 355q-70 0 -125.5 23t-87.5 64t-32 93q0 56 31.5 100.5t86.5 70t127 25.5q73 0 128 -25.5t86.5 -70
t31.5 -100.5q0 -52 -32 -93t-87 -64t-127 -23zM318 78q45 0 80.5 16t56 44t20.5 63q0 36 -20.5 63.5t-56 43.5t-80.5 16q-44 0 -79.5 -16t-56 -43.5t-20.5 -63.5q0 -35 20.5 -63t56 -44t79.5 -16zM318 417q38 0 67.5 14.5t47 39.5t17.5 56q0 32 -17.5 57t-47 39.5
t-67.5 14.5q-36 0 -66.5 -14.5t-47.5 -39.5t-17 -57q0 -31 17 -56t47.5 -39.5t66.5 -14.5z" />
    <glyph glyph-name="nine" unicode="9" horiz-adv-x="631" 
d="M315 731q80 0 141 -35t95 -95.5t34 -140.5q0 -81 -34.5 -158.5t-99.5 -152t-157 -149.5h-152q95 73 157 133t99 112t55 102l16 -7q-26 -45 -73 -73t-106 -28q-69 0 -125 31t-89 84.5t-33 123.5q0 73 35 130t96.5 90t140.5 33zM314 636q-46 0 -82 -20t-56.5 -55t-20.5 -80
q0 -43 20.5 -77.5t56.5 -54.5t82 -20q47 0 82.5 20t56 54.5t20.5 77.5q0 45 -20.5 80t-56 55t-82.5 20z" />
    <glyph glyph-name="zero.dnom" horiz-adv-x="431" 
d="M216 -9q-81 0 -125.5 56t-44.5 157t44.5 157t125.5 56q79 0 124 -56t45 -157t-45 -157t-124 -56zM216 63q38 0 59 35.5t21 105.5t-21 105.5t-59 35.5q-39 0 -60 -35.5t-21 -105.5t21 -105.5t60 -35.5z" />
    <glyph glyph-name="one.dnom" horiz-adv-x="366" 
d="M191 411h73v-411h-89v317l-103 -70v86z" />
    <glyph glyph-name="two.dnom" horiz-adv-x="408" 
d="M350 0h-308v64l153 133q31 27 46 48t15 43q0 24 -18 40.5t-46 16.5q-26 0 -52.5 -16.5t-48.5 -50.5l-57 55q31 41 72.5 62.5t89.5 21.5q44 0 77.5 -16.5t52.5 -45t19 -64.5q0 -41 -26 -77t-80 -83q-26 -23 -47 -40l-42 -34l-4 13h204v-70z" />
    <glyph glyph-name="three.dnom" horiz-adv-x="402" 
d="M28 67l52 54q24 -29 52 -44t60 -15q36 0 58 16.5t22 42.5q0 24 -22.5 40t-63.5 16h-36v69h36q34 0 54.5 14t20.5 36q0 21 -19 35.5t-49 14.5q-28 0 -54 -14.5t-47 -44.5l-52 54q28 35 70.5 55.5t91.5 20.5q43 0 76 -15.5t51.5 -41t18.5 -56.5q0 -45 -41.5 -73t-110.5 -28
l4 25q75 0 117 -31.5t42 -81.5q0 -34 -20 -62.5t-56 -45t-86 -16.5q-52 0 -96.5 20t-72.5 56z" />
    <glyph glyph-name="four.dnom" horiz-adv-x="435" 
d="M341 0h-87v85h-218v69l218 254h87v-254h60v-69h-60v-85zM254 309l-132 -155h132v155z" />
    <glyph glyph-name="five.dnom" horiz-adv-x="395" 
d="M32 66l53 56q24 -31 49.5 -45t59.5 -14t55.5 21.5t21.5 51.5q0 29 -21 48.5t-53 19.5q-24 0 -41.5 -7.5t-31.5 -21.5l-29 2q9 44 39.5 70.5t76.5 26.5q64 0 105.5 -38.5t41.5 -99.5q0 -42 -21.5 -75t-58 -51.5t-83.5 -18.5q-101 0 -163 75zM332 337h-216l34 47l-26 -209
h-78l30 233h256v-71z" />
    <glyph glyph-name="six.dnom" horiz-adv-x="413" 
d="M207 -9q-49 0 -86.5 20t-58.5 54.5t-21 79.5q0 47 21 91t61 87t97 85h116q-86 -63 -133 -109t-64 -89l-10 4q14 26 38 41.5t58 15.5q41 0 75 -17.5t54 -48t20 -70.5q0 -42 -22 -74.5t-59.5 -51t-85.5 -18.5zM208 63q35 0 57.5 20.5t22.5 49.5q0 30 -22.5 50t-57.5 20
q-36 0 -58.5 -20t-22.5 -50q0 -29 22.5 -49.5t58.5 -20.5z" />
    <glyph glyph-name="seven.dnom" horiz-adv-x="395" 
d="M351 408v-71l-208 -337h-94l212 337h-218v71h308z" />
    <glyph glyph-name="eight.dnom" horiz-adv-x="416" 
d="M208 -9q-74 0 -121 34.5t-47 87.5t47.5 85.5t120.5 32.5q74 0 121 -32.5t47 -85.5t-47 -87.5t-121 -34.5zM208 201q-66 0 -108.5 30t-42.5 76q0 47 42 78.5t109 31.5q66 0 108.5 -31.5t42.5 -78.5q0 -46 -42.5 -76t-108.5 -30zM208 62q34 0 56.5 15.5t22.5 42.5
q0 25 -22.5 42t-56.5 17q-33 0 -56 -17t-23 -43q0 -25 23 -41t56 -16zM208 244q28 0 46 15t18 38q0 22 -18 36t-46 14q-27 0 -45.5 -14.5t-18.5 -36.5t18.5 -37t45.5 -15z" />
    <glyph glyph-name="nine.dnom" horiz-adv-x="413" 
d="M206 417q50 0 87 -20t58 -54.5t21 -79.5q0 -46 -21 -90.5t-60.5 -87t-96.5 -85.5h-117q87 63 134.5 109.5t62.5 88.5l10 -4q-13 -26 -37 -41.5t-59 -15.5q-41 0 -75 17.5t-54 48t-20 70.5q0 42 22 74.5t60 51t85 18.5zM206 345q-35 0 -58 -20t-23 -50t23 -50t58 -20
t57.5 20t22.5 50t-22.5 50t-57.5 20z" />
    <glyph glyph-name="zero.numr" horiz-adv-x="431" 
d="M216 295q-81 0 -125.5 56t-44.5 157t44.5 157t125.5 56q79 0 124 -56t45 -157t-45 -157t-124 -56zM216 367q38 0 59 35.5t21 105.5t-21 105.5t-59 35.5q-39 0 -60 -35.5t-21 -105.5t21 -105.5t60 -35.5z" />
    <glyph glyph-name="one.numr" horiz-adv-x="366" 
d="M191 715h73v-411h-89v317l-103 -70v86z" />
    <glyph glyph-name="two.numr" horiz-adv-x="408" 
d="M350 304h-308v64l153 133q31 27 46 48t15 43q0 24 -18 40.5t-46 16.5q-26 0 -52.5 -16.5t-48.5 -50.5l-57 55q31 41 72.5 62.5t89.5 21.5q44 0 77.5 -16.5t52.5 -45t19 -64.5q0 -41 -26 -77t-80 -83q-26 -23 -47 -40l-42 -34l-4 13h204v-70z" />
    <glyph glyph-name="three.numr" horiz-adv-x="402" 
d="M28 371l52 54q24 -29 52 -44t60 -15q36 0 58 16.5t22 42.5q0 24 -22.5 40t-63.5 16h-36v69h36q34 0 54.5 14t20.5 36q0 21 -19 35.5t-49 14.5q-28 0 -54 -14.5t-47 -44.5l-52 54q28 35 70.5 55.5t91.5 20.5q43 0 76 -15.5t51.5 -41t18.5 -56.5q0 -45 -41.5 -73
t-110.5 -28l4 25q75 0 117 -31.5t42 -81.5q0 -34 -20 -62.5t-56 -45t-86 -16.5q-52 0 -96.5 20t-72.5 56z" />
    <glyph glyph-name="four.numr" horiz-adv-x="435" 
d="M341 304h-87v85h-218v69l218 254h87v-254h60v-69h-60v-85zM254 613l-132 -155h132v155z" />
    <glyph glyph-name="five.numr" horiz-adv-x="395" 
d="M32 370l53 56q24 -31 49.5 -45t59.5 -14t55.5 21.5t21.5 51.5q0 29 -21 48.5t-53 19.5q-24 0 -41.5 -7.5t-31.5 -21.5l-29 2q9 44 39.5 70.5t76.5 26.5q64 0 105.5 -38.5t41.5 -99.5q0 -42 -21.5 -75t-58 -51.5t-83.5 -18.5q-101 0 -163 75zM332 641h-216l34 47l-26 -209
h-78l30 233h256v-71z" />
    <glyph glyph-name="six.numr" horiz-adv-x="413" 
d="M207 295q-49 0 -86.5 20t-58.5 54.5t-21 79.5q0 47 21 91t61 87t97 85h116q-86 -63 -133 -109t-64 -89l-10 4q14 26 38 41.5t58 15.5q41 0 75 -17.5t54 -48t20 -70.5q0 -42 -22 -74.5t-59.5 -51t-85.5 -18.5zM208 367q35 0 57.5 20.5t22.5 49.5q0 30 -22.5 50t-57.5 20
q-36 0 -58.5 -20t-22.5 -50q0 -29 22.5 -49.5t58.5 -20.5z" />
    <glyph glyph-name="seven.numr" horiz-adv-x="395" 
d="M351 712v-71l-208 -337h-94l212 337h-218v71h308z" />
    <glyph glyph-name="eight.numr" horiz-adv-x="416" 
d="M208 295q-74 0 -121 34.5t-47 87.5t47.5 85.5t120.5 32.5q74 0 121 -32.5t47 -85.5t-47 -87.5t-121 -34.5zM208 505q-66 0 -108.5 30t-42.5 76q0 47 42 78.5t109 31.5q66 0 108.5 -31.5t42.5 -78.5q0 -46 -42.5 -76t-108.5 -30zM208 366q34 0 56.5 15.5t22.5 42.5
q0 25 -22.5 42t-56.5 17q-33 0 -56 -17t-23 -43q0 -25 23 -41t56 -16zM208 548q28 0 46 15t18 38q0 22 -18 36t-46 14q-27 0 -45.5 -14.5t-18.5 -36.5t18.5 -37t45.5 -15z" />
    <glyph glyph-name="nine.numr" horiz-adv-x="413" 
d="M206 721q50 0 87 -20t58 -54.5t21 -79.5q0 -46 -21 -90.5t-60.5 -87t-96.5 -85.5h-117q87 63 134.5 109.5t62.5 88.5l10 -4q-13 -26 -37 -41.5t-59 -15.5q-41 0 -75 17.5t-54 48t-20 70.5q0 42 22 74.5t60 51t85 18.5zM206 649q-35 0 -58 -20t-23 -50t23 -50t58 -20
t57.5 20t22.5 50t-22.5 50t-57.5 20z" />
    <glyph glyph-name="uni2080" unicode="&#x2080;" horiz-adv-x="431" 
d="M216 -109q-81 0 -125.5 56t-44.5 157t44.5 157t125.5 56q79 0 124 -56t45 -157t-45 -157t-124 -56zM216 -37q38 0 59 35.5t21 105.5t-21 105.5t-59 35.5q-39 0 -60 -35.5t-21 -105.5t21 -105.5t60 -35.5z" />
    <glyph glyph-name="uni2081" unicode="&#x2081;" horiz-adv-x="366" 
d="M191 311h73v-411h-89v317l-103 -70v86z" />
    <glyph glyph-name="uni2082" unicode="&#x2082;" horiz-adv-x="408" 
d="M350 -100h-308v64l153 133q31 27 46 48t15 43q0 24 -18 40.5t-46 16.5q-26 0 -52.5 -16.5t-48.5 -50.5l-57 55q31 41 72.5 62.5t89.5 21.5q44 0 77.5 -16.5t52.5 -45t19 -64.5q0 -41 -26 -77t-80 -83q-26 -23 -47 -40l-42 -34l-4 13h204v-70z" />
    <glyph glyph-name="uni2083" unicode="&#x2083;" horiz-adv-x="402" 
d="M28 -33l52 54q24 -29 52 -44t60 -15q36 0 58 16.5t22 42.5q0 24 -22.5 40t-63.5 16h-36v69h36q34 0 54.5 14t20.5 36q0 21 -19 35.5t-49 14.5q-28 0 -54 -14.5t-47 -44.5l-52 54q28 35 70.5 55.5t91.5 20.5q43 0 76 -15.5t51.5 -41t18.5 -56.5q0 -45 -41.5 -73
t-110.5 -28l4 25q75 0 117 -31.5t42 -81.5q0 -34 -20 -62.5t-56 -45t-86 -16.5q-52 0 -96.5 20t-72.5 56z" />
    <glyph glyph-name="uni2084" unicode="&#x2084;" horiz-adv-x="435" 
d="M341 -100h-87v85h-218v69l218 254h87v-254h60v-69h-60v-85zM254 209l-132 -155h132v155z" />
    <glyph glyph-name="uni2085" unicode="&#x2085;" horiz-adv-x="395" 
d="M32 -34l53 56q24 -31 49.5 -45t59.5 -14t55.5 21.5t21.5 51.5q0 29 -21 48.5t-53 19.5q-24 0 -41.5 -7.5t-31.5 -21.5l-29 2q9 44 39.5 70.5t76.5 26.5q64 0 105.5 -38.5t41.5 -99.5q0 -42 -21.5 -75t-58 -51.5t-83.5 -18.5q-101 0 -163 75zM332 237h-216l34 47l-26 -209
h-78l30 233h256v-71z" />
    <glyph glyph-name="uni2086" unicode="&#x2086;" horiz-adv-x="413" 
d="M207 -109q-49 0 -86.5 20t-58.5 54.5t-21 79.5q0 47 21 91t61 87t97 85h116q-86 -63 -133 -109t-64 -89l-10 4q14 26 38 41.5t58 15.5q41 0 75 -17.5t54 -48t20 -70.5q0 -42 -22 -74.5t-59.5 -51t-85.5 -18.5zM208 -37q35 0 57.5 20.5t22.5 49.5q0 30 -22.5 50t-57.5 20
q-36 0 -58.5 -20t-22.5 -50q0 -29 22.5 -49.5t58.5 -20.5z" />
    <glyph glyph-name="uni2087" unicode="&#x2087;" horiz-adv-x="395" 
d="M351 308v-71l-208 -337h-94l212 337h-218v71h308z" />
    <glyph glyph-name="uni2088" unicode="&#x2088;" horiz-adv-x="416" 
d="M208 -109q-74 0 -121 34.5t-47 87.5t47.5 85.5t120.5 32.5q74 0 121 -32.5t47 -85.5t-47 -87.5t-121 -34.5zM208 101q-66 0 -108.5 30t-42.5 76q0 47 42 78.5t109 31.5q66 0 108.5 -31.5t42.5 -78.5q0 -46 -42.5 -76t-108.5 -30zM208 -38q34 0 56.5 15.5t22.5 42.5
q0 25 -22.5 42t-56.5 17q-33 0 -56 -17t-23 -43q0 -25 23 -41t56 -16zM208 144q28 0 46 15t18 38q0 22 -18 36t-46 14q-27 0 -45.5 -14.5t-18.5 -36.5t18.5 -37t45.5 -15z" />
    <glyph glyph-name="uni2089" unicode="&#x2089;" horiz-adv-x="413" 
d="M206 317q50 0 87 -20t58 -54.5t21 -79.5q0 -46 -21 -90.5t-60.5 -87t-96.5 -85.5h-117q87 63 134.5 109.5t62.5 88.5l10 -4q-13 -26 -37 -41.5t-59 -15.5q-41 0 -75 17.5t-54 48t-20 70.5q0 42 22 74.5t60 51t85 18.5zM206 245q-35 0 -58 -20t-23 -50t23 -50t58 -20
t57.5 20t22.5 50t-22.5 50t-57.5 20z" />
    <glyph glyph-name="uni2070" unicode="&#x2070;" horiz-adv-x="431" 
d="M216 395q-81 0 -125.5 56t-44.5 157t44.5 157t125.5 56q79 0 124 -56t45 -157t-45 -157t-124 -56zM216 467q38 0 59 35.5t21 105.5t-21 105.5t-59 35.5q-39 0 -60 -35.5t-21 -105.5t21 -105.5t60 -35.5z" />
    <glyph glyph-name="uni00B9" unicode="&#xb9;" horiz-adv-x="366" 
d="M191 815h73v-411h-89v317l-103 -70v86z" />
    <glyph glyph-name="uni00B2" unicode="&#xb2;" horiz-adv-x="408" 
d="M350 404h-308v64l153 133q31 27 46 48t15 43q0 24 -18 40.5t-46 16.5q-26 0 -52.5 -16.5t-48.5 -50.5l-57 55q31 41 72.5 62.5t89.5 21.5q44 0 77.5 -16.5t52.5 -45t19 -64.5q0 -41 -26 -77t-80 -83q-26 -23 -47 -40l-42 -34l-4 13h204v-70z" />
    <glyph glyph-name="uni00B3" unicode="&#xb3;" horiz-adv-x="402" 
d="M28 471l52 54q24 -29 52 -44t60 -15q36 0 58 16.5t22 42.5q0 24 -22.5 40t-63.5 16h-36v69h36q34 0 54.5 14t20.5 36q0 21 -19 35.5t-49 14.5q-28 0 -54 -14.5t-47 -44.5l-52 54q28 35 70.5 55.5t91.5 20.5q43 0 76 -15.5t51.5 -41t18.5 -56.5q0 -45 -41.5 -73
t-110.5 -28l4 25q75 0 117 -31.5t42 -81.5q0 -34 -20 -62.5t-56 -45t-86 -16.5q-52 0 -96.5 20t-72.5 56z" />
    <glyph glyph-name="uni2074" unicode="&#x2074;" horiz-adv-x="435" 
d="M341 404h-87v85h-218v69l218 254h87v-254h60v-69h-60v-85zM254 713l-132 -155h132v155z" />
    <glyph glyph-name="uni2075" unicode="&#x2075;" horiz-adv-x="395" 
d="M32 470l53 56q24 -31 49.5 -45t59.5 -14t55.5 21.5t21.5 51.5q0 29 -21 48.5t-53 19.5q-24 0 -41.5 -7.5t-31.5 -21.5l-29 2q9 44 39.5 70.5t76.5 26.5q64 0 105.5 -38.5t41.5 -99.5q0 -42 -21.5 -75t-58 -51.5t-83.5 -18.5q-101 0 -163 75zM332 741h-216l34 47l-26 -209
h-78l30 233h256v-71z" />
    <glyph glyph-name="uni2076" unicode="&#x2076;" horiz-adv-x="413" 
d="M207 395q-49 0 -86.5 20t-58.5 54.5t-21 79.5q0 47 21 91t61 87t97 85h116q-86 -63 -133 -109t-64 -89l-10 4q14 26 38 41.5t58 15.5q41 0 75 -17.5t54 -48t20 -70.5q0 -42 -22 -74.5t-59.5 -51t-85.5 -18.5zM208 467q35 0 57.5 20.5t22.5 49.5q0 30 -22.5 50t-57.5 20
q-36 0 -58.5 -20t-22.5 -50q0 -29 22.5 -49.5t58.5 -20.5z" />
    <glyph glyph-name="uni2077" unicode="&#x2077;" horiz-adv-x="395" 
d="M351 812v-71l-208 -337h-94l212 337h-218v71h308z" />
    <glyph glyph-name="uni2078" unicode="&#x2078;" horiz-adv-x="416" 
d="M208 395q-74 0 -121 34.5t-47 87.5t47.5 85.5t120.5 32.5q74 0 121 -32.5t47 -85.5t-47 -87.5t-121 -34.5zM208 605q-66 0 -108.5 30t-42.5 76q0 47 42 78.5t109 31.5q66 0 108.5 -31.5t42.5 -78.5q0 -46 -42.5 -76t-108.5 -30zM208 466q34 0 56.5 15.5t22.5 42.5
q0 25 -22.5 42t-56.5 17q-33 0 -56 -17t-23 -43q0 -25 23 -41t56 -16zM208 648q28 0 46 15t18 38q0 22 -18 36t-46 14q-27 0 -45.5 -14.5t-18.5 -36.5t18.5 -37t45.5 -15z" />
    <glyph glyph-name="uni2079" unicode="&#x2079;" horiz-adv-x="413" 
d="M206 821q50 0 87 -20t58 -54.5t21 -79.5q0 -46 -21 -90.5t-60.5 -87t-96.5 -85.5h-117q87 63 134.5 109.5t62.5 88.5l10 -4q-13 -26 -37 -41.5t-59 -15.5q-41 0 -75 17.5t-54 48t-20 70.5q0 42 22 74.5t60 51t85 18.5zM206 749q-35 0 -58 -20t-23 -50t23 -50t58 -20
t57.5 20t22.5 50t-22.5 50t-57.5 20z" />
    <glyph glyph-name="fraction" unicode="&#x2044;" horiz-adv-x="224" 
d="M-76 0h-115l491 715h115z" />
    <glyph glyph-name="zero.percent" horiz-adv-x="378" 
d="M189 -9q-46 0 -83.5 21.5t-59 58.5t-21.5 84q0 46 21.5 83t59 58.5t83.5 21.5q47 0 83.5 -21.5t58 -58.5t21.5 -83q0 -47 -21.5 -84t-58 -58.5t-83.5 -21.5zM189 74q32 0 53.5 23t21.5 57q0 35 -21.5 58t-53.5 23q-33 0 -54 -23t-21 -58q0 -34 21 -57t54 -23z" />
    <glyph glyph-name="percent" unicode="%" horiz-adv-x="786" 
d="M205 0h-115l491 715h115zM597 -9q-46 0 -83.5 21.5t-59 58.5t-21.5 84q0 46 21.5 83t59 58.5t83.5 21.5q47 0 83.5 -21.5t58 -58.5t21.5 -83q0 -47 -21.5 -84t-58 -58.5t-83.5 -21.5zM597 74q32 0 53.5 23t21.5 57q0 35 -21.5 58t-53.5 23q-33 0 -54 -23t-21 -58
q0 -34 21 -57t54 -23zM189 397q-46 0 -83.5 21.5t-59 58.5t-21.5 84q0 46 21.5 83t59 58.5t83.5 21.5q47 0 83.5 -21.5t58 -58.5t21.5 -83q0 -47 -21.5 -84t-58 -58.5t-83.5 -21.5zM189 480q32 0 53.5 23t21.5 57q0 35 -21.5 58t-53.5 23q-33 0 -54 -23t-21 -58
q0 -34 21 -57t54 -23z" />
    <glyph glyph-name="perthousand" unicode="&#x2030;" horiz-adv-x="1151" 
d="M205 0h-115l491 715h115zM597 -9q-46 0 -83.5 21.5t-59 58.5t-21.5 84q0 46 21.5 83t59 58.5t83.5 21.5q47 0 83.5 -21.5t58 -58.5t21.5 -83q0 -47 -21.5 -84t-58 -58.5t-83.5 -21.5zM597 74q32 0 53.5 23t21.5 57q0 35 -21.5 58t-53.5 23q-33 0 -54 -23t-21 -58
q0 -34 21 -57t54 -23zM963 -9q-46 0 -83.5 21.5t-59 58.5t-21.5 84q0 46 21.5 83t59 58.5t83.5 21.5q47 0 83.5 -21.5t58 -58.5t21.5 -83q0 -47 -21.5 -84t-58 -58.5t-83.5 -21.5zM963 74q32 0 53.5 23t21.5 57q0 35 -21.5 58t-53.5 23q-33 0 -54 -23t-21 -58q0 -34 21 -57
t54 -23zM189 397q-46 0 -83.5 21.5t-59 58.5t-21.5 84q0 46 21.5 83t59 58.5t83.5 21.5q47 0 83.5 -21.5t58 -58.5t21.5 -83q0 -47 -21.5 -84t-58 -58.5t-83.5 -21.5zM189 480q32 0 53.5 23t21.5 57q0 35 -21.5 58t-53.5 23q-33 0 -54 -23t-21 -58q0 -34 21 -57t54 -23z" />
    <glyph glyph-name="onehalf" unicode="&#xbd;" horiz-adv-x="977" 
d="M274 0h-115l491 715h115zM920 0h-308v64l153 133q31 27 46 48t15 43q0 24 -18 40.5t-46 16.5q-26 0 -52.5 -16.5t-48.5 -50.5l-57 55q31 41 72.5 62.5t89.5 21.5q44 0 77.5 -16.5t52.5 -45t19 -64.5q0 -41 -26 -77t-80 -83q-26 -23 -47 -40l-42 -34l-4 13h204v-70z
M191 715h73v-411h-89v317l-103 -70v86z" />
    <glyph glyph-name="onequarter" unicode="&#xbc;" horiz-adv-x="943" 
d="M280 0h-115l491 715h115zM849 0h-87v85h-218v69l218 254h87v-254h60v-69h-60v-85zM762 309l-132 -155h132v155zM191 715h73v-411h-89v317l-103 -70v86z" />
    <glyph glyph-name="threequarters" unicode="&#xbe;" horiz-adv-x="978" 
d="M315 0h-115l491 715h115zM884 0h-87v85h-218v69l218 254h87v-254h60v-69h-60v-85zM797 309l-132 -155h132v155zM28 371l52 54q24 -29 52 -44t60 -15q36 0 58 16.5t22 42.5q0 24 -22.5 40t-63.5 16h-36v69h36q34 0 54.5 14t20.5 36q0 21 -19 35.5t-49 14.5
q-28 0 -54 -14.5t-47 -44.5l-52 54q28 35 70.5 55.5t91.5 20.5q43 0 76 -15.5t51.5 -41t18.5 -56.5q0 -45 -41.5 -73t-110.5 -28l4 25q75 0 117 -31.5t42 -81.5q0 -34 -20 -62.5t-56 -45t-86 -16.5q-52 0 -96.5 20t-72.5 56z" />
    <glyph glyph-name="dollar" unicode="$" horiz-adv-x="660" 
d="M53 121l72 69q40 -51 94 -78.5t117 -27.5q50 0 89 15t61 41.5t22 61.5q0 33 -17.5 55.5t-57.5 37.5t-106 26q-129 20 -189 67.5t-60 129.5q0 59 33.5 105t91.5 72t132 26q75 0 141.5 -33.5t114.5 -93.5l-72 -69q-35 52 -82.5 79t-99.5 27q-70 0 -113 -30.5t-43 -77.5
q0 -31 16 -52t51 -34.5t94 -22.5q143 -22 206 -72t63 -136q0 -62 -36 -110t-97.5 -75t-139.5 -27q-89 0 -162 33.5t-123 93.5zM375 373h-68v458h68v-458zM373 -116h-68v479h68v-479z" />
    <glyph glyph-name="cent" unicode="&#xa2;" horiz-adv-x="660" 
d="M504 150l68 -67q-37 -46 -91 -72.5t-123 -26.5q-77 0 -138 34.5t-96 94t-35 137.5q0 77 35.5 136.5t96.5 94t139 34.5q68 0 121.5 -26t90.5 -73l-68 -66q-21 32 -56 54t-83 22t-85.5 -22.5t-58.5 -62.5t-21 -91q0 -52 21 -91.5t58.5 -62.5t85.5 -23q49 0 83.5 22.5
t55.5 54.5zM393 -116h-68v731h68v-731z" />
    <glyph glyph-name="sterling" unicode="&#xa3;" horiz-adv-x="660" 
d="M612 0h-551v93h551v-93zM498 308h-427v89h427v-89zM613 611l-76 -70q-30 49 -64 71.5t-77 22.5q-59 0 -91 -39.5t-32 -106.5v-442h-111v440q0 73 28 128t81 85.5t125 30.5q69 0 124 -31t93 -89z" />
    <glyph glyph-name="yen" unicode="&#xa5;" horiz-adv-x="660" 
d="M385 0h-110v313l-251 402h124l195 -328h-24l195 328h122l-251 -404v-311zM556 123h-452v82h452v-82zM556 280h-452v82h452v-82z" />
    <glyph glyph-name="Euro" unicode="&#x20ac;" horiz-adv-x="660" 
d="M569 175l73 -72q-44 -55 -107 -87t-139 -32q-93 0 -163 47t-109 131.5t-39 194.5q0 112 39.5 196t110.5 131t164 47q75 0 138 -32t106 -87l-73 -72q-31 44 -74.5 69.5t-96.5 25.5q-92 0 -147.5 -73t-55.5 -205q0 -86 25 -148t71 -95.5t107 -33.5q52 0 95.5 26t74.5 69z
M451 239h-432v82h447zM480 396h-461v82h476z" />
    <glyph glyph-name="uni20BA" unicode="&#x20ba;" horiz-adv-x="660" 
d="M127 0v715h111v-622h57q108 0 164.5 56t56.5 171v23l111 -7v-10q0 -163 -86 -244.5t-251 -81.5h-163zM415 367l-387 -163v86l387 163v-86zM415 529l-387 -163v86l387 163v-86z" />
    <glyph glyph-name="uni20B9" unicode="&#x20b9;" horiz-adv-x="660" 
d="M52 631v64h230q75 0 130.5 -23.5t87 -66t31.5 -98.5q0 -62 -31.5 -109t-87 -73t-130.5 -26h-229v84h229q69 0 107.5 33t38.5 91t-38.5 91t-107.5 33h-230zM611 0h-173l-385 299l144 13zM584 464h-532v84h548zM614 631h-562v84h578z" />
    <glyph glyph-name="uni20BD" unicode="&#x20bd;" horiz-adv-x="660" 
d="M256 0h-112v715h238q75 0 130.5 -26t87 -73t31.5 -109t-31.5 -109t-87 -73t-130.5 -26h-347v89h347q64 0 101 32t37 87t-37 87t-101 32h-126v-626zM475 208v-88h-440v88h440z" />
    <glyph glyph-name="currency" unicode="&#xa4;" horiz-adv-x="602" 
d="M301 242q36 0 64.5 17.5t45 47.5t16.5 69q0 38 -16.5 68t-45 47.5t-64.5 17.5q-35 0 -64 -17t-45.5 -47.5t-16.5 -68.5q0 -39 16.5 -69t45.5 -47.5t64 -17.5zM301 160q-34 0 -64.5 10t-56.5 27l-75 -75l-53 53l73 73q-19 27 -30 59.5t-11 68.5q0 35 11 67.5t30 59.5
l-73 73l53 53l75 -75q26 18 56.5 27.5t64.5 9.5t65 -9.5t56 -27.5l75 75l53 -53l-73 -73q20 -27 30.5 -59.5t10.5 -67.5q0 -36 -10.5 -68.5t-30.5 -59.5l73 -73l-53 -53l-75 75q-25 -17 -56 -27t-65 -10z" />
    <glyph glyph-name="dong" unicode="&#x20ab;" horiz-adv-x="651" 
d="M285 146q-53 0 -97 26t-70.5 71t-26.5 104t26 103.5t70 70.5t97 26q66 0 108.5 -37.5t50.5 -96.5h-25v302h102v-556h-101v91l-1 6v89q0 50 -31.5 83.5t-81.5 33.5q-48 0 -78.5 -32.5t-30.5 -82.5q0 -51 32 -83t82 -32q44 0 76.5 25t36.5 65l23 -15q3 -44 -16.5 -80.5
t-56 -58.5t-88.5 -22zM111 1v83h409v-83h-409zM309 594v66h275v-66h-275z" />
    <glyph glyph-name="asciicircum" unicode="^" horiz-adv-x="660" 
d="M294 715h98l181 -361h-107zM268 715h96l-174 -361h-103z" />
    <glyph glyph-name="plus" unicode="+" horiz-adv-x="660" 
d="M547 312h-434v91h434v-91zM375 140h-90v435h90v-435z" />
    <glyph glyph-name="minus" unicode="&#x2212;" horiz-adv-x="660" 
d="M551 312h-442v91h442v-91z" />
    <glyph glyph-name="plusminus" unicode="&#xb1;" horiz-adv-x="660" 
d="M547 328h-434v91h434v-91zM375 156h-90v435h90v-435zM551 0h-442v91h442v-91z" />
    <glyph glyph-name="equal" unicode="=" horiz-adv-x="660" 
d="M541 205h-423v91h423v-91zM541 419h-423v91h423v-91z" />
    <glyph glyph-name="divide" unicode="&#xf7;" horiz-adv-x="660" 
d="M567 312h-474v91h474v-91zM330 463q-28 0 -48.5 19t-20.5 47q0 29 20.5 48.5t48.5 19.5q29 0 49 -19.5t20 -48.5q0 -28 -20 -47t-49 -19zM330 118q-28 0 -48.5 19t-20.5 47q0 29 20.5 48.5t48.5 19.5q29 0 49 -19.5t20 -48.5q0 -28 -20 -47t-49 -19z" />
    <glyph glyph-name="less" unicode="&#x3c;" horiz-adv-x="660" 
d="M117 395l426 -168v-105l-426 176v97zM117 421l426 175v-102l-426 -167v94z" />
    <glyph glyph-name="greater" unicode="&#x3e;" horiz-adv-x="660" 
d="M117 491v105l426 -176v-96zM117 122v102l426 167v-93z" />
    <glyph glyph-name="asciitilde" unicode="~" horiz-adv-x="660" 
d="M496 453l83 -43q-21 -80 -57.5 -116t-92.5 -36q-21 0 -49 11.5t-66 41.5q-25 19 -39.5 29t-23.5 13.5t-17 3.5q-26 0 -43.5 -25t-26.5 -71l-84 43q22 80 58.5 116t91.5 36q21 0 49.5 -11.5t65.5 -41.5q26 -19 40.5 -29t23.5 -13.5t17 -3.5q26 0 43 25t27 71z" />
    <glyph glyph-name="logicalnot" unicode="&#xac;" horiz-adv-x="660" 
d="M551 162h-90v150h-352v91h442v-241z" />
    <glyph glyph-name="multiply" unicode="&#xd7;" horiz-adv-x="660" 
d="M535 215l-62 -62l-348 347l62 62zM473 562l62 -62l-348 -347l-62 62z" />
    <glyph glyph-name="underscore" unicode="_" horiz-adv-x="500" 
d="M500 -142h-500v90h500v-90z" />
    <glyph glyph-name="section" unicode="&#xa7;" horiz-adv-x="584" 
d="M526 310q0 -46 -26.5 -82.5t-69.5 -57.5q35 -22 54 -54t19 -76q0 -48 -27 -86t-74.5 -60t-106.5 -22q-68 0 -127.5 26t-97.5 67l56 65q29 -33 74.5 -54t95.5 -21t80 23t30 57q0 37 -27 59t-91 36q-101 22 -156 60.5t-55 106.5q0 47 26.5 82.5t69.5 57.5q-72 46 -72 124
q0 49 26.5 87.5t71.5 60.5t101 22q63 0 118 -26t91 -66l-57 -65q-27 32 -66 53t-85 21q-45 0 -73.5 -22t-28.5 -60q0 -32 26.5 -53.5t90.5 -35.5q102 -22 155.5 -60t54.5 -107zM429 297q-1 35 -32.5 55.5t-99.5 36.5l-42 11q-32 -11 -56.5 -33.5t-24.5 -54.5q0 -37 32 -58
t100 -36l41 -11q34 11 58 33.5t24 56.5z" />
    <glyph glyph-name="paragraph" unicode="&#xb6;" horiz-adv-x="641" 
d="M351 -130h-102v408q-62 6 -109 35.5t-73.5 76t-26.5 104.5q0 67 32 116.5t89.5 77t133.5 27.5h264v-845h-102v750h-106v-750z" />
    <glyph glyph-name="numbersign" unicode="#" horiz-adv-x="689" 
d="M448 0h-99l152 715h99zM574 178h-536l18 87h536zM240 715h99l-152 -715h-99zM114 537h536l-18 -87h-536z" />
    <glyph glyph-name="bar" unicode="|" horiz-adv-x="229" 
d="M170 -129h-110v865h110v-865z" />
    <glyph glyph-name="dagger" unicode="&#x2020;" horiz-adv-x="486" 
d="M299 -129h-110v865h110v-865zM441 408h-395v91h395v-91z" />
    <glyph glyph-name="daggerdbl" unicode="&#x2021;" horiz-adv-x="486" 
d="M299 -129h-110v865h110v-865zM441 408h-395v91h395v-91zM46 199h395v-91h-395v91z" />
    <glyph glyph-name="degree" unicode="&#xb0;" horiz-adv-x="467" 
d="M234 378q-49 0 -90 24t-65 64t-24 88q0 49 24 89t65 64t90 24t89.5 -24t64.5 -64t24 -89q0 -48 -24 -88t-64.5 -64t-89.5 -24zM233 458q39 0 65.5 28t26.5 68q0 41 -26.5 69t-65.5 28q-38 0 -64.5 -28t-26.5 -69q0 -40 26.5 -68t64.5 -28z" />
    <glyph glyph-name="arrowup" unicode="&#x2191;" horiz-adv-x="752" 
d="M413 643v-643h-74v643h74zM100 374v101l276 256l276 -256v-101l-276 257z" />
    <glyph glyph-name="arrowdown" unicode="&#x2193;" horiz-adv-x="752" 
d="M413 715v-643h-74v643h74zM100 240v101l276 -257l276 257v-101l-276 -256z" />
    <glyph glyph-name="arrowleft" unicode="&#x2190;" horiz-adv-x="931" 
d="M460 0h-104l-256 246l256 246h104l-252 -246zM831 210h-638v72h638v-72z" />
    <glyph glyph-name="arrowright" unicode="&#x2192;" horiz-adv-x="931" 
d="M575 0h-104l252 246l-252 246h104l256 -246zM738 210h-638v72h638v-72z" />
    <glyph glyph-name="triagup" unicode="&#x25b2;" horiz-adv-x="752" 
d="M100 66v102l276 256l276 -256v-102l-276 252z" />
    <glyph glyph-name="triagdn" unicode="&#x25bc;" horiz-adv-x="752" 
d="M100 322v102l276 -252l276 252v-102l-276 -256z" />
    <glyph glyph-name="uni25C0" unicode="&#x25c0;" horiz-adv-x="562" 
d="M462 0h-106l-256 246l256 246h106l-252 -246z" />
    <glyph glyph-name="uni25B6" unicode="&#x25b6;" horiz-adv-x="562" 
d="M206 0h-106l252 246l-252 246h106l256 -246z" />
    <glyph glyph-name="hyphen" unicode="-" horiz-adv-x="336" 
d="M306 238h-276v96h276v-96z" />
    <glyph glyph-name="uni2010" unicode="&#x2010;" horiz-adv-x="336" 
d="M306 238h-276v96h276v-96z" />
    <glyph glyph-name="uni2011" unicode="&#x2011;" horiz-adv-x="336" 
d="M306 238h-276v96h276v-96z" />
    <glyph glyph-name="endash" unicode="&#x2013;" horiz-adv-x="500" 
d="M500 232h-500v90h500v-90z" />
    <glyph glyph-name="emdash" unicode="&#x2014;" horiz-adv-x="1000" 
d="M1000 232h-1000v90h1000v-90z" />
    <glyph glyph-name="parenleft" unicode="(" horiz-adv-x="334" 
d="M51 301q0 121 36.5 229.5t105.5 200.5h108q-71 -104 -106 -210.5t-35 -219.5q0 -221 141 -430h-108q-69 92 -105.5 201t-36.5 229z" />
    <glyph glyph-name="parenright" unicode=")" horiz-adv-x="334" 
d="M282 301q0 -120 -36 -229t-105 -201h-108q141 209 141 430q0 113 -35.5 219.5t-105.5 210.5h108q69 -92 105 -200.5t36 -229.5z" />
    <glyph glyph-name="slash" unicode="/" horiz-adv-x="498" 
d="M157 0h-106l290 731h106z" />
    <glyph glyph-name="backslash" unicode="\" horiz-adv-x="498" 
d="M447 0h-106l-290 731h106z" />
    <glyph glyph-name="bracketleft" unicode="[" horiz-adv-x="322" 
d="M283 -129h-223v860h223v-89h-113v-682h113v-89z" />
    <glyph glyph-name="bracketright" unicode="]" horiz-adv-x="322" 
d="M263 -129h-224v89h114v682h-114v89h224v-860z" />
    <glyph glyph-name="braceleft" unicode="{" horiz-adv-x="392" 
d="M353 -40v-89h-90q-134 0 -134 133v196q0 31 -13 44t-43 13h-34v89h34q30 0 43 13.5t13 44.5v194q0 133 134 133h90v-89h-57q-31 0 -44 -13.5t-13 -44.5v-161q0 -134 -133 -134v25q133 0 133 -133v-164q0 -30 13 -43.5t44 -13.5h57z" />
    <glyph glyph-name="braceright" unicode="}" horiz-adv-x="392" 
d="M39 -129v89h57q30 0 43.5 13.5t13.5 43.5v164q0 133 133 133v-25q-133 0 -133 134v161q0 31 -13.5 44.5t-43.5 13.5h-57v89h90q134 0 134 -133v-194q0 -31 13 -44.5t43 -13.5h33v-89h-33q-30 0 -43 -13t-13 -44v-196q0 -133 -134 -133h-90z" />
    <glyph glyph-name="bullet" unicode="&#x2022;" horiz-adv-x="354" 
d="M59 274q0 33 16 59.5t43 42.5t59 16q33 0 59.5 -16t42.5 -42.5t16 -59.5q0 -32 -16 -59t-42.5 -43t-59.5 -16q-32 0 -59 16t-43 43t-16 59z" />
    <glyph glyph-name="guilsinglleft" unicode="&#x2039;" horiz-adv-x="349" 
d="M182 33l-146 217l146 216h123l-149 -216l149 -217h-123z" />
    <glyph glyph-name="guilsinglright" unicode="&#x203a;" horiz-adv-x="349" 
d="M167 466l146 -216l-146 -217h-123l149 217l-149 216h123z" />
    <glyph glyph-name="guillemotleft" unicode="&#xab;" horiz-adv-x="561" 
d="M182 33l-146 217l146 216h123l-149 -216l149 -217h-123zM394 33l-146 217l146 216h123l-149 -216l149 -217h-123z" />
    <glyph glyph-name="guillemotright" unicode="&#xbb;" horiz-adv-x="561" 
d="M167 466l146 -216l-146 -217h-123l149 217l-149 216h123zM379 466l146 -216l-146 -217h-123l149 217l-149 216h123z" />
    <glyph glyph-name="at" unicode="@" horiz-adv-x="1035" 
d="M487 44q-58 0 -105 28t-75 77t-28 111q0 65 28 114t75.5 76.5t104.5 27.5q51 0 89.5 -23t60.5 -63t22 -92q0 -11 -1 -23t-4 -26l-23 14q0 39 -16.5 69t-45 47.5t-65.5 17.5t-66 -18.5t-45.5 -49.5t-16.5 -71q0 -39 16.5 -69.5t45.5 -49t68 -18.5t71 18.5t51 49.5t20 69
l23 -20q10 -55 -13 -99.5t-68.5 -70.5t-102.5 -26zM756 -15l67 -74q-27 -29 -71.5 -53t-102 -38t-124.5 -14q-100 0 -185.5 34.5t-149 96.5t-99 145t-35.5 180q0 100 36 185.5t101 149t152 99t188 35.5q97 0 179 -33.5t142.5 -94t94 -141t33.5 -173.5q0 -115 -52 -180
t-144 -65q-69 0 -112 42.5t-43 112.5v146l1 6v113h93v-246q0 -45 19 -65.5t50 -20.5q43 0 66 39.5t23 111.5q0 104 -44.5 185t-123 127t-182.5 46q-81 0 -150 -28.5t-120 -80t-79.5 -120.5t-28.5 -151q0 -76 28 -143t78.5 -116.5t117.5 -77.5t146 -28q77 0 139 25t92 64z
" />
    <glyph glyph-name="periodcentered" unicode="&#xb7;" horiz-adv-x="248" 
d="M198 288q0 -30 -21.5 -51t-52.5 -21q-30 0 -51.5 21t-21.5 51t21.5 51t51.5 21q31 0 52.5 -21t21.5 -51z" />
    <glyph glyph-name="ampersand" unicode="&#x26;" horiz-adv-x="696" 
d="M667 297l-111 -154q-65 -86 -129.5 -122.5t-144.5 -36.5q-74 0 -128.5 26.5t-84 73t-29.5 103.5q0 82 57.5 139t174.5 92l23 -70q-73 -25 -106.5 -64t-33.5 -88q0 -51 36 -86t96 -35q33 0 63 11t61.5 38.5t65.5 76.5l110 153zM689 64l-70 -74l-373 348l-17 15
q-46 42 -72.5 75.5t-37.5 64t-11 62.5q0 49 26.5 89t71.5 63.5t101 23.5q57 0 102 -24t71 -64t26 -89q0 -48 -26 -87t-72 -68.5t-104 -47.5l-26 69q59 20 93 52t34 77q0 41 -27.5 68t-69.5 27q-39 0 -67 -26.5t-28 -66.5q0 -23 10 -45.5t33 -48t62 -57.5l20 -16z" />
    <glyph glyph-name="asterisk" unicode="*" horiz-adv-x="431" 
d="M216 487q-16 -42 -31 -72.5t-24 -43.5q-16 -22 -40 -22q-18 0 -32 13.5t-14 29.5q0 17 12 34q10 13 33 36t59 51q-46 3 -75.5 8t-44.5 9q-36 10 -36 43q0 20 12.5 33.5t31.5 13.5q13 0 26 -5q14 -6 38 -19t61 -40q-11 44 -17 77t-6 49q0 23 12.5 36t34.5 13
q21 0 33.5 -13t12.5 -36q0 -16 -6 -49t-17 -77q38 27 61.5 40t37.5 19q14 5 26 5q20 0 32 -13.5t12 -33.5q0 -33 -35 -43q-15 -4 -45 -9t-76 -8q36 -28 59.5 -51t32.5 -36q12 -17 12 -34q0 -16 -14 -29.5t-32 -13.5q-24 0 -39 22q-9 13 -24 43.5t-31 72.5z" />
    <glyph glyph-name="hyphen.case" horiz-adv-x="336" 
d="M306 309h-276v96h276v-96z" />
    <glyph glyph-name="uni2010.case" horiz-adv-x="336" 
d="M306 309h-276v96h276v-96z" />
    <glyph glyph-name="uni2011.case" horiz-adv-x="336" 
d="M306 309h-276v96h276v-96z" />
    <glyph glyph-name="endash.case" horiz-adv-x="500" 
d="M500 312h-500v90h500v-90z" />
    <glyph glyph-name="emdash.case" horiz-adv-x="1000" 
d="M1000 312h-1000v90h1000v-90z" />
    <glyph glyph-name="parenleft.case" horiz-adv-x="334" 
d="M51 357q0 121 36.5 229.5t105.5 200.5h108q-71 -104 -106 -210.5t-35 -219.5q0 -221 141 -430h-108q-69 92 -105.5 201t-36.5 229z" />
    <glyph glyph-name="parenright.case" horiz-adv-x="334" 
d="M282 357q0 -120 -36 -229t-105 -201h-108q141 209 141 430q0 113 -35.5 219.5t-105.5 210.5h108q69 -92 105 -200.5t36 -229.5z" />
    <glyph glyph-name="slash.case" horiz-adv-x="498" 
d="M157 0h-106l290 731h106z" />
    <glyph glyph-name="backslash.case" horiz-adv-x="498" 
d="M447 0h-106l-290 731h106z" />
    <glyph glyph-name="bracketleft.case" horiz-adv-x="322" 
d="M283 -73h-223v860h223v-89h-113v-682h113v-89z" />
    <glyph glyph-name="bracketright.case" horiz-adv-x="322" 
d="M263 -73h-224v89h114v682h-114v89h224v-860z" />
    <glyph glyph-name="braceleft.case" horiz-adv-x="392" 
d="M353 16v-89h-90q-134 0 -134 133v196q0 31 -13 44t-43 13h-34v89h34q30 0 43 13.5t13 44.5v194q0 133 134 133h90v-89h-57q-31 0 -44 -13.5t-13 -44.5v-161q0 -134 -133 -134v25q133 0 133 -133v-164q0 -30 13 -43.5t44 -13.5h57z" />
    <glyph glyph-name="braceright.case" horiz-adv-x="392" 
d="M39 -73v89h57q30 0 43.5 13.5t13.5 43.5v164q0 133 133 133v-25q-133 0 -133 134v161q0 31 -13.5 44.5t-43.5 13.5h-57v89h90q134 0 134 -133v-194q0 -31 13 -44.5t43 -13.5h33v-89h-33q-30 0 -43 -13t-13 -44v-196q0 -133 -134 -133h-90z" />
    <glyph glyph-name="bullet.case" horiz-adv-x="354" 
d="M59 357q0 33 16 59.5t43 42.5t59 16q33 0 59.5 -16t42.5 -42.5t16 -59.5q0 -32 -16 -59t-42.5 -43t-59.5 -16q-32 0 -59 16t-43 43t-16 59z" />
    <glyph glyph-name="guilsinglleft.case" horiz-adv-x="349" 
d="M182 140l-146 217l146 216h123l-149 -216l149 -217h-123z" />
    <glyph glyph-name="guilsinglright.case" horiz-adv-x="349" 
d="M167 573l146 -216l-146 -217h-123l149 217l-149 216h123z" />
    <glyph glyph-name="guillemotleft.case" horiz-adv-x="561" 
d="M182 140l-146 217l146 216h123l-149 -216l149 -217h-123zM394 140l-146 217l146 216h123l-149 -216l149 -217h-123z" />
    <glyph glyph-name="guillemotright.case" horiz-adv-x="561" 
d="M167 573l146 -216l-146 -217h-123l149 217l-149 216h123zM379 573l146 -216l-146 -217h-123l149 217l-149 216h123z" />
    <glyph glyph-name="at.case" horiz-adv-x="1035" 
d="M487 133q-58 0 -105 28t-75 77t-28 111q0 65 28 114t75.5 76.5t104.5 27.5q51 0 89.5 -23t60.5 -63t22 -92q0 -11 -1 -23t-4 -26l-23 14q0 39 -16.5 69t-45 47.5t-65.5 17.5t-66 -18.5t-45.5 -49.5t-16.5 -71q0 -39 16.5 -69.5t45.5 -49t68 -18.5t71 18.5t51 49.5t20 69
l23 -20q10 -55 -13 -99.5t-68.5 -70.5t-102.5 -26zM756 74l67 -74q-27 -29 -71.5 -53t-102 -38t-124.5 -14q-100 0 -185.5 34.5t-149 96.5t-99 145t-35.5 180q0 100 36 185.5t101 149t152 99t188 35.5q97 0 179 -33.5t142.5 -94t94 -141t33.5 -173.5q0 -115 -52 -180
t-144 -65q-69 0 -112 42.5t-43 112.5v146l1 6v113h93v-246q0 -45 19 -65.5t50 -20.5q43 0 66 39.5t23 111.5q0 104 -44.5 185t-123 127t-182.5 46q-81 0 -150 -28.5t-120 -80t-79.5 -120.5t-28.5 -151q0 -76 28 -143t78.5 -116.5t117.5 -77.5t146 -28q77 0 139 25t92 64z
" />
    <glyph glyph-name="periodcentered.case" horiz-adv-x="248" 
d="M198 357q0 -30 -21.5 -51t-52.5 -21q-30 0 -51.5 21t-21.5 51t21.5 51t51.5 21q31 0 52.5 -21t21.5 -51z" />
    <glyph glyph-name="uni00AD" unicode="&#xad;" horiz-adv-x="336" 
d="M306 238h-276v96h276v-96z" />
    <glyph glyph-name="figuredash" unicode="&#x2012;" horiz-adv-x="660" 
d="M580 312h-500v90h500v-90z" />
    <glyph glyph-name="uni2015" unicode="&#x2015;" horiz-adv-x="1000" 
d="M1000 232h-1000v90h1000v-90z" />
    <glyph glyph-name="A" unicode="A" horiz-adv-x="756" 
d="M582 172h-412v98h412v-98zM724 0h-122l-245 637h38l-245 -637h-118l283 715h126z" />
    <glyph glyph-name="B" unicode="B" horiz-adv-x="672" 
d="M76 0v715h287q70 0 122.5 -23.5t81 -65.5t28.5 -98q0 -53 -28.5 -93.5t-81 -63t-122.5 -22.5h-162v50h176q75 0 131 -24t87 -67.5t31 -102.5q0 -61 -31 -107.5t-87 -72t-131 -25.5h-301zM191 97h186q62 0 97 29.5t35 82.5q0 52 -35 81t-97 29h-196v96h177q56 0 88.5 27.5
t32.5 75.5q0 47 -32.5 73.5t-88.5 26.5h-167v-521z" />
    <glyph glyph-name="C" unicode="C" horiz-adv-x="748" 
d="M634 196l77 -77q-47 -62 -122.5 -98.5t-166.5 -36.5q-81 0 -148.5 28t-117 78t-77 118.5t-27.5 148.5q0 81 28 149.5t78.5 118.5t118.5 78t148 28q91 0 165 -36.5t121 -98.5l-77 -77q-35 51 -88 80.5t-121 29.5q-72 0 -129 -35.5t-90 -96.5t-33 -140q0 -78 33 -139
t90 -96.5t129 -35.5q68 0 121 30t88 80z" />
    <glyph glyph-name="D" unicode="D" horiz-adv-x="750" 
d="M76 0v715h243q114 0 199.5 -46t133 -126.5t47.5 -184.5t-47.5 -185t-133 -127t-199.5 -46h-243zM191 99h128q80 0 138.5 32.5t90 90.5t31.5 136t-31.5 136t-90 90t-138.5 32h-128v-517z" />
    <glyph glyph-name="E" unicode="E" horiz-adv-x="613" 
d="M568 0h-492v715h492v-98h-377v-519h377v-98zM549 314h-368v98h368v-98z" />
    <glyph glyph-name="F" unicode="F" horiz-adv-x="587" 
d="M191 0h-115v715h472v-98h-357v-617zM529 314h-348v98h348v-98z" />
    <glyph glyph-name="G" unicode="G" horiz-adv-x="806" 
d="M749 0h-107v101l12 -5q-35 -53 -96.5 -82.5t-137.5 -29.5q-79 0 -146 27.5t-117 77.5t-77.5 118.5t-27.5 150.5q0 80 28 148t79 118.5t120 78.5t150 28q94 0 170.5 -36.5t124.5 -98.5l-77 -77q-36 51 -91.5 80.5t-126.5 29.5q-74 0 -132.5 -35.5t-91.5 -96.5t-33 -139
q0 -79 33.5 -141t92 -97t134.5 -35q75 0 133.5 32.5t84.5 90.5l-9 -39v121h-218v94h326v-384z" />
    <glyph glyph-name="H" unicode="H" horiz-adv-x="749" 
d="M558 0v715h115v-715h-115zM191 0h-115v715h115v-715zM181 319v99h387v-99h-387z" />
    <glyph glyph-name="I" unicode="I" horiz-adv-x="267" 
d="M191 0h-115v715h115v-715z" />
    <glyph glyph-name="J" unicode="J" horiz-adv-x="665" 
d="M597 715v-439q0 -140 -73 -216t-208 -76q-81 0 -141 30t-95.5 86.5t-42.5 135.5l115 14q8 -80 50 -122t114 -42q81 0 123.5 49t42.5 141v439h115z" />
    <glyph glyph-name="K" unicode="K" horiz-adv-x="721" 
d="M191 0h-115v715h115v-715zM706 0h-161l-379 371h15l337 344h146l-360 -358v28z" />
    <glyph glyph-name="L" unicode="L" horiz-adv-x="572" 
d="M538 0h-462v715h115v-615h347v-100z" />
    <glyph glyph-name="M" unicode="M" horiz-adv-x="911" 
d="M498 71h-85l-283 589l56 2v-662h-112v715h138l271 -568h-53l271 568h135v-715h-112v662l56 -2z" />
    <glyph glyph-name="N" unicode="N" horiz-adv-x="751" 
d="M187 0h-112v715h122l406 -602h-39v602h112v-715h-122l-407 602h40v-602z" />
    <glyph glyph-name="O" unicode="O" horiz-adv-x="860" 
d="M430 -16q-82 0 -151 28t-120 78.5t-79 119t-28 148.5t28 148t79 118.5t120 78.5t151 28t151 -28t120 -78.5t79 -118.5t28 -148t-28 -148.5t-79 -119t-120 -78.5t-151 -28zM430 86q76 0 134 35t91 96.5t33 140.5t-33 140t-91 96t-134 35q-75 0 -133.5 -35t-91.5 -96
t-33 -140t33 -140.5t91.5 -96.5t133.5 -35z" />
    <glyph glyph-name="P" unicode="P" horiz-adv-x="653" 
d="M191 0h-115v715h286q74 0 130 -26.5t87.5 -74t31.5 -111.5q0 -63 -31.5 -111t-87.5 -74.5t-130 -26.5h-181v98h181q61 0 96.5 30.5t35.5 83.5t-35.5 83.5t-96.5 30.5h-171v-617z" />
    <glyph glyph-name="Q" unicode="Q" horiz-adv-x="860" 
d="M721 -42l-268 276l67 66l268 -276zM430 -16q-82 0 -151 28t-120 78.5t-79 119t-28 148.5t28 148t79 118.5t120 78.5t151 28t151 -28t120 -78.5t79 -118.5t28 -148t-28 -148.5t-79.5 -119t-120.5 -78.5t-150 -28zM430 86q77 0 135 34.5t90.5 96t32.5 141.5q0 79 -33 140
t-91 96t-134 35q-75 0 -133.5 -35t-91.5 -96t-33 -140t33 -140.5t91.5 -96.5t133.5 -35z" />
    <glyph glyph-name="R" unicode="R" horiz-adv-x="701" 
d="M191 0h-115v715h286q74 0 130 -26.5t87.5 -74t31.5 -111.5q0 -63 -31.5 -111t-87.5 -74.5t-130 -26.5h-181v98h181q61 0 96.5 30.5t35.5 83.5t-35.5 83.5t-96.5 30.5h-171v-617zM683 0h-143l-260 333h132z" />
    <glyph glyph-name="S" unicode="S" horiz-adv-x="692" 
d="M33 117l80 78q27 -34 64.5 -59t81 -38t91.5 -13q52 0 90.5 14t60.5 40t22 60q0 46 -41.5 73t-145.5 43q-97 14 -157 40t-87.5 66t-27.5 94q0 64 35.5 112.5t98 76t143.5 27.5q94 0 166.5 -36t124.5 -96l-78 -78q-39 51 -91.5 80.5t-120.5 29.5q-71 0 -116 -30t-45 -80
q0 -27 17 -45.5t56.5 -31.5t105.5 -23q99 -15 160.5 -43t90.5 -71t29 -103q0 -66 -37 -115.5t-103 -77t-152 -27.5q-101 0 -180 36t-135 97z" />
    <glyph glyph-name="T" unicode="T" horiz-adv-x="640" 
d="M377 0h-115v626h115v-626zM606 616h-572v99h572v-99z" />
    <glyph glyph-name="U" unicode="U" horiz-adv-x="734" 
d="M666 715v-433q0 -141 -79.5 -219.5t-219.5 -78.5q-139 0 -219 78.5t-80 219.5v433h115v-433q0 -92 48.5 -144t135.5 -52q88 0 136.5 52t48.5 144v433h114z" />
    <glyph glyph-name="V" unicode="V" horiz-adv-x="742" 
d="M430 0h-118l-280 715h124l235 -631h-36l235 631h121z" />
    <glyph glyph-name="W" unicode="W" horiz-adv-x="1065" 
d="M819 0h-129l-164 574h14l-165 -574h-129l-210 715h123l170 -625h-31l180 625h110l180 -625h-28l169 625h120z" />
    <glyph glyph-name="X" unicode="X" horiz-adv-x="704" 
d="M152 0h-136l275 392l1 -42l-252 365h136l190 -288h-27l190 288h134l-250 -365v42l275 -392h-137l-213 315h28z" />
    <glyph glyph-name="Y" unicode="Y" horiz-adv-x="689" 
d="M402 0h-115v298l-271 417h135l207 -335h-26l208 335h133l-271 -418v-297z" />
    <glyph glyph-name="Z" unicode="Z" horiz-adv-x="632" 
d="M589 0h-545v99l392 517h-379v99h519v-99l-392 -517h405v-99z" />
    <glyph glyph-name="a" unicode="a" horiz-adv-x="566" 
d="M511 0h-103v99l-5 21v187q0 56 -36 87.5t-98 31.5q-45 0 -83.5 -18t-66.5 -50l-64 70q41 41 96 64t122 23q71 0 124.5 -24.5t83.5 -70.5t30 -110v-310zM231 -16q-57 0 -101 21t-68 57t-24 84q0 52 30 88.5t83.5 56t123.5 19.5h140v-77h-130q-59 0 -95.5 -21t-36.5 -62
q0 -37 28 -58.5t73 -21.5q43 0 79 18t57.5 49.5t24.5 72.5l36 -17q0 -61 -28 -108.5t-78 -74t-114 -26.5z" />
    <glyph glyph-name="b" unicode="b" horiz-adv-x="645" 
d="M173 0h-111v720h112v-375h-27q8 50 36 88t72 60t99 22q70 0 126.5 -34t89.5 -94t33 -137q0 -78 -33.5 -138t-90.5 -94t-129 -34q-66 0 -114 27.5t-72.5 75t-20.5 106.5l23 18q5 -39 27 -69t57 -47t76 -17q49 0 84.5 22t55.5 61t20 89q0 49 -19 88t-53.5 61t-80.5 22
t-82 -22.5t-56.5 -62.5t-20.5 -94v-113l-1 -5v-124z" />
    <glyph glyph-name="c" unicode="c" horiz-adv-x="559" 
d="M453 153l72 -70q-37 -46 -91 -72.5t-124 -26.5q-77 0 -137.5 34.5t-95.5 94t-35 137.5q0 77 35 136.5t96.5 94t139.5 34.5q68 0 121.5 -26t90.5 -73l-72 -70q-22 34 -55.5 54.5t-80.5 20.5q-46 0 -82 -22t-56 -60.5t-20 -88.5t20 -89t56 -61t82 -22q47 0 80.5 21t55.5 54
z" />
    <glyph glyph-name="d" unicode="d" horiz-adv-x="645" 
d="M583 0h-111v124l-1 5v113q0 54 -20 94t-55.5 62.5t-81.5 22.5t-81.5 -22t-54.5 -61t-19 -88q0 -50 20 -89t56 -61t84 -22q42 0 76.5 17t56.5 47t27 69l23 -18q5 -59 -20 -106.5t-73 -75t-114 -27.5q-71 0 -128.5 34t-91 94t-33.5 138q0 77 33.5 137t90.5 94t127 34
q56 0 99.5 -21.5t71 -59.5t34.5 -89h-27v375h112v-720z" />
    <glyph glyph-name="e" unicode="e" horiz-adv-x="607" 
d="M490 151l64 -70q-39 -45 -97 -71t-129 -26q-84 0 -148.5 34t-101 94t-36.5 137q0 78 35 138t96 94t137 34q74 0 131 -33.5t90 -92t33 -135.5v-6h-111v11q0 50 -18.5 87.5t-50.5 58t-75 20.5q-45 0 -79.5 -21.5t-53.5 -60t-19 -92.5t22.5 -94t62 -61.5t91.5 -21.5
q95 0 157 77zM564 214h-444v76h428l16 -37v-39z" />
    <glyph glyph-name="f" unicode="f" horiz-adv-x="400" 
d="M238 0h-112v587q0 133 133 133h110v-89h-75q-30 0 -43 -13t-13 -44v-574zM369 408h-336v91h336v-91z" />
    <glyph glyph-name="g" unicode="g" horiz-adv-x="645" 
d="M583 55q0 -79 -36 -138.5t-98.5 -93t-143.5 -33.5q-71 0 -131 23.5t-99 64.5l65 75q29 -33 68.5 -51.5t91.5 -18.5t90.5 21t59.5 58t21 88v192q0 59 -22 98.5t-57 60t-78 20.5q-46 0 -81 -22t-54.5 -59.5t-19.5 -84.5q0 -48 20 -85t56 -58t84 -21q41 0 75.5 16.5t57 46.5
t27.5 69l24 -18q5 -59 -20.5 -106.5t-74 -75t-113.5 -27.5q-71 0 -128.5 32.5t-91 91t-33.5 134.5q0 77 34 135.5t91 92t126 33.5q53 0 95.5 -20t71 -58t36.5 -92h-24v154h111v-444z" />
    <glyph glyph-name="h" unicode="h" horiz-adv-x="595" 
d="M539 0h-112v288q0 67 -30 100t-81 33q-37 0 -69.5 -19t-52.5 -60t-20 -106v-236h-112v720h112v-375h-15q10 66 38.5 102.5t67.5 52t80 15.5q90 0 142 -55t52 -160v-300z" />
    <glyph glyph-name="i" unicode="i" horiz-adv-x="237" 
d="M174 0h-112v499h112v-499zM118 602q-29 0 -50 20t-21 48q0 30 21 50t50 20q30 0 50.5 -20t20.5 -49t-20.5 -49t-50.5 -20z" />
    <glyph glyph-name="j" unicode="j" horiz-adv-x="237" 
d="M-30 -194v93h36q30 0 43 13.5t13 43.5v543h112v-560q0 -133 -133 -133h-71zM118 602q-29 0 -50 20t-21 48q0 30 21 50t50 20q30 0 50.5 -20t20.5 -49t-20.5 -49t-50.5 -20z" />
    <glyph glyph-name="k" unicode="k" horiz-adv-x="585" 
d="M174 0h-112v720h112v-720zM573 0h-148l-279 259h10l249 240h139l-265 -250v19z" />
    <glyph glyph-name="l" unicode="l" horiz-adv-x="237" 
d="M174 0h-112v720h112v-720z" />
    <glyph glyph-name="m" unicode="m" horiz-adv-x="919" 
d="M863 0h-112v291q0 65 -27.5 97.5t-73.5 32.5q-34 0 -64 -19t-48.5 -59t-18.5 -104v-239h-112v291q0 65 -27.5 97.5t-73.5 32.5q-34 0 -64.5 -19t-49 -59t-18.5 -104v-239h-112v499h111v-115l-7 1q14 50 41 78t61 40t68 12q65 0 108 -35.5t57 -104.5l-13 -1q15 53 44.5 84
t67.5 44t76 13q88 0 137.5 -55t49.5 -160v-300z" />
    <glyph glyph-name="n" unicode="n" horiz-adv-x="595" 
d="M539 0h-112v288q0 67 -30 100t-81 33q-37 0 -69.5 -19t-52.5 -60t-20 -106v-236h-112v499h111v-154h-15q10 66 39 102.5t68 52t80 15.5q90 0 142 -55t52 -160v-300z" />
    <glyph glyph-name="o" unicode="o" horiz-adv-x="628" 
d="M314 -16q-79 0 -140.5 34t-96.5 94t-35 138q0 77 35 137t96.5 94t140.5 34q80 0 141.5 -34t96 -94t34.5 -137q0 -78 -34.5 -138t-96 -94t-141.5 -34zM314 78q47 0 82 22t54.5 60.5t19.5 89.5q0 50 -19.5 88.5t-54.5 60.5t-82 22q-46 0 -81 -22t-54.5 -60.5t-19.5 -88.5
q0 -51 19.5 -89.5t54.5 -60.5t81 -22z" />
    <glyph glyph-name="p" unicode="p" horiz-adv-x="645" 
d="M174 -194h-112v693h111v-154h-24q7 50 35 88t72 60t98 22q70 0 126.5 -34t89.5 -94t33 -137q0 -78 -33.5 -138t-90.5 -94t-129 -34q-66 0 -114 27.5t-72.5 75t-20.5 106.5l23 18q5 -39 27 -69t57 -47t76 -17q49 0 84.5 22t55.5 61t20 89q0 49 -19 88t-53.5 61t-81.5 22
q-46 0 -81.5 -22.5t-56 -62.5t-20.5 -94v-436z" />
    <glyph glyph-name="q" unicode="q" horiz-adv-x="645" 
d="M583 -194h-112v436q0 54 -20 94t-55.5 62.5t-81.5 22.5t-81 -22t-54.5 -61t-19.5 -88q0 -50 20 -89t56 -61t84 -22q42 0 76.5 17t56.5 47t27 69l23 -18q5 -59 -20 -106.5t-73 -75t-114 -27.5q-71 0 -128.5 34t-91 94t-33.5 138q0 77 33.5 137t90.5 94t127 34
q56 0 98.5 -21.5t70.5 -59.5t34 -89h-24v154h111v-693z" />
    <glyph glyph-name="r" unicode="r" horiz-adv-x="386" 
d="M358 508v-104h-24q-46 0 -82 -20t-57 -62t-21 -110v-212h-112v499h111v-161h-15q10 65 39 102t68 52.5t78 15.5h15z" />
    <glyph glyph-name="s" unicode="s" horiz-adv-x="532" 
d="M25 76l65 70q34 -35 80.5 -55t97.5 -20q52 0 83 19.5t31 50.5q0 28 -27.5 43.5t-97.5 24.5q-110 16 -159.5 50.5t-49.5 95.5q0 48 28 84t76 56t110 20q72 0 127.5 -24t96.5 -65l-65 -71q-31 34 -71 54t-87 20t-76 -18.5t-29 -47.5q0 -24 26.5 -36.5t93.5 -21.5
q110 -16 162 -52.5t52 -104.5q0 -49 -29 -86t-80 -57.5t-119 -20.5q-73 0 -134 24.5t-105 67.5z" />
    <glyph glyph-name="t" unicode="t" horiz-adv-x="410" 
d="M375 0h-123q-63 0 -95 32.5t-32 94.5v509h112v-492q0 -26 12 -38.5t38 -12.5h88v-93zM368 408h-336v91h336v-91z" />
    <glyph glyph-name="u" unicode="u" horiz-adv-x="593" 
d="M530 0h-111v96l-1 28v375h112v-499zM426 211l23 -19q3 -61 -22 -108t-70.5 -73.5t-106.5 -26.5q-88 0 -141 53t-53 153v309h112v-298q0 -60 30 -91.5t82 -31.5q37 0 68.5 17t52.5 47t25 69z" />
    <glyph glyph-name="v" unicode="v" horiz-adv-x="572" 
d="M341 0h-109l-214 499h117l168 -426h-31l169 426h113z" />
    <glyph glyph-name="w" unicode="w" horiz-adv-x="807" 
d="M632 0h-116l-127 400h29l-127 -400h-116l-157 499h112l123 -435h-32l135 435h99l135 -435h-32l122 435h109z" />
    <glyph glyph-name="x" unicode="x" horiz-adv-x="550" 
d="M139 0h-128l193 259l-176 240h127l120 -175l121 175h127l-176 -240l192 -259h-128l-136 191z" />
    <glyph glyph-name="y" unicode="y" horiz-adv-x="572" 
d="M441 499h113l-243 -568q-25 -61 -65 -93t-109 -32h-60v93h55q31 0 51.5 14.5t32.5 43.5l17 42l-215 500h117l172 -437h-39z" />
    <glyph glyph-name="z" unicode="z" horiz-adv-x="508" 
d="M471 0h-432v91l284 317h-274v91h412v-91l-284 -317h294v-91z" />
    <glyph glyph-name="trademark" unicode="&#x2122;" horiz-adv-x="905" 
d="M241 310h-86v338h86v-338zM367 642h-338v73h338v-73zM678 359h-63l-159 324l44 2v-375h-84v405h103l144 -297h-32l145 297h100v-405h-84v375l45 -2z" />
    <glyph glyph-name="ordfeminine" unicode="&#xaa;" horiz-adv-x="470" 
d="M413 310h-88v79l-4 13v148q0 42 -27.5 65.5t-74.5 23.5q-34 0 -63 -13.5t-51 -36.5l-53 59q31 31 75.5 49t95.5 18q86 0 138 -43.5t52 -119.5v-242zM190 298q-68 0 -109.5 35.5t-41.5 91.5q0 61 51 95t137 34h102v-64h-95q-43 0 -69.5 -15.5t-26.5 -45.5
q0 -27 20.5 -42.5t54.5 -15.5q47 0 80 29t37 74l27 -14q0 -48 -21.5 -84.5t-59 -57t-86.5 -20.5z" />
    <glyph glyph-name="ordmasculine" unicode="&#xba;" horiz-adv-x="519" 
d="M260 298q-64 0 -112.5 26.5t-76 74t-27.5 108.5t27.5 108t76 73.5t112.5 26.5q63 0 111.5 -26.5t76 -73.5t27.5 -108t-27.5 -108.5t-76 -74t-111.5 -26.5zM259 380q51 0 82.5 35.5t31.5 91.5q0 55 -31.5 90.5t-82.5 35.5q-50 0 -81.5 -35.5t-31.5 -90.5q0 -56 31.5 -91.5
t81.5 -35.5z" />
    <glyph glyph-name="copyright" unicode="&#xa9;" horiz-adv-x="852" 
d="M543 279l56 -58q-27 -34 -71 -55t-99 -21q-63 0 -111.5 27.5t-76 76t-27.5 109.5q0 63 28 111t77 75.5t112 27.5q55 0 98 -21t70 -56l-56 -56q-18 27 -46.5 42.5t-63.5 15.5q-36 0 -65.5 -18t-46 -49t-16.5 -72q0 -39 16.5 -70.5t46 -49.5t65.5 -18q35 0 63.5 15.5
t46.5 43.5zM426 -26q-79 0 -148.5 29.5t-121.5 82.5t-81.5 122.5t-29.5 149.5t29.5 149.5t81.5 122.5t121.5 82.5t148.5 29.5q80 0 149 -29.5t121 -82.5t81.5 -122.5t29.5 -149.5t-29.5 -149.5t-81.5 -122.5t-121 -82.5t-149 -29.5zM426 49q64 0 119.5 23.5t97 66t65 98.5
t23.5 121t-23.5 121t-65 98.5t-97 66t-119.5 23.5t-119.5 -23.5t-97 -66t-65 -98.5t-23.5 -121t23.5 -121t65 -98.5t97 -66t119.5 -23.5z" />
    <glyph glyph-name="registered" unicode="&#xae;" horiz-adv-x="528" 
d="M222 384h-47v220h99q39 0 63 -20.5t24 -51.5t-24 -51t-63 -20h-55v40h55q17 0 28 9t11 22q0 14 -11 22.5t-28 8.5h-52v-179zM380 384h-58l-81 89h56zM264 256q-63 0 -114.5 31.5t-82 84t-30.5 116.5t30.5 116.5t82 84t114.5 31.5t114 -31.5t82 -84t31 -116.5t-31 -116.5
t-82 -84t-114 -31.5zM264 317q47 0 84 21.5t58.5 60.5t21.5 89q0 51 -21.5 89.5t-58.5 60t-84 21.5t-84 -21.5t-58.5 -60t-21.5 -89.5q0 -50 21.5 -89t58.5 -60.5t84 -21.5z" />
    <glyph glyph-name="quoteleft" unicode="&#x2018;" horiz-adv-x="248" 
d="M129 747h69q-28 -34 -44.5 -75t-14.5 -69l-17 22q31 0 52 -20t21 -49q0 -30 -20 -50.5t-50 -20.5q-32 0 -53.5 23.5t-21.5 59.5q0 27 11 59.5t29 64t39 55.5z" />
    <glyph glyph-name="quoteright" unicode="&#x2019;" horiz-adv-x="248" 
d="M120 481h-69q27 35 44 75.5t15 69.5l16 -23q-31 0 -51.5 20.5t-20.5 49.5t20 49.5t49 20.5q33 0 54 -23t21 -60q0 -27 -11 -59.5t-29 -64t-38 -55.5z" />
    <glyph glyph-name="quotesinglbase" unicode="&#x201a;" horiz-adv-x="248" 
d="M120 -132h-69q27 35 44 75.5t15 69.5l16 -23q-31 0 -51.5 20.5t-20.5 49.5t20 49.5t49 20.5q33 0 54 -23t21 -60q0 -27 -11 -59.5t-29 -64t-38 -55.5z" />
    <glyph glyph-name="quotedblleft" unicode="&#x201c;" horiz-adv-x="420" 
d="M129 747h69q-28 -34 -44.5 -75t-14.5 -69l-17 22q31 0 52 -20t21 -49q0 -30 -20 -50.5t-50 -20.5q-32 0 -53.5 23.5t-21.5 59.5q0 27 11 59.5t29 64t39 55.5zM301 747h69q-28 -34 -44.5 -75t-14.5 -69l-17 22q31 0 52 -20t21 -49q0 -30 -20 -50.5t-50 -20.5
q-32 0 -53.5 23.5t-21.5 59.5q0 27 11 59.5t29 64t39 55.5z" />
    <glyph glyph-name="quotedblright" unicode="&#x201d;" horiz-adv-x="420" 
d="M120 481h-69q27 35 44 75.5t15 69.5l16 -23q-31 0 -51.5 20.5t-20.5 49.5t20 49.5t49 20.5q33 0 54 -23t21 -60q0 -27 -11 -59.5t-29 -64t-38 -55.5zM292 481h-69q27 35 44 75.5t15 69.5l16 -23q-31 0 -51.5 20.5t-20.5 49.5t20 49.5t49 20.5q33 0 54 -23t21 -60
q0 -27 -11 -59.5t-29 -64t-38 -55.5z" />
    <glyph glyph-name="quotedblbase" unicode="&#x201e;" horiz-adv-x="420" 
d="M120 -132h-69q27 35 44 75.5t15 69.5l16 -23q-31 0 -51.5 20.5t-20.5 49.5t20 49.5t49 20.5q33 0 54 -23t21 -60q0 -27 -11 -59.5t-29 -64t-38 -55.5zM292 -132h-69q27 35 44 75.5t15 69.5l16 -23q-31 0 -51.5 20.5t-20.5 49.5t20 49.5t49 20.5q33 0 54 -23t21 -60
q0 -27 -11 -59.5t-29 -64t-38 -55.5z" />
    <glyph glyph-name="periodcentered.loclCAT" horiz-adv-x="188" 
d="M168 366q0 -30 -21.5 -51t-52.5 -21q-30 0 -51.5 21t-21.5 51t21.5 51t51.5 21q31 0 52.5 -21t21.5 -51z" />
    <glyph glyph-name="periodcentered.loclCAT.cap" 
d="M-79 366q0 -30 -21.5 -51t-52.5 -21q-30 0 -51.5 21t-21.5 51t21.5 51t51.5 21q31 0 52.5 -21t21.5 -51z" />
    <glyph glyph-name="dotlessi" unicode="&#x131;" horiz-adv-x="237" 
d="M174 0h-112v499h112v-499z" />
    <glyph glyph-name="uni0237" unicode="&#x237;" horiz-adv-x="237" 
d="M-30 -194v93h36q30 0 43 13.5t13 43.5v543h112v-560q0 -133 -133 -133h-71z" />
    <glyph glyph-name="IJ" unicode="&#x132;" horiz-adv-x="698" 
d="M184 337h-115v378h115v-378zM629 715v-439q0 -140 -72.5 -216t-208.5 -76q-80 0 -140.5 30t-95.5 86.5t-42 135.5l114 14q9 -80 50.5 -122t113.5 -42q81 0 123.5 49t42.5 141v439h115z" />
    <glyph glyph-name="Thorn" unicode="&#xde;" horiz-adv-x="653" 
d="M181 471v98h181q74 0 130 -26.5t87.5 -74t31.5 -111.5q0 -63 -31.5 -111t-87.5 -74.5t-130 -26.5h-181v98h181q61 0 96.5 30.5t35.5 83.5t-35.5 83.5t-96.5 30.5h-181zM191 0h-115v715h115v-715z" />
    <glyph glyph-name="AE" unicode="&#xc6;" horiz-adv-x="1067" 
d="M589 715l-444 -715h-124l456 715h112zM577 172h-350v98h350v-98zM1022 0h-493v715h493v-98h-378v-519h378v-98zM1003 314h-369v98h369v-98z" />
    <glyph glyph-name="OE" unicode="&#x152;" horiz-adv-x="1225" 
d="M424 -16q-80 0 -147.5 28t-118 78.5t-78.5 119t-28 148.5t28 148t78.5 118.5t118 78.5t147.5 28q77 0 141.5 -28t111.5 -78.5t73 -118.5t26 -148t-26 -148.5t-73 -119t-111.5 -78.5t-141.5 -28zM430 86q76 0 134 35t91 96.5t33 140.5t-33 140t-91 96t-134 35
q-75 0 -133.5 -35t-91.5 -96t-33 -140t33 -140.5t91.5 -96.5t133.5 -35zM1180 0h-492v715h492v-98h-377v-519h377v-98zM1161 314h-368v98h368v-98z" />
    <glyph glyph-name="uni1E9E" unicode="&#x1e9e;" horiz-adv-x="767" 
d="M246 71l70 79q30 -32 70 -52t89 -20q45 0 78.5 17.5t52.5 47.5t19 68q0 58 -39.5 94.5t-103.5 36.5q-25 0 -46.5 -6.5t-41.5 -22.5l-65 58l258 288l40 -38h-249q-94 0 -144.5 -52.5t-50.5 -151.5v-417h-115v417q0 140 82 219t228 79h301v-93l-194 -217l-26 12
q53 12 103.5 1t91 -39.5t64 -72t23.5 -97.5q0 -62 -34.5 -113.5t-94.5 -81.5t-137 -30q-67 0 -126.5 23.5t-102.5 63.5z" />
    <glyph glyph-name="Eng" unicode="&#x14a;" horiz-adv-x="751" 
d="M229 -147l61 90q26 -24 58.5 -34.5t66.5 -10.5q73 0 111 44.5t38 135.5v637h112v-637q0 -140 -67.5 -211t-193.5 -71q-58 0 -106 15t-80 42zM187 0h-112v715h122l419 -602l-50 -113l-419 602h40v-602z" />
    <glyph glyph-name="Eth" unicode="&#xd0;" horiz-adv-x="750" 
d="M76 0v715h243q114 0 199.5 -46t133 -126.5t47.5 -184.5t-47.5 -185t-133 -127t-199.5 -46h-243zM191 99h128q80 0 138.5 32.5t90 90.5t31.5 136t-31.5 136t-90 90t-138.5 32h-128v-517zM367 314h-359v98h359v-98z" />
    <glyph glyph-name="Dcroat" unicode="&#x110;" horiz-adv-x="750" 
d="M76 0v715h243q114 0 199.5 -46t133 -126.5t47.5 -184.5t-47.5 -185t-133 -127t-199.5 -46h-243zM191 99h128q80 0 138.5 32.5t90 90.5t31.5 136t-31.5 136t-90 90t-138.5 32h-128v-517zM367 314h-359v98h359v-98z" />
    <glyph glyph-name="Hbar" unicode="&#x126;" horiz-adv-x="757" 
d="M562 0v715h115v-715h-115zM195 0h-115v715h115v-715zM185 319v99h387v-99h-387zM742 521h-727v94h727v-94z" />
    <glyph glyph-name="Tbar" unicode="&#x166;" horiz-adv-x="640" 
d="M377 0h-115v626h115v-626zM606 616h-572v99h572v-99zM536 314h-432v98h432v-98z" />
    <glyph glyph-name="Lslash" unicode="&#x141;" horiz-adv-x="612" 
d="M578 0h-463v715h115v-615h348v-100zM437 429l-375 -236l-50 81l375 236z" />
    <glyph glyph-name="Oslash" unicode="&#xd8;" horiz-adv-x="860" 
d="M430 -16q-82 0 -151 28t-120 78.5t-79 119t-28 148.5t28 148t79 118.5t120 78.5t151 28t151 -28t120 -78.5t79 -118.5t28 -148t-28 -148.5t-79 -119t-120 -78.5t-151 -28zM430 86q76 0 134 35t91 96.5t33 140.5t-33 140t-91 96t-134 35q-75 0 -133.5 -35t-91.5 -96
t-33 -140t33 -140.5t91.5 -96.5t133.5 -35zM109 -26l-67 68l708 699l68 -68z" />
    <glyph glyph-name="ij" unicode="&#x133;" horiz-adv-x="474" 
d="M207 -194v93h36q30 0 43 13.5t13 43.5v543h112v-560q0 -133 -133 -133h-71zM355 602q-29 0 -50 20t-21 48q0 30 21 50t50 20q30 0 50.5 -20t20.5 -49t-20.5 -49t-50.5 -20zM174 0h-112v499h112v-499zM118 602q-29 0 -50 20t-21 48q0 30 21 50t50 20q30 0 50.5 -20
t20.5 -49t-20.5 -49t-50.5 -20z" />
    <glyph glyph-name="thorn" unicode="&#xfe;" horiz-adv-x="645" 
d="M174 -194h-112v914h112v-375h-24q7 50 34.5 88t71.5 60t98 22q70 0 126.5 -34t89.5 -94t33 -137q0 -78 -33.5 -138t-90.5 -94t-129 -34q-66 0 -114 27.5t-72.5 75t-20.5 106.5l23 18q5 -39 27 -69t57 -47t76 -17q49 0 84.5 22t55.5 61t20 89q0 49 -19 88t-53.5 61
t-81.5 22q-46 0 -81.5 -22.5t-56 -62.5t-20.5 -94v-436z" />
    <glyph glyph-name="ae" unicode="&#xe6;" horiz-adv-x="967" 
d="M850 151l64 -70q-39 -45 -97 -71t-129 -26q-82 0 -145 34t-98.5 94t-35.5 137q0 78 34 138t93.5 94t135.5 34q73 0 129.5 -33.5t89.5 -92t33 -135.5v-6h-112v11q0 50 -18 87.5t-50 58t-75 20.5q-45 0 -79.5 -21.5t-54 -60t-19.5 -92.5t22.5 -94t62.5 -61.5t92 -21.5
q94 0 157 77zM924 221h-445v75h428l17 -43v-32zM494 258h-91v38q0 60 -36.5 95t-97.5 35q-45 0 -83.5 -18t-66.5 -50l-64 70q41 41 96 64t122 23q66 0 115.5 -26.5t77.5 -75t28 -115.5v-40zM241 -16q-60 0 -105.5 20.5t-71.5 56.5t-26 83q0 50 29.5 84.5t82 51.5t122.5 17
h163v-75h-153q-57 0 -93 -17t-36 -56q0 -35 30.5 -57t77.5 -22q43 0 81 16t63.5 44.5t29.5 66.5l71 -17q-7 -56 -42.5 -100.5t-92.5 -70t-130 -25.5z" />
    <glyph glyph-name="oe" unicode="&#x153;" horiz-adv-x="1031" 
d="M309 -16q-77 0 -137.5 34t-95 94t-34.5 138q0 77 34.5 137t95 94t137.5 34q76 0 133.5 -34t89.5 -94t32 -137q0 -78 -32 -138t-89.5 -94t-133.5 -34zM314 78q47 0 82 22t54.5 60.5t19.5 89.5q0 50 -19.5 88.5t-54.5 60.5t-82 22q-46 0 -81 -22t-54.5 -60.5t-19.5 -88.5
q0 -51 19.5 -89.5t54.5 -60.5t81 -22zM914 151l64 -70q-39 -45 -97 -71t-129 -26q-80 0 -141.5 34t-96 94t-34.5 137q0 78 33.5 138t91.5 94t131 34t129.5 -33.5t89.5 -92t33 -135.5v-6h-112v11q0 50 -18 87.5t-50 58t-75 20.5q-45 0 -79.5 -21.5t-54 -60t-19.5 -92.5
t22.5 -94t62.5 -61.5t92 -21.5q94 0 157 77zM988 214h-445v76h428l17 -37v-39z" />
    <glyph glyph-name="germandbls" unicode="&#xdf;" horiz-adv-x="639" 
d="M168 0h-112v466q0 85 33.5 144t91 90t129.5 31q69 0 121 -26.5t81 -70.5t29 -98q0 -52 -29 -93.5t-82 -65.5t-128 -24h-3v50h40q73 0 131.5 -25.5t93.5 -73t35 -115.5q0 -61 -28 -107t-77.5 -72t-114.5 -26q-29 0 -60 6.5t-57.5 18.5t-44.5 29l51 78q20 -21 47.5 -31
t56.5 -10q49 0 81 31.5t32 83.5q0 43 -23 73.5t-59 46.5t-78 16h-45v93h22q55 0 90 32t35 83q0 46 -30 75.5t-85 29.5q-63 0 -103.5 -45t-40.5 -139v-455z" />
    <glyph glyph-name="eng" unicode="&#x14b;" horiz-adv-x="595" 
d="M334 -194v93h36q30 0 43.5 13.5t13.5 43.5v332q0 67 -30 100t-81 33q-37 0 -69.5 -19t-52.5 -60t-20 -106v-236h-112v499h111v-154h-15q10 66 39 102.5t68 52t80 15.5q90 0 142 -55t52 -160v-361q0 -133 -134 -133h-71z" />
    <glyph glyph-name="eth" unicode="&#xf0;" horiz-adv-x="628" 
d="M511 238h-27q0 113 -32.5 202t-99.5 160t-171 131l88 38q101 -51 171.5 -125.5t108 -165.5t37.5 -195q0 -98 -35.5 -164.5t-96.5 -100.5t-140 -34q-78 0 -139.5 33.5t-97 91t-35.5 129.5q0 73 35 129t93.5 88.5t130.5 32.5t118.5 -33t69 -89.5t22.5 -127.5zM314 78
q46 0 81 21t55 57t20 82q0 47 -20 82.5t-55 56t-81 20.5t-81 -20.5t-54.5 -56t-19.5 -82.5q0 -46 19.5 -82t54.5 -57t81 -21zM528 665l-315 -139l-33 77l314 139z" />
    <glyph glyph-name="dcroat" unicode="&#x111;" horiz-adv-x="677" 
d="M583 0h-111v124l-1 5v101q0 54 -20 94t-55.5 62.5t-81.5 22.5t-81.5 -21.5t-54.5 -59t-19 -84.5q0 -49 20.5 -86t56.5 -58.5t83 -21.5q42 0 76.5 17t56.5 47t27 69l23 -18q5 -59 -20 -106.5t-73 -75t-114 -27.5q-71 0 -128.5 33t-91 91.5t-33.5 135.5q0 75 33.5 133.5
t90.5 92t127 33.5q56 0 99.5 -21.5t71 -59.5t34.5 -89h-27v387h112v-720zM664 559h-350v84h350v-84z" />
    <glyph glyph-name="hbar" unicode="&#x127;" horiz-adv-x="627" 
d="M363 559h-350v84h350v-84zM571 0h-112v276q0 67 -30 100t-81 33q-37 0 -69.5 -19t-52.5 -60t-20 -106v-224h-112v720h112v-387h-15q10 66 38.5 102.5t67.5 52t80 15.5q90 0 142 -55t52 -160v-288z" />
    <glyph glyph-name="tbar" unicode="&#x167;" horiz-adv-x="410" 
d="M375 0h-123q-63 0 -95 32.5t-32 94.5v509h112v-492q0 -26 12 -38.5t38 -12.5h88v-93zM368 408h-336v91h336v-91zM368 229h-336v84h336v-84z" />
    <glyph glyph-name="lslash" unicode="&#x142;" horiz-adv-x="355" 
d="M223 0h-112v720h112v-720zM350 434l-305 -190l-40 70l304 190z" />
    <glyph glyph-name="oslash" unicode="&#xf8;" horiz-adv-x="632" 
d="M316 -16q-80 0 -141.5 34t-96 94t-34.5 138q0 77 34.5 137t96 94t141.5 34t141 -34t96 -94t35 -137q0 -78 -35 -138t-96 -94t-141 -34zM316 78q46 0 81 22t54.5 60.5t19.5 89.5q0 50 -19.5 88.5t-54.5 60.5t-81 22t-81 -22t-55 -60.5t-20 -88.5q0 -51 20 -89.5t55 -60.5
t81 -22zM85 -29l-55 54l516 504l55 -55z" />
    <glyph glyph-name="kgreenlandic" unicode="&#x138;" horiz-adv-x="585" 
d="M174 0h-112v499h112v-499zM573 0h-148l-279 259h10l249 240h139l-265 -250v19z" />
    <glyph glyph-name="uni0327" unicode="&#x327;" 
d="M-135 -221l37 58q13 -12 32 -20t40 -8q23 0 37.5 11t14.5 29q0 19 -16 31t-44 12q-9 0 -20 -1.5t-22 -4.5l35 124h67l-27 -92l-33 36q39 1 71 -12t51 -36t19 -55q0 -46 -36 -78t-100 -32q-32 0 -58.5 10.5t-47.5 27.5z" />
    <glyph glyph-name="uni0327.cap" 
d="M-121 -221l38 60q13 -13 32 -20.5t39 -7.5q23 0 37 10.5t14 28.5q0 17 -15.5 28.5t-44.5 11.5q-9 0 -20 -1.5t-22 -4.5l30 126h66l-20 -93l-33 37q40 1 72.5 -11.5t51.5 -36t19 -54.5q0 -47 -36 -79t-102 -32q-31 0 -58 10t-48 28z" />
    <glyph glyph-name="cedilla" unicode="&#xb8;" horiz-adv-x="595" 
d="M157 -221l37 58q13 -12 32 -20t40 -8q23 0 37.5 11t14.5 29q0 19 -16 31t-44 12q-9 0 -20 -1.5t-22 -4.5l35 124h67l-27 -92l-33 36q39 1 71 -12t51 -36t19 -55q0 -46 -36 -78t-100 -32q-32 0 -58.5 10.5t-47.5 27.5z" />
    <glyph glyph-name="uni0326" unicode="&#x326;" 
d="M-5 -284h-61q22 27 35.5 58.5t11.5 52.5l19 -21q-25 0 -43 16.5t-18 39.5t16.5 39.5t39.5 16.5q28 0 44.5 -18.5t16.5 -47.5q0 -20 -8.5 -45t-22.5 -49t-30 -42z" />
    <glyph glyph-name="uni0326.cap" 
d="M-3 -284h-65q22 27 35.5 58.5t11.5 52.5l19 -21q-25 0 -43 16.5t-18 39.5t16.5 39.5t41.5 16.5q29 0 46 -18.5t17 -47.5q0 -20 -8.5 -45t-22.5 -49t-30 -42z" />
    <glyph glyph-name="uni0312" unicode="&#x312;" 
d="M2 777h61q-21 -27 -34.5 -58.5t-12.5 -52.5l-19 21q26 0 44 -16t18 -40q0 -23 -16.5 -39.5t-40.5 -16.5q-27 0 -44 18.5t-17 47.5q0 21 9 45.5t23 48.5t29 42z" />
    <glyph glyph-name="uni0328" unicode="&#x328;" 
d="M116 -167v-79q-11 -2 -21 -3t-21 -1q-58 0 -96.5 29t-38.5 84q0 44 27 83t85 76l65 -22q-47 -29 -68 -58.5t-21 -57.5t17.5 -41.5t42.5 -13.5q5 0 13 1t16 3z" />
    <glyph glyph-name="uni0328.cap" 
d="M116 -165v-82q-11 -2 -21.5 -3t-20.5 -1q-59 0 -98 30.5t-39 87.5q0 43 26 82.5t78 72.5l75 -22q-46 -23 -67 -52.5t-21 -58.5t17.5 -43.5t41.5 -14.5q5 0 13 1t16 3z" />
    <glyph glyph-name="uni0328.round" 
d="M116 -167v-79q-11 -2 -21 -3t-21 -1q-58 0 -96.5 29.5t-38.5 84.5q0 52 36.5 100.5t106.5 88.5l48 -8q-54 -45 -78.5 -84.5t-24.5 -72.5q0 -30 17.5 -44.5t42.5 -14.5q5 0 13 1t16 3z" />
    <glyph glyph-name="uni0328.round.cap" 
d="M107 -165v-82q-10 -2 -20.5 -3t-21.5 -1q-59 0 -98 30.5t-39 87.5q0 43 27.5 81t91.5 74l79 1q-55 -29 -81 -63t-26 -70q0 -29 17 -44t42 -15q5 0 13 1t16 3z" />
    <glyph glyph-name="ogonek" unicode="&#x2db;" horiz-adv-x="595" 
d="M408 -167v-79q-11 -2 -21 -3t-21 -1q-58 0 -96.5 29t-38.5 84q0 44 27 83t85 76l65 -22q-47 -29 -68 -58.5t-21 -57.5t17.5 -41.5t42.5 -13.5q5 0 13 1t16 3z" />
    <glyph glyph-name="Ccedilla" unicode="&#xc7;" horiz-adv-x="748" 
d="M634 196l77 -77q-47 -62 -122.5 -98.5t-166.5 -36.5q-81 0 -148.5 28t-117 78t-77 118.5t-27.5 148.5q0 81 28 149.5t78.5 118.5t118.5 78t148 28q91 0 165 -36.5t121 -98.5l-77 -77q-35 51 -88 80.5t-121 29.5q-72 0 -129 -35.5t-90 -96.5t-33 -140q0 -78 33 -139
t90 -96.5t129 -35.5q68 0 121 30t88 80zM300 -221l38 60q13 -13 32 -20.5t39 -7.5q23 0 37 10.5t14 28.5q0 17 -15.5 28.5t-44.5 11.5q-9 0 -20 -1.5t-22 -4.5l30 126h66l-20 -93l-33 37q40 1 72.5 -11.5t51.5 -36t19 -54.5q0 -47 -36 -79t-102 -32q-31 0 -58 10t-48 28z
" />
    <glyph glyph-name="Scedilla" unicode="&#x15e;" horiz-adv-x="692" 
d="M39 117l80 78q27 -34 64.5 -59t81 -38t91.5 -13q52 0 90.5 14t60.5 40t22 60q0 46 -41.5 73t-145.5 43q-97 14 -157 40t-87.5 66t-27.5 94q0 64 35.5 112.5t98 76t143.5 27.5q94 0 166.5 -36t124.5 -96l-78 -78q-39 51 -91.5 80.5t-120.5 29.5q-71 0 -116 -30t-45 -80
q0 -27 17 -45.5t56.5 -31.5t105.5 -23q99 -15 160.5 -43t90.5 -71t29 -103q0 -66 -37 -115.5t-103 -77t-152 -27.5q-101 0 -180 36t-135 97zM234 -221l38 60q13 -13 32 -20.5t39 -7.5q23 0 37 10.5t14 28.5q0 17 -15.5 28.5t-44.5 11.5q-9 0 -20 -1.5t-22 -4.5l30 126h66
l-20 -93l-33 37q40 1 72.5 -11.5t51.5 -36t19 -54.5q0 -47 -36 -79t-102 -32q-31 0 -58 10t-48 28z" />
    <glyph glyph-name="uni0162" unicode="&#x162;" horiz-adv-x="640" 
d="M377 0h-115v626h115v-626zM606 616h-572v99h572v-99zM199 -221l38 60q13 -13 32 -20.5t39 -7.5q23 0 37 10.5t14 28.5q0 17 -15.5 28.5t-44.5 11.5q-9 0 -20 -1.5t-22 -4.5l30 126h66l-20 -93l-33 37q40 1 72.5 -11.5t51.5 -36t19 -54.5q0 -47 -36 -79t-102 -32
q-31 0 -58 10t-48 28z" />
    <glyph glyph-name="uni0122" unicode="&#x122;" horiz-adv-x="806" 
d="M749 0h-107v101l12 -5q-35 -53 -96.5 -82.5t-137.5 -29.5q-79 0 -146 27.5t-117 77.5t-77.5 118.5t-27.5 150.5q0 80 28 148t79 118.5t120 78.5t150 28q94 0 170.5 -36.5t124.5 -98.5l-77 -77q-36 51 -91.5 80.5t-126.5 29.5q-74 0 -132.5 -35.5t-91.5 -96.5t-33 -139
q0 -79 33.5 -141t92 -97t134.5 -35q75 0 133.5 32.5t84.5 90.5l-9 -39v121h-218v94h326v-384zM425 -284h-65q22 27 35.5 58.5t11.5 52.5l19 -21q-25 0 -43 16.5t-18 39.5t16.5 39.5t41.5 16.5q29 0 46 -18.5t17 -47.5q0 -20 -8.5 -45t-22.5 -49t-30 -42z" />
    <glyph glyph-name="uni0136" unicode="&#x136;" horiz-adv-x="721" 
d="M191 0h-115v715h115v-715zM706 0h-161l-379 371h15l337 344h146l-360 -358v28zM358 -284h-65q22 27 35.5 58.5t11.5 52.5l19 -21q-25 0 -43 16.5t-18 39.5t16.5 39.5t41.5 16.5q29 0 46 -18.5t17 -47.5q0 -20 -8.5 -45t-22.5 -49t-30 -42z" />
    <glyph glyph-name="uni013B" unicode="&#x13b;" horiz-adv-x="572" 
d="M538 0h-462v715h115v-615h347v-100zM304 -284h-65q22 27 35.5 58.5t11.5 52.5l19 -21q-25 0 -43 16.5t-18 39.5t16.5 39.5t41.5 16.5q29 0 46 -18.5t17 -47.5q0 -20 -8.5 -45t-22.5 -49t-30 -42z" />
    <glyph glyph-name="uni0145" unicode="&#x145;" horiz-adv-x="751" 
d="M187 0h-112v715h122l406 -602h-39v602h112v-715h-122l-407 602h40v-602zM372 -284h-65q22 27 35.5 58.5t11.5 52.5l19 -21q-25 0 -43 16.5t-18 39.5t16.5 39.5t41.5 16.5q29 0 46 -18.5t17 -47.5q0 -20 -8.5 -45t-22.5 -49t-30 -42z" />
    <glyph glyph-name="uni0218" unicode="&#x218;" horiz-adv-x="692" 
d="M39 117l80 78q27 -34 64.5 -59t81 -38t91.5 -13q52 0 90.5 14t60.5 40t22 60q0 46 -41.5 73t-145.5 43q-97 14 -157 40t-87.5 66t-27.5 94q0 64 35.5 112.5t98 76t143.5 27.5q94 0 166.5 -36t124.5 -96l-78 -78q-39 51 -91.5 80.5t-120.5 29.5q-71 0 -116 -30t-45 -80
q0 -27 17 -45.5t56.5 -31.5t105.5 -23q99 -15 160.5 -43t90.5 -71t29 -103q0 -66 -37 -115.5t-103 -77t-152 -27.5q-101 0 -180 36t-135 97zM352 -284h-65q22 27 35.5 58.5t11.5 52.5l19 -21q-25 0 -43 16.5t-18 39.5t16.5 39.5t41.5 16.5q29 0 46 -18.5t17 -47.5
q0 -20 -8.5 -45t-22.5 -49t-30 -42z" />
    <glyph glyph-name="uni021A" unicode="&#x21a;" horiz-adv-x="640" 
d="M377 0h-115v626h115v-626zM606 616h-572v99h572v-99zM317 -284h-65q22 27 35.5 58.5t11.5 52.5l19 -21q-25 0 -43 16.5t-18 39.5t16.5 39.5t41.5 16.5q29 0 46 -18.5t17 -47.5q0 -20 -8.5 -45t-22.5 -49t-30 -42z" />
    <glyph glyph-name="Aogonek" unicode="&#x104;" horiz-adv-x="756" 
d="M582 172h-412v98h412v-98zM724 0h-122l-245 637h38l-245 -637h-118l283 715h126zM704 -165v-82q-11 -2 -21.5 -3t-20.5 -1q-59 0 -98 30.5t-39 87.5q0 43 26 82.5t78 72.5l75 -22q-46 -23 -67 -52.5t-21 -58.5t17.5 -43.5t41.5 -14.5q5 0 13 1t16 3z" />
    <glyph glyph-name="Eogonek" unicode="&#x118;" horiz-adv-x="613" 
d="M568 0h-492v715h492v-98h-377v-519h377v-98zM549 314h-368v98h368v-98zM568 -165v-82q-11 -2 -21.5 -3t-20.5 -1q-59 0 -98 30.5t-39 87.5q0 43 26 82.5t78 72.5l75 -22q-46 -23 -67 -52.5t-21 -58.5t17.5 -43.5t41.5 -14.5q5 0 13 1t16 3z" />
    <glyph glyph-name="Iogonek" unicode="&#x12e;" horiz-adv-x="267" 
d="M191 0h-115v715h115v-715zM191 -165v-82q-11 -2 -21.5 -3t-20.5 -1q-59 0 -98 30.5t-39 87.5q0 43 26 82.5t78 72.5l75 -22q-46 -23 -67 -52.5t-21 -58.5t17.5 -43.5t41.5 -14.5q5 0 13 1t16 3z" />
    <glyph glyph-name="Uogonek" unicode="&#x172;" horiz-adv-x="734" 
d="M666 715v-433q0 -141 -79.5 -219.5t-219.5 -78.5q-139 0 -219 78.5t-80 219.5v433h115v-433q0 -92 48.5 -144t135.5 -52q88 0 136.5 52t48.5 144v433h114zM515 -165v-82q-10 -2 -20.5 -3t-21.5 -1q-59 0 -98 30.5t-39 87.5q0 43 27.5 81t91.5 74l79 1q-55 -29 -81 -63
t-26 -70q0 -29 17 -44t42 -15q5 0 13 1t16 3z" />
    <glyph glyph-name="ccedilla" unicode="&#xe7;" horiz-adv-x="559" 
d="M453 153l72 -70q-37 -46 -91 -72.5t-124 -26.5q-77 0 -137.5 34.5t-95.5 94t-35 137.5q0 77 35 136.5t96.5 94t139.5 34.5q68 0 121.5 -26t90.5 -73l-72 -70q-22 34 -55.5 54.5t-80.5 20.5q-46 0 -82 -22t-56 -60.5t-20 -88.5t20 -89t56 -61t82 -22q47 0 80.5 21t55.5 54
zM178 -221l37 58q13 -12 32 -20t40 -8q23 0 37.5 11t14.5 29q0 19 -16 31t-44 12q-9 0 -20 -1.5t-22 -4.5l35 124h67l-27 -92l-33 36q39 1 71 -12t51 -36t19 -55q0 -46 -36 -78t-100 -32q-32 0 -58.5 10.5t-47.5 27.5z" />
    <glyph glyph-name="scedilla" unicode="&#x15f;" horiz-adv-x="532" 
d="M25 76l65 70q34 -35 80.5 -55t97.5 -20q52 0 83 19.5t31 50.5q0 28 -27.5 43.5t-97.5 24.5q-110 16 -159.5 50.5t-49.5 95.5q0 48 28 84t76 56t110 20q72 0 127.5 -24t96.5 -65l-65 -71q-31 34 -71 54t-87 20t-76 -18.5t-29 -47.5q0 -24 26.5 -36.5t93.5 -21.5
q110 -16 162 -52.5t52 -104.5q0 -49 -29 -86t-80 -57.5t-119 -20.5q-73 0 -134 24.5t-105 67.5zM127 -221l37 58q13 -12 32 -20t40 -8q23 0 37.5 11t14.5 29q0 19 -16 31t-44 12q-9 0 -20 -1.5t-22 -4.5l35 124h67l-27 -92l-33 36q39 1 71 -12t51 -36t19 -55q0 -46 -36 -78
t-100 -32q-32 0 -58.5 10.5t-47.5 27.5z" />
    <glyph glyph-name="uni0163" unicode="&#x163;" horiz-adv-x="410" 
d="M375 0h-123q-63 0 -95 32.5t-32 94.5v509h112v-492q0 -26 12 -38.5t38 -12.5h88v-93zM368 408h-336v91h336v-91zM127 -221l37 58q13 -12 32 -20t40 -8q23 0 37.5 11t14.5 29q0 19 -16 31t-44 12q-9 0 -20 -1.5t-22 -4.5l35 124h67l-27 -92l-33 36q39 1 71 -12t51 -36
t19 -55q0 -46 -36 -78t-100 -32q-32 0 -58.5 10.5t-47.5 27.5z" />
    <glyph glyph-name="uni0123" unicode="&#x123;" horiz-adv-x="645" 
d="M583 55q0 -79 -36 -138.5t-98.5 -93t-143.5 -33.5q-71 0 -131 23.5t-99 64.5l65 75q29 -33 68.5 -51.5t91.5 -18.5t90.5 21t59.5 58t21 88v192q0 59 -22 98.5t-57 60t-78 20.5q-46 0 -81 -22t-54.5 -59.5t-19.5 -84.5q0 -48 20 -85t56 -58t84 -21q41 0 75.5 16.5t57 46.5
t27.5 69l24 -18q5 -59 -20.5 -106.5t-74 -75t-113.5 -27.5q-71 0 -128.5 32.5t-91 91t-33.5 134.5q0 77 34 135.5t91 92t126 33.5q53 0 95.5 -20t71 -58t36.5 -92h-24v154h111v-444zM317 777h61q-21 -27 -34.5 -58.5t-12.5 -52.5l-19 21q26 0 44 -16t18 -40
q0 -23 -16.5 -39.5t-40.5 -16.5q-27 0 -44 18.5t-17 47.5q0 21 9 45.5t23 48.5t29 42z" />
    <glyph glyph-name="uni0137" unicode="&#x137;" horiz-adv-x="585" 
d="M174 0h-112v720h112v-720zM573 0h-148l-279 259h10l249 240h139l-265 -250v19zM301 -284h-61q22 27 35.5 58.5t11.5 52.5l19 -21q-25 0 -43 16.5t-18 39.5t16.5 39.5t39.5 16.5q28 0 44.5 -18.5t16.5 -47.5q0 -20 -8.5 -45t-22.5 -49t-30 -42z" />
    <glyph glyph-name="uni013C" unicode="&#x13c;" horiz-adv-x="237" 
d="M174 0h-112v720h112v-720zM113 -284h-61q22 27 35.5 58.5t11.5 52.5l19 -21q-25 0 -43 16.5t-18 39.5t16.5 39.5t39.5 16.5q28 0 44.5 -18.5t16.5 -47.5q0 -20 -8.5 -45t-22.5 -49t-30 -42z" />
    <glyph glyph-name="uni0146" unicode="&#x146;" horiz-adv-x="595" 
d="M539 0h-112v288q0 67 -30 100t-81 33q-37 0 -69.5 -19t-52.5 -60t-20 -106v-236h-112v499h111v-154h-15q10 66 39 102.5t68 52t80 15.5q90 0 142 -55t52 -160v-300zM295 -284h-61q22 27 35.5 58.5t11.5 52.5l19 -21q-25 0 -43 16.5t-18 39.5t16.5 39.5t39.5 16.5
q28 0 44.5 -18.5t16.5 -47.5q0 -20 -8.5 -45t-22.5 -49t-30 -42z" />
    <glyph glyph-name="uni0219" unicode="&#x219;" horiz-adv-x="532" 
d="M25 76l65 70q34 -35 80.5 -55t97.5 -20q52 0 83 19.5t31 50.5q0 28 -27.5 43.5t-97.5 24.5q-110 16 -159.5 50.5t-49.5 95.5q0 48 28 84t76 56t110 20q72 0 127.5 -24t96.5 -65l-65 -71q-31 34 -71 54t-87 20t-76 -18.5t-29 -47.5q0 -24 26.5 -36.5t93.5 -21.5
q110 -16 162 -52.5t52 -104.5q0 -49 -29 -86t-80 -57.5t-119 -20.5q-73 0 -134 24.5t-105 67.5zM257 -284h-61q22 27 35.5 58.5t11.5 52.5l19 -21q-25 0 -43 16.5t-18 39.5t16.5 39.5t39.5 16.5q28 0 44.5 -18.5t16.5 -47.5q0 -20 -8.5 -45t-22.5 -49t-30 -42z" />
    <glyph glyph-name="uni021B" unicode="&#x21b;" horiz-adv-x="410" 
d="M375 0h-123q-63 0 -95 32.5t-32 94.5v509h112v-492q0 -26 12 -38.5t38 -12.5h88v-93zM368 408h-336v91h336v-91zM257 -284h-61q22 27 35.5 58.5t11.5 52.5l19 -21q-25 0 -43 16.5t-18 39.5t16.5 39.5t39.5 16.5q28 0 44.5 -18.5t16.5 -47.5q0 -20 -8.5 -45t-22.5 -49
t-30 -42z" />
    <glyph glyph-name="aogonek" unicode="&#x105;" horiz-adv-x="566" 
d="M511 0h-103v99l-5 21v187q0 56 -36 87.5t-98 31.5q-45 0 -83.5 -18t-66.5 -50l-64 70q41 41 96 64t122 23q71 0 124.5 -24.5t83.5 -70.5t30 -110v-310zM231 -16q-57 0 -101 21t-68 57t-24 84q0 52 30 88.5t83.5 56t123.5 19.5h140v-77h-130q-59 0 -95.5 -21t-36.5 -62
q0 -37 28 -58.5t73 -21.5q43 0 79 18t57.5 49.5t24.5 72.5l36 -17q0 -61 -28 -108.5t-78 -74t-114 -26.5zM510 -167v-79q-11 -2 -21 -3t-21 -1q-58 0 -96.5 29t-38.5 84q0 44 27 83t85 76l65 -22q-47 -29 -68 -58.5t-21 -57.5t17.5 -41.5t42.5 -13.5q5 0 13 1t16 3z" />
    <glyph glyph-name="eogonek" unicode="&#x119;" horiz-adv-x="607" 
d="M490 151l64 -70q-39 -45 -97 -71t-129 -26q-84 0 -148.5 34t-101 94t-36.5 137q0 78 35 138t96 94t137 34q74 0 131 -33.5t90 -92t33 -135.5v-6h-111v11q0 50 -18.5 87.5t-50.5 58t-75 20.5q-45 0 -79.5 -21.5t-53.5 -60t-19 -92.5t22.5 -94t62 -61.5t91.5 -21.5
q95 0 157 77zM564 214h-444v76h428l16 -37v-39zM501 -167v-79q-11 -2 -21 -3t-21 -1q-58 0 -96.5 29.5t-38.5 84.5q0 52 36.5 100.5t106.5 88.5l48 -8q-54 -45 -78.5 -84.5t-24.5 -72.5q0 -30 17.5 -44.5t42.5 -14.5q5 0 13 1t16 3z" />
    <glyph glyph-name="iogonek" unicode="&#x12f;" horiz-adv-x="237" 
d="M174 0h-112v499h112v-499zM118 602q-29 0 -50 20t-21 48q0 30 21 50t50 20q30 0 50.5 -20t20.5 -49t-20.5 -49t-50.5 -20zM174 -167v-79q-11 -2 -21 -3t-21 -1q-58 0 -96.5 29t-38.5 84q0 44 27 83t85 76l65 -22q-47 -29 -68 -58.5t-21 -57.5t17.5 -41.5t42.5 -13.5
q5 0 13 1t16 3z" />
    <glyph glyph-name="uogonek" unicode="&#x173;" horiz-adv-x="593" 
d="M530 0h-111v96l-1 28v375h112v-499zM426 211l23 -19q3 -61 -22 -108t-70.5 -73.5t-106.5 -26.5q-88 0 -141 53t-53 153v309h112v-298q0 -60 30 -91.5t82 -31.5q37 0 68.5 17t52.5 47t25 69zM530 -167v-79q-11 -2 -21 -3t-21 -1q-58 0 -96.5 29t-38.5 84q0 44 27 83t85 76
l65 -22q-47 -29 -68 -58.5t-21 -57.5t17.5 -41.5t42.5 -13.5q5 0 13 1t16 3z" />
    <glyph glyph-name="acutecomb" unicode="&#x301;" 
d="M176 761l-143 -174h-95l114 174h124z" />
    <glyph glyph-name="acutecomb.cap" 
d="M204 939l-163 -144h-109l134 144h138z" />
    <glyph glyph-name="acutecomb.asc" 
d="M180 731l-143 -144h-99l114 144h128z" />
    <glyph glyph-name="acutecomb.narrow" 
d="M147 761l-119 -174h-89l90 174h118z" />
    <glyph glyph-name="acute" unicode="&#xb4;" horiz-adv-x="595" 
d="M411 761l-143 -174h-95l114 174h124z" />
    <glyph glyph-name="uni030B" unicode="&#x30b;" 
d="M101 761l-159 -174h-99l134 174h124zM297 761l-171 -174h-99l146 174h124z" />
    <glyph glyph-name="uni030B.cap" 
d="M103 939l-150 -144h-109l126 144h133zM303 939l-163 -144h-109l138 144h134z" />
    <glyph glyph-name="hungarumlaut" unicode="&#x2dd;" horiz-adv-x="595" 
d="M315 761l-159 -174h-99l134 174h124zM511 761l-171 -174h-99l146 174h124z" />
    <glyph glyph-name="Aacute" unicode="&#xc1;" horiz-adv-x="756" 
d="M582 172h-412v98h412v-98zM724 0h-122l-245 637h38l-245 -637h-118l283 715h126zM581 939l-163 -144h-109l134 144h138z" />
    <glyph glyph-name="Cacute" unicode="&#x106;" horiz-adv-x="748" 
d="M634 196l77 -77q-47 -62 -122.5 -98.5t-166.5 -36.5q-81 0 -148.5 28t-117 78t-77 118.5t-27.5 148.5q0 81 28 149.5t78.5 118.5t118.5 78t148 28q91 0 165 -36.5t121 -98.5l-77 -77q-35 51 -88 80.5t-121 29.5q-72 0 -129 -35.5t-90 -96.5t-33 -140q0 -78 33 -139
t90 -96.5t129 -35.5q68 0 121 30t88 80zM625 939l-163 -144h-109l134 144h138z" />
    <glyph glyph-name="Eacute" unicode="&#xc9;" horiz-adv-x="613" 
d="M568 0h-492v715h492v-98h-377v-519h377v-98zM549 314h-368v98h368v-98zM526 939l-163 -144h-109l134 144h138z" />
    <glyph glyph-name="Iacute" unicode="&#xcd;" horiz-adv-x="267" 
d="M191 0h-115v715h115v-715zM337 939l-163 -144h-109l134 144h138z" />
    <glyph glyph-name="IJacute" horiz-adv-x="698" 
d="M184 337h-115v378h115v-378zM629 715v-439q0 -140 -72.5 -216t-208.5 -76q-80 0 -140.5 30t-95.5 86.5t-42 135.5l114 14q9 -80 50.5 -122t113.5 -42q81 0 123.5 49t42.5 141v439h115zM330 939l-163 -144h-109l134 144h138zM775 939l-163 -144h-109l134 144h138z" />
    <glyph glyph-name="Lacute" unicode="&#x139;" horiz-adv-x="572" 
d="M538 0h-462v715h115v-615h347v-100zM328 939l-163 -144h-109l134 144h138z" />
    <glyph glyph-name="Nacute" unicode="&#x143;" horiz-adv-x="751" 
d="M187 0h-112v715h122l406 -602h-39v602h112v-715h-122l-407 602h40v-602zM579 939l-163 -144h-109l134 144h138z" />
    <glyph glyph-name="Oacute" unicode="&#xd3;" horiz-adv-x="860" 
d="M430 -16q-82 0 -151 28t-120 78.5t-79 119t-28 148.5t28 148t79 118.5t120 78.5t151 28t151 -28t120 -78.5t79 -118.5t28 -148t-28 -148.5t-79 -119t-120 -78.5t-151 -28zM430 86q76 0 134 35t91 96.5t33 140.5t-33 140t-91 96t-134 35q-75 0 -133.5 -35t-91.5 -96
t-33 -140t33 -140.5t91.5 -96.5t133.5 -35zM634 939l-163 -144h-109l134 144h138z" />
    <glyph glyph-name="Racute" unicode="&#x154;" horiz-adv-x="701" 
d="M191 0h-115v715h286q74 0 130 -26.5t87.5 -74t31.5 -111.5q0 -63 -31.5 -111t-87.5 -74.5t-130 -26.5h-181v98h181q61 0 96.5 30.5t35.5 83.5t-35.5 83.5t-96.5 30.5h-171v-617zM683 0h-143l-260 333h132zM534 939l-163 -144h-109l134 144h138z" />
    <glyph glyph-name="Sacute" unicode="&#x15a;" horiz-adv-x="692" 
d="M39 117l80 78q27 -34 64.5 -59t81 -38t91.5 -13q52 0 90.5 14t60.5 40t22 60q0 46 -41.5 73t-145.5 43q-97 14 -157 40t-87.5 66t-27.5 94q0 64 35.5 112.5t98 76t143.5 27.5q94 0 166.5 -36t124.5 -96l-78 -78q-39 51 -91.5 80.5t-120.5 29.5q-71 0 -116 -30t-45 -80
q0 -27 17 -45.5t56.5 -31.5t105.5 -23q99 -15 160.5 -43t90.5 -71t29 -103q0 -66 -37 -115.5t-103 -77t-152 -27.5q-101 0 -180 36t-135 97zM551 939l-163 -144h-109l134 144h138z" />
    <glyph glyph-name="Uacute" unicode="&#xda;" horiz-adv-x="734" 
d="M666 715v-433q0 -141 -79.5 -219.5t-219.5 -78.5q-139 0 -219 78.5t-80 219.5v433h115v-433q0 -92 48.5 -144t135.5 -52q88 0 136.5 52t48.5 144v433h114zM571 939l-163 -144h-109l134 144h138z" />
    <glyph glyph-name="Wacute" unicode="&#x1e82;" horiz-adv-x="1065" 
d="M819 0h-129l-164 574h14l-165 -574h-129l-210 715h123l170 -625h-31l180 625h110l180 -625h-28l169 625h120zM736 939l-163 -144h-109l134 144h138z" />
    <glyph glyph-name="Yacute" unicode="&#xdd;" horiz-adv-x="689" 
d="M402 0h-115v298l-271 417h135l207 -335h-26l208 335h133l-271 -418v-297zM548 939l-163 -144h-109l134 144h138z" />
    <glyph glyph-name="Zacute" unicode="&#x179;" horiz-adv-x="632" 
d="M589 0h-545v99l392 517h-379v99h519v-99l-392 -517h405v-99zM520 939l-163 -144h-109l134 144h138z" />
    <glyph glyph-name="Ohungarumlaut" unicode="&#x150;" horiz-adv-x="860" 
d="M430 -16q-82 0 -151 28t-120 78.5t-79 119t-28 148.5t28 148t79 118.5t120 78.5t151 28t151 -28t120 -78.5t79 -118.5t28 -148t-28 -148.5t-79 -119t-120 -78.5t-151 -28zM430 86q76 0 134 35t91 96.5t33 140.5t-33 140t-91 96t-134 35q-75 0 -133.5 -35t-91.5 -96
t-33 -140t33 -140.5t91.5 -96.5t133.5 -35zM533 939l-150 -144h-109l126 144h133zM733 939l-163 -144h-109l138 144h134z" />
    <glyph glyph-name="Uhungarumlaut" unicode="&#x170;" horiz-adv-x="734" 
d="M666 715v-433q0 -141 -79.5 -219.5t-219.5 -78.5q-139 0 -219 78.5t-80 219.5v433h115v-433q0 -92 48.5 -144t135.5 -52q88 0 136.5 52t48.5 144v433h114zM470 939l-150 -144h-109l126 144h133zM670 939l-163 -144h-109l138 144h134z" />
    <glyph glyph-name="aacute" unicode="&#xe1;" horiz-adv-x="566" 
d="M511 0h-103v99l-5 21v187q0 56 -36 87.5t-98 31.5q-45 0 -83.5 -18t-66.5 -50l-64 70q41 41 96 64t122 23q71 0 124.5 -24.5t83.5 -70.5t30 -110v-310zM231 -16q-57 0 -101 21t-68 57t-24 84q0 52 30 88.5t83.5 56t123.5 19.5h140v-77h-130q-59 0 -95.5 -21t-36.5 -62
q0 -37 28 -58.5t73 -21.5q43 0 79 18t57.5 49.5t24.5 72.5l36 -17q0 -61 -28 -108.5t-78 -74t-114 -26.5zM454 761l-143 -174h-95l114 174h124z" />
    <glyph glyph-name="cacute" unicode="&#x107;" horiz-adv-x="559" 
d="M453 153l72 -70q-37 -46 -91 -72.5t-124 -26.5q-77 0 -137.5 34.5t-95.5 94t-35 137.5q0 77 35 136.5t96.5 94t139.5 34.5q68 0 121.5 -26t90.5 -73l-72 -70q-22 34 -55.5 54.5t-80.5 20.5q-46 0 -82 -22t-56 -60.5t-20 -88.5t20 -89t56 -61t82 -22q47 0 80.5 21t55.5 54
zM489 761l-143 -174h-95l114 174h124z" />
    <glyph glyph-name="eacute" unicode="&#xe9;" horiz-adv-x="607" 
d="M490 151l64 -70q-39 -45 -97 -71t-129 -26q-84 0 -148.5 34t-101 94t-36.5 137q0 78 35 138t96 94t137 34q74 0 131 -33.5t90 -92t33 -135.5v-6h-111v11q0 50 -18.5 87.5t-50.5 58t-75 20.5q-45 0 -79.5 -21.5t-53.5 -60t-19 -92.5t22.5 -94t62 -61.5t91.5 -21.5
q95 0 157 77zM564 214h-444v76h428l16 -37v-39zM486 761l-143 -174h-95l114 174h124z" />
    <glyph glyph-name="iacute" unicode="&#xed;" horiz-adv-x="237" 
d="M174 0h-112v499h112v-499zM265 761l-119 -174h-89l90 174h118z" />
    <glyph glyph-name="ijacute" horiz-adv-x="474" 
d="M207 -194v93h36q30 0 43 13.5t13 43.5v543h112v-560q0 -133 -133 -133h-71zM174 0h-112v499h112v-499zM294 761l-143 -174h-95l114 174h124zM532 761l-143 -174h-95l114 174h124z" />
    <glyph glyph-name="lacute" unicode="&#x13a;" horiz-adv-x="237" 
d="M174 0h-112v720h112v-720zM298 953l-143 -144h-99l114 144h128z" />
    <glyph glyph-name="nacute" unicode="&#x144;" horiz-adv-x="595" 
d="M539 0h-112v288q0 67 -30 100t-81 33q-37 0 -69.5 -19t-52.5 -60t-20 -106v-236h-112v499h111v-154h-15q10 66 39 102.5t68 52t80 15.5q90 0 142 -55t52 -160v-300zM491 761l-143 -174h-95l114 174h124z" />
    <glyph glyph-name="oacute" unicode="&#xf3;" horiz-adv-x="628" 
d="M314 -16q-79 0 -140.5 34t-96.5 94t-35 138q0 77 35 137t96.5 94t140.5 34q80 0 141.5 -34t96 -94t34.5 -137q0 -78 -34.5 -138t-96 -94t-141.5 -34zM314 78q47 0 82 22t54.5 60.5t19.5 89.5q0 50 -19.5 88.5t-54.5 60.5t-82 22q-46 0 -81 -22t-54.5 -60.5t-19.5 -88.5
q0 -51 19.5 -89.5t54.5 -60.5t81 -22zM490 761l-143 -174h-95l114 174h124z" />
    <glyph glyph-name="racute" unicode="&#x155;" horiz-adv-x="386" 
d="M358 508v-104h-24q-46 0 -82 -20t-57 -62t-21 -110v-212h-112v499h111v-161h-15q10 65 39 102t68 52.5t78 15.5h15zM392 761l-143 -174h-95l114 174h124z" />
    <glyph glyph-name="sacute" unicode="&#x15b;" horiz-adv-x="532" 
d="M25 76l65 70q34 -35 80.5 -55t97.5 -20q52 0 83 19.5t31 50.5q0 28 -27.5 43.5t-97.5 24.5q-110 16 -159.5 50.5t-49.5 95.5q0 48 28 84t76 56t110 20q72 0 127.5 -24t96.5 -65l-65 -71q-31 34 -71 54t-87 20t-76 -18.5t-29 -47.5q0 -24 26.5 -36.5t93.5 -21.5
q110 -16 162 -52.5t52 -104.5q0 -49 -29 -86t-80 -57.5t-119 -20.5q-73 0 -134 24.5t-105 67.5zM438 761l-143 -174h-95l114 174h124z" />
    <glyph glyph-name="uacute" unicode="&#xfa;" horiz-adv-x="593" 
d="M530 0h-111v96l-1 28v375h112v-499zM426 211l23 -19q3 -61 -22 -108t-70.5 -73.5t-106.5 -26.5q-88 0 -141 53t-53 153v309h112v-298q0 -60 30 -91.5t82 -31.5q37 0 68.5 17t52.5 47t25 69zM469 761l-143 -174h-95l114 174h124z" />
    <glyph glyph-name="wacute" unicode="&#x1e83;" horiz-adv-x="807" 
d="M632 0h-116l-127 400h29l-127 -400h-116l-157 499h112l123 -435h-32l135 435h99l135 -435h-32l122 435h109zM580 761l-143 -174h-95l114 174h124z" />
    <glyph glyph-name="yacute" unicode="&#xfd;" horiz-adv-x="572" 
d="M441 499h113l-243 -568q-25 -61 -65 -93t-109 -32h-60v93h55q31 0 51.5 14.5t32.5 43.5l17 42l-215 500h117l172 -437h-39zM463 761l-143 -174h-95l114 174h124z" />
    <glyph glyph-name="zacute" unicode="&#x17a;" horiz-adv-x="508" 
d="M471 0h-432v91l284 317h-274v91h412v-91l-284 -317h294v-91zM428 761l-143 -174h-95l114 174h124z" />
    <glyph glyph-name="ohungarumlaut" unicode="&#x151;" horiz-adv-x="628" 
d="M314 -16q-79 0 -140.5 34t-96.5 94t-35 138q0 77 35 137t96.5 94t140.5 34q80 0 141.5 -34t96 -94t34.5 -137q0 -78 -34.5 -138t-96 -94t-141.5 -34zM314 78q47 0 82 22t54.5 60.5t19.5 89.5q0 50 -19.5 88.5t-54.5 60.5t-82 22q-46 0 -81 -22t-54.5 -60.5t-19.5 -88.5
q0 -51 19.5 -89.5t54.5 -60.5t81 -22zM415 761l-159 -174h-99l134 174h124zM611 761l-171 -174h-99l146 174h124z" />
    <glyph glyph-name="uhungarumlaut" unicode="&#x171;" horiz-adv-x="593" 
d="M530 0h-111v96l-1 28v375h112v-499zM426 211l23 -19q3 -61 -22 -108t-70.5 -73.5t-106.5 -26.5q-88 0 -141 53t-53 153v309h112v-298q0 -60 30 -91.5t82 -31.5q37 0 68.5 17t52.5 47t25 69zM394 761l-159 -174h-99l134 174h124zM590 761l-171 -174h-99l146 174h124z" />
    <glyph glyph-name="gravecomb" unicode="&#x300;" 
d="M-33 587l-143 174h124l114 -174h-95z" />
    <glyph glyph-name="gravecomb.cap" 
d="M-41 795l-163 144h138l134 -144h-109z" />
    <glyph glyph-name="gravecomb.narrow" 
d="M-28 587l-119 174h118l90 -174h-89z" />
    <glyph glyph-name="grave" unicode="`" horiz-adv-x="595" 
d="M316 587l-143 174h124l114 -174h-95z" />
    <glyph glyph-name="Agrave" unicode="&#xc0;" horiz-adv-x="756" 
d="M582 172h-412v98h412v-98zM724 0h-122l-245 637h38l-245 -637h-118l283 715h126zM336 795l-163 144h138l134 -144h-109z" />
    <glyph glyph-name="Egrave" unicode="&#xc8;" horiz-adv-x="613" 
d="M568 0h-492v715h492v-98h-377v-519h377v-98zM549 314h-368v98h368v-98zM281 795l-163 144h138l134 -144h-109z" />
    <glyph glyph-name="Igrave" unicode="&#xcc;" horiz-adv-x="267" 
d="M191 0h-115v715h115v-715zM92 795l-163 144h138l134 -144h-109z" />
    <glyph glyph-name="Ograve" unicode="&#xd2;" horiz-adv-x="860" 
d="M430 -16q-82 0 -151 28t-120 78.5t-79 119t-28 148.5t28 148t79 118.5t120 78.5t151 28t151 -28t120 -78.5t79 -118.5t28 -148t-28 -148.5t-79 -119t-120 -78.5t-151 -28zM430 86q76 0 134 35t91 96.5t33 140.5t-33 140t-91 96t-134 35q-75 0 -133.5 -35t-91.5 -96
t-33 -140t33 -140.5t91.5 -96.5t133.5 -35zM389 795l-163 144h138l134 -144h-109z" />
    <glyph glyph-name="Ugrave" unicode="&#xd9;" horiz-adv-x="734" 
d="M666 715v-433q0 -141 -79.5 -219.5t-219.5 -78.5q-139 0 -219 78.5t-80 219.5v433h115v-433q0 -92 48.5 -144t135.5 -52q88 0 136.5 52t48.5 144v433h114zM326 795l-163 144h138l134 -144h-109z" />
    <glyph glyph-name="Wgrave" unicode="&#x1e80;" horiz-adv-x="1065" 
d="M819 0h-129l-164 574h14l-165 -574h-129l-210 715h123l170 -625h-31l180 625h110l180 -625h-28l169 625h120zM491 795l-163 144h138l134 -144h-109z" />
    <glyph glyph-name="Ygrave" unicode="&#x1ef2;" horiz-adv-x="689" 
d="M402 0h-115v298l-271 417h135l207 -335h-26l208 335h133l-271 -418v-297zM303 795l-163 144h138l134 -144h-109z" />
    <glyph glyph-name="agrave" unicode="&#xe0;" horiz-adv-x="566" 
d="M511 0h-103v99l-5 21v187q0 56 -36 87.5t-98 31.5q-45 0 -83.5 -18t-66.5 -50l-64 70q41 41 96 64t122 23q71 0 124.5 -24.5t83.5 -70.5t30 -110v-310zM231 -16q-57 0 -101 21t-68 57t-24 84q0 52 30 88.5t83.5 56t123.5 19.5h140v-77h-130q-59 0 -95.5 -21t-36.5 -62
q0 -37 28 -58.5t73 -21.5q43 0 79 18t57.5 49.5t24.5 72.5l36 -17q0 -61 -28 -108.5t-78 -74t-114 -26.5zM245 587l-143 174h124l114 -174h-95z" />
    <glyph glyph-name="egrave" unicode="&#xe8;" horiz-adv-x="607" 
d="M490 151l64 -70q-39 -45 -97 -71t-129 -26q-84 0 -148.5 34t-101 94t-36.5 137q0 78 35 138t96 94t137 34q74 0 131 -33.5t90 -92t33 -135.5v-6h-111v11q0 50 -18.5 87.5t-50.5 58t-75 20.5q-45 0 -79.5 -21.5t-53.5 -60t-19 -92.5t22.5 -94t62 -61.5t91.5 -21.5
q95 0 157 77zM564 214h-444v76h428l16 -37v-39zM277 587l-143 174h124l114 -174h-95z" />
    <glyph glyph-name="igrave" unicode="&#xec;" horiz-adv-x="237" 
d="M174 0h-112v499h112v-499zM90 587l-119 174h118l90 -174h-89z" />
    <glyph glyph-name="ograve" unicode="&#xf2;" horiz-adv-x="628" 
d="M314 -16q-79 0 -140.5 34t-96.5 94t-35 138q0 77 35 137t96.5 94t140.5 34q80 0 141.5 -34t96 -94t34.5 -137q0 -78 -34.5 -138t-96 -94t-141.5 -34zM314 78q47 0 82 22t54.5 60.5t19.5 89.5q0 50 -19.5 88.5t-54.5 60.5t-82 22q-46 0 -81 -22t-54.5 -60.5t-19.5 -88.5
q0 -51 19.5 -89.5t54.5 -60.5t81 -22zM281 587l-143 174h124l114 -174h-95z" />
    <glyph glyph-name="ugrave" unicode="&#xf9;" horiz-adv-x="593" 
d="M530 0h-111v96l-1 28v375h112v-499zM426 211l23 -19q3 -61 -22 -108t-70.5 -73.5t-106.5 -26.5q-88 0 -141 53t-53 153v309h112v-298q0 -60 30 -91.5t82 -31.5q37 0 68.5 17t52.5 47t25 69zM260 587l-143 174h124l114 -174h-95z" />
    <glyph glyph-name="wgrave" unicode="&#x1e81;" horiz-adv-x="807" 
d="M632 0h-116l-127 400h29l-127 -400h-116l-157 499h112l123 -435h-32l135 435h99l135 -435h-32l122 435h109zM371 587l-143 174h124l114 -174h-95z" />
    <glyph glyph-name="ygrave" unicode="&#x1ef3;" horiz-adv-x="572" 
d="M441 499h113l-243 -568q-25 -61 -65 -93t-109 -32h-60v93h55q31 0 51.5 14.5t32.5 43.5l17 42l-215 500h117l172 -437h-39zM254 587l-143 174h124l114 -174h-95z" />
    <glyph glyph-name="uni0302" unicode="&#x302;" 
d="M181 587h-102l-125 158h89l-125 -158h-99l124 174h114z" />
    <glyph glyph-name="uni0302.cap" 
d="M190 799h-108l-134 128h102l-133 -128h-107l133 144h114z" />
    <glyph glyph-name="uni0302.narrow" 
d="M166 587h-94l-120 153h93l-120 -153h-91l124 174h84z" />
    <glyph glyph-name="circumflex" unicode="&#x2c6;" horiz-adv-x="595" 
d="M473 587h-102l-125 158h89l-125 -158h-99l124 174h114z" />
    <glyph glyph-name="tildecomb" unicode="&#x303;" 
d="M107 732l73 -31q-11 -57 -40 -84t-66 -27q-26 0 -49 10.5t-44 25.5q-16 13 -27.5 19.5t-21.5 6.5q-14 0 -24.5 -15.5t-15.5 -47.5l-73 31q11 57 40.5 84t66.5 27q26 0 49 -10.5t43 -25.5q17 -13 28.5 -19t21.5 -6q14 0 24 15.5t15 46.5z" />
    <glyph glyph-name="tildecomb.cap" 
d="M115 923l75 -29q-10 -57 -44 -83t-75 -26q-26 0 -49.5 11.5t-44.5 25.5q-17 11 -28.5 17.5t-21.5 6.5q-14 0 -25.5 -13t-16.5 -46l-75 29q10 57 44 83t74 26q26 0 50 -11.5t44 -25.5q18 -11 29 -17.5t21 -6.5q14 0 26 13.5t17 45.5z" />
    <glyph glyph-name="tildecomb.narrow" 
d="M94 732l66 -31q-10 -57 -36 -84t-59 -27q-23 0 -43 10.5t-38 25.5q-15 13 -25 19.5t-19 6.5q-12 0 -21.5 -15.5t-13.5 -47.5l-65 31q9 57 35.5 84t58.5 27q23 0 43.5 -10.5t38.5 -25.5q15 -13 25 -19t18 -6q13 0 22.5 15.5t12.5 46.5z" />
    <glyph glyph-name="tilde" unicode="&#x2dc;" horiz-adv-x="595" 
d="M399 732l73 -31q-11 -57 -40 -84t-66 -27q-26 0 -49 10.5t-44 25.5q-16 13 -27.5 19.5t-21.5 6.5q-14 0 -24.5 -15.5t-15.5 -47.5l-73 31q11 57 40.5 84t66.5 27q26 0 49 -10.5t43 -25.5q17 -13 28.5 -19t21.5 -6q14 0 24 15.5t15 46.5z" />
    <glyph glyph-name="Acircumflex" unicode="&#xc2;" horiz-adv-x="756" 
d="M582 172h-412v98h412v-98zM724 0h-122l-245 637h38l-245 -637h-118l283 715h126zM567 799h-108l-134 128h102l-133 -128h-107l133 144h114z" />
    <glyph glyph-name="Ecircumflex" unicode="&#xca;" horiz-adv-x="613" 
d="M568 0h-492v715h492v-98h-377v-519h377v-98zM549 314h-368v98h368v-98zM512 799h-108l-134 128h102l-133 -128h-107l133 144h114z" />
    <glyph glyph-name="Icircumflex" unicode="&#xce;" horiz-adv-x="267" 
d="M191 0h-115v715h115v-715zM323 799h-108l-134 128h102l-133 -128h-107l133 144h114z" />
    <glyph glyph-name="Ocircumflex" unicode="&#xd4;" horiz-adv-x="860" 
d="M430 -16q-82 0 -151 28t-120 78.5t-79 119t-28 148.5t28 148t79 118.5t120 78.5t151 28t151 -28t120 -78.5t79 -118.5t28 -148t-28 -148.5t-79 -119t-120 -78.5t-151 -28zM430 86q76 0 134 35t91 96.5t33 140.5t-33 140t-91 96t-134 35q-75 0 -133.5 -35t-91.5 -96
t-33 -140t33 -140.5t91.5 -96.5t133.5 -35zM620 799h-108l-134 128h102l-133 -128h-107l133 144h114z" />
    <glyph glyph-name="Ucircumflex" unicode="&#xdb;" horiz-adv-x="734" 
d="M666 715v-433q0 -141 -79.5 -219.5t-219.5 -78.5q-139 0 -219 78.5t-80 219.5v433h115v-433q0 -92 48.5 -144t135.5 -52q88 0 136.5 52t48.5 144v433h114zM557 799h-108l-134 128h102l-133 -128h-107l133 144h114z" />
    <glyph glyph-name="Wcircumflex" unicode="&#x174;" horiz-adv-x="1065" 
d="M819 0h-129l-164 574h14l-165 -574h-129l-210 715h123l170 -625h-31l180 625h110l180 -625h-28l169 625h120zM722 799h-108l-134 128h102l-133 -128h-107l133 144h114z" />
    <glyph glyph-name="Ycircumflex" unicode="&#x176;" horiz-adv-x="689" 
d="M402 0h-115v298l-271 417h135l207 -335h-26l208 335h133l-271 -418v-297zM534 799h-108l-134 128h102l-133 -128h-107l133 144h114z" />
    <glyph glyph-name="Atilde" unicode="&#xc3;" horiz-adv-x="756" 
d="M582 172h-412v98h412v-98zM724 0h-122l-245 637h38l-245 -637h-118l283 715h126zM492 923l75 -29q-10 -57 -44 -83t-75 -26q-26 0 -49.5 11.5t-44.5 25.5q-17 11 -28.5 17.5t-21.5 6.5q-14 0 -25.5 -13t-16.5 -46l-75 29q10 57 44 83t74 26q26 0 50 -11.5t44 -25.5
q18 -11 29 -17.5t21 -6.5q14 0 26 13.5t17 45.5z" />
    <glyph glyph-name="Itilde" unicode="&#x128;" horiz-adv-x="267" 
d="M191 0h-115v715h115v-715zM248 923l75 -29q-10 -57 -44 -83t-75 -26q-26 0 -49.5 11.5t-44.5 25.5q-17 11 -28.5 17.5t-21.5 6.5q-14 0 -25.5 -13t-16.5 -46l-75 29q10 57 44 83t74 26q26 0 50 -11.5t44 -25.5q18 -11 29 -17.5t21 -6.5q14 0 26 13.5t17 45.5z" />
    <glyph glyph-name="Ntilde" unicode="&#xd1;" horiz-adv-x="751" 
d="M187 0h-112v715h122l406 -602h-39v602h112v-715h-122l-407 602h40v-602zM490 923l75 -29q-10 -57 -44 -83t-75 -26q-26 0 -49.5 11.5t-44.5 25.5q-17 11 -28.5 17.5t-21.5 6.5q-14 0 -25.5 -13t-16.5 -46l-75 29q10 57 44 83t74 26q26 0 50 -11.5t44 -25.5
q18 -11 29 -17.5t21 -6.5q14 0 26 13.5t17 45.5z" />
    <glyph glyph-name="Otilde" unicode="&#xd5;" horiz-adv-x="860" 
d="M430 -16q-82 0 -151 28t-120 78.5t-79 119t-28 148.5t28 148t79 118.5t120 78.5t151 28t151 -28t120 -78.5t79 -118.5t28 -148t-28 -148.5t-79 -119t-120 -78.5t-151 -28zM430 86q76 0 134 35t91 96.5t33 140.5t-33 140t-91 96t-134 35q-75 0 -133.5 -35t-91.5 -96
t-33 -140t33 -140.5t91.5 -96.5t133.5 -35zM545 923l75 -29q-10 -57 -44 -83t-75 -26q-26 0 -49.5 11.5t-44.5 25.5q-17 11 -28.5 17.5t-21.5 6.5q-14 0 -25.5 -13t-16.5 -46l-75 29q10 57 44 83t74 26q26 0 50 -11.5t44 -25.5q18 -11 29 -17.5t21 -6.5q14 0 26 13.5
t17 45.5z" />
    <glyph glyph-name="Utilde" unicode="&#x168;" horiz-adv-x="734" 
d="M666 715v-433q0 -141 -79.5 -219.5t-219.5 -78.5q-139 0 -219 78.5t-80 219.5v433h115v-433q0 -92 48.5 -144t135.5 -52q88 0 136.5 52t48.5 144v433h114zM482 923l75 -29q-10 -57 -44 -83t-75 -26q-26 0 -49.5 11.5t-44.5 25.5q-17 11 -28.5 17.5t-21.5 6.5
q-14 0 -25.5 -13t-16.5 -46l-75 29q10 57 44 83t74 26q26 0 50 -11.5t44 -25.5q18 -11 29 -17.5t21 -6.5q14 0 26 13.5t17 45.5z" />
    <glyph glyph-name="acircumflex" unicode="&#xe2;" horiz-adv-x="566" 
d="M511 0h-103v99l-5 21v187q0 56 -36 87.5t-98 31.5q-45 0 -83.5 -18t-66.5 -50l-64 70q41 41 96 64t122 23q71 0 124.5 -24.5t83.5 -70.5t30 -110v-310zM231 -16q-57 0 -101 21t-68 57t-24 84q0 52 30 88.5t83.5 56t123.5 19.5h140v-77h-130q-59 0 -95.5 -21t-36.5 -62
q0 -37 28 -58.5t73 -21.5q43 0 79 18t57.5 49.5t24.5 72.5l36 -17q0 -61 -28 -108.5t-78 -74t-114 -26.5zM459 587h-102l-125 158h89l-125 -158h-99l124 174h114z" />
    <glyph glyph-name="ecircumflex" unicode="&#xea;" horiz-adv-x="607" 
d="M490 151l64 -70q-39 -45 -97 -71t-129 -26q-84 0 -148.5 34t-101 94t-36.5 137q0 78 35 138t96 94t137 34q74 0 131 -33.5t90 -92t33 -135.5v-6h-111v11q0 50 -18.5 87.5t-50.5 58t-75 20.5q-45 0 -79.5 -21.5t-53.5 -60t-19 -92.5t22.5 -94t62 -61.5t91.5 -21.5
q95 0 157 77zM564 214h-444v76h428l16 -37v-39zM491 587h-102l-125 158h89l-125 -158h-99l124 174h114z" />
    <glyph glyph-name="icircumflex" unicode="&#xee;" horiz-adv-x="237" 
d="M174 0h-112v499h112v-499zM284 587h-94l-120 153h93l-120 -153h-91l124 174h84z" />
    <glyph glyph-name="ocircumflex" unicode="&#xf4;" horiz-adv-x="628" 
d="M314 -16q-79 0 -140.5 34t-96.5 94t-35 138q0 77 35 137t96.5 94t140.5 34q80 0 141.5 -34t96 -94t34.5 -137q0 -78 -34.5 -138t-96 -94t-141.5 -34zM314 78q47 0 82 22t54.5 60.5t19.5 89.5q0 50 -19.5 88.5t-54.5 60.5t-82 22q-46 0 -81 -22t-54.5 -60.5t-19.5 -88.5
q0 -51 19.5 -89.5t54.5 -60.5t81 -22zM495 587h-102l-125 158h89l-125 -158h-99l124 174h114z" />
    <glyph glyph-name="ucircumflex" unicode="&#xfb;" horiz-adv-x="593" 
d="M530 0h-111v96l-1 28v375h112v-499zM426 211l23 -19q3 -61 -22 -108t-70.5 -73.5t-106.5 -26.5q-88 0 -141 53t-53 153v309h112v-298q0 -60 30 -91.5t82 -31.5q37 0 68.5 17t52.5 47t25 69zM474 587h-102l-125 158h89l-125 -158h-99l124 174h114z" />
    <glyph glyph-name="wcircumflex" unicode="&#x175;" horiz-adv-x="807" 
d="M632 0h-116l-127 400h29l-127 -400h-116l-157 499h112l123 -435h-32l135 435h99l135 -435h-32l122 435h109zM585 587h-102l-125 158h89l-125 -158h-99l124 174h114z" />
    <glyph glyph-name="ycircumflex" unicode="&#x177;" horiz-adv-x="572" 
d="M441 499h113l-243 -568q-25 -61 -65 -93t-109 -32h-60v93h55q31 0 51.5 14.5t32.5 43.5l17 42l-215 500h117l172 -437h-39zM468 587h-102l-125 158h89l-125 -158h-99l124 174h114z" />
    <glyph glyph-name="atilde" unicode="&#xe3;" horiz-adv-x="566" 
d="M511 0h-103v99l-5 21v187q0 56 -36 87.5t-98 31.5q-45 0 -83.5 -18t-66.5 -50l-64 70q41 41 96 64t122 23q71 0 124.5 -24.5t83.5 -70.5t30 -110v-310zM231 -16q-57 0 -101 21t-68 57t-24 84q0 52 30 88.5t83.5 56t123.5 19.5h140v-77h-130q-59 0 -95.5 -21t-36.5 -62
q0 -37 28 -58.5t73 -21.5q43 0 79 18t57.5 49.5t24.5 72.5l36 -17q0 -61 -28 -108.5t-78 -74t-114 -26.5zM385 732l73 -31q-11 -57 -40 -84t-66 -27q-26 0 -49 10.5t-44 25.5q-16 13 -27.5 19.5t-21.5 6.5q-14 0 -24.5 -15.5t-15.5 -47.5l-73 31q11 57 40.5 84t66.5 27
q26 0 49 -10.5t43 -25.5q17 -13 28.5 -19t21.5 -6q14 0 24 15.5t15 46.5z" />
    <glyph glyph-name="itilde" unicode="&#x129;" horiz-adv-x="237" 
d="M174 0h-112v499h112v-499zM212 732l66 -31q-10 -57 -36 -84t-59 -27q-23 0 -43 10.5t-38 25.5q-15 13 -25 19.5t-19 6.5q-12 0 -21.5 -15.5t-13.5 -47.5l-65 31q9 57 35.5 84t58.5 27q23 0 43.5 -10.5t38.5 -25.5q15 -13 25 -19t18 -6q13 0 22.5 15.5t12.5 46.5z" />
    <glyph glyph-name="ntilde" unicode="&#xf1;" horiz-adv-x="595" 
d="M539 0h-112v288q0 67 -30 100t-81 33q-37 0 -69.5 -19t-52.5 -60t-20 -106v-236h-112v499h111v-154h-15q10 66 39 102.5t68 52t80 15.5q90 0 142 -55t52 -160v-300zM422 732l73 -31q-11 -57 -40 -84t-66 -27q-26 0 -49 10.5t-44 25.5q-16 13 -27.5 19.5t-21.5 6.5
q-14 0 -24.5 -15.5t-15.5 -47.5l-73 31q11 57 40.5 84t66.5 27q26 0 49 -10.5t43 -25.5q17 -13 28.5 -19t21.5 -6q14 0 24 15.5t15 46.5z" />
    <glyph glyph-name="otilde" unicode="&#xf5;" horiz-adv-x="628" 
d="M314 -16q-79 0 -140.5 34t-96.5 94t-35 138q0 77 35 137t96.5 94t140.5 34q80 0 141.5 -34t96 -94t34.5 -137q0 -78 -34.5 -138t-96 -94t-141.5 -34zM314 78q47 0 82 22t54.5 60.5t19.5 89.5q0 50 -19.5 88.5t-54.5 60.5t-82 22q-46 0 -81 -22t-54.5 -60.5t-19.5 -88.5
q0 -51 19.5 -89.5t54.5 -60.5t81 -22zM421 732l73 -31q-11 -57 -40 -84t-66 -27q-26 0 -49 10.5t-44 25.5q-16 13 -27.5 19.5t-21.5 6.5q-14 0 -24.5 -15.5t-15.5 -47.5l-73 31q11 57 40.5 84t66.5 27q26 0 49 -10.5t43 -25.5q17 -13 28.5 -19t21.5 -6q14 0 24 15.5t15 46.5
z" />
    <glyph glyph-name="utilde" unicode="&#x169;" horiz-adv-x="593" 
d="M530 0h-111v96l-1 28v375h112v-499zM426 211l23 -19q3 -61 -22 -108t-70.5 -73.5t-106.5 -26.5q-88 0 -141 53t-53 153v309h112v-298q0 -60 30 -91.5t82 -31.5q37 0 68.5 17t52.5 47t25 69zM400 732l73 -31q-11 -57 -40 -84t-66 -27q-26 0 -49 10.5t-44 25.5
q-16 13 -27.5 19.5t-21.5 6.5q-14 0 -24.5 -15.5t-15.5 -47.5l-73 31q11 57 40.5 84t66.5 27q26 0 49 -10.5t43 -25.5q17 -13 28.5 -19t21.5 -6q14 0 24 15.5t15 46.5z" />
    <glyph glyph-name="uni030C" unicode="&#x30c;" 
d="M-181 761h102l125 -158h-89l125 158h99l-124 -174h-114z" />
    <glyph glyph-name="uni030C.cap" 
d="M-190 943h108l134 -128h-102l133 128h107l-133 -144h-114z" />
    <glyph glyph-name="caron" unicode="&#x2c7;" horiz-adv-x="595" 
d="M111 761h102l125 -158h-89l125 158h99l-124 -174h-114z" />
    <glyph glyph-name="uni0315" unicode="&#x315;" 
d="M0 502h-61q25 30 39.5 65.5t12.5 59.5l14 -20q-26 0 -44.5 18t-18.5 44t17.5 44t43.5 18q30 0 48 -20.5t18 -52.5q0 -24 -9.5 -52t-25.5 -55.5t-34 -48.5z" />
    <glyph glyph-name="uni0315.short" 
d="M26 553h-63q20 26 33 54.5t13 48.5l19 -25q-26 0 -44.5 17.5t-18.5 39.5q0 24 17 40.5t42 16.5q28 0 45 -18t17 -49q0 -29 -18.5 -63.5t-41.5 -61.5z" />
    <glyph glyph-name="uni0304" unicode="&#x304;" 
d="M147 610h-294v81h294v-81z" />
    <glyph glyph-name="uni0304.cap" 
d="M158 814h-316v84h316v-84z" />
    <glyph glyph-name="uni0304.narrow" 
d="M132 610h-264v81h264v-81z" />
    <glyph glyph-name="macron" unicode="&#xaf;" horiz-adv-x="595" 
d="M439 610h-294v81h294v-81z" />
    <glyph glyph-name="Ccaron" unicode="&#x10c;" horiz-adv-x="748" 
d="M634 196l77 -77q-47 -62 -122.5 -98.5t-166.5 -36.5q-81 0 -148.5 28t-117 78t-77 118.5t-27.5 148.5q0 81 28 149.5t78.5 118.5t118.5 78t148 28q91 0 165 -36.5t121 -98.5l-77 -77q-35 51 -88 80.5t-121 29.5q-72 0 -129 -35.5t-90 -96.5t-33 -140q0 -78 33 -139
t90 -96.5t129 -35.5q68 0 121 30t88 80zM231 943h108l134 -128h-102l133 128h107l-133 -144h-114z" />
    <glyph glyph-name="Dcaron" unicode="&#x10e;" horiz-adv-x="750" 
d="M76 0v715h243q114 0 199.5 -46t133 -126.5t47.5 -184.5t-47.5 -185t-133 -127t-199.5 -46h-243zM191 99h128q80 0 138.5 32.5t90 90.5t31.5 136t-31.5 136t-90 90t-138.5 32h-128v-517zM152 943h108l134 -128h-102l133 128h107l-133 -144h-114z" />
    <glyph glyph-name="Ecaron" unicode="&#x11a;" horiz-adv-x="613" 
d="M568 0h-492v715h492v-98h-377v-519h377v-98zM549 314h-368v98h368v-98zM132 943h108l134 -128h-102l133 128h107l-133 -144h-114z" />
    <glyph glyph-name="Lcaron" unicode="&#x13d;" horiz-adv-x="572" 
d="M538 0h-462v715h115v-615h347v-100zM374 502h-61q25 30 39.5 65.5t12.5 59.5l14 -20q-26 0 -44.5 18t-18.5 44t17.5 44t43.5 18q30 0 48 -20.5t18 -52.5q0 -24 -9.5 -52t-25.5 -55.5t-34 -48.5z" />
    <glyph glyph-name="Ncaron" unicode="&#x147;" horiz-adv-x="751" 
d="M187 0h-112v715h122l406 -602h-39v602h112v-715h-122l-407 602h40v-602zM185 943h108l134 -128h-102l133 128h107l-133 -144h-114z" />
    <glyph glyph-name="Rcaron" unicode="&#x158;" horiz-adv-x="701" 
d="M191 0h-115v715h286q74 0 130 -26.5t87.5 -74t31.5 -111.5q0 -63 -31.5 -111t-87.5 -74.5t-130 -26.5h-181v98h181q61 0 96.5 30.5t35.5 83.5t-35.5 83.5t-96.5 30.5h-171v-617zM683 0h-143l-260 333h132zM140 943h108l134 -128h-102l133 128h107l-133 -144h-114z" />
    <glyph glyph-name="Scaron" unicode="&#x160;" horiz-adv-x="692" 
d="M39 117l80 78q27 -34 64.5 -59t81 -38t91.5 -13q52 0 90.5 14t60.5 40t22 60q0 46 -41.5 73t-145.5 43q-97 14 -157 40t-87.5 66t-27.5 94q0 64 35.5 112.5t98 76t143.5 27.5q94 0 166.5 -36t124.5 -96l-78 -78q-39 51 -91.5 80.5t-120.5 29.5q-71 0 -116 -30t-45 -80
q0 -27 17 -45.5t56.5 -31.5t105.5 -23q99 -15 160.5 -43t90.5 -71t29 -103q0 -66 -37 -115.5t-103 -77t-152 -27.5q-101 0 -180 36t-135 97zM157 943h108l134 -128h-102l133 128h107l-133 -144h-114z" />
    <glyph glyph-name="Tcaron" unicode="&#x164;" horiz-adv-x="640" 
d="M377 0h-115v626h115v-626zM606 616h-572v99h572v-99zM130 943h108l134 -128h-102l133 128h107l-133 -144h-114z" />
    <glyph glyph-name="Zcaron" unicode="&#x17d;" horiz-adv-x="632" 
d="M589 0h-545v99l392 517h-379v99h519v-99l-392 -517h405v-99zM126 943h108l134 -128h-102l133 128h107l-133 -144h-114z" />
    <glyph glyph-name="Amacron" unicode="&#x100;" horiz-adv-x="756" 
d="M582 172h-412v98h412v-98zM724 0h-122l-245 637h38l-245 -637h-118l283 715h126zM535 814h-316v84h316v-84z" />
    <glyph glyph-name="Emacron" unicode="&#x112;" horiz-adv-x="613" 
d="M568 0h-492v715h492v-98h-377v-519h377v-98zM549 314h-368v98h368v-98zM480 814h-316v84h316v-84z" />
    <glyph glyph-name="Imacron" unicode="&#x12a;" horiz-adv-x="267" 
d="M191 0h-115v715h115v-715zM291 814h-316v84h316v-84z" />
    <glyph glyph-name="Umacron" unicode="&#x16a;" horiz-adv-x="734" 
d="M666 715v-433q0 -141 -79.5 -219.5t-219.5 -78.5q-139 0 -219 78.5t-80 219.5v433h115v-433q0 -92 48.5 -144t135.5 -52q88 0 136.5 52t48.5 144v433h114zM525 814h-316v84h316v-84z" />
    <glyph glyph-name="ccaron" unicode="&#x10d;" horiz-adv-x="559" 
d="M453 153l72 -70q-37 -46 -91 -72.5t-124 -26.5q-77 0 -137.5 34.5t-95.5 94t-35 137.5q0 77 35 136.5t96.5 94t139.5 34.5q68 0 121.5 -26t90.5 -73l-72 -70q-22 34 -55.5 54.5t-80.5 20.5q-46 0 -82 -22t-56 -60.5t-20 -88.5t20 -89t56 -61t82 -22q47 0 80.5 21t55.5 54
zM132 761h102l125 -158h-89l125 158h99l-124 -174h-114z" />
    <glyph glyph-name="dcaron" unicode="&#x10f;" horiz-adv-x="770" 
d="M583 0h-111v124l-1 5v113q0 54 -20 94t-55.5 62.5t-81.5 22.5t-81.5 -22t-54.5 -61t-19 -88q0 -50 20 -89t56 -61t84 -22q42 0 76.5 17t56.5 47t27 69l23 -18q5 -59 -20 -106.5t-73 -75t-114 -27.5q-71 0 -128.5 34t-91 94t-33.5 138q0 77 33.5 137t90.5 94t127 34
q56 0 99.5 -21.5t71 -59.5t34.5 -89h-27v375h112v-720zM691 502h-61q25 30 39.5 65.5t12.5 59.5l14 -20q-26 0 -44.5 18t-18.5 44t17.5 44t43.5 18q30 0 48 -20.5t18 -52.5q0 -24 -9.5 -52t-25.5 -55.5t-34 -48.5z" />
    <glyph glyph-name="ecaron" unicode="&#x11b;" horiz-adv-x="607" 
d="M490 151l64 -70q-39 -45 -97 -71t-129 -26q-84 0 -148.5 34t-101 94t-36.5 137q0 78 35 138t96 94t137 34q74 0 131 -33.5t90 -92t33 -135.5v-6h-111v11q0 50 -18.5 87.5t-50.5 58t-75 20.5q-45 0 -79.5 -21.5t-53.5 -60t-19 -92.5t22.5 -94t62 -61.5t91.5 -21.5
q95 0 157 77zM564 214h-444v76h428l16 -37v-39zM129 761h102l125 -158h-89l125 158h99l-124 -174h-114z" />
    <glyph glyph-name="lcaron" unicode="&#x13e;" horiz-adv-x="361" 
d="M174 0h-112v720h112v-720zM283 502h-61q25 30 39.5 65.5t12.5 59.5l14 -20q-26 0 -44.5 18t-18.5 44t17.5 44t43.5 18q30 0 48 -20.5t18 -52.5q0 -24 -9.5 -52t-25.5 -55.5t-34 -48.5z" />
    <glyph glyph-name="ncaron" unicode="&#x148;" horiz-adv-x="595" 
d="M539 0h-112v288q0 67 -30 100t-81 33q-37 0 -69.5 -19t-52.5 -60t-20 -106v-236h-112v499h111v-154h-15q10 66 39 102.5t68 52t80 15.5q90 0 142 -55t52 -160v-300zM134 761h102l125 -158h-89l125 158h99l-124 -174h-114z" />
    <glyph glyph-name="rcaron" unicode="&#x159;" horiz-adv-x="386" 
d="M358 508v-104h-24q-46 0 -82 -20t-57 -62t-21 -110v-212h-112v499h111v-161h-15q10 65 39 102t68 52.5t78 15.5h15zM35 761h102l125 -158h-89l125 158h99l-124 -174h-114z" />
    <glyph glyph-name="scaron" unicode="&#x161;" horiz-adv-x="532" 
d="M25 76l65 70q34 -35 80.5 -55t97.5 -20q52 0 83 19.5t31 50.5q0 28 -27.5 43.5t-97.5 24.5q-110 16 -159.5 50.5t-49.5 95.5q0 48 28 84t76 56t110 20q72 0 127.5 -24t96.5 -65l-65 -71q-31 34 -71 54t-87 20t-76 -18.5t-29 -47.5q0 -24 26.5 -36.5t93.5 -21.5
q110 -16 162 -52.5t52 -104.5q0 -49 -29 -86t-80 -57.5t-119 -20.5q-73 0 -134 24.5t-105 67.5zM81 761h102l125 -158h-89l125 158h99l-124 -174h-114z" />
    <glyph glyph-name="tcaron" unicode="&#x165;" horiz-adv-x="420" 
d="M375 0h-123q-63 0 -95 32.5t-32 94.5v509h112v-492q0 -26 12 -38.5t38 -12.5h88v-93zM368 408h-336v91h336v-91zM349 553h-63q20 26 33 54.5t13 48.5l19 -25q-26 0 -44.5 17.5t-18.5 39.5q0 24 17 40.5t42 16.5q28 0 45 -18t17 -49q0 -29 -18.5 -63.5t-41.5 -61.5z" />
    <glyph glyph-name="zcaron" unicode="&#x17e;" horiz-adv-x="508" 
d="M471 0h-432v91l284 317h-274v91h412v-91l-284 -317h294v-91zM71 761h102l125 -158h-89l125 158h99l-124 -174h-114z" />
    <glyph glyph-name="amacron" unicode="&#x101;" horiz-adv-x="566" 
d="M511 0h-103v99l-5 21v187q0 56 -36 87.5t-98 31.5q-45 0 -83.5 -18t-66.5 -50l-64 70q41 41 96 64t122 23q71 0 124.5 -24.5t83.5 -70.5t30 -110v-310zM231 -16q-57 0 -101 21t-68 57t-24 84q0 52 30 88.5t83.5 56t123.5 19.5h140v-77h-130q-59 0 -95.5 -21t-36.5 -62
q0 -37 28 -58.5t73 -21.5q43 0 79 18t57.5 49.5t24.5 72.5l36 -17q0 -61 -28 -108.5t-78 -74t-114 -26.5zM425 610h-294v81h294v-81z" />
    <glyph glyph-name="emacron" unicode="&#x113;" horiz-adv-x="607" 
d="M490 151l64 -70q-39 -45 -97 -71t-129 -26q-84 0 -148.5 34t-101 94t-36.5 137q0 78 35 138t96 94t137 34q74 0 131 -33.5t90 -92t33 -135.5v-6h-111v11q0 50 -18.5 87.5t-50.5 58t-75 20.5q-45 0 -79.5 -21.5t-53.5 -60t-19 -92.5t22.5 -94t62 -61.5t91.5 -21.5
q95 0 157 77zM564 214h-444v76h428l16 -37v-39zM457 610h-294v81h294v-81z" />
    <glyph glyph-name="imacron" unicode="&#x12b;" horiz-adv-x="237" 
d="M174 0h-112v499h112v-499zM250 610h-264v81h264v-81z" />
    <glyph glyph-name="umacron" unicode="&#x16b;" horiz-adv-x="593" 
d="M530 0h-111v96l-1 28v375h112v-499zM426 211l23 -19q3 -61 -22 -108t-70.5 -73.5t-106.5 -26.5q-88 0 -141 53t-53 153v309h112v-298q0 -60 30 -91.5t82 -31.5q37 0 68.5 17t52.5 47t25 69zM440 610h-294v81h294v-81z" />
    <glyph glyph-name="uni0308" unicode="&#x308;" 
d="M108 604q-29 0 -49 19.5t-20 47.5q0 29 20 48.5t49 19.5q30 0 49.5 -19.5t19.5 -48.5q0 -28 -19.5 -47.5t-49.5 -19.5zM-108 604q-29 0 -49 19.5t-20 47.5q0 29 20 48.5t49 19.5t49 -19.5t20 -48.5q0 -28 -20 -47.5t-49 -19.5z" />
    <glyph glyph-name="uni0308.cap" 
d="M111 797q-29 0 -49.5 20t-20.5 48q0 29 20.5 49t49.5 20q30 0 50 -20t20 -49q0 -28 -20 -48t-50 -20zM-111 797q-30 0 -50 20t-20 48q0 29 20 49t50 20q29 0 49.5 -20t20.5 -49q0 -28 -20.5 -48t-49.5 -20z" />
    <glyph glyph-name="uni0308.narrow" 
d="M85 607q-27 0 -46.5 18.5t-19.5 44.5q0 28 19.5 46.5t46.5 18.5q28 0 47 -18.5t19 -46.5q0 -26 -19 -44.5t-47 -18.5zM-85 607q-27 0 -46.5 18.5t-19.5 44.5q0 28 19.5 46.5t46.5 18.5q28 0 47 -18.5t19 -46.5q0 -26 -19 -44.5t-47 -18.5z" />
    <glyph glyph-name="dieresis" unicode="&#xa8;" horiz-adv-x="595" 
d="M400 604q-29 0 -49 19.5t-20 47.5q0 29 20 48.5t49 19.5q30 0 49.5 -19.5t19.5 -48.5q0 -28 -19.5 -47.5t-49.5 -19.5zM184 604q-29 0 -49 19.5t-20 47.5q0 29 20 48.5t49 19.5t49 -19.5t20 -48.5q0 -28 -20 -47.5t-49 -19.5z" />
    <glyph glyph-name="uni0306" unicode="&#x306;" 
d="M0 584q-63 0 -110 42t-54 116h86q6 -42 27.5 -61.5t50.5 -19.5q30 0 51 19.5t27 61.5h86q-7 -74 -53.5 -116t-110.5 -42z" />
    <glyph glyph-name="uni0306.cap" 
d="M0 795q-71 0 -119 40t-55 107h90q5 -32 28 -51t56 -19t56.5 19t27.5 51h90q-7 -67 -55 -107t-119 -40z" />
    <glyph glyph-name="breve" unicode="&#x2d8;" horiz-adv-x="595" 
d="M292 584q-63 0 -110 42t-54 116h86q6 -42 27.5 -61.5t50.5 -19.5q30 0 51 19.5t27 61.5h86q-7 -74 -53.5 -116t-110.5 -42z" />
    <glyph glyph-name="Adieresis" unicode="&#xc4;" horiz-adv-x="756" 
d="M582 172h-412v98h412v-98zM724 0h-122l-245 637h38l-245 -637h-118l283 715h126zM488 797q-29 0 -49.5 20t-20.5 48q0 29 20.5 49t49.5 20q30 0 50 -20t20 -49q0 -28 -20 -48t-50 -20zM266 797q-30 0 -50 20t-20 48q0 29 20 49t50 20q29 0 49.5 -20t20.5 -49
q0 -28 -20.5 -48t-49.5 -20z" />
    <glyph glyph-name="Edieresis" unicode="&#xcb;" horiz-adv-x="613" 
d="M568 0h-492v715h492v-98h-377v-519h377v-98zM549 314h-368v98h368v-98zM433 797q-29 0 -49.5 20t-20.5 48q0 29 20.5 49t49.5 20q30 0 50 -20t20 -49q0 -28 -20 -48t-50 -20zM211 797q-30 0 -50 20t-20 48q0 29 20 49t50 20q29 0 49.5 -20t20.5 -49q0 -28 -20.5 -48
t-49.5 -20z" />
    <glyph glyph-name="Idieresis" unicode="&#xcf;" horiz-adv-x="267" 
d="M191 0h-115v715h115v-715zM244 797q-29 0 -49.5 20t-20.5 48q0 29 20.5 49t49.5 20q30 0 50 -20t20 -49q0 -28 -20 -48t-50 -20zM22 797q-30 0 -50 20t-20 48q0 29 20 49t50 20q29 0 49.5 -20t20.5 -49q0 -28 -20.5 -48t-49.5 -20z" />
    <glyph glyph-name="Odieresis" unicode="&#xd6;" horiz-adv-x="860" 
d="M430 -16q-82 0 -151 28t-120 78.5t-79 119t-28 148.5t28 148t79 118.5t120 78.5t151 28t151 -28t120 -78.5t79 -118.5t28 -148t-28 -148.5t-79 -119t-120 -78.5t-151 -28zM430 86q76 0 134 35t91 96.5t33 140.5t-33 140t-91 96t-134 35q-75 0 -133.5 -35t-91.5 -96
t-33 -140t33 -140.5t91.5 -96.5t133.5 -35zM541 797q-29 0 -49.5 20t-20.5 48q0 29 20.5 49t49.5 20q30 0 50 -20t20 -49q0 -28 -20 -48t-50 -20zM319 797q-30 0 -50 20t-20 48q0 29 20 49t50 20q29 0 49.5 -20t20.5 -49q0 -28 -20.5 -48t-49.5 -20z" />
    <glyph glyph-name="Udieresis" unicode="&#xdc;" horiz-adv-x="734" 
d="M666 715v-433q0 -141 -79.5 -219.5t-219.5 -78.5q-139 0 -219 78.5t-80 219.5v433h115v-433q0 -92 48.5 -144t135.5 -52q88 0 136.5 52t48.5 144v433h114zM478 797q-29 0 -49.5 20t-20.5 48q0 29 20.5 49t49.5 20q30 0 50 -20t20 -49q0 -28 -20 -48t-50 -20zM256 797
q-30 0 -50 20t-20 48q0 29 20 49t50 20q29 0 49.5 -20t20.5 -49q0 -28 -20.5 -48t-49.5 -20z" />
    <glyph glyph-name="Wdieresis" unicode="&#x1e84;" horiz-adv-x="1065" 
d="M819 0h-129l-164 574h14l-165 -574h-129l-210 715h123l170 -625h-31l180 625h110l180 -625h-28l169 625h120zM643 797q-29 0 -49.5 20t-20.5 48q0 29 20.5 49t49.5 20q30 0 50 -20t20 -49q0 -28 -20 -48t-50 -20zM421 797q-30 0 -50 20t-20 48q0 29 20 49t50 20
q29 0 49.5 -20t20.5 -49q0 -28 -20.5 -48t-49.5 -20z" />
    <glyph glyph-name="Ydieresis" unicode="&#x178;" horiz-adv-x="689" 
d="M402 0h-115v298l-271 417h135l207 -335h-26l208 335h133l-271 -418v-297zM455 797q-29 0 -49.5 20t-20.5 48q0 29 20.5 49t49.5 20q30 0 50 -20t20 -49q0 -28 -20 -48t-50 -20zM233 797q-30 0 -50 20t-20 48q0 29 20 49t50 20q29 0 49.5 -20t20.5 -49q0 -28 -20.5 -48
t-49.5 -20z" />
    <glyph glyph-name="Abreve" unicode="&#x102;" horiz-adv-x="756" 
d="M582 172h-412v98h412v-98zM724 0h-122l-245 637h38l-245 -637h-118l283 715h126zM377 795q-71 0 -119 40t-55 107h90q5 -32 28 -51t56 -19t56.5 19t27.5 51h90q-7 -67 -55 -107t-119 -40z" />
    <glyph glyph-name="Gbreve" unicode="&#x11e;" horiz-adv-x="806" 
d="M749 0h-107v101l12 -5q-35 -53 -96.5 -82.5t-137.5 -29.5q-79 0 -146 27.5t-117 77.5t-77.5 118.5t-27.5 150.5q0 80 28 148t79 118.5t120 78.5t150 28q94 0 170.5 -36.5t124.5 -98.5l-77 -77q-36 51 -91.5 80.5t-126.5 29.5q-74 0 -132.5 -35.5t-91.5 -96.5t-33 -139
q0 -79 33.5 -141t92 -97t134.5 -35q75 0 133.5 32.5t84.5 90.5l-9 -39v121h-218v94h326v-384zM428 795q-71 0 -119 40t-55 107h90q5 -32 28 -51t56 -19t56.5 19t27.5 51h90q-7 -67 -55 -107t-119 -40z" />
    <glyph glyph-name="adieresis" unicode="&#xe4;" horiz-adv-x="566" 
d="M511 0h-103v99l-5 21v187q0 56 -36 87.5t-98 31.5q-45 0 -83.5 -18t-66.5 -50l-64 70q41 41 96 64t122 23q71 0 124.5 -24.5t83.5 -70.5t30 -110v-310zM231 -16q-57 0 -101 21t-68 57t-24 84q0 52 30 88.5t83.5 56t123.5 19.5h140v-77h-130q-59 0 -95.5 -21t-36.5 -62
q0 -37 28 -58.5t73 -21.5q43 0 79 18t57.5 49.5t24.5 72.5l36 -17q0 -61 -28 -108.5t-78 -74t-114 -26.5zM386 604q-29 0 -49 19.5t-20 47.5q0 29 20 48.5t49 19.5q30 0 49.5 -19.5t19.5 -48.5q0 -28 -19.5 -47.5t-49.5 -19.5zM170 604q-29 0 -49 19.5t-20 47.5
q0 29 20 48.5t49 19.5t49 -19.5t20 -48.5q0 -28 -20 -47.5t-49 -19.5z" />
    <glyph glyph-name="edieresis" unicode="&#xeb;" horiz-adv-x="607" 
d="M490 151l64 -70q-39 -45 -97 -71t-129 -26q-84 0 -148.5 34t-101 94t-36.5 137q0 78 35 138t96 94t137 34q74 0 131 -33.5t90 -92t33 -135.5v-6h-111v11q0 50 -18.5 87.5t-50.5 58t-75 20.5q-45 0 -79.5 -21.5t-53.5 -60t-19 -92.5t22.5 -94t62 -61.5t91.5 -21.5
q95 0 157 77zM564 214h-444v76h428l16 -37v-39zM418 604q-29 0 -49 19.5t-20 47.5q0 29 20 48.5t49 19.5q30 0 49.5 -19.5t19.5 -48.5q0 -28 -19.5 -47.5t-49.5 -19.5zM202 604q-29 0 -49 19.5t-20 47.5q0 29 20 48.5t49 19.5t49 -19.5t20 -48.5q0 -28 -20 -47.5t-49 -19.5z
" />
    <glyph glyph-name="idieresis" unicode="&#xef;" horiz-adv-x="237" 
d="M174 0h-112v499h112v-499zM203 607q-27 0 -46.5 18.5t-19.5 44.5q0 28 19.5 46.5t46.5 18.5q28 0 47 -18.5t19 -46.5q0 -26 -19 -44.5t-47 -18.5zM33 607q-27 0 -46.5 18.5t-19.5 44.5q0 28 19.5 46.5t46.5 18.5q28 0 47 -18.5t19 -46.5q0 -26 -19 -44.5t-47 -18.5z" />
    <glyph glyph-name="odieresis" unicode="&#xf6;" horiz-adv-x="628" 
d="M314 -16q-79 0 -140.5 34t-96.5 94t-35 138q0 77 35 137t96.5 94t140.5 34q80 0 141.5 -34t96 -94t34.5 -137q0 -78 -34.5 -138t-96 -94t-141.5 -34zM314 78q47 0 82 22t54.5 60.5t19.5 89.5q0 50 -19.5 88.5t-54.5 60.5t-82 22q-46 0 -81 -22t-54.5 -60.5t-19.5 -88.5
q0 -51 19.5 -89.5t54.5 -60.5t81 -22zM422 604q-29 0 -49 19.5t-20 47.5q0 29 20 48.5t49 19.5q30 0 49.5 -19.5t19.5 -48.5q0 -28 -19.5 -47.5t-49.5 -19.5zM206 604q-29 0 -49 19.5t-20 47.5q0 29 20 48.5t49 19.5t49 -19.5t20 -48.5q0 -28 -20 -47.5t-49 -19.5z" />
    <glyph glyph-name="udieresis" unicode="&#xfc;" horiz-adv-x="593" 
d="M530 0h-111v96l-1 28v375h112v-499zM426 211l23 -19q3 -61 -22 -108t-70.5 -73.5t-106.5 -26.5q-88 0 -141 53t-53 153v309h112v-298q0 -60 30 -91.5t82 -31.5q37 0 68.5 17t52.5 47t25 69zM401 604q-29 0 -49 19.5t-20 47.5q0 29 20 48.5t49 19.5q30 0 49.5 -19.5
t19.5 -48.5q0 -28 -19.5 -47.5t-49.5 -19.5zM185 604q-29 0 -49 19.5t-20 47.5q0 29 20 48.5t49 19.5t49 -19.5t20 -48.5q0 -28 -20 -47.5t-49 -19.5z" />
    <glyph glyph-name="wdieresis" unicode="&#x1e85;" horiz-adv-x="807" 
d="M632 0h-116l-127 400h29l-127 -400h-116l-157 499h112l123 -435h-32l135 435h99l135 -435h-32l122 435h109zM512 604q-29 0 -49 19.5t-20 47.5q0 29 20 48.5t49 19.5q30 0 49.5 -19.5t19.5 -48.5q0 -28 -19.5 -47.5t-49.5 -19.5zM296 604q-29 0 -49 19.5t-20 47.5
q0 29 20 48.5t49 19.5t49 -19.5t20 -48.5q0 -28 -20 -47.5t-49 -19.5z" />
    <glyph glyph-name="ydieresis" unicode="&#xff;" horiz-adv-x="572" 
d="M441 499h113l-243 -568q-25 -61 -65 -93t-109 -32h-60v93h55q31 0 51.5 14.5t32.5 43.5l17 42l-215 500h117l172 -437h-39zM395 604q-29 0 -49 19.5t-20 47.5q0 29 20 48.5t49 19.5q30 0 49.5 -19.5t19.5 -48.5q0 -28 -19.5 -47.5t-49.5 -19.5zM179 604q-29 0 -49 19.5
t-20 47.5q0 29 20 48.5t49 19.5t49 -19.5t20 -48.5q0 -28 -20 -47.5t-49 -19.5z" />
    <glyph glyph-name="abreve" unicode="&#x103;" horiz-adv-x="566" 
d="M511 0h-103v99l-5 21v187q0 56 -36 87.5t-98 31.5q-45 0 -83.5 -18t-66.5 -50l-64 70q41 41 96 64t122 23q71 0 124.5 -24.5t83.5 -70.5t30 -110v-310zM231 -16q-57 0 -101 21t-68 57t-24 84q0 52 30 88.5t83.5 56t123.5 19.5h140v-77h-130q-59 0 -95.5 -21t-36.5 -62
q0 -37 28 -58.5t73 -21.5q43 0 79 18t57.5 49.5t24.5 72.5l36 -17q0 -61 -28 -108.5t-78 -74t-114 -26.5zM278 584q-63 0 -110 42t-54 116h86q6 -42 27.5 -61.5t50.5 -19.5q30 0 51 19.5t27 61.5h86q-7 -74 -53.5 -116t-110.5 -42z" />
    <glyph glyph-name="gbreve" unicode="&#x11f;" horiz-adv-x="645" 
d="M583 55q0 -79 -36 -138.5t-98.5 -93t-143.5 -33.5q-71 0 -131 23.5t-99 64.5l65 75q29 -33 68.5 -51.5t91.5 -18.5t90.5 21t59.5 58t21 88v192q0 59 -22 98.5t-57 60t-78 20.5q-46 0 -81 -22t-54.5 -59.5t-19.5 -84.5q0 -48 20 -85t56 -58t84 -21q41 0 75.5 16.5t57 46.5
t27.5 69l24 -18q5 -59 -20.5 -106.5t-74 -75t-113.5 -27.5q-71 0 -128.5 32.5t-91 91t-33.5 134.5q0 77 34 135.5t91 92t126 33.5q53 0 95.5 -20t71 -58t36.5 -92h-24v154h111v-444zM315 584q-63 0 -110 42t-54 116h86q6 -42 27.5 -61.5t50.5 -19.5q30 0 51 19.5t27 61.5h86
q-7 -74 -53.5 -116t-110.5 -42z" />
    <glyph glyph-name="uni0307" unicode="&#x307;" 
d="M0 604q-29 0 -49 19.5t-20 47.5q0 29 20 48.5t49 19.5t49 -19.5t20 -48.5q0 -28 -20 -47.5t-49 -19.5z" />
    <glyph glyph-name="uni0307.cap" 
d="M0 796q-31 0 -51 20t-20 49q0 30 20 50t51 20t51 -20t20 -50q0 -29 -20 -49t-51 -20z" />
    <glyph glyph-name="dotaccent" unicode="&#x2d9;" horiz-adv-x="595" 
d="M292 604q-29 0 -49 19.5t-20 47.5q0 29 20 48.5t49 19.5t49 -19.5t20 -48.5q0 -28 -20 -47.5t-49 -19.5z" />
    <glyph glyph-name="Edotaccent" unicode="&#x116;" horiz-adv-x="613" 
d="M568 0h-492v715h492v-98h-377v-519h377v-98zM549 314h-368v98h368v-98zM322 796q-31 0 -51 20t-20 49q0 30 20 50t51 20t51 -20t20 -50q0 -29 -20 -49t-51 -20z" />
    <glyph glyph-name="Idotaccent" unicode="&#x130;" horiz-adv-x="267" 
d="M191 0h-115v715h115v-715zM133 796q-31 0 -51 20t-20 49q0 30 20 50t51 20t51 -20t20 -50q0 -29 -20 -49t-51 -20z" />
    <glyph glyph-name="Cdotaccent" unicode="&#x10a;" horiz-adv-x="748" 
d="M634 196l77 -77q-47 -62 -122.5 -98.5t-166.5 -36.5q-81 0 -148.5 28t-117 78t-77 118.5t-27.5 148.5q0 81 28 149.5t78.5 118.5t118.5 78t148 28q91 0 165 -36.5t121 -98.5l-77 -77q-35 51 -88 80.5t-121 29.5q-72 0 -129 -35.5t-90 -96.5t-33 -140q0 -78 33 -139
t90 -96.5t129 -35.5q68 0 121 30t88 80zM421 796q-31 0 -51 20t-20 49q0 30 20 50t51 20t51 -20t20 -50q0 -29 -20 -49t-51 -20z" />
    <glyph glyph-name="Gdotaccent" unicode="&#x120;" horiz-adv-x="806" 
d="M749 0h-107v101l12 -5q-35 -53 -96.5 -82.5t-137.5 -29.5q-79 0 -146 27.5t-117 77.5t-77.5 118.5t-27.5 150.5q0 80 28 148t79 118.5t120 78.5t150 28q94 0 170.5 -36.5t124.5 -98.5l-77 -77q-36 51 -91.5 80.5t-126.5 29.5q-74 0 -132.5 -35.5t-91.5 -96.5t-33 -139
q0 -79 33.5 -141t92 -97t134.5 -35q75 0 133.5 32.5t84.5 90.5l-9 -39v121h-218v94h326v-384zM428 796q-31 0 -51 20t-20 49q0 30 20 50t51 20t51 -20t20 -50q0 -29 -20 -49t-51 -20z" />
    <glyph glyph-name="Zdotaccent" unicode="&#x17b;" horiz-adv-x="632" 
d="M589 0h-545v99l392 517h-379v99h519v-99l-392 -517h405v-99zM316 796q-31 0 -51 20t-20 49q0 30 20 50t51 20t51 -20t20 -50q0 -29 -20 -49t-51 -20z" />
    <glyph glyph-name="uni1E24" unicode="&#x1e24;" horiz-adv-x="749" 
d="M558 0v715h115v-715h-115zM191 0h-115v715h115v-715zM181 319v99h387v-99h-387zM375 -235q-31 0 -51 20t-20 49q0 30 20 50t51 20t51 -20t20 -50q0 -29 -20 -49t-51 -20z" />
    <glyph glyph-name="uni1E36" unicode="&#x1e36;" horiz-adv-x="572" 
d="M538 0h-462v715h115v-615h347v-100zM307 -235q-31 0 -51 20t-20 49q0 30 20 50t51 20t51 -20t20 -50q0 -29 -20 -49t-51 -20z" />
    <glyph glyph-name="edotaccent" unicode="&#x117;" horiz-adv-x="607" 
d="M490 151l64 -70q-39 -45 -97 -71t-129 -26q-84 0 -148.5 34t-101 94t-36.5 137q0 78 35 138t96 94t137 34q74 0 131 -33.5t90 -92t33 -135.5v-6h-111v11q0 50 -18.5 87.5t-50.5 58t-75 20.5q-45 0 -79.5 -21.5t-53.5 -60t-19 -92.5t22.5 -94t62 -61.5t91.5 -21.5
q95 0 157 77zM564 214h-444v76h428l16 -37v-39zM310 604q-29 0 -49 19.5t-20 47.5q0 29 20 48.5t49 19.5t49 -19.5t20 -48.5q0 -28 -20 -47.5t-49 -19.5z" />
    <glyph glyph-name="cdotaccent" unicode="&#x10b;" horiz-adv-x="559" 
d="M453 153l72 -70q-37 -46 -91 -72.5t-124 -26.5q-77 0 -137.5 34.5t-95.5 94t-35 137.5q0 77 35 136.5t96.5 94t139.5 34.5q68 0 121.5 -26t90.5 -73l-72 -70q-22 34 -55.5 54.5t-80.5 20.5q-46 0 -82 -22t-56 -60.5t-20 -88.5t20 -89t56 -61t82 -22q47 0 80.5 21t55.5 54
zM313 604q-29 0 -49 19.5t-20 47.5q0 29 20 48.5t49 19.5t49 -19.5t20 -48.5q0 -28 -20 -47.5t-49 -19.5z" />
    <glyph glyph-name="gdotaccent" unicode="&#x121;" horiz-adv-x="645" 
d="M583 55q0 -79 -36 -138.5t-98.5 -93t-143.5 -33.5q-71 0 -131 23.5t-99 64.5l65 75q29 -33 68.5 -51.5t91.5 -18.5t90.5 21t59.5 58t21 88v192q0 59 -22 98.5t-57 60t-78 20.5q-46 0 -81 -22t-54.5 -59.5t-19.5 -84.5q0 -48 20 -85t56 -58t84 -21q41 0 75.5 16.5t57 46.5
t27.5 69l24 -18q5 -59 -20.5 -106.5t-74 -75t-113.5 -27.5q-71 0 -128.5 32.5t-91 91t-33.5 134.5q0 77 34 135.5t91 92t126 33.5q53 0 95.5 -20t71 -58t36.5 -92h-24v154h111v-444zM315 604q-29 0 -49 19.5t-20 47.5q0 29 20 48.5t49 19.5t49 -19.5t20 -48.5
q0 -28 -20 -47.5t-49 -19.5z" />
    <glyph glyph-name="zdotaccent" unicode="&#x17c;" horiz-adv-x="508" 
d="M471 0h-432v91l284 317h-274v91h412v-91l-284 -317h294v-91zM252 604q-29 0 -49 19.5t-20 47.5q0 29 20 48.5t49 19.5t49 -19.5t20 -48.5q0 -28 -20 -47.5t-49 -19.5z" />
    <glyph glyph-name="uni1E25" unicode="&#x1e25;" horiz-adv-x="595" 
d="M539 0h-112v288q0 67 -30 100t-81 33q-37 0 -69.5 -19t-52.5 -60t-20 -106v-236h-112v720h112v-375h-15q10 66 38.5 102.5t67.5 52t80 15.5q90 0 142 -55t52 -160v-300zM300 -245q-29 0 -49 20t-20 47q0 29 20 48.5t49 19.5t49 -19.5t20 -48.5q0 -27 -20 -47t-49 -20z
" />
    <glyph glyph-name="uni1E37" unicode="&#x1e37;" horiz-adv-x="237" 
d="M174 0h-112v720h112v-720zM118 -245q-29 0 -49 20t-20 47q0 29 20 48.5t49 19.5t49 -19.5t20 -48.5q0 -27 -20 -47t-49 -20z" />
    <glyph glyph-name="uni030A" unicode="&#x30a;" 
d="M118 677q0 -33 -15.5 -59t-42.5 -41.5t-60 -15.5t-60 15.5t-42.5 41.5t-15.5 59t15.5 59t42.5 41.5t60 15.5t60 -15.5t42.5 -41.5t15.5 -59zM52 677q0 22 -15 37.5t-37 15.5q-21 0 -36.5 -15.5t-15.5 -37.5q0 -23 15.5 -39t36.5 -16q22 0 37 16t15 39z" />
    <glyph glyph-name="uni030A.cap" 
d="M0 745q-33 0 -60.5 15.5t-43.5 42.5t-16 60t16 59.5t43.5 42.5t60.5 16q34 0 61 -16t43 -42.5t16 -59.5t-16 -60t-43 -42.5t-61 -15.5zM0 807q22 0 37 16t15 40t-15 39.5t-37 15.5t-37.5 -15.5t-15.5 -39.5t15.5 -40t37.5 -16z" />
    <glyph glyph-name="ring" unicode="&#x2da;" horiz-adv-x="595" 
d="M410 677q0 -33 -15.5 -59t-42.5 -41.5t-60 -15.5t-60 15.5t-42.5 41.5t-15.5 59t15.5 59t42.5 41.5t60 15.5t60 -15.5t42.5 -41.5t15.5 -59zM344 677q0 22 -15 37.5t-37 15.5q-21 0 -36.5 -15.5t-15.5 -37.5q0 -23 15.5 -39t36.5 -16q22 0 37 16t15 39z" />
    <glyph glyph-name="Aring" unicode="&#xc5;" horiz-adv-x="756" 
d="M582 172h-412v98h412v-98zM724 0h-122l-245 637h38l-245 -637h-118l283 715h126zM377 745q-33 0 -60.5 15.5t-43.5 42.5t-16 60t16 59.5t43.5 42.5t60.5 16q34 0 61 -16t43 -42.5t16 -59.5t-16 -60t-43 -42.5t-61 -15.5zM377 807q22 0 37 16t15 40t-15 39.5t-37 15.5
t-37.5 -15.5t-15.5 -39.5t15.5 -40t37.5 -16z" />
    <glyph glyph-name="Uring" unicode="&#x16e;" horiz-adv-x="734" 
d="M666 715v-433q0 -141 -79.5 -219.5t-219.5 -78.5q-139 0 -219 78.5t-80 219.5v433h115v-433q0 -92 48.5 -144t135.5 -52q88 0 136.5 52t48.5 144v433h114zM367 745q-33 0 -60.5 15.5t-43.5 42.5t-16 60t16 59.5t43.5 42.5t60.5 16q34 0 61 -16t43 -42.5t16 -59.5t-16 -60
t-43 -42.5t-61 -15.5zM367 807q22 0 37 16t15 40t-15 39.5t-37 15.5t-37.5 -15.5t-15.5 -39.5t15.5 -40t37.5 -16z" />
    <glyph glyph-name="aring" unicode="&#xe5;" horiz-adv-x="566" 
d="M511 0h-103v99l-5 21v187q0 56 -36 87.5t-98 31.5q-45 0 -83.5 -18t-66.5 -50l-64 70q41 41 96 64t122 23q71 0 124.5 -24.5t83.5 -70.5t30 -110v-310zM231 -16q-57 0 -101 21t-68 57t-24 84q0 52 30 88.5t83.5 56t123.5 19.5h140v-77h-130q-59 0 -95.5 -21t-36.5 -62
q0 -37 28 -58.5t73 -21.5q43 0 79 18t57.5 49.5t24.5 72.5l36 -17q0 -61 -28 -108.5t-78 -74t-114 -26.5zM396 677q0 -33 -15.5 -59t-42.5 -41.5t-60 -15.5t-60 15.5t-42.5 41.5t-15.5 59t15.5 59t42.5 41.5t60 15.5t60 -15.5t42.5 -41.5t15.5 -59zM330 677q0 22 -15 37.5
t-37 15.5q-21 0 -36.5 -15.5t-15.5 -37.5q0 -23 15.5 -39t36.5 -16q22 0 37 16t15 39z" />
    <glyph glyph-name="uring" unicode="&#x16f;" horiz-adv-x="593" 
d="M530 0h-111v96l-1 28v375h112v-499zM426 211l23 -19q3 -61 -22 -108t-70.5 -73.5t-106.5 -26.5q-88 0 -141 53t-53 153v309h112v-298q0 -60 30 -91.5t82 -31.5q37 0 68.5 17t52.5 47t25 69zM411 677q0 -33 -15.5 -59t-42.5 -41.5t-60 -15.5t-60 15.5t-42.5 41.5t-15.5 59
t15.5 59t42.5 41.5t60 15.5t60 -15.5t42.5 -41.5t15.5 -59zM345 677q0 22 -15 37.5t-37 15.5q-21 0 -36.5 -15.5t-15.5 -37.5q0 -23 15.5 -39t36.5 -16q22 0 37 16t15 39z" />
    <glyph glyph-name="dotbelowcomb" unicode="&#x323;" 
d="M0 -245q-29 0 -49 20t-20 47q0 29 20 48.5t49 19.5t49 -19.5t20 -48.5q0 -27 -20 -47t-49 -20z" />
    <glyph glyph-name="dotbelowcomb.cap" 
d="M0 -235q-31 0 -51 20t-20 49q0 30 20 50t51 20t51 -20t20 -50q0 -29 -20 -49t-51 -20z" />
    <glyph glyph-name="hookabovecomb" unicode="&#x309;" 
d="M-8 560l-28 53q32 15 47 29.5t15 30.5q0 33 -42 33q-28 0 -54 -21l-40 49q47 42 106 42q47 0 78.5 -27t31.5 -69q0 -38 -29 -69t-85 -51z" />
    <glyph glyph-name="hookabovecomb.cap" 
d="M-10 765l-28 53q31 15 46.5 30.5t15.5 32.5q0 34 -42 34q-28 0 -54 -20l-40 48q47 42 106 42q48 0 79 -27t31 -68q0 -39 -29.5 -71.5t-84.5 -53.5z" />
    <glyph glyph-name="uni1EA0" unicode="&#x1ea0;" horiz-adv-x="756" 
d="M582 172h-412v98h412v-98zM724 0h-122l-245 637h38l-245 -637h-118l283 715h126zM377 -235q-31 0 -51 20t-20 49q0 30 20 50t51 20t51 -20t20 -50q0 -29 -20 -49t-51 -20z" />
    <glyph glyph-name="uni1EB8" unicode="&#x1eb8;" horiz-adv-x="613" 
d="M568 0h-492v715h492v-98h-377v-519h377v-98zM549 314h-368v98h368v-98zM322 -235q-31 0 -51 20t-20 49q0 30 20 50t51 20t51 -20t20 -50q0 -29 -20 -49t-51 -20z" />
    <glyph glyph-name="uni1ECA" unicode="&#x1eca;" horiz-adv-x="267" 
d="M191 0h-115v715h115v-715zM133 -235q-31 0 -51 20t-20 49q0 30 20 50t51 20t51 -20t20 -50q0 -29 -20 -49t-51 -20z" />
    <glyph glyph-name="uni1ECC" unicode="&#x1ecc;" horiz-adv-x="860" 
d="M430 -16q-82 0 -151 28t-120 78.5t-79 119t-28 148.5t28 148t79 118.5t120 78.5t151 28t151 -28t120 -78.5t79 -118.5t28 -148t-28 -148.5t-79 -119t-120 -78.5t-151 -28zM430 86q76 0 134 35t91 96.5t33 140.5t-33 140t-91 96t-134 35q-75 0 -133.5 -35t-91.5 -96
t-33 -140t33 -140.5t91.5 -96.5t133.5 -35zM430 -235q-31 0 -51 20t-20 49q0 30 20 50t51 20t51 -20t20 -50q0 -29 -20 -49t-51 -20z" />
    <glyph glyph-name="uni1EE4" unicode="&#x1ee4;" horiz-adv-x="734" 
d="M666 715v-433q0 -141 -79.5 -219.5t-219.5 -78.5q-139 0 -219 78.5t-80 219.5v433h115v-433q0 -92 48.5 -144t135.5 -52q88 0 136.5 52t48.5 144v433h114zM368 -235q-31 0 -51 20t-20 49q0 30 20 50t51 20t51 -20t20 -50q0 -29 -20 -49t-51 -20z" />
    <glyph glyph-name="uni1EF4" unicode="&#x1ef4;" horiz-adv-x="689" 
d="M402 0h-115v298l-271 417h135l207 -335h-26l208 335h133l-271 -418v-297zM344 -235q-31 0 -51 20t-20 49q0 30 20 50t51 20t51 -20t20 -50q0 -29 -20 -49t-51 -20z" />
    <glyph glyph-name="uni1EA2" unicode="&#x1ea2;" horiz-adv-x="756" 
d="M582 172h-412v98h412v-98zM724 0h-122l-245 637h38l-245 -637h-118l283 715h126zM367 765l-28 53q31 15 46.5 30.5t15.5 32.5q0 34 -42 34q-28 0 -54 -20l-40 48q47 42 106 42q48 0 79 -27t31 -68q0 -39 -29.5 -71.5t-84.5 -53.5z" />
    <glyph glyph-name="uni1EBA" unicode="&#x1eba;" horiz-adv-x="613" 
d="M568 0h-492v715h492v-98h-377v-519h377v-98zM549 314h-368v98h368v-98zM312 765l-28 53q31 15 46.5 30.5t15.5 32.5q0 34 -42 34q-28 0 -54 -20l-40 48q47 42 106 42q48 0 79 -27t31 -68q0 -39 -29.5 -71.5t-84.5 -53.5z" />
    <glyph glyph-name="uni1EC8" unicode="&#x1ec8;" horiz-adv-x="267" 
d="M191 0h-115v715h115v-715zM123 765l-28 53q31 15 46.5 30.5t15.5 32.5q0 34 -42 34q-28 0 -54 -20l-40 48q47 42 106 42q48 0 79 -27t31 -68q0 -39 -29.5 -71.5t-84.5 -53.5z" />
    <glyph glyph-name="uni1ECE" unicode="&#x1ece;" horiz-adv-x="860" 
d="M430 -16q-82 0 -151 28t-120 78.5t-79 119t-28 148.5t28 148t79 118.5t120 78.5t151 28t151 -28t120 -78.5t79 -118.5t28 -148t-28 -148.5t-79 -119t-120 -78.5t-151 -28zM430 86q76 0 134 35t91 96.5t33 140.5t-33 140t-91 96t-134 35q-75 0 -133.5 -35t-91.5 -96
t-33 -140t33 -140.5t91.5 -96.5t133.5 -35zM420 765l-28 53q31 15 46.5 30.5t15.5 32.5q0 34 -42 34q-28 0 -54 -20l-40 48q47 42 106 42q48 0 79 -27t31 -68q0 -39 -29.5 -71.5t-84.5 -53.5z" />
    <glyph glyph-name="uni1EE6" unicode="&#x1ee6;" horiz-adv-x="734" 
d="M666 715v-433q0 -141 -79.5 -219.5t-219.5 -78.5q-139 0 -219 78.5t-80 219.5v433h115v-433q0 -92 48.5 -144t135.5 -52q88 0 136.5 52t48.5 144v433h114zM357 765l-28 53q31 15 46.5 30.5t15.5 32.5q0 34 -42 34q-28 0 -54 -20l-40 48q47 42 106 42q48 0 79 -27t31 -68
q0 -39 -29.5 -71.5t-84.5 -53.5z" />
    <glyph glyph-name="uni1EF6" unicode="&#x1ef6;" horiz-adv-x="689" 
d="M402 0h-115v298l-271 417h135l207 -335h-26l208 335h133l-271 -418v-297zM334 765l-28 53q31 15 46.5 30.5t15.5 32.5q0 34 -42 34q-28 0 -54 -20l-40 48q47 42 106 42q48 0 79 -27t31 -68q0 -39 -29.5 -71.5t-84.5 -53.5z" />
    <glyph glyph-name="uni1EA1" unicode="&#x1ea1;" horiz-adv-x="566" 
d="M511 0h-103v99l-5 21v187q0 56 -36 87.5t-98 31.5q-45 0 -83.5 -18t-66.5 -50l-64 70q41 41 96 64t122 23q71 0 124.5 -24.5t83.5 -70.5t30 -110v-310zM231 -16q-57 0 -101 21t-68 57t-24 84q0 52 30 88.5t83.5 56t123.5 19.5h140v-77h-130q-59 0 -95.5 -21t-36.5 -62
q0 -37 28 -58.5t73 -21.5q43 0 79 18t57.5 49.5t24.5 72.5l36 -17q0 -61 -28 -108.5t-78 -74t-114 -26.5zM278 -245q-29 0 -49 20t-20 47q0 29 20 48.5t49 19.5t49 -19.5t20 -48.5q0 -27 -20 -47t-49 -20z" />
    <glyph glyph-name="uni1EB9" unicode="&#x1eb9;" horiz-adv-x="607" 
d="M490 151l64 -70q-39 -45 -97 -71t-129 -26q-84 0 -148.5 34t-101 94t-36.5 137q0 78 35 138t96 94t137 34q74 0 131 -33.5t90 -92t33 -135.5v-6h-111v11q0 50 -18.5 87.5t-50.5 58t-75 20.5q-45 0 -79.5 -21.5t-53.5 -60t-19 -92.5t22.5 -94t62 -61.5t91.5 -21.5
q95 0 157 77zM564 214h-444v76h428l16 -37v-39zM310 -245q-29 0 -49 20t-20 47q0 29 20 48.5t49 19.5t49 -19.5t20 -48.5q0 -27 -20 -47t-49 -20z" />
    <glyph glyph-name="uni1ECB" unicode="&#x1ecb;" horiz-adv-x="237" 
d="M174 0h-112v499h112v-499zM118 602q-29 0 -50 20t-21 48q0 30 21 50t50 20q30 0 50.5 -20t20.5 -49t-20.5 -49t-50.5 -20zM118 -245q-29 0 -49 20t-20 47q0 29 20 48.5t49 19.5t49 -19.5t20 -48.5q0 -27 -20 -47t-49 -20z" />
    <glyph glyph-name="uni1ECD" unicode="&#x1ecd;" horiz-adv-x="628" 
d="M314 -16q-79 0 -140.5 34t-96.5 94t-35 138q0 77 35 137t96.5 94t140.5 34q80 0 141.5 -34t96 -94t34.5 -137q0 -78 -34.5 -138t-96 -94t-141.5 -34zM314 78q47 0 82 22t54.5 60.5t19.5 89.5q0 50 -19.5 88.5t-54.5 60.5t-82 22q-46 0 -81 -22t-54.5 -60.5t-19.5 -88.5
q0 -51 19.5 -89.5t54.5 -60.5t81 -22zM314 -245q-29 0 -49 20t-20 47q0 29 20 48.5t49 19.5t49 -19.5t20 -48.5q0 -27 -20 -47t-49 -20z" />
    <glyph glyph-name="uni1EE5" unicode="&#x1ee5;" horiz-adv-x="593" 
d="M530 0h-111v96l-1 28v375h112v-499zM426 211l23 -19q3 -61 -22 -108t-70.5 -73.5t-106.5 -26.5q-88 0 -141 53t-53 153v309h112v-298q0 -60 30 -91.5t82 -31.5q37 0 68.5 17t52.5 47t25 69zM293 -245q-29 0 -49 20t-20 47q0 29 20 48.5t49 19.5t49 -19.5t20 -48.5
q0 -27 -20 -47t-49 -20z" />
    <glyph glyph-name="uni1EF5" unicode="&#x1ef5;" horiz-adv-x="572" 
d="M441 499h113l-243 -568q-25 -61 -65 -93t-109 -32h-60v93h55q31 0 51.5 14.5t32.5 43.5l17 42l-215 500h117l172 -437h-39zM419 -245q-29 0 -49 20t-20 47q0 29 20 48.5t49 19.5t49 -19.5t20 -48.5q0 -27 -20 -47t-49 -20z" />
    <glyph glyph-name="uni1EA3" unicode="&#x1ea3;" horiz-adv-x="566" 
d="M511 0h-103v99l-5 21v187q0 56 -36 87.5t-98 31.5q-45 0 -83.5 -18t-66.5 -50l-64 70q41 41 96 64t122 23q71 0 124.5 -24.5t83.5 -70.5t30 -110v-310zM231 -16q-57 0 -101 21t-68 57t-24 84q0 52 30 88.5t83.5 56t123.5 19.5h140v-77h-130q-59 0 -95.5 -21t-36.5 -62
q0 -37 28 -58.5t73 -21.5q43 0 79 18t57.5 49.5t24.5 72.5l36 -17q0 -61 -28 -108.5t-78 -74t-114 -26.5zM270 560l-28 53q32 15 47 29.5t15 30.5q0 33 -42 33q-28 0 -54 -21l-40 49q47 42 106 42q47 0 78.5 -27t31.5 -69q0 -38 -29 -69t-85 -51z" />
    <glyph glyph-name="uni1EBB" unicode="&#x1ebb;" horiz-adv-x="607" 
d="M490 151l64 -70q-39 -45 -97 -71t-129 -26q-84 0 -148.5 34t-101 94t-36.5 137q0 78 35 138t96 94t137 34q74 0 131 -33.5t90 -92t33 -135.5v-6h-111v11q0 50 -18.5 87.5t-50.5 58t-75 20.5q-45 0 -79.5 -21.5t-53.5 -60t-19 -92.5t22.5 -94t62 -61.5t91.5 -21.5
q95 0 157 77zM564 214h-444v76h428l16 -37v-39zM302 560l-28 53q32 15 47 29.5t15 30.5q0 33 -42 33q-28 0 -54 -21l-40 49q47 42 106 42q47 0 78.5 -27t31.5 -69q0 -38 -29 -69t-85 -51z" />
    <glyph glyph-name="uni1EC9" unicode="&#x1ec9;" horiz-adv-x="237" 
d="M174 0h-112v499h112v-499zM110 560l-28 53q32 15 47 29.5t15 30.5q0 33 -42 33q-28 0 -54 -21l-40 49q47 42 106 42q47 0 78.5 -27t31.5 -69q0 -38 -29 -69t-85 -51z" />
    <glyph glyph-name="uni1ECF" unicode="&#x1ecf;" horiz-adv-x="628" 
d="M314 -16q-79 0 -140.5 34t-96.5 94t-35 138q0 77 35 137t96.5 94t140.5 34q80 0 141.5 -34t96 -94t34.5 -137q0 -78 -34.5 -138t-96 -94t-141.5 -34zM314 78q47 0 82 22t54.5 60.5t19.5 89.5q0 50 -19.5 88.5t-54.5 60.5t-82 22q-46 0 -81 -22t-54.5 -60.5t-19.5 -88.5
q0 -51 19.5 -89.5t54.5 -60.5t81 -22zM306 560l-28 53q32 15 47 29.5t15 30.5q0 33 -42 33q-28 0 -54 -21l-40 49q47 42 106 42q47 0 78.5 -27t31.5 -69q0 -38 -29 -69t-85 -51z" />
    <glyph glyph-name="uni1EE7" unicode="&#x1ee7;" horiz-adv-x="593" 
d="M530 0h-111v96l-1 28v375h112v-499zM426 211l23 -19q3 -61 -22 -108t-70.5 -73.5t-106.5 -26.5q-88 0 -141 53t-53 153v309h112v-298q0 -60 30 -91.5t82 -31.5q37 0 68.5 17t52.5 47t25 69zM285 560l-28 53q32 15 47 29.5t15 30.5q0 33 -42 33q-28 0 -54 -21l-40 49
q47 42 106 42q47 0 78.5 -27t31.5 -69q0 -38 -29 -69t-85 -51z" />
    <glyph glyph-name="uni1EF7" unicode="&#x1ef7;" horiz-adv-x="572" 
d="M441 499h113l-243 -568q-25 -61 -65 -93t-109 -32h-60v93h55q31 0 51.5 14.5t32.5 43.5l17 42l-215 500h117l172 -437h-39zM279 560l-28 53q32 15 47 29.5t15 30.5q0 33 -42 33q-28 0 -54 -21l-40 49q47 42 106 42q47 0 78.5 -27t31.5 -69q0 -38 -29 -69t-85 -51z" />
    <glyph glyph-name="circumflexacutecomb" 
d="M-178 587l123 146h110l123 -146h-106l-118 117h89l-118 -117h-103zM137 677l104 146h116l-140 -146h-80z" />
    <glyph glyph-name="circumflexacutecomb.cap" 
d="M-183 799l124 135h118l124 -135h-107l-123 113h91l-122 -113h-105zM145 878l110 147h117l-147 -147h-80z" />
    <glyph glyph-name="circumflexgravecomb" 
d="M-178 587l123 146h110l123 -146h-106l-118 117h89l-118 -117h-103zM176 677l-140 146h118l104 -146h-82z" />
    <glyph glyph-name="circumflexgravecomb.cap" 
d="M183 799h-107l-123 113h91l-122 -113h-105l124 135h118zM197 878l-144 147h117l106 -147h-79z" />
    <glyph glyph-name="circumflexhookabovecomb" 
d="M-178 587l123 146h110l123 -146h-106l-118 117h89l-118 -117h-103zM171 656l-27 50q30 14 45 28t15 30q0 31 -40 31q-27 0 -53 -20l-37 47q42 40 101 40q45 0 75 -26.5t30 -65.5q0 -35 -28 -65t-81 -49z" />
    <glyph glyph-name="circumflexhookabovecomb.cap" 
d="M-183 799l124 135h118l124 -135h-107l-123 113h91l-122 -113h-105zM178 861l-27 50q59 28 59 60t-40 32q-26 0 -51 -19l-38 46q45 40 101 40q44 0 74 -26t30 -66q0 -37 -28 -67t-80 -50z" />
    <glyph glyph-name="circumflextildecomb" 
d="M-178 587l123 146h110l123 -146h-106l-118 117h89l-118 -117h-103zM-101 766l-64 27q8 47 34.5 73t62.5 26q22 0 39 -6.5t40 -22.5q24 -16 33.5 -20.5t17.5 -4.5q30 0 39 54l65 -27q-9 -48 -35 -74t-63 -26q-21 0 -37.5 7t-38.5 22q-22 14 -33 20t-21 6q-15 0 -24.5 -14
t-14.5 -40z" />
    <glyph glyph-name="circumflextildecomb.cap" 
d="M-185 799l124 135h117l125 -135h-107l-123 113h91l-123 -113h-104zM-113 959l-69 27q7 48 35.5 75.5t69.5 27.5q19 0 38.5 -7.5t50.5 -26.5q24 -15 36 -20t22 -5q16 0 27 14.5t15 41.5l70 -27q-8 -47 -36 -75t-69 -28q-21 0 -43 8t-52 27q-20 13 -31 18.5t-22 5.5
q-15 0 -26 -14.5t-16 -41.5z" />
    <glyph glyph-name="uni1EA4" unicode="&#x1ea4;" horiz-adv-x="756" 
d="M582 172h-412v98h412v-98zM724 0h-122l-245 637h38l-245 -637h-118l283 715h126zM194 799l124 135h118l124 -135h-107l-123 113h91l-122 -113h-105zM522 878l110 147h117l-147 -147h-80z" />
    <glyph glyph-name="uni1EBE" unicode="&#x1ebe;" horiz-adv-x="613" 
d="M568 0h-492v715h492v-98h-377v-519h377v-98zM549 314h-368v98h368v-98zM139 799l124 135h118l124 -135h-107l-123 113h91l-122 -113h-105zM467 878l110 147h117l-147 -147h-80z" />
    <glyph glyph-name="uni1ED0" unicode="&#x1ed0;" horiz-adv-x="860" 
d="M430 -16q-82 0 -151 28t-120 78.5t-79 119t-28 148.5t28 148t79 118.5t120 78.5t151 28t151 -28t120 -78.5t79 -118.5t28 -148t-28 -148.5t-79 -119t-120 -78.5t-151 -28zM430 86q76 0 134 35t91 96.5t33 140.5t-33 140t-91 96t-134 35q-75 0 -133.5 -35t-91.5 -96
t-33 -140t33 -140.5t91.5 -96.5t133.5 -35zM247 799l124 135h118l124 -135h-107l-123 113h91l-122 -113h-105zM575 878l110 147h117l-147 -147h-80z" />
    <glyph glyph-name="uni1EA6" unicode="&#x1ea6;" horiz-adv-x="756" 
d="M582 172h-412v98h412v-98zM724 0h-122l-245 637h38l-245 -637h-118l283 715h126zM560 799h-107l-123 113h91l-122 -113h-105l124 135h118zM574 878l-144 147h117l106 -147h-79z" />
    <glyph glyph-name="uni1EC0" unicode="&#x1ec0;" horiz-adv-x="613" 
d="M568 0h-492v715h492v-98h-377v-519h377v-98zM549 314h-368v98h368v-98zM505 799h-107l-123 113h91l-122 -113h-105l124 135h118zM519 878l-144 147h117l106 -147h-79z" />
    <glyph glyph-name="uni1ED2" unicode="&#x1ed2;" horiz-adv-x="860" 
d="M430 -16q-82 0 -151 28t-120 78.5t-79 119t-28 148.5t28 148t79 118.5t120 78.5t151 28t151 -28t120 -78.5t79 -118.5t28 -148t-28 -148.5t-79 -119t-120 -78.5t-151 -28zM430 86q76 0 134 35t91 96.5t33 140.5t-33 140t-91 96t-134 35q-75 0 -133.5 -35t-91.5 -96
t-33 -140t33 -140.5t91.5 -96.5t133.5 -35zM613 799h-107l-123 113h91l-122 -113h-105l124 135h118zM627 878l-144 147h117l106 -147h-79z" />
    <glyph glyph-name="uni1EA8" unicode="&#x1ea8;" horiz-adv-x="756" 
d="M582 172h-412v98h412v-98zM724 0h-122l-245 637h38l-245 -637h-118l283 715h126zM194 799l124 135h118l124 -135h-107l-123 113h91l-122 -113h-105zM555 861l-27 50q59 28 59 60t-40 32q-26 0 -51 -19l-38 46q45 40 101 40q44 0 74 -26t30 -66q0 -37 -28 -67t-80 -50z
" />
    <glyph glyph-name="uni1EC2" unicode="&#x1ec2;" horiz-adv-x="613" 
d="M568 0h-492v715h492v-98h-377v-519h377v-98zM549 314h-368v98h368v-98zM139 799l124 135h118l124 -135h-107l-123 113h91l-122 -113h-105zM500 861l-27 50q59 28 59 60t-40 32q-26 0 -51 -19l-38 46q45 40 101 40q44 0 74 -26t30 -66q0 -37 -28 -67t-80 -50z" />
    <glyph glyph-name="uni1ED4" unicode="&#x1ed4;" horiz-adv-x="860" 
d="M430 -16q-82 0 -151 28t-120 78.5t-79 119t-28 148.5t28 148t79 118.5t120 78.5t151 28t151 -28t120 -78.5t79 -118.5t28 -148t-28 -148.5t-79 -119t-120 -78.5t-151 -28zM430 86q76 0 134 35t91 96.5t33 140.5t-33 140t-91 96t-134 35q-75 0 -133.5 -35t-91.5 -96
t-33 -140t33 -140.5t91.5 -96.5t133.5 -35zM247 799l124 135h118l124 -135h-107l-123 113h91l-122 -113h-105zM608 861l-27 50q59 28 59 60t-40 32q-26 0 -51 -19l-38 46q45 40 101 40q44 0 74 -26t30 -66q0 -37 -28 -67t-80 -50z" />
    <glyph glyph-name="uni1EAA" unicode="&#x1eaa;" horiz-adv-x="756" 
d="M582 172h-412v98h412v-98zM724 0h-122l-245 637h38l-245 -637h-118l283 715h126zM192 799l124 135h117l125 -135h-107l-123 113h91l-123 -113h-104zM264 959l-69 27q7 48 35.5 75.5t69.5 27.5q19 0 38.5 -7.5t50.5 -26.5q24 -15 36 -20t22 -5q16 0 27 14.5t15 41.5
l70 -27q-8 -47 -36 -75t-69 -28q-21 0 -43 8t-52 27q-20 13 -31 18.5t-22 5.5q-15 0 -26 -14.5t-16 -41.5z" />
    <glyph glyph-name="uni1EC4" unicode="&#x1ec4;" horiz-adv-x="613" 
d="M568 0h-492v715h492v-98h-377v-519h377v-98zM549 314h-368v98h368v-98zM137 799l124 135h117l125 -135h-107l-123 113h91l-123 -113h-104zM209 959l-69 27q7 48 35.5 75.5t69.5 27.5q19 0 38.5 -7.5t50.5 -26.5q24 -15 36 -20t22 -5q16 0 27 14.5t15 41.5l70 -27
q-8 -47 -36 -75t-69 -28q-21 0 -43 8t-52 27q-20 13 -31 18.5t-22 5.5q-15 0 -26 -14.5t-16 -41.5z" />
    <glyph glyph-name="uni1ED6" unicode="&#x1ed6;" horiz-adv-x="860" 
d="M430 -16q-82 0 -151 28t-120 78.5t-79 119t-28 148.5t28 148t79 118.5t120 78.5t151 28t151 -28t120 -78.5t79 -118.5t28 -148t-28 -148.5t-79 -119t-120 -78.5t-151 -28zM430 86q76 0 134 35t91 96.5t33 140.5t-33 140t-91 96t-134 35q-75 0 -133.5 -35t-91.5 -96
t-33 -140t33 -140.5t91.5 -96.5t133.5 -35zM245 799l124 135h117l125 -135h-107l-123 113h91l-123 -113h-104zM317 959l-69 27q7 48 35.5 75.5t69.5 27.5q19 0 38.5 -7.5t50.5 -26.5q24 -15 36 -20t22 -5q16 0 27 14.5t15 41.5l70 -27q-8 -47 -36 -75t-69 -28q-21 0 -43 8
t-52 27q-20 13 -31 18.5t-22 5.5q-15 0 -26 -14.5t-16 -41.5z" />
    <glyph glyph-name="uni1EAC" unicode="&#x1eac;" horiz-adv-x="756" 
d="M582 172h-412v98h412v-98zM724 0h-122l-245 637h38l-245 -637h-118l283 715h126zM567 799h-108l-134 128h102l-133 -128h-107l133 144h114zM377 -235q-31 0 -51 20t-20 49q0 30 20 50t51 20t51 -20t20 -50q0 -29 -20 -49t-51 -20z" />
    <glyph glyph-name="uni1EC6" unicode="&#x1ec6;" horiz-adv-x="613" 
d="M568 0h-492v715h492v-98h-377v-519h377v-98zM549 314h-368v98h368v-98zM512 799h-108l-134 128h102l-133 -128h-107l133 144h114zM322 -235q-31 0 -51 20t-20 49q0 30 20 50t51 20t51 -20t20 -50q0 -29 -20 -49t-51 -20z" />
    <glyph glyph-name="uni1ED8" unicode="&#x1ed8;" horiz-adv-x="860" 
d="M430 -16q-82 0 -151 28t-120 78.5t-79 119t-28 148.5t28 148t79 118.5t120 78.5t151 28t151 -28t120 -78.5t79 -118.5t28 -148t-28 -148.5t-79 -119t-120 -78.5t-151 -28zM430 86q76 0 134 35t91 96.5t33 140.5t-33 140t-91 96t-134 35q-75 0 -133.5 -35t-91.5 -96
t-33 -140t33 -140.5t91.5 -96.5t133.5 -35zM620 799h-108l-134 128h102l-133 -128h-107l133 144h114zM430 -235q-31 0 -51 20t-20 49q0 30 20 50t51 20t51 -20t20 -50q0 -29 -20 -49t-51 -20z" />
    <glyph glyph-name="uni1EA5" unicode="&#x1ea5;" horiz-adv-x="566" 
d="M511 0h-103v99l-5 21v187q0 56 -36 87.5t-98 31.5q-45 0 -83.5 -18t-66.5 -50l-64 70q41 41 96 64t122 23q71 0 124.5 -24.5t83.5 -70.5t30 -110v-310zM231 -16q-57 0 -101 21t-68 57t-24 84q0 52 30 88.5t83.5 56t123.5 19.5h140v-77h-130q-59 0 -95.5 -21t-36.5 -62
q0 -37 28 -58.5t73 -21.5q43 0 79 18t57.5 49.5t24.5 72.5l36 -17q0 -61 -28 -108.5t-78 -74t-114 -26.5zM100 587l123 146h110l123 -146h-106l-118 117h89l-118 -117h-103zM415 677l104 146h116l-140 -146h-80z" />
    <glyph glyph-name="uni1EBF" unicode="&#x1ebf;" horiz-adv-x="607" 
d="M490 151l64 -70q-39 -45 -97 -71t-129 -26q-84 0 -148.5 34t-101 94t-36.5 137q0 78 35 138t96 94t137 34q74 0 131 -33.5t90 -92t33 -135.5v-6h-111v11q0 50 -18.5 87.5t-50.5 58t-75 20.5q-45 0 -79.5 -21.5t-53.5 -60t-19 -92.5t22.5 -94t62 -61.5t91.5 -21.5
q95 0 157 77zM564 214h-444v76h428l16 -37v-39zM132 587l123 146h110l123 -146h-106l-118 117h89l-118 -117h-103zM447 677l104 146h116l-140 -146h-80z" />
    <glyph glyph-name="uni1ED1" unicode="&#x1ed1;" horiz-adv-x="628" 
d="M314 -16q-79 0 -140.5 34t-96.5 94t-35 138q0 77 35 137t96.5 94t140.5 34q80 0 141.5 -34t96 -94t34.5 -137q0 -78 -34.5 -138t-96 -94t-141.5 -34zM314 78q47 0 82 22t54.5 60.5t19.5 89.5q0 50 -19.5 88.5t-54.5 60.5t-82 22q-46 0 -81 -22t-54.5 -60.5t-19.5 -88.5
q0 -51 19.5 -89.5t54.5 -60.5t81 -22zM136 587l123 146h110l123 -146h-106l-118 117h89l-118 -117h-103zM451 677l104 146h116l-140 -146h-80z" />
    <glyph glyph-name="uni1EA7" unicode="&#x1ea7;" horiz-adv-x="566" 
d="M511 0h-103v99l-5 21v187q0 56 -36 87.5t-98 31.5q-45 0 -83.5 -18t-66.5 -50l-64 70q41 41 96 64t122 23q71 0 124.5 -24.5t83.5 -70.5t30 -110v-310zM231 -16q-57 0 -101 21t-68 57t-24 84q0 52 30 88.5t83.5 56t123.5 19.5h140v-77h-130q-59 0 -95.5 -21t-36.5 -62
q0 -37 28 -58.5t73 -21.5q43 0 79 18t57.5 49.5t24.5 72.5l36 -17q0 -61 -28 -108.5t-78 -74t-114 -26.5zM100 587l123 146h110l123 -146h-106l-118 117h89l-118 -117h-103zM454 677l-140 146h118l104 -146h-82z" />
    <glyph glyph-name="uni1EC1" unicode="&#x1ec1;" horiz-adv-x="607" 
d="M490 151l64 -70q-39 -45 -97 -71t-129 -26q-84 0 -148.5 34t-101 94t-36.5 137q0 78 35 138t96 94t137 34q74 0 131 -33.5t90 -92t33 -135.5v-6h-111v11q0 50 -18.5 87.5t-50.5 58t-75 20.5q-45 0 -79.5 -21.5t-53.5 -60t-19 -92.5t22.5 -94t62 -61.5t91.5 -21.5
q95 0 157 77zM564 214h-444v76h428l16 -37v-39zM132 587l123 146h110l123 -146h-106l-118 117h89l-118 -117h-103zM486 677l-140 146h118l104 -146h-82z" />
    <glyph glyph-name="uni1ED3" unicode="&#x1ed3;" horiz-adv-x="628" 
d="M314 -16q-79 0 -140.5 34t-96.5 94t-35 138q0 77 35 137t96.5 94t140.5 34q80 0 141.5 -34t96 -94t34.5 -137q0 -78 -34.5 -138t-96 -94t-141.5 -34zM314 78q47 0 82 22t54.5 60.5t19.5 89.5q0 50 -19.5 88.5t-54.5 60.5t-82 22q-46 0 -81 -22t-54.5 -60.5t-19.5 -88.5
q0 -51 19.5 -89.5t54.5 -60.5t81 -22zM136 587l123 146h110l123 -146h-106l-118 117h89l-118 -117h-103zM490 677l-140 146h118l104 -146h-82z" />
    <glyph glyph-name="uni1EA9" unicode="&#x1ea9;" horiz-adv-x="566" 
d="M511 0h-103v99l-5 21v187q0 56 -36 87.5t-98 31.5q-45 0 -83.5 -18t-66.5 -50l-64 70q41 41 96 64t122 23q71 0 124.5 -24.5t83.5 -70.5t30 -110v-310zM231 -16q-57 0 -101 21t-68 57t-24 84q0 52 30 88.5t83.5 56t123.5 19.5h140v-77h-130q-59 0 -95.5 -21t-36.5 -62
q0 -37 28 -58.5t73 -21.5q43 0 79 18t57.5 49.5t24.5 72.5l36 -17q0 -61 -28 -108.5t-78 -74t-114 -26.5zM100 587l123 146h110l123 -146h-106l-118 117h89l-118 -117h-103zM449 656l-27 50q30 14 45 28t15 30q0 31 -40 31q-27 0 -53 -20l-37 47q42 40 101 40q45 0 75 -26.5
t30 -65.5q0 -35 -28 -65t-81 -49z" />
    <glyph glyph-name="uni1EC3" unicode="&#x1ec3;" horiz-adv-x="607" 
d="M490 151l64 -70q-39 -45 -97 -71t-129 -26q-84 0 -148.5 34t-101 94t-36.5 137q0 78 35 138t96 94t137 34q74 0 131 -33.5t90 -92t33 -135.5v-6h-111v11q0 50 -18.5 87.5t-50.5 58t-75 20.5q-45 0 -79.5 -21.5t-53.5 -60t-19 -92.5t22.5 -94t62 -61.5t91.5 -21.5
q95 0 157 77zM564 214h-444v76h428l16 -37v-39zM132 587l123 146h110l123 -146h-106l-118 117h89l-118 -117h-103zM481 656l-27 50q30 14 45 28t15 30q0 31 -40 31q-27 0 -53 -20l-37 47q42 40 101 40q45 0 75 -26.5t30 -65.5q0 -35 -28 -65t-81 -49z" />
    <glyph glyph-name="uni1ED5" unicode="&#x1ed5;" horiz-adv-x="628" 
d="M314 -16q-79 0 -140.5 34t-96.5 94t-35 138q0 77 35 137t96.5 94t140.5 34q80 0 141.5 -34t96 -94t34.5 -137q0 -78 -34.5 -138t-96 -94t-141.5 -34zM314 78q47 0 82 22t54.5 60.5t19.5 89.5q0 50 -19.5 88.5t-54.5 60.5t-82 22q-46 0 -81 -22t-54.5 -60.5t-19.5 -88.5
q0 -51 19.5 -89.5t54.5 -60.5t81 -22zM136 587l123 146h110l123 -146h-106l-118 117h89l-118 -117h-103zM485 656l-27 50q30 14 45 28t15 30q0 31 -40 31q-27 0 -53 -20l-37 47q42 40 101 40q45 0 75 -26.5t30 -65.5q0 -35 -28 -65t-81 -49z" />
    <glyph glyph-name="uni1EAB" unicode="&#x1eab;" horiz-adv-x="566" 
d="M511 0h-103v99l-5 21v187q0 56 -36 87.5t-98 31.5q-45 0 -83.5 -18t-66.5 -50l-64 70q41 41 96 64t122 23q71 0 124.5 -24.5t83.5 -70.5t30 -110v-310zM231 -16q-57 0 -101 21t-68 57t-24 84q0 52 30 88.5t83.5 56t123.5 19.5h140v-77h-130q-59 0 -95.5 -21t-36.5 -62
q0 -37 28 -58.5t73 -21.5q43 0 79 18t57.5 49.5t24.5 72.5l36 -17q0 -61 -28 -108.5t-78 -74t-114 -26.5zM100 587l123 146h110l123 -146h-106l-118 117h89l-118 -117h-103zM177 766l-64 27q8 47 34.5 73t62.5 26q22 0 39 -6.5t40 -22.5q24 -16 33.5 -20.5t17.5 -4.5
q30 0 39 54l65 -27q-9 -48 -35 -74t-63 -26q-21 0 -37.5 7t-38.5 22q-22 14 -33 20t-21 6q-15 0 -24.5 -14t-14.5 -40z" />
    <glyph glyph-name="uni1EC5" unicode="&#x1ec5;" horiz-adv-x="607" 
d="M490 151l64 -70q-39 -45 -97 -71t-129 -26q-84 0 -148.5 34t-101 94t-36.5 137q0 78 35 138t96 94t137 34q74 0 131 -33.5t90 -92t33 -135.5v-6h-111v11q0 50 -18.5 87.5t-50.5 58t-75 20.5q-45 0 -79.5 -21.5t-53.5 -60t-19 -92.5t22.5 -94t62 -61.5t91.5 -21.5
q95 0 157 77zM564 214h-444v76h428l16 -37v-39zM132 587l123 146h110l123 -146h-106l-118 117h89l-118 -117h-103zM209 766l-64 27q8 47 34.5 73t62.5 26q22 0 39 -6.5t40 -22.5q24 -16 33.5 -20.5t17.5 -4.5q30 0 39 54l65 -27q-9 -48 -35 -74t-63 -26q-21 0 -37.5 7
t-38.5 22q-22 14 -33 20t-21 6q-15 0 -24.5 -14t-14.5 -40z" />
    <glyph glyph-name="uni1ED7" unicode="&#x1ed7;" horiz-adv-x="628" 
d="M314 -16q-79 0 -140.5 34t-96.5 94t-35 138q0 77 35 137t96.5 94t140.5 34q80 0 141.5 -34t96 -94t34.5 -137q0 -78 -34.5 -138t-96 -94t-141.5 -34zM314 78q47 0 82 22t54.5 60.5t19.5 89.5q0 50 -19.5 88.5t-54.5 60.5t-82 22q-46 0 -81 -22t-54.5 -60.5t-19.5 -88.5
q0 -51 19.5 -89.5t54.5 -60.5t81 -22zM136 587l123 146h110l123 -146h-106l-118 117h89l-118 -117h-103zM213 766l-64 27q8 47 34.5 73t62.5 26q22 0 39 -6.5t40 -22.5q24 -16 33.5 -20.5t17.5 -4.5q30 0 39 54l65 -27q-9 -48 -35 -74t-63 -26q-21 0 -37.5 7t-38.5 22
q-22 14 -33 20t-21 6q-15 0 -24.5 -14t-14.5 -40z" />
    <glyph glyph-name="uni1EAD" unicode="&#x1ead;" horiz-adv-x="566" 
d="M511 0h-103v99l-5 21v187q0 56 -36 87.5t-98 31.5q-45 0 -83.5 -18t-66.5 -50l-64 70q41 41 96 64t122 23q71 0 124.5 -24.5t83.5 -70.5t30 -110v-310zM231 -16q-57 0 -101 21t-68 57t-24 84q0 52 30 88.5t83.5 56t123.5 19.5h140v-77h-130q-59 0 -95.5 -21t-36.5 -62
q0 -37 28 -58.5t73 -21.5q43 0 79 18t57.5 49.5t24.5 72.5l36 -17q0 -61 -28 -108.5t-78 -74t-114 -26.5zM459 587h-102l-125 158h89l-125 -158h-99l124 174h114zM278 -245q-29 0 -49 20t-20 47q0 29 20 48.5t49 19.5t49 -19.5t20 -48.5q0 -27 -20 -47t-49 -20z" />
    <glyph glyph-name="uni1EC7" unicode="&#x1ec7;" horiz-adv-x="607" 
d="M490 151l64 -70q-39 -45 -97 -71t-129 -26q-84 0 -148.5 34t-101 94t-36.5 137q0 78 35 138t96 94t137 34q74 0 131 -33.5t90 -92t33 -135.5v-6h-111v11q0 50 -18.5 87.5t-50.5 58t-75 20.5q-45 0 -79.5 -21.5t-53.5 -60t-19 -92.5t22.5 -94t62 -61.5t91.5 -21.5
q95 0 157 77zM564 214h-444v76h428l16 -37v-39zM491 587h-102l-125 158h89l-125 -158h-99l124 174h114zM310 -245q-29 0 -49 20t-20 47q0 29 20 48.5t49 19.5t49 -19.5t20 -48.5q0 -27 -20 -47t-49 -20z" />
    <glyph glyph-name="uni1ED9" unicode="&#x1ed9;" horiz-adv-x="628" 
d="M314 -16q-79 0 -140.5 34t-96.5 94t-35 138q0 77 35 137t96.5 94t140.5 34q80 0 141.5 -34t96 -94t34.5 -137q0 -78 -34.5 -138t-96 -94t-141.5 -34zM314 78q47 0 82 22t54.5 60.5t19.5 89.5q0 50 -19.5 88.5t-54.5 60.5t-82 22q-46 0 -81 -22t-54.5 -60.5t-19.5 -88.5
q0 -51 19.5 -89.5t54.5 -60.5t81 -22zM495 587h-102l-125 158h89l-125 -158h-99l124 174h114zM314 -245q-29 0 -49 20t-20 47q0 29 20 48.5t49 19.5t49 -19.5t20 -48.5q0 -27 -20 -47t-49 -20z" />
    <glyph glyph-name="breveacutecomb" 
d="M0 584q-63 0 -110 42t-54 116h86q6 -42 27.5 -61.5t50.5 -19.5q30 0 51 19.5t27 61.5h86q-7 -74 -53.5 -116t-110.5 -42zM-47 744l103 146h117l-140 -146h-80z" />
    <glyph glyph-name="breveacutecomb.cap" 
d="M0 795q-71 0 -119 40t-55 107h90q5 -32 28 -51t56 -19t56.5 19t27.5 51h90q-7 -67 -55 -107t-119 -40zM-47 943l110 148h117l-147 -148h-80z" />
    <glyph glyph-name="brevegravecomb" 
d="M0 584q-63 0 -110 42t-54 116h86q6 -42 27.5 -61.5t50.5 -19.5q30 0 51 19.5t27 61.5h86q-7 -74 -53.5 -116t-110.5 -42zM-33 744l-140 146h118l104 -146h-82z" />
    <glyph glyph-name="brevegravecomb.cap" 
d="M0 795q-71 0 -119 40t-55 107h90q5 -32 28 -51t56 -19t56.5 19t27.5 51h90q-7 -67 -55 -107t-119 -40zM-28 943l-143 148h116l107 -148h-80z" />
    <glyph glyph-name="brevehookabovecomb" 
d="M0 584q-63 0 -110 42t-54 116h86q6 -42 27.5 -61.5t50.5 -19.5q30 0 51 19.5t27 61.5h86q-7 -74 -53.5 -116t-110.5 -42zM-13 723l-27 50q30 14 44.5 28t14.5 30q0 31 -39 31q-27 0 -53 -20l-37 47q42 40 101 40q45 0 74.5 -26.5t29.5 -65.5q0 -35 -27.5 -65t-80.5 -49z
" />
    <glyph glyph-name="brevehookabovecomb.cap" 
d="M0 795q-71 0 -119 40t-55 107h90q5 -32 28 -51t56 -19t56.5 19t27.5 51h90q-7 -67 -55 -107t-119 -40zM-14 927l-27 50q59 28 59 60t-40 32q-26 0 -51 -20l-38 46q45 40 101 40q44 0 74 -26t30 -65q0 -37 -28 -67.5t-80 -49.5z" />
    <glyph glyph-name="brevetildecomb" 
d="M0 584q-63 0 -110 42t-54 116h86q6 -42 27.5 -61.5t50.5 -19.5q30 0 51 19.5t27 61.5h86q-7 -74 -53.5 -116t-110.5 -42zM-101 781l-65 26q9 48 35 74t63 26q21 0 38 -7t40 -22q24 -16 33.5 -21t18.5 -5q29 0 39 54l64 -26q-9 -48 -35 -74t-62 -26q-21 0 -38 7t-39 22
q-22 14 -33 20t-20 6q-15 0 -25 -14t-14 -40z" />
    <glyph glyph-name="brevetildecomb.cap" 
d="M0 795q-71 0 -119 40t-55 107h90q5 -32 28 -51t56 -19t56.5 19t27.5 51h90q-7 -67 -55 -107t-119 -40zM-112 973l-70 28q8 47 36 74.5t69 27.5q20 0 39.5 -7.5t50.5 -25.5q24 -15 36 -20.5t22 -5.5q15 0 26.5 14.5t15.5 42.5l69 -28q-7 -47 -35 -74.5t-69 -27.5
q-22 0 -43.5 8t-51.5 26q-20 13 -31.5 19t-21.5 6q-15 0 -26.5 -14.5t-15.5 -42.5z" />
    <glyph glyph-name="uni1EAE" unicode="&#x1eae;" horiz-adv-x="756" 
d="M582 172h-412v98h412v-98zM724 0h-122l-245 637h38l-245 -637h-118l283 715h126zM377 795q-71 0 -119 40t-55 107h90q5 -32 28 -51t56 -19t56.5 19t27.5 51h90q-7 -67 -55 -107t-119 -40zM330 943l110 148h117l-147 -148h-80z" />
    <glyph glyph-name="uni1EB0" unicode="&#x1eb0;" horiz-adv-x="756" 
d="M582 172h-412v98h412v-98zM724 0h-122l-245 637h38l-245 -637h-118l283 715h126zM377 795q-71 0 -119 40t-55 107h90q5 -32 28 -51t56 -19t56.5 19t27.5 51h90q-7 -67 -55 -107t-119 -40zM349 943l-143 148h116l107 -148h-80z" />
    <glyph glyph-name="uni1EB2" unicode="&#x1eb2;" horiz-adv-x="756" 
d="M582 172h-412v98h412v-98zM724 0h-122l-245 637h38l-245 -637h-118l283 715h126zM377 795q-71 0 -119 40t-55 107h90q5 -32 28 -51t56 -19t56.5 19t27.5 51h90q-7 -67 -55 -107t-119 -40zM363 927l-27 50q59 28 59 60t-40 32q-26 0 -51 -20l-38 46q45 40 101 40
q44 0 74 -26t30 -65q0 -37 -28 -67.5t-80 -49.5z" />
    <glyph glyph-name="uni1EB4" unicode="&#x1eb4;" horiz-adv-x="756" 
d="M582 172h-412v98h412v-98zM724 0h-122l-245 637h38l-245 -637h-118l283 715h126zM377 795q-71 0 -119 40t-55 107h90q5 -32 28 -51t56 -19t56.5 19t27.5 51h90q-7 -67 -55 -107t-119 -40zM265 973l-70 28q8 47 36 74.5t69 27.5q20 0 39.5 -7.5t50.5 -25.5
q24 -15 36 -20.5t22 -5.5q15 0 26.5 14.5t15.5 42.5l69 -28q-7 -47 -35 -74.5t-69 -27.5q-22 0 -43.5 8t-51.5 26q-20 13 -31.5 19t-21.5 6q-15 0 -26.5 -14.5t-15.5 -42.5z" />
    <glyph glyph-name="uni1EB6" unicode="&#x1eb6;" horiz-adv-x="756" 
d="M582 172h-412v98h412v-98zM724 0h-122l-245 637h38l-245 -637h-118l283 715h126zM377 795q-71 0 -119 40t-55 107h90q5 -32 28 -51t56 -19t56.5 19t27.5 51h90q-7 -67 -55 -107t-119 -40zM377 -235q-31 0 -51 20t-20 49q0 30 20 50t51 20t51 -20t20 -50q0 -29 -20 -49
t-51 -20z" />
    <glyph glyph-name="uni1EBC" unicode="&#x1ebc;" horiz-adv-x="613" 
d="M568 0h-492v715h492v-98h-377v-519h377v-98zM549 314h-368v98h368v-98zM437 923l75 -29q-10 -57 -44 -83t-75 -26q-26 0 -49.5 11.5t-44.5 25.5q-17 11 -28.5 17.5t-21.5 6.5q-14 0 -25.5 -13t-16.5 -46l-75 29q10 57 44 83t74 26q26 0 50 -11.5t44 -25.5
q18 -11 29 -17.5t21 -6.5q14 0 26 13.5t17 45.5z" />
    <glyph glyph-name="uni1EF8" unicode="&#x1ef8;" horiz-adv-x="689" 
d="M402 0h-115v298l-271 417h135l207 -335h-26l208 335h133l-271 -418v-297zM459 923l75 -29q-10 -57 -44 -83t-75 -26q-26 0 -49.5 11.5t-44.5 25.5q-17 11 -28.5 17.5t-21.5 6.5q-14 0 -25.5 -13t-16.5 -46l-75 29q10 57 44 83t74 26q26 0 50 -11.5t44 -25.5
q18 -11 29 -17.5t21 -6.5q14 0 26 13.5t17 45.5z" />
    <glyph glyph-name="uni1EAF" unicode="&#x1eaf;" horiz-adv-x="566" 
d="M511 0h-103v99l-5 21v187q0 56 -36 87.5t-98 31.5q-45 0 -83.5 -18t-66.5 -50l-64 70q41 41 96 64t122 23q71 0 124.5 -24.5t83.5 -70.5t30 -110v-310zM231 -16q-57 0 -101 21t-68 57t-24 84q0 52 30 88.5t83.5 56t123.5 19.5h140v-77h-130q-59 0 -95.5 -21t-36.5 -62
q0 -37 28 -58.5t73 -21.5q43 0 79 18t57.5 49.5t24.5 72.5l36 -17q0 -61 -28 -108.5t-78 -74t-114 -26.5zM278 584q-63 0 -110 42t-54 116h86q6 -42 27.5 -61.5t50.5 -19.5q30 0 51 19.5t27 61.5h86q-7 -74 -53.5 -116t-110.5 -42zM231 744l103 146h117l-140 -146h-80z" />
    <glyph glyph-name="uni1EB1" unicode="&#x1eb1;" horiz-adv-x="566" 
d="M511 0h-103v99l-5 21v187q0 56 -36 87.5t-98 31.5q-45 0 -83.5 -18t-66.5 -50l-64 70q41 41 96 64t122 23q71 0 124.5 -24.5t83.5 -70.5t30 -110v-310zM231 -16q-57 0 -101 21t-68 57t-24 84q0 52 30 88.5t83.5 56t123.5 19.5h140v-77h-130q-59 0 -95.5 -21t-36.5 -62
q0 -37 28 -58.5t73 -21.5q43 0 79 18t57.5 49.5t24.5 72.5l36 -17q0 -61 -28 -108.5t-78 -74t-114 -26.5zM278 584q-63 0 -110 42t-54 116h86q6 -42 27.5 -61.5t50.5 -19.5q30 0 51 19.5t27 61.5h86q-7 -74 -53.5 -116t-110.5 -42zM245 744l-140 146h118l104 -146h-82z" />
    <glyph glyph-name="uni1EB3" unicode="&#x1eb3;" horiz-adv-x="566" 
d="M511 0h-103v99l-5 21v187q0 56 -36 87.5t-98 31.5q-45 0 -83.5 -18t-66.5 -50l-64 70q41 41 96 64t122 23q71 0 124.5 -24.5t83.5 -70.5t30 -110v-310zM231 -16q-57 0 -101 21t-68 57t-24 84q0 52 30 88.5t83.5 56t123.5 19.5h140v-77h-130q-59 0 -95.5 -21t-36.5 -62
q0 -37 28 -58.5t73 -21.5q43 0 79 18t57.5 49.5t24.5 72.5l36 -17q0 -61 -28 -108.5t-78 -74t-114 -26.5zM278 584q-63 0 -110 42t-54 116h86q6 -42 27.5 -61.5t50.5 -19.5q30 0 51 19.5t27 61.5h86q-7 -74 -53.5 -116t-110.5 -42zM265 723l-27 50q30 14 44.5 28t14.5 30
q0 31 -39 31q-27 0 -53 -20l-37 47q42 40 101 40q45 0 74.5 -26.5t29.5 -65.5q0 -35 -27.5 -65t-80.5 -49z" />
    <glyph glyph-name="uni1EB5" unicode="&#x1eb5;" horiz-adv-x="566" 
d="M511 0h-103v99l-5 21v187q0 56 -36 87.5t-98 31.5q-45 0 -83.5 -18t-66.5 -50l-64 70q41 41 96 64t122 23q71 0 124.5 -24.5t83.5 -70.5t30 -110v-310zM231 -16q-57 0 -101 21t-68 57t-24 84q0 52 30 88.5t83.5 56t123.5 19.5h140v-77h-130q-59 0 -95.5 -21t-36.5 -62
q0 -37 28 -58.5t73 -21.5q43 0 79 18t57.5 49.5t24.5 72.5l36 -17q0 -61 -28 -108.5t-78 -74t-114 -26.5zM278 584q-63 0 -110 42t-54 116h86q6 -42 27.5 -61.5t50.5 -19.5q30 0 51 19.5t27 61.5h86q-7 -74 -53.5 -116t-110.5 -42zM177 781l-65 26q9 48 35 74t63 26
q21 0 38 -7t40 -22q24 -16 33.5 -21t18.5 -5q29 0 39 54l64 -26q-9 -48 -35 -74t-62 -26q-21 0 -38 7t-39 22q-22 14 -33 20t-20 6q-15 0 -25 -14t-14 -40z" />
    <glyph glyph-name="uni1EB7" unicode="&#x1eb7;" horiz-adv-x="566" 
d="M511 0h-103v99l-5 21v187q0 56 -36 87.5t-98 31.5q-45 0 -83.5 -18t-66.5 -50l-64 70q41 41 96 64t122 23q71 0 124.5 -24.5t83.5 -70.5t30 -110v-310zM231 -16q-57 0 -101 21t-68 57t-24 84q0 52 30 88.5t83.5 56t123.5 19.5h140v-77h-130q-59 0 -95.5 -21t-36.5 -62
q0 -37 28 -58.5t73 -21.5q43 0 79 18t57.5 49.5t24.5 72.5l36 -17q0 -61 -28 -108.5t-78 -74t-114 -26.5zM278 584q-63 0 -110 42t-54 116h86q6 -42 27.5 -61.5t50.5 -19.5q30 0 51 19.5t27 61.5h86q-7 -74 -53.5 -116t-110.5 -42zM278 -245q-29 0 -49 20t-20 47
q0 29 20 48.5t49 19.5t49 -19.5t20 -48.5q0 -27 -20 -47t-49 -20z" />
    <glyph glyph-name="uni1EBD" unicode="&#x1ebd;" horiz-adv-x="607" 
d="M490 151l64 -70q-39 -45 -97 -71t-129 -26q-84 0 -148.5 34t-101 94t-36.5 137q0 78 35 138t96 94t137 34q74 0 131 -33.5t90 -92t33 -135.5v-6h-111v11q0 50 -18.5 87.5t-50.5 58t-75 20.5q-45 0 -79.5 -21.5t-53.5 -60t-19 -92.5t22.5 -94t62 -61.5t91.5 -21.5
q95 0 157 77zM564 214h-444v76h428l16 -37v-39zM417 732l73 -31q-11 -57 -40 -84t-66 -27q-26 0 -49 10.5t-44 25.5q-16 13 -27.5 19.5t-21.5 6.5q-14 0 -24.5 -15.5t-15.5 -47.5l-73 31q11 57 40.5 84t66.5 27q26 0 49 -10.5t43 -25.5q17 -13 28.5 -19t21.5 -6
q14 0 24 15.5t15 46.5z" />
    <glyph glyph-name="uni1EF9" unicode="&#x1ef9;" horiz-adv-x="572" 
d="M441 499h113l-243 -568q-25 -61 -65 -93t-109 -32h-60v93h55q31 0 51.5 14.5t32.5 43.5l17 42l-215 500h117l172 -437h-39zM394 732l73 -31q-11 -57 -40 -84t-66 -27q-26 0 -49 10.5t-44 25.5q-16 13 -27.5 19.5t-21.5 6.5q-14 0 -24.5 -15.5t-15.5 -47.5l-73 31
q11 57 40.5 84t66.5 27q26 0 49 -10.5t43 -25.5q17 -13 28.5 -19t21.5 -6q14 0 24 15.5t15 46.5z" />
    <glyph glyph-name="uni031B" unicode="&#x31b;" 
d="M0 423v76h50q43 0 62.5 18t19.5 57v44h95v-39q0 -79 -44.5 -117.5t-138.5 -38.5h-44z" />
    <glyph glyph-name="Ohorn" unicode="&#x1a0;" horiz-adv-x="872" 
d="M430 -16q-82 0 -151 28t-120 78.5t-79 119t-28 148.5t28 148t79 118.5t120 78.5t151 28q21 0 42 -2t46 -7q24 -4 58 -6t68 -2q37 0 61.5 7.5t37 28t12.5 58.5v65h101v-56q0 -86 -42 -131.5t-120 -45.5q-11 0 -23 1.5t-21 3.5l10 14q69 -50 108.5 -127.5t39.5 -173.5
q0 -80 -28 -148.5t-79 -119t-120 -78.5t-151 -28zM430 86q76 0 134 35t91 96.5t33 140.5t-33 140t-91 96t-134 35q-75 0 -133.5 -35t-91.5 -96t-33 -140t33 -140.5t91.5 -96.5t133.5 -35z" />
    <glyph glyph-name="Uhorn" unicode="&#x1af;" horiz-adv-x="781" 
d="M367 -16q-139 0 -219 78.5t-80 219.5v433h115v-433q0 -92 48.5 -144t135.5 -52q88 0 136.5 52t48.5 144v433h87q48 0 71 23t23 70v65h100v-56q0 -92 -52 -137t-153 -42l38 45v-401q0 -141 -79.5 -219.5t-219.5 -78.5z" />
    <glyph glyph-name="uni1EDA" unicode="&#x1eda;" horiz-adv-x="872" 
d="M430 -16q-82 0 -151 28t-120 78.5t-79 119t-28 148.5t28 148t79 118.5t120 78.5t151 28q21 0 42 -2t46 -7q24 -4 58 -6t68 -2q37 0 61.5 7.5t37 28t12.5 58.5v65h101v-56q0 -86 -42 -131.5t-120 -45.5q-11 0 -23 1.5t-21 3.5l10 14q69 -50 108.5 -127.5t39.5 -173.5
q0 -80 -28 -148.5t-79 -119t-120 -78.5t-151 -28zM430 86q76 0 134 35t91 96.5t33 140.5t-33 140t-91 96t-134 35q-75 0 -133.5 -35t-91.5 -96t-33 -140t33 -140.5t91.5 -96.5t133.5 -35zM634 939l-163 -144h-109l134 144h138z" />
    <glyph glyph-name="uni1EE8" unicode="&#x1ee8;" horiz-adv-x="781" 
d="M367 -16q-139 0 -219 78.5t-80 219.5v433h115v-433q0 -92 48.5 -144t135.5 -52q88 0 136.5 52t48.5 144v433h87q48 0 71 23t23 70v65h100v-56q0 -92 -52 -137t-153 -42l38 45v-401q0 -141 -79.5 -219.5t-219.5 -78.5zM571 939l-163 -144h-109l134 144h138z" />
    <glyph glyph-name="uni1EDC" unicode="&#x1edc;" horiz-adv-x="872" 
d="M430 -16q-82 0 -151 28t-120 78.5t-79 119t-28 148.5t28 148t79 118.5t120 78.5t151 28q21 0 42 -2t46 -7q24 -4 58 -6t68 -2q37 0 61.5 7.5t37 28t12.5 58.5v65h101v-56q0 -86 -42 -131.5t-120 -45.5q-11 0 -23 1.5t-21 3.5l10 14q69 -50 108.5 -127.5t39.5 -173.5
q0 -80 -28 -148.5t-79 -119t-120 -78.5t-151 -28zM430 86q76 0 134 35t91 96.5t33 140.5t-33 140t-91 96t-134 35q-75 0 -133.5 -35t-91.5 -96t-33 -140t33 -140.5t91.5 -96.5t133.5 -35zM389 795l-163 144h138l134 -144h-109z" />
    <glyph glyph-name="uni1EEA" unicode="&#x1eea;" horiz-adv-x="781" 
d="M367 -16q-139 0 -219 78.5t-80 219.5v433h115v-433q0 -92 48.5 -144t135.5 -52q88 0 136.5 52t48.5 144v433h87q48 0 71 23t23 70v65h100v-56q0 -92 -52 -137t-153 -42l38 45v-401q0 -141 -79.5 -219.5t-219.5 -78.5zM326 795l-163 144h138l134 -144h-109z" />
    <glyph glyph-name="uni1EDE" unicode="&#x1ede;" horiz-adv-x="872" 
d="M430 -16q-82 0 -151 28t-120 78.5t-79 119t-28 148.5t28 148t79 118.5t120 78.5t151 28q21 0 42 -2t46 -7q24 -4 58 -6t68 -2q37 0 61.5 7.5t37 28t12.5 58.5v65h101v-56q0 -86 -42 -131.5t-120 -45.5q-11 0 -23 1.5t-21 3.5l10 14q69 -50 108.5 -127.5t39.5 -173.5
q0 -80 -28 -148.5t-79 -119t-120 -78.5t-151 -28zM430 86q76 0 134 35t91 96.5t33 140.5t-33 140t-91 96t-134 35q-75 0 -133.5 -35t-91.5 -96t-33 -140t33 -140.5t91.5 -96.5t133.5 -35zM420 765l-28 53q31 15 46.5 30.5t15.5 32.5q0 34 -42 34q-28 0 -54 -20l-40 48
q47 42 106 42q48 0 79 -27t31 -68q0 -39 -29.5 -71.5t-84.5 -53.5z" />
    <glyph glyph-name="uni1EEC" unicode="&#x1eec;" horiz-adv-x="781" 
d="M367 -16q-139 0 -219 78.5t-80 219.5v433h115v-433q0 -92 48.5 -144t135.5 -52q88 0 136.5 52t48.5 144v433h87q48 0 71 23t23 70v65h100v-56q0 -92 -52 -137t-153 -42l38 45v-401q0 -141 -79.5 -219.5t-219.5 -78.5zM357 765l-28 53q31 15 46.5 30.5t15.5 32.5
q0 34 -42 34q-28 0 -54 -20l-40 48q47 42 106 42q48 0 79 -27t31 -68q0 -39 -29.5 -71.5t-84.5 -53.5z" />
    <glyph glyph-name="uni1EE0" unicode="&#x1ee0;" horiz-adv-x="872" 
d="M430 -16q-82 0 -151 28t-120 78.5t-79 119t-28 148.5t28 148t79 118.5t120 78.5t151 28q21 0 42 -2t46 -7q24 -4 58 -6t68 -2q37 0 61.5 7.5t37 28t12.5 58.5v65h101v-56q0 -86 -42 -131.5t-120 -45.5q-11 0 -23 1.5t-21 3.5l10 14q69 -50 108.5 -127.5t39.5 -173.5
q0 -80 -28 -148.5t-79 -119t-120 -78.5t-151 -28zM430 86q76 0 134 35t91 96.5t33 140.5t-33 140t-91 96t-134 35q-75 0 -133.5 -35t-91.5 -96t-33 -140t33 -140.5t91.5 -96.5t133.5 -35zM545 923l75 -29q-10 -57 -44 -83t-75 -26q-26 0 -49.5 11.5t-44.5 25.5
q-17 11 -28.5 17.5t-21.5 6.5q-14 0 -25.5 -13t-16.5 -46l-75 29q10 57 44 83t74 26q26 0 50 -11.5t44 -25.5q18 -11 29 -17.5t21 -6.5q14 0 26 13.5t17 45.5z" />
    <glyph glyph-name="uni1EEE" unicode="&#x1eee;" horiz-adv-x="781" 
d="M367 -16q-139 0 -219 78.5t-80 219.5v433h115v-433q0 -92 48.5 -144t135.5 -52q88 0 136.5 52t48.5 144v433h87q48 0 71 23t23 70v65h100v-56q0 -92 -52 -137t-153 -42l38 45v-401q0 -141 -79.5 -219.5t-219.5 -78.5zM482 923l75 -29q-10 -57 -44 -83t-75 -26
q-26 0 -49.5 11.5t-44.5 25.5q-17 11 -28.5 17.5t-21.5 6.5q-14 0 -25.5 -13t-16.5 -46l-75 29q10 57 44 83t74 26q26 0 50 -11.5t44 -25.5q18 -11 29 -17.5t21 -6.5q14 0 26 13.5t17 45.5z" />
    <glyph glyph-name="uni1EE2" unicode="&#x1ee2;" horiz-adv-x="872" 
d="M430 -16q-82 0 -151 28t-120 78.5t-79 119t-28 148.5t28 148t79 118.5t120 78.5t151 28q21 0 42 -2t46 -7q24 -4 58 -6t68 -2q37 0 61.5 7.5t37 28t12.5 58.5v65h101v-56q0 -86 -42 -131.5t-120 -45.5q-11 0 -23 1.5t-21 3.5l10 14q69 -50 108.5 -127.5t39.5 -173.5
q0 -80 -28 -148.5t-79 -119t-120 -78.5t-151 -28zM430 86q76 0 134 35t91 96.5t33 140.5t-33 140t-91 96t-134 35q-75 0 -133.5 -35t-91.5 -96t-33 -140t33 -140.5t91.5 -96.5t133.5 -35zM430 -235q-31 0 -51 20t-20 49q0 30 20 50t51 20t51 -20t20 -50q0 -29 -20 -49
t-51 -20z" />
    <glyph glyph-name="uni1EF0" unicode="&#x1ef0;" horiz-adv-x="781" 
d="M367 -16q-139 0 -219 78.5t-80 219.5v433h115v-433q0 -92 48.5 -144t135.5 -52q88 0 136.5 52t48.5 144v433h87q48 0 71 23t23 70v65h100v-56q0 -92 -52 -137t-153 -42l38 45v-401q0 -141 -79.5 -219.5t-219.5 -78.5zM368 -235q-31 0 -51 20t-20 49q0 30 20 50t51 20
t51 -20t20 -50q0 -29 -20 -49t-51 -20z" />
    <glyph glyph-name="ohorn" unicode="&#x1a1;" horiz-adv-x="646" 
d="M314 -16q-79 0 -140.5 34t-96.5 94t-35 138q0 77 35 137t96.5 94t140.5 34q19 0 37.5 -2t34.5 -6q21 -4 37 -6t31 -2q44 0 64.5 17t20.5 58v44h95v-39q0 -74 -36.5 -111t-113.5 -43l16 25q40 -35 63 -86.5t23 -113.5q0 -78 -34.5 -138t-96 -94t-141.5 -34zM314 78
q47 0 82 22t54.5 60.5t19.5 89.5q0 50 -19.5 88.5t-54.5 60.5t-82 22q-46 0 -81 -22t-54.5 -60.5t-19.5 -88.5q0 -51 19.5 -89.5t54.5 -60.5t81 -22z" />
    <glyph glyph-name="uhorn" unicode="&#x1b0;" horiz-adv-x="656" 
d="M426 211l23 -19q3 -61 -22 -108t-70.5 -73.5t-106.5 -26.5q-88 0 -141 53t-53 153v309h112v-298q0 -60 30 -91.5t82 -31.5q37 0 68.5 17t52.5 47t25 69zM582 618h95v-39q0 -80 -45 -118t-142 -38l40 47v-470h-111v96l-1 28v375h83q43 0 62 18t19 57v44z" />
    <glyph glyph-name="uni1EDB" unicode="&#x1edb;" horiz-adv-x="646" 
d="M314 -16q-79 0 -140.5 34t-96.5 94t-35 138q0 77 35 137t96.5 94t140.5 34q19 0 37.5 -2t34.5 -6q21 -4 37 -6t31 -2q44 0 64.5 17t20.5 58v44h95v-39q0 -74 -36.5 -111t-113.5 -43l16 25q40 -35 63 -86.5t23 -113.5q0 -78 -34.5 -138t-96 -94t-141.5 -34zM314 78
q47 0 82 22t54.5 60.5t19.5 89.5q0 50 -19.5 88.5t-54.5 60.5t-82 22q-46 0 -81 -22t-54.5 -60.5t-19.5 -88.5q0 -51 19.5 -89.5t54.5 -60.5t81 -22zM490 761l-143 -174h-95l114 174h124z" />
    <glyph glyph-name="uni1EE9" unicode="&#x1ee9;" horiz-adv-x="656" 
d="M426 211l23 -19q3 -61 -22 -108t-70.5 -73.5t-106.5 -26.5q-88 0 -141 53t-53 153v309h112v-298q0 -60 30 -91.5t82 -31.5q37 0 68.5 17t52.5 47t25 69zM582 618h95v-39q0 -80 -45 -118t-142 -38l40 47v-470h-111v96l-1 28v375h83q43 0 62 18t19 57v44zM469 761
l-143 -174h-95l114 174h124z" />
    <glyph glyph-name="uni1EDD" unicode="&#x1edd;" horiz-adv-x="646" 
d="M314 -16q-79 0 -140.5 34t-96.5 94t-35 138q0 77 35 137t96.5 94t140.5 34q19 0 37.5 -2t34.5 -6q21 -4 37 -6t31 -2q44 0 64.5 17t20.5 58v44h95v-39q0 -74 -36.5 -111t-113.5 -43l16 25q40 -35 63 -86.5t23 -113.5q0 -78 -34.5 -138t-96 -94t-141.5 -34zM314 78
q47 0 82 22t54.5 60.5t19.5 89.5q0 50 -19.5 88.5t-54.5 60.5t-82 22q-46 0 -81 -22t-54.5 -60.5t-19.5 -88.5q0 -51 19.5 -89.5t54.5 -60.5t81 -22zM281 587l-143 174h124l114 -174h-95z" />
    <glyph glyph-name="uni1EEB" unicode="&#x1eeb;" horiz-adv-x="656" 
d="M426 211l23 -19q3 -61 -22 -108t-70.5 -73.5t-106.5 -26.5q-88 0 -141 53t-53 153v309h112v-298q0 -60 30 -91.5t82 -31.5q37 0 68.5 17t52.5 47t25 69zM582 618h95v-39q0 -80 -45 -118t-142 -38l40 47v-470h-111v96l-1 28v375h83q43 0 62 18t19 57v44zM260 587l-143 174
h124l114 -174h-95z" />
    <glyph glyph-name="uni1EDF" unicode="&#x1edf;" horiz-adv-x="646" 
d="M314 -16q-79 0 -140.5 34t-96.5 94t-35 138q0 77 35 137t96.5 94t140.5 34q19 0 37.5 -2t34.5 -6q21 -4 37 -6t31 -2q44 0 64.5 17t20.5 58v44h95v-39q0 -74 -36.5 -111t-113.5 -43l16 25q40 -35 63 -86.5t23 -113.5q0 -78 -34.5 -138t-96 -94t-141.5 -34zM314 78
q47 0 82 22t54.5 60.5t19.5 89.5q0 50 -19.5 88.5t-54.5 60.5t-82 22q-46 0 -81 -22t-54.5 -60.5t-19.5 -88.5q0 -51 19.5 -89.5t54.5 -60.5t81 -22zM306 560l-28 53q32 15 47 29.5t15 30.5q0 33 -42 33q-28 0 -54 -21l-40 49q47 42 106 42q47 0 78.5 -27t31.5 -69
q0 -38 -29 -69t-85 -51z" />
    <glyph glyph-name="uni1EED" unicode="&#x1eed;" horiz-adv-x="656" 
d="M426 211l23 -19q3 -61 -22 -108t-70.5 -73.5t-106.5 -26.5q-88 0 -141 53t-53 153v309h112v-298q0 -60 30 -91.5t82 -31.5q37 0 68.5 17t52.5 47t25 69zM582 618h95v-39q0 -80 -45 -118t-142 -38l40 47v-470h-111v96l-1 28v375h83q43 0 62 18t19 57v44zM285 560l-28 53
q32 15 47 29.5t15 30.5q0 33 -42 33q-28 0 -54 -21l-40 49q47 42 106 42q47 0 78.5 -27t31.5 -69q0 -38 -29 -69t-85 -51z" />
    <glyph glyph-name="uni1EE1" unicode="&#x1ee1;" horiz-adv-x="646" 
d="M314 -16q-79 0 -140.5 34t-96.5 94t-35 138q0 77 35 137t96.5 94t140.5 34q19 0 37.5 -2t34.5 -6q21 -4 37 -6t31 -2q44 0 64.5 17t20.5 58v44h95v-39q0 -74 -36.5 -111t-113.5 -43l16 25q40 -35 63 -86.5t23 -113.5q0 -78 -34.5 -138t-96 -94t-141.5 -34zM314 78
q47 0 82 22t54.5 60.5t19.5 89.5q0 50 -19.5 88.5t-54.5 60.5t-82 22q-46 0 -81 -22t-54.5 -60.5t-19.5 -88.5q0 -51 19.5 -89.5t54.5 -60.5t81 -22zM421 732l73 -31q-11 -57 -40 -84t-66 -27q-26 0 -49 10.5t-44 25.5q-16 13 -27.5 19.5t-21.5 6.5q-14 0 -24.5 -15.5
t-15.5 -47.5l-73 31q11 57 40.5 84t66.5 27q26 0 49 -10.5t43 -25.5q17 -13 28.5 -19t21.5 -6q14 0 24 15.5t15 46.5z" />
    <glyph glyph-name="uni1EEF" unicode="&#x1eef;" horiz-adv-x="656" 
d="M426 211l23 -19q3 -61 -22 -108t-70.5 -73.5t-106.5 -26.5q-88 0 -141 53t-53 153v309h112v-298q0 -60 30 -91.5t82 -31.5q37 0 68.5 17t52.5 47t25 69zM582 618h95v-39q0 -80 -45 -118t-142 -38l40 47v-470h-111v96l-1 28v375h83q43 0 62 18t19 57v44zM400 732l73 -31
q-11 -57 -40 -84t-66 -27q-26 0 -49 10.5t-44 25.5q-16 13 -27.5 19.5t-21.5 6.5q-14 0 -24.5 -15.5t-15.5 -47.5l-73 31q11 57 40.5 84t66.5 27q26 0 49 -10.5t43 -25.5q17 -13 28.5 -19t21.5 -6q14 0 24 15.5t15 46.5z" />
    <glyph glyph-name="uni1EE3" unicode="&#x1ee3;" horiz-adv-x="646" 
d="M314 -16q-79 0 -140.5 34t-96.5 94t-35 138q0 77 35 137t96.5 94t140.5 34q19 0 37.5 -2t34.5 -6q21 -4 37 -6t31 -2q44 0 64.5 17t20.5 58v44h95v-39q0 -74 -36.5 -111t-113.5 -43l16 25q40 -35 63 -86.5t23 -113.5q0 -78 -34.5 -138t-96 -94t-141.5 -34zM314 78
q47 0 82 22t54.5 60.5t19.5 89.5q0 50 -19.5 88.5t-54.5 60.5t-82 22q-46 0 -81 -22t-54.5 -60.5t-19.5 -88.5q0 -51 19.5 -89.5t54.5 -60.5t81 -22zM314 -245q-29 0 -49 20t-20 47q0 29 20 48.5t49 19.5t49 -19.5t20 -48.5q0 -27 -20 -47t-49 -20z" />
    <glyph glyph-name="uni1EF1" unicode="&#x1ef1;" horiz-adv-x="656" 
d="M426 211l23 -19q3 -61 -22 -108t-70.5 -73.5t-106.5 -26.5q-88 0 -141 53t-53 153v309h112v-298q0 -60 30 -91.5t82 -31.5q37 0 68.5 17t52.5 47t25 69zM582 618h95v-39q0 -80 -45 -118t-142 -38l40 47v-470h-111v96l-1 28v375h83q43 0 62 18t19 57v44zM293 -245
q-29 0 -49 20t-20 47q0 29 20 48.5t49 19.5t49 -19.5t20 -48.5q0 -27 -20 -47t-49 -20z" />
    <glyph glyph-name="uni0410" unicode="&#x410;" horiz-adv-x="756" 
d="M582 172h-412v98h412v-98zM724 0h-122l-245 637h38l-245 -637h-118l283 715h126z" />
    <glyph glyph-name="uni0411" unicode="&#x411;" horiz-adv-x="673" 
d="M89 0v715h115v-629l-12 12h197q62 0 97 30.5t35 84.5q0 53 -35 82t-97 29h-243v98h242q76 0 132 -25.5t87 -72.5t31 -111t-31 -112t-87.5 -74.5t-131.5 -26.5h-299zM153 616v99h429v-99h-429z" />
    <glyph glyph-name="uni0412" unicode="&#x412;" horiz-adv-x="685" 
d="M89 0v715h287q70 0 122.5 -23.5t81 -65.5t28.5 -98q0 -53 -28.5 -93.5t-81 -63t-122.5 -22.5h-162v50h176q75 0 131 -24t87 -67.5t31 -102.5q0 -61 -31 -107.5t-87 -72t-131 -25.5h-301zM204 97h186q62 0 97 29.5t35 82.5q0 52 -35 81t-97 29h-196v96h177q56 0 88.5 27.5
t32.5 75.5q0 47 -32.5 73.5t-88.5 26.5h-167v-521z" />
    <glyph glyph-name="uni0413" unicode="&#x413;" horiz-adv-x="564" 
d="M89 0v715h463v-99h-410l62 72v-688h-115z" />
    <glyph glyph-name="uni0414" unicode="&#x414;" horiz-adv-x="808" 
d="M66 50v49h33q28 0 45 37.5t27 119.5l54 459h461v-655h-114v635l63 -79h-388l87 79l-55 -452q-7 -64 -25 -106.5t-50.5 -64.5t-84.5 -22h-53zM31 -174v273h736v-273h-109v240l74 -66h-635l43 59v-233h-109z" />
    <glyph glyph-name="uni0415" unicode="&#x415;" horiz-adv-x="627" 
d="M581 0h-492v715h492v-98h-377v-519h377v-98zM562 314h-368v98h368v-98z" />
    <glyph glyph-name="uni0416" unicode="&#x416;" horiz-adv-x="1056" 
d="M896 0l-335 371h15l308 344h138l-311 -345l330 -370h-145zM15 0l330 370l-311 345h138l308 -344h15l-335 -371h-145zM470 0v715h115v-715h-115z" />
    <glyph glyph-name="uni0417" unicode="&#x417;" horiz-adv-x="651" 
d="M313 -16q-90 0 -166 35t-127 100l76 75q41 -53 97.5 -80.5t122.5 -27.5q51 0 90 16t61 44.5t22 64.5q0 51 -42.5 80.5t-117.5 29.5h-144v98h145q63 0 100.5 28.5t37.5 75.5t-42.5 76.5t-111.5 29.5q-62 0 -108.5 -24.5t-91.5 -82.5l-76 74q56 70 124 102.5t155 32.5
q78 0 138.5 -25t95 -69t34.5 -101q0 -53 -30.5 -94.5t-84.5 -63.5q64 -21 100 -66.5t36 -106.5q0 -63 -38.5 -113t-104.5 -79t-150 -29z" />
    <glyph glyph-name="uni0418" unicode="&#x418;" horiz-adv-x="779" 
d="M89 0v715h115v-657h-74l436 657h124v-715h-115v658h72l-436 -658h-122z" />
    <glyph glyph-name="uni041A" unicode="&#x41a;" horiz-adv-x="734" 
d="M204 0h-115v715h115v-715zM719 0h-161l-379 371h15l337 344h146l-360 -358v28z" />
    <glyph glyph-name="uni041B" unicode="&#x41b;" horiz-adv-x="752" 
d="M24 0v99h56q28 0 40.5 12t16.5 40l68 564h458v-715h-115v695l65 -79h-378l80 79l-69 -552q-6 -50 -23.5 -81.5t-48 -46.5t-77.5 -15h-73z" />
    <glyph glyph-name="uni041C" unicode="&#x41c;" horiz-adv-x="940" 
d="M513 71h-85l-283 589l56 2v-662h-112v715h138l271 -568h-53l271 568h135v-715h-112v662l56 -2z" />
    <glyph glyph-name="uni041D" unicode="&#x41d;" horiz-adv-x="776" 
d="M571 0v715h115v-715h-115zM204 0h-115v715h115v-715zM194 319v99h387v-99h-387z" />
    <glyph glyph-name="uni041E" unicode="&#x41e;" horiz-adv-x="860" 
d="M430 -16q-82 0 -151 28t-120 78.5t-79 119t-28 148.5t28 148t79 118.5t120 78.5t151 28t151 -28t120 -78.5t79 -118.5t28 -148t-28 -148.5t-79 -119t-120 -78.5t-151 -28zM430 86q76 0 134 35t91 96.5t33 140.5t-33 140t-91 96t-134 35q-75 0 -133.5 -35t-91.5 -96
t-33 -140t33 -140.5t91.5 -96.5t133.5 -35z" />
    <glyph glyph-name="uni041F" unicode="&#x41f;" horiz-adv-x="772" 
d="M89 0v715h594v-715h-115v688l58 -72h-484l62 72v-688h-115z" />
    <glyph glyph-name="uni0420" unicode="&#x420;" horiz-adv-x="666" 
d="M204 0h-115v715h286q74 0 130 -26.5t87.5 -74t31.5 -111.5q0 -63 -31.5 -111t-87.5 -74.5t-130 -26.5h-181v98h181q61 0 96.5 30.5t35.5 83.5t-35.5 83.5t-96.5 30.5h-171v-617z" />
    <glyph glyph-name="uni0421" unicode="&#x421;" horiz-adv-x="748" 
d="M634 196l77 -77q-47 -62 -122.5 -98.5t-166.5 -36.5q-81 0 -148.5 28t-117 78t-77 118.5t-27.5 148.5q0 81 28 149.5t78.5 118.5t118.5 78t148 28q91 0 165 -36.5t121 -98.5l-77 -77q-35 51 -88 80.5t-121 29.5q-72 0 -129 -35.5t-90 -96.5t-33 -140q0 -78 33 -139
t90 -96.5t129 -35.5q68 0 121 30t88 80z" />
    <glyph glyph-name="uni0422" unicode="&#x422;" horiz-adv-x="640" 
d="M377 0h-115v626h115v-626zM606 616h-572v99h572v-99z" />
    <glyph glyph-name="uni0423" unicode="&#x423;" horiz-adv-x="677" 
d="M74 0v97h89q34 0 58 10.5t43 35.5t39 68l240 504h118l-278 -565q-27 -55 -56.5 -88t-67.5 -47.5t-91 -14.5h-94zM298 160l-282 555h119l250 -503z" />
    <glyph glyph-name="uni0424" unicode="&#x424;" horiz-adv-x="884" 
d="M442 72q-192 0 -291 73t-99 213t99.5 212.5t290.5 72.5q193 0 291.5 -72.5t98.5 -212.5t-98.5 -213t-291.5 -73zM442 169q141 0 208 46t67 143q0 96 -67 142t-208 46q-140 0 -207.5 -45.5t-67.5 -142.5q0 -96 67.5 -142.5t207.5 -46.5zM385 -32v136l3 44v423l-3 39v137
h115v-137l-4 -39v-423l4 -44v-136h-115z" />
    <glyph glyph-name="uni0425" unicode="&#x425;" horiz-adv-x="704" 
d="M152 0h-136l275 392l1 -42l-252 365h136l190 -288h-27l190 288h134l-250 -365v42l275 -392h-137l-213 315h28z" />
    <glyph glyph-name="uni0426" unicode="&#x426;" horiz-adv-x="802" 
d="M89 0v715h115v-688l-62 72h481l-58 -72v688h115v-715h-591zM652 -174v273h109v-273h-109z" />
    <glyph glyph-name="uni0427" unicode="&#x427;" horiz-adv-x="693" 
d="M302 258q-118 0 -184 58.5t-66 164.5v234h115v-221q0 -67 39.5 -101.5t113.5 -34.5q51 0 99 15.5t81 39.5l34 -72q-42 -41 -102 -62t-130 -21zM489 0v715h115v-715h-115z" />
    <glyph glyph-name="uni0428" unicode="&#x428;" horiz-adv-x="1126" 
d="M89 0v715h115v-692l-66 76h412l-44 -76v692h115v-692l-44 76h411l-66 -76v692h115v-715h-948z" />
    <glyph glyph-name="uni0429" unicode="&#x429;" horiz-adv-x="1160" 
d="M89 0v715h115v-668l-48 52h382l-32 -52v668h115v-668l-32 52h381l-48 -52v668h115v-715h-948zM1010 -174v273h109v-273h-109z" />
    <glyph glyph-name="uni042A" unicode="&#x42a;" horiz-adv-x="746" 
d="M159 0v628l12 -12h-155v99h258v-628l-12 12h197q62 0 97 31.5t35 87.5q0 55 -35 86t-97 31h-226v98h226q76 0 132 -26.5t86.5 -75t30.5 -113.5t-31 -114t-87 -76.5t-131 -27.5h-300z" />
    <glyph glyph-name="uni042B" unicode="&#x42b;" horiz-adv-x="932" 
d="M89 0v715h115v-630l-12 14h197q62 0 97 31.5t35 87.5q0 55 -35 86t-97 31h-243v98h242q76 0 132 -26.5t87 -75t31 -113.5t-31 -114t-87.5 -76.5t-131.5 -27.5h-299zM851 0h-115v715h115v-715z" />
    <glyph glyph-name="uni042C" unicode="&#x42c;" horiz-adv-x="676" 
d="M89 0v715h115v-630l-12 14h197q62 0 97 31.5t35 87.5q0 55 -35 86t-97 31h-243v98h242q76 0 132 -26.5t87 -75t31 -113.5t-31 -114t-87.5 -76.5t-131.5 -27.5h-299z" />
    <glyph glyph-name="uni042D" unicode="&#x42d;" horiz-adv-x="745" 
d="M332 -16q-94 0 -173 36.5t-126 98.5l73 72q38 -47 95 -76t127 -29q75 0 131 34.5t86.5 95.5t30.5 141q0 81 -31 142t-87 95.5t-130 34.5q-68 0 -123 -29.5t-95 -77.5l-75 74q49 62 125 98.5t169 36.5q80 0 147 -27.5t115.5 -77t75 -118t26.5 -151.5q0 -110 -45 -194
t-126 -131.5t-190 -47.5zM195 319v99h439v-99h-439z" />
    <glyph glyph-name="uni042E" unicode="&#x42e;" horiz-adv-x="1095" 
d="M684 -16q-78 0 -143.5 28t-114 78.5t-76 119t-27.5 148.5t27.5 148t76 118.5t114 78.5t143.5 28t143.5 -28t114 -78.5t75.5 -118.5t27 -148t-27 -148.5t-75.5 -119t-114 -78.5t-143.5 -28zM89 0v715h115v-715h-115zM166 319v99h231v-99h-231zM684 86q71 0 125 34.5t84 96
t30 141.5t-30 141t-84 95.5t-125 34.5t-125.5 -34.5t-84.5 -95.5t-30 -141t30 -141.5t84.5 -96t125.5 -34.5z" />
    <glyph glyph-name="uni042F" unicode="&#x42f;" horiz-adv-x="700" 
d="M496 0v617h-171q-62 0 -97 -30.5t-35 -83.5t35 -83.5t97 -30.5h181v-98h-181q-74 0 -130.5 26.5t-87.5 74.5t-31 111q0 64 31 111.5t87.5 74t130.5 26.5h286v-715h-115zM27 0l241 333h128l-232 -333h-137z" />
    <glyph glyph-name="uni0430" unicode="&#x430;" horiz-adv-x="566" 
d="M511 0h-103v99l-5 21v187q0 56 -36 87.5t-98 31.5q-45 0 -83.5 -18t-66.5 -50l-64 70q41 41 96 64t122 23q71 0 124.5 -24.5t83.5 -70.5t30 -110v-310zM231 -16q-57 0 -101 21t-68 57t-24 84q0 52 30 88.5t83.5 56t123.5 19.5h140v-77h-130q-59 0 -95.5 -21t-36.5 -62
q0 -37 28 -58.5t73 -21.5q43 0 79 18t57.5 49.5t24.5 72.5l36 -17q0 -61 -28 -108.5t-78 -74t-114 -26.5z" />
    <glyph glyph-name="uni0431" unicode="&#x431;" horiz-adv-x="607" 
d="M308 -16q-128 0 -197 91t-69 261q0 167 58 251t184 101l219 32l14 -93l-216 -33q-56 -9 -89.5 -35t-48.5 -77.5t-19 -136.5l-17 -30q10 51 40 87.5t75 56t96 19.5q72 0 122.5 -30.5t77.5 -84t27 -122.5q0 -77 -32 -135t-89.5 -90t-135.5 -32zM304 79q68 0 106.5 42
t38.5 115q0 71 -36 110.5t-102 39.5q-39 0 -71 -17.5t-54.5 -48.5t-30.5 -74l4 56q-2 -114 33 -168.5t112 -54.5z" />
    <glyph glyph-name="uni0432" unicode="&#x432;" horiz-adv-x="557" 
d="M73 0v499h255q81 0 128 -36t47 -97q0 -38 -22.5 -66.5t-60.5 -43.5l-1 9q48 -13 78 -44.5t30 -76.5q0 -43 -25.5 -75.5t-68.5 -50.5t-96 -18h-264zM176 28l-58 56h205q45 0 68.5 17t23.5 50t-23.5 50t-68.5 17h-194v79h186q42 0 59.5 16t17.5 45t-17.5 43t-59.5 14h-200
l61 58v-445z" />
    <glyph glyph-name="uni0433" unicode="&#x433;" horiz-adv-x="461" 
d="M73 0v499h361v-91h-337l88 69v-477h-112z" />
    <glyph glyph-name="uni0434" unicode="&#x434;" horiz-adv-x="636" 
d="M46 47v44h16q21 0 33.5 8.5t19 30t10.5 60.5l34 309h373v-437h-110v419l78 -73h-322l88 73l-36 -300q-5 -50 -19.5 -79t-43 -42t-76.5 -13h-45zM22 -134v225h588v-225h-105v199l63 -65h-480l40 65v-199h-106z" />
    <glyph glyph-name="uni0435" unicode="&#x435;" horiz-adv-x="607" 
d="M490 151l64 -70q-39 -45 -97 -71t-129 -26q-84 0 -148.5 34t-101 94t-36.5 137q0 78 35 138t96 94t137 34q74 0 131 -33.5t90 -92t33 -135.5v-6h-111v11q0 50 -18.5 87.5t-50.5 58t-75 20.5q-45 0 -79.5 -21.5t-53.5 -60t-19 -92.5t22.5 -94t62 -61.5t91.5 -21.5
q95 0 157 77zM564 214h-444v76h428l16 -37v-39z" />
    <glyph glyph-name="uni0436" unicode="&#x436;" horiz-adv-x="824" 
d="M672 0l-232 259h10l218 240h133l-223 -245l233 -254h-139zM12 0l233 254l-221 245h132l217 -240h11l-231 -259h-141zM356 0v499h111v-499h-111z" />
    <glyph glyph-name="uni0437" unicode="&#x437;" horiz-adv-x="501" 
d="M239 -16q-63 0 -124 22t-102 66l61 68q65 -65 162 -65q58 0 91 20.5t33 56.5q0 64 -112 64h-100v79h101q47 0 72 15.5t25 46.5t-29.5 49t-80.5 18q-87 0 -149 -65l-61 70q84 86 213 86q63 0 111.5 -18.5t76.5 -51t28 -75.5q0 -40 -24 -69t-68 -42v8q51 -13 79 -44.5
t28 -77.5t-30 -82.5t-82 -57.5t-119 -21z" />
    <glyph glyph-name="uni0438" unicode="&#x438;" horiz-adv-x="620" 
d="M73 0v499h108v-355l-8 3l276 352h98v-499h-108v355l7 -3l-275 -352h-98z" />
    <glyph glyph-name="uni043A" unicode="&#x43a;" horiz-adv-x="570" 
d="M412 0l-256 259h11l230 240h138l-261 -272l-13 70l297 -297h-146zM73 0v499h112v-499h-112z" />
    <glyph glyph-name="uni043B" unicode="&#x43b;" horiz-adv-x="595" 
d="M19 0v93h36q27 0 40.5 13t15.5 45l32 348h380v-499h-112v481l80 -73h-327l85 73l-34 -352q-7 -72 -40 -100.5t-101 -28.5h-55z" />
    <glyph glyph-name="uni043C" unicode="&#x43c;" horiz-adv-x="740" 
d="M73 0v499h118l187 -352l-18 1l184 351h123v-499h-103v462l45 -25l-204 -387h-77l-204 387l48 21v-458h-99z" />
    <glyph glyph-name="uni043D" unicode="&#x43d;" horiz-adv-x="622" 
d="M437 0v499h112v-499h-112zM73 0v499h112v-499h-112zM126 216v92h375v-92h-375z" />
    <glyph glyph-name="uni043E" unicode="&#x43e;" horiz-adv-x="628" 
d="M314 -16q-79 0 -140.5 34t-96.5 94t-35 138q0 77 35 137t96.5 94t140.5 34q80 0 141.5 -34t96 -94t34.5 -137q0 -78 -34.5 -138t-96 -94t-141.5 -34zM314 78q47 0 82 22t54.5 60.5t19.5 89.5q0 50 -19.5 88.5t-54.5 60.5t-82 22q-46 0 -81 -22t-54.5 -60.5t-19.5 -88.5
q0 -51 19.5 -89.5t54.5 -60.5t81 -22z" />
    <glyph glyph-name="uni043F" unicode="&#x43f;" horiz-adv-x="607" 
d="M73 0v499h461v-499h-112v481l80 -73h-403l86 73v-481h-112z" />
    <glyph glyph-name="uni0440" unicode="&#x440;" horiz-adv-x="655" 
d="M184 -194h-112v693h111v-154h-24q7 50 35 88t72 60t98 22q70 0 126.5 -34t89.5 -94t33 -137q0 -78 -33.5 -138t-90.5 -94t-129 -34q-66 0 -114 27.5t-72.5 75t-20.5 106.5l23 18q5 -39 27 -69t57 -47t76 -17q49 0 84.5 22t55.5 61t20 89q0 49 -19 88t-53.5 61t-81.5 22
q-46 0 -81.5 -22.5t-56 -62.5t-20.5 -94v-436z" />
    <glyph glyph-name="uni0441" unicode="&#x441;" horiz-adv-x="559" 
d="M453 153l72 -70q-37 -46 -91 -72.5t-124 -26.5q-77 0 -137.5 34.5t-95.5 94t-35 137.5q0 77 35 136.5t96.5 94t139.5 34.5q68 0 121.5 -26t90.5 -73l-72 -70q-22 34 -55.5 54.5t-80.5 20.5q-46 0 -82 -22t-56 -60.5t-20 -88.5t20 -89t56 -61t82 -22q47 0 80.5 21t55.5 54
z" />
    <glyph glyph-name="uni0442" unicode="&#x442;" horiz-adv-x="507" 
d="M198 0v462h112v-462h-112zM23 408v91h461v-91h-461z" />
    <glyph glyph-name="uni0443" unicode="&#x443;" horiz-adv-x="572" 
d="M441 499h113l-243 -568q-25 -61 -65 -93t-109 -32h-60v93h55q31 0 51.5 14.5t32.5 43.5l17 42l-215 500h117l172 -437h-39z" />
    <glyph glyph-name="uni0444" unicode="&#x444;" horiz-adv-x="793" 
d="M376 -16q-102 0 -177 32.5t-116 92t-41 141.5q0 81 41 140.5t116 92t177 32.5h41q103 0 177.5 -32.5t115.5 -92t41 -140.5q0 -82 -41 -141.5t-115.5 -92t-177.5 -32.5h-41zM376 77h41q110 0 166 44t56 129q0 84 -56.5 128t-165.5 44h-41q-110 0 -166 -43.5t-56 -128.5
t56 -129t166 -44zM342 -204v231l2 15v406l-2 17v255h110v-255l-2 -17v-406l2 -15v-231h-110z" />
    <glyph glyph-name="uni0445" unicode="&#x445;" horiz-adv-x="550" 
d="M139 0h-128l193 259l-176 240h127l120 -175l121 175h127l-176 -240l192 -259h-128l-136 191z" />
    <glyph glyph-name="uni0446" unicode="&#x446;" horiz-adv-x="626" 
d="M73 0v499h112v-481l-86 73h371l-56 -73v481h112v-499h-453zM495 -134v225h105v-225h-105z" />
    <glyph glyph-name="uni0447" unicode="&#x447;" horiz-adv-x="579" 
d="M240 157q-95 0 -146.5 51.5t-51.5 147.5v143h112v-132q0 -64 30 -90.5t87 -26.5q66 0 129 43l23 -76q-24 -19 -53.5 -32.5t-63 -20.5t-66.5 -7zM394 0v499h112v-499h-112z" />
    <glyph glyph-name="uni0448" unicode="&#x448;" horiz-adv-x="858" 
d="M73 0v499h110v-477l-38 69h268l-39 -69v477h110v-477l-26 69h270l-53 -69v477h110v-499h-712z" />
    <glyph glyph-name="uni0449" unicode="&#x449;" horiz-adv-x="886" 
d="M73 0v499h110v-477l-38 69h268l-39 -69v477h110v-477l-26 69h270l-53 -69v477h110v-499h-712zM754 -134v225h106v-225h-106z" />
    <glyph glyph-name="uni044A" unicode="&#x44a;" horiz-adv-x="592" 
d="M130 0v477l54 -68h-156v90h210v-481l-70 72h199q43 0 66 20t23 57q0 36 -23 55.5t-66 19.5h-181v90h190q88 0 141.5 -45.5t53.5 -117.5q0 -50 -25 -88t-69 -59.5t-101 -21.5h-246z" />
    <glyph glyph-name="uni044B" unicode="&#x44b;" horiz-adv-x="755" 
d="M73 0v499h108v-484l-78 76h205q43 0 66 20.5t23 56.5t-23 56t-66 20h-179v91h187q89 0 142 -46t53 -118q0 -51 -24.5 -89.5t-68.5 -60t-102 -21.5h-243zM570 0v499h112v-499h-112z" />
    <glyph glyph-name="uni044C" unicode="&#x44c;" horiz-adv-x="535" 
d="M73 0v499h108v-484l-75 76h204q43 0 66 20.5t23 56.5t-23 56t-66 20h-179v91h188q88 0 141.5 -46t53.5 -118q0 -51 -25 -89.5t-69 -60t-101 -21.5h-246z" />
    <glyph glyph-name="uni044D" unicode="&#x44d;" horiz-adv-x="559" 
d="M246 -16q-68 0 -123.5 26t-94.5 73l70 68q25 -36 61.5 -56t83.5 -20q76 0 118 47t42 127q0 81 -42.5 128t-116.5 47q-48 0 -84 -20t-60 -55l-69 67q38 47 93 73t124 26q79 0 139.5 -33.5t95 -93t34.5 -138.5t-34 -139.5t-95 -93.5t-142 -33zM143 215v78h327v-78h-327z
" />
    <glyph glyph-name="uni044E" unicode="&#x44e;" horiz-adv-x="849" 
d="M542 -16q-78 0 -138 34t-93.5 94t-33.5 138q0 77 33.5 137t93.5 94t138 34q79 0 138.5 -34t93 -94t33.5 -137q0 -78 -33.5 -138t-93 -94t-138.5 -34zM73 0v499h112v-499h-112zM128 216v92h212v-92h-212zM542 78q45 0 78.5 22t52 60.5t18.5 89.5q0 50 -18.5 88.5t-52 60.5
t-78.5 22q-46 0 -80 -22t-52.5 -60.5t-18.5 -88.5q0 -51 18.5 -89.5t52.5 -60.5t80 -22z" />
    <glyph glyph-name="uni044F" unicode="&#x44f;" horiz-adv-x="567" 
d="M389 0v484l72 -71h-199q-38 0 -63.5 -17t-25.5 -56q0 -35 23.5 -54t66.5 -19h172v-82h-184q-87 0 -138.5 42.5t-51.5 114.5q0 45 25 80.5t68.5 56t98.5 20.5h241v-499h-105zM37 0l172 222h116l-163 -222h-125z" />
    <glyph glyph-name="uni0414.loclBGR" horiz-adv-x="810" 
d="M78 28l263 687h127l262 -687h-121l-206 557l-207 -557h-118zM31 -174v273h748v-273h-109v174h-530v-174h-109z" />
    <glyph glyph-name="uni041B.loclBGR" horiz-adv-x="752" 
d="M32 0l281 715h126l281 -715h-124l-222 586l-222 -586h-120z" />
    <glyph glyph-name="uni0424.loclBGR" horiz-adv-x="884" 
d="M442 52q-192 0 -291 77.5t-99 228.5q0 150 99.5 227.5t290.5 77.5q193 0 291.5 -77.5t98.5 -227.5q0 -151 -98.5 -228.5t-291.5 -77.5zM442 149q141 0 208 51t67 158t-67 157.5t-208 50.5q-140 0 -207.5 -50.5t-67.5 -157.5q0 -105 67.5 -157t207.5 -52zM385 -52v136
l3 44v463l-3 39v137h115v-137l-4 -39v-463l4 -44v-136h-115z" />
    <glyph glyph-name="uni0431.loclMKDSRB" horiz-adv-x="616" 
d="M310 -16q-80 0 -140 28.5t-93 81t-33 123.5q0 64 28.5 116t82 87t128.5 50l49 -56q-51 -12 -90 -40t-60.5 -67t-21.5 -84q0 -66 41 -105t109 -39q44 0 77 19t51 53t18 78q0 54 -31.5 97t-90.5 68l-111 49q-59 27 -85.5 58t-26.5 73q0 58 40 90t121 38l239 18l8 -94
l-235 -18q-33 -3 -46.5 -11.5t-13.5 -25.5q0 -12 8.5 -20.5t28.5 -17.5l130 -58q181 -79 181 -242q0 -74 -33 -130.5t-91.5 -87.5t-137.5 -31z" />
    <glyph glyph-name="uni0432.loclBGR" horiz-adv-x="592" 
d="M305 -16q-77 0 -133.5 27t-87.5 78t-31 122v291q0 69 31 121.5t87 82.5t128 30q69 0 121.5 -25t82 -69t29.5 -101q0 -42 -17 -77t-46.5 -58.5t-68.5 -31.5v7q71 -9 114.5 -59t43.5 -122q0 -64 -31.5 -113t-88.5 -76t-133 -27zM305 79q64 0 102 35t38 90q0 58 -42.5 90.5
t-116.5 32.5h-147v89h145q62 0 100.5 31.5t38.5 83.5q0 51 -34.5 81t-91.5 30q-63 0 -99.5 -39.5t-36.5 -107.5v-265q0 -72 38.5 -111.5t105.5 -39.5z" />
    <glyph glyph-name="uni0433.loclBGR" horiz-adv-x="530" 
d="M265 -16q-67 0 -118 21t-79 58.5t-28 87.5q0 41 20 69.5t65 48t118 32.5q52 10 79.5 18.5t38.5 19.5t11 28q0 28 -27.5 45t-74.5 17q-46 0 -87.5 -18.5t-75.5 -54.5l-62 70q44 45 101 67t123 22q65 0 112.5 -19.5t74 -55t26.5 -83.5q0 -39 -20.5 -67t-65 -47t-117.5 -33
q-76 -14 -103 -28.5t-27 -40.5q0 -32 31 -51t82 -19t97.5 19.5t81.5 55.5l64 -70q-46 -45 -107.5 -68.5t-132.5 -23.5z" />
    <glyph glyph-name="uni0434.loclBGR" horiz-adv-x="655" 
d="M583 55q0 -79 -36 -138.5t-98.5 -93t-143.5 -33.5q-71 0 -131 23.5t-99 64.5l65 75q29 -33 68.5 -51.5t91.5 -18.5t90.5 21t59.5 58t21 88v192q0 59 -22 98.5t-57 60t-78 20.5q-46 0 -81 -22t-54.5 -59.5t-19.5 -84.5q0 -48 20 -85t56 -58t84 -21q41 0 75.5 16.5t57 46.5
t27.5 69l24 -18q5 -59 -20.5 -106.5t-74 -75t-113.5 -27.5q-71 0 -128.5 32.5t-91 91t-33.5 134.5q0 77 34 135.5t91 92t126 33.5q53 0 95.5 -20t71 -58t36.5 -92h-24v154h111v-444z" />
    <glyph glyph-name="uni0436.loclBGR" horiz-adv-x="824" 
d="M672 0l-232 259h10l218 240h133l-223 -245l233 -254h-139zM12 0l233 254l-221 245h132l217 -240h11l-231 -259h-141zM356 0v720h111v-720h-111z" />
    <glyph glyph-name="uni0437.loclBGR" horiz-adv-x="528" 
d="M236 -202q-70 0 -128 24.5t-98 70.5l62 68q31 -33 72 -51t92 -18q39 0 70.5 12t49.5 38.5t18 68.5q0 57 -34 83t-88 26h-97v90h97q49 0 80 29t31 79q0 37 -17 59.5t-45 33t-62 10.5q-89 0 -155 -67l-62 69q43 46 98 69t123 23q66 0 117.5 -24t81.5 -66.5t30 -97.5
q0 -56 -29 -99t-79 -58q54 -16 87 -62t33 -107q0 -60 -31.5 -106t-87.5 -71.5t-129 -25.5z" />
    <glyph glyph-name="uni0438.loclBGR" horiz-adv-x="603" 
d="M530 0h-111v96l-1 28v375h112v-499zM426 211l23 -19q3 -61 -22 -108t-70.5 -73.5t-106.5 -26.5q-88 0 -141 53t-53 153v309h112v-298q0 -60 30 -91.5t82 -31.5q37 0 68.5 17t52.5 47t25 69z" />
    <glyph glyph-name="uni043A.loclBGR" horiz-adv-x="585" 
d="M174 0h-112v720h112v-720zM573 0h-148l-279 259h10l249 240h139l-265 -250v19z" />
    <glyph glyph-name="uni043B.loclBGR" horiz-adv-x="588" 
d="M18 0l222 499h109l221 -499h-118l-160 386l-161 -386h-113z" />
    <glyph glyph-name="uni043F.loclBGR" horiz-adv-x="605" 
d="M549 0h-112v288q0 67 -30 100t-81 33q-37 0 -69.5 -19t-52.5 -60t-20 -106v-236h-112v499h111v-154h-15q10 66 39 102.5t68 52t80 15.5q90 0 142 -55t52 -160v-300z" />
    <glyph glyph-name="uni0442.loclBGR" horiz-adv-x="929" 
d="M873 0h-112v291q0 65 -27.5 97.5t-73.5 32.5q-34 0 -64 -19t-48.5 -59t-18.5 -104v-239h-112v291q0 65 -27.5 97.5t-73.5 32.5q-34 0 -64.5 -19t-49 -59t-18.5 -104v-239h-112v499h111v-115l-7 1q14 50 41 78t61 40t68 12q65 0 108 -35.5t57 -104.5l-13 -1q15 53 44.5 84
t67.5 44t76 13q88 0 137.5 -55t49.5 -160v-300z" />
    <glyph glyph-name="uni0446.loclBGR" horiz-adv-x="631" 
d="M250 -16q-88 0 -141 53t-53 153v309h112v-298q0 -60 30 -91.5t82 -31.5q37 0 68.5 17t52.5 47t25 69l23 -19q3 -61 -22 -108t-70.5 -73.5t-106.5 -26.5zM499 -134v172l33 -38q-48 0 -78.5 29.5t-33.5 81.5l-2 22v366h112v-350q0 -30 13.5 -44t43.5 -14h18v-225h-106z" />
    <glyph glyph-name="uni0447.loclBGR" horiz-adv-x="578" 
d="M229 157q-86 0 -136.5 53t-50.5 153v136h112v-125q0 -62 28.5 -92.5t76.5 -30.5q55 0 94 37t45 96l23 -19q3 -61 -20.5 -108t-67.5 -73.5t-104 -26.5zM394 0v499h112v-499h-112z" />
    <glyph glyph-name="uni0448.loclBGR" horiz-adv-x="929" 
d="M250 -16q-92 0 -143 54t-51 152v309h112v-298q0 -60 27 -91.5t77 -31.5q36 0 65 17.5t48 47.5t23 68l40 -19q-10 -99 -61.5 -153.5t-136.5 -54.5zM585 -16q-87 0 -136 54t-49 151v310h112v-298q0 -59 27 -91t77 -32q36 0 65 17t48.5 47.5t23.5 68.5l20 -19
q3 -61 -20.5 -108.5t-66.5 -73.5t-101 -26zM746 0v96l-1 28v375h112v-499h-111z" />
    <glyph glyph-name="uni0449.loclBGR" horiz-adv-x="957" 
d="M250 -16q-92 0 -143 54t-51 152v309h112v-298q0 -60 27 -91.5t77 -31.5q36 0 65 17.5t48 47.5t23 68l40 -19q-10 -99 -61.5 -153.5t-136.5 -54.5zM585 -16q-87 0 -136 54t-49 151v310h112v-298q0 -59 27 -91t77 -32q36 0 65 17t48.5 47.5t23.5 68.5l20 -19
q3 -61 -20.5 -108.5t-66.5 -73.5t-101 -26zM826 -134v172l32 -38q-48 0 -78.5 29.5t-33.5 81.5l-1 22v366h112v-350q0 -30 13 -44t43 -14h18v-225h-105z" />
    <glyph glyph-name="uni044A.loclBGR" horiz-adv-x="600" 
d="M355 -16q-105 0 -165 54.5t-60 150.5v232l12 -12h-114v90h210v-214l-6 3q19 32 58.5 52t85.5 20q59 0 103.5 -23.5t70 -65t25.5 -95.5q0 -56 -28 -99t-77.5 -68t-114.5 -25zM354 76q49 0 78.5 26.5t29.5 69.5q0 42 -30 68.5t-78 26.5q-51 0 -82.5 -26t-31.5 -69t31 -69.5
t83 -26.5z" />
    <glyph glyph-name="uni044C.loclBGR" horiz-adv-x="527" 
d="M282 -16q-106 0 -166 54.5t-60 150.5v310h109v-248l-20 12q10 28 33 49.5t55.5 34.5t68.5 13q59 0 103.5 -23.5t70.5 -65t26 -95.5q0 -56 -28.5 -99t-78 -68t-113.5 -25zM280 76q49 0 78.5 26.5t29.5 69.5q0 42 -30 68.5t-78 26.5q-51 0 -82.5 -26t-31.5 -69t31.5 -69.5
t82.5 -26.5z" />
    <glyph glyph-name="uni044E.loclBGR" horiz-adv-x="849" 
d="M542 -16q-78 0 -138 34t-93.5 94t-33.5 138q0 77 33.5 137t93.5 94t138 34q79 0 138.5 -34t93 -94t33.5 -137q0 -78 -33.5 -138t-93 -94t-138.5 -34zM73 0v720h112v-720h-112zM128 216v92h212v-92h-212zM542 78q45 0 78.5 22t52 60.5t18.5 89.5q0 50 -18.5 88.5t-52 60.5
t-78.5 22q-46 0 -80 -22t-52.5 -60.5t-18.5 -88.5q0 -51 18.5 -89.5t52.5 -60.5t80 -22z" />
    <glyph glyph-name="uni0404" unicode="&#x404;" horiz-adv-x="748" 
d="M422 -16q-81 0 -148.5 28t-117 78t-77 118.5t-27.5 148.5q0 81 27.5 149t78 118.5t119 78.5t148.5 28q90 0 164 -36t122 -99l-77 -77q-36 53 -90 81.5t-119 28.5q-72 0 -129.5 -35.5t-90 -96.5t-32.5 -140q0 -77 32.5 -138.5t90 -97t129.5 -35.5q65 0 119 29t90 81
l77 -77q-48 -62 -123.5 -98.5t-165.5 -36.5zM123 319v99h435v-99h-435z" />
    <glyph glyph-name="uni0406" unicode="&#x406;" horiz-adv-x="293" 
d="M204 0h-115v715h115v-715z" />
    <glyph glyph-name="uni0408" unicode="&#x408;" horiz-adv-x="665" 
d="M597 715v-439q0 -140 -73 -216t-208 -76q-81 0 -141 30t-95.5 86.5t-42.5 135.5l115 14q8 -80 50 -122t114 -42q81 0 123.5 49t42.5 141v439h115z" />
    <glyph glyph-name="uni0405" unicode="&#x405;" horiz-adv-x="692" 
d="M33 117l80 78q27 -34 64.5 -59t81 -38t91.5 -13q52 0 90.5 14t60.5 40t22 60q0 46 -41.5 73t-145.5 43q-97 14 -157 40t-87.5 66t-27.5 94q0 64 35.5 112.5t98 76t143.5 27.5q94 0 166.5 -36t124.5 -96l-78 -78q-39 51 -91.5 80.5t-120.5 29.5q-71 0 -116 -30t-45 -80
q0 -27 17 -45.5t56.5 -31.5t105.5 -23q99 -15 160.5 -43t90.5 -71t29 -103q0 -66 -37 -115.5t-103 -77t-152 -27.5q-101 0 -180 36t-135 97z" />
    <glyph glyph-name="uni0409" unicode="&#x409;" horiz-adv-x="1115" 
d="M24 0v99h56q28 0 40.5 12t16.5 40l68 564h449v-641l-25 25h199q62 0 97 32t35 87q0 54 -35 85t-97 31h-232v99h231q76 0 132 -26.5t87 -75t31 -113.5t-31 -114t-87.5 -76.5t-131.5 -27.5h-288v641l25 -25h-283l28 25l-63 -498q-6 -50 -23.5 -81.5t-48 -46.5t-77.5 -15
h-73z" />
    <glyph glyph-name="uni040A" unicode="&#x40a;" horiz-adv-x="1135" 
d="M549 0v715h115v-642l-25 25h209q62 0 97 30.5t35 83.5q0 52 -35 82t-97 30h-242v98h242q76 0 132 -26t86.5 -73t30.5 -111q0 -63 -31 -111t-87 -74.5t-131 -26.5h-299zM89 0v715h115v-715h-115zM166 323v99h431v-99h-431z" />
    <glyph glyph-name="uni040B" unicode="&#x40b;" horiz-adv-x="764" 
d="M597 0v212q0 67 -40.5 101t-118.5 34q-48 0 -93.5 -11t-87.5 -33l-27 82q49 32 106.5 47.5t125.5 15.5q120 0 185 -57t65 -165v-226h-115zM159 0v680h115v-680h-115zM16 616v99h525v-99h-525z" />
    <glyph glyph-name="uni0402" unicode="&#x402;" horiz-adv-x="755" 
d="M383 0v99h47q83 0 125 31t42 91q0 61 -41 93.5t-118 32.5q-50 0 -95.5 -11.5t-85.5 -33.5l-27 83q95 63 224 63q122 0 190 -59t68 -165q0 -110 -69.5 -167t-202.5 -57h-57zM159 0v680h115v-680h-115zM16 616v99h525v-99h-525z" />
    <glyph glyph-name="uni040F" unicode="&#x40f;" horiz-adv-x="769" 
d="M89 0v715h115v-616h361v616h115v-715h-591zM330 -174v235h109v-235h-109z" />
    <glyph glyph-name="uni0490" unicode="&#x490;" horiz-adv-x="574" 
d="M89 0v715h418l-64 -59v223h109v-263h-410l62 72v-688h-115z" />
    <glyph glyph-name="uni0462" unicode="&#x462;" horiz-adv-x="722" 
d="M135 0v715h115v-630l-12 14h197q62 0 97 31t35 85q0 53 -35 83.5t-97 30.5h-243v98h242q76 0 132 -26t87 -74t31 -112t-31 -112.5t-87 -75.5t-132 -27h-299zM16 537v98h499v-98h-499z" />
    <glyph glyph-name="uni0472" unicode="&#x472;" horiz-adv-x="860" 
d="M430 -16q-82 0 -151 28t-120 78.5t-79 119t-28 148.5t28 148t79 118.5t120 78.5t151 28t151 -28t120 -78.5t79 -118.5t28 -148t-28 -148.5t-79 -119t-120 -78.5t-151 -28zM430 85q78 0 136.5 34.5t91.5 96.5t33 142t-33 141.5t-91.5 96t-136.5 34.5q-77 0 -136 -34.5
t-92 -96t-33 -141.5t33 -142t92 -96.5t136 -34.5zM117 319v99h626v-99h-626z" />
    <glyph glyph-name="uni0474" unicode="&#x474;" horiz-adv-x="779" 
d="M312 0l-280 715h124l235 -631h-36l191 531q14 40 31 61.5t42 30t62 8.5h81v-99h-59q-24 0 -35.5 -9t-21.5 -34l-216 -573h-118z" />
    <glyph glyph-name="uni0454" unicode="&#x454;" horiz-adv-x="564" 
d="M313 -16q-81 0 -142 33t-95 93.5t-34 139.5t34.5 138.5t95.5 93t139 33.5q70 0 125 -26t92 -73l-69 -67q-24 35 -60 55t-84 20q-73 0 -116 -46.5t-43 -128.5q0 -80 43 -127t117 -47q48 0 84.5 20t60.5 56l70 -68q-38 -47 -94 -73t-124 -26zM89 215v78h327v-78h-327z" />
    <glyph glyph-name="uni0456" unicode="&#x456;" horiz-adv-x="258" 
d="M184 0h-112v499h112v-499zM128 602q-29 0 -50 20t-21 48q0 30 21 50t50 20q30 0 50.5 -20t20.5 -49t-20.5 -49t-50.5 -20z" />
    <glyph glyph-name="uni0458" unicode="&#x458;" horiz-adv-x="237" 
d="M-30 -194v93h36q30 0 43 13.5t13 43.5v543h112v-560q0 -133 -133 -133h-71zM118 602q-29 0 -50 20t-21 48q0 30 21 50t50 20q30 0 50.5 -20t20.5 -49t-20.5 -49t-50.5 -20z" />
    <glyph glyph-name="uni0455" unicode="&#x455;" horiz-adv-x="532" 
d="M25 76l65 70q34 -35 80.5 -55t97.5 -20q52 0 83 19.5t31 50.5q0 28 -27.5 43.5t-97.5 24.5q-110 16 -159.5 50.5t-49.5 95.5q0 48 28 84t76 56t110 20q72 0 127.5 -24t96.5 -65l-65 -71q-31 34 -71 54t-87 20t-76 -18.5t-29 -47.5q0 -24 26.5 -36.5t93.5 -21.5
q110 -16 162 -52.5t52 -104.5q0 -49 -29 -86t-80 -57.5t-119 -20.5q-73 0 -134 24.5t-105 67.5z" />
    <glyph glyph-name="uni0459" unicode="&#x459;" horiz-adv-x="854" 
d="M19 0v93h36q27 0 40.5 13t15.5 45l32 348h370v-421l-12 12h128q43 0 66 20t23 57q0 36 -23 55.5t-66 19.5h-151v90h159q89 0 142.5 -45t53.5 -118q0 -50 -25 -88t-69 -59.5t-102 -21.5h-236v420l12 -12h-183l13 12l-28 -291q-7 -72 -40 -100.5t-101 -28.5h-55z" />
    <glyph glyph-name="uni045A" unicode="&#x45a;" horiz-adv-x="872" 
d="M419 0v499h112v-421l-12 12h128q43 0 66 19.5t23 52.5q0 34 -23 53t-66 19h-139v90h148q88 0 141.5 -45t53.5 -117q0 -47 -25 -83.5t-69 -57.5t-101 -21h-237zM73 0v499h112v-499h-112zM154 228v90h296v-90h-296z" />
    <glyph glyph-name="uni045B" unicode="&#x45b;" horiz-adv-x="627" 
d="M94 0v720h112v-395h-15q10 66 38.5 102.5t67.5 52t80 15.5q90 0 142 -55.5t52 -159.5v-280h-112v268q0 66 -30 99.5t-81 33.5q-37 0 -69.5 -19.5t-52.5 -60t-20 -105.5v-216h-112zM13 559v84h385v-84h-385z" />
    </font>
</defs>
</svg>
