<?xml version="1.0" standalone="no"?>
<!DOCTYPE svg PUBLIC "-//W3C//DTD SVG 1.1//EN" "http://www.w3.org/Graphics/SVG/1.1/DTD/svg11.dtd" >
<svg xmlns="http://www.w3.org/2000/svg" xmlns:xlink="http://www.w3.org/1999/xlink" version="1.1">
<metadata>
Created by FontForge 20170812 at Thu Feb  2 15:04:02 2023
 By www-data
Copyright 2021 The Wix Madefor Project Authors (https://github.com/wix/wixmadefor/)
</metadata>
<defs>
<font id="WixMadeforDisplay-Regular" horiz-adv-x="0" >
  <font-face 
    font-family="Wix Madefor Display"
    font-weight="400"
    font-stretch="normal"
    units-per-em="1000"
    panose-1="2 11 5 3 2 2 3 2 2 3"
    ascent="800"
    descent="-200"
    x-height="492"
    cap-height="715"
    bbox="-215 -270 1190 1109"
    underline-thickness="64"
    underline-position="-98"
    unicode-range="U+000D-FEFF"
  />
<missing-glyph horiz-adv-x="500" 
d="M50 0v750h400v-750h-400zM100 50h300v650h-300v-650z" />
    <glyph glyph-name=".notdef" horiz-adv-x="500" 
d="M50 0v750h400v-750h-400zM100 50h300v650h-300v-650z" />
    <glyph glyph-name="uni0000" 
 />
    <glyph glyph-name="uni0000" 
 />
    <glyph glyph-name="uni000D" unicode="&#xd;" horiz-adv-x="195" 
 />
    <glyph glyph-name="space" unicode=" " horiz-adv-x="195" 
 />
    <glyph glyph-name="period" unicode="." horiz-adv-x="222" 
d="M167 46q0 -23 -16.5 -39.5t-39.5 -16.5t-39.5 16.5t-16.5 39.5t16.5 39.5t39.5 16.5t39.5 -16.5t16.5 -39.5z" />
    <glyph glyph-name="colon" unicode=":" horiz-adv-x="222" 
d="M167 46q0 -23 -16.5 -39.5t-39.5 -16.5t-39.5 16.5t-16.5 39.5t16.5 39.5t39.5 16.5t39.5 -16.5t16.5 -39.5zM167 436q0 -23 -16.5 -39.5t-39.5 -16.5t-39.5 16.5t-16.5 39.5t16.5 39.5t39.5 16.5t39.5 -16.5t16.5 -39.5z" />
    <glyph glyph-name="comma" unicode="," horiz-adv-x="222" 
d="M106 -121h-50q22 32 35 68.5t11 62.5l8 -17q-23 0 -39 15.5t-16 38.5t15.5 39t37.5 16q26 0 42.5 -18t16.5 -47q0 -24 -8.5 -52.5t-22.5 -56t-30 -49.5z" />
    <glyph glyph-name="semicolon" unicode=";" horiz-adv-x="222" 
d="M106 -121h-50q22 32 35 68.5t11 62.5l8 -17q-23 0 -39 15.5t-16 38.5t15.5 39t37.5 16q26 0 42.5 -18t16.5 -47q0 -24 -8.5 -52.5t-22.5 -56t-30 -49.5zM167 436q0 -23 -16.5 -39.5t-39.5 -16.5t-39.5 16.5t-16.5 39.5t16.5 39.5t39.5 16.5t39.5 -16.5t16.5 -39.5z" />
    <glyph glyph-name="question" unicode="?" horiz-adv-x="561" 
d="M284 204h-62q-4 44 7.5 80.5t40 68t73.5 59.5q38 27 56.5 57t18.5 66q0 59 -40 95t-104 36q-55 0 -101.5 -29t-82.5 -85l-53 49q47 64 107.5 97t130.5 33q64 0 113.5 -25.5t78.5 -69t29 -99.5q0 -54 -30.5 -97.5t-95.5 -84.5q-47 -30 -66.5 -64t-19.5 -87zM308 46
q0 -23 -16.5 -39.5t-39.5 -16.5t-39.5 16.5t-16.5 39.5t16.5 39.5t39.5 16.5t39.5 -16.5t16.5 -39.5z" />
    <glyph glyph-name="exclam" unicode="!" horiz-adv-x="222" 
d="M167 46q0 -23 -16.5 -39.5t-39.5 -16.5t-39.5 16.5t-16.5 39.5t16.5 39.5t39.5 16.5t39.5 -16.5t16.5 -39.5zM134 204h-46q-1 18 -3 58.5t-4.5 93.5t-5 108.5t-4.5 104.5t-3.5 81t-1.5 37q0 19 13 31.5t32 12.5t32 -12.5t13 -31.5q0 -5 -1.5 -37t-3.5 -81t-4.5 -104.5
t-5 -108.5t-4.5 -93.5t-3 -58.5z" />
    <glyph glyph-name="questiondown" unicode="&#xbf;" horiz-adv-x="561" 
d="M277 278h62q4 -43 -7.5 -80t-39.5 -68.5t-74 -59.5q-38 -27 -56.5 -57t-18.5 -66q0 -58 40 -94.5t104 -36.5q55 0 101.5 29t82.5 85l53 -49q-46 -64 -106.5 -97t-131.5 -33q-63 0 -113 25.5t-79 69.5t-29 99q0 54 31 97.5t95 84.5q47 30 66.5 64.5t19.5 86.5zM253 436
q0 23 16.5 39.5t39.5 16.5t39.5 -16.5t16.5 -39.5t-16.5 -39.5t-39.5 -16.5t-39.5 16.5t-16.5 39.5z" />
    <glyph glyph-name="exclamdown" unicode="&#xa1;" horiz-adv-x="222" 
d="M55 436q0 23 16.5 39.5t39.5 16.5t39.5 -16.5t16.5 -39.5t-16.5 -39.5t-39.5 -16.5t-39.5 16.5t-16.5 39.5zM88 278h46q1 -17 3 -58t4.5 -94t5 -108.5t4.5 -104.5t3.5 -81t1.5 -37q0 -19 -13 -31.5t-32 -12.5t-32 12.5t-13 31.5q0 5 1.5 37t3.5 81t4.5 104.5t5 108.5
t4.5 94t3 58z" />
    <glyph glyph-name="quotesingle" unicode="'" horiz-adv-x="222" 
d="M128 513h-34q-7 36 -13 72.5t-9.5 64.5t-3.5 40q0 20 12.5 33t30.5 13t30.5 -13t12.5 -33q0 -12 -3.5 -40t-9.5 -64.5t-13 -72.5z" />
    <glyph glyph-name="quotedbl" unicode="&#x22;" horiz-adv-x="352" 
d="M128 513h-34q-7 36 -13 72.5t-9.5 64.5t-3.5 40q0 20 12.5 33t30.5 13t30.5 -13t12.5 -33q0 -12 -3.5 -40t-9.5 -64.5t-13 -72.5zM258 513h-34q-7 36 -13 72.5t-9.5 64.5t-3.5 40q0 20 12.5 33t30.5 13t30.5 -13t12.5 -33q0 -12 -3.5 -40t-9.5 -64.5t-13 -72.5z" />
    <glyph glyph-name="ellipsis" unicode="&#x2026;" horiz-adv-x="1000" 
d="M222 46q0 -23 -16.5 -39.5t-39.5 -16.5t-39.5 16.5t-16.5 39.5t16.5 39.5t39.5 16.5t39.5 -16.5t16.5 -39.5zM556 46q0 -23 -16.5 -39.5t-39.5 -16.5t-39.5 16.5t-16.5 39.5t16.5 39.5t39.5 16.5t39.5 -16.5t16.5 -39.5zM889 46q0 -23 -16.5 -39.5t-39.5 -16.5
t-39.5 16.5t-16.5 39.5t16.5 39.5t39.5 16.5t39.5 -16.5t16.5 -39.5z" />
    <glyph glyph-name="uni00A0" unicode="&#xa0;" horiz-adv-x="195" 
 />
    <glyph glyph-name="uni2000" unicode="&#x2000;" horiz-adv-x="500" 
 />
    <glyph glyph-name="uni2001" unicode="&#x2001;" horiz-adv-x="1000" 
 />
    <glyph glyph-name="uni2002" unicode="&#x2002;" horiz-adv-x="500" 
 />
    <glyph glyph-name="uni2003" unicode="&#x2003;" horiz-adv-x="1000" 
 />
    <glyph glyph-name="uni2004" unicode="&#x2004;" horiz-adv-x="333" 
 />
    <glyph glyph-name="uni2005" unicode="&#x2005;" horiz-adv-x="250" 
 />
    <glyph glyph-name="uni2006" unicode="&#x2006;" horiz-adv-x="167" 
 />
    <glyph glyph-name="uni2007" unicode="&#x2007;" horiz-adv-x="660" 
 />
    <glyph glyph-name="uni2008" unicode="&#x2008;" horiz-adv-x="222" 
 />
    <glyph glyph-name="uni2009" unicode="&#x2009;" horiz-adv-x="200" 
 />
    <glyph glyph-name="uni200A" unicode="&#x200a;" horiz-adv-x="125" 
 />
    <glyph glyph-name="uni200B" unicode="&#x200b;" 
 />
    <glyph glyph-name="uniFEFF" unicode="&#xfeff;" 
 />
    <glyph glyph-name="zero" unicode="0" horiz-adv-x="646" 
d="M323 -16q-81 0 -139.5 44.5t-89.5 128t-31 200.5q0 176 69 275t191 99t191 -99t69 -275q0 -117 -31 -200.5t-89 -128t-140 -44.5zM323 49q87 0 134.5 80t47.5 228q0 149 -47.5 229t-134.5 80t-134.5 -80t-47.5 -229q0 -148 47.5 -228t134.5 -80z" />
    <glyph glyph-name="one" unicode="1" horiz-adv-x="456" 
d="M263 715h74v-715h-74v633l-183 -145v82z" />
    <glyph glyph-name="two" unicode="2" horiz-adv-x="598" 
d="M520 0h-468v64l248 236q68 65 104 117t36 107q0 39 -18 71.5t-51 51.5t-78 19q-61 0 -109.5 -33.5t-83.5 -90.5l-53 49q50 70 112.5 105t136.5 35q67 0 116 -28t76.5 -75.5t27.5 -106.5q0 -46 -19.5 -87.5t-58 -85.5t-97.5 -99l-66 -62t-65.5 -61.5t-65.5 -61.5h376v-64z
" />
    <glyph glyph-name="three" unicode="3" horiz-adv-x="599" 
d="M39 114l53 49q38 -52 90 -83t118 -31q77 0 123.5 42t46.5 106q0 45 -23.5 77t-64 49.5t-91.5 17.5h-70v65h70q45 0 81 16t57 45t21 68q0 58 -41 94.5t-108 36.5q-60 0 -107 -30.5t-82 -83.5l-53 49q46 61 107 95.5t135 34.5q67 0 118 -25.5t80 -70t29 -100.5
q0 -50 -30.5 -90t-85 -63t-126.5 -23l10 37q75 0 132 -26t88.5 -70.5t31.5 -102.5q0 -60 -31.5 -108.5t-87 -76.5t-129.5 -28q-80 0 -146 34.5t-115 95.5z" />
    <glyph glyph-name="four" unicode="4" horiz-adv-x="646" 
d="M495 0h-74v183h-378v62l378 470h74v-470h112v-62h-112v-183zM421 619l-299 -374h299v374z" />
    <glyph glyph-name="five" unicode="5" horiz-adv-x="592" 
d="M94 173q35 -55 84 -89.5t115 -34.5q52 0 91 24.5t61.5 67t22.5 94.5q0 50 -22 88.5t-60.5 60.5t-88.5 22q-54 0 -95.5 -25.5t-71.5 -69.5l-31 3q13 49 42.5 84t72 54t94.5 19q69 0 122.5 -30.5t84.5 -84t31 -121.5q0 -72 -33 -129t-90 -89.5t-130 -32.5
q-81 0 -144.5 36.5t-107.5 105.5zM498 651h-353l25 18l-40 -358h-69l46 404h391v-64z" />
    <glyph glyph-name="six" unicode="6" horiz-adv-x="622" 
d="M312 -16q-78 0 -136 34t-90.5 94t-32.5 137q0 74 32 151t98.5 156t171.5 159h107q-102 -77 -168 -141.5t-102.5 -122.5t-51.5 -116l-19 10q28 56 82.5 90.5t122.5 34.5q65 0 121 -30.5t90 -84t34 -123.5t-33.5 -126t-92 -89t-133.5 -33zM312 50q52 0 93 24t65 64.5
t24 91.5t-24 90.5t-65 62.5t-93 23t-93 -23t-64.5 -62.5t-23.5 -90.5t23.5 -91.5t64.5 -64.5t93 -24z" />
    <glyph glyph-name="seven" unicode="7" horiz-adv-x="594" 
d="M539 715v-66l-359 -649h-85l361 649h-401v66h484z" />
    <glyph glyph-name="eight" unicode="8" horiz-adv-x="624" 
d="M312 -16q-75 0 -134 27t-93 74.5t-34 108.5q0 59 34 105t93 72.5t134 26.5q76 0 134.5 -26.5t92.5 -72.5t34 -105q0 -61 -34 -108.5t-92.5 -74.5t-134.5 -27zM312 356q-68 0 -121 23t-83.5 63.5t-30.5 90.5q0 58 30.5 102.5t83.5 70t121 25.5t121 -25.5t83.5 -70
t30.5 -102.5q0 -50 -30.5 -90.5t-83.5 -63.5t-121 -23zM312 49q51 0 92.5 19t66 52t24.5 74q0 42 -24.5 74.5t-66 51.5t-92.5 19t-92.5 -19t-66 -51.5t-24.5 -74.5q0 -41 24.5 -74t66 -52t92.5 -19zM312 404q44 0 79.5 17t56.5 46.5t21 65.5q0 38 -21 68t-56.5 47.5
t-79.5 17.5q-43 0 -79 -17.5t-57 -47.5t-21 -68q0 -36 21 -65.5t57 -46.5t79 -17z" />
    <glyph glyph-name="nine" unicode="9" horiz-adv-x="622" 
d="M310 731q78 0 136 -34t90.5 -93.5t32.5 -137.5q0 -74 -31.5 -151t-98.5 -155.5t-172 -159.5h-107q103 77 168.5 141.5t102 123t51.5 115.5l19 -10q-28 -56 -82.5 -90.5t-122.5 -34.5q-65 0 -121 30.5t-90 84t-34 123.5t33.5 126t92 89t133.5 33zM310 665q-52 0 -93 -23.5
t-65 -64.5t-24 -92q0 -50 24 -90t65 -63t93 -23q53 0 93.5 23t64 63t23.5 90q0 51 -23.5 92t-64 64.5t-93.5 23.5z" />
    <glyph glyph-name="zero.dnom" horiz-adv-x="445" 
d="M223 -9q-76 0 -118 56.5t-42 156.5q0 101 42 157t118 56q75 0 117 -56t42 -157q0 -100 -42 -156.5t-117 -56.5zM223 49q44 0 67.5 39.5t23.5 115.5t-23.5 115.5t-67.5 39.5q-45 0 -68.5 -39.5t-23.5 -115.5t23.5 -115.5t68.5 -39.5z" />
    <glyph glyph-name="one.dnom" horiz-adv-x="366" 
d="M189 411h58v-411h-67v331l-100 -77v72z" />
    <glyph glyph-name="two.dnom" horiz-adv-x="428" 
d="M350 0h-298v50l145 131q37 33 57 59.5t20 54.5q0 26 -19.5 45t-51.5 19q-31 0 -59 -19.5t-48 -53.5l-49 44q31 43 71.5 65t86.5 22q41 0 72 -16t48 -43.5t17 -62.5q0 -41 -26.5 -77t-77.5 -82q-34 -31 -57 -51t-47 -40l-5 13h221v-58z" />
    <glyph glyph-name="three.dnom" horiz-adv-x="405" 
d="M39 72l47 43q21 -32 50 -49.5t64 -17.5q39 0 62.5 20t23.5 50q0 29 -24.5 48t-68.5 19h-30v56h30q36 0 59.5 16.5t23.5 43.5q0 25 -20.5 42t-53.5 17q-31 0 -58 -17t-47 -49l-46 42q24 37 66 59t90 22q40 0 70.5 -15.5t48.5 -40.5t18 -56q0 -46 -42 -75t-114 -29v28
q77 0 121.5 -32t44.5 -84q0 -33 -19 -61t-53 -44.5t-79 -16.5q-51 0 -94.5 22t-69.5 59z" />
    <glyph glyph-name="four.dnom" horiz-adv-x="437" 
d="M334 0h-66v97h-225v57l225 254h66v-254h64v-57h-64v-97zM268 327l-152 -173h152v173z" />
    <glyph glyph-name="five.dnom" horiz-adv-x="398" 
d="M41 72l47 43q23 -35 48.5 -51t59.5 -16q38 0 63 25t25 61q0 33 -24.5 55.5t-60.5 22.5q-28 0 -48 -9t-35 -26l-27 2q11 42 42 66t74 24q64 0 105.5 -38t41.5 -97q0 -41 -20.5 -73.5t-55.5 -51t-80 -18.5q-100 0 -155 81zM322 351h-197l15 31l-24 -205h-63l29 231h240v-57
z" />
    <glyph glyph-name="six.dnom" horiz-adv-x="422" 
d="M212 -9q-48 0 -83.5 19.5t-55.5 53.5t-20 78q0 42 19.5 86t60.5 89t105 91h96q-94 -66 -144 -116.5t-64 -100.5l-12 6q14 32 42 51.5t64 19.5q40 0 74.5 -17.5t55.5 -48t21 -70.5t-21 -72t-56.5 -50.5t-81.5 -18.5zM212 49q39 0 65.5 24t26.5 58q0 35 -26.5 58t-65.5 23
q-40 0 -66 -23t-26 -58q0 -34 26 -58t66 -24z" />
    <glyph glyph-name="seven.dnom" horiz-adv-x="407" 
d="M352 408v-58l-218 -350h-73l220 350h-226v58h297z" />
    <glyph glyph-name="eight.dnom" horiz-adv-x="423" 
d="M212 -9q-70 0 -115.5 33.5t-45.5 86.5t45 85.5t116 32.5t115.5 -32.5t44.5 -85.5t-45 -86.5t-115 -33.5zM212 201q-64 0 -104.5 30.5t-40.5 76.5q0 47 41 78t104 31q62 0 103 -31t41 -78q0 -46 -40 -76.5t-104 -30.5zM212 48q39 0 65.5 18t26.5 48q0 29 -26.5 49
t-65.5 20t-66 -20t-27 -50q0 -29 27 -47t66 -18zM212 240q32 0 54 18t22 44t-22 42t-54 16t-54.5 -16.5t-22.5 -42.5q0 -25 22.5 -43t54.5 -18z" />
    <glyph glyph-name="nine.dnom" horiz-adv-x="422" 
d="M210 417q48 0 83.5 -19.5t55.5 -53.5t20 -78q0 -42 -19.5 -86t-60 -89t-105.5 -91h-96q95 66 145 117t63 100l12 -6q-14 -32 -42 -51.5t-64 -19.5q-40 0 -74.5 17.5t-55.5 48t-21 70.5t21 72t57 50.5t81 18.5zM210 359q-39 0 -65.5 -23.5t-26.5 -58.5q0 -34 26.5 -57.5
t65.5 -23.5q40 0 66 23.5t26 57.5q0 35 -26 58.5t-66 23.5z" />
    <glyph glyph-name="zero.numr" horiz-adv-x="445" 
d="M223 295q-76 0 -118 56.5t-42 156.5q0 101 42 157t118 56q75 0 117 -56t42 -157q0 -100 -42 -156.5t-117 -56.5zM223 353q44 0 67.5 39.5t23.5 115.5t-23.5 115.5t-67.5 39.5q-45 0 -68.5 -39.5t-23.5 -115.5t23.5 -115.5t68.5 -39.5z" />
    <glyph glyph-name="one.numr" horiz-adv-x="366" 
d="M189 715h58v-411h-67v331l-100 -77v72z" />
    <glyph glyph-name="two.numr" horiz-adv-x="428" 
d="M350 304h-298v50l145 131q37 33 57 59.5t20 54.5q0 26 -19.5 45t-51.5 19q-31 0 -59 -19.5t-48 -53.5l-49 44q31 43 71.5 65t86.5 22q41 0 72 -16t48 -43.5t17 -62.5q0 -41 -26.5 -77t-77.5 -82q-34 -31 -57 -51t-47 -40l-5 13h221v-58z" />
    <glyph glyph-name="three.numr" horiz-adv-x="405" 
d="M39 376l47 43q21 -32 50 -49.5t64 -17.5q39 0 62.5 20t23.5 50q0 29 -24.5 48t-68.5 19h-30v56h30q36 0 59.5 16.5t23.5 43.5q0 25 -20.5 42t-53.5 17q-31 0 -58 -17t-47 -49l-46 42q24 37 66 59t90 22q40 0 70.5 -15.5t48.5 -40.5t18 -56q0 -46 -42 -75t-114 -29v28
q77 0 121.5 -32t44.5 -84q0 -33 -19 -61t-53 -44.5t-79 -16.5q-51 0 -94.5 22t-69.5 59z" />
    <glyph glyph-name="four.numr" horiz-adv-x="437" 
d="M334 304h-66v97h-225v57l225 254h66v-254h64v-57h-64v-97zM268 631l-152 -173h152v173z" />
    <glyph glyph-name="five.numr" horiz-adv-x="398" 
d="M41 376l47 43q23 -35 48.5 -51t59.5 -16q38 0 63 25t25 61q0 33 -24.5 55.5t-60.5 22.5q-28 0 -48 -9t-35 -26l-27 2q11 42 42 66t74 24q64 0 105.5 -38t41.5 -97q0 -41 -20.5 -73.5t-55.5 -51t-80 -18.5q-100 0 -155 81zM322 655h-197l15 31l-24 -205h-63l29 231h240
v-57z" />
    <glyph glyph-name="six.numr" horiz-adv-x="422" 
d="M212 295q-48 0 -83.5 19.5t-55.5 53.5t-20 78q0 42 19.5 86t60.5 89t105 91h96q-94 -66 -144 -116.5t-64 -100.5l-12 6q14 32 42 51.5t64 19.5q40 0 74.5 -17.5t55.5 -48t21 -70.5t-21 -72t-56.5 -50.5t-81.5 -18.5zM212 353q39 0 65.5 24t26.5 58q0 35 -26.5 58
t-65.5 23q-40 0 -66 -23t-26 -58q0 -34 26 -58t66 -24z" />
    <glyph glyph-name="seven.numr" horiz-adv-x="407" 
d="M352 712v-58l-218 -350h-73l220 350h-226v58h297z" />
    <glyph glyph-name="eight.numr" horiz-adv-x="423" 
d="M212 295q-70 0 -115.5 33.5t-45.5 86.5t45 85.5t116 32.5t115.5 -32.5t44.5 -85.5t-45 -86.5t-115 -33.5zM212 505q-64 0 -104.5 30.5t-40.5 76.5q0 47 41 78t104 31q62 0 103 -31t41 -78q0 -46 -40 -76.5t-104 -30.5zM212 352q39 0 65.5 18t26.5 48q0 29 -26.5 49
t-65.5 20t-66 -20t-27 -50q0 -29 27 -47t66 -18zM212 544q32 0 54 18t22 44t-22 42t-54 16t-54.5 -16.5t-22.5 -42.5q0 -25 22.5 -43t54.5 -18z" />
    <glyph glyph-name="nine.numr" horiz-adv-x="422" 
d="M210 721q48 0 83.5 -19.5t55.5 -53.5t20 -78q0 -42 -19.5 -86t-60 -89t-105.5 -91h-96q95 66 145 117t63 100l12 -6q-14 -32 -42 -51.5t-64 -19.5q-40 0 -74.5 17.5t-55.5 48t-21 70.5t21 72t57 50.5t81 18.5zM210 663q-39 0 -65.5 -23.5t-26.5 -58.5q0 -34 26.5 -57.5
t65.5 -23.5q40 0 66 23.5t26 57.5q0 35 -26 58.5t-66 23.5z" />
    <glyph glyph-name="uni2080" unicode="&#x2080;" horiz-adv-x="445" 
d="M223 -109q-76 0 -118 56.5t-42 156.5q0 101 42 157t118 56q75 0 117 -56t42 -157q0 -100 -42 -156.5t-117 -56.5zM223 -51q44 0 67.5 39.5t23.5 115.5t-23.5 115.5t-67.5 39.5q-45 0 -68.5 -39.5t-23.5 -115.5t23.5 -115.5t68.5 -39.5z" />
    <glyph glyph-name="uni2081" unicode="&#x2081;" horiz-adv-x="366" 
d="M189 311h58v-411h-67v331l-100 -77v72z" />
    <glyph glyph-name="uni2082" unicode="&#x2082;" horiz-adv-x="428" 
d="M350 -100h-298v50l145 131q37 33 57 59.5t20 54.5q0 26 -19.5 45t-51.5 19q-31 0 -59 -19.5t-48 -53.5l-49 44q31 43 71.5 65t86.5 22q41 0 72 -16t48 -43.5t17 -62.5q0 -41 -26.5 -77t-77.5 -82q-34 -31 -57 -51t-47 -40l-5 13h221v-58z" />
    <glyph glyph-name="uni2083" unicode="&#x2083;" horiz-adv-x="405" 
d="M39 -28l47 43q21 -32 50 -49.5t64 -17.5q39 0 62.5 20t23.5 50q0 29 -24.5 48t-68.5 19h-30v56h30q36 0 59.5 16.5t23.5 43.5q0 25 -20.5 42t-53.5 17q-31 0 -58 -17t-47 -49l-46 42q24 37 66 59t90 22q40 0 70.5 -15.5t48.5 -40.5t18 -56q0 -46 -42 -75t-114 -29v28
q77 0 121.5 -32t44.5 -84q0 -33 -19 -61t-53 -44.5t-79 -16.5q-51 0 -94.5 22t-69.5 59z" />
    <glyph glyph-name="uni2084" unicode="&#x2084;" horiz-adv-x="437" 
d="M334 -100h-66v97h-225v57l225 254h66v-254h64v-57h-64v-97zM268 227l-152 -173h152v173z" />
    <glyph glyph-name="uni2085" unicode="&#x2085;" horiz-adv-x="398" 
d="M41 -28l47 43q23 -35 48.5 -51t59.5 -16q38 0 63 25t25 61q0 33 -24.5 55.5t-60.5 22.5q-28 0 -48 -9t-35 -26l-27 2q11 42 42 66t74 24q64 0 105.5 -38t41.5 -97q0 -41 -20.5 -73.5t-55.5 -51t-80 -18.5q-100 0 -155 81zM322 251h-197l15 31l-24 -205h-63l29 231h240
v-57z" />
    <glyph glyph-name="uni2086" unicode="&#x2086;" horiz-adv-x="422" 
d="M212 -109q-48 0 -83.5 19.5t-55.5 53.5t-20 78q0 42 19.5 86t60.5 89t105 91h96q-94 -66 -144 -116.5t-64 -100.5l-12 6q14 32 42 51.5t64 19.5q40 0 74.5 -17.5t55.5 -48t21 -70.5t-21 -72t-56.5 -50.5t-81.5 -18.5zM212 -51q39 0 65.5 24t26.5 58q0 35 -26.5 58
t-65.5 23q-40 0 -66 -23t-26 -58q0 -34 26 -58t66 -24z" />
    <glyph glyph-name="uni2087" unicode="&#x2087;" horiz-adv-x="407" 
d="M352 308v-58l-218 -350h-73l220 350h-226v58h297z" />
    <glyph glyph-name="uni2088" unicode="&#x2088;" horiz-adv-x="423" 
d="M212 -109q-70 0 -115.5 33.5t-45.5 86.5t45 85.5t116 32.5t115.5 -32.5t44.5 -85.5t-45 -86.5t-115 -33.5zM212 101q-64 0 -104.5 30.5t-40.5 76.5q0 47 41 78t104 31q62 0 103 -31t41 -78q0 -46 -40 -76.5t-104 -30.5zM212 -52q39 0 65.5 18t26.5 48q0 29 -26.5 49
t-65.5 20t-66 -20t-27 -50q0 -29 27 -47t66 -18zM212 140q32 0 54 18t22 44t-22 42t-54 16t-54.5 -16.5t-22.5 -42.5q0 -25 22.5 -43t54.5 -18z" />
    <glyph glyph-name="uni2089" unicode="&#x2089;" horiz-adv-x="422" 
d="M210 317q48 0 83.5 -19.5t55.5 -53.5t20 -78q0 -42 -19.5 -86t-60 -89t-105.5 -91h-96q95 66 145 117t63 100l12 -6q-14 -32 -42 -51.5t-64 -19.5q-40 0 -74.5 17.5t-55.5 48t-21 70.5t21 72t57 50.5t81 18.5zM210 259q-39 0 -65.5 -23.5t-26.5 -58.5q0 -34 26.5 -57.5
t65.5 -23.5q40 0 66 23.5t26 57.5q0 35 -26 58.5t-66 23.5z" />
    <glyph glyph-name="uni2070" unicode="&#x2070;" horiz-adv-x="445" 
d="M223 395q-76 0 -118 56.5t-42 156.5q0 101 42 157t118 56q75 0 117 -56t42 -157q0 -100 -42 -156.5t-117 -56.5zM223 453q44 0 67.5 39.5t23.5 115.5t-23.5 115.5t-67.5 39.5q-45 0 -68.5 -39.5t-23.5 -115.5t23.5 -115.5t68.5 -39.5z" />
    <glyph glyph-name="uni00B9" unicode="&#xb9;" horiz-adv-x="366" 
d="M189 815h58v-411h-67v331l-100 -77v72z" />
    <glyph glyph-name="uni00B2" unicode="&#xb2;" horiz-adv-x="428" 
d="M350 404h-298v50l145 131q37 33 57 59.5t20 54.5q0 26 -19.5 45t-51.5 19q-31 0 -59 -19.5t-48 -53.5l-49 44q31 43 71.5 65t86.5 22q41 0 72 -16t48 -43.5t17 -62.5q0 -41 -26.5 -77t-77.5 -82q-34 -31 -57 -51t-47 -40l-5 13h221v-58z" />
    <glyph glyph-name="uni00B3" unicode="&#xb3;" horiz-adv-x="405" 
d="M39 476l47 43q21 -32 50 -49.5t64 -17.5q39 0 62.5 20t23.5 50q0 29 -24.5 48t-68.5 19h-30v56h30q36 0 59.5 16.5t23.5 43.5q0 25 -20.5 42t-53.5 17q-31 0 -58 -17t-47 -49l-46 42q24 37 66 59t90 22q40 0 70.5 -15.5t48.5 -40.5t18 -56q0 -46 -42 -75t-114 -29v28
q77 0 121.5 -32t44.5 -84q0 -33 -19 -61t-53 -44.5t-79 -16.5q-51 0 -94.5 22t-69.5 59z" />
    <glyph glyph-name="uni2074" unicode="&#x2074;" horiz-adv-x="437" 
d="M334 404h-66v97h-225v57l225 254h66v-254h64v-57h-64v-97zM268 731l-152 -173h152v173z" />
    <glyph glyph-name="uni2075" unicode="&#x2075;" horiz-adv-x="398" 
d="M41 476l47 43q23 -35 48.5 -51t59.5 -16q38 0 63 25t25 61q0 33 -24.5 55.5t-60.5 22.5q-28 0 -48 -9t-35 -26l-27 2q11 42 42 66t74 24q64 0 105.5 -38t41.5 -97q0 -41 -20.5 -73.5t-55.5 -51t-80 -18.5q-100 0 -155 81zM322 755h-197l15 31l-24 -205h-63l29 231h240
v-57z" />
    <glyph glyph-name="uni2076" unicode="&#x2076;" horiz-adv-x="422" 
d="M212 395q-48 0 -83.5 19.5t-55.5 53.5t-20 78q0 42 19.5 86t60.5 89t105 91h96q-94 -66 -144 -116.5t-64 -100.5l-12 6q14 32 42 51.5t64 19.5q40 0 74.5 -17.5t55.5 -48t21 -70.5t-21 -72t-56.5 -50.5t-81.5 -18.5zM212 453q39 0 65.5 24t26.5 58q0 35 -26.5 58
t-65.5 23q-40 0 -66 -23t-26 -58q0 -34 26 -58t66 -24z" />
    <glyph glyph-name="uni2077" unicode="&#x2077;" horiz-adv-x="407" 
d="M352 812v-58l-218 -350h-73l220 350h-226v58h297z" />
    <glyph glyph-name="uni2078" unicode="&#x2078;" horiz-adv-x="423" 
d="M212 395q-70 0 -115.5 33.5t-45.5 86.5t45 85.5t116 32.5t115.5 -32.5t44.5 -85.5t-45 -86.5t-115 -33.5zM212 605q-64 0 -104.5 30.5t-40.5 76.5q0 47 41 78t104 31q62 0 103 -31t41 -78q0 -46 -40 -76.5t-104 -30.5zM212 452q39 0 65.5 18t26.5 48q0 29 -26.5 49
t-65.5 20t-66 -20t-27 -50q0 -29 27 -47t66 -18zM212 644q32 0 54 18t22 44t-22 42t-54 16t-54.5 -16.5t-22.5 -42.5q0 -25 22.5 -43t54.5 -18z" />
    <glyph glyph-name="uni2079" unicode="&#x2079;" horiz-adv-x="422" 
d="M210 821q48 0 83.5 -19.5t55.5 -53.5t20 -78q0 -42 -19.5 -86t-60 -89t-105.5 -91h-96q95 66 145 117t63 100l12 -6q-14 -32 -42 -51.5t-64 -19.5q-40 0 -74.5 17.5t-55.5 48t-21 70.5t21 72t57 50.5t81 18.5zM210 763q-39 0 -65.5 -23.5t-26.5 -58.5q0 -34 26.5 -57.5
t65.5 -23.5q40 0 66 23.5t26 57.5q0 35 -26 58.5t-66 23.5z" />
    <glyph glyph-name="fraction" unicode="&#x2044;" horiz-adv-x="206" 
d="M-93 0h-82l474 715h82z" />
    <glyph glyph-name="zero.percent" horiz-adv-x="376" 
d="M188 -6q-44 0 -79.5 20.5t-56 56t-20.5 79.5t20.5 79.5t56 56t79.5 20.5q45 0 80 -20.5t55.5 -56t20.5 -79.5t-20.5 -79.5t-55.5 -56t-80 -20.5zM188 56q39 0 63.5 26.5t24.5 67.5t-24.5 67.5t-63.5 26.5t-63.5 -26.5t-24.5 -67.5t24.5 -67.5t63.5 -26.5z" />
    <glyph glyph-name="percent" unicode="%" horiz-adv-x="756" 
d="M182 0h-82l474 715h82zM568 -6q-44 0 -79.5 20.5t-56 56t-20.5 79.5t20.5 79.5t56 56t79.5 20.5q45 0 80 -20.5t55.5 -56t20.5 -79.5t-20.5 -79.5t-55.5 -56t-80 -20.5zM568 56q39 0 63.5 26.5t24.5 67.5t-24.5 67.5t-63.5 26.5t-63.5 -26.5t-24.5 -67.5t24.5 -67.5
t63.5 -26.5zM188 409q-44 0 -79.5 20.5t-56 56t-20.5 79.5t20.5 79.5t56 56t79.5 20.5q45 0 80 -20.5t55.5 -56t20.5 -79.5t-20.5 -79.5t-55.5 -56t-80 -20.5zM188 471q39 0 63.5 26.5t24.5 67.5t-24.5 67.5t-63.5 26.5t-63.5 -26.5t-24.5 -67.5t24.5 -67.5t63.5 -26.5z" />
    <glyph glyph-name="perthousand" unicode="&#x2030;" horiz-adv-x="1105" 
d="M182 0h-82l474 715h82zM568 -6q-44 0 -79.5 20.5t-56 56t-20.5 79.5t20.5 79.5t56 56t79.5 20.5q45 0 80 -20.5t55.5 -56t20.5 -79.5t-20.5 -79.5t-55.5 -56t-80 -20.5zM568 56q39 0 63.5 26.5t24.5 67.5t-24.5 67.5t-63.5 26.5t-63.5 -26.5t-24.5 -67.5t24.5 -67.5
t63.5 -26.5zM917 -6q-44 0 -79.5 20.5t-56 56t-20.5 79.5t20.5 79.5t56 56t79.5 20.5q45 0 80 -20.5t55.5 -56t20.5 -79.5t-20.5 -79.5t-55.5 -56t-80 -20.5zM917 56q39 0 63.5 26.5t24.5 67.5t-24.5 67.5t-63.5 26.5t-63.5 -26.5t-24.5 -67.5t24.5 -67.5t63.5 -26.5z
M188 409q-44 0 -79.5 20.5t-56 56t-20.5 79.5t20.5 79.5t56 56t79.5 20.5q45 0 80 -20.5t55.5 -56t20.5 -79.5t-20.5 -79.5t-55.5 -56t-80 -20.5zM188 471q39 0 63.5 26.5t24.5 67.5t-24.5 67.5t-63.5 26.5t-63.5 -26.5t-24.5 -67.5t24.5 -67.5t63.5 -26.5z" />
    <glyph glyph-name="onehalf" unicode="&#xbd;" horiz-adv-x="980" 
d="M263 0h-82l474 715h82zM902 0h-298v50l145 131q37 33 57 59.5t20 54.5q0 26 -19.5 45t-51.5 19q-31 0 -59 -19.5t-48 -53.5l-49 44q31 43 71.5 65t86.5 22q41 0 72 -16t48 -43.5t17 -62.5q0 -41 -26.5 -77t-77.5 -82q-34 -31 -57 -51t-47 -40l-5 13h221v-58zM189 715h58
v-411h-67v331l-100 -77v72z" />
    <glyph glyph-name="onequarter" unicode="&#xbc;" horiz-adv-x="939" 
d="M263 0h-82l474 715h82zM836 0h-66v97h-225v57l225 254h66v-254h64v-57h-64v-97zM770 327l-152 -173h152v173zM189 715h58v-411h-67v331l-100 -77v72z" />
    <glyph glyph-name="threequarters" unicode="&#xbe;" horiz-adv-x="977" 
d="M301 0h-82l474 715h82zM874 0h-66v97h-225v57l225 254h66v-254h64v-57h-64v-97zM808 327l-152 -173h152v173zM39 376l47 43q21 -32 50 -49.5t64 -17.5q39 0 62.5 20t23.5 50q0 29 -24.5 48t-68.5 19h-30v56h30q36 0 59.5 16.5t23.5 43.5q0 25 -20.5 42t-53.5 17
q-31 0 -58 -17t-47 -49l-46 42q24 37 66 59t90 22q40 0 70.5 -15.5t48.5 -40.5t18 -56q0 -46 -42 -75t-114 -29v28q77 0 121.5 -32t44.5 -84q0 -33 -19 -61t-53 -44.5t-79 -16.5q-51 0 -94.5 22t-69.5 59z" />
    <glyph glyph-name="dollar" unicode="$" horiz-adv-x="660" 
d="M61 124l53 49q38 -52 93.5 -83.5t128.5 -31.5q54 0 98 18t69.5 50.5t25.5 75.5q0 38 -20 64t-63 43.5t-111 27.5q-133 20 -190.5 64t-57.5 126q0 56 32 100t87.5 69t125.5 25q74 0 138 -34.5t110 -95.5l-53 -49q-35 53 -85 84t-110 31q-78 0 -126 -36t-48 -94
q0 -35 18.5 -59.5t56.5 -40t98 -24.5q146 -21 207.5 -68t61.5 -133q0 -61 -36 -108t-96 -73.5t-132 -26.5q-88 0 -157 34.5t-118 95.5zM369 376h-64v455h64v-455zM369 -116h-64v482h64v-482z" />
    <glyph glyph-name="cent" unicode="&#xa2;" horiz-adv-x="660" 
d="M507 128l53 -49q-34 -44 -85.5 -69.5t-116.5 -25.5q-75 0 -133.5 34t-92 93t-33.5 135t33.5 135t92.5 93t134 34q65 0 116 -25.5t85 -69.5l-53 -49q-24 36 -60 57.5t-88 21.5q-54 0 -95 -25t-64 -69.5t-23 -102.5t23 -102.5t64 -69.5t95 -25q52 0 88 21.5t60 57.5z
M387 -116h-64v724h64v-724z" />
    <glyph glyph-name="sterling" unicode="&#xa3;" horiz-adv-x="660" 
d="M612 0h-547v64h547v-64zM502 320h-427v64h427v-64zM612 611l-53 -49q-34 54 -71 79t-84 25q-70 0 -107.5 -47t-37.5 -126v-460h-74v458q0 72 26 126t75.5 84t117.5 30q67 0 119 -31t89 -89z" />
    <glyph glyph-name="yen" unicode="&#xa5;" horiz-adv-x="660" 
d="M367 0h-74v319l-265 396h88l229 -357h-27l229 357h85l-265 -398v-317zM539 114h-417v64h417v-64zM539 274h-417v64h417v-64z" />
    <glyph glyph-name="Euro" unicode="&#x20ac;" horiz-adv-x="660" 
d="M589 163l53 -49q-46 -61 -110 -95.5t-138 -34.5q-89 0 -158 47.5t-108 132t-39 193.5q0 111 39.5 195t109 131.5t158.5 47.5q74 0 138 -34.5t110 -95.5l-53 -49q-35 50 -85 80.5t-110 30.5q-103 0 -166 -80t-63 -226q0 -95 28.5 -163.5t80 -105t119.5 -36.5q59 0 109 31
t85 80zM461 247h-442v64h454zM491 407h-472v64h484z" />
    <glyph glyph-name="uni20BA" unicode="&#x20ba;" horiz-adv-x="660" 
d="M139 0v715h74v-650h77q129 0 196 66t67 207v15l74 -5v-10q0 -172 -86 -255t-251 -83h-151zM415 376l-387 -163v68l387 163v-68zM415 540l-387 -163v68l387 163v-68z" />
    <glyph glyph-name="uni20B9" unicode="&#x20b9;" horiz-adv-x="660" 
d="M52 647v48h244q71 0 123.5 -22.5t82 -63t29.5 -94.5q0 -60 -29.5 -105t-82 -70t-123.5 -25h-243v68h243q73 0 114.5 35t41.5 97t-41.5 97t-114.5 35h-244zM611 0h-129l-429 315l110 7zM587 481h-535v68h548zM617 647h-565v68h578z" />
    <glyph glyph-name="uni20BD" unicode="&#x20bd;" horiz-adv-x="660" 
d="M235 0h-74v715h235q71 0 123.5 -25t82 -70t29.5 -105t-29.5 -105t-82 -70t-123.5 -25h-361v64h361q74 0 117 36t43 100t-43 100t-117 36h-161v-651zM475 200v-64h-440v64h440z" />
    <glyph glyph-name="currency" unicode="&#xa4;" horiz-adv-x="632" 
d="M316 220q43 0 76.5 20.5t53 55.5t19.5 80t-19.5 80.5t-53 55.5t-76.5 20q-42 0 -76 -20t-53.5 -55.5t-19.5 -80.5t19.5 -80t53.5 -55.5t76 -20.5zM316 161q-37 0 -70 11.5t-60 31.5l-74 -74l-42 42l74 74q-19 27 -30.5 60t-11.5 70t11.5 70t30.5 60l-74 74l42 42l74 -74
q27 20 60 31.5t70 11.5t70 -11.5t60 -31.5l74 74l42 -42l-74 -74q20 -27 31 -60t11 -70t-11 -70t-31 -60l74 -74l-42 -42l-74 74q-27 -20 -60 -31.5t-70 -11.5z" />
    <glyph glyph-name="dong" unicode="&#x20ab;" horiz-adv-x="653" 
d="M297 132q-57 0 -102 27t-71.5 74t-26.5 108q0 60 26 107t70.5 74.5t101.5 27.5q65 0 110 -36.5t55 -96.5h-19v298h74v-570h-73v101l-1 3v83q0 68 -37.5 111.5t-96.5 43.5q-58 0 -95.5 -41.5t-37.5 -104.5q0 -64 38 -104.5t98 -40.5q54 0 94 32.5t44 84.5l16 -16
q5 -46 -15.5 -83.5t-59.5 -59.5t-92 -22zM108 1v61h407v-61h-407zM324 600v54h262v-54h-262z" />
    <glyph glyph-name="asciicircum" unicode="^" horiz-adv-x="660" 
d="M306 715h67l184 -361h-74zM287 715h63l-178 -361h-69z" />
    <glyph glyph-name="plus" unicode="+" horiz-adv-x="660" 
d="M535 326h-410v62h410v-62zM361 152h-62v410h62v-410z" />
    <glyph glyph-name="minus" unicode="&#x2212;" horiz-adv-x="660" 
d="M535 326h-410v62h410v-62z" />
    <glyph glyph-name="plusminus" unicode="&#xb1;" horiz-adv-x="660" 
d="M535 326h-410v62h410v-62zM361 152h-62v410h62v-410zM535 0h-410v62h410v-62z" />
    <glyph glyph-name="equal" unicode="=" horiz-adv-x="660" 
d="M525 224h-390v62h390v-62zM525 428h-390v62h390v-62z" />
    <glyph glyph-name="divide" unicode="&#xf7;" horiz-adv-x="660" 
d="M555 326h-450v62h450v-62zM330 458q-22 0 -38 15.5t-16 37.5q0 23 16 38.5t38 15.5q23 0 38.5 -15.5t15.5 -38.5q0 -22 -15.5 -37.5t-38.5 -15.5zM330 149q-22 0 -38 15.5t-16 37.5q0 23 16 38.5t38 15.5q23 0 38.5 -15.5t15.5 -38.5q0 -22 -15.5 -37.5t-38.5 -15.5z" />
    <glyph glyph-name="less" unicode="&#x3c;" horiz-adv-x="660" 
d="M124 383l412 -173v-72l-412 179v66zM124 403l412 178v-69l-412 -172v63z" />
    <glyph glyph-name="greater" unicode="&#x3e;" horiz-adv-x="660" 
d="M124 509v72l412 -179v-66zM124 138v69l412 172v-63z" />
    <glyph glyph-name="asciitilde" unicode="~" horiz-adv-x="660" 
d="M500 438l61 -22q-15 -76 -45.5 -110.5t-82.5 -34.5q-19 0 -47.5 12t-68.5 44q-29 23 -45.5 34.5t-26.5 15.5t-19 4q-28 0 -44 -27.5t-23 -77.5l-61 22q15 76 45.5 110.5t82.5 34.5q19 0 47.5 -12t68.5 -44q29 -23 45.5 -34.5t26.5 -15.5t19 -4q29 0 44.5 28t22.5 77z" />
    <glyph glyph-name="logicalnot" unicode="&#xac;" horiz-adv-x="660" 
d="M535 175h-62v151h-348v62h410v-213z" />
    <glyph glyph-name="multiply" unicode="&#xd7;" horiz-adv-x="660" 
d="M516 213l-42 -42l-330 330l42 42zM474 543l42 -42l-330 -330l-42 42z" />
    <glyph glyph-name="underscore" unicode="_" horiz-adv-x="500" 
d="M500 -128h-500v62h500v-62z" />
    <glyph glyph-name="section" unicode="&#xa7;" horiz-adv-x="596" 
d="M521 302q0 -46 -27.5 -82.5t-73.5 -57.5q37 -22 56 -53t19 -77q0 -43 -25 -79.5t-68.5 -58.5t-98.5 -22q-62 0 -119 24t-96 66l40 48q31 -34 76.5 -55t97.5 -21t87.5 28.5t35.5 66.5q0 49 -31.5 75t-92.5 42q-100 26 -150 62.5t-50 100.5q0 46 27.5 82t73.5 58
q-75 45 -75 120q0 47 24 83.5t65.5 57.5t93.5 21q57 0 109.5 -24t88.5 -65l-42 -48q-28 33 -66.5 54t-88.5 21q-49 0 -81.5 -26.5t-32.5 -70.5q0 -40 31.5 -65.5t92.5 -41.5q101 -26 150 -62t50 -101zM451 299q-1 38 -35.5 61t-99.5 41l-55 15q-36 -13 -63 -38.5t-27 -63.5
q0 -39 34.5 -62.5t100.5 -41.5l55 -15q36 13 63 39t27 65z" />
    <glyph glyph-name="paragraph" unicode="&#xb6;" horiz-adv-x="624" 
d="M340 -130h-70v430q-65 4 -114 31t-76.5 72.5t-27.5 103.5q0 63 31 109.5t87.5 72.5t130.5 26h228v-845h-70v782h-119v-782z" />
    <glyph glyph-name="numbersign" unicode="#" horiz-adv-x="660" 
d="M414 0h-64l152 715h64zM552 202h-509l11 55h509zM246 715h64l-152 -715h-64zM108 513h509l-11 -55h-509z" />
    <glyph glyph-name="bar" unicode="|" horiz-adv-x="214" 
d="M144 -129h-74v865h74v-865z" />
    <glyph glyph-name="dagger" unicode="&#x2020;" horiz-adv-x="476" 
d="M277 -129h-74v865h74v-865zM423 430h-370v62h370v-62z" />
    <glyph glyph-name="daggerdbl" unicode="&#x2021;" horiz-adv-x="476" 
d="M277 -129h-74v865h74v-865zM423 430h-370v62h370v-62zM53 177h370v-62h-370v62z" />
    <glyph glyph-name="degree" unicode="&#xb0;" horiz-adv-x="448" 
d="M224 391q-46 0 -84.5 23t-61.5 62t-23 85q0 47 23 85.5t61.5 61.5t84.5 23q47 0 85 -23t61 -61.5t23 -85.5q0 -46 -23 -85t-61 -62t-85 -23zM224 452q44 0 74 31.5t30 77.5t-30 77.5t-74 31.5q-43 0 -73.5 -31.5t-30.5 -77.5t30.5 -77.5t73.5 -31.5z" />
    <glyph glyph-name="arrowup" unicode="&#x2191;" horiz-adv-x="752" 
d="M413 643v-643h-74v643h74zM100 374v101l276 256l276 -256v-101l-276 257z" />
    <glyph glyph-name="arrowdown" unicode="&#x2193;" horiz-adv-x="752" 
d="M413 715v-643h-74v643h74zM100 240v101l276 -257l276 257v-101l-276 -256z" />
    <glyph glyph-name="arrowleft" unicode="&#x2190;" horiz-adv-x="931" 
d="M460 0h-104l-256 246l256 246h104l-252 -246zM831 210h-638v72h638v-72z" />
    <glyph glyph-name="arrowright" unicode="&#x2192;" horiz-adv-x="931" 
d="M575 0h-104l252 246l-252 246h104l256 -246zM738 210h-638v72h638v-72z" />
    <glyph glyph-name="triagup" unicode="&#x25b2;" horiz-adv-x="752" 
d="M100 66v102l276 256l276 -256v-102l-276 252z" />
    <glyph glyph-name="triagdn" unicode="&#x25bc;" horiz-adv-x="752" 
d="M100 322v102l276 -252l276 252v-102l-276 -256z" />
    <glyph glyph-name="uni25C0" unicode="&#x25c0;" horiz-adv-x="562" 
d="M462 0h-106l-256 246l256 246h106l-252 -246z" />
    <glyph glyph-name="uni25B6" unicode="&#x25b6;" horiz-adv-x="562" 
d="M206 0h-106l252 246l-252 246h106l256 -246z" />
    <glyph glyph-name="hyphen" unicode="-" horiz-adv-x="334" 
d="M301 249h-268v67h268v-67z" />
    <glyph glyph-name="uni2010" unicode="&#x2010;" horiz-adv-x="334" 
d="M301 249h-268v67h268v-67z" />
    <glyph glyph-name="uni2011" unicode="&#x2011;" horiz-adv-x="334" 
d="M301 249h-268v67h268v-67z" />
    <glyph glyph-name="endash" unicode="&#x2013;" horiz-adv-x="500" 
d="M500 246h-500v62h500v-62z" />
    <glyph glyph-name="emdash" unicode="&#x2014;" horiz-adv-x="1000" 
d="M1000 246h-1000v62h1000v-62z" />
    <glyph glyph-name="parenleft" unicode="(" horiz-adv-x="316" 
d="M62 301q0 120 37.5 229.5t107.5 200.5h71q-72 -103 -108 -210t-36 -220q0 -223 144 -430h-71q-70 91 -107.5 200.5t-37.5 229.5z" />
    <glyph glyph-name="parenright" unicode=")" horiz-adv-x="316" 
d="M254 301q0 -120 -37 -229.5t-108 -200.5h-71q144 207 144 430q0 113 -36 220t-108 210h71q71 -91 108 -200.5t37 -229.5z" />
    <glyph glyph-name="slash" unicode="/" horiz-adv-x="484" 
d="M131 0h-70l292 731h70z" />
    <glyph glyph-name="backslash" unicode="\" horiz-adv-x="484" 
d="M423 0h-70l-292 731h70z" />
    <glyph glyph-name="bracketleft" unicode="[" horiz-adv-x="313" 
d="M268 -129h-198v860h198v-62h-124v-736h124v-62z" />
    <glyph glyph-name="bracketright" unicode="]" horiz-adv-x="313" 
d="M243 -129h-198v62h124v736h-124v62h198v-860z" />
    <glyph glyph-name="braceleft" unicode="{" horiz-adv-x="389" 
d="M344 -67v-62h-79q-119 0 -119 119v220q0 32 -14.5 46.5t-46.5 14.5h-40v62h40q32 0 46.5 15t14.5 46v218q0 119 119 119h79v-62h-63q-32 0 -46.5 -14.5t-14.5 -46.5v-198q0 -119 -119 -119v22q119 0 119 -119v-200q0 -31 14.5 -46t46.5 -15h63z" />
    <glyph glyph-name="braceright" unicode="}" horiz-adv-x="389" 
d="M45 -129v62h63q32 0 46.5 15t14.5 46v200q0 119 119 119v-22q-119 0 -119 119v198q0 32 -14.5 46.5t-46.5 14.5h-63v62h79q119 0 119 -119v-218q0 -31 14.5 -46t46.5 -15h40v-62h-40q-32 0 -46.5 -14.5t-14.5 -46.5v-220q0 -119 -119 -119h-79z" />
    <glyph glyph-name="bullet" unicode="&#x2022;" horiz-adv-x="354" 
d="M59 274q0 33 16 59.5t43 42.5t59 16q33 0 59.5 -16t42.5 -42.5t16 -59.5q0 -32 -16 -59t-42.5 -43t-59.5 -16q-32 0 -59 16t-43 43t-16 59z" />
    <glyph glyph-name="guilsinglleft" unicode="&#x2039;" horiz-adv-x="318" 
d="M183 34l-143 212l143 212h83l-143 -212l143 -212h-83z" />
    <glyph glyph-name="guilsinglright" unicode="&#x203a;" horiz-adv-x="318" 
d="M135 458l143 -212l-143 -212h-83l143 212l-143 212h83z" />
    <glyph glyph-name="guillemotleft" unicode="&#xab;" horiz-adv-x="502" 
d="M183 34l-143 212l143 212h83l-143 -212l143 -212h-83zM367 34l-143 212l143 212h83l-143 -212l143 -212h-83z" />
    <glyph glyph-name="guillemotright" unicode="&#xbb;" horiz-adv-x="502" 
d="M135 458l143 -212l-143 -212h-83l143 212l-143 212h83zM319 458l143 -212l-143 -212h-83l143 212l-143 212h83z" />
    <glyph glyph-name="at" unicode="@" horiz-adv-x="1057" 
d="M508 43q-60 0 -108 28.5t-76.5 78t-28.5 110.5q0 63 28.5 112.5t77 77.5t107.5 28q55 0 96 -24t64 -64.5t23 -90.5q0 -12 -2 -25t-6 -29l-17 20q0 43 -19.5 77.5t-53.5 55.5t-78 21q-42 0 -76 -21t-54 -56.5t-20 -81.5q0 -45 19 -80.5t53 -56.5t78 -21t82 20.5t62 56
t24 79.5l14 -26q10 -51 -14 -94t-70.5 -69t-104.5 -26zM780 -36l51 -46q-27 -32 -71 -57.5t-101 -40t-123 -14.5q-99 0 -183.5 34.5t-147.5 96.5t-98.5 145t-35.5 180q0 100 35.5 185.5t99.5 149t149.5 99t185.5 35.5q96 0 177.5 -33t142 -93.5t93.5 -142t33 -177.5
q0 -112 -47.5 -177t-131.5 -65q-61 0 -101.5 40t-40.5 104v143l1 9v125h65v-261q0 -52 22.5 -74.5t57.5 -22.5q50 0 77.5 46t27.5 129q0 114 -47.5 201.5t-132 137t-195.5 49.5q-87 0 -160 -30.5t-127 -85.5t-84 -129t-30 -162q0 -83 30.5 -155t84.5 -125.5t126 -83.5
t155 -30t149 27.5t94 68.5z" />
    <glyph glyph-name="periodcentered" unicode="&#xb7;" horiz-adv-x="222" 
d="M167 282q0 -23 -16.5 -39.5t-39.5 -16.5t-39.5 16.5t-16.5 39.5t16.5 39.5t39.5 16.5t39.5 -16.5t16.5 -39.5z" />
    <glyph glyph-name="ampersand" unicode="&#x26;" horiz-adv-x="677" 
d="M648 303l-131 -179q-63 -79 -121 -109.5t-127 -30.5t-119.5 26.5t-77.5 71t-27 98.5q0 80 53 137.5t157 91.5l24 -52q-79 -29 -116.5 -71.5t-37.5 -98.5q0 -58 40 -98t107 -40q34 0 65 11t62.5 37.5t65.5 72.5l128 174zM669 43l-50 -51l-374 358l-12 11q-46 45 -72 78.5
t-36.5 63t-10.5 61.5q0 45 24.5 83t66.5 61t95 23t95 -23t66 -60.5t24 -83.5q0 -50 -25.5 -89t-69 -67.5t-96.5 -48.5l-30 51q65 23 105.5 57t40.5 90q0 47 -31 78t-79 31q-45 0 -77 -31.5t-32 -77.5q0 -25 11 -50t34 -52t60 -58l16 -14z" />
    <glyph glyph-name="asterisk" unicode="*" horiz-adv-x="412" 
d="M206 505q-19 -47 -34 -74.5t-23 -38.5q-14 -20 -34 -20q-15 0 -27 11.5t-12 25.5q0 13 11 29q8 11 28 33t59 55q-51 5 -77.5 11t-39.5 10q-31 9 -31 37q0 17 10.5 28t26.5 11q12 0 24 -5q14 -5 36.5 -16.5t62.5 -37.5q-11 50 -15 80t-4 44q0 20 10.5 31.5t28.5 11.5
t28.5 -11.5t10.5 -31.5q0 -14 -4 -44t-15 -80q40 26 62.5 37.5t36.5 16.5q13 5 24 5q17 0 27 -11t10 -28q0 -28 -31 -37q-13 -4 -39.5 -10t-77.5 -11q39 -33 59.5 -55t27.5 -33q11 -16 11 -29q0 -14 -12 -25.5t-27 -11.5q-20 0 -34 20q-8 11 -22.5 38.5t-34.5 74.5z" />
    <glyph glyph-name="hyphen.case" horiz-adv-x="334" 
d="M301 324h-268v67h268v-67z" />
    <glyph glyph-name="uni2010.case" horiz-adv-x="334" 
d="M301 324h-268v67h268v-67z" />
    <glyph glyph-name="uni2011.case" horiz-adv-x="334" 
d="M301 324h-268v67h268v-67z" />
    <glyph glyph-name="endash.case" horiz-adv-x="500" 
d="M500 326h-500v62h500v-62z" />
    <glyph glyph-name="emdash.case" horiz-adv-x="1000" 
d="M1000 326h-1000v62h1000v-62z" />
    <glyph glyph-name="parenleft.case" horiz-adv-x="316" 
d="M62 357q0 120 37.5 229.5t107.5 200.5h71q-72 -103 -108 -210t-36 -220q0 -223 144 -430h-71q-70 91 -107.5 200.5t-37.5 229.5z" />
    <glyph glyph-name="parenright.case" horiz-adv-x="316" 
d="M254 357q0 -120 -37 -229.5t-108 -200.5h-71q144 207 144 430q0 113 -36 220t-108 210h71q71 -91 108 -200.5t37 -229.5z" />
    <glyph glyph-name="slash.case" horiz-adv-x="484" 
d="M131 0h-70l292 731h70z" />
    <glyph glyph-name="backslash.case" horiz-adv-x="484" 
d="M423 0h-70l-292 731h70z" />
    <glyph glyph-name="bracketleft.case" horiz-adv-x="313" 
d="M268 -73h-198v860h198v-62h-124v-736h124v-62z" />
    <glyph glyph-name="bracketright.case" horiz-adv-x="313" 
d="M243 -73h-198v62h124v736h-124v62h198v-860z" />
    <glyph glyph-name="braceleft.case" horiz-adv-x="389" 
d="M344 -11v-62h-79q-119 0 -119 119v220q0 32 -14.5 46.5t-46.5 14.5h-40v62h40q32 0 46.5 15t14.5 46v218q0 119 119 119h79v-62h-63q-32 0 -46.5 -14.5t-14.5 -46.5v-198q0 -119 -119 -119v22q119 0 119 -119v-200q0 -31 14.5 -46t46.5 -15h63z" />
    <glyph glyph-name="braceright.case" horiz-adv-x="389" 
d="M45 -73v62h63q32 0 46.5 15t14.5 46v200q0 119 119 119v-22q-119 0 -119 119v198q0 32 -14.5 46.5t-46.5 14.5h-63v62h79q119 0 119 -119v-218q0 -31 14.5 -46t46.5 -15h40v-62h-40q-32 0 -46.5 -14.5t-14.5 -46.5v-220q0 -119 -119 -119h-79z" />
    <glyph glyph-name="bullet.case" horiz-adv-x="354" 
d="M59 357q0 33 16 59.5t43 42.5t59 16q33 0 59.5 -16t42.5 -42.5t16 -59.5q0 -32 -16 -59t-42.5 -43t-59.5 -16q-32 0 -59 16t-43 43t-16 59z" />
    <glyph glyph-name="guilsinglleft.case" horiz-adv-x="318" 
d="M183 145l-143 212l143 212h83l-143 -212l143 -212h-83z" />
    <glyph glyph-name="guilsinglright.case" horiz-adv-x="318" 
d="M135 569l143 -212l-143 -212h-83l143 212l-143 212h83z" />
    <glyph glyph-name="guillemotleft.case" horiz-adv-x="502" 
d="M183 145l-143 212l143 212h83l-143 -212l143 -212h-83zM367 145l-143 212l143 212h83l-143 -212l143 -212h-83z" />
    <glyph glyph-name="guillemotright.case" horiz-adv-x="502" 
d="M135 569l143 -212l-143 -212h-83l143 212l-143 212h83zM319 569l143 -212l-143 -212h-83l143 212l-143 212h83z" />
    <glyph glyph-name="at.case" horiz-adv-x="1057" 
d="M508 132q-60 0 -108 28.5t-76.5 78t-28.5 110.5q0 63 28.5 112.5t77 77.5t107.5 28q55 0 96 -24t64 -64.5t23 -90.5q0 -12 -2 -25t-6 -29l-17 20q0 43 -19.5 77.5t-53.5 55.5t-78 21q-42 0 -76 -21t-54 -56.5t-20 -81.5q0 -45 19 -80.5t53 -56.5t78 -21t82 20.5t62 56
t24 79.5l14 -26q10 -51 -14 -94t-70.5 -69t-104.5 -26zM780 53l51 -46q-27 -32 -71 -57.5t-101 -40t-123 -14.5q-99 0 -183.5 34.5t-147.5 96.5t-98.5 145t-35.5 180q0 100 35.5 185.5t99.5 149t149.5 99t185.5 35.5q96 0 177.5 -33t142 -93.5t93.5 -142t33 -177.5
q0 -112 -47.5 -177t-131.5 -65q-61 0 -101.5 40t-40.5 104v143l1 9v125h65v-261q0 -52 22.5 -74.5t57.5 -22.5q50 0 77.5 46t27.5 129q0 114 -47.5 201.5t-132 137t-195.5 49.5q-87 0 -160 -30.5t-127 -85.5t-84 -129t-30 -162q0 -83 30.5 -155t84.5 -125.5t126 -83.5
t155 -30t149 27.5t94 68.5z" />
    <glyph glyph-name="periodcentered.case" horiz-adv-x="222" 
d="M167 357q0 -23 -16.5 -39.5t-39.5 -16.5t-39.5 16.5t-16.5 39.5t16.5 39.5t39.5 16.5t39.5 -16.5t16.5 -39.5z" />
    <glyph glyph-name="uni00AD" unicode="&#xad;" horiz-adv-x="334" 
d="M301 249h-268v67h268v-67z" />
    <glyph glyph-name="figuredash" unicode="&#x2012;" horiz-adv-x="660" 
d="M580 326h-500v62h500v-62z" />
    <glyph glyph-name="uni2015" unicode="&#x2015;" horiz-adv-x="1000" 
d="M1000 246h-1000v62h1000v-62z" />
    <glyph glyph-name="A" unicode="A" horiz-adv-x="727" 
d="M555 200h-389v68h389v-68zM691 0h-81l-265 669h34l-265 -669h-78l286 715h83z" />
    <glyph glyph-name="B" unicode="B" horiz-adv-x="666" 
d="M85 0v715h268q69 0 120 -23.5t79 -66t28 -99.5q0 -52 -28 -92t-79 -62.5t-120 -22.5h-181v48h204q71 0 124 -24t82.5 -68t29.5 -104t-29.5 -105.5t-82.5 -70.5t-124 -25h-291zM162 68h214q73 0 115 35t42 98t-42 98t-115 35h-224v68h201q69 0 109 33t40 91q0 56 -40 88.5
t-109 32.5h-191v-579z" />
    <glyph glyph-name="C" unicode="C" horiz-adv-x="739" 
d="M642 173l56 -53q-46 -63 -120.5 -99.5t-163.5 -36.5q-77 0 -142.5 28t-114 78.5t-75.5 118.5t-27 148t27.5 148.5t76.5 119t114.5 78.5t142.5 28q89 0 162.5 -36.5t119.5 -99.5l-56 -53q-37 55 -94 87t-132 32q-80 0 -143.5 -39.5t-100.5 -108t-37 -156.5
q0 -87 37 -155.5t100.5 -108t143.5 -39.5q75 0 132 32t94 87z" />
    <glyph glyph-name="D" unicode="D" horiz-adv-x="741" 
d="M85 0v715h231q110 0 193.5 -46t130.5 -126.5t47 -184.5t-47 -185t-130.5 -127t-193.5 -46h-231zM162 70h154q89 0 154.5 36t101 101t35.5 151t-35.5 150.5t-101 100.5t-154.5 36h-154v-575z" />
    <glyph glyph-name="E" unicode="E" horiz-adv-x="603" 
d="M558 0h-473v715h473v-68h-396v-579h396v-68zM539 332h-387v68h387v-68z" />
    <glyph glyph-name="F" unicode="F" horiz-adv-x="578" 
d="M162 0h-77v715h453v-68h-376v-647zM519 332h-367v68h367v-68z" />
    <glyph glyph-name="G" unicode="G" horiz-adv-x="797" 
d="M736 0h-74v106l12 -4q-37 -55 -102.5 -86.5t-145.5 -31.5t-147.5 28t-118 78.5t-78 119t-27.5 148.5t27.5 148t77.5 118.5t117 78.5t146 28q92 0 166 -36.5t122 -99.5l-56 -53q-38 55 -95.5 87t-136.5 32q-83 0 -148.5 -39.5t-102.5 -108t-37 -155.5t37.5 -156
t103.5 -108.5t151 -39.5t150 37.5t93 98.5l-9 -38v152h-242v68h317v-372z" />
    <glyph glyph-name="H" unicode="H" horiz-adv-x="742" 
d="M580 0v715h77v-715h-77zM162 0h-77v715h77v-715zM152 337v69h438v-69h-438z" />
    <glyph glyph-name="I" unicode="I" horiz-adv-x="247" 
d="M162 0h-77v715h77v-715z" />
    <glyph glyph-name="J" unicode="J" horiz-adv-x="645" 
d="M569 715v-443q0 -137 -69 -212.5t-197 -75.5q-76 0 -132 27.5t-89 80t-42 127.5l76 9q10 -85 57.5 -129.5t129.5 -44.5q92 0 140.5 56t48.5 162v443h77z" />
    <glyph glyph-name="K" unicode="K" horiz-adv-x="687" 
d="M162 0h-77v715h77v-715zM669 0h-118l-413 371h14l371 344h104l-394 -357v26z" />
    <glyph glyph-name="L" unicode="L" horiz-adv-x="564" 
d="M528 0h-443v715h77v-646h366v-69z" />
    <glyph glyph-name="M" unicode="M" horiz-adv-x="900" 
d="M478 60h-58l-288 602h26v-662h-75v715h101l290 -608h-48l290 608h99v-715h-75v662h26z" />
    <glyph glyph-name="N" unicode="N" horiz-adv-x="738" 
d="M157 0h-74v715h84l430 -631h-16v631h74v-715h-84l-430 631h16v-631z" />
    <glyph glyph-name="O" unicode="O" horiz-adv-x="852" 
d="M426 -16q-80 0 -147.5 28t-118 78.5t-78 119t-27.5 148.5t27.5 148t78 118.5t118 78.5t147.5 28t147.5 -28t118 -78.5t78 -118.5t27.5 -148t-27.5 -148.5t-78 -119t-118 -78.5t-147.5 -28zM426 54q86 0 151.5 39t102.5 108t37 157t-37 156.5t-102.5 107.5t-151.5 39
q-85 0 -151 -39t-103 -107.5t-37 -156.5t37 -157t103 -108t151 -39z" />
    <glyph glyph-name="P" unicode="P" horiz-adv-x="644" 
d="M162 0h-77v715h277q71 0 123.5 -25t82 -70t29.5 -105t-29.5 -105t-82 -70t-123.5 -25h-210v68h210q73 0 114.5 35t41.5 97t-41.5 97t-114.5 35h-200v-647z" />
    <glyph glyph-name="Q" unicode="Q" horiz-adv-x="852" 
d="M724 -36l-244 254l48 47l244 -254zM426 -16q-80 0 -147.5 28t-118 78.5t-78 119t-27.5 148.5t27.5 148t78 118.5t118 78.5t147.5 28t147.5 -28t118 -78.5t78 -118.5t27.5 -148t-27.5 -148.5t-78 -119t-118 -78.5t-147.5 -28zM426 54q87 0 152.5 38.5t102 107t36.5 158.5
q0 88 -37 156.5t-102.5 107.5t-151.5 39q-85 0 -151 -39t-103 -107.5t-37 -156.5t37 -157t103 -108t151 -39z" />
    <glyph glyph-name="R" unicode="R" horiz-adv-x="687" 
d="M162 0h-77v715h277q71 0 123.5 -25t82 -70t29.5 -105t-29.5 -105t-82 -70t-123.5 -25h-210v68h210q73 0 114.5 35t41.5 97t-41.5 97t-114.5 35h-200v-647zM667 0h-99l-275 333h90z" />
    <glyph glyph-name="S" unicode="S" horiz-adv-x="679" 
d="M38 116l57 54q31 -36 69 -62t82.5 -40t96.5 -14q58 0 103 18t71 50.5t26 76.5q0 56 -47 87.5t-160 48.5q-98 15 -156.5 39.5t-84.5 61.5t-26 89q0 61 34 107.5t94 72.5t138 26q89 0 157.5 -35t121.5 -97l-56 -53q-43 53 -94.5 84t-128.5 31q-82 0 -134 -36.5t-52 -98.5
q0 -32 19 -54.5t62 -37.5t114 -26q102 -15 163 -41.5t88.5 -67.5t27.5 -99q0 -64 -35.5 -112.5t-98.5 -76t-146 -27.5q-96 0 -171.5 35t-133.5 97z" />
    <glyph glyph-name="T" unicode="T" horiz-adv-x="625" 
d="M351 0h-77v656h77v-656zM589 646h-553v69h553v-69z" />
    <glyph glyph-name="U" unicode="U" horiz-adv-x="722" 
d="M647 715v-433q0 -141 -76 -219.5t-210 -78.5q-133 0 -209.5 78.5t-76.5 219.5v433h77v-433q0 -111 55 -169.5t154 -58.5q100 0 155 58.5t55 169.5v433h76z" />
    <glyph glyph-name="V" unicode="V" horiz-adv-x="711" 
d="M397 0h-83l-278 715h83l254 -673h-32l255 673h79z" />
    <glyph glyph-name="W" unicode="W" horiz-adv-x="1052" 
d="M793 0h-93l-178 625h8l-178 -625h-93l-219 715h83l200 -675h-33l193 675h87l193 -675h-30l200 675h79z" />
    <glyph glyph-name="X" unicode="X" horiz-adv-x="668" 
d="M111 0h-91l274 392l1 -42l-251 365h90l214 -320h-27l214 320h88l-250 -365l1 42l274 -392h-92l-236 345h28z" />
    <glyph glyph-name="Y" unicode="Y" horiz-adv-x="647" 
d="M362 0h-77v315l-265 400h89l229 -357h-26l229 357h86l-265 -402v-313z" />
    <glyph glyph-name="Z" unicode="Z" horiz-adv-x="609" 
d="M566 0h-522v69l420 577h-407v69h497v-69l-420 -577h432v-69z" />
    <glyph glyph-name="a" unicode="a" horiz-adv-x="550" 
d="M487 0h-71v96l-1 28v184q0 62 -40 99t-108 37q-49 0 -88.5 -21t-69.5 -57l-52 50q41 44 92.5 68t117.5 24t115.5 -24.5t77 -68.5t27.5 -104v-311zM228 -16q-56 0 -98.5 20.5t-66 55.5t-23.5 80q0 52 29 88.5t79.5 55.5t114.5 19h162v-60h-152q-67 0 -111.5 -24.5
t-44.5 -76.5q0 -44 33 -70t87 -26q52 0 94 20.5t67.5 57.5t28.5 85l30 -17q0 -60 -29.5 -107t-81.5 -74t-118 -27z" />
    <glyph glyph-name="b" unicode="b" horiz-adv-x="633" 
d="M143 0h-73v720h74v-377h-19q9 49 39.5 86t76 58t98.5 21q72 0 128 -34.5t87.5 -93.5t31.5 -134q0 -76 -32.5 -135t-90 -93t-131.5 -34q-67 0 -117.5 27.5t-76 75t-18.5 106.5l14 20q4 -47 30 -84.5t68 -58.5t92 -21q55 0 96 25.5t64.5 70t23.5 101.5t-22.5 101.5
t-62.5 70t-93 25.5q-54 0 -96 -27t-66 -74.5t-24 -110.5v-96l-1 -1v-134z" />
    <glyph glyph-name="c" unicode="c" horiz-adv-x="545" 
d="M455 128l53 -49q-34 -44 -85.5 -69.5t-116.5 -25.5q-75 0 -133.5 34t-92 93t-33.5 135t33.5 135t92.5 93t134 34q65 0 116 -25.5t85 -69.5l-53 -49q-24 36 -60 57.5t-88 21.5q-54 0 -95 -25t-64 -69.5t-23 -102.5t23 -102.5t64 -69.5t95 -25q52 0 88 21.5t60 57.5z" />
    <glyph glyph-name="d" unicode="d" horiz-adv-x="633" 
d="M563 0h-73v134l-1 1v96q0 63 -23 110.5t-64.5 74.5t-95.5 27q-53 0 -94 -25.5t-64 -70t-23 -101.5t23.5 -101.5t65 -70t95.5 -25.5q51 0 92.5 21t67.5 58.5t30 84.5l14 -20q8 -59 -18 -106.5t-76.5 -75t-117.5 -27.5q-74 0 -131.5 34t-90 93t-32.5 135q0 75 32.5 134
t89 93.5t128.5 34.5q54 0 98.5 -20.5t74.5 -57.5t38 -87h-19v377h74v-720z" />
    <glyph glyph-name="e" unicode="e" horiz-adv-x="601" 
d="M486 140l52 -49q-39 -50 -94 -78.5t-126 -28.5q-78 0 -139.5 34t-96.5 93t-35 135t33.5 135t92.5 93t134 34q72 0 127.5 -33.5t87.5 -91.5t32 -134v-6h-76v6q0 58 -22.5 101.5t-61 68t-87.5 24.5q-54 0 -95 -25t-64 -69t-23 -102t25 -103t68.5 -70t100.5 -25
q104 0 167 91zM554 220h-445v61h429l16 -32v-29z" />
    <glyph glyph-name="f" unicode="f" horiz-adv-x="380" 
d="M206 0h-74v601q0 119 119 119h99v-62h-83q-32 0 -46.5 -14.5t-14.5 -46.5v-597zM350 429h-320v63h320v-63z" />
    <glyph glyph-name="g" unicode="g" horiz-adv-x="633" 
d="M563 42q0 -73 -33.5 -130t-91 -89.5t-131.5 -32.5q-70 0 -126.5 25.5t-93.5 69.5l52 50q27 -37 68 -58.5t100 -21.5q54 0 95 24t64 66t23 97v189q0 70 -26 117t-67.5 71t-89.5 24q-53 0 -94 -25.5t-64 -69t-23 -98.5q0 -56 23 -99t64.5 -67.5t96.5 -24.5q50 0 91.5 21
t68 58t30.5 85l15 -20q8 -61 -19 -108t-78 -74t-116 -27q-73 0 -130.5 32.5t-90.5 90.5t-33 133t33.5 133t90 91.5t126.5 33.5q49 0 93.5 -18t76 -54.5t41.5 -92.5h-18v149h73v-450z" />
    <glyph glyph-name="h" unicode="h" horiz-adv-x="584" 
d="M521 0h-74v284q0 79 -36 119t-97 40q-44 0 -83 -23t-63 -72t-24 -127v-221h-74v720h74v-377h-13q12 61 41 97t69.5 52t85.5 16q90 0 142 -55.5t52 -160.5v-292z" />
    <glyph glyph-name="i" unicode="i" horiz-adv-x="214" 
d="M144 0h-74v492h74v-492zM107 624q-22 0 -38 15.5t-16 37.5q0 23 16 38.5t38 15.5q23 0 38.5 -15.5t15.5 -38.5q0 -22 -15.5 -37.5t-38.5 -15.5z" />
    <glyph glyph-name="j" unicode="j" horiz-adv-x="214" 
d="M-24 -194v64h33q32 0 46.5 15t14.5 46v561h74v-567q0 -119 -119 -119h-49zM107 624q-22 0 -38 15.5t-16 37.5q0 23 16 38.5t38 15.5q23 0 38.5 -15.5t15.5 -38.5q0 -22 -15.5 -37.5t-38.5 -15.5z" />
    <glyph glyph-name="k" unicode="k" horiz-adv-x="547" 
d="M144 0h-74v720h74v-720zM533 0h-110l-305 255h10l275 237h102l-292 -246v18z" />
    <glyph glyph-name="l" unicode="l" horiz-adv-x="214" 
d="M144 0h-74v720h74v-720z" />
    <glyph glyph-name="m" unicode="m" horiz-adv-x="921" 
d="M858 0h-74v284q0 79 -33.5 119t-89.5 40q-41 0 -78 -23t-59.5 -72t-22.5 -127v-221h-74v284q0 79 -33.5 119t-89.5 40q-41 0 -78 -23t-59.5 -72t-22.5 -127v-221h-74v492h73v-126l-8 1q14 52 42 82.5t64.5 44.5t75.5 14q69 0 113.5 -38.5t57.5 -111.5l-13 -1
q14 54 43.5 87.5t69 48.5t81.5 15q89 0 139 -55.5t50 -160.5v-292z" />
    <glyph glyph-name="n" unicode="n" horiz-adv-x="584" 
d="M521 0h-74v284q0 79 -36 119t-97 40q-44 0 -83 -23t-63 -72t-24 -127v-221h-74v492h73v-149h-13q12 61 41.5 97t70 52t85.5 16q90 0 142 -55.5t52 -160.5v-292z" />
    <glyph glyph-name="o" unicode="o" horiz-adv-x="614" 
d="M307 -16q-75 0 -134 34t-92.5 93t-33.5 135t33.5 135t92.5 93t134 34q76 0 134.5 -34t92 -93t33.5 -135t-33.5 -135t-92 -93t-134.5 -34zM307 49q54 0 95 25t64 69.5t23 102.5t-23 102.5t-64 69.5t-95 25t-95 -25t-64 -69.5t-23 -102.5t23 -102.5t64 -69.5t95 -25z" />
    <glyph glyph-name="p" unicode="p" horiz-adv-x="633" 
d="M144 -194h-74v686h73v-149h-18q9 49 39.5 86t76 58t98.5 21q72 0 128 -34.5t87.5 -93.5t31.5 -134q0 -76 -32.5 -135t-90 -93t-131.5 -34q-67 0 -117.5 27.5t-76 75t-18.5 106.5l14 20q4 -47 30 -84.5t68 -58.5t92 -21q55 0 96 25.5t64.5 70t23.5 101.5t-22.5 101.5
t-62.5 70t-93 25.5q-54 0 -96 -27t-66 -74.5t-24 -110.5v-425z" />
    <glyph glyph-name="q" unicode="q" horiz-adv-x="633" 
d="M563 -194h-74v425q0 63 -23 110.5t-64.5 74.5t-95.5 27q-53 0 -94 -25.5t-64 -70t-23 -101.5t23.5 -101.5t65 -70t95.5 -25.5q51 0 92.5 21t67.5 58.5t30 84.5l14 -20q8 -59 -18 -106.5t-76.5 -75t-117.5 -27.5q-74 0 -131.5 34t-90 93t-32.5 135q0 75 32.5 134t89 93.5
t128.5 34.5q54 0 98.5 -20.5t74.5 -57.5t38 -87h-18v149h73v-686z" />
    <glyph glyph-name="r" unicode="r" horiz-adv-x="364" 
d="M334 500v-72h-20q-44 0 -83 -23t-63 -72t-24 -127v-206h-74v492h73v-156h-13q12 60 42 96t69.5 52t81.5 16h11z" />
    <glyph glyph-name="s" unicode="s" horiz-adv-x="514" 
d="M28 76l52 50q35 -37 79 -58t99 -21q60 0 98.5 25.5t38.5 65.5q0 35 -32.5 54.5t-109.5 30.5q-112 16 -157.5 48.5t-45.5 87.5q0 45 26 78.5t72 52t105 18.5q66 0 118 -24t92 -68l-52 -50q-30 37 -69 58t-89 21q-55 0 -91 -23t-36 -61q0 -28 30.5 -44.5t103.5 -26.5
q116 -16 163.5 -51.5t47.5 -98.5q0 -46 -27.5 -81.5t-75.5 -55t-110 -19.5q-72 0 -128.5 24.5t-101.5 67.5z" />
    <glyph glyph-name="t" unicode="t" horiz-adv-x="392" 
d="M357 0h-116q-52 0 -80.5 28.5t-28.5 80.5v527h74v-521q0 -24 13 -37.5t38 -13.5h100v-64zM350 429h-320v63h320v-63z" />
    <glyph glyph-name="u" unicode="u" horiz-adv-x="582" 
d="M512 0h-73v96l-1 28v368h74v-492zM448 213l15 -21q5 -60 -21 -107t-73.5 -74t-109.5 -27q-89 0 -142.5 53t-53.5 153v302h74v-294q0 -73 35.5 -111t99.5 -38q45 0 83.5 20.5t63.5 57.5t29 86z" />
    <glyph glyph-name="v" unicode="v" horiz-adv-x="537" 
d="M305 0h-73l-212 492h80l186 -453h-32l187 453h76z" />
    <glyph glyph-name="w" unicode="w" horiz-adv-x="772" 
d="M594 0h-86l-130 430h16l-130 -430h-86l-158 492h77l140 -464h-29l141 464h78l140 -464h-29l140 464h74z" />
    <glyph glyph-name="x" unicode="x" horiz-adv-x="508" 
d="M99 0h-87l194 255l-176 237h86l138 -194l138 194h85l-175 -237l194 -255h-88l-154 209z" />
    <glyph glyph-name="y" unicode="y" horiz-adv-x="537" 
d="M441 492h76l-250 -581q-21 -49 -52 -77t-94 -28h-49v64h49q32 0 52.5 16t33.5 47l26 65l-213 494h80l186 -453h-32z" />
    <glyph glyph-name="z" unicode="z" horiz-adv-x="488" 
d="M450 0h-410v62l311 368h-301v62h390v-62l-311 -368h321v-62z" />
    <glyph glyph-name="trademark" unicode="&#x2122;" horiz-adv-x="883" 
d="M227 316h-60v352h60v-352zM359 663h-324v52h324v-52zM654 355h-44l-163 329l28 1v-369h-59v399h74l157 -321h-29l158 321h72v-399h-59v369l28 -1z" />
    <glyph glyph-name="ordfeminine" unicode="&#xaa;" horiz-adv-x="458" 
d="M395 316h-63v76l-1 20v145q0 47 -30.5 74.5t-82.5 27.5q-37 0 -67.5 -15.5t-53.5 -43.5l-44 44q32 33 73.5 52t92.5 19q79 0 127.5 -42.5t48.5 -113.5v-243zM188 304q-66 0 -107 35t-41 88q0 61 49.5 94.5t127.5 33.5h122v-51h-114q-50 0 -83 -18.5t-33 -56.5
q0 -33 25 -52t65 -19q58 0 97.5 34t43.5 88l24 -14q0 -47 -23 -83.5t-62.5 -57.5t-90.5 -21z" />
    <glyph glyph-name="ordmasculine" unicode="&#xba;" horiz-adv-x="506" 
d="M253 305q-60 0 -106.5 26t-73 72.5t-26.5 106.5t26.5 106t73 72.5t106.5 26.5t106.5 -26.5t73 -72.5t26.5 -106t-26.5 -106.5t-73 -72.5t-106.5 -26zM253 362q60 0 98 41.5t38 106.5t-38 106.5t-98 41.5t-98 -41.5t-38 -106.5t38 -106.5t98 -41.5z" />
    <glyph glyph-name="copyright" unicode="&#xa9;" horiz-adv-x="852" 
d="M551 265l43 -43q-27 -35 -70 -56t-96 -21q-61 0 -108.5 28t-74.5 76t-27 109q0 62 27.5 110.5t75.5 76t109 27.5q53 0 95 -21t69 -56l-43 -42q-20 29 -50.5 46t-70.5 17q-41 0 -74.5 -20.5t-52.5 -56t-19 -81.5q0 -45 19 -80.5t52.5 -56t74.5 -20.5q40 0 70.5 17t50.5 47
zM426 -26q-79 0 -148.5 29.5t-121.5 82.5t-81.5 122.5t-29.5 149.5t29.5 149.5t81.5 122.5t121.5 82.5t148.5 29.5q80 0 149 -29.5t121 -82.5t81.5 -122.5t29.5 -149.5t-29.5 -149.5t-81.5 -122.5t-121 -82.5t-149 -29.5zM426 37q66 0 123.5 24.5t101 68.5t68 102.5
t24.5 125.5t-24.5 125.5t-68 102.5t-101 68.5t-123.5 24.5t-123.5 -24.5t-101 -68.5t-68 -102.5t-24.5 -125.5t24.5 -125.5t68 -102.5t101 -68.5t123.5 -24.5z" />
    <glyph glyph-name="registered" unicode="&#xae;" horiz-adv-x="526" 
d="M215 383h-38v220h97q38 0 61.5 -19t23.5 -48t-23.5 -47.5t-61.5 -18.5h-62v33h62q21 0 33.5 9.5t12.5 23.5q0 15 -12.5 24.5t-33.5 9.5h-59v-187zM380 383h-48l-85 92h46zM263 265q-60 0 -109.5 30t-79 80.5t-29.5 112.5t29.5 112.5t79 80.5t109.5 30q61 0 110 -30
t78.5 -80.5t29.5 -112.5t-29.5 -112.5t-78.5 -80.5t-110 -30zM263 316q47 0 84.5 22t59 61t21.5 89q0 51 -21.5 89.5t-59 60.5t-84.5 22t-84.5 -22t-59 -60.5t-21.5 -89.5q0 -50 21.5 -89t59 -61t84.5 -22z" />
    <glyph glyph-name="quoteleft" unicode="&#x2018;" horiz-adv-x="222" 
d="M116 736h50q-22 -31 -34.5 -68t-11.5 -63l-8 17q23 0 39 -15.5t16 -38.5q0 -22 -15.5 -38.5t-37.5 -16.5q-25 0 -42 18.5t-17 46.5q0 24 8.5 52.5t22.5 56.5t30 49z" />
    <glyph glyph-name="quoteright" unicode="&#x2019;" horiz-adv-x="222" 
d="M106 513h-50q22 32 35 68.5t11 62.5l8 -17q-23 0 -39 15.5t-16 38.5t15.5 39t37.5 16q26 0 42.5 -18t16.5 -47q0 -24 -8.5 -52.5t-22.5 -56t-30 -49.5z" />
    <glyph glyph-name="quotesinglbase" unicode="&#x201a;" horiz-adv-x="222" 
d="M106 -121h-50q22 32 35 68.5t11 62.5l8 -17q-23 0 -39 15.5t-16 38.5t15.5 39t37.5 16q26 0 42.5 -18t16.5 -47q0 -24 -8.5 -52.5t-22.5 -56t-30 -49.5z" />
    <glyph glyph-name="quotedblleft" unicode="&#x201c;" horiz-adv-x="362" 
d="M116 736h50q-22 -31 -34.5 -68t-11.5 -63l-8 17q23 0 39 -15.5t16 -38.5q0 -22 -15.5 -38.5t-37.5 -16.5q-25 0 -42 18.5t-17 46.5q0 24 8.5 52.5t22.5 56.5t30 49zM256 736h50q-22 -31 -34.5 -68t-11.5 -63l-8 17q23 0 39 -15.5t16 -38.5q0 -22 -15.5 -38.5t-37.5 -16.5
q-25 0 -42 18.5t-17 46.5q0 24 8.5 52.5t22.5 56.5t30 49z" />
    <glyph glyph-name="quotedblright" unicode="&#x201d;" horiz-adv-x="362" 
d="M106 513h-50q22 32 35 68.5t11 62.5l8 -17q-23 0 -39 15.5t-16 38.5t15.5 39t37.5 16q26 0 42.5 -18t16.5 -47q0 -24 -8.5 -52.5t-22.5 -56t-30 -49.5zM246 513h-50q22 32 35 68.5t11 62.5l8 -17q-23 0 -39 15.5t-16 38.5t15.5 39t37.5 16q26 0 42.5 -18t16.5 -47
q0 -24 -8.5 -52.5t-22.5 -56t-30 -49.5z" />
    <glyph glyph-name="quotedblbase" unicode="&#x201e;" horiz-adv-x="362" 
d="M106 -121h-50q22 32 35 68.5t11 62.5l8 -17q-23 0 -39 15.5t-16 38.5t15.5 39t37.5 16q26 0 42.5 -18t16.5 -47q0 -24 -8.5 -52.5t-22.5 -56t-30 -49.5zM246 -121h-50q22 32 35 68.5t11 62.5l8 -17q-23 0 -39 15.5t-16 38.5t15.5 39t37.5 16q26 0 42.5 -18t16.5 -47
q0 -24 -8.5 -52.5t-22.5 -56t-30 -49.5z" />
    <glyph glyph-name="periodcentered.loclCAT" horiz-adv-x="162" 
d="M137 366q0 -23 -16.5 -39.5t-39.5 -16.5t-39.5 16.5t-16.5 39.5t16.5 39.5t39.5 16.5t39.5 -16.5t16.5 -39.5z" />
    <glyph glyph-name="periodcentered.loclCAT.cap" 
d="M-103 366q0 -23 -16.5 -39.5t-39.5 -16.5t-39.5 16.5t-16.5 39.5t16.5 39.5t39.5 16.5t39.5 -16.5t16.5 -39.5z" />
    <glyph glyph-name="dotlessi" unicode="&#x131;" horiz-adv-x="214" 
d="M144 0h-74v492h74v-492z" />
    <glyph glyph-name="uni0237" unicode="&#x237;" horiz-adv-x="214" 
d="M-24 -194v64h33q32 0 46.5 15t14.5 46v561h74v-567q0 -119 -119 -119h-49z" />
    <glyph glyph-name="IJ" unicode="&#x132;" horiz-adv-x="682" 
d="M153 313h-77v402h77v-402zM606 715v-443q0 -137 -69 -212.5t-197 -75.5q-76 0 -132 27.5t-89 80t-42 127.5l76 9q10 -85 57.5 -129.5t129.5 -44.5q92 0 140.5 56t48.5 162v443h77z" />
    <glyph glyph-name="Thorn" unicode="&#xde;" horiz-adv-x="644" 
d="M152 489v68h210q71 0 123.5 -25t82 -70t29.5 -105t-29.5 -105t-82 -70t-123.5 -25h-210v68h210q73 0 114.5 35t41.5 97t-41.5 97t-114.5 35h-210zM162 0h-77v715h77v-715z" />
    <glyph glyph-name="AE" unicode="&#xc6;" horiz-adv-x="1043" 
d="M569 715l-461 -715h-83l464 715h80zM549 200h-334v68h334v-68zM998 0h-473v715h473v-68h-396v-579h396v-68zM979 332h-387v68h387v-68z" />
    <glyph glyph-name="OE" unicode="&#x152;" horiz-adv-x="1235" 
d="M426 -16q-80 0 -147.5 28t-118 78.5t-78 119t-27.5 148.5t27.5 148t78 118.5t118 78.5t147.5 28q75 0 139 -28t111.5 -78.5t74 -118.5t26.5 -148t-26.5 -148.5t-74 -119t-111.5 -78.5t-139 -28zM426 54q86 0 151.5 39t102.5 108t37 157t-37 156.5t-102.5 107.5t-151.5 39
q-85 0 -151 -39t-103 -107.5t-37 -156.5t37 -157t103 -108t151 -39zM1190 0h-473v715h473v-68h-396v-579h396v-68zM1171 332h-387v68h387v-68z" />
    <glyph glyph-name="uni1E9E" unicode="&#x1e9e;" horiz-adv-x="750" 
d="M235 71l54 55q34 -32 77.5 -52t97.5 -20t94 21t62 56.5t22 79.5q0 66 -45 108.5t-119 42.5q-27 0 -50.5 -7.5t-47.5 -25.5l-49 42l271 308l11 -34h-242q-105 0 -162 -59t-57 -169v-417h-77v417q0 140 78.5 219t217.5 79h293v-69l-209 -237l-4 8q51 9 99.5 -2.5t87.5 -40
t61.5 -70.5t22.5 -95q0 -62 -33 -113.5t-91 -81.5t-133 -30q-67 0 -126.5 23.5t-103.5 63.5z" />
    <glyph glyph-name="Eng" unicode="&#x14a;" horiz-adv-x="738" 
d="M228 -145l47 61q29 -27 63 -38.5t73 -11.5q83 0 126.5 52.5t43.5 152.5v644h74v-644q0 -134 -63.5 -204.5t-180.5 -70.5q-58 0 -104 15t-79 44zM157 0h-74v715h84l437 -631l-26 -84l-437 631h16v-631z" />
    <glyph glyph-name="Eth" unicode="&#xd0;" horiz-adv-x="741" 
d="M85 0v715h231q110 0 193.5 -46t130.5 -126.5t47 -184.5t-47 -185t-130.5 -127t-193.5 -46h-231zM162 70h154q89 0 154.5 36t101 101t35.5 151t-35.5 150.5t-101 100.5t-154.5 36h-154v-575zM367 332h-357v68h357v-68z" />
    <glyph glyph-name="Dcroat" unicode="&#x110;" horiz-adv-x="741" 
d="M85 0v715h231q110 0 193.5 -46t130.5 -126.5t47 -184.5t-47 -185t-130.5 -127t-193.5 -46h-231zM162 70h154q89 0 154.5 36t101 101t35.5 151t-35.5 150.5t-101 100.5t-154.5 36h-154v-575zM367 332h-357v68h357v-68z" />
    <glyph glyph-name="Hbar" unicode="&#x126;" horiz-adv-x="742" 
d="M580 0v715h77v-715h-77zM162 0h-77v715h77v-715zM152 337v69h438v-69h-438zM727 527h-712v68h712v-68z" />
    <glyph glyph-name="Tbar" unicode="&#x166;" horiz-adv-x="625" 
d="M351 0h-77v656h77v-656zM589 646h-553v69h553v-69zM519 332h-413v68h413v-68z" />
    <glyph glyph-name="Lslash" unicode="&#x141;" horiz-adv-x="590" 
d="M554 0h-443v715h77v-646h366v-69zM413 439l-359 -239l-37 56l359 239z" />
    <glyph glyph-name="Oslash" unicode="&#xd8;" horiz-adv-x="852" 
d="M426 -16q-80 0 -147.5 28t-118 78.5t-78 119t-27.5 148.5t27.5 148t78 118.5t118 78.5t147.5 28t147.5 -28t118 -78.5t78 -118.5t27.5 -148t-27.5 -148.5t-78 -119t-118 -78.5t-147.5 -28zM426 54q86 0 151.5 39t102.5 108t37 157t-37 156.5t-102.5 107.5t-151.5 39
q-85 0 -151 -39t-103 -107.5t-37 -156.5t37 -157t103 -108t151 -39zM98 -19l-46 46l702 707l46 -46z" />
    <glyph glyph-name="ij" unicode="&#x133;" horiz-adv-x="428" 
d="M190 -194v64h33q32 0 46.5 15t14.5 46v561h74v-567q0 -119 -119 -119h-49zM321 624q-22 0 -38 15.5t-16 37.5q0 23 16 38.5t38 15.5q23 0 38.5 -15.5t15.5 -38.5q0 -22 -15.5 -37.5t-38.5 -15.5zM144 0h-74v492h74v-492zM107 624q-22 0 -38 15.5t-16 37.5q0 23 16 38.5
t38 15.5q23 0 38.5 -15.5t15.5 -38.5q0 -22 -15.5 -37.5t-38.5 -15.5z" />
    <glyph glyph-name="thorn" unicode="&#xfe;" horiz-adv-x="633" 
d="M144 -194h-74v914h74v-377h-18q9 49 39 86t75.5 58t98.5 21q72 0 128 -34.5t87.5 -93.5t31.5 -134q0 -76 -32.5 -135t-90 -93t-131.5 -34q-67 0 -117.5 27.5t-76 75t-18.5 106.5l14 20q4 -47 30 -84.5t68 -58.5t92 -21q55 0 96 25.5t64.5 70t23.5 101.5t-22.5 101.5
t-62.5 70t-93 25.5q-54 0 -96 -27t-66 -74.5t-24 -110.5v-425z" />
    <glyph glyph-name="ae" unicode="&#xe6;" horiz-adv-x="963" 
d="M848 140l52 -49q-39 -50 -94 -78.5t-126 -28.5q-77 0 -137 34t-94 93t-34 135t32.5 135t90 93t131.5 34q72 0 127.5 -33.5t87.5 -91.5t32 -134v-6h-76v6q0 58 -22.5 101.5t-61 68t-87.5 24.5q-54 0 -95 -25t-64 -69t-23 -102t24.5 -103t68.5 -70t101 -25q104 0 167 91z
M916 228h-445v60h429l16 -39v-21zM479 250h-64v40q0 68 -40.5 111t-107.5 43q-49 0 -88.5 -21t-69.5 -57l-52 50q41 44 92.5 68t117.5 24q64 0 111.5 -27.5t74 -75.5t26.5 -112v-43zM236 -16q-58 0 -102 20.5t-69 55.5t-25 80q0 49 29 82t79.5 49.5t114.5 16.5h158v-60h-148
q-67 0 -111.5 -19.5t-44.5 -66.5q0 -44 35.5 -70t92.5 -26q49 0 91 19t70.5 51.5t35.5 72.5l46 -17q-5 -53 -40 -95.5t-90.5 -67.5t-121.5 -25z" />
    <glyph glyph-name="oe" unicode="&#x153;" horiz-adv-x="1033" 
d="M307 -16q-75 0 -134 34t-92.5 93t-33.5 135t33.5 135t92.5 93t134 34q73 0 129 -34t88.5 -93t32.5 -135t-32.5 -135t-88.5 -93t-129 -34zM307 49q54 0 95 25t64 69.5t23 102.5t-23 102.5t-64 69.5t-95 25t-95 -25t-64 -69.5t-23 -102.5t23 -102.5t64 -69.5t95 -25z
M918 140l52 -49q-39 -50 -94 -78.5t-126 -28.5q-75 0 -134 34t-93 93t-34 135t32.5 135t89 93t128.5 34t127.5 -33.5t87.5 -91.5t32 -134v-6h-76v6q0 58 -22.5 101.5t-61 68t-87.5 24.5q-54 0 -95 -25t-64 -69t-23 -102t24.5 -103t68.5 -70t101 -25q104 0 167 91zM986 220
h-445v61h429l16 -32v-29z" />
    <glyph glyph-name="germandbls" unicode="&#xdf;" horiz-adv-x="622" 
d="M137 0h-74v466q0 85 32.5 144t87.5 90t124 31q64 0 112 -25.5t75 -68t27 -95.5q0 -51 -27.5 -92t-78 -65t-121.5 -24h-3v35h36q69 0 126 -25t91.5 -72t34.5 -112q0 -61 -28 -106.5t-75.5 -71t-108.5 -25.5q-30 0 -61 7t-58.5 20.5t-49.5 32.5l45 54q23 -25 56 -38t67 -13
q57 0 96 36.5t39 99.5q0 51 -27 86.5t-69 54t-88 18.5h-45v65h22q66 0 107.5 37t41.5 98q0 54 -35.5 89t-99.5 35q-74 0 -122.5 -53t-48.5 -160v-453z" />
    <glyph glyph-name="eng" unicode="&#x14b;" horiz-adv-x="584" 
d="M353 -194v64h33q32 0 46.5 15t14.5 46v353q0 79 -36 119t-97 40q-44 0 -83 -23t-63 -72t-24 -127v-221h-74v492h73v-149h-13q12 61 41.5 97t70 52t85.5 16q90 0 142 -55.5t52 -160.5v-367q0 -119 -119 -119h-49z" />
    <glyph glyph-name="eth" unicode="&#xf0;" horiz-adv-x="614" 
d="M529 236h-30q0 111 -30 199.5t-93.5 161t-164.5 134.5l55 28q96 -52 163 -126.5t102.5 -164t35.5 -189.5q0 -98 -34 -163.5t-92.5 -98.5t-133.5 -33t-133.5 33t-92.5 90t-34 129q0 73 34 129.5t92 89.5t130 33t122.5 -33t77 -89.5t26.5 -129.5zM307 49q54 0 95 24
t64 66.5t23 96.5q0 55 -23 97t-64 66t-95 24t-95 -24t-64 -66t-23 -97q0 -54 23 -96.5t64 -66.5t95 -24zM503 688l-287 -143l-28 54l286 143z" />
    <glyph glyph-name="dcroat" unicode="&#x111;" horiz-adv-x="659" 
d="M563 0h-73v134l-1 1v96q0 63 -23 110.5t-64.5 74.5t-95.5 27q-53 0 -94 -25.5t-64 -70t-23 -101.5t23.5 -101.5t65 -70t95.5 -25.5q51 0 92.5 21t67.5 58.5t30 84.5l14 -20q8 -59 -18 -106.5t-76.5 -75t-117.5 -27.5q-74 0 -131.5 34t-90 93t-32.5 135q0 75 32.5 134
t89 93.5t128.5 34.5q54 0 98.5 -20.5t74.5 -57.5t38 -87h-19v377h74v-720zM644 573h-320v63h320v-63z" />
    <glyph glyph-name="hbar" unicode="&#x127;" horiz-adv-x="610" 
d="M335 573h-320v63h320v-63zM547 0h-74v284q0 79 -36 119t-97 40q-44 0 -83 -23t-63 -72t-24 -127v-221h-74v720h74v-377h-13q12 61 41 97t69.5 52t85.5 16q90 0 142 -55.5t52 -160.5v-292z" />
    <glyph glyph-name="tbar" unicode="&#x167;" horiz-adv-x="392" 
d="M357 0h-116q-52 0 -80.5 28.5t-28.5 80.5v527h74v-521q0 -24 13 -37.5t38 -13.5h100v-64zM350 429h-320v63h320v-63zM350 246h-320v63h320v-63z" />
    <glyph glyph-name="lslash" unicode="&#x142;" horiz-adv-x="317" 
d="M184 0h-74v720h74v-720zM312 448l-275 -183l-32 47l275 183z" />
    <glyph glyph-name="oslash" unicode="&#xf8;" horiz-adv-x="614" 
d="M307 -16q-75 0 -134 34t-92.5 93t-33.5 135t33.5 135t92.5 93t134 34q76 0 134.5 -34t92 -93t33.5 -135t-33.5 -135t-92 -93t-134.5 -34zM307 49q54 0 95 25t64 69.5t23 102.5t-23 102.5t-64 69.5t-95 25t-95 -25t-64 -69.5t-23 -102.5t23 -102.5t64 -69.5t95 -25z
M78 -27l-42 42l500 504l42 -42z" />
    <glyph glyph-name="kgreenlandic" unicode="&#x138;" horiz-adv-x="547" 
d="M144 0h-74v492h74v-492zM533 0h-110l-305 255h10l275 237h102l-292 -246v18z" />
    <glyph glyph-name="uni0327" unicode="&#x327;" 
d="M-122 -219l31 47q11 -13 29.5 -21t38.5 -8q23 0 38 12.5t15 33.5q0 20 -15.5 33.5t-44.5 13.5q-9 0 -18 -1t-18 -4l35 123h53l-24 -84l-26 20q35 0 63 -13t44 -35.5t16 -51.5q0 -43 -31.5 -72t-90.5 -29q-28 0 -53 10t-42 26z" />
    <glyph glyph-name="uni0327.cap" 
d="M-105 -219l32 49q11 -13 29.5 -21t38.5 -8q23 0 37.5 12.5t14.5 31.5t-16 32t-45 13q-9 0 -18 -1t-18 -4l26 125h53l-14 -84l-26 20q36 0 64.5 -13t44.5 -35.5t16 -51.5q0 -43 -31.5 -72t-92.5 -29q-28 0 -53 10t-42 26z" />
    <glyph glyph-name="cedilla" unicode="&#xb8;" horiz-adv-x="584" 
d="M165 -219l31 47q11 -13 29.5 -21t38.5 -8q23 0 38 12.5t15 33.5q0 20 -15.5 33.5t-44.5 13.5q-9 0 -18 -1t-18 -4l35 123h53l-24 -84l-26 20q35 0 63 -13t44 -35.5t16 -51.5q0 -43 -31.5 -72t-90.5 -29q-28 0 -53 10t-42 26z" />
    <glyph glyph-name="uni0326" unicode="&#x326;" 
d="M1 -270h-52q18 27 29.5 57t9.5 50l17 -19q-22 0 -37.5 13.5t-15.5 32.5t14 32.5t33 13.5q23 0 37 -15.5t14 -38.5q0 -19 -7 -42t-18 -44.5t-24 -39.5z" />
    <glyph glyph-name="uni0326.cap" 
d="M3 -270h-56q18 27 29.5 57t9.5 50l17 -19q-22 0 -37.5 13.5t-15.5 32.5t14 32.5t35 13.5q24 0 38.5 -15.5t14.5 -38.5q0 -19 -7 -42t-18 -44.5t-24 -39.5z" />
    <glyph glyph-name="uni0312" unicode="&#x312;" 
d="M0 763h52q-18 -27 -29 -57t-10 -50l-17 19q22 0 37.5 -13t15.5 -33q0 -19 -13.5 -32.5t-33.5 -13.5q-22 0 -36.5 15.5t-14.5 38.5q0 20 7 42.5t18 44.5t24 39z" />
    <glyph glyph-name="uni0328" unicode="&#x328;" 
d="M97 -180v-63q-10 -2 -19.5 -3t-19.5 -1q-49 0 -82 28.5t-33 80.5q0 45 26.5 84t81.5 76l46 -22q-47 -31 -68 -62.5t-21 -61.5t17.5 -45t42.5 -15q5 0 13 1t16 3z" />
    <glyph glyph-name="uni0328.cap" 
d="M97 -179v-65q-10 -2 -19.5 -3t-19.5 -1q-49 0 -82.5 29t-33.5 81q0 45 25.5 84t76.5 76l53 -22q-46 -31 -67 -62.5t-21 -61.5q0 -29 17 -44t42 -15q5 0 13 1t16 3z" />
    <glyph glyph-name="uni0328.round" 
d="M97 -180v-63q-10 -2 -19.5 -3t-19.5 -1q-49 0 -82 29.5t-33 81.5q0 50 36.5 99t96.5 89l44 1q-62 -55 -87 -98t-25 -76q0 -31 17.5 -47t42.5 -16q5 0 13 1t16 3z" />
    <glyph glyph-name="uni0328.round.cap" 
d="M87 -179v-65q-10 -2 -19.5 -3t-19.5 -1q-49 0 -82.5 29t-33.5 81q0 45 28 84t99 76l59 1q-57 -31 -88 -69t-31 -77q0 -30 17 -45t42 -15q5 0 13 1t16 3z" />
    <glyph glyph-name="ogonek" unicode="&#x2db;" horiz-adv-x="584" 
d="M384 -180v-63q-10 -2 -19.5 -3t-19.5 -1q-49 0 -82 28.5t-33 80.5q0 45 26.5 84t81.5 76l46 -22q-47 -31 -68 -62.5t-21 -61.5t17.5 -45t42.5 -15q5 0 13 1t16 3z" />
    <glyph glyph-name="Ccedilla" unicode="&#xc7;" horiz-adv-x="739" 
d="M642 173l56 -53q-46 -63 -120.5 -99.5t-163.5 -36.5q-77 0 -142.5 28t-114 78.5t-75.5 118.5t-27 148t27.5 148.5t76.5 119t114.5 78.5t142.5 28q89 0 162.5 -36.5t119.5 -99.5l-56 -53q-37 55 -94 87t-132 32q-80 0 -143.5 -39.5t-100.5 -108t-37 -156.5
q0 -87 37 -155.5t100.5 -108t143.5 -39.5q75 0 132 32t94 87zM311 -219l32 49q11 -13 29.5 -21t38.5 -8q23 0 37.5 12.5t14.5 31.5t-16 32t-45 13q-9 0 -18 -1t-18 -4l26 125h53l-14 -84l-26 20q36 0 64.5 -13t44.5 -35.5t16 -51.5q0 -43 -31.5 -72t-92.5 -29q-28 0 -53 10
t-42 26z" />
    <glyph glyph-name="Scedilla" unicode="&#x15e;" horiz-adv-x="679" 
d="M43 116l57 54q31 -36 69 -62t82.5 -40t96.5 -14q58 0 103 18t71 50.5t26 76.5q0 56 -47 87.5t-160 48.5q-98 15 -156.5 39.5t-84.5 61.5t-26 89q0 61 34 107.5t94 72.5t138 26q89 0 157.5 -35t121.5 -97l-56 -53q-43 53 -94.5 84t-128.5 31q-82 0 -134 -36.5t-52 -98.5
q0 -32 19 -54.5t62 -37.5t114 -26q102 -15 163 -41.5t88.5 -67.5t27.5 -99q0 -64 -35.5 -112.5t-98.5 -76t-146 -27.5q-96 0 -171.5 35t-133.5 97zM243 -219l32 49q11 -13 29.5 -21t38.5 -8q23 0 37.5 12.5t14.5 31.5t-16 32t-45 13q-9 0 -18 -1t-18 -4l26 125h53l-14 -84
l-26 20q36 0 64.5 -13t44.5 -35.5t16 -51.5q0 -43 -31.5 -72t-92.5 -29q-28 0 -53 10t-42 26z" />
    <glyph glyph-name="uni0162" unicode="&#x162;" horiz-adv-x="625" 
d="M351 0h-77v656h77v-656zM589 646h-553v69h553v-69zM207 -219l32 49q11 -13 29.5 -21t38.5 -8q23 0 37.5 12.5t14.5 31.5t-16 32t-45 13q-9 0 -18 -1t-18 -4l26 125h53l-14 -84l-26 20q36 0 64.5 -13t44.5 -35.5t16 -51.5q0 -43 -31.5 -72t-92.5 -29q-28 0 -53 10t-42 26z
" />
    <glyph glyph-name="uni0122" unicode="&#x122;" horiz-adv-x="797" 
d="M736 0h-74v106l12 -4q-37 -55 -102.5 -86.5t-145.5 -31.5t-147.5 28t-118 78.5t-78 119t-27.5 148.5t27.5 148t77.5 118.5t117 78.5t146 28q92 0 166 -36.5t122 -99.5l-56 -53q-38 55 -95.5 87t-136.5 32q-83 0 -148.5 -39.5t-102.5 -108t-37 -155.5t37.5 -156
t103.5 -108.5t151 -39.5t150 37.5t93 98.5l-9 -38v152h-242v68h317v-372zM426 -270h-56q18 27 29.5 57t9.5 50l17 -19q-22 0 -37.5 13.5t-15.5 32.5t14 32.5t35 13.5q24 0 38.5 -15.5t14.5 -38.5q0 -19 -7 -42t-18 -44.5t-24 -39.5z" />
    <glyph glyph-name="uni0136" unicode="&#x136;" horiz-adv-x="687" 
d="M162 0h-77v715h77v-715zM669 0h-118l-413 371h14l371 344h104l-394 -357v26zM350 -270h-56q18 27 29.5 57t9.5 50l17 -19q-22 0 -37.5 13.5t-15.5 32.5t14 32.5t35 13.5q24 0 38.5 -15.5t14.5 -38.5q0 -19 -7 -42t-18 -44.5t-24 -39.5z" />
    <glyph glyph-name="uni013B" unicode="&#x13b;" horiz-adv-x="564" 
d="M528 0h-443v715h77v-646h366v-69zM309 -270h-56q18 27 29.5 57t9.5 50l17 -19q-22 0 -37.5 13.5t-15.5 32.5t14 32.5t35 13.5q24 0 38.5 -15.5t14.5 -38.5q0 -19 -7 -42t-18 -44.5t-24 -39.5z" />
    <glyph glyph-name="uni0145" unicode="&#x145;" horiz-adv-x="738" 
d="M157 0h-74v715h84l430 -631h-16v631h74v-715h-84l-430 631h16v-631zM372 -270h-56q18 27 29.5 57t9.5 50l17 -19q-22 0 -37.5 13.5t-15.5 32.5t14 32.5t35 13.5q24 0 38.5 -15.5t14.5 -38.5q0 -19 -7 -42t-18 -44.5t-24 -39.5z" />
    <glyph glyph-name="uni0218" unicode="&#x218;" horiz-adv-x="679" 
d="M43 116l57 54q31 -36 69 -62t82.5 -40t96.5 -14q58 0 103 18t71 50.5t26 76.5q0 56 -47 87.5t-160 48.5q-98 15 -156.5 39.5t-84.5 61.5t-26 89q0 61 34 107.5t94 72.5t138 26q89 0 157.5 -35t121.5 -97l-56 -53q-43 53 -94.5 84t-128.5 31q-82 0 -134 -36.5t-52 -98.5
q0 -32 19 -54.5t62 -37.5t114 -26q102 -15 163 -41.5t88.5 -67.5t27.5 -99q0 -64 -35.5 -112.5t-98.5 -76t-146 -27.5q-96 0 -171.5 35t-133.5 97zM351 -270h-56q18 27 29.5 57t9.5 50l17 -19q-22 0 -37.5 13.5t-15.5 32.5t14 32.5t35 13.5q24 0 38.5 -15.5t14.5 -38.5
q0 -19 -7 -42t-18 -44.5t-24 -39.5z" />
    <glyph glyph-name="uni021A" unicode="&#x21a;" horiz-adv-x="625" 
d="M351 0h-77v656h77v-656zM589 646h-553v69h553v-69zM315 -270h-56q18 27 29.5 57t9.5 50l17 -19q-22 0 -37.5 13.5t-15.5 32.5t14 32.5t35 13.5q24 0 38.5 -15.5t14.5 -38.5q0 -19 -7 -42t-18 -44.5t-24 -39.5z" />
    <glyph glyph-name="Aogonek" unicode="&#x104;" horiz-adv-x="727" 
d="M555 200h-389v68h389v-68zM691 0h-81l-265 669h34l-265 -669h-78l286 715h83zM690 -179v-65q-10 -2 -19.5 -3t-19.5 -1q-49 0 -82.5 29t-33.5 81q0 45 25.5 84t76.5 76l53 -22q-46 -31 -67 -62.5t-21 -61.5q0 -29 17 -44t42 -15q5 0 13 1t16 3z" />
    <glyph glyph-name="Eogonek" unicode="&#x118;" horiz-adv-x="603" 
d="M558 0h-473v715h473v-68h-396v-579h396v-68zM539 332h-387v68h387v-68zM558 -179v-65q-10 -2 -19.5 -3t-19.5 -1q-49 0 -82.5 29t-33.5 81q0 45 25.5 84t76.5 76l53 -22q-46 -31 -67 -62.5t-21 -61.5q0 -29 17 -44t42 -15q5 0 13 1t16 3z" />
    <glyph glyph-name="Iogonek" unicode="&#x12e;" horiz-adv-x="247" 
d="M162 0h-77v715h77v-715zM162 -179v-65q-10 -2 -19.5 -3t-19.5 -1q-49 0 -82.5 29t-33.5 81q0 45 25.5 84t76.5 76l53 -22q-46 -31 -67 -62.5t-21 -61.5q0 -29 17 -44t42 -15q5 0 13 1t16 3z" />
    <glyph glyph-name="Uogonek" unicode="&#x172;" horiz-adv-x="722" 
d="M647 715v-433q0 -141 -76 -219.5t-210 -78.5q-133 0 -209.5 78.5t-76.5 219.5v433h77v-433q0 -111 55 -169.5t154 -58.5q100 0 155 58.5t55 169.5v433h76zM489 -179v-65q-10 -2 -19.5 -3t-19.5 -1q-49 0 -82.5 29t-33.5 81q0 45 28 84t99 76l59 1q-57 -31 -88 -69
t-31 -77q0 -30 17 -45t42 -15q5 0 13 1t16 3z" />
    <glyph glyph-name="ccedilla" unicode="&#xe7;" horiz-adv-x="545" 
d="M455 128l53 -49q-34 -44 -85.5 -69.5t-116.5 -25.5q-75 0 -133.5 34t-92 93t-33.5 135t33.5 135t92.5 93t134 34q65 0 116 -25.5t85 -69.5l-53 -49q-24 36 -60 57.5t-88 21.5q-54 0 -95 -25t-64 -69.5t-23 -102.5t23 -102.5t64 -69.5t95 -25q52 0 88 21.5t60 57.5z
M185 -219l31 47q11 -13 29.5 -21t38.5 -8q23 0 38 12.5t15 33.5q0 20 -15.5 33.5t-44.5 13.5q-9 0 -18 -1t-18 -4l35 123h53l-24 -84l-26 20q35 0 63 -13t44 -35.5t16 -51.5q0 -43 -31.5 -72t-90.5 -29q-28 0 -53 10t-42 26z" />
    <glyph glyph-name="scedilla" unicode="&#x15f;" horiz-adv-x="514" 
d="M28 76l52 50q35 -37 79 -58t99 -21q60 0 98.5 25.5t38.5 65.5q0 35 -32.5 54.5t-109.5 30.5q-112 16 -157.5 48.5t-45.5 87.5q0 45 26 78.5t72 52t105 18.5q66 0 118 -24t92 -68l-52 -50q-30 37 -69 58t-89 21q-55 0 -91 -23t-36 -61q0 -28 30.5 -44.5t103.5 -26.5
q116 -16 163.5 -51.5t47.5 -98.5q0 -46 -27.5 -81.5t-75.5 -55t-110 -19.5q-72 0 -128.5 24.5t-101.5 67.5zM131 -219l31 47q11 -13 29.5 -21t38.5 -8q23 0 38 12.5t15 33.5q0 20 -15.5 33.5t-44.5 13.5q-9 0 -18 -1t-18 -4l35 123h53l-24 -84l-26 20q35 0 63 -13t44 -35.5
t16 -51.5q0 -43 -31.5 -72t-90.5 -29q-28 0 -53 10t-42 26z" />
    <glyph glyph-name="uni0163" unicode="&#x163;" horiz-adv-x="392" 
d="M357 0h-116q-52 0 -80.5 28.5t-28.5 80.5v527h74v-521q0 -24 13 -37.5t38 -13.5h100v-64zM350 429h-320v63h320v-63zM130 -219l31 47q11 -13 29.5 -21t38.5 -8q23 0 38 12.5t15 33.5q0 20 -15.5 33.5t-44.5 13.5q-9 0 -18 -1t-18 -4l35 123h53l-24 -84l-26 20
q35 0 63 -13t44 -35.5t16 -51.5q0 -43 -31.5 -72t-90.5 -29q-28 0 -53 10t-42 26z" />
    <glyph glyph-name="uni0123" unicode="&#x123;" horiz-adv-x="633" 
d="M563 42q0 -73 -33.5 -130t-91 -89.5t-131.5 -32.5q-70 0 -126.5 25.5t-93.5 69.5l52 50q27 -37 68 -58.5t100 -21.5q54 0 95 24t64 66t23 97v189q0 70 -26 117t-67.5 71t-89.5 24q-53 0 -94 -25.5t-64 -69t-23 -98.5q0 -56 23 -99t64.5 -67.5t96.5 -24.5q50 0 91.5 21
t68 58t30.5 85l15 -20q8 -61 -19 -108t-78 -74t-116 -27q-73 0 -130.5 32.5t-90.5 90.5t-33 133t33.5 133t90 91.5t126.5 33.5q49 0 93.5 -18t76 -54.5t41.5 -92.5h-18v149h73v-450zM307 763h52q-18 -27 -29 -57t-10 -50l-17 19q22 0 37.5 -13t15.5 -33q0 -19 -13.5 -32.5
t-33.5 -13.5q-22 0 -36.5 15.5t-14.5 38.5q0 20 7 42.5t18 44.5t24 39z" />
    <glyph glyph-name="uni0137" unicode="&#x137;" horiz-adv-x="547" 
d="M144 0h-74v720h74v-720zM533 0h-110l-305 255h10l275 237h102l-292 -246v18zM289 -270h-52q18 27 29.5 57t9.5 50l17 -19q-22 0 -37.5 13.5t-15.5 32.5t14 32.5t33 13.5q23 0 37 -15.5t14 -38.5q0 -19 -7 -42t-18 -44.5t-24 -39.5z" />
    <glyph glyph-name="uni013C" unicode="&#x13c;" horiz-adv-x="214" 
d="M144 0h-74v720h74v-720zM108 -270h-52q18 27 29.5 57t9.5 50l17 -19q-22 0 -37.5 13.5t-15.5 32.5t14 32.5t33 13.5q23 0 37 -15.5t14 -38.5q0 -19 -7 -42t-18 -44.5t-24 -39.5z" />
    <glyph glyph-name="uni0146" unicode="&#x146;" horiz-adv-x="584" 
d="M521 0h-74v284q0 79 -36 119t-97 40q-44 0 -83 -23t-63 -72t-24 -127v-221h-74v492h73v-149h-13q12 61 41.5 97t70 52t85.5 16q90 0 142 -55.5t52 -160.5v-292zM296 -270h-52q18 27 29.5 57t9.5 50l17 -19q-22 0 -37.5 13.5t-15.5 32.5t14 32.5t33 13.5q23 0 37 -15.5
t14 -38.5q0 -19 -7 -42t-18 -44.5t-24 -39.5z" />
    <glyph glyph-name="uni0219" unicode="&#x219;" horiz-adv-x="514" 
d="M28 76l52 50q35 -37 79 -58t99 -21q60 0 98.5 25.5t38.5 65.5q0 35 -32.5 54.5t-109.5 30.5q-112 16 -157.5 48.5t-45.5 87.5q0 45 26 78.5t72 52t105 18.5q66 0 118 -24t92 -68l-52 -50q-30 37 -69 58t-89 21q-55 0 -91 -23t-36 -61q0 -28 30.5 -44.5t103.5 -26.5
q116 -16 163.5 -51.5t47.5 -98.5q0 -46 -27.5 -81.5t-75.5 -55t-110 -19.5q-72 0 -128.5 24.5t-101.5 67.5zM254 -270h-52q18 27 29.5 57t9.5 50l17 -19q-22 0 -37.5 13.5t-15.5 32.5t14 32.5t33 13.5q23 0 37 -15.5t14 -38.5q0 -19 -7 -42t-18 -44.5t-24 -39.5z" />
    <glyph glyph-name="uni021B" unicode="&#x21b;" horiz-adv-x="392" 
d="M357 0h-116q-52 0 -80.5 28.5t-28.5 80.5v527h74v-521q0 -24 13 -37.5t38 -13.5h100v-64zM350 429h-320v63h320v-63zM253 -270h-52q18 27 29.5 57t9.5 50l17 -19q-22 0 -37.5 13.5t-15.5 32.5t14 32.5t33 13.5q23 0 37 -15.5t14 -38.5q0 -19 -7 -42t-18 -44.5t-24 -39.5z
" />
    <glyph glyph-name="aogonek" unicode="&#x105;" horiz-adv-x="550" 
d="M487 0h-71v96l-1 28v184q0 62 -40 99t-108 37q-49 0 -88.5 -21t-69.5 -57l-52 50q41 44 92.5 68t117.5 24t115.5 -24.5t77 -68.5t27.5 -104v-311zM228 -16q-56 0 -98.5 20.5t-66 55.5t-23.5 80q0 52 29 88.5t79.5 55.5t114.5 19h162v-60h-152q-67 0 -111.5 -24.5
t-44.5 -76.5q0 -44 33 -70t87 -26q52 0 94 20.5t67.5 57.5t28.5 85l30 -17q0 -60 -29.5 -107t-81.5 -74t-118 -27zM487 -180v-63q-10 -2 -19.5 -3t-19.5 -1q-49 0 -82 28.5t-33 80.5q0 45 26.5 84t81.5 76l46 -22q-47 -31 -68 -62.5t-21 -61.5t17.5 -45t42.5 -15q5 0 13 1
t16 3z" />
    <glyph glyph-name="eogonek" unicode="&#x119;" horiz-adv-x="601" 
d="M486 140l52 -49q-39 -50 -94 -78.5t-126 -28.5q-78 0 -139.5 34t-96.5 93t-35 135t33.5 135t92.5 93t134 34q72 0 127.5 -33.5t87.5 -91.5t32 -134v-6h-76v6q0 58 -22.5 101.5t-61 68t-87.5 24.5q-54 0 -95 -25t-64 -69t-23 -102t25 -103t68.5 -70t100.5 -25
q104 0 167 91zM554 220h-445v61h429l16 -32v-29zM479 -180v-63q-10 -2 -19.5 -3t-19.5 -1q-49 0 -82 29.5t-33 81.5q0 50 36.5 99t96.5 89l44 1q-62 -55 -87 -98t-25 -76q0 -31 17.5 -47t42.5 -16q5 0 13 1t16 3z" />
    <glyph glyph-name="iogonek" unicode="&#x12f;" horiz-adv-x="214" 
d="M144 0h-74v492h74v-492zM107 624q-22 0 -38 15.5t-16 37.5q0 23 16 38.5t38 15.5q23 0 38.5 -15.5t15.5 -38.5q0 -22 -15.5 -37.5t-38.5 -15.5zM144 -180v-63q-10 -2 -19.5 -3t-19.5 -1q-49 0 -82 28.5t-33 80.5q0 45 26.5 84t81.5 76l46 -22q-47 -31 -68 -62.5
t-21 -61.5t17.5 -45t42.5 -15q5 0 13 1t16 3z" />
    <glyph glyph-name="uogonek" unicode="&#x173;" horiz-adv-x="582" 
d="M512 0h-73v96l-1 28v368h74v-492zM448 213l15 -21q5 -60 -21 -107t-73.5 -74t-109.5 -27q-89 0 -142.5 53t-53.5 153v302h74v-294q0 -73 35.5 -111t99.5 -38q45 0 83.5 20.5t63.5 57.5t29 86zM512 -180v-63q-10 -2 -19.5 -3t-19.5 -1q-49 0 -82 28.5t-33 80.5
q0 45 26.5 84t81.5 76l46 -22q-47 -31 -68 -62.5t-21 -61.5t17.5 -45t42.5 -15q5 0 13 1t16 3z" />
    <glyph glyph-name="acutecomb" unicode="&#x301;" 
d="M150 761l-135 -174h-67l114 174h88z" />
    <glyph glyph-name="acutecomb.cap" 
d="M176 943l-155 -144h-77l134 144h98z" />
    <glyph glyph-name="acutecomb.asc" 
d="M154 731l-135 -144h-71l114 144h92z" />
    <glyph glyph-name="acutecomb.narrow" 
d="M129 761l-115 -174h-65l94 174h86z" />
    <glyph glyph-name="acute" unicode="&#xb4;" horiz-adv-x="584" 
d="M388 761l-135 -174h-67l114 174h88z" />
    <glyph glyph-name="uni030B" unicode="&#x30b;" 
d="M101 761l-175 -174h-67l154 174h88zM277 761l-175 -174h-67l154 174h88z" />
    <glyph glyph-name="uni030B.cap" 
d="M96 943l-155 -144h-77l134 144h98zM272 943l-155 -144h-77l134 144h98z" />
    <glyph glyph-name="hungarumlaut" unicode="&#x2dd;" horiz-adv-x="584" 
d="M320 761l-175 -174h-67l154 174h88zM496 761l-175 -174h-67l154 174h88z" />
    <glyph glyph-name="Aacute" unicode="&#xc1;" horiz-adv-x="727" 
d="M555 200h-389v68h389v-68zM691 0h-81l-265 669h34l-265 -669h-78l286 715h83zM539 943l-155 -144h-77l134 144h98z" />
    <glyph glyph-name="Cacute" unicode="&#x106;" horiz-adv-x="739" 
d="M642 173l56 -53q-46 -63 -120.5 -99.5t-163.5 -36.5q-77 0 -142.5 28t-114 78.5t-75.5 118.5t-27 148t27.5 148.5t76.5 119t114.5 78.5t142.5 28q89 0 162.5 -36.5t119.5 -99.5l-56 -53q-37 55 -94 87t-132 32q-80 0 -143.5 -39.5t-100.5 -108t-37 -156.5
q0 -87 37 -155.5t100.5 -108t143.5 -39.5q75 0 132 32t94 87zM592 943l-155 -144h-77l134 144h98z" />
    <glyph glyph-name="Eacute" unicode="&#xc9;" horiz-adv-x="603" 
d="M558 0h-473v715h473v-68h-396v-579h396v-68zM539 332h-387v68h387v-68zM497 943l-155 -144h-77l134 144h98z" />
    <glyph glyph-name="Iacute" unicode="&#xcd;" horiz-adv-x="247" 
d="M162 0h-77v715h77v-715zM299 943l-155 -144h-77l134 144h98z" />
    <glyph glyph-name="IJacute" horiz-adv-x="682" 
d="M153 313h-77v402h77v-402zM606 715v-443q0 -137 -69 -212.5t-197 -75.5q-76 0 -132 27.5t-89 80t-42 127.5l76 9q10 -85 57.5 -129.5t129.5 -44.5q92 0 140.5 56t48.5 162v443h77zM290 943l-155 -144h-77l134 144h98zM743 943l-155 -144h-77l134 144h98z" />
    <glyph glyph-name="Lacute" unicode="&#x139;" horiz-adv-x="564" 
d="M528 0h-443v715h77v-646h366v-69zM299 943l-155 -144h-77l134 144h98z" />
    <glyph glyph-name="Nacute" unicode="&#x143;" horiz-adv-x="738" 
d="M157 0h-74v715h84l430 -631h-16v631h74v-715h-84l-430 631h16v-631zM545 943l-155 -144h-77l134 144h98z" />
    <glyph glyph-name="Oacute" unicode="&#xd3;" horiz-adv-x="852" 
d="M426 -16q-80 0 -147.5 28t-118 78.5t-78 119t-27.5 148.5t27.5 148t78 118.5t118 78.5t147.5 28t147.5 -28t118 -78.5t78 -118.5t27.5 -148t-27.5 -148.5t-78 -119t-118 -78.5t-147.5 -28zM426 54q86 0 151.5 39t102.5 108t37 157t-37 156.5t-102.5 107.5t-151.5 39
q-85 0 -151 -39t-103 -107.5t-37 -156.5t37 -157t103 -108t151 -39zM602 943l-155 -144h-77l134 144h98z" />
    <glyph glyph-name="Racute" unicode="&#x154;" horiz-adv-x="687" 
d="M162 0h-77v715h277q71 0 123.5 -25t82 -70t29.5 -105t-29.5 -105t-82 -70t-123.5 -25h-210v68h210q73 0 114.5 35t41.5 97t-41.5 97t-114.5 35h-200v-647zM667 0h-99l-275 333h90zM503 943l-155 -144h-77l134 144h98z" />
    <glyph glyph-name="Sacute" unicode="&#x15a;" horiz-adv-x="679" 
d="M43 116l57 54q31 -36 69 -62t82.5 -40t96.5 -14q58 0 103 18t71 50.5t26 76.5q0 56 -47 87.5t-160 48.5q-98 15 -156.5 39.5t-84.5 61.5t-26 89q0 61 34 107.5t94 72.5t138 26q89 0 157.5 -35t121.5 -97l-56 -53q-43 53 -94.5 84t-128.5 31q-82 0 -134 -36.5t-52 -98.5
q0 -32 19 -54.5t62 -37.5t114 -26q102 -15 163 -41.5t88.5 -67.5t27.5 -99q0 -64 -35.5 -112.5t-98.5 -76t-146 -27.5q-96 0 -171.5 35t-133.5 97zM516 943l-155 -144h-77l134 144h98z" />
    <glyph glyph-name="Uacute" unicode="&#xda;" horiz-adv-x="722" 
d="M647 715v-433q0 -141 -76 -219.5t-210 -78.5q-133 0 -209.5 78.5t-76.5 219.5v433h77v-433q0 -111 55 -169.5t154 -58.5q100 0 155 58.5t55 169.5v433h76zM537 943l-155 -144h-77l134 144h98z" />
    <glyph glyph-name="Wacute" unicode="&#x1e82;" horiz-adv-x="1052" 
d="M793 0h-93l-178 625h8l-178 -625h-93l-219 715h83l200 -675h-33l193 675h87l193 -675h-30l200 675h79zM702 943l-155 -144h-77l134 144h98z" />
    <glyph glyph-name="Yacute" unicode="&#xdd;" horiz-adv-x="647" 
d="M362 0h-77v315l-265 400h89l229 -357h-26l229 357h86l-265 -402v-313zM499 943l-155 -144h-77l134 144h98z" />
    <glyph glyph-name="Zacute" unicode="&#x179;" horiz-adv-x="609" 
d="M566 0h-522v69l420 577h-407v69h497v-69l-420 -577h432v-69zM481 943l-155 -144h-77l134 144h98z" />
    <glyph glyph-name="Ohungarumlaut" unicode="&#x150;" horiz-adv-x="852" 
d="M426 -16q-80 0 -147.5 28t-118 78.5t-78 119t-27.5 148.5t27.5 148t78 118.5t118 78.5t147.5 28t147.5 -28t118 -78.5t78 -118.5t27.5 -148t-27.5 -148.5t-78 -119t-118 -78.5t-147.5 -28zM426 54q86 0 151.5 39t102.5 108t37 157t-37 156.5t-102.5 107.5t-151.5 39
q-85 0 -151 -39t-103 -107.5t-37 -156.5t37 -157t103 -108t151 -39zM522 943l-155 -144h-77l134 144h98zM698 943l-155 -144h-77l134 144h98z" />
    <glyph glyph-name="Uhungarumlaut" unicode="&#x170;" horiz-adv-x="722" 
d="M647 715v-433q0 -141 -76 -219.5t-210 -78.5q-133 0 -209.5 78.5t-76.5 219.5v433h77v-433q0 -111 55 -169.5t154 -58.5q100 0 155 58.5t55 169.5v433h76zM457 943l-155 -144h-77l134 144h98zM633 943l-155 -144h-77l134 144h98z" />
    <glyph glyph-name="aacute" unicode="&#xe1;" horiz-adv-x="550" 
d="M487 0h-71v96l-1 28v184q0 62 -40 99t-108 37q-49 0 -88.5 -21t-69.5 -57l-52 50q41 44 92.5 68t117.5 24t115.5 -24.5t77 -68.5t27.5 -104v-311zM228 -16q-56 0 -98.5 20.5t-66 55.5t-23.5 80q0 52 29 88.5t79.5 55.5t114.5 19h162v-60h-152q-67 0 -111.5 -24.5
t-44.5 -76.5q0 -44 33 -70t87 -26q52 0 94 20.5t67.5 57.5t28.5 85l30 -17q0 -60 -29.5 -107t-81.5 -74t-118 -27zM417 761l-135 -174h-67l114 174h88z" />
    <glyph glyph-name="cacute" unicode="&#x107;" horiz-adv-x="545" 
d="M455 128l53 -49q-34 -44 -85.5 -69.5t-116.5 -25.5q-75 0 -133.5 34t-92 93t-33.5 135t33.5 135t92.5 93t134 34q65 0 116 -25.5t85 -69.5l-53 -49q-24 36 -60 57.5t-88 21.5q-54 0 -95 -25t-64 -69.5t-23 -102.5t23 -102.5t64 -69.5t95 -25q52 0 88 21.5t60 57.5z
M457 761l-135 -174h-67l114 174h88z" />
    <glyph glyph-name="eacute" unicode="&#xe9;" horiz-adv-x="601" 
d="M486 140l52 -49q-39 -50 -94 -78.5t-126 -28.5q-78 0 -139.5 34t-96.5 93t-35 135t33.5 135t92.5 93t134 34q72 0 127.5 -33.5t87.5 -91.5t32 -134v-6h-76v6q0 58 -22.5 101.5t-61 68t-87.5 24.5q-54 0 -95 -25t-64 -69t-23 -102t25 -103t68.5 -70t100.5 -25
q104 0 167 91zM554 220h-445v61h429l16 -32v-29zM457 761l-135 -174h-67l114 174h88z" />
    <glyph glyph-name="iacute" unicode="&#xed;" horiz-adv-x="214" 
d="M144 0h-74v492h74v-492zM236 761l-115 -174h-65l94 174h86z" />
    <glyph glyph-name="ijacute" horiz-adv-x="428" 
d="M190 -194v64h33q32 0 46.5 15t14.5 46v561h74v-567q0 -119 -119 -119h-49zM144 0h-74v492h74v-492zM257 761l-135 -174h-67l114 174h88zM471 761l-135 -174h-67l114 174h88z" />
    <glyph glyph-name="lacute" unicode="&#x13a;" horiz-adv-x="214" 
d="M144 0h-74v720h74v-720zM261 953l-135 -144h-71l114 144h92z" />
    <glyph glyph-name="nacute" unicode="&#x144;" horiz-adv-x="584" 
d="M521 0h-74v284q0 79 -36 119t-97 40q-44 0 -83 -23t-63 -72t-24 -127v-221h-74v492h73v-149h-13q12 61 41.5 97t70 52t85.5 16q90 0 142 -55.5t52 -160.5v-292zM461 761l-135 -174h-67l114 174h88z" />
    <glyph glyph-name="oacute" unicode="&#xf3;" horiz-adv-x="614" 
d="M307 -16q-75 0 -134 34t-92.5 93t-33.5 135t33.5 135t92.5 93t134 34q76 0 134.5 -34t92 -93t33.5 -135t-33.5 -135t-92 -93t-134.5 -34zM307 49q54 0 95 25t64 69.5t23 102.5t-23 102.5t-64 69.5t-95 25t-95 -25t-64 -69.5t-23 -102.5t23 -102.5t64 -69.5t95 -25z
M457 761l-135 -174h-67l114 174h88z" />
    <glyph glyph-name="racute" unicode="&#x155;" horiz-adv-x="364" 
d="M334 500v-72h-20q-44 0 -83 -23t-63 -72t-24 -127v-206h-74v492h73v-156h-13q12 60 42 96t69.5 52t81.5 16h11zM358 761l-135 -174h-67l114 174h88z" />
    <glyph glyph-name="sacute" unicode="&#x15b;" horiz-adv-x="514" 
d="M28 76l52 50q35 -37 79 -58t99 -21q60 0 98.5 25.5t38.5 65.5q0 35 -32.5 54.5t-109.5 30.5q-112 16 -157.5 48.5t-45.5 87.5q0 45 26 78.5t72 52t105 18.5q66 0 118 -24t92 -68l-52 -50q-30 37 -69 58t-89 21q-55 0 -91 -23t-36 -61q0 -28 30.5 -44.5t103.5 -26.5
q116 -16 163.5 -51.5t47.5 -98.5q0 -46 -27.5 -81.5t-75.5 -55t-110 -19.5q-72 0 -128.5 24.5t-101.5 67.5zM403 761l-135 -174h-67l114 174h88z" />
    <glyph glyph-name="uacute" unicode="&#xfa;" horiz-adv-x="582" 
d="M512 0h-73v96l-1 28v368h74v-492zM448 213l15 -21q5 -60 -21 -107t-73.5 -74t-109.5 -27q-89 0 -142.5 53t-53.5 153v302h74v-294q0 -73 35.5 -111t99.5 -38q45 0 83.5 20.5t63.5 57.5t29 86zM437 761l-135 -174h-67l114 174h88z" />
    <glyph glyph-name="wacute" unicode="&#x1e83;" horiz-adv-x="772" 
d="M594 0h-86l-130 430h16l-130 -430h-86l-158 492h77l140 -464h-29l141 464h78l140 -464h-29l140 464h74zM536 761l-135 -174h-67l114 174h88z" />
    <glyph glyph-name="yacute" unicode="&#xfd;" horiz-adv-x="537" 
d="M441 492h76l-250 -581q-21 -49 -52 -77t-94 -28h-49v64h49q32 0 52.5 16t33.5 47l26 65l-213 494h80l186 -453h-32zM419 761l-135 -174h-67l114 174h88z" />
    <glyph glyph-name="zacute" unicode="&#x17a;" horiz-adv-x="488" 
d="M450 0h-410v62l311 368h-301v62h390v-62l-311 -368h321v-62zM392 761l-135 -174h-67l114 174h88z" />
    <glyph glyph-name="ohungarumlaut" unicode="&#x151;" horiz-adv-x="614" 
d="M307 -16q-75 0 -134 34t-92.5 93t-33.5 135t33.5 135t92.5 93t134 34q76 0 134.5 -34t92 -93t33.5 -135t-33.5 -135t-92 -93t-134.5 -34zM307 49q54 0 95 25t64 69.5t23 102.5t-23 102.5t-64 69.5t-95 25t-95 -25t-64 -69.5t-23 -102.5t23 -102.5t64 -69.5t95 -25z
M408 761l-175 -174h-67l154 174h88zM584 761l-175 -174h-67l154 174h88z" />
    <glyph glyph-name="uhungarumlaut" unicode="&#x171;" horiz-adv-x="582" 
d="M512 0h-73v96l-1 28v368h74v-492zM448 213l15 -21q5 -60 -21 -107t-73.5 -74t-109.5 -27q-89 0 -142.5 53t-53.5 153v302h74v-294q0 -73 35.5 -111t99.5 -38q45 0 83.5 20.5t63.5 57.5t29 86zM388 761l-175 -174h-67l154 174h88zM564 761l-175 -174h-67l154 174h88z" />
    <glyph glyph-name="gravecomb" unicode="&#x300;" 
d="M-15 587l-135 174h88l114 -174h-67z" />
    <glyph glyph-name="gravecomb.cap" 
d="M-21 799l-155 144h98l134 -144h-77z" />
    <glyph glyph-name="gravecomb.narrow" 
d="M-14 587l-115 174h86l94 -174h-65z" />
    <glyph glyph-name="grave" unicode="`" horiz-adv-x="584" 
d="M321 587l-135 174h88l114 -174h-67z" />
    <glyph glyph-name="Agrave" unicode="&#xc0;" horiz-adv-x="727" 
d="M555 200h-389v68h389v-68zM691 0h-81l-265 669h34l-265 -669h-78l286 715h83zM342 799l-155 144h98l134 -144h-77z" />
    <glyph glyph-name="Egrave" unicode="&#xc8;" horiz-adv-x="603" 
d="M558 0h-473v715h473v-68h-396v-579h396v-68zM539 332h-387v68h387v-68zM300 799l-155 144h98l134 -144h-77z" />
    <glyph glyph-name="Igrave" unicode="&#xcc;" horiz-adv-x="247" 
d="M162 0h-77v715h77v-715zM102 799l-155 144h98l134 -144h-77z" />
    <glyph glyph-name="Ograve" unicode="&#xd2;" horiz-adv-x="852" 
d="M426 -16q-80 0 -147.5 28t-118 78.5t-78 119t-27.5 148.5t27.5 148t78 118.5t118 78.5t147.5 28t147.5 -28t118 -78.5t78 -118.5t27.5 -148t-27.5 -148.5t-78 -119t-118 -78.5t-147.5 -28zM426 54q86 0 151.5 39t102.5 108t37 157t-37 156.5t-102.5 107.5t-151.5 39
q-85 0 -151 -39t-103 -107.5t-37 -156.5t37 -157t103 -108t151 -39zM405 799l-155 144h98l134 -144h-77z" />
    <glyph glyph-name="Ugrave" unicode="&#xd9;" horiz-adv-x="722" 
d="M647 715v-433q0 -141 -76 -219.5t-210 -78.5q-133 0 -209.5 78.5t-76.5 219.5v433h77v-433q0 -111 55 -169.5t154 -58.5q100 0 155 58.5t55 169.5v433h76zM340 799l-155 144h98l134 -144h-77z" />
    <glyph glyph-name="Wgrave" unicode="&#x1e80;" horiz-adv-x="1052" 
d="M793 0h-93l-178 625h8l-178 -625h-93l-219 715h83l200 -675h-33l193 675h87l193 -675h-30l200 675h79zM505 799l-155 144h98l134 -144h-77z" />
    <glyph glyph-name="Ygrave" unicode="&#x1ef2;" horiz-adv-x="647" 
d="M362 0h-77v315l-265 400h89l229 -357h-26l229 357h86l-265 -402v-313zM302 799l-155 144h98l134 -144h-77z" />
    <glyph glyph-name="agrave" unicode="&#xe0;" horiz-adv-x="550" 
d="M487 0h-71v96l-1 28v184q0 62 -40 99t-108 37q-49 0 -88.5 -21t-69.5 -57l-52 50q41 44 92.5 68t117.5 24t115.5 -24.5t77 -68.5t27.5 -104v-311zM228 -16q-56 0 -98.5 20.5t-66 55.5t-23.5 80q0 52 29 88.5t79.5 55.5t114.5 19h162v-60h-152q-67 0 -111.5 -24.5
t-44.5 -76.5q0 -44 33 -70t87 -26q52 0 94 20.5t67.5 57.5t28.5 85l30 -17q0 -60 -29.5 -107t-81.5 -74t-118 -27zM252 587l-135 174h88l114 -174h-67z" />
    <glyph glyph-name="egrave" unicode="&#xe8;" horiz-adv-x="601" 
d="M486 140l52 -49q-39 -50 -94 -78.5t-126 -28.5q-78 0 -139.5 34t-96.5 93t-35 135t33.5 135t92.5 93t134 34q72 0 127.5 -33.5t87.5 -91.5t32 -134v-6h-76v6q0 58 -22.5 101.5t-61 68t-87.5 24.5q-54 0 -95 -25t-64 -69t-23 -102t25 -103t68.5 -70t100.5 -25
q104 0 167 91zM554 220h-445v61h429l16 -32v-29zM292 587l-135 174h88l114 -174h-67z" />
    <glyph glyph-name="igrave" unicode="&#xec;" horiz-adv-x="214" 
d="M144 0h-74v492h74v-492zM93 587l-115 174h86l94 -174h-65z" />
    <glyph glyph-name="ograve" unicode="&#xf2;" horiz-adv-x="614" 
d="M307 -16q-75 0 -134 34t-92.5 93t-33.5 135t33.5 135t92.5 93t134 34q76 0 134.5 -34t92 -93t33.5 -135t-33.5 -135t-92 -93t-134.5 -34zM307 49q54 0 95 25t64 69.5t23 102.5t-23 102.5t-64 69.5t-95 25t-95 -25t-64 -69.5t-23 -102.5t23 -102.5t64 -69.5t95 -25z
M292 587l-135 174h88l114 -174h-67z" />
    <glyph glyph-name="ugrave" unicode="&#xf9;" horiz-adv-x="582" 
d="M512 0h-73v96l-1 28v368h74v-492zM448 213l15 -21q5 -60 -21 -107t-73.5 -74t-109.5 -27q-89 0 -142.5 53t-53.5 153v302h74v-294q0 -73 35.5 -111t99.5 -38q45 0 83.5 20.5t63.5 57.5t29 86zM272 587l-135 174h88l114 -174h-67z" />
    <glyph glyph-name="wgrave" unicode="&#x1e81;" horiz-adv-x="772" 
d="M594 0h-86l-130 430h16l-130 -430h-86l-158 492h77l140 -464h-29l141 464h78l140 -464h-29l140 464h74zM371 587l-135 174h88l114 -174h-67z" />
    <glyph glyph-name="ygrave" unicode="&#x1ef3;" horiz-adv-x="537" 
d="M441 492h76l-250 -581q-21 -49 -52 -77t-94 -28h-49v64h49q32 0 52.5 16t33.5 47l26 65l-213 494h80l186 -453h-32zM254 587l-135 174h88l114 -174h-67z" />
    <glyph glyph-name="uni0302" unicode="&#x302;" 
d="M157 587h-70l-121 158h65l-121 -158h-67l124 174h66z" />
    <glyph glyph-name="uni0302.cap" 
d="M166 799h-76l-130 128h78l-129 -128h-75l133 144h66z" />
    <glyph glyph-name="uni0302.narrow" 
d="M152 587h-70l-120 157h73l-120 -157h-67l124 174h56z" />
    <glyph glyph-name="circumflex" unicode="&#x2c6;" horiz-adv-x="584" 
d="M444 587h-70l-121 158h65l-121 -158h-67l124 174h66z" />
    <glyph glyph-name="tildecomb" unicode="&#x303;" 
d="M108 720l55 -25q-10 -55 -35.5 -76.5t-55.5 -21.5q-22 0 -43 9t-42 25q-20 16 -31.5 22.5t-22.5 6.5q-15 0 -26.5 -15.5t-15.5 -47.5l-55 25q10 55 35.5 76.5t55.5 21.5q23 0 43.5 -9t41.5 -25q20 -16 32 -22.5t22 -6.5q15 0 26.5 15.5t15.5 47.5z" />
    <glyph glyph-name="tildecomb.cap" 
d="M118 911l57 -24q-10 -48 -42 -70t-64 -22q-20 0 -40.5 8.5t-41.5 22.5q-22 14 -34 21t-24 7q-16 0 -29.5 -13t-18.5 -42l-57 24q10 48 42 70t64 22q20 0 40.5 -8.5t41.5 -22.5q22 -14 34 -21t24 -7q16 0 30 13.5t18 41.5z" />
    <glyph glyph-name="tildecomb.narrow" 
d="M97 720l52 -25q-9 -55 -33 -76.5t-51 -21.5q-20 0 -39 9t-38 25q-18 16 -28.5 22.5t-19.5 6.5q-13 0 -24 -15.5t-14 -47.5l-52 25q9 55 33 76.5t51 21.5q20 0 39 -9t38 -25q18 -16 28.5 -22.5t19.5 -6.5q14 0 24.5 15.5t13.5 47.5z" />
    <glyph glyph-name="tilde" unicode="&#x2dc;" horiz-adv-x="584" 
d="M395 720l55 -25q-10 -55 -35.5 -76.5t-55.5 -21.5q-22 0 -43 9t-42 25q-20 16 -31.5 22.5t-22.5 6.5q-15 0 -26.5 -15.5t-15.5 -47.5l-55 25q10 55 35.5 76.5t55.5 21.5q23 0 43.5 -9t41.5 -25q20 -16 32 -22.5t22 -6.5q15 0 26.5 15.5t15.5 47.5z" />
    <glyph glyph-name="Acircumflex" unicode="&#xc2;" horiz-adv-x="727" 
d="M555 200h-389v68h389v-68zM691 0h-81l-265 669h34l-265 -669h-78l286 715h83zM529 799h-76l-130 128h78l-129 -128h-75l133 144h66z" />
    <glyph glyph-name="Ecircumflex" unicode="&#xca;" horiz-adv-x="603" 
d="M558 0h-473v715h473v-68h-396v-579h396v-68zM539 332h-387v68h387v-68zM487 799h-76l-130 128h78l-129 -128h-75l133 144h66z" />
    <glyph glyph-name="Icircumflex" unicode="&#xce;" horiz-adv-x="247" 
d="M162 0h-77v715h77v-715zM289 799h-76l-130 128h78l-129 -128h-75l133 144h66z" />
    <glyph glyph-name="Ocircumflex" unicode="&#xd4;" horiz-adv-x="852" 
d="M426 -16q-80 0 -147.5 28t-118 78.5t-78 119t-27.5 148.5t27.5 148t78 118.5t118 78.5t147.5 28t147.5 -28t118 -78.5t78 -118.5t27.5 -148t-27.5 -148.5t-78 -119t-118 -78.5t-147.5 -28zM426 54q86 0 151.5 39t102.5 108t37 157t-37 156.5t-102.5 107.5t-151.5 39
q-85 0 -151 -39t-103 -107.5t-37 -156.5t37 -157t103 -108t151 -39zM592 799h-76l-130 128h78l-129 -128h-75l133 144h66z" />
    <glyph glyph-name="Ucircumflex" unicode="&#xdb;" horiz-adv-x="722" 
d="M647 715v-433q0 -141 -76 -219.5t-210 -78.5q-133 0 -209.5 78.5t-76.5 219.5v433h77v-433q0 -111 55 -169.5t154 -58.5q100 0 155 58.5t55 169.5v433h76zM527 799h-76l-130 128h78l-129 -128h-75l133 144h66z" />
    <glyph glyph-name="Wcircumflex" unicode="&#x174;" horiz-adv-x="1052" 
d="M793 0h-93l-178 625h8l-178 -625h-93l-219 715h83l200 -675h-33l193 675h87l193 -675h-30l200 675h79zM692 799h-76l-130 128h78l-129 -128h-75l133 144h66z" />
    <glyph glyph-name="Ycircumflex" unicode="&#x176;" horiz-adv-x="647" 
d="M362 0h-77v315l-265 400h89l229 -357h-26l229 357h86l-265 -402v-313zM489 799h-76l-130 128h78l-129 -128h-75l133 144h66z" />
    <glyph glyph-name="Atilde" unicode="&#xc3;" horiz-adv-x="727" 
d="M555 200h-389v68h389v-68zM691 0h-81l-265 669h34l-265 -669h-78l286 715h83zM481 911l57 -24q-10 -48 -42 -70t-64 -22q-20 0 -40.5 8.5t-41.5 22.5q-22 14 -34 21t-24 7q-16 0 -29.5 -13t-18.5 -42l-57 24q10 48 42 70t64 22q20 0 40.5 -8.5t41.5 -22.5q22 -14 34 -21
t24 -7q16 0 30 13.5t18 41.5z" />
    <glyph glyph-name="Itilde" unicode="&#x128;" horiz-adv-x="247" 
d="M162 0h-77v715h77v-715zM241 911l57 -24q-10 -48 -42 -70t-64 -22q-20 0 -40.5 8.5t-41.5 22.5q-22 14 -34 21t-24 7q-16 0 -29.5 -13t-18.5 -42l-57 24q10 48 42 70t64 22q20 0 40.5 -8.5t41.5 -22.5q22 -14 34 -21t24 -7q16 0 30 13.5t18 41.5z" />
    <glyph glyph-name="Ntilde" unicode="&#xd1;" horiz-adv-x="738" 
d="M157 0h-74v715h84l430 -631h-16v631h74v-715h-84l-430 631h16v-631zM487 911l57 -24q-10 -48 -42 -70t-64 -22q-20 0 -40.5 8.5t-41.5 22.5q-22 14 -34 21t-24 7q-16 0 -29.5 -13t-18.5 -42l-57 24q10 48 42 70t64 22q20 0 40.5 -8.5t41.5 -22.5q22 -14 34 -21t24 -7
q16 0 30 13.5t18 41.5z" />
    <glyph glyph-name="Otilde" unicode="&#xd5;" horiz-adv-x="852" 
d="M426 -16q-80 0 -147.5 28t-118 78.5t-78 119t-27.5 148.5t27.5 148t78 118.5t118 78.5t147.5 28t147.5 -28t118 -78.5t78 -118.5t27.5 -148t-27.5 -148.5t-78 -119t-118 -78.5t-147.5 -28zM426 54q86 0 151.5 39t102.5 108t37 157t-37 156.5t-102.5 107.5t-151.5 39
q-85 0 -151 -39t-103 -107.5t-37 -156.5t37 -157t103 -108t151 -39zM544 911l57 -24q-10 -48 -42 -70t-64 -22q-20 0 -40.5 8.5t-41.5 22.5q-22 14 -34 21t-24 7q-16 0 -29.5 -13t-18.5 -42l-57 24q10 48 42 70t64 22q20 0 40.5 -8.5t41.5 -22.5q22 -14 34 -21t24 -7
q16 0 30 13.5t18 41.5z" />
    <glyph glyph-name="Utilde" unicode="&#x168;" horiz-adv-x="722" 
d="M647 715v-433q0 -141 -76 -219.5t-210 -78.5q-133 0 -209.5 78.5t-76.5 219.5v433h77v-433q0 -111 55 -169.5t154 -58.5q100 0 155 58.5t55 169.5v433h76zM479 911l57 -24q-10 -48 -42 -70t-64 -22q-20 0 -40.5 8.5t-41.5 22.5q-22 14 -34 21t-24 7q-16 0 -29.5 -13
t-18.5 -42l-57 24q10 48 42 70t64 22q20 0 40.5 -8.5t41.5 -22.5q22 -14 34 -21t24 -7q16 0 30 13.5t18 41.5z" />
    <glyph glyph-name="acircumflex" unicode="&#xe2;" horiz-adv-x="550" 
d="M487 0h-71v96l-1 28v184q0 62 -40 99t-108 37q-49 0 -88.5 -21t-69.5 -57l-52 50q41 44 92.5 68t117.5 24t115.5 -24.5t77 -68.5t27.5 -104v-311zM228 -16q-56 0 -98.5 20.5t-66 55.5t-23.5 80q0 52 29 88.5t79.5 55.5t114.5 19h162v-60h-152q-67 0 -111.5 -24.5
t-44.5 -76.5q0 -44 33 -70t87 -26q52 0 94 20.5t67.5 57.5t28.5 85l30 -17q0 -60 -29.5 -107t-81.5 -74t-118 -27zM424 587h-70l-121 158h65l-121 -158h-67l124 174h66z" />
    <glyph glyph-name="ecircumflex" unicode="&#xea;" horiz-adv-x="601" 
d="M486 140l52 -49q-39 -50 -94 -78.5t-126 -28.5q-78 0 -139.5 34t-96.5 93t-35 135t33.5 135t92.5 93t134 34q72 0 127.5 -33.5t87.5 -91.5t32 -134v-6h-76v6q0 58 -22.5 101.5t-61 68t-87.5 24.5q-54 0 -95 -25t-64 -69t-23 -102t25 -103t68.5 -70t100.5 -25
q104 0 167 91zM554 220h-445v61h429l16 -32v-29zM464 587h-70l-121 158h65l-121 -158h-67l124 174h66z" />
    <glyph glyph-name="icircumflex" unicode="&#xee;" horiz-adv-x="214" 
d="M144 0h-74v492h74v-492zM259 587h-70l-120 157h73l-120 -157h-67l124 174h56z" />
    <glyph glyph-name="ocircumflex" unicode="&#xf4;" horiz-adv-x="614" 
d="M307 -16q-75 0 -134 34t-92.5 93t-33.5 135t33.5 135t92.5 93t134 34q76 0 134.5 -34t92 -93t33.5 -135t-33.5 -135t-92 -93t-134.5 -34zM307 49q54 0 95 25t64 69.5t23 102.5t-23 102.5t-64 69.5t-95 25t-95 -25t-64 -69.5t-23 -102.5t23 -102.5t64 -69.5t95 -25z
M464 587h-70l-121 158h65l-121 -158h-67l124 174h66z" />
    <glyph glyph-name="ucircumflex" unicode="&#xfb;" horiz-adv-x="582" 
d="M512 0h-73v96l-1 28v368h74v-492zM448 213l15 -21q5 -60 -21 -107t-73.5 -74t-109.5 -27q-89 0 -142.5 53t-53.5 153v302h74v-294q0 -73 35.5 -111t99.5 -38q45 0 83.5 20.5t63.5 57.5t29 86zM444 587h-70l-121 158h65l-121 -158h-67l124 174h66z" />
    <glyph glyph-name="wcircumflex" unicode="&#x175;" horiz-adv-x="772" 
d="M594 0h-86l-130 430h16l-130 -430h-86l-158 492h77l140 -464h-29l141 464h78l140 -464h-29l140 464h74zM543 587h-70l-121 158h65l-121 -158h-67l124 174h66z" />
    <glyph glyph-name="ycircumflex" unicode="&#x177;" horiz-adv-x="537" 
d="M441 492h76l-250 -581q-21 -49 -52 -77t-94 -28h-49v64h49q32 0 52.5 16t33.5 47l26 65l-213 494h80l186 -453h-32zM426 587h-70l-121 158h65l-121 -158h-67l124 174h66z" />
    <glyph glyph-name="atilde" unicode="&#xe3;" horiz-adv-x="550" 
d="M487 0h-71v96l-1 28v184q0 62 -40 99t-108 37q-49 0 -88.5 -21t-69.5 -57l-52 50q41 44 92.5 68t117.5 24t115.5 -24.5t77 -68.5t27.5 -104v-311zM228 -16q-56 0 -98.5 20.5t-66 55.5t-23.5 80q0 52 29 88.5t79.5 55.5t114.5 19h162v-60h-152q-67 0 -111.5 -24.5
t-44.5 -76.5q0 -44 33 -70t87 -26q52 0 94 20.5t67.5 57.5t28.5 85l30 -17q0 -60 -29.5 -107t-81.5 -74t-118 -27zM375 720l55 -25q-10 -55 -35.5 -76.5t-55.5 -21.5q-22 0 -43 9t-42 25q-20 16 -31.5 22.5t-22.5 6.5q-15 0 -26.5 -15.5t-15.5 -47.5l-55 25q10 55 35.5 76.5
t55.5 21.5q23 0 43.5 -9t41.5 -25q20 -16 32 -22.5t22 -6.5q15 0 26.5 15.5t15.5 47.5z" />
    <glyph glyph-name="itilde" unicode="&#x129;" horiz-adv-x="214" 
d="M144 0h-74v492h74v-492zM204 720l52 -25q-9 -55 -33 -76.5t-51 -21.5q-20 0 -39 9t-38 25q-18 16 -28.5 22.5t-19.5 6.5q-13 0 -24 -15.5t-14 -47.5l-52 25q9 55 33 76.5t51 21.5q20 0 39 -9t38 -25q18 -16 28.5 -22.5t19.5 -6.5q14 0 24.5 15.5t13.5 47.5z" />
    <glyph glyph-name="ntilde" unicode="&#xf1;" horiz-adv-x="584" 
d="M521 0h-74v284q0 79 -36 119t-97 40q-44 0 -83 -23t-63 -72t-24 -127v-221h-74v492h73v-149h-13q12 61 41.5 97t70 52t85.5 16q90 0 142 -55.5t52 -160.5v-292zM419 720l55 -25q-10 -55 -35.5 -76.5t-55.5 -21.5q-22 0 -43 9t-42 25q-20 16 -31.5 22.5t-22.5 6.5
q-15 0 -26.5 -15.5t-15.5 -47.5l-55 25q10 55 35.5 76.5t55.5 21.5q23 0 43.5 -9t41.5 -25q20 -16 32 -22.5t22 -6.5q15 0 26.5 15.5t15.5 47.5z" />
    <glyph glyph-name="otilde" unicode="&#xf5;" horiz-adv-x="614" 
d="M307 -16q-75 0 -134 34t-92.5 93t-33.5 135t33.5 135t92.5 93t134 34q76 0 134.5 -34t92 -93t33.5 -135t-33.5 -135t-92 -93t-134.5 -34zM307 49q54 0 95 25t64 69.5t23 102.5t-23 102.5t-64 69.5t-95 25t-95 -25t-64 -69.5t-23 -102.5t23 -102.5t64 -69.5t95 -25z
M415 720l55 -25q-10 -55 -35.5 -76.5t-55.5 -21.5q-22 0 -43 9t-42 25q-20 16 -31.5 22.5t-22.5 6.5q-15 0 -26.5 -15.5t-15.5 -47.5l-55 25q10 55 35.5 76.5t55.5 21.5q23 0 43.5 -9t41.5 -25q20 -16 32 -22.5t22 -6.5q15 0 26.5 15.5t15.5 47.5z" />
    <glyph glyph-name="utilde" unicode="&#x169;" horiz-adv-x="582" 
d="M512 0h-73v96l-1 28v368h74v-492zM448 213l15 -21q5 -60 -21 -107t-73.5 -74t-109.5 -27q-89 0 -142.5 53t-53.5 153v302h74v-294q0 -73 35.5 -111t99.5 -38q45 0 83.5 20.5t63.5 57.5t29 86zM395 720l55 -25q-10 -55 -35.5 -76.5t-55.5 -21.5q-22 0 -43 9t-42 25
q-20 16 -31.5 22.5t-22.5 6.5q-15 0 -26.5 -15.5t-15.5 -47.5l-55 25q10 55 35.5 76.5t55.5 21.5q23 0 43.5 -9t41.5 -25q20 -16 32 -22.5t22 -6.5q15 0 26.5 15.5t15.5 47.5z" />
    <glyph glyph-name="uni030C" unicode="&#x30c;" 
d="M-157 761h70l121 -158h-65l121 158h67l-124 -174h-66z" />
    <glyph glyph-name="uni030C.cap" 
d="M-166 943h76l130 -128h-78l129 128h75l-133 -144h-66z" />
    <glyph glyph-name="caron" unicode="&#x2c7;" horiz-adv-x="584" 
d="M130 761h70l121 -158h-65l121 158h67l-124 -174h-66z" />
    <glyph glyph-name="uni0315" unicode="&#x315;" 
d="M-1 523h-47q21 29 33 63.5t10 58.5l8 -16q-22 0 -36.5 14.5t-14.5 36.5q0 21 14.5 36t34.5 15q24 0 39.5 -17t15.5 -44q0 -22 -8 -48.5t-21 -52.5t-28 -46z" />
    <glyph glyph-name="uni0315.short" 
d="M8 554h-55q16 26 27.5 53.5t9.5 46.5l18 -21q-23 0 -39.5 14.5t-16.5 34.5t14.5 34.5t35.5 14.5q24 0 39 -16t15 -41q0 -29 -15 -61.5t-33 -58.5z" />
    <glyph glyph-name="uni0304" unicode="&#x304;" 
d="M139 622h-278v61h278v-61z" />
    <glyph glyph-name="uni0304.cap" 
d="M150 826h-300v64h300v-64z" />
    <glyph glyph-name="uni0304.narrow" 
d="M125 622h-250v61h250v-61z" />
    <glyph glyph-name="macron" unicode="&#xaf;" horiz-adv-x="584" 
d="M426 622h-278v61h278v-61z" />
    <glyph glyph-name="Ccaron" unicode="&#x10c;" horiz-adv-x="739" 
d="M642 173l56 -53q-46 -63 -120.5 -99.5t-163.5 -36.5q-77 0 -142.5 28t-114 78.5t-75.5 118.5t-27 148t27.5 148.5t76.5 119t114.5 78.5t142.5 28q89 0 162.5 -36.5t119.5 -99.5l-56 -53q-37 55 -94 87t-132 32q-80 0 -143.5 -39.5t-100.5 -108t-37 -156.5
q0 -87 37 -155.5t100.5 -108t143.5 -39.5q75 0 132 32t94 87zM250 943h76l130 -128h-78l129 128h75l-133 -144h-66z" />
    <glyph glyph-name="Dcaron" unicode="&#x10e;" horiz-adv-x="741" 
d="M85 0v715h231q110 0 193.5 -46t130.5 -126.5t47 -184.5t-47 -185t-130.5 -127t-193.5 -46h-231zM162 70h154q89 0 154.5 36t101 101t35.5 151t-35.5 150.5t-101 100.5t-154.5 36h-154v-575zM174 943h76l130 -128h-78l129 128h75l-133 -144h-66z" />
    <glyph glyph-name="Ecaron" unicode="&#x11a;" horiz-adv-x="603" 
d="M558 0h-473v715h473v-68h-396v-579h396v-68zM539 332h-387v68h387v-68zM155 943h76l130 -128h-78l129 128h75l-133 -144h-66z" />
    <glyph glyph-name="Lcaron" unicode="&#x13d;" horiz-adv-x="564" 
d="M528 0h-443v715h77v-646h366v-69zM372 523h-47q21 29 33 63.5t10 58.5l8 -16q-22 0 -36.5 14.5t-14.5 36.5q0 21 14.5 36t34.5 15q24 0 39.5 -17t15.5 -44q0 -22 -8 -48.5t-21 -52.5t-28 -46z" />
    <glyph glyph-name="Ncaron" unicode="&#x147;" horiz-adv-x="738" 
d="M157 0h-74v715h84l430 -631h-16v631h74v-715h-84l-430 631h16v-631zM203 943h76l130 -128h-78l129 128h75l-133 -144h-66z" />
    <glyph glyph-name="Rcaron" unicode="&#x158;" horiz-adv-x="687" 
d="M162 0h-77v715h277q71 0 123.5 -25t82 -70t29.5 -105t-29.5 -105t-82 -70t-123.5 -25h-210v68h210q73 0 114.5 35t41.5 97t-41.5 97t-114.5 35h-200v-647zM667 0h-99l-275 333h90zM161 943h76l130 -128h-78l129 128h75l-133 -144h-66z" />
    <glyph glyph-name="Scaron" unicode="&#x160;" horiz-adv-x="679" 
d="M43 116l57 54q31 -36 69 -62t82.5 -40t96.5 -14q58 0 103 18t71 50.5t26 76.5q0 56 -47 87.5t-160 48.5q-98 15 -156.5 39.5t-84.5 61.5t-26 89q0 61 34 107.5t94 72.5t138 26q89 0 157.5 -35t121.5 -97l-56 -53q-43 53 -94.5 84t-128.5 31q-82 0 -134 -36.5t-52 -98.5
q0 -32 19 -54.5t62 -37.5t114 -26q102 -15 163 -41.5t88.5 -67.5t27.5 -99q0 -64 -35.5 -112.5t-98.5 -76t-146 -27.5q-96 0 -171.5 35t-133.5 97zM174 943h76l130 -128h-78l129 128h75l-133 -144h-66z" />
    <glyph glyph-name="Tcaron" unicode="&#x164;" horiz-adv-x="625" 
d="M351 0h-77v656h77v-656zM589 646h-553v69h553v-69zM146 943h76l130 -128h-78l129 128h75l-133 -144h-66z" />
    <glyph glyph-name="Zcaron" unicode="&#x17d;" horiz-adv-x="609" 
d="M566 0h-522v69l420 577h-407v69h497v-69l-420 -577h432v-69zM139 943h76l130 -128h-78l129 128h75l-133 -144h-66z" />
    <glyph glyph-name="Amacron" unicode="&#x100;" horiz-adv-x="727" 
d="M555 200h-389v68h389v-68zM691 0h-81l-265 669h34l-265 -669h-78l286 715h83zM513 826h-300v64h300v-64z" />
    <glyph glyph-name="Emacron" unicode="&#x112;" horiz-adv-x="603" 
d="M558 0h-473v715h473v-68h-396v-579h396v-68zM539 332h-387v68h387v-68zM471 826h-300v64h300v-64z" />
    <glyph glyph-name="Imacron" unicode="&#x12a;" horiz-adv-x="247" 
d="M162 0h-77v715h77v-715zM273 826h-300v64h300v-64z" />
    <glyph glyph-name="Umacron" unicode="&#x16a;" horiz-adv-x="722" 
d="M647 715v-433q0 -141 -76 -219.5t-210 -78.5q-133 0 -209.5 78.5t-76.5 219.5v433h77v-433q0 -111 55 -169.5t154 -58.5q100 0 155 58.5t55 169.5v433h76zM511 826h-300v64h300v-64z" />
    <glyph glyph-name="ccaron" unicode="&#x10d;" horiz-adv-x="545" 
d="M455 128l53 -49q-34 -44 -85.5 -69.5t-116.5 -25.5q-75 0 -133.5 34t-92 93t-33.5 135t33.5 135t92.5 93t134 34q65 0 116 -25.5t85 -69.5l-53 -49q-24 36 -60 57.5t-88 21.5q-54 0 -95 -25t-64 -69.5t-23 -102.5t23 -102.5t64 -69.5t95 -25q52 0 88 21.5t60 57.5z
M150 761h70l121 -158h-65l121 158h67l-124 -174h-66z" />
    <glyph glyph-name="dcaron" unicode="&#x10f;" horiz-adv-x="740" 
d="M563 0h-73v134l-1 1v96q0 63 -23 110.5t-64.5 74.5t-95.5 27q-53 0 -94 -25.5t-64 -70t-23 -101.5t23.5 -101.5t65 -70t95.5 -25.5q51 0 92.5 21t67.5 58.5t30 84.5l14 -20q8 -59 -18 -106.5t-76.5 -75t-117.5 -27.5q-74 0 -131.5 34t-90 93t-32.5 135q0 75 32.5 134
t89 93.5t128.5 34.5q54 0 98.5 -20.5t74.5 -57.5t38 -87h-19v377h74v-720zM668 523h-47q21 29 33 63.5t10 58.5l8 -16q-22 0 -36.5 14.5t-14.5 36.5q0 21 14.5 36t34.5 15q24 0 39.5 -17t15.5 -44q0 -22 -8 -48.5t-21 -52.5t-28 -46z" />
    <glyph glyph-name="ecaron" unicode="&#x11b;" horiz-adv-x="601" 
d="M486 140l52 -49q-39 -50 -94 -78.5t-126 -28.5q-78 0 -139.5 34t-96.5 93t-35 135t33.5 135t92.5 93t134 34q72 0 127.5 -33.5t87.5 -91.5t32 -134v-6h-76v6q0 58 -22.5 101.5t-61 68t-87.5 24.5q-54 0 -95 -25t-64 -69t-23 -102t25 -103t68.5 -70t100.5 -25
q104 0 167 91zM554 220h-445v61h429l16 -32v-29zM150 761h70l121 -158h-65l121 158h67l-124 -174h-66z" />
    <glyph glyph-name="lcaron" unicode="&#x13e;" horiz-adv-x="321" 
d="M144 0h-74v720h74v-720zM249 523h-47q21 29 33 63.5t10 58.5l8 -16q-22 0 -36.5 14.5t-14.5 36.5q0 21 14.5 36t34.5 15q24 0 39.5 -17t15.5 -44q0 -22 -8 -48.5t-21 -52.5t-28 -46z" />
    <glyph glyph-name="ncaron" unicode="&#x148;" horiz-adv-x="584" 
d="M521 0h-74v284q0 79 -36 119t-97 40q-44 0 -83 -23t-63 -72t-24 -127v-221h-74v492h73v-149h-13q12 61 41.5 97t70 52t85.5 16q90 0 142 -55.5t52 -160.5v-292zM154 761h70l121 -158h-65l121 158h67l-124 -174h-66z" />
    <glyph glyph-name="rcaron" unicode="&#x159;" horiz-adv-x="364" 
d="M334 500v-72h-20q-44 0 -83 -23t-63 -72t-24 -127v-206h-74v492h73v-156h-13q12 60 42 96t69.5 52t81.5 16h11zM51 761h70l121 -158h-65l121 158h67l-124 -174h-66z" />
    <glyph glyph-name="scaron" unicode="&#x161;" horiz-adv-x="514" 
d="M28 76l52 50q35 -37 79 -58t99 -21q60 0 98.5 25.5t38.5 65.5q0 35 -32.5 54.5t-109.5 30.5q-112 16 -157.5 48.5t-45.5 87.5q0 45 26 78.5t72 52t105 18.5q66 0 118 -24t92 -68l-52 -50q-30 37 -69 58t-89 21q-55 0 -91 -23t-36 -61q0 -28 30.5 -44.5t103.5 -26.5
q116 -16 163.5 -51.5t47.5 -98.5q0 -46 -27.5 -81.5t-75.5 -55t-110 -19.5q-72 0 -128.5 24.5t-101.5 67.5zM96 761h70l121 -158h-65l121 158h67l-124 -174h-66z" />
    <glyph glyph-name="tcaron" unicode="&#x165;" horiz-adv-x="392" 
d="M357 0h-116q-52 0 -80.5 28.5t-28.5 80.5v527h74v-521q0 -24 13 -37.5t38 -13.5h100v-64zM350 429h-320v63h320v-63zM321 554h-55q16 26 27.5 53.5t9.5 46.5l18 -21q-23 0 -39.5 14.5t-16.5 34.5t14.5 34.5t35.5 14.5q24 0 39 -16t15 -41q0 -29 -15 -61.5t-33 -58.5z" />
    <glyph glyph-name="zcaron" unicode="&#x17e;" horiz-adv-x="488" 
d="M450 0h-410v62l311 368h-301v62h390v-62l-311 -368h321v-62zM85 761h70l121 -158h-65l121 158h67l-124 -174h-66z" />
    <glyph glyph-name="amacron" unicode="&#x101;" horiz-adv-x="550" 
d="M487 0h-71v96l-1 28v184q0 62 -40 99t-108 37q-49 0 -88.5 -21t-69.5 -57l-52 50q41 44 92.5 68t117.5 24t115.5 -24.5t77 -68.5t27.5 -104v-311zM228 -16q-56 0 -98.5 20.5t-66 55.5t-23.5 80q0 52 29 88.5t79.5 55.5t114.5 19h162v-60h-152q-67 0 -111.5 -24.5
t-44.5 -76.5q0 -44 33 -70t87 -26q52 0 94 20.5t67.5 57.5t28.5 85l30 -17q0 -60 -29.5 -107t-81.5 -74t-118 -27zM406 622h-278v61h278v-61z" />
    <glyph glyph-name="emacron" unicode="&#x113;" horiz-adv-x="601" 
d="M486 140l52 -49q-39 -50 -94 -78.5t-126 -28.5q-78 0 -139.5 34t-96.5 93t-35 135t33.5 135t92.5 93t134 34q72 0 127.5 -33.5t87.5 -91.5t32 -134v-6h-76v6q0 58 -22.5 101.5t-61 68t-87.5 24.5q-54 0 -95 -25t-64 -69t-23 -102t25 -103t68.5 -70t100.5 -25
q104 0 167 91zM554 220h-445v61h429l16 -32v-29zM446 622h-278v61h278v-61z" />
    <glyph glyph-name="imacron" unicode="&#x12b;" horiz-adv-x="214" 
d="M144 0h-74v492h74v-492zM232 622h-250v61h250v-61z" />
    <glyph glyph-name="umacron" unicode="&#x16b;" horiz-adv-x="582" 
d="M512 0h-73v96l-1 28v368h74v-492zM448 213l15 -21q5 -60 -21 -107t-73.5 -74t-109.5 -27q-89 0 -142.5 53t-53.5 153v302h74v-294q0 -73 35.5 -111t99.5 -38q45 0 83.5 20.5t63.5 57.5t29 86zM426 622h-278v61h278v-61z" />
    <glyph glyph-name="uni0308" unicode="&#x308;" 
d="M101 624q-22 0 -38 15.5t-16 37.5q0 23 16 38.5t38 15.5q23 0 38.5 -15.5t15.5 -38.5q0 -22 -15.5 -37.5t-38.5 -15.5zM-101 624q-22 0 -38 15.5t-16 37.5q0 23 16 38.5t38 15.5q23 0 38.5 -15.5t15.5 -38.5q0 -22 -15.5 -37.5t-38.5 -15.5z" />
    <glyph glyph-name="uni0308.cap" 
d="M106 811q-23 0 -39 16t-16 38q0 23 16 39t39 16t39 -16t16 -39q0 -22 -16 -38t-39 -16zM-106 811q-23 0 -39 16t-16 38q0 23 16 39t39 16t39 -16t16 -39q0 -22 -16 -38t-39 -16z" />
    <glyph glyph-name="uni0308.narrow" 
d="M81 624q-22 0 -38 15.5t-16 37.5q0 23 16 38.5t38 15.5q23 0 38.5 -15.5t15.5 -38.5q0 -22 -15.5 -37.5t-38.5 -15.5zM-81 624q-22 0 -38 15.5t-16 37.5q0 23 16 38.5t38 15.5q23 0 38.5 -15.5t15.5 -38.5q0 -22 -15.5 -37.5t-38.5 -15.5z" />
    <glyph glyph-name="dieresis" unicode="&#xa8;" horiz-adv-x="584" 
d="M388 624q-22 0 -38 15.5t-16 37.5q0 23 16 38.5t38 15.5q23 0 38.5 -15.5t15.5 -38.5q0 -22 -15.5 -37.5t-38.5 -15.5zM186 624q-22 0 -38 15.5t-16 37.5q0 23 16 38.5t38 15.5q23 0 38.5 -15.5t15.5 -38.5q0 -22 -15.5 -37.5t-38.5 -15.5z" />
    <glyph glyph-name="uni0306" unicode="&#x306;" 
d="M0 582q-59 0 -102 41t-49 109h62q6 -46 30.5 -69.5t58.5 -23.5t58.5 23.5t30.5 69.5h62q-6 -68 -49 -109t-102 -41z" />
    <glyph glyph-name="uni0306.cap" 
d="M0 795q-66 0 -110.5 38.5t-50.5 100.5h64q5 -37 31.5 -58t65.5 -21t65.5 21t31.5 58h64q-6 -62 -50.5 -100.5t-110.5 -38.5z" />
    <glyph glyph-name="breve" unicode="&#x2d8;" horiz-adv-x="584" 
d="M287 582q-59 0 -102 41t-49 109h62q6 -46 30.5 -69.5t58.5 -23.5t58.5 23.5t30.5 69.5h62q-6 -68 -49 -109t-102 -41z" />
    <glyph glyph-name="Adieresis" unicode="&#xc4;" horiz-adv-x="727" 
d="M555 200h-389v68h389v-68zM691 0h-81l-265 669h34l-265 -669h-78l286 715h83zM469 811q-23 0 -39 16t-16 38q0 23 16 39t39 16t39 -16t16 -39q0 -22 -16 -38t-39 -16zM257 811q-23 0 -39 16t-16 38q0 23 16 39t39 16t39 -16t16 -39q0 -22 -16 -38t-39 -16z" />
    <glyph glyph-name="Edieresis" unicode="&#xcb;" horiz-adv-x="603" 
d="M558 0h-473v715h473v-68h-396v-579h396v-68zM539 332h-387v68h387v-68zM427 811q-23 0 -39 16t-16 38q0 23 16 39t39 16t39 -16t16 -39q0 -22 -16 -38t-39 -16zM215 811q-23 0 -39 16t-16 38q0 23 16 39t39 16t39 -16t16 -39q0 -22 -16 -38t-39 -16z" />
    <glyph glyph-name="Idieresis" unicode="&#xcf;" horiz-adv-x="247" 
d="M162 0h-77v715h77v-715zM229 811q-23 0 -39 16t-16 38q0 23 16 39t39 16t39 -16t16 -39q0 -22 -16 -38t-39 -16zM17 811q-23 0 -39 16t-16 38q0 23 16 39t39 16t39 -16t16 -39q0 -22 -16 -38t-39 -16z" />
    <glyph glyph-name="Odieresis" unicode="&#xd6;" horiz-adv-x="852" 
d="M426 -16q-80 0 -147.5 28t-118 78.5t-78 119t-27.5 148.5t27.5 148t78 118.5t118 78.5t147.5 28t147.5 -28t118 -78.5t78 -118.5t27.5 -148t-27.5 -148.5t-78 -119t-118 -78.5t-147.5 -28zM426 54q86 0 151.5 39t102.5 108t37 157t-37 156.5t-102.5 107.5t-151.5 39
q-85 0 -151 -39t-103 -107.5t-37 -156.5t37 -157t103 -108t151 -39zM532 811q-23 0 -39 16t-16 38q0 23 16 39t39 16t39 -16t16 -39q0 -22 -16 -38t-39 -16zM320 811q-23 0 -39 16t-16 38q0 23 16 39t39 16t39 -16t16 -39q0 -22 -16 -38t-39 -16z" />
    <glyph glyph-name="Udieresis" unicode="&#xdc;" horiz-adv-x="722" 
d="M647 715v-433q0 -141 -76 -219.5t-210 -78.5q-133 0 -209.5 78.5t-76.5 219.5v433h77v-433q0 -111 55 -169.5t154 -58.5q100 0 155 58.5t55 169.5v433h76zM467 811q-23 0 -39 16t-16 38q0 23 16 39t39 16t39 -16t16 -39q0 -22 -16 -38t-39 -16zM255 811q-23 0 -39 16
t-16 38q0 23 16 39t39 16t39 -16t16 -39q0 -22 -16 -38t-39 -16z" />
    <glyph glyph-name="Wdieresis" unicode="&#x1e84;" horiz-adv-x="1052" 
d="M793 0h-93l-178 625h8l-178 -625h-93l-219 715h83l200 -675h-33l193 675h87l193 -675h-30l200 675h79zM632 811q-23 0 -39 16t-16 38q0 23 16 39t39 16t39 -16t16 -39q0 -22 -16 -38t-39 -16zM420 811q-23 0 -39 16t-16 38q0 23 16 39t39 16t39 -16t16 -39q0 -22 -16 -38
t-39 -16z" />
    <glyph glyph-name="Ydieresis" unicode="&#x178;" horiz-adv-x="647" 
d="M362 0h-77v315l-265 400h89l229 -357h-26l229 357h86l-265 -402v-313zM429 811q-23 0 -39 16t-16 38q0 23 16 39t39 16t39 -16t16 -39q0 -22 -16 -38t-39 -16zM217 811q-23 0 -39 16t-16 38q0 23 16 39t39 16t39 -16t16 -39q0 -22 -16 -38t-39 -16z" />
    <glyph glyph-name="Abreve" unicode="&#x102;" horiz-adv-x="727" 
d="M555 200h-389v68h389v-68zM691 0h-81l-265 669h34l-265 -669h-78l286 715h83zM363 795q-66 0 -110.5 38.5t-50.5 100.5h64q5 -37 31.5 -58t65.5 -21t65.5 21t31.5 58h64q-6 -62 -50.5 -100.5t-110.5 -38.5z" />
    <glyph glyph-name="Gbreve" unicode="&#x11e;" horiz-adv-x="797" 
d="M736 0h-74v106l12 -4q-37 -55 -102.5 -86.5t-145.5 -31.5t-147.5 28t-118 78.5t-78 119t-27.5 148.5t27.5 148t77.5 118.5t117 78.5t146 28q92 0 166 -36.5t122 -99.5l-56 -53q-38 55 -95.5 87t-136.5 32q-83 0 -148.5 -39.5t-102.5 -108t-37 -155.5t37.5 -156
t103.5 -108.5t151 -39.5t150 37.5t93 98.5l-9 -38v152h-242v68h317v-372zM423 795q-66 0 -110.5 38.5t-50.5 100.5h64q5 -37 31.5 -58t65.5 -21t65.5 21t31.5 58h64q-6 -62 -50.5 -100.5t-110.5 -38.5z" />
    <glyph glyph-name="adieresis" unicode="&#xe4;" horiz-adv-x="550" 
d="M487 0h-71v96l-1 28v184q0 62 -40 99t-108 37q-49 0 -88.5 -21t-69.5 -57l-52 50q41 44 92.5 68t117.5 24t115.5 -24.5t77 -68.5t27.5 -104v-311zM228 -16q-56 0 -98.5 20.5t-66 55.5t-23.5 80q0 52 29 88.5t79.5 55.5t114.5 19h162v-60h-152q-67 0 -111.5 -24.5
t-44.5 -76.5q0 -44 33 -70t87 -26q52 0 94 20.5t67.5 57.5t28.5 85l30 -17q0 -60 -29.5 -107t-81.5 -74t-118 -27zM368 624q-22 0 -38 15.5t-16 37.5q0 23 16 38.5t38 15.5q23 0 38.5 -15.5t15.5 -38.5q0 -22 -15.5 -37.5t-38.5 -15.5zM166 624q-22 0 -38 15.5t-16 37.5
q0 23 16 38.5t38 15.5q23 0 38.5 -15.5t15.5 -38.5q0 -22 -15.5 -37.5t-38.5 -15.5z" />
    <glyph glyph-name="edieresis" unicode="&#xeb;" horiz-adv-x="601" 
d="M486 140l52 -49q-39 -50 -94 -78.5t-126 -28.5q-78 0 -139.5 34t-96.5 93t-35 135t33.5 135t92.5 93t134 34q72 0 127.5 -33.5t87.5 -91.5t32 -134v-6h-76v6q0 58 -22.5 101.5t-61 68t-87.5 24.5q-54 0 -95 -25t-64 -69t-23 -102t25 -103t68.5 -70t100.5 -25
q104 0 167 91zM554 220h-445v61h429l16 -32v-29zM408 624q-22 0 -38 15.5t-16 37.5q0 23 16 38.5t38 15.5q23 0 38.5 -15.5t15.5 -38.5q0 -22 -15.5 -37.5t-38.5 -15.5zM206 624q-22 0 -38 15.5t-16 37.5q0 23 16 38.5t38 15.5q23 0 38.5 -15.5t15.5 -38.5
q0 -22 -15.5 -37.5t-38.5 -15.5z" />
    <glyph glyph-name="idieresis" unicode="&#xef;" horiz-adv-x="214" 
d="M144 0h-74v492h74v-492zM188 624q-22 0 -38 15.5t-16 37.5q0 23 16 38.5t38 15.5q23 0 38.5 -15.5t15.5 -38.5q0 -22 -15.5 -37.5t-38.5 -15.5zM26 624q-22 0 -38 15.5t-16 37.5q0 23 16 38.5t38 15.5q23 0 38.5 -15.5t15.5 -38.5q0 -22 -15.5 -37.5t-38.5 -15.5z" />
    <glyph glyph-name="odieresis" unicode="&#xf6;" horiz-adv-x="614" 
d="M307 -16q-75 0 -134 34t-92.5 93t-33.5 135t33.5 135t92.5 93t134 34q76 0 134.5 -34t92 -93t33.5 -135t-33.5 -135t-92 -93t-134.5 -34zM307 49q54 0 95 25t64 69.5t23 102.5t-23 102.5t-64 69.5t-95 25t-95 -25t-64 -69.5t-23 -102.5t23 -102.5t64 -69.5t95 -25z
M408 624q-22 0 -38 15.5t-16 37.5q0 23 16 38.5t38 15.5q23 0 38.5 -15.5t15.5 -38.5q0 -22 -15.5 -37.5t-38.5 -15.5zM206 624q-22 0 -38 15.5t-16 37.5q0 23 16 38.5t38 15.5q23 0 38.5 -15.5t15.5 -38.5q0 -22 -15.5 -37.5t-38.5 -15.5z" />
    <glyph glyph-name="udieresis" unicode="&#xfc;" horiz-adv-x="582" 
d="M512 0h-73v96l-1 28v368h74v-492zM448 213l15 -21q5 -60 -21 -107t-73.5 -74t-109.5 -27q-89 0 -142.5 53t-53.5 153v302h74v-294q0 -73 35.5 -111t99.5 -38q45 0 83.5 20.5t63.5 57.5t29 86zM388 624q-22 0 -38 15.5t-16 37.5q0 23 16 38.5t38 15.5q23 0 38.5 -15.5
t15.5 -38.5q0 -22 -15.5 -37.5t-38.5 -15.5zM186 624q-22 0 -38 15.5t-16 37.5q0 23 16 38.5t38 15.5q23 0 38.5 -15.5t15.5 -38.5q0 -22 -15.5 -37.5t-38.5 -15.5z" />
    <glyph glyph-name="wdieresis" unicode="&#x1e85;" horiz-adv-x="772" 
d="M594 0h-86l-130 430h16l-130 -430h-86l-158 492h77l140 -464h-29l141 464h78l140 -464h-29l140 464h74zM487 624q-22 0 -38 15.5t-16 37.5q0 23 16 38.5t38 15.5q23 0 38.5 -15.5t15.5 -38.5q0 -22 -15.5 -37.5t-38.5 -15.5zM285 624q-22 0 -38 15.5t-16 37.5
q0 23 16 38.5t38 15.5q23 0 38.5 -15.5t15.5 -38.5q0 -22 -15.5 -37.5t-38.5 -15.5z" />
    <glyph glyph-name="ydieresis" unicode="&#xff;" horiz-adv-x="537" 
d="M441 492h76l-250 -581q-21 -49 -52 -77t-94 -28h-49v64h49q32 0 52.5 16t33.5 47l26 65l-213 494h80l186 -453h-32zM370 624q-22 0 -38 15.5t-16 37.5q0 23 16 38.5t38 15.5q23 0 38.5 -15.5t15.5 -38.5q0 -22 -15.5 -37.5t-38.5 -15.5zM168 624q-22 0 -38 15.5t-16 37.5
q0 23 16 38.5t38 15.5q23 0 38.5 -15.5t15.5 -38.5q0 -22 -15.5 -37.5t-38.5 -15.5z" />
    <glyph glyph-name="abreve" unicode="&#x103;" horiz-adv-x="550" 
d="M487 0h-71v96l-1 28v184q0 62 -40 99t-108 37q-49 0 -88.5 -21t-69.5 -57l-52 50q41 44 92.5 68t117.5 24t115.5 -24.5t77 -68.5t27.5 -104v-311zM228 -16q-56 0 -98.5 20.5t-66 55.5t-23.5 80q0 52 29 88.5t79.5 55.5t114.5 19h162v-60h-152q-67 0 -111.5 -24.5
t-44.5 -76.5q0 -44 33 -70t87 -26q52 0 94 20.5t67.5 57.5t28.5 85l30 -17q0 -60 -29.5 -107t-81.5 -74t-118 -27zM267 582q-59 0 -102 41t-49 109h62q6 -46 30.5 -69.5t58.5 -23.5t58.5 23.5t30.5 69.5h62q-6 -68 -49 -109t-102 -41z" />
    <glyph glyph-name="gbreve" unicode="&#x11f;" horiz-adv-x="633" 
d="M563 42q0 -73 -33.5 -130t-91 -89.5t-131.5 -32.5q-70 0 -126.5 25.5t-93.5 69.5l52 50q27 -37 68 -58.5t100 -21.5q54 0 95 24t64 66t23 97v189q0 70 -26 117t-67.5 71t-89.5 24q-53 0 -94 -25.5t-64 -69t-23 -98.5q0 -56 23 -99t64.5 -67.5t96.5 -24.5q50 0 91.5 21
t68 58t30.5 85l15 -20q8 -61 -19 -108t-78 -74t-116 -27q-73 0 -130.5 32.5t-90.5 90.5t-33 133t33.5 133t90 91.5t126.5 33.5q49 0 93.5 -18t76 -54.5t41.5 -92.5h-18v149h73v-450zM307 582q-59 0 -102 41t-49 109h62q6 -46 30.5 -69.5t58.5 -23.5t58.5 23.5t30.5 69.5h62
q-6 -68 -49 -109t-102 -41z" />
    <glyph glyph-name="uni0307" unicode="&#x307;" 
d="M0 624q-22 0 -38 15.5t-16 37.5q0 23 16 38.5t38 15.5q23 0 38.5 -15.5t15.5 -38.5q0 -22 -15.5 -37.5t-38.5 -15.5z" />
    <glyph glyph-name="uni0307.cap" 
d="M0 809q-25 0 -41 16t-16 40q0 25 16 41t41 16t41 -16t16 -41q0 -24 -16 -40t-41 -16z" />
    <glyph glyph-name="dotaccent" unicode="&#x2d9;" horiz-adv-x="584" 
d="M287 624q-22 0 -38 15.5t-16 37.5q0 23 16 38.5t38 15.5q23 0 38.5 -15.5t15.5 -38.5q0 -22 -15.5 -37.5t-38.5 -15.5z" />
    <glyph glyph-name="Edotaccent" unicode="&#x116;" horiz-adv-x="603" 
d="M558 0h-473v715h473v-68h-396v-579h396v-68zM539 332h-387v68h387v-68zM321 809q-25 0 -41 16t-16 40q0 25 16 41t41 16t41 -16t16 -41q0 -24 -16 -40t-41 -16z" />
    <glyph glyph-name="Idotaccent" unicode="&#x130;" horiz-adv-x="247" 
d="M162 0h-77v715h77v-715zM123 809q-25 0 -41 16t-16 40q0 25 16 41t41 16t41 -16t16 -41q0 -24 -16 -40t-41 -16z" />
    <glyph glyph-name="Cdotaccent" unicode="&#x10a;" horiz-adv-x="739" 
d="M642 173l56 -53q-46 -63 -120.5 -99.5t-163.5 -36.5q-77 0 -142.5 28t-114 78.5t-75.5 118.5t-27 148t27.5 148.5t76.5 119t114.5 78.5t142.5 28q89 0 162.5 -36.5t119.5 -99.5l-56 -53q-37 55 -94 87t-132 32q-80 0 -143.5 -39.5t-100.5 -108t-37 -156.5
q0 -87 37 -155.5t100.5 -108t143.5 -39.5q75 0 132 32t94 87zM416 809q-25 0 -41 16t-16 40q0 25 16 41t41 16t41 -16t16 -41q0 -24 -16 -40t-41 -16z" />
    <glyph glyph-name="Gdotaccent" unicode="&#x120;" horiz-adv-x="797" 
d="M736 0h-74v106l12 -4q-37 -55 -102.5 -86.5t-145.5 -31.5t-147.5 28t-118 78.5t-78 119t-27.5 148.5t27.5 148t77.5 118.5t117 78.5t146 28q92 0 166 -36.5t122 -99.5l-56 -53q-38 55 -95.5 87t-136.5 32q-83 0 -148.5 -39.5t-102.5 -108t-37 -155.5t37.5 -156
t103.5 -108.5t151 -39.5t150 37.5t93 98.5l-9 -38v152h-242v68h317v-372zM423 809q-25 0 -41 16t-16 40q0 25 16 41t41 16t41 -16t16 -41q0 -24 -16 -40t-41 -16z" />
    <glyph glyph-name="Zdotaccent" unicode="&#x17b;" horiz-adv-x="609" 
d="M566 0h-522v69l420 577h-407v69h497v-69l-420 -577h432v-69zM305 809q-25 0 -41 16t-16 40q0 25 16 41t41 16t41 -16t16 -41q0 -24 -16 -40t-41 -16z" />
    <glyph glyph-name="uni1E24" unicode="&#x1e24;" horiz-adv-x="742" 
d="M580 0v715h77v-715h-77zM162 0h-77v715h77v-715zM152 337v69h438v-69h-438zM371 -222q-25 0 -41 16t-16 40q0 25 16 41t41 16t41 -16t16 -41q0 -24 -16 -40t-41 -16z" />
    <glyph glyph-name="uni1E36" unicode="&#x1e36;" horiz-adv-x="564" 
d="M528 0h-443v715h77v-646h366v-69zM306 -222q-25 0 -41 16t-16 40q0 25 16 41t41 16t41 -16t16 -41q0 -24 -16 -40t-41 -16z" />
    <glyph glyph-name="edotaccent" unicode="&#x117;" horiz-adv-x="601" 
d="M486 140l52 -49q-39 -50 -94 -78.5t-126 -28.5q-78 0 -139.5 34t-96.5 93t-35 135t33.5 135t92.5 93t134 34q72 0 127.5 -33.5t87.5 -91.5t32 -134v-6h-76v6q0 58 -22.5 101.5t-61 68t-87.5 24.5q-54 0 -95 -25t-64 -69t-23 -102t25 -103t68.5 -70t100.5 -25
q104 0 167 91zM554 220h-445v61h429l16 -32v-29zM307 624q-22 0 -38 15.5t-16 37.5q0 23 16 38.5t38 15.5q23 0 38.5 -15.5t15.5 -38.5q0 -22 -15.5 -37.5t-38.5 -15.5z" />
    <glyph glyph-name="cdotaccent" unicode="&#x10b;" horiz-adv-x="545" 
d="M455 128l53 -49q-34 -44 -85.5 -69.5t-116.5 -25.5q-75 0 -133.5 34t-92 93t-33.5 135t33.5 135t92.5 93t134 34q65 0 116 -25.5t85 -69.5l-53 -49q-24 36 -60 57.5t-88 21.5q-54 0 -95 -25t-64 -69.5t-23 -102.5t23 -102.5t64 -69.5t95 -25q52 0 88 21.5t60 57.5z
M307 624q-22 0 -38 15.5t-16 37.5q0 23 16 38.5t38 15.5q23 0 38.5 -15.5t15.5 -38.5q0 -22 -15.5 -37.5t-38.5 -15.5z" />
    <glyph glyph-name="gdotaccent" unicode="&#x121;" horiz-adv-x="633" 
d="M563 42q0 -73 -33.5 -130t-91 -89.5t-131.5 -32.5q-70 0 -126.5 25.5t-93.5 69.5l52 50q27 -37 68 -58.5t100 -21.5q54 0 95 24t64 66t23 97v189q0 70 -26 117t-67.5 71t-89.5 24q-53 0 -94 -25.5t-64 -69t-23 -98.5q0 -56 23 -99t64.5 -67.5t96.5 -24.5q50 0 91.5 21
t68 58t30.5 85l15 -20q8 -61 -19 -108t-78 -74t-116 -27q-73 0 -130.5 32.5t-90.5 90.5t-33 133t33.5 133t90 91.5t126.5 33.5q49 0 93.5 -18t76 -54.5t41.5 -92.5h-18v149h73v-450zM307 624q-22 0 -38 15.5t-16 37.5q0 23 16 38.5t38 15.5q23 0 38.5 -15.5t15.5 -38.5
q0 -22 -15.5 -37.5t-38.5 -15.5z" />
    <glyph glyph-name="zdotaccent" unicode="&#x17c;" horiz-adv-x="488" 
d="M450 0h-410v62l311 368h-301v62h390v-62l-311 -368h321v-62zM242 624q-22 0 -38 15.5t-16 37.5q0 23 16 38.5t38 15.5q23 0 38.5 -15.5t15.5 -38.5q0 -22 -15.5 -37.5t-38.5 -15.5z" />
    <glyph glyph-name="uni1E25" unicode="&#x1e25;" horiz-adv-x="584" 
d="M521 0h-74v284q0 79 -36 119t-97 40q-44 0 -83 -23t-63 -72t-24 -127v-221h-74v720h74v-377h-13q12 61 41 97t69.5 52t85.5 16q90 0 142 -55.5t52 -160.5v-292zM295 -237q-22 0 -38 15.5t-16 37.5q0 23 16 38.5t38 15.5q23 0 38.5 -15.5t15.5 -38.5q0 -22 -15.5 -37.5
t-38.5 -15.5z" />
    <glyph glyph-name="uni1E37" unicode="&#x1e37;" horiz-adv-x="214" 
d="M144 0h-74v720h74v-720zM107 -237q-22 0 -38 15.5t-16 37.5q0 23 16 38.5t38 15.5q23 0 38.5 -15.5t15.5 -38.5q0 -22 -15.5 -37.5t-38.5 -15.5z" />
    <glyph glyph-name="uni030A" unicode="&#x30a;" 
d="M109 672q0 -30 -14.5 -54t-39 -38.5t-55.5 -14.5q-30 0 -55 14.5t-39.5 38.5t-14.5 54t14.5 54.5t39.5 38.5t55 14q31 0 55.5 -14t39 -38.5t14.5 -54.5zM54 672q0 23 -15.5 39.5t-38.5 16.5q-22 0 -38 -16.5t-16 -39.5q0 -24 16 -40.5t38 -16.5q23 0 38.5 16.5t15.5 40.5
z" />
    <glyph glyph-name="uni030A.cap" 
d="M0 749q-31 0 -56 14.5t-40 39.5t-15 55q0 31 15 55.5t40 39t56 14.5t56 -14.5t40 -39t15 -55.5q0 -30 -15 -55t-40 -39.5t-56 -14.5zM0 800q23 0 39 16.5t16 41.5t-16 41.5t-39 16.5t-39 -16.5t-16 -41.5t16 -41.5t39 -16.5z" />
    <glyph glyph-name="ring" unicode="&#x2da;" horiz-adv-x="584" 
d="M396 672q0 -30 -14.5 -54t-39 -38.5t-55.5 -14.5q-30 0 -55 14.5t-39.5 38.5t-14.5 54t14.5 54.5t39.5 38.5t55 14q31 0 55.5 -14t39 -38.5t14.5 -54.5zM341 672q0 23 -15.5 39.5t-38.5 16.5q-22 0 -38 -16.5t-16 -39.5q0 -24 16 -40.5t38 -16.5q23 0 38.5 16.5
t15.5 40.5z" />
    <glyph glyph-name="Aring" unicode="&#xc5;" horiz-adv-x="727" 
d="M555 200h-389v68h389v-68zM691 0h-81l-265 669h34l-265 -669h-78l286 715h83zM363 749q-31 0 -56 14.5t-40 39.5t-15 55q0 31 15 55.5t40 39t56 14.5t56 -14.5t40 -39t15 -55.5q0 -30 -15 -55t-40 -39.5t-56 -14.5zM363 800q23 0 39 16.5t16 41.5t-16 41.5t-39 16.5
t-39 -16.5t-16 -41.5t16 -41.5t39 -16.5z" />
    <glyph glyph-name="Uring" unicode="&#x16e;" horiz-adv-x="722" 
d="M647 715v-433q0 -141 -76 -219.5t-210 -78.5q-133 0 -209.5 78.5t-76.5 219.5v433h77v-433q0 -111 55 -169.5t154 -58.5q100 0 155 58.5t55 169.5v433h76zM361 749q-31 0 -56 14.5t-40 39.5t-15 55q0 31 15 55.5t40 39t56 14.5t56 -14.5t40 -39t15 -55.5q0 -30 -15 -55
t-40 -39.5t-56 -14.5zM361 800q23 0 39 16.5t16 41.5t-16 41.5t-39 16.5t-39 -16.5t-16 -41.5t16 -41.5t39 -16.5z" />
    <glyph glyph-name="aring" unicode="&#xe5;" horiz-adv-x="550" 
d="M487 0h-71v96l-1 28v184q0 62 -40 99t-108 37q-49 0 -88.5 -21t-69.5 -57l-52 50q41 44 92.5 68t117.5 24t115.5 -24.5t77 -68.5t27.5 -104v-311zM228 -16q-56 0 -98.5 20.5t-66 55.5t-23.5 80q0 52 29 88.5t79.5 55.5t114.5 19h162v-60h-152q-67 0 -111.5 -24.5
t-44.5 -76.5q0 -44 33 -70t87 -26q52 0 94 20.5t67.5 57.5t28.5 85l30 -17q0 -60 -29.5 -107t-81.5 -74t-118 -27zM376 672q0 -30 -14.5 -54t-39 -38.5t-55.5 -14.5q-30 0 -55 14.5t-39.5 38.5t-14.5 54t14.5 54.5t39.5 38.5t55 14q31 0 55.5 -14t39 -38.5t14.5 -54.5z
M321 672q0 23 -15.5 39.5t-38.5 16.5q-22 0 -38 -16.5t-16 -39.5q0 -24 16 -40.5t38 -16.5q23 0 38.5 16.5t15.5 40.5z" />
    <glyph glyph-name="uring" unicode="&#x16f;" horiz-adv-x="582" 
d="M512 0h-73v96l-1 28v368h74v-492zM448 213l15 -21q5 -60 -21 -107t-73.5 -74t-109.5 -27q-89 0 -142.5 53t-53.5 153v302h74v-294q0 -73 35.5 -111t99.5 -38q45 0 83.5 20.5t63.5 57.5t29 86zM396 672q0 -30 -14.5 -54t-39 -38.5t-55.5 -14.5q-30 0 -55 14.5t-39.5 38.5
t-14.5 54t14.5 54.5t39.5 38.5t55 14q31 0 55.5 -14t39 -38.5t14.5 -54.5zM341 672q0 23 -15.5 39.5t-38.5 16.5q-22 0 -38 -16.5t-16 -39.5q0 -24 16 -40.5t38 -16.5q23 0 38.5 16.5t15.5 40.5z" />
    <glyph glyph-name="dotbelowcomb" unicode="&#x323;" 
d="M0 -237q-22 0 -38 15.5t-16 37.5q0 23 16 38.5t38 15.5q23 0 38.5 -15.5t15.5 -38.5q0 -22 -15.5 -37.5t-38.5 -15.5z" />
    <glyph glyph-name="dotbelowcomb.cap" 
d="M0 -222q-25 0 -41 16t-16 40q0 25 16 41t41 16t41 -16t16 -41q0 -24 -16 -40t-41 -16z" />
    <glyph glyph-name="hookabovecomb" unicode="&#x309;" 
d="M-8 560l-23 44q31 14 47 29.5t16 32.5q0 37 -46 37q-28 0 -54 -21l-33 41q42 36 95 36q42 0 71 -25.5t29 -63.5q0 -34 -26.5 -63t-75.5 -47z" />
    <glyph glyph-name="hookabovecomb.cap" 
d="M-8 765l-23 44q31 14 47 31t16 36q0 39 -46 39q-28 0 -54 -21l-33 41q42 36 95 36q42 0 71 -26.5t29 -64.5q0 -36 -26.5 -66t-75.5 -49z" />
    <glyph glyph-name="uni1EA0" unicode="&#x1ea0;" horiz-adv-x="727" 
d="M555 200h-389v68h389v-68zM691 0h-81l-265 669h34l-265 -669h-78l286 715h83zM363 -222q-25 0 -41 16t-16 40q0 25 16 41t41 16t41 -16t16 -41q0 -24 -16 -40t-41 -16z" />
    <glyph glyph-name="uni1EB8" unicode="&#x1eb8;" horiz-adv-x="603" 
d="M558 0h-473v715h473v-68h-396v-579h396v-68zM539 332h-387v68h387v-68zM321 -222q-25 0 -41 16t-16 40q0 25 16 41t41 16t41 -16t16 -41q0 -24 -16 -40t-41 -16z" />
    <glyph glyph-name="uni1ECA" unicode="&#x1eca;" horiz-adv-x="247" 
d="M162 0h-77v715h77v-715zM123 -222q-25 0 -41 16t-16 40q0 25 16 41t41 16t41 -16t16 -41q0 -24 -16 -40t-41 -16z" />
    <glyph glyph-name="uni1ECC" unicode="&#x1ecc;" horiz-adv-x="852" 
d="M426 -16q-80 0 -147.5 28t-118 78.5t-78 119t-27.5 148.5t27.5 148t78 118.5t118 78.5t147.5 28t147.5 -28t118 -78.5t78 -118.5t27.5 -148t-27.5 -148.5t-78 -119t-118 -78.5t-147.5 -28zM426 54q86 0 151.5 39t102.5 108t37 157t-37 156.5t-102.5 107.5t-151.5 39
q-85 0 -151 -39t-103 -107.5t-37 -156.5t37 -157t103 -108t151 -39zM426 -222q-25 0 -41 16t-16 40q0 25 16 41t41 16t41 -16t16 -41q0 -24 -16 -40t-41 -16z" />
    <glyph glyph-name="uni1EE4" unicode="&#x1ee4;" horiz-adv-x="722" 
d="M647 715v-433q0 -141 -76 -219.5t-210 -78.5q-133 0 -209.5 78.5t-76.5 219.5v433h77v-433q0 -111 55 -169.5t154 -58.5q100 0 155 58.5t55 169.5v433h76zM362 -222q-25 0 -41 16t-16 40q0 25 16 41t41 16t41 -16t16 -41q0 -24 -16 -40t-41 -16z" />
    <glyph glyph-name="uni1EF4" unicode="&#x1ef4;" horiz-adv-x="647" 
d="M362 0h-77v315l-265 400h89l229 -357h-26l229 357h86l-265 -402v-313zM323 -222q-25 0 -41 16t-16 40q0 25 16 41t41 16t41 -16t16 -41q0 -24 -16 -40t-41 -16z" />
    <glyph glyph-name="uni1EA2" unicode="&#x1ea2;" horiz-adv-x="727" 
d="M555 200h-389v68h389v-68zM691 0h-81l-265 669h34l-265 -669h-78l286 715h83zM355 765l-23 44q31 14 47 31t16 36q0 39 -46 39q-28 0 -54 -21l-33 41q42 36 95 36q42 0 71 -26.5t29 -64.5q0 -36 -26.5 -66t-75.5 -49z" />
    <glyph glyph-name="uni1EBA" unicode="&#x1eba;" horiz-adv-x="603" 
d="M558 0h-473v715h473v-68h-396v-579h396v-68zM539 332h-387v68h387v-68zM313 765l-23 44q31 14 47 31t16 36q0 39 -46 39q-28 0 -54 -21l-33 41q42 36 95 36q42 0 71 -26.5t29 -64.5q0 -36 -26.5 -66t-75.5 -49z" />
    <glyph glyph-name="uni1EC8" unicode="&#x1ec8;" horiz-adv-x="247" 
d="M162 0h-77v715h77v-715zM115 765l-23 44q31 14 47 31t16 36q0 39 -46 39q-28 0 -54 -21l-33 41q42 36 95 36q42 0 71 -26.5t29 -64.5q0 -36 -26.5 -66t-75.5 -49z" />
    <glyph glyph-name="uni1ECE" unicode="&#x1ece;" horiz-adv-x="852" 
d="M426 -16q-80 0 -147.5 28t-118 78.5t-78 119t-27.5 148.5t27.5 148t78 118.5t118 78.5t147.5 28t147.5 -28t118 -78.5t78 -118.5t27.5 -148t-27.5 -148.5t-78 -119t-118 -78.5t-147.5 -28zM426 54q86 0 151.5 39t102.5 108t37 157t-37 156.5t-102.5 107.5t-151.5 39
q-85 0 -151 -39t-103 -107.5t-37 -156.5t37 -157t103 -108t151 -39zM418 765l-23 44q31 14 47 31t16 36q0 39 -46 39q-28 0 -54 -21l-33 41q42 36 95 36q42 0 71 -26.5t29 -64.5q0 -36 -26.5 -66t-75.5 -49z" />
    <glyph glyph-name="uni1EE6" unicode="&#x1ee6;" horiz-adv-x="722" 
d="M647 715v-433q0 -141 -76 -219.5t-210 -78.5q-133 0 -209.5 78.5t-76.5 219.5v433h77v-433q0 -111 55 -169.5t154 -58.5q100 0 155 58.5t55 169.5v433h76zM353 765l-23 44q31 14 47 31t16 36q0 39 -46 39q-28 0 -54 -21l-33 41q42 36 95 36q42 0 71 -26.5t29 -64.5
q0 -36 -26.5 -66t-75.5 -49z" />
    <glyph glyph-name="uni1EF6" unicode="&#x1ef6;" horiz-adv-x="647" 
d="M362 0h-77v315l-265 400h89l229 -357h-26l229 357h86l-265 -402v-313zM315 765l-23 44q31 14 47 31t16 36q0 39 -46 39q-28 0 -54 -21l-33 41q42 36 95 36q42 0 71 -26.5t29 -64.5q0 -36 -26.5 -66t-75.5 -49z" />
    <glyph glyph-name="uni1EA1" unicode="&#x1ea1;" horiz-adv-x="550" 
d="M487 0h-71v96l-1 28v184q0 62 -40 99t-108 37q-49 0 -88.5 -21t-69.5 -57l-52 50q41 44 92.5 68t117.5 24t115.5 -24.5t77 -68.5t27.5 -104v-311zM228 -16q-56 0 -98.5 20.5t-66 55.5t-23.5 80q0 52 29 88.5t79.5 55.5t114.5 19h162v-60h-152q-67 0 -111.5 -24.5
t-44.5 -76.5q0 -44 33 -70t87 -26q52 0 94 20.5t67.5 57.5t28.5 85l30 -17q0 -60 -29.5 -107t-81.5 -74t-118 -27zM267 -237q-22 0 -38 15.5t-16 37.5q0 23 16 38.5t38 15.5q23 0 38.5 -15.5t15.5 -38.5q0 -22 -15.5 -37.5t-38.5 -15.5z" />
    <glyph glyph-name="uni1EB9" unicode="&#x1eb9;" horiz-adv-x="601" 
d="M486 140l52 -49q-39 -50 -94 -78.5t-126 -28.5q-78 0 -139.5 34t-96.5 93t-35 135t33.5 135t92.5 93t134 34q72 0 127.5 -33.5t87.5 -91.5t32 -134v-6h-76v6q0 58 -22.5 101.5t-61 68t-87.5 24.5q-54 0 -95 -25t-64 -69t-23 -102t25 -103t68.5 -70t100.5 -25
q104 0 167 91zM554 220h-445v61h429l16 -32v-29zM307 -237q-22 0 -38 15.5t-16 37.5q0 23 16 38.5t38 15.5q23 0 38.5 -15.5t15.5 -38.5q0 -22 -15.5 -37.5t-38.5 -15.5z" />
    <glyph glyph-name="uni1ECB" unicode="&#x1ecb;" horiz-adv-x="214" 
d="M144 0h-74v492h74v-492zM107 624q-22 0 -38 15.5t-16 37.5q0 23 16 38.5t38 15.5q23 0 38.5 -15.5t15.5 -38.5q0 -22 -15.5 -37.5t-38.5 -15.5zM107 -237q-22 0 -38 15.5t-16 37.5q0 23 16 38.5t38 15.5q23 0 38.5 -15.5t15.5 -38.5q0 -22 -15.5 -37.5t-38.5 -15.5z" />
    <glyph glyph-name="uni1ECD" unicode="&#x1ecd;" horiz-adv-x="614" 
d="M307 -16q-75 0 -134 34t-92.5 93t-33.5 135t33.5 135t92.5 93t134 34q76 0 134.5 -34t92 -93t33.5 -135t-33.5 -135t-92 -93t-134.5 -34zM307 49q54 0 95 25t64 69.5t23 102.5t-23 102.5t-64 69.5t-95 25t-95 -25t-64 -69.5t-23 -102.5t23 -102.5t64 -69.5t95 -25z
M307 -237q-22 0 -38 15.5t-16 37.5q0 23 16 38.5t38 15.5q23 0 38.5 -15.5t15.5 -38.5q0 -22 -15.5 -37.5t-38.5 -15.5z" />
    <glyph glyph-name="uni1EE5" unicode="&#x1ee5;" horiz-adv-x="582" 
d="M512 0h-73v96l-1 28v368h74v-492zM448 213l15 -21q5 -60 -21 -107t-73.5 -74t-109.5 -27q-89 0 -142.5 53t-53.5 153v302h74v-294q0 -73 35.5 -111t99.5 -38q45 0 83.5 20.5t63.5 57.5t29 86zM287 -237q-22 0 -38 15.5t-16 37.5q0 23 16 38.5t38 15.5q23 0 38.5 -15.5
t15.5 -38.5q0 -22 -15.5 -37.5t-38.5 -15.5z" />
    <glyph glyph-name="uni1EF5" unicode="&#x1ef5;" horiz-adv-x="537" 
d="M441 492h76l-250 -581q-21 -49 -52 -77t-94 -28h-49v64h49q32 0 52.5 16t33.5 47l26 65l-213 494h80l186 -453h-32zM372 -237q-22 0 -38 15.5t-16 37.5q0 23 16 38.5t38 15.5q23 0 38.5 -15.5t15.5 -38.5q0 -22 -15.5 -37.5t-38.5 -15.5z" />
    <glyph glyph-name="uni1EA3" unicode="&#x1ea3;" horiz-adv-x="550" 
d="M487 0h-71v96l-1 28v184q0 62 -40 99t-108 37q-49 0 -88.5 -21t-69.5 -57l-52 50q41 44 92.5 68t117.5 24t115.5 -24.5t77 -68.5t27.5 -104v-311zM228 -16q-56 0 -98.5 20.5t-66 55.5t-23.5 80q0 52 29 88.5t79.5 55.5t114.5 19h162v-60h-152q-67 0 -111.5 -24.5
t-44.5 -76.5q0 -44 33 -70t87 -26q52 0 94 20.5t67.5 57.5t28.5 85l30 -17q0 -60 -29.5 -107t-81.5 -74t-118 -27zM259 560l-23 44q31 14 47 29.5t16 32.5q0 37 -46 37q-28 0 -54 -21l-33 41q42 36 95 36q42 0 71 -25.5t29 -63.5q0 -34 -26.5 -63t-75.5 -47z" />
    <glyph glyph-name="uni1EBB" unicode="&#x1ebb;" horiz-adv-x="601" 
d="M486 140l52 -49q-39 -50 -94 -78.5t-126 -28.5q-78 0 -139.5 34t-96.5 93t-35 135t33.5 135t92.5 93t134 34q72 0 127.5 -33.5t87.5 -91.5t32 -134v-6h-76v6q0 58 -22.5 101.5t-61 68t-87.5 24.5q-54 0 -95 -25t-64 -69t-23 -102t25 -103t68.5 -70t100.5 -25
q104 0 167 91zM554 220h-445v61h429l16 -32v-29zM299 560l-23 44q31 14 47 29.5t16 32.5q0 37 -46 37q-28 0 -54 -21l-33 41q42 36 95 36q42 0 71 -25.5t29 -63.5q0 -34 -26.5 -63t-75.5 -47z" />
    <glyph glyph-name="uni1EC9" unicode="&#x1ec9;" horiz-adv-x="214" 
d="M144 0h-74v492h74v-492zM99 560l-23 44q31 14 47 29.5t16 32.5q0 37 -46 37q-28 0 -54 -21l-33 41q42 36 95 36q42 0 71 -25.5t29 -63.5q0 -34 -26.5 -63t-75.5 -47z" />
    <glyph glyph-name="uni1ECF" unicode="&#x1ecf;" horiz-adv-x="614" 
d="M307 -16q-75 0 -134 34t-92.5 93t-33.5 135t33.5 135t92.5 93t134 34q76 0 134.5 -34t92 -93t33.5 -135t-33.5 -135t-92 -93t-134.5 -34zM307 49q54 0 95 25t64 69.5t23 102.5t-23 102.5t-64 69.5t-95 25t-95 -25t-64 -69.5t-23 -102.5t23 -102.5t64 -69.5t95 -25z
M299 560l-23 44q31 14 47 29.5t16 32.5q0 37 -46 37q-28 0 -54 -21l-33 41q42 36 95 36q42 0 71 -25.5t29 -63.5q0 -34 -26.5 -63t-75.5 -47z" />
    <glyph glyph-name="uni1EE7" unicode="&#x1ee7;" horiz-adv-x="582" 
d="M512 0h-73v96l-1 28v368h74v-492zM448 213l15 -21q5 -60 -21 -107t-73.5 -74t-109.5 -27q-89 0 -142.5 53t-53.5 153v302h74v-294q0 -73 35.5 -111t99.5 -38q45 0 83.5 20.5t63.5 57.5t29 86zM279 560l-23 44q31 14 47 29.5t16 32.5q0 37 -46 37q-28 0 -54 -21l-33 41
q42 36 95 36q42 0 71 -25.5t29 -63.5q0 -34 -26.5 -63t-75.5 -47z" />
    <glyph glyph-name="uni1EF7" unicode="&#x1ef7;" horiz-adv-x="537" 
d="M441 492h76l-250 -581q-21 -49 -52 -77t-94 -28h-49v64h49q32 0 52.5 16t33.5 47l26 65l-213 494h80l186 -453h-32zM261 560l-23 44q31 14 47 29.5t16 32.5q0 37 -46 37q-28 0 -54 -21l-33 41q42 36 95 36q42 0 71 -25.5t29 -63.5q0 -34 -26.5 -63t-75.5 -47z" />
    <glyph glyph-name="circumflexacutecomb" 
d="M-155 587l122 138h66l122 -138h-74l-115 112h65l-115 -112h-71zM122 677l108 141h88l-135 -141h-61z" />
    <glyph glyph-name="circumflexacutecomb.cap" 
d="M-155 799l122 134h66l122 -134h-74l-115 108h65l-115 -108h-71zM131 875l113 147h89l-140 -147h-62z" />
    <glyph glyph-name="circumflexgravecomb" 
d="M-155 587l122 138h66l122 -138h-74l-115 112h65l-115 -112h-71zM151 677l-135 141h90l108 -141h-63z" />
    <glyph glyph-name="circumflexgravecomb.cap" 
d="M155 799h-74l-115 108h65l-115 -108h-71l122 134h66zM175 875l-134 147h88l107 -147h-61z" />
    <glyph glyph-name="circumflexhookabovecomb" 
d="M-155 587l122 138h66l122 -138h-74l-115 112h65l-115 -112h-71zM152 649l-22 42q29 13 44.5 28t15.5 31q0 35 -43 35q-27 0 -52 -20l-31 39q38 34 90 34q40 0 67.5 -24.5t27.5 -60.5q0 -32 -25 -59.5t-72 -44.5z" />
    <glyph glyph-name="circumflexhookabovecomb.cap" 
d="M-155 799l122 134h66l122 -134h-74l-115 108h65l-115 -108h-71zM156 857l-22 42q61 30 61 65q0 37 -45 37q-26 0 -51 -20l-32 39q41 35 91 35q41 0 68.5 -25t27.5 -62q0 -35 -25.5 -64t-72.5 -47z" />
    <glyph glyph-name="circumflextildecomb" 
d="M-155 587l122 138h66l122 -138h-74l-115 112h65l-115 -112h-71zM-98 755l-47 20q7 42 28 64.5t53 22.5q22 0 39.5 -7.5t36.5 -22.5t29 -20.5t18 -5.5q32 0 40 54l47 -20q-7 -42 -28 -64.5t-53 -22.5q-22 0 -38.5 7t-37.5 23q-19 15 -29 20.5t-18 5.5q-16 0 -26 -14
t-14 -40z" />
    <glyph glyph-name="circumflextildecomb.cap" 
d="M-159 799l122 134h66l122 -134h-74l-115 108h65l-115 -108h-71zM-115 959l-55 23q7 40 33 64.5t61 24.5q19 0 37 -6.5t49 -25.5q27 -16 37.5 -20.5t20.5 -4.5q17 0 29.5 14t16.5 39l55 -23q-7 -40 -33 -64.5t-61 -24.5q-19 0 -38 6.5t-48 23.5q-21 13 -33.5 20t-24.5 7
q-17 0 -29.5 -14t-16.5 -39z" />
    <glyph glyph-name="uni1EA4" unicode="&#x1ea4;" horiz-adv-x="727" 
d="M555 200h-389v68h389v-68zM691 0h-81l-265 669h34l-265 -669h-78l286 715h83zM208 799l122 134h66l122 -134h-74l-115 108h65l-115 -108h-71zM494 875l113 147h89l-140 -147h-62z" />
    <glyph glyph-name="uni1EBE" unicode="&#x1ebe;" horiz-adv-x="603" 
d="M558 0h-473v715h473v-68h-396v-579h396v-68zM539 332h-387v68h387v-68zM166 799l122 134h66l122 -134h-74l-115 108h65l-115 -108h-71zM452 875l113 147h89l-140 -147h-62z" />
    <glyph glyph-name="uni1ED0" unicode="&#x1ed0;" horiz-adv-x="852" 
d="M426 -16q-80 0 -147.5 28t-118 78.5t-78 119t-27.5 148.5t27.5 148t78 118.5t118 78.5t147.5 28t147.5 -28t118 -78.5t78 -118.5t27.5 -148t-27.5 -148.5t-78 -119t-118 -78.5t-147.5 -28zM426 54q86 0 151.5 39t102.5 108t37 157t-37 156.5t-102.5 107.5t-151.5 39
q-85 0 -151 -39t-103 -107.5t-37 -156.5t37 -157t103 -108t151 -39zM271 799l122 134h66l122 -134h-74l-115 108h65l-115 -108h-71zM557 875l113 147h89l-140 -147h-62z" />
    <glyph glyph-name="uni1EA6" unicode="&#x1ea6;" horiz-adv-x="727" 
d="M555 200h-389v68h389v-68zM691 0h-81l-265 669h34l-265 -669h-78l286 715h83zM518 799h-74l-115 108h65l-115 -108h-71l122 134h66zM538 875l-134 147h88l107 -147h-61z" />
    <glyph glyph-name="uni1EC0" unicode="&#x1ec0;" horiz-adv-x="603" 
d="M558 0h-473v715h473v-68h-396v-579h396v-68zM539 332h-387v68h387v-68zM476 799h-74l-115 108h65l-115 -108h-71l122 134h66zM496 875l-134 147h88l107 -147h-61z" />
    <glyph glyph-name="uni1ED2" unicode="&#x1ed2;" horiz-adv-x="852" 
d="M426 -16q-80 0 -147.5 28t-118 78.5t-78 119t-27.5 148.5t27.5 148t78 118.5t118 78.5t147.5 28t147.5 -28t118 -78.5t78 -118.5t27.5 -148t-27.5 -148.5t-78 -119t-118 -78.5t-147.5 -28zM426 54q86 0 151.5 39t102.5 108t37 157t-37 156.5t-102.5 107.5t-151.5 39
q-85 0 -151 -39t-103 -107.5t-37 -156.5t37 -157t103 -108t151 -39zM581 799h-74l-115 108h65l-115 -108h-71l122 134h66zM601 875l-134 147h88l107 -147h-61z" />
    <glyph glyph-name="uni1EA8" unicode="&#x1ea8;" horiz-adv-x="727" 
d="M555 200h-389v68h389v-68zM691 0h-81l-265 669h34l-265 -669h-78l286 715h83zM208 799l122 134h66l122 -134h-74l-115 108h65l-115 -108h-71zM519 857l-22 42q61 30 61 65q0 37 -45 37q-26 0 -51 -20l-32 39q41 35 91 35q41 0 68.5 -25t27.5 -62q0 -35 -25.5 -64
t-72.5 -47z" />
    <glyph glyph-name="uni1EC2" unicode="&#x1ec2;" horiz-adv-x="603" 
d="M558 0h-473v715h473v-68h-396v-579h396v-68zM539 332h-387v68h387v-68zM166 799l122 134h66l122 -134h-74l-115 108h65l-115 -108h-71zM477 857l-22 42q61 30 61 65q0 37 -45 37q-26 0 -51 -20l-32 39q41 35 91 35q41 0 68.5 -25t27.5 -62q0 -35 -25.5 -64t-72.5 -47z
" />
    <glyph glyph-name="uni1ED4" unicode="&#x1ed4;" horiz-adv-x="852" 
d="M426 -16q-80 0 -147.5 28t-118 78.5t-78 119t-27.5 148.5t27.5 148t78 118.5t118 78.5t147.5 28t147.5 -28t118 -78.5t78 -118.5t27.5 -148t-27.5 -148.5t-78 -119t-118 -78.5t-147.5 -28zM426 54q86 0 151.5 39t102.5 108t37 157t-37 156.5t-102.5 107.5t-151.5 39
q-85 0 -151 -39t-103 -107.5t-37 -156.5t37 -157t103 -108t151 -39zM271 799l122 134h66l122 -134h-74l-115 108h65l-115 -108h-71zM582 857l-22 42q61 30 61 65q0 37 -45 37q-26 0 -51 -20l-32 39q41 35 91 35q41 0 68.5 -25t27.5 -62q0 -35 -25.5 -64t-72.5 -47z" />
    <glyph glyph-name="uni1EAA" unicode="&#x1eaa;" horiz-adv-x="727" 
d="M555 200h-389v68h389v-68zM691 0h-81l-265 669h34l-265 -669h-78l286 715h83zM204 799l122 134h66l122 -134h-74l-115 108h65l-115 -108h-71zM248 959l-55 23q7 40 33 64.5t61 24.5q19 0 37 -6.5t49 -25.5q27 -16 37.5 -20.5t20.5 -4.5q17 0 29.5 14t16.5 39l55 -23
q-7 -40 -33 -64.5t-61 -24.5q-19 0 -38 6.5t-48 23.5q-21 13 -33.5 20t-24.5 7q-17 0 -29.5 -14t-16.5 -39z" />
    <glyph glyph-name="uni1EC4" unicode="&#x1ec4;" horiz-adv-x="603" 
d="M558 0h-473v715h473v-68h-396v-579h396v-68zM539 332h-387v68h387v-68zM162 799l122 134h66l122 -134h-74l-115 108h65l-115 -108h-71zM206 959l-55 23q7 40 33 64.5t61 24.5q19 0 37 -6.5t49 -25.5q27 -16 37.5 -20.5t20.5 -4.5q17 0 29.5 14t16.5 39l55 -23
q-7 -40 -33 -64.5t-61 -24.5q-19 0 -38 6.5t-48 23.5q-21 13 -33.5 20t-24.5 7q-17 0 -29.5 -14t-16.5 -39z" />
    <glyph glyph-name="uni1ED6" unicode="&#x1ed6;" horiz-adv-x="852" 
d="M426 -16q-80 0 -147.5 28t-118 78.5t-78 119t-27.5 148.5t27.5 148t78 118.5t118 78.5t147.5 28t147.5 -28t118 -78.5t78 -118.5t27.5 -148t-27.5 -148.5t-78 -119t-118 -78.5t-147.5 -28zM426 54q86 0 151.5 39t102.5 108t37 157t-37 156.5t-102.5 107.5t-151.5 39
q-85 0 -151 -39t-103 -107.5t-37 -156.5t37 -157t103 -108t151 -39zM267 799l122 134h66l122 -134h-74l-115 108h65l-115 -108h-71zM311 959l-55 23q7 40 33 64.5t61 24.5q19 0 37 -6.5t49 -25.5q27 -16 37.5 -20.5t20.5 -4.5q17 0 29.5 14t16.5 39l55 -23q-7 -40 -33 -64.5
t-61 -24.5q-19 0 -38 6.5t-48 23.5q-21 13 -33.5 20t-24.5 7q-17 0 -29.5 -14t-16.5 -39z" />
    <glyph glyph-name="uni1EAC" unicode="&#x1eac;" horiz-adv-x="727" 
d="M555 200h-389v68h389v-68zM691 0h-81l-265 669h34l-265 -669h-78l286 715h83zM529 799h-76l-130 128h78l-129 -128h-75l133 144h66zM363 -222q-25 0 -41 16t-16 40q0 25 16 41t41 16t41 -16t16 -41q0 -24 -16 -40t-41 -16z" />
    <glyph glyph-name="uni1EC6" unicode="&#x1ec6;" horiz-adv-x="603" 
d="M558 0h-473v715h473v-68h-396v-579h396v-68zM539 332h-387v68h387v-68zM487 799h-76l-130 128h78l-129 -128h-75l133 144h66zM321 -222q-25 0 -41 16t-16 40q0 25 16 41t41 16t41 -16t16 -41q0 -24 -16 -40t-41 -16z" />
    <glyph glyph-name="uni1ED8" unicode="&#x1ed8;" horiz-adv-x="852" 
d="M426 -16q-80 0 -147.5 28t-118 78.5t-78 119t-27.5 148.5t27.5 148t78 118.5t118 78.5t147.5 28t147.5 -28t118 -78.5t78 -118.5t27.5 -148t-27.5 -148.5t-78 -119t-118 -78.5t-147.5 -28zM426 54q86 0 151.5 39t102.5 108t37 157t-37 156.5t-102.5 107.5t-151.5 39
q-85 0 -151 -39t-103 -107.5t-37 -156.5t37 -157t103 -108t151 -39zM592 799h-76l-130 128h78l-129 -128h-75l133 144h66zM426 -222q-25 0 -41 16t-16 40q0 25 16 41t41 16t41 -16t16 -41q0 -24 -16 -40t-41 -16z" />
    <glyph glyph-name="uni1EA5" unicode="&#x1ea5;" horiz-adv-x="550" 
d="M487 0h-71v96l-1 28v184q0 62 -40 99t-108 37q-49 0 -88.5 -21t-69.5 -57l-52 50q41 44 92.5 68t117.5 24t115.5 -24.5t77 -68.5t27.5 -104v-311zM228 -16q-56 0 -98.5 20.5t-66 55.5t-23.5 80q0 52 29 88.5t79.5 55.5t114.5 19h162v-60h-152q-67 0 -111.5 -24.5
t-44.5 -76.5q0 -44 33 -70t87 -26q52 0 94 20.5t67.5 57.5t28.5 85l30 -17q0 -60 -29.5 -107t-81.5 -74t-118 -27zM112 587l122 138h66l122 -138h-74l-115 112h65l-115 -112h-71zM389 677l108 141h88l-135 -141h-61z" />
    <glyph glyph-name="uni1EBF" unicode="&#x1ebf;" horiz-adv-x="601" 
d="M486 140l52 -49q-39 -50 -94 -78.5t-126 -28.5q-78 0 -139.5 34t-96.5 93t-35 135t33.5 135t92.5 93t134 34q72 0 127.5 -33.5t87.5 -91.5t32 -134v-6h-76v6q0 58 -22.5 101.5t-61 68t-87.5 24.5q-54 0 -95 -25t-64 -69t-23 -102t25 -103t68.5 -70t100.5 -25
q104 0 167 91zM554 220h-445v61h429l16 -32v-29zM152 587l122 138h66l122 -138h-74l-115 112h65l-115 -112h-71zM429 677l108 141h88l-135 -141h-61z" />
    <glyph glyph-name="uni1ED1" unicode="&#x1ed1;" horiz-adv-x="614" 
d="M307 -16q-75 0 -134 34t-92.5 93t-33.5 135t33.5 135t92.5 93t134 34q76 0 134.5 -34t92 -93t33.5 -135t-33.5 -135t-92 -93t-134.5 -34zM307 49q54 0 95 25t64 69.5t23 102.5t-23 102.5t-64 69.5t-95 25t-95 -25t-64 -69.5t-23 -102.5t23 -102.5t64 -69.5t95 -25z
M152 587l122 138h66l122 -138h-74l-115 112h65l-115 -112h-71zM429 677l108 141h88l-135 -141h-61z" />
    <glyph glyph-name="uni1EA7" unicode="&#x1ea7;" horiz-adv-x="550" 
d="M487 0h-71v96l-1 28v184q0 62 -40 99t-108 37q-49 0 -88.5 -21t-69.5 -57l-52 50q41 44 92.5 68t117.5 24t115.5 -24.5t77 -68.5t27.5 -104v-311zM228 -16q-56 0 -98.5 20.5t-66 55.5t-23.5 80q0 52 29 88.5t79.5 55.5t114.5 19h162v-60h-152q-67 0 -111.5 -24.5
t-44.5 -76.5q0 -44 33 -70t87 -26q52 0 94 20.5t67.5 57.5t28.5 85l30 -17q0 -60 -29.5 -107t-81.5 -74t-118 -27zM112 587l122 138h66l122 -138h-74l-115 112h65l-115 -112h-71zM418 677l-135 141h90l108 -141h-63z" />
    <glyph glyph-name="uni1EC1" unicode="&#x1ec1;" horiz-adv-x="601" 
d="M486 140l52 -49q-39 -50 -94 -78.5t-126 -28.5q-78 0 -139.5 34t-96.5 93t-35 135t33.5 135t92.5 93t134 34q72 0 127.5 -33.5t87.5 -91.5t32 -134v-6h-76v6q0 58 -22.5 101.5t-61 68t-87.5 24.5q-54 0 -95 -25t-64 -69t-23 -102t25 -103t68.5 -70t100.5 -25
q104 0 167 91zM554 220h-445v61h429l16 -32v-29zM152 587l122 138h66l122 -138h-74l-115 112h65l-115 -112h-71zM458 677l-135 141h90l108 -141h-63z" />
    <glyph glyph-name="uni1ED3" unicode="&#x1ed3;" horiz-adv-x="614" 
d="M307 -16q-75 0 -134 34t-92.5 93t-33.5 135t33.5 135t92.5 93t134 34q76 0 134.5 -34t92 -93t33.5 -135t-33.5 -135t-92 -93t-134.5 -34zM307 49q54 0 95 25t64 69.5t23 102.5t-23 102.5t-64 69.5t-95 25t-95 -25t-64 -69.5t-23 -102.5t23 -102.5t64 -69.5t95 -25z
M152 587l122 138h66l122 -138h-74l-115 112h65l-115 -112h-71zM458 677l-135 141h90l108 -141h-63z" />
    <glyph glyph-name="uni1EA9" unicode="&#x1ea9;" horiz-adv-x="550" 
d="M487 0h-71v96l-1 28v184q0 62 -40 99t-108 37q-49 0 -88.5 -21t-69.5 -57l-52 50q41 44 92.5 68t117.5 24t115.5 -24.5t77 -68.5t27.5 -104v-311zM228 -16q-56 0 -98.5 20.5t-66 55.5t-23.5 80q0 52 29 88.5t79.5 55.5t114.5 19h162v-60h-152q-67 0 -111.5 -24.5
t-44.5 -76.5q0 -44 33 -70t87 -26q52 0 94 20.5t67.5 57.5t28.5 85l30 -17q0 -60 -29.5 -107t-81.5 -74t-118 -27zM112 587l122 138h66l122 -138h-74l-115 112h65l-115 -112h-71zM419 649l-22 42q29 13 44.5 28t15.5 31q0 35 -43 35q-27 0 -52 -20l-31 39q38 34 90 34
q40 0 67.5 -24.5t27.5 -60.5q0 -32 -25 -59.5t-72 -44.5z" />
    <glyph glyph-name="uni1EC3" unicode="&#x1ec3;" horiz-adv-x="601" 
d="M486 140l52 -49q-39 -50 -94 -78.5t-126 -28.5q-78 0 -139.5 34t-96.5 93t-35 135t33.5 135t92.5 93t134 34q72 0 127.5 -33.5t87.5 -91.5t32 -134v-6h-76v6q0 58 -22.5 101.5t-61 68t-87.5 24.5q-54 0 -95 -25t-64 -69t-23 -102t25 -103t68.5 -70t100.5 -25
q104 0 167 91zM554 220h-445v61h429l16 -32v-29zM152 587l122 138h66l122 -138h-74l-115 112h65l-115 -112h-71zM459 649l-22 42q29 13 44.5 28t15.5 31q0 35 -43 35q-27 0 -52 -20l-31 39q38 34 90 34q40 0 67.5 -24.5t27.5 -60.5q0 -32 -25 -59.5t-72 -44.5z" />
    <glyph glyph-name="uni1ED5" unicode="&#x1ed5;" horiz-adv-x="614" 
d="M307 -16q-75 0 -134 34t-92.5 93t-33.5 135t33.5 135t92.5 93t134 34q76 0 134.5 -34t92 -93t33.5 -135t-33.5 -135t-92 -93t-134.5 -34zM307 49q54 0 95 25t64 69.5t23 102.5t-23 102.5t-64 69.5t-95 25t-95 -25t-64 -69.5t-23 -102.5t23 -102.5t64 -69.5t95 -25z
M152 587l122 138h66l122 -138h-74l-115 112h65l-115 -112h-71zM459 649l-22 42q29 13 44.5 28t15.5 31q0 35 -43 35q-27 0 -52 -20l-31 39q38 34 90 34q40 0 67.5 -24.5t27.5 -60.5q0 -32 -25 -59.5t-72 -44.5z" />
    <glyph glyph-name="uni1EAB" unicode="&#x1eab;" horiz-adv-x="550" 
d="M487 0h-71v96l-1 28v184q0 62 -40 99t-108 37q-49 0 -88.5 -21t-69.5 -57l-52 50q41 44 92.5 68t117.5 24t115.5 -24.5t77 -68.5t27.5 -104v-311zM228 -16q-56 0 -98.5 20.5t-66 55.5t-23.5 80q0 52 29 88.5t79.5 55.5t114.5 19h162v-60h-152q-67 0 -111.5 -24.5
t-44.5 -76.5q0 -44 33 -70t87 -26q52 0 94 20.5t67.5 57.5t28.5 85l30 -17q0 -60 -29.5 -107t-81.5 -74t-118 -27zM112 587l122 138h66l122 -138h-74l-115 112h65l-115 -112h-71zM169 755l-47 20q7 42 28 64.5t53 22.5q22 0 39.5 -7.5t36.5 -22.5t29 -20.5t18 -5.5
q32 0 40 54l47 -20q-7 -42 -28 -64.5t-53 -22.5q-22 0 -38.5 7t-37.5 23q-19 15 -29 20.5t-18 5.5q-16 0 -26 -14t-14 -40z" />
    <glyph glyph-name="uni1EC5" unicode="&#x1ec5;" horiz-adv-x="601" 
d="M486 140l52 -49q-39 -50 -94 -78.5t-126 -28.5q-78 0 -139.5 34t-96.5 93t-35 135t33.5 135t92.5 93t134 34q72 0 127.5 -33.5t87.5 -91.5t32 -134v-6h-76v6q0 58 -22.5 101.5t-61 68t-87.5 24.5q-54 0 -95 -25t-64 -69t-23 -102t25 -103t68.5 -70t100.5 -25
q104 0 167 91zM554 220h-445v61h429l16 -32v-29zM152 587l122 138h66l122 -138h-74l-115 112h65l-115 -112h-71zM209 755l-47 20q7 42 28 64.5t53 22.5q22 0 39.5 -7.5t36.5 -22.5t29 -20.5t18 -5.5q32 0 40 54l47 -20q-7 -42 -28 -64.5t-53 -22.5q-22 0 -38.5 7t-37.5 23
q-19 15 -29 20.5t-18 5.5q-16 0 -26 -14t-14 -40z" />
    <glyph glyph-name="uni1ED7" unicode="&#x1ed7;" horiz-adv-x="614" 
d="M307 -16q-75 0 -134 34t-92.5 93t-33.5 135t33.5 135t92.5 93t134 34q76 0 134.5 -34t92 -93t33.5 -135t-33.5 -135t-92 -93t-134.5 -34zM307 49q54 0 95 25t64 69.5t23 102.5t-23 102.5t-64 69.5t-95 25t-95 -25t-64 -69.5t-23 -102.5t23 -102.5t64 -69.5t95 -25z
M152 587l122 138h66l122 -138h-74l-115 112h65l-115 -112h-71zM209 755l-47 20q7 42 28 64.5t53 22.5q22 0 39.5 -7.5t36.5 -22.5t29 -20.5t18 -5.5q32 0 40 54l47 -20q-7 -42 -28 -64.5t-53 -22.5q-22 0 -38.5 7t-37.5 23q-19 15 -29 20.5t-18 5.5q-16 0 -26 -14t-14 -40z
" />
    <glyph glyph-name="uni1EAD" unicode="&#x1ead;" horiz-adv-x="550" 
d="M487 0h-71v96l-1 28v184q0 62 -40 99t-108 37q-49 0 -88.5 -21t-69.5 -57l-52 50q41 44 92.5 68t117.5 24t115.5 -24.5t77 -68.5t27.5 -104v-311zM228 -16q-56 0 -98.5 20.5t-66 55.5t-23.5 80q0 52 29 88.5t79.5 55.5t114.5 19h162v-60h-152q-67 0 -111.5 -24.5
t-44.5 -76.5q0 -44 33 -70t87 -26q52 0 94 20.5t67.5 57.5t28.5 85l30 -17q0 -60 -29.5 -107t-81.5 -74t-118 -27zM424 587h-70l-121 158h65l-121 -158h-67l124 174h66zM267 -237q-22 0 -38 15.5t-16 37.5q0 23 16 38.5t38 15.5q23 0 38.5 -15.5t15.5 -38.5
q0 -22 -15.5 -37.5t-38.5 -15.5z" />
    <glyph glyph-name="uni1EC7" unicode="&#x1ec7;" horiz-adv-x="601" 
d="M486 140l52 -49q-39 -50 -94 -78.5t-126 -28.5q-78 0 -139.5 34t-96.5 93t-35 135t33.5 135t92.5 93t134 34q72 0 127.5 -33.5t87.5 -91.5t32 -134v-6h-76v6q0 58 -22.5 101.5t-61 68t-87.5 24.5q-54 0 -95 -25t-64 -69t-23 -102t25 -103t68.5 -70t100.5 -25
q104 0 167 91zM554 220h-445v61h429l16 -32v-29zM464 587h-70l-121 158h65l-121 -158h-67l124 174h66zM307 -237q-22 0 -38 15.5t-16 37.5q0 23 16 38.5t38 15.5q23 0 38.5 -15.5t15.5 -38.5q0 -22 -15.5 -37.5t-38.5 -15.5z" />
    <glyph glyph-name="uni1ED9" unicode="&#x1ed9;" horiz-adv-x="614" 
d="M307 -16q-75 0 -134 34t-92.5 93t-33.5 135t33.5 135t92.5 93t134 34q76 0 134.5 -34t92 -93t33.5 -135t-33.5 -135t-92 -93t-134.5 -34zM307 49q54 0 95 25t64 69.5t23 102.5t-23 102.5t-64 69.5t-95 25t-95 -25t-64 -69.5t-23 -102.5t23 -102.5t64 -69.5t95 -25z
M464 587h-70l-121 158h65l-121 -158h-67l124 174h66zM307 -237q-22 0 -38 15.5t-16 37.5q0 23 16 38.5t38 15.5q23 0 38.5 -15.5t15.5 -38.5q0 -22 -15.5 -37.5t-38.5 -15.5z" />
    <glyph glyph-name="breveacutecomb" 
d="M0 582q-59 0 -102 41t-49 109h62q6 -46 30.5 -69.5t58.5 -23.5t58.5 23.5t30.5 69.5h62q-6 -68 -49 -109t-102 -41zM-44 726l108 141h88l-135 -141h-61z" />
    <glyph glyph-name="breveacutecomb.cap" 
d="M0 795q-66 0 -110.5 38.5t-50.5 100.5h64q5 -37 31.5 -58t65.5 -21t65.5 21t31.5 58h64q-6 -62 -50.5 -100.5t-110.5 -38.5zM-38 929l113 147h89l-140 -147h-62z" />
    <glyph glyph-name="brevegravecomb" 
d="M0 582q-59 0 -102 41t-49 109h62q6 -46 30.5 -69.5t58.5 -23.5t58.5 23.5t30.5 69.5h62q-6 -68 -49 -109t-102 -41zM-20 726l-135 141h90l108 -141h-63z" />
    <glyph glyph-name="brevegravecomb.cap" 
d="M0 795q-66 0 -110.5 38.5t-50.5 100.5h64q5 -37 31.5 -58t65.5 -21t65.5 21t31.5 58h64q-6 -62 -50.5 -100.5t-110.5 -38.5zM-15 929l-134 147h88l107 -147h-61z" />
    <glyph glyph-name="brevehookabovecomb" 
d="M0 582q-59 0 -102 41t-49 109h62q6 -46 30.5 -69.5t58.5 -23.5t58.5 23.5t30.5 69.5h62q-6 -68 -49 -109t-102 -41zM-14 698l-22 42q29 13 44.5 28t15.5 31q0 35 -43 35q-27 0 -52 -20l-31 39q38 34 90 34q40 0 67.5 -24.5t27.5 -60.5q0 -32 -25 -59.5t-72 -44.5z" />
    <glyph glyph-name="brevehookabovecomb.cap" 
d="M0 795q-66 0 -110.5 38.5t-50.5 100.5h64q5 -37 31.5 -58t65.5 -21t65.5 21t31.5 58h64q-6 -62 -50.5 -100.5t-110.5 -38.5zM-13 911l-22 42q61 30 61 65q0 37 -45 37q-26 0 -51 -20l-32 39q41 35 91 35q41 0 68.5 -25t27.5 -62q0 -35 -25.5 -64t-72.5 -47z" />
    <glyph glyph-name="brevetildecomb" 
d="M0 582q-59 0 -102 41t-49 109h62q6 -46 30.5 -69.5t58.5 -23.5t58.5 23.5t30.5 69.5h62q-6 -68 -49 -109t-102 -41zM-99 773l-47 20q7 42 28 64.5t53 22.5q22 0 39.5 -7.5t36.5 -22.5t29 -20.5t18 -5.5q32 0 40 54l47 -20q-7 -42 -28 -64.5t-53 -22.5q-22 0 -38.5 7
t-37.5 23q-19 15 -29 20.5t-18 5.5q-16 0 -26 -14t-14 -40z" />
    <glyph glyph-name="brevetildecomb.cap" 
d="M0 795q-66 0 -110.5 38.5t-50.5 100.5h64q5 -37 31.5 -58t65.5 -21t65.5 21t31.5 58h64q-6 -62 -50.5 -100.5t-110.5 -38.5zM-114 966l-55 23q7 40 33 64.5t61 24.5q19 0 37 -7t49 -25q27 -16 37.5 -20.5t20.5 -4.5q17 0 29.5 14t16.5 39l55 -23q-7 -40 -33 -64.5
t-61 -24.5q-19 0 -38 6.5t-48 23.5q-21 13 -33.5 20t-24.5 7q-17 0 -29.5 -14t-16.5 -39z" />
    <glyph glyph-name="uni1EAE" unicode="&#x1eae;" horiz-adv-x="727" 
d="M555 200h-389v68h389v-68zM691 0h-81l-265 669h34l-265 -669h-78l286 715h83zM363 795q-66 0 -110.5 38.5t-50.5 100.5h64q5 -37 31.5 -58t65.5 -21t65.5 21t31.5 58h64q-6 -62 -50.5 -100.5t-110.5 -38.5zM325 929l113 147h89l-140 -147h-62z" />
    <glyph glyph-name="uni1EB0" unicode="&#x1eb0;" horiz-adv-x="727" 
d="M555 200h-389v68h389v-68zM691 0h-81l-265 669h34l-265 -669h-78l286 715h83zM363 795q-66 0 -110.5 38.5t-50.5 100.5h64q5 -37 31.5 -58t65.5 -21t65.5 21t31.5 58h64q-6 -62 -50.5 -100.5t-110.5 -38.5zM348 929l-134 147h88l107 -147h-61z" />
    <glyph glyph-name="uni1EB2" unicode="&#x1eb2;" horiz-adv-x="727" 
d="M555 200h-389v68h389v-68zM691 0h-81l-265 669h34l-265 -669h-78l286 715h83zM363 795q-66 0 -110.5 38.5t-50.5 100.5h64q5 -37 31.5 -58t65.5 -21t65.5 21t31.5 58h64q-6 -62 -50.5 -100.5t-110.5 -38.5zM350 911l-22 42q61 30 61 65q0 37 -45 37q-26 0 -51 -20l-32 39
q41 35 91 35q41 0 68.5 -25t27.5 -62q0 -35 -25.5 -64t-72.5 -47z" />
    <glyph glyph-name="uni1EB4" unicode="&#x1eb4;" horiz-adv-x="727" 
d="M555 200h-389v68h389v-68zM691 0h-81l-265 669h34l-265 -669h-78l286 715h83zM363 795q-66 0 -110.5 38.5t-50.5 100.5h64q5 -37 31.5 -58t65.5 -21t65.5 21t31.5 58h64q-6 -62 -50.5 -100.5t-110.5 -38.5zM249 966l-55 23q7 40 33 64.5t61 24.5q19 0 37 -7t49 -25
q27 -16 37.5 -20.5t20.5 -4.5q17 0 29.5 14t16.5 39l55 -23q-7 -40 -33 -64.5t-61 -24.5q-19 0 -38 6.5t-48 23.5q-21 13 -33.5 20t-24.5 7q-17 0 -29.5 -14t-16.5 -39z" />
    <glyph glyph-name="uni1EB6" unicode="&#x1eb6;" horiz-adv-x="727" 
d="M555 200h-389v68h389v-68zM691 0h-81l-265 669h34l-265 -669h-78l286 715h83zM363 795q-66 0 -110.5 38.5t-50.5 100.5h64q5 -37 31.5 -58t65.5 -21t65.5 21t31.5 58h64q-6 -62 -50.5 -100.5t-110.5 -38.5zM363 -222q-25 0 -41 16t-16 40q0 25 16 41t41 16t41 -16t16 -41
q0 -24 -16 -40t-41 -16z" />
    <glyph glyph-name="uni1EBC" unicode="&#x1ebc;" horiz-adv-x="603" 
d="M558 0h-473v715h473v-68h-396v-579h396v-68zM539 332h-387v68h387v-68zM439 911l57 -24q-10 -48 -42 -70t-64 -22q-20 0 -40.5 8.5t-41.5 22.5q-22 14 -34 21t-24 7q-16 0 -29.5 -13t-18.5 -42l-57 24q10 48 42 70t64 22q20 0 40.5 -8.5t41.5 -22.5q22 -14 34 -21t24 -7
q16 0 30 13.5t18 41.5z" />
    <glyph glyph-name="uni1EF8" unicode="&#x1ef8;" horiz-adv-x="647" 
d="M362 0h-77v315l-265 400h89l229 -357h-26l229 357h86l-265 -402v-313zM441 911l57 -24q-10 -48 -42 -70t-64 -22q-20 0 -40.5 8.5t-41.5 22.5q-22 14 -34 21t-24 7q-16 0 -29.5 -13t-18.5 -42l-57 24q10 48 42 70t64 22q20 0 40.5 -8.5t41.5 -22.5q22 -14 34 -21t24 -7
q16 0 30 13.5t18 41.5z" />
    <glyph glyph-name="uni1EAF" unicode="&#x1eaf;" horiz-adv-x="550" 
d="M487 0h-71v96l-1 28v184q0 62 -40 99t-108 37q-49 0 -88.5 -21t-69.5 -57l-52 50q41 44 92.5 68t117.5 24t115.5 -24.5t77 -68.5t27.5 -104v-311zM228 -16q-56 0 -98.5 20.5t-66 55.5t-23.5 80q0 52 29 88.5t79.5 55.5t114.5 19h162v-60h-152q-67 0 -111.5 -24.5
t-44.5 -76.5q0 -44 33 -70t87 -26q52 0 94 20.5t67.5 57.5t28.5 85l30 -17q0 -60 -29.5 -107t-81.5 -74t-118 -27zM267 582q-59 0 -102 41t-49 109h62q6 -46 30.5 -69.5t58.5 -23.5t58.5 23.5t30.5 69.5h62q-6 -68 -49 -109t-102 -41zM223 726l108 141h88l-135 -141h-61z
" />
    <glyph glyph-name="uni1EB1" unicode="&#x1eb1;" horiz-adv-x="550" 
d="M487 0h-71v96l-1 28v184q0 62 -40 99t-108 37q-49 0 -88.5 -21t-69.5 -57l-52 50q41 44 92.5 68t117.5 24t115.5 -24.5t77 -68.5t27.5 -104v-311zM228 -16q-56 0 -98.5 20.5t-66 55.5t-23.5 80q0 52 29 88.5t79.5 55.5t114.5 19h162v-60h-152q-67 0 -111.5 -24.5
t-44.5 -76.5q0 -44 33 -70t87 -26q52 0 94 20.5t67.5 57.5t28.5 85l30 -17q0 -60 -29.5 -107t-81.5 -74t-118 -27zM267 582q-59 0 -102 41t-49 109h62q6 -46 30.5 -69.5t58.5 -23.5t58.5 23.5t30.5 69.5h62q-6 -68 -49 -109t-102 -41zM247 726l-135 141h90l108 -141h-63z
" />
    <glyph glyph-name="uni1EB3" unicode="&#x1eb3;" horiz-adv-x="550" 
d="M487 0h-71v96l-1 28v184q0 62 -40 99t-108 37q-49 0 -88.5 -21t-69.5 -57l-52 50q41 44 92.5 68t117.5 24t115.5 -24.5t77 -68.5t27.5 -104v-311zM228 -16q-56 0 -98.5 20.5t-66 55.5t-23.5 80q0 52 29 88.5t79.5 55.5t114.5 19h162v-60h-152q-67 0 -111.5 -24.5
t-44.5 -76.5q0 -44 33 -70t87 -26q52 0 94 20.5t67.5 57.5t28.5 85l30 -17q0 -60 -29.5 -107t-81.5 -74t-118 -27zM267 582q-59 0 -102 41t-49 109h62q6 -46 30.5 -69.5t58.5 -23.5t58.5 23.5t30.5 69.5h62q-6 -68 -49 -109t-102 -41zM253 698l-22 42q29 13 44.5 28t15.5 31
q0 35 -43 35q-27 0 -52 -20l-31 39q38 34 90 34q40 0 67.5 -24.5t27.5 -60.5q0 -32 -25 -59.5t-72 -44.5z" />
    <glyph glyph-name="uni1EB5" unicode="&#x1eb5;" horiz-adv-x="550" 
d="M487 0h-71v96l-1 28v184q0 62 -40 99t-108 37q-49 0 -88.5 -21t-69.5 -57l-52 50q41 44 92.5 68t117.5 24t115.5 -24.5t77 -68.5t27.5 -104v-311zM228 -16q-56 0 -98.5 20.5t-66 55.5t-23.5 80q0 52 29 88.5t79.5 55.5t114.5 19h162v-60h-152q-67 0 -111.5 -24.5
t-44.5 -76.5q0 -44 33 -70t87 -26q52 0 94 20.5t67.5 57.5t28.5 85l30 -17q0 -60 -29.5 -107t-81.5 -74t-118 -27zM267 582q-59 0 -102 41t-49 109h62q6 -46 30.5 -69.5t58.5 -23.5t58.5 23.5t30.5 69.5h62q-6 -68 -49 -109t-102 -41zM168 773l-47 20q7 42 28 64.5t53 22.5
q22 0 39.5 -7.5t36.5 -22.5t29 -20.5t18 -5.5q32 0 40 54l47 -20q-7 -42 -28 -64.5t-53 -22.5q-22 0 -38.5 7t-37.5 23q-19 15 -29 20.5t-18 5.5q-16 0 -26 -14t-14 -40z" />
    <glyph glyph-name="uni1EB7" unicode="&#x1eb7;" horiz-adv-x="550" 
d="M487 0h-71v96l-1 28v184q0 62 -40 99t-108 37q-49 0 -88.5 -21t-69.5 -57l-52 50q41 44 92.5 68t117.5 24t115.5 -24.5t77 -68.5t27.5 -104v-311zM228 -16q-56 0 -98.5 20.5t-66 55.5t-23.5 80q0 52 29 88.5t79.5 55.5t114.5 19h162v-60h-152q-67 0 -111.5 -24.5
t-44.5 -76.5q0 -44 33 -70t87 -26q52 0 94 20.5t67.5 57.5t28.5 85l30 -17q0 -60 -29.5 -107t-81.5 -74t-118 -27zM267 582q-59 0 -102 41t-49 109h62q6 -46 30.5 -69.5t58.5 -23.5t58.5 23.5t30.5 69.5h62q-6 -68 -49 -109t-102 -41zM267 -237q-22 0 -38 15.5t-16 37.5
q0 23 16 38.5t38 15.5q23 0 38.5 -15.5t15.5 -38.5q0 -22 -15.5 -37.5t-38.5 -15.5z" />
    <glyph glyph-name="uni1EBD" unicode="&#x1ebd;" horiz-adv-x="601" 
d="M486 140l52 -49q-39 -50 -94 -78.5t-126 -28.5q-78 0 -139.5 34t-96.5 93t-35 135t33.5 135t92.5 93t134 34q72 0 127.5 -33.5t87.5 -91.5t32 -134v-6h-76v6q0 58 -22.5 101.5t-61 68t-87.5 24.5q-54 0 -95 -25t-64 -69t-23 -102t25 -103t68.5 -70t100.5 -25
q104 0 167 91zM554 220h-445v61h429l16 -32v-29zM415 720l55 -25q-10 -55 -35.5 -76.5t-55.5 -21.5q-22 0 -43 9t-42 25q-20 16 -31.5 22.5t-22.5 6.5q-15 0 -26.5 -15.5t-15.5 -47.5l-55 25q10 55 35.5 76.5t55.5 21.5q23 0 43.5 -9t41.5 -25q20 -16 32 -22.5t22 -6.5
q15 0 26.5 15.5t15.5 47.5z" />
    <glyph glyph-name="uni1EF9" unicode="&#x1ef9;" horiz-adv-x="537" 
d="M441 492h76l-250 -581q-21 -49 -52 -77t-94 -28h-49v64h49q32 0 52.5 16t33.5 47l26 65l-213 494h80l186 -453h-32zM377 720l55 -25q-10 -55 -35.5 -76.5t-55.5 -21.5q-22 0 -43 9t-42 25q-20 16 -31.5 22.5t-22.5 6.5q-15 0 -26.5 -15.5t-15.5 -47.5l-55 25
q10 55 35.5 76.5t55.5 21.5q23 0 43.5 -9t41.5 -25q20 -16 32 -22.5t22 -6.5q15 0 26.5 15.5t15.5 47.5z" />
    <glyph glyph-name="uni031B" unicode="&#x31b;" 
d="M0 429v63h36q49 0 69 18.5t20 57.5v44h73v-37q0 -75 -39.5 -110.5t-128.5 -35.5h-30z" />
    <glyph glyph-name="Ohorn" unicode="&#x1a0;" horiz-adv-x="864" 
d="M426 -16q-80 0 -147.5 28t-118 78.5t-78 119t-27.5 148.5t27.5 148t78 118.5t118 78.5t147.5 28q20 0 39 -2t44 -7q26 -4 64 -6.5t67 -2.5q40 0 68 7t43.5 28t15.5 63v54h77v-45q0 -82 -39.5 -125t-113.5 -43q-16 0 -31 1.5t-26 3.5l2 13q74 -49 117.5 -130t43.5 -182
q0 -80 -27.5 -148.5t-78 -119t-118 -78.5t-147.5 -28zM426 54q86 0 151.5 39t102.5 108t37 157t-37 156.5t-102.5 107.5t-151.5 39q-85 0 -151 -39t-103 -107.5t-37 -156.5t37 -157t103 -108t151 -39z" />
    <glyph glyph-name="Uhorn" unicode="&#x1af;" horiz-adv-x="746" 
d="M361 -16q-133 0 -209.5 78.5t-76.5 219.5v433h77v-433q0 -111 55 -169.5t154 -58.5q100 0 155 58.5t55 169.5v433h61q47 0 72 25t25 71v54h77v-45q0 -88 -50.5 -131t-145.5 -37l37 45v-415q0 -141 -76 -219.5t-210 -78.5z" />
    <glyph glyph-name="uni1EDA" unicode="&#x1eda;" horiz-adv-x="864" 
d="M426 -16q-80 0 -147.5 28t-118 78.5t-78 119t-27.5 148.5t27.5 148t78 118.5t118 78.5t147.5 28q20 0 39 -2t44 -7q26 -4 64 -6.5t67 -2.5q40 0 68 7t43.5 28t15.5 63v54h77v-45q0 -82 -39.5 -125t-113.5 -43q-16 0 -31 1.5t-26 3.5l2 13q74 -49 117.5 -130t43.5 -182
q0 -80 -27.5 -148.5t-78 -119t-118 -78.5t-147.5 -28zM426 54q86 0 151.5 39t102.5 108t37 157t-37 156.5t-102.5 107.5t-151.5 39q-85 0 -151 -39t-103 -107.5t-37 -156.5t37 -157t103 -108t151 -39zM602 943l-155 -144h-77l134 144h98z" />
    <glyph glyph-name="uni1EE8" unicode="&#x1ee8;" horiz-adv-x="746" 
d="M361 -16q-133 0 -209.5 78.5t-76.5 219.5v433h77v-433q0 -111 55 -169.5t154 -58.5q100 0 155 58.5t55 169.5v433h61q47 0 72 25t25 71v54h77v-45q0 -88 -50.5 -131t-145.5 -37l37 45v-415q0 -141 -76 -219.5t-210 -78.5zM537 943l-155 -144h-77l134 144h98z" />
    <glyph glyph-name="uni1EDC" unicode="&#x1edc;" horiz-adv-x="864" 
d="M426 -16q-80 0 -147.5 28t-118 78.5t-78 119t-27.5 148.5t27.5 148t78 118.5t118 78.5t147.5 28q20 0 39 -2t44 -7q26 -4 64 -6.5t67 -2.5q40 0 68 7t43.5 28t15.5 63v54h77v-45q0 -82 -39.5 -125t-113.5 -43q-16 0 -31 1.5t-26 3.5l2 13q74 -49 117.5 -130t43.5 -182
q0 -80 -27.5 -148.5t-78 -119t-118 -78.5t-147.5 -28zM426 54q86 0 151.5 39t102.5 108t37 157t-37 156.5t-102.5 107.5t-151.5 39q-85 0 -151 -39t-103 -107.5t-37 -156.5t37 -157t103 -108t151 -39zM405 799l-155 144h98l134 -144h-77z" />
    <glyph glyph-name="uni1EEA" unicode="&#x1eea;" horiz-adv-x="746" 
d="M361 -16q-133 0 -209.5 78.5t-76.5 219.5v433h77v-433q0 -111 55 -169.5t154 -58.5q100 0 155 58.5t55 169.5v433h61q47 0 72 25t25 71v54h77v-45q0 -88 -50.5 -131t-145.5 -37l37 45v-415q0 -141 -76 -219.5t-210 -78.5zM340 799l-155 144h98l134 -144h-77z" />
    <glyph glyph-name="uni1EDE" unicode="&#x1ede;" horiz-adv-x="864" 
d="M426 -16q-80 0 -147.5 28t-118 78.5t-78 119t-27.5 148.5t27.5 148t78 118.5t118 78.5t147.5 28q20 0 39 -2t44 -7q26 -4 64 -6.5t67 -2.5q40 0 68 7t43.5 28t15.5 63v54h77v-45q0 -82 -39.5 -125t-113.5 -43q-16 0 -31 1.5t-26 3.5l2 13q74 -49 117.5 -130t43.5 -182
q0 -80 -27.5 -148.5t-78 -119t-118 -78.5t-147.5 -28zM426 54q86 0 151.5 39t102.5 108t37 157t-37 156.5t-102.5 107.5t-151.5 39q-85 0 -151 -39t-103 -107.5t-37 -156.5t37 -157t103 -108t151 -39zM418 765l-23 44q31 14 47 31t16 36q0 39 -46 39q-28 0 -54 -21l-33 41
q42 36 95 36q42 0 71 -26.5t29 -64.5q0 -36 -26.5 -66t-75.5 -49z" />
    <glyph glyph-name="uni1EEC" unicode="&#x1eec;" horiz-adv-x="746" 
d="M361 -16q-133 0 -209.5 78.5t-76.5 219.5v433h77v-433q0 -111 55 -169.5t154 -58.5q100 0 155 58.5t55 169.5v433h61q47 0 72 25t25 71v54h77v-45q0 -88 -50.5 -131t-145.5 -37l37 45v-415q0 -141 -76 -219.5t-210 -78.5zM353 765l-23 44q31 14 47 31t16 36q0 39 -46 39
q-28 0 -54 -21l-33 41q42 36 95 36q42 0 71 -26.5t29 -64.5q0 -36 -26.5 -66t-75.5 -49z" />
    <glyph glyph-name="uni1EE0" unicode="&#x1ee0;" horiz-adv-x="864" 
d="M426 -16q-80 0 -147.5 28t-118 78.5t-78 119t-27.5 148.5t27.5 148t78 118.5t118 78.5t147.5 28q20 0 39 -2t44 -7q26 -4 64 -6.5t67 -2.5q40 0 68 7t43.5 28t15.5 63v54h77v-45q0 -82 -39.5 -125t-113.5 -43q-16 0 -31 1.5t-26 3.5l2 13q74 -49 117.5 -130t43.5 -182
q0 -80 -27.5 -148.5t-78 -119t-118 -78.5t-147.5 -28zM426 54q86 0 151.5 39t102.5 108t37 157t-37 156.5t-102.5 107.5t-151.5 39q-85 0 -151 -39t-103 -107.5t-37 -156.5t37 -157t103 -108t151 -39zM544 911l57 -24q-10 -48 -42 -70t-64 -22q-20 0 -40.5 8.5t-41.5 22.5
q-22 14 -34 21t-24 7q-16 0 -29.5 -13t-18.5 -42l-57 24q10 48 42 70t64 22q20 0 40.5 -8.5t41.5 -22.5q22 -14 34 -21t24 -7q16 0 30 13.5t18 41.5z" />
    <glyph glyph-name="uni1EEE" unicode="&#x1eee;" horiz-adv-x="746" 
d="M361 -16q-133 0 -209.5 78.5t-76.5 219.5v433h77v-433q0 -111 55 -169.5t154 -58.5q100 0 155 58.5t55 169.5v433h61q47 0 72 25t25 71v54h77v-45q0 -88 -50.5 -131t-145.5 -37l37 45v-415q0 -141 -76 -219.5t-210 -78.5zM479 911l57 -24q-10 -48 -42 -70t-64 -22
q-20 0 -40.5 8.5t-41.5 22.5q-22 14 -34 21t-24 7q-16 0 -29.5 -13t-18.5 -42l-57 24q10 48 42 70t64 22q20 0 40.5 -8.5t41.5 -22.5q22 -14 34 -21t24 -7q16 0 30 13.5t18 41.5z" />
    <glyph glyph-name="uni1EE2" unicode="&#x1ee2;" horiz-adv-x="864" 
d="M426 -16q-80 0 -147.5 28t-118 78.5t-78 119t-27.5 148.5t27.5 148t78 118.5t118 78.5t147.5 28q20 0 39 -2t44 -7q26 -4 64 -6.5t67 -2.5q40 0 68 7t43.5 28t15.5 63v54h77v-45q0 -82 -39.5 -125t-113.5 -43q-16 0 -31 1.5t-26 3.5l2 13q74 -49 117.5 -130t43.5 -182
q0 -80 -27.5 -148.5t-78 -119t-118 -78.5t-147.5 -28zM426 54q86 0 151.5 39t102.5 108t37 157t-37 156.5t-102.5 107.5t-151.5 39q-85 0 -151 -39t-103 -107.5t-37 -156.5t37 -157t103 -108t151 -39zM426 -222q-25 0 -41 16t-16 40q0 25 16 41t41 16t41 -16t16 -41
q0 -24 -16 -40t-41 -16z" />
    <glyph glyph-name="uni1EF0" unicode="&#x1ef0;" horiz-adv-x="746" 
d="M361 -16q-133 0 -209.5 78.5t-76.5 219.5v433h77v-433q0 -111 55 -169.5t154 -58.5q100 0 155 58.5t55 169.5v433h61q47 0 72 25t25 71v54h77v-45q0 -88 -50.5 -131t-145.5 -37l37 45v-415q0 -141 -76 -219.5t-210 -78.5zM362 -222q-25 0 -41 16t-16 40q0 25 16 41t41 16
t41 -16t16 -41q0 -24 -16 -40t-41 -16z" />
    <glyph glyph-name="ohorn" unicode="&#x1a1;" horiz-adv-x="621" 
d="M307 -16q-75 0 -134 34t-92.5 93t-33.5 135t33.5 135t92.5 93t134 34q19 0 37.5 -2t34.5 -7q17 -4 29.5 -5.5t25.5 -1.5q48 0 71 17t23 59v44h73v-37q0 -70 -35 -105t-109 -40l14 24q44 -34 70 -88t26 -120q0 -76 -33.5 -135t-92 -93t-134.5 -34zM307 49q54 0 95 25
t64 69.5t23 102.5t-23 102.5t-64 69.5t-95 25t-95 -25t-64 -69.5t-23 -102.5t23 -102.5t64 -69.5t95 -25z" />
    <glyph glyph-name="uhorn" unicode="&#x1b0;" horiz-adv-x="627" 
d="M448 213l15 -21q5 -60 -21 -107t-73.5 -74t-109.5 -27q-89 0 -142.5 53t-53.5 153v302h74v-294q0 -73 35.5 -111t99.5 -38q45 0 83.5 20.5t63.5 57.5t29 86zM580 612h73v-37q0 -78 -43 -113t-140 -33l42 46v-475h-73v96l-1 28v368h53q49 0 69 18.5t20 57.5v44z" />
    <glyph glyph-name="uni1EDB" unicode="&#x1edb;" horiz-adv-x="621" 
d="M307 -16q-75 0 -134 34t-92.5 93t-33.5 135t33.5 135t92.5 93t134 34q19 0 37.5 -2t34.5 -7q17 -4 29.5 -5.5t25.5 -1.5q48 0 71 17t23 59v44h73v-37q0 -70 -35 -105t-109 -40l14 24q44 -34 70 -88t26 -120q0 -76 -33.5 -135t-92 -93t-134.5 -34zM307 49q54 0 95 25
t64 69.5t23 102.5t-23 102.5t-64 69.5t-95 25t-95 -25t-64 -69.5t-23 -102.5t23 -102.5t64 -69.5t95 -25zM457 761l-135 -174h-67l114 174h88z" />
    <glyph glyph-name="uni1EE9" unicode="&#x1ee9;" horiz-adv-x="627" 
d="M448 213l15 -21q5 -60 -21 -107t-73.5 -74t-109.5 -27q-89 0 -142.5 53t-53.5 153v302h74v-294q0 -73 35.5 -111t99.5 -38q45 0 83.5 20.5t63.5 57.5t29 86zM580 612h73v-37q0 -78 -43 -113t-140 -33l42 46v-475h-73v96l-1 28v368h53q49 0 69 18.5t20 57.5v44zM437 761
l-135 -174h-67l114 174h88z" />
    <glyph glyph-name="uni1EDD" unicode="&#x1edd;" horiz-adv-x="621" 
d="M307 -16q-75 0 -134 34t-92.5 93t-33.5 135t33.5 135t92.5 93t134 34q19 0 37.5 -2t34.5 -7q17 -4 29.5 -5.5t25.5 -1.5q48 0 71 17t23 59v44h73v-37q0 -70 -35 -105t-109 -40l14 24q44 -34 70 -88t26 -120q0 -76 -33.5 -135t-92 -93t-134.5 -34zM307 49q54 0 95 25
t64 69.5t23 102.5t-23 102.5t-64 69.5t-95 25t-95 -25t-64 -69.5t-23 -102.5t23 -102.5t64 -69.5t95 -25zM292 587l-135 174h88l114 -174h-67z" />
    <glyph glyph-name="uni1EEB" unicode="&#x1eeb;" horiz-adv-x="627" 
d="M448 213l15 -21q5 -60 -21 -107t-73.5 -74t-109.5 -27q-89 0 -142.5 53t-53.5 153v302h74v-294q0 -73 35.5 -111t99.5 -38q45 0 83.5 20.5t63.5 57.5t29 86zM580 612h73v-37q0 -78 -43 -113t-140 -33l42 46v-475h-73v96l-1 28v368h53q49 0 69 18.5t20 57.5v44zM272 587
l-135 174h88l114 -174h-67z" />
    <glyph glyph-name="uni1EDF" unicode="&#x1edf;" horiz-adv-x="621" 
d="M307 -16q-75 0 -134 34t-92.5 93t-33.5 135t33.5 135t92.5 93t134 34q19 0 37.5 -2t34.5 -7q17 -4 29.5 -5.5t25.5 -1.5q48 0 71 17t23 59v44h73v-37q0 -70 -35 -105t-109 -40l14 24q44 -34 70 -88t26 -120q0 -76 -33.5 -135t-92 -93t-134.5 -34zM307 49q54 0 95 25
t64 69.5t23 102.5t-23 102.5t-64 69.5t-95 25t-95 -25t-64 -69.5t-23 -102.5t23 -102.5t64 -69.5t95 -25zM299 560l-23 44q31 14 47 29.5t16 32.5q0 37 -46 37q-28 0 -54 -21l-33 41q42 36 95 36q42 0 71 -25.5t29 -63.5q0 -34 -26.5 -63t-75.5 -47z" />
    <glyph glyph-name="uni1EED" unicode="&#x1eed;" horiz-adv-x="627" 
d="M448 213l15 -21q5 -60 -21 -107t-73.5 -74t-109.5 -27q-89 0 -142.5 53t-53.5 153v302h74v-294q0 -73 35.5 -111t99.5 -38q45 0 83.5 20.5t63.5 57.5t29 86zM580 612h73v-37q0 -78 -43 -113t-140 -33l42 46v-475h-73v96l-1 28v368h53q49 0 69 18.5t20 57.5v44zM279 560
l-23 44q31 14 47 29.5t16 32.5q0 37 -46 37q-28 0 -54 -21l-33 41q42 36 95 36q42 0 71 -25.5t29 -63.5q0 -34 -26.5 -63t-75.5 -47z" />
    <glyph glyph-name="uni1EE1" unicode="&#x1ee1;" horiz-adv-x="621" 
d="M307 -16q-75 0 -134 34t-92.5 93t-33.5 135t33.5 135t92.5 93t134 34q19 0 37.5 -2t34.5 -7q17 -4 29.5 -5.5t25.5 -1.5q48 0 71 17t23 59v44h73v-37q0 -70 -35 -105t-109 -40l14 24q44 -34 70 -88t26 -120q0 -76 -33.5 -135t-92 -93t-134.5 -34zM307 49q54 0 95 25
t64 69.5t23 102.5t-23 102.5t-64 69.5t-95 25t-95 -25t-64 -69.5t-23 -102.5t23 -102.5t64 -69.5t95 -25zM415 720l55 -25q-10 -55 -35.5 -76.5t-55.5 -21.5q-22 0 -43 9t-42 25q-20 16 -31.5 22.5t-22.5 6.5q-15 0 -26.5 -15.5t-15.5 -47.5l-55 25q10 55 35.5 76.5
t55.5 21.5q23 0 43.5 -9t41.5 -25q20 -16 32 -22.5t22 -6.5q15 0 26.5 15.5t15.5 47.5z" />
    <glyph glyph-name="uni1EEF" unicode="&#x1eef;" horiz-adv-x="627" 
d="M448 213l15 -21q5 -60 -21 -107t-73.5 -74t-109.5 -27q-89 0 -142.5 53t-53.5 153v302h74v-294q0 -73 35.5 -111t99.5 -38q45 0 83.5 20.5t63.5 57.5t29 86zM580 612h73v-37q0 -78 -43 -113t-140 -33l42 46v-475h-73v96l-1 28v368h53q49 0 69 18.5t20 57.5v44zM395 720
l55 -25q-10 -55 -35.5 -76.5t-55.5 -21.5q-22 0 -43 9t-42 25q-20 16 -31.5 22.5t-22.5 6.5q-15 0 -26.5 -15.5t-15.5 -47.5l-55 25q10 55 35.5 76.5t55.5 21.5q23 0 43.5 -9t41.5 -25q20 -16 32 -22.5t22 -6.5q15 0 26.5 15.5t15.5 47.5z" />
    <glyph glyph-name="uni1EE3" unicode="&#x1ee3;" horiz-adv-x="621" 
d="M307 -16q-75 0 -134 34t-92.5 93t-33.5 135t33.5 135t92.5 93t134 34q19 0 37.5 -2t34.5 -7q17 -4 29.5 -5.5t25.5 -1.5q48 0 71 17t23 59v44h73v-37q0 -70 -35 -105t-109 -40l14 24q44 -34 70 -88t26 -120q0 -76 -33.5 -135t-92 -93t-134.5 -34zM307 49q54 0 95 25
t64 69.5t23 102.5t-23 102.5t-64 69.5t-95 25t-95 -25t-64 -69.5t-23 -102.5t23 -102.5t64 -69.5t95 -25zM307 -237q-22 0 -38 15.5t-16 37.5q0 23 16 38.5t38 15.5q23 0 38.5 -15.5t15.5 -38.5q0 -22 -15.5 -37.5t-38.5 -15.5z" />
    <glyph glyph-name="uni1EF1" unicode="&#x1ef1;" horiz-adv-x="627" 
d="M448 213l15 -21q5 -60 -21 -107t-73.5 -74t-109.5 -27q-89 0 -142.5 53t-53.5 153v302h74v-294q0 -73 35.5 -111t99.5 -38q45 0 83.5 20.5t63.5 57.5t29 86zM580 612h73v-37q0 -78 -43 -113t-140 -33l42 46v-475h-73v96l-1 28v368h53q49 0 69 18.5t20 57.5v44zM287 -237
q-22 0 -38 15.5t-16 37.5q0 23 16 38.5t38 15.5q23 0 38.5 -15.5t15.5 -38.5q0 -22 -15.5 -37.5t-38.5 -15.5z" />
    <glyph glyph-name="uni0410" unicode="&#x410;" horiz-adv-x="727" 
d="M555 200h-389v68h389v-68zM691 0h-81l-265 669h34l-265 -669h-78l286 715h83z" />
    <glyph glyph-name="uni0411" unicode="&#x411;" horiz-adv-x="663" 
d="M95 0v715h77v-659l-12 12h223q74 0 115.5 36t41.5 100t-41.5 99.5t-115.5 35.5h-247v68h247q72 0 125 -25t82 -70.5t29 -107.5q0 -61 -29.5 -107t-82.5 -71.5t-124 -25.5h-288zM150 646v69h413v-69h-413z" />
    <glyph glyph-name="uni0412" unicode="&#x412;" horiz-adv-x="676" 
d="M95 0v715h268q69 0 120 -23.5t79 -66t28 -99.5q0 -52 -28 -92t-79 -62.5t-120 -22.5h-181v48h204q71 0 124 -24t82.5 -68t29.5 -104t-29.5 -105.5t-82.5 -70.5t-124 -25h-291zM172 68h214q73 0 115 35t42 98t-42 98t-115 35h-224v68h201q69 0 109 33t40 91q0 56 -40 88.5
t-109 32.5h-191v-579z" />
    <glyph glyph-name="uni0413" unicode="&#x413;" horiz-adv-x="548" 
d="M95 0v715h443v-69h-408l42 52v-698h-77z" />
    <glyph glyph-name="uni0414" unicode="&#x414;" horiz-adv-x="780" 
d="M72 30v39h25q28 0 44.5 36.5t25.5 115.5l57 494h437v-685h-77v667l53 -51h-388l49 51l-57 -486q-7 -58 -20 -98.5t-40 -61.5t-76 -21h-33zM30 -174v243h705v-243h-75v229l63 -55h-639l21 55v-229h-75z" />
    <glyph glyph-name="uni0415" unicode="&#x415;" horiz-adv-x="613" 
d="M568 0h-473v715h473v-68h-396v-579h396v-68zM549 332h-387v68h387v-68z" />
    <glyph glyph-name="uni0416" unicode="&#x416;" horiz-adv-x="1000" 
d="M877 0l-363 371h14l332 344h100l-337 -346l359 -369h-105zM18 0l359 369l-337 346h100l332 -344h14l-363 -371h-105zM461 0v715h77v-715h-77z" />
    <glyph glyph-name="uni0417" unicode="&#x417;" horiz-adv-x="637" 
d="M308 -16q-85 0 -158.5 35.5t-124.5 100.5l55 52q41 -58 99.5 -88t129.5 -30q56 0 100 19.5t69.5 53.5t25.5 77q0 62 -49 98.5t-131 36.5h-151v68h151q71 0 115.5 35.5t44.5 92.5q0 56 -48.5 91t-126.5 35q-68 0 -116 -26t-97 -89l-54 49q56 71 119.5 103.5t148.5 32.5
q73 0 130 -25t90 -68t33 -98t-31.5 -97.5t-87.5 -64.5q66 -22 102.5 -68t36.5 -108q0 -61 -36.5 -110.5t-98.5 -78.5t-140 -29z" />
    <glyph glyph-name="uni0418" unicode="&#x418;" horiz-adv-x="762" 
d="M95 0v715h77v-666h-45l454 666h86v-715h-77v661h40l-452 -661h-83z" />
    <glyph glyph-name="uni041A" unicode="&#x41a;" horiz-adv-x="697" 
d="M172 0h-77v715h77v-715zM679 0h-118l-413 371h14l371 344h104l-394 -357v26z" />
    <glyph glyph-name="uni041B" unicode="&#x41b;" horiz-adv-x="724" 
d="M20 0v69h45q27 0 41 13t18 40l74 593h431v-715h-77v697l53 -51h-381l48 51l-74 -589q-4 -36 -19.5 -60t-41.5 -36t-64 -12h-53z" />
    <glyph glyph-name="uni041C" unicode="&#x41c;" horiz-adv-x="922" 
d="M490 60h-58l-288 602h26v-662h-75v715h101l290 -608h-48l290 608h99v-715h-75v662h26z" />
    <glyph glyph-name="uni041D" unicode="&#x41d;" horiz-adv-x="762" 
d="M590 0v715h77v-715h-77zM172 0h-77v715h77v-715zM162 337v69h438v-69h-438z" />
    <glyph glyph-name="uni041E" unicode="&#x41e;" horiz-adv-x="852" 
d="M426 -16q-80 0 -147.5 28t-118 78.5t-78 119t-27.5 148.5t27.5 148t78 118.5t118 78.5t147.5 28t147.5 -28t118 -78.5t78 -118.5t27.5 -148t-27.5 -148.5t-78 -119t-118 -78.5t-147.5 -28zM426 54q86 0 151.5 39t102.5 108t37 157t-37 156.5t-102.5 107.5t-151.5 39
q-85 0 -151 -39t-103 -107.5t-37 -156.5t37 -157t103 -108t151 -39z" />
    <glyph glyph-name="uni041F" unicode="&#x41f;" horiz-adv-x="758" 
d="M95 0v715h568v-715h-77v698l42 -52h-498l42 52v-698h-77z" />
    <glyph glyph-name="uni0420" unicode="&#x420;" horiz-adv-x="654" 
d="M172 0h-77v715h277q71 0 123.5 -25t82 -70t29.5 -105t-29.5 -105t-82 -70t-123.5 -25h-210v68h210q73 0 114.5 35t41.5 97t-41.5 97t-114.5 35h-200v-647z" />
    <glyph glyph-name="uni0421" unicode="&#x421;" horiz-adv-x="739" 
d="M642 173l56 -53q-46 -63 -120.5 -99.5t-163.5 -36.5q-77 0 -142.5 28t-114 78.5t-75.5 118.5t-27 148t27.5 148.5t76.5 119t114.5 78.5t142.5 28q89 0 162.5 -36.5t119.5 -99.5l-56 -53q-37 55 -94 87t-132 32q-80 0 -143.5 -39.5t-100.5 -108t-37 -156.5
q0 -87 37 -155.5t100.5 -108t143.5 -39.5q75 0 132 32t94 87z" />
    <glyph glyph-name="uni0422" unicode="&#x422;" horiz-adv-x="625" 
d="M351 0h-77v656h77v-656zM589 646h-553v69h553v-69z" />
    <glyph glyph-name="uni0423" unicode="&#x423;" horiz-adv-x="660" 
d="M79 0v66h81q33 0 55 9.5t39.5 32t36.5 61.5l268 546h81l-284 -569q-28 -56 -54 -88t-59 -45t-83 -13h-81zM306 161l-286 554h81l266 -519z" />
    <glyph glyph-name="uni0424" unicode="&#x424;" horiz-adv-x="863" 
d="M432 74q-185 0 -281 72.5t-96 211.5t96 211t281 72t280.5 -72t95.5 -211t-95.5 -211.5t-280.5 -72.5zM432 144q148 0 222 53t74 161q0 107 -74.5 160t-221.5 53q-148 0 -222.5 -52.5t-74.5 -160.5q0 -106 75 -160t222 -54zM393 -30v118l3 44v452l-3 39v122h77v-122
l-3 -39v-452l3 -44v-118h-77z" />
    <glyph glyph-name="uni0425" unicode="&#x425;" horiz-adv-x="668" 
d="M111 0h-91l274 392l1 -42l-251 365h90l214 -320h-27l214 320h88l-250 -365l1 42l274 -392h-92l-236 345h28z" />
    <glyph glyph-name="uni0426" unicode="&#x426;" horiz-adv-x="781" 
d="M95 0v715h77v-698l-42 52h497l-42 -52v698h77v-715h-567zM661 -174v243h75v-243h-75z" />
    <glyph glyph-name="uni0427" unicode="&#x427;" horiz-adv-x="672" 
d="M303 268q-118 0 -183 57.5t-65 163.5v226h77v-218q0 -76 47 -117.5t130 -41.5q58 0 113 19.5t91 51.5l31 -54q-46 -43 -107.5 -65t-133.5 -22zM500 0v715h77v-715h-77z" />
    <glyph glyph-name="uni0428" unicode="&#x428;" horiz-adv-x="1117" 
d="M95 0v715h77v-698l-42 52h422l-32 -52v698h77v-698l-32 52h422l-42 -52v698h77v-715h-927z" />
    <glyph glyph-name="uni0429" unicode="&#x429;" horiz-adv-x="1141" 
d="M95 0v715h77v-658l-12 12h372l-12 -12v658h77v-658l-12 12h372l-12 -12v658h77v-715h-927zM1021 -174v243h75v-243h-75z" />
    <glyph glyph-name="uni042A" unicode="&#x42a;" horiz-adv-x="720" 
d="M151 0v658l12 -12h-153v69h218v-658l-12 12h223q74 0 115.5 37t41.5 101q0 65 -41.5 101.5t-115.5 36.5h-237v69h237q72 0 125 -25.5t82 -72t29 -109.5q0 -62 -29.5 -108.5t-82.5 -72.5t-124 -26h-288z" />
    <glyph glyph-name="uni042B" unicode="&#x42b;" horiz-adv-x="901" 
d="M95 0v715h77v-659l-12 13h223q74 0 115.5 37t41.5 101q0 65 -41.5 101.5t-115.5 36.5h-247v69h247q72 0 125 -25.5t82 -72t29 -109.5q0 -62 -29.5 -108.5t-82.5 -72.5t-124 -26h-288zM806 0h-77v715h77v-715z" />
    <glyph glyph-name="uni042C" unicode="&#x42c;" horiz-adv-x="664" 
d="M95 0v715h77v-659l-12 13h223q74 0 115.5 37t41.5 101q0 65 -41.5 101.5t-115.5 36.5h-247v69h247q72 0 125 -25.5t82 -72t29 -109.5q0 -62 -29.5 -108.5t-82.5 -72.5t-124 -26h-288z" />
    <glyph glyph-name="uni042D" unicode="&#x42d;" horiz-adv-x="738" 
d="M335 -16q-91 0 -169.5 36.5t-125.5 99.5l52 49q40 -52 102 -83.5t138 -31.5q81 0 142 38t95 106.5t34 158.5q0 91 -35 159t-96.5 106.5t-141.5 38.5q-74 0 -132 -32t-102 -85l-55 51q51 63 125 99.5t165 36.5q75 0 139.5 -27.5t112 -77t74 -118t26.5 -151.5
q0 -110 -44 -194t-122 -131.5t-182 -47.5zM185 337v69h450v-69h-450z" />
    <glyph glyph-name="uni042E" unicode="&#x42e;" horiz-adv-x="1075" 
d="M663 -16q-77 0 -142 28t-113.5 78.5t-75.5 119t-27 148.5t27 148t75.5 118.5t113.5 78.5t142 28t142 -28t113.5 -78.5t75 -118.5t26.5 -148t-26.5 -148.5t-75 -119t-113.5 -78.5t-142 -28zM95 0v715h77v-715h-77zM162 337v69h190v-69h-190zM663 54q82 0 144 39t97.5 108
t35.5 157t-35.5 156.5t-97.5 107.5t-144 39q-81 0 -144 -39t-98.5 -107.5t-35.5 -156.5t35.5 -157t98.5 -108t144 -39z" />
    <glyph glyph-name="uni042F" unicode="&#x42f;" horiz-adv-x="682" 
d="M510 0v647h-200q-73 0 -114.5 -35t-41.5 -97t41.5 -97t114.5 -35h210v-68h-210q-70 0 -123 25t-82.5 70t-29.5 105t29.5 105t82.5 70t123 25h277v-715h-77zM35 0l244 333h86l-237 -333h-93z" />
    <glyph glyph-name="uni0430" unicode="&#x430;" horiz-adv-x="550" 
d="M487 0h-71v96l-1 28v184q0 62 -40 99t-108 37q-49 0 -88.5 -21t-69.5 -57l-52 50q41 44 92.5 68t117.5 24t115.5 -24.5t77 -68.5t27.5 -104v-311zM228 -16q-56 0 -98.5 20.5t-66 55.5t-23.5 80q0 52 29 88.5t79.5 55.5t114.5 19h162v-60h-152q-67 0 -111.5 -24.5
t-44.5 -76.5q0 -44 33 -70t87 -26q52 0 94 20.5t67.5 57.5t28.5 85l30 -17q0 -60 -29.5 -107t-81.5 -74t-118 -27z" />
    <glyph glyph-name="uni0431" unicode="&#x431;" horiz-adv-x="593" 
d="M300 -16q-124 0 -188.5 89.5t-64.5 260.5q0 163 52.5 246t166.5 102l220 37l13 -65l-220 -39q-58 -10 -93 -40t-51 -87.5t-19 -152.5l-13 -30q6 55 38 94.5t80 61t100 21.5q73 0 123 -32.5t76 -87.5t26 -124q0 -77 -30 -134.5t-85.5 -88.5t-130.5 -31zM299 50
q79 0 124.5 50.5t45.5 137.5q0 85 -42.5 132.5t-117.5 47.5q-45 0 -83.5 -22.5t-65.5 -62t-36 -91.5l3 60q-3 -127 39.5 -189.5t132.5 -62.5z" />
    <glyph glyph-name="uni0432" unicode="&#x432;" horiz-adv-x="547" 
d="M80 0v492h250q74 0 118 -35.5t44 -94.5q0 -37 -22 -65t-60 -43l-1 9q47 -13 76.5 -43.5t29.5 -75.5q0 -41 -24.5 -74t-66 -51.5t-91.5 -18.5h-253zM154 16l-46 47h225q48 0 76 21.5t28 59.5t-28 59.5t-76 21.5h-214v63h211q46 0 65 20t19 54q0 33 -19 50t-65 17h-221
l45 47v-460z" />
    <glyph glyph-name="uni0433" unicode="&#x433;" horiz-adv-x="453" 
d="M80 0v492h343v-63h-331l62 48v-477h-74z" />
    <glyph glyph-name="uni0434" unicode="&#x434;" horiz-adv-x="599" 
d="M40 20v43h20q20 0 31.5 9.5t18 31.5t10.5 60l39 328h340v-462h-74v447l52 -48h-307l60 48l-40 -319q-6 -51 -19 -81t-36.5 -43.5t-64.5 -13.5h-30zM20 -128v191h549v-191h-70v181l52 -53h-490l29 53v-181h-70z" />
    <glyph glyph-name="uni0435" unicode="&#x435;" horiz-adv-x="601" 
d="M486 140l52 -49q-39 -50 -94 -78.5t-126 -28.5q-78 0 -139.5 34t-96.5 93t-35 135t33.5 135t92.5 93t134 34q72 0 127.5 -33.5t87.5 -91.5t32 -134v-6h-76v6q0 58 -22.5 101.5t-61 68t-87.5 24.5q-54 0 -95 -25t-64 -69t-23 -102t25 -103t68.5 -70t100.5 -25
q104 0 167 91zM554 220h-445v61h429l16 -32v-29z" />
    <glyph glyph-name="uni0436" unicode="&#x436;" horiz-adv-x="759" 
d="M645 0l-255 255h10l236 237h95l-239 -241l253 -251h-100zM14 0l253 251l-238 241h94l236 -237h10l-254 -255h-101zM342 0v492h74v-492h-74z" />
    <glyph glyph-name="uni0437" unicode="&#x437;" horiz-adv-x="489" 
d="M238 -17q-61 0 -120.5 22t-97.5 65l47 47q68 -68 169 -68q66 0 106 26t40 69q0 79 -133 79h-102v63h104q56 0 85.5 19t29.5 55q0 38 -35.5 60.5t-94.5 22.5q-94 0 -157 -70l-49 49q80 86 206 86q60 0 106 -18t72.5 -49.5t26.5 -72.5t-25 -70.5t-71 -42.5l-1 8
q54 -13 83.5 -45.5t29.5 -79.5q0 -44 -29 -79t-78.5 -55.5t-111.5 -20.5z" />
    <glyph glyph-name="uni0438" unicode="&#x438;" horiz-adv-x="610" 
d="M80 0v492h74v-393l-8 3l320 390h64v-492h-74v393l8 -3l-320 -390h-64z" />
    <glyph glyph-name="uni043A" unicode="&#x43a;" horiz-adv-x="536" 
d="M414 0l-286 255h10l258 237h101l-271 -246l-25 36l321 -282h-108zM80 0v492h74v-492h-74z" />
    <glyph glyph-name="uni043B" unicode="&#x43b;" horiz-adv-x="579" 
d="M20 0v64h40q27 0 41 14.5t17 53.5l31 360h350v-492h-74v477l52 -48h-312l57 48l-33 -357q-6 -66 -34.5 -93t-84.5 -27h-50z" />
    <glyph glyph-name="uni043C" unicode="&#x43c;" horiz-adv-x="728" 
d="M80 0v492h86l204 -380h-16l204 380h90v-492h-73v467h42l-226 -422h-63l-224 422h47v-467h-71z" />
    <glyph glyph-name="uni043D" unicode="&#x43d;" horiz-adv-x="614" 
d="M460 0v492h74v-492h-74zM80 0v492h74v-492h-74zM116 227v63h385v-63h-385z" />
    <glyph glyph-name="uni043E" unicode="&#x43e;" horiz-adv-x="614" 
d="M307 -16q-75 0 -134 34t-92.5 93t-33.5 135t33.5 135t92.5 93t134 34q76 0 134.5 -34t92 -93t33.5 -135t-33.5 -135t-92 -93t-134.5 -34zM307 49q54 0 95 25t64 69.5t23 102.5t-23 102.5t-64 69.5t-95 25t-95 -25t-64 -69.5t-23 -102.5t23 -102.5t64 -69.5t95 -25z" />
    <glyph glyph-name="uni043F" unicode="&#x43f;" horiz-adv-x="595" 
d="M80 0v492h435v-492h-74v477l52 -48h-401l62 48v-477h-74z" />
    <glyph glyph-name="uni0440" unicode="&#x440;" horiz-adv-x="643" 
d="M154 -194h-74v686h73v-149h-18q9 49 39.5 86t76 58t98.5 21q72 0 128 -34.5t87.5 -93.5t31.5 -134q0 -76 -32.5 -135t-90 -93t-131.5 -34q-67 0 -117.5 27.5t-76 75t-18.5 106.5l14 20q4 -47 30 -84.5t68 -58.5t92 -21q55 0 96 25.5t64.5 70t23.5 101.5t-22.5 101.5
t-62.5 70t-93 25.5q-54 0 -96 -27t-66 -74.5t-24 -110.5v-425z" />
    <glyph glyph-name="uni0441" unicode="&#x441;" horiz-adv-x="545" 
d="M455 128l53 -49q-34 -44 -85.5 -69.5t-116.5 -25.5q-75 0 -133.5 34t-92 93t-33.5 135t33.5 135t92.5 93t134 34q65 0 116 -25.5t85 -69.5l-53 -49q-24 36 -60 57.5t-88 21.5q-54 0 -95 -25t-64 -69.5t-23 -102.5t23 -102.5t64 -69.5t95 -25q52 0 88 21.5t60 57.5z" />
    <glyph glyph-name="uni0442" unicode="&#x442;" horiz-adv-x="489" 
d="M208 0v471h74v-471h-74zM25 429v63h439v-63h-439z" />
    <glyph glyph-name="uni0443" unicode="&#x443;" horiz-adv-x="537" 
d="M441 492h76l-250 -581q-21 -49 -52 -77t-94 -28h-49v64h49q32 0 52.5 16t33.5 47l26 65l-213 494h80l186 -453h-32z" />
    <glyph glyph-name="uni0444" unicode="&#x444;" horiz-adv-x="763" 
d="M371 -16q-99 0 -172 32t-112.5 91t-39.5 139q0 81 39.5 139.5t112.5 90.5t172 32h21q100 0 172.5 -32t112 -90.5t39.5 -139.5q0 -80 -39.5 -139t-112 -91t-172.5 -32h-21zM371 49h21q124 0 185 49t61 148q0 98 -61.5 147.5t-184.5 49.5h-21q-124 0 -185 -49t-61 -148
t61 -148t185 -49zM345 -204v212l1 14v440l-1 15v243h74v-243l-1 -15v-440l1 -14v-212h-74z" />
    <glyph glyph-name="uni0445" unicode="&#x445;" horiz-adv-x="508" 
d="M99 0h-87l194 255l-176 237h86l138 -194l138 194h85l-175 -237l194 -255h-88l-154 209z" />
    <glyph glyph-name="uni0446" unicode="&#x446;" horiz-adv-x="600" 
d="M80 0v492h74v-477l-62 48h391l-52 -48v477h74v-492h-425zM500 -128v191h70v-191h-70z" />
    <glyph glyph-name="uni0447" unicode="&#x447;" horiz-adv-x="558" 
d="M242 167q-95 0 -145 48.5t-50 140.5v136h74v-128q0 -76 34.5 -104.5t97.5 -28.5q76 0 156 55l26 -49q-28 -23 -59.5 -38.5t-65 -23.5t-68.5 -8zM404 0v492h74v-492h-74z" />
    <glyph glyph-name="uni0448" unicode="&#x448;" horiz-adv-x="836" 
d="M80 0v492h74v-471l-12 42h251l-12 -42v471h74v-471l-12 42h251l-12 -42v471h74v-492h-676z" />
    <glyph glyph-name="uni0449" unicode="&#x449;" horiz-adv-x="851" 
d="M80 0v492h74v-471l-12 42h251l-12 -42v471h74v-471l-12 42h251l-12 -42v471h74v-492h-676zM751 -128v191h70v-191h-70z" />
    <glyph glyph-name="uni044A" unicode="&#x44a;" horiz-adv-x="570" 
d="M127 0v481l42 -52h-139v63h171v-481l-42 52h203q50 0 77.5 24.5t27.5 67.5q0 42 -27.5 66t-77.5 24h-192v63h192q81 0 131.5 -42.5t50.5 -110.5q0 -44 -24 -79t-65 -55.5t-93 -20.5h-235z" />
    <glyph glyph-name="uni044B" unicode="&#x44b;" horiz-adv-x="717" 
d="M80 0v492h74v-480l-46 51h207q50 0 77.5 24.5t27.5 67.5q0 42 -27.5 66t-77.5 24h-202v63h202q81 0 131.5 -42.5t50.5 -110.5q0 -44 -24 -79t-65 -55.5t-93 -20.5h-235zM563 0v492h74v-492h-74z" />
    <glyph glyph-name="uni044C" unicode="&#x44c;" horiz-adv-x="523" 
d="M80 0v492h74v-480l-46 51h207q50 0 77.5 24.5t27.5 67.5q0 42 -27.5 66t-77.5 24h-202v63h202q81 0 131.5 -42.5t50.5 -110.5q0 -44 -24 -79t-65 -55.5t-93 -20.5h-235z" />
    <glyph glyph-name="uni044D" unicode="&#x44d;" horiz-adv-x="548" 
d="M240 -16q-67 0 -120 25.5t-88 69.5l53 49q24 -36 62.5 -57.5t91.5 -21.5q84 0 134 54t50 144q0 92 -49.5 144t-132.5 52q-53 0 -91 -21.5t-62 -57.5l-53 49q35 44 87 69.5t119 25.5q77 0 135.5 -32.5t91.5 -91t33 -138.5q0 -77 -33 -136.5t-92 -92.5t-136 -33zM136 222
v63h318v-63h-318z" />
    <glyph glyph-name="uni044E" unicode="&#x44e;" horiz-adv-x="816" 
d="M516 -16q-74 0 -132 34t-90.5 93t-32.5 135t32.5 135t90.5 93t132 34q75 0 132 -34t89 -93t32 -135t-32 -135t-89 -93t-132 -34zM80 0v492h74v-492h-74zM116 227v63h205v-63h-205zM516 49q53 0 92.5 25t61 69.5t21.5 102.5t-21.5 102.5t-61 69.5t-92.5 25t-93 -25
t-62 -69.5t-22 -102.5t22 -102.5t62 -69.5t93 -25z" />
    <glyph glyph-name="uni044F" unicode="&#x44f;" horiz-adv-x="555" 
d="M401 0v480l46 -51h-194q-42 0 -73.5 -19.5t-31.5 -66.5q0 -40 27.5 -63t77.5 -23h189v-63h-189q-82 0 -132 41t-50 108q0 42 24 75.5t65.5 53.5t92.5 20h222v-492h-74zM50 0l180 230h84l-174 -230h-90z" />
    <glyph glyph-name="uni0414.loclBGR" horiz-adv-x="782" 
d="M80 20l269 695h83l269 -695h-81l-231 605l-231 -605h-78zM30 -174v243h722v-243h-75v174h-572v-174h-75z" />
    <glyph glyph-name="uni041B.loclBGR" horiz-adv-x="727" 
d="M36 0l286 715h83l286 -715h-83l-246 622l-246 -622h-80z" />
    <glyph glyph-name="uni0424.loclBGR" horiz-adv-x="863" 
d="M432 54q-185 0 -281 77.5t-96 226.5t96 226t281 77t280.5 -77t95.5 -226t-95.5 -226.5t-280.5 -77.5zM432 124q148 0 222 58t74 176q0 117 -74.5 175t-221.5 58q-148 0 -222.5 -57.5t-74.5 -175.5q0 -115 75 -174.5t222 -59.5zM393 -50v118l3 44v492l-3 39v122h77v-122
l-3 -39v-492l3 -44v-118h-77z" />
    <glyph glyph-name="uni0431.loclMKDSRB" horiz-adv-x="593" 
d="M300 -16q-76 0 -133 29t-88.5 81.5t-31.5 122.5q0 65 29 118.5t82.5 90.5t125.5 52l33 -42q-56 -10 -100 -41.5t-68.5 -76.5t-24.5 -98q0 -77 47.5 -123.5t125.5 -46.5q51 0 90 22.5t60.5 62.5t21.5 92q0 64 -37.5 114.5t-106.5 79.5l-116 49q-46 20 -67.5 47t-21.5 64
q0 51 37 81t109 37l219 20l8 -66l-220 -21q-46 -4 -64 -15.5t-18 -35.5q0 -16 10.5 -27t32.5 -21l126 -54q186 -79 186 -249q0 -71 -31.5 -127t-87 -87.5t-127.5 -31.5z" />
    <glyph glyph-name="uni0432.loclBGR" horiz-adv-x="584" 
d="M297 -16q-71 0 -124.5 26.5t-83 75.5t-29.5 116v306q0 67 29.5 118t82.5 80.5t122 29.5q65 0 115 -25t78.5 -68t28.5 -98q0 -43 -17.5 -78.5t-48.5 -59t-72 -30.5v7q74 -9 119 -61t45 -128q0 -61 -30.5 -109t-85.5 -75t-129 -27zM300 49q76 0 120.5 42t44.5 108
q0 69 -50.5 107.5t-140.5 38.5h-164v61h170q72 0 116.5 37t44.5 98q0 59 -40.5 94.5t-107.5 35.5q-75 0 -117 -46t-42 -127v-277q0 -81 45 -126.5t121 -45.5z" />
    <glyph glyph-name="uni0433.loclBGR" horiz-adv-x="511" 
d="M257 -16q-64 0 -112 20.5t-75 57t-27 85.5q0 38 19.5 64t65 44t122.5 32q53 10 82.5 20t41.5 23.5t12 33.5q0 37 -33 59t-89 22q-50 0 -91.5 -19.5t-74.5 -59.5l-49 50q43 47 96 69.5t118 22.5q61 0 105.5 -18.5t69 -51.5t24.5 -79q0 -36 -18.5 -60.5t-62 -42
t-118.5 -32.5q-83 -16 -113.5 -34t-30.5 -51q0 -41 37 -66.5t98 -25.5q53 0 97.5 20t80.5 59l51 -50q-48 -46 -104 -69t-122 -23z" />
    <glyph glyph-name="uni0434.loclBGR" horiz-adv-x="643" 
d="M563 42q0 -73 -33.5 -130t-91 -89.5t-131.5 -32.5q-70 0 -126.5 25.5t-93.5 69.5l52 50q27 -37 68 -58.5t100 -21.5q54 0 95 24t64 66t23 97v189q0 70 -26 117t-67.5 71t-89.5 24q-53 0 -94 -25.5t-64 -69t-23 -98.5q0 -56 23 -99t64.5 -67.5t96.5 -24.5q50 0 91.5 21
t68 58t30.5 85l15 -20q8 -61 -19 -108t-78 -74t-116 -27q-73 0 -130.5 32.5t-90.5 90.5t-33 133t33.5 133t90 91.5t126.5 33.5q49 0 93.5 -18t76 -54.5t41.5 -92.5h-18v149h73v-450z" />
    <glyph glyph-name="uni0436.loclBGR" horiz-adv-x="759" 
d="M645 0l-255 255h10l236 237h95l-239 -241l253 -251h-100zM14 0l253 251l-238 241h94l236 -237h10l-254 -255h-101zM342 0v720h74v-720h-74z" />
    <glyph glyph-name="uni0437.loclBGR" horiz-adv-x="514" 
d="M236 -196q-68 0 -126 25t-95 70l47 46q32 -37 76 -56.5t96 -19.5q47 0 81 15.5t53 47.5t19 79q0 65 -37.5 94.5t-99.5 29.5h-103v63h103q56 0 90 34t34 91q0 41 -18.5 67.5t-49.5 39.5t-70 13q-93 0 -162 -76l-50 47q41 47 94 70.5t116 23.5q64 0 112 -23t75 -63.5
t27 -94.5q0 -55 -27 -97.5t-74 -58.5q53 -18 84 -64t31 -108q0 -59 -28 -103t-78.5 -68t-119.5 -24z" />
    <glyph glyph-name="uni0438.loclBGR" horiz-adv-x="592" 
d="M512 0h-73v96l-1 28v368h74v-492zM448 213l15 -21q5 -60 -21 -107t-73.5 -74t-109.5 -27q-89 0 -142.5 53t-53.5 153v302h74v-294q0 -73 35.5 -111t99.5 -38q45 0 83.5 20.5t63.5 57.5t29 86z" />
    <glyph glyph-name="uni043A.loclBGR" horiz-adv-x="547" 
d="M144 0h-74v720h74v-720zM533 0h-110l-305 255h10l275 237h102l-292 -246v18z" />
    <glyph glyph-name="uni043B.loclBGR" horiz-adv-x="561" 
d="M20 0l224 492h73l224 -492h-81l-182 413l-182 -413h-76z" />
    <glyph glyph-name="uni043F.loclBGR" horiz-adv-x="594" 
d="M531 0h-74v284q0 79 -36 119t-97 40q-44 0 -83 -23t-63 -72t-24 -127v-221h-74v492h73v-149h-13q12 61 41.5 97t70 52t85.5 16q90 0 142 -55.5t52 -160.5v-292z" />
    <glyph glyph-name="uni0442.loclBGR" horiz-adv-x="931" 
d="M868 0h-74v284q0 79 -33.5 119t-89.5 40q-41 0 -78 -23t-59.5 -72t-22.5 -127v-221h-74v284q0 79 -33.5 119t-89.5 40q-41 0 -78 -23t-59.5 -72t-22.5 -127v-221h-74v492h73v-126l-8 1q14 52 42 82.5t64.5 44.5t75.5 14q69 0 113.5 -38.5t57.5 -111.5l-13 -1
q14 54 43.5 87.5t69 48.5t81.5 15q89 0 139 -55.5t50 -160.5v-292z" />
    <glyph glyph-name="uni0446.loclBGR" horiz-adv-x="607" 
d="M259 -16q-89 0 -142.5 53t-53.5 153v302h74v-294q0 -73 35.5 -111t99.5 -38q45 0 83.5 20.5t63.5 57.5t29 86l15 -21q5 -60 -21 -107t-73.5 -74t-109.5 -27zM507 -128v162l34 -34q-46 0 -73 27.5t-29 76.5l-1 20v368h74v-368q0 -31 14.5 -46t46.5 -15h4v-191h-70z" />
    <glyph glyph-name="uni0447.loclBGR" horiz-adv-x="558" 
d="M231 167q-84 0 -134 53t-50 153v119h74v-111q0 -73 33 -111t91 -38q66 0 111.5 45.5t51.5 118.5l15 -21q5 -60 -18.5 -107t-68.5 -74t-105 -27zM404 0v492h74v-492h-74z" />
    <glyph glyph-name="uni0448.loclBGR" horiz-adv-x="931" 
d="M256 -16q-91 0 -142 54t-51 152v302h74v-294q0 -73 33 -111t95 -38q44 0 79.5 21.5t58.5 58.5t27 84l29 -21q-4 -95 -59 -151.5t-144 -56.5zM607 -16q-88 0 -137.5 54.5t-49.5 151.5v302h74v-294q0 -72 33 -110.5t94 -38.5q44 0 80 21t59 58.5t27 84.5l15 -21
q5 -59 -19.5 -106.5t-70 -74.5t-105.5 -27zM778 0v96l-1 28v368h74v-492h-73z" />
    <glyph glyph-name="uni0449.loclBGR" horiz-adv-x="946" 
d="M256 -16q-91 0 -142 54t-51 152v302h74v-294q0 -73 33 -111t95 -38q44 0 79.5 21.5t58.5 58.5t27 84l29 -21q-4 -95 -59 -151.5t-144 -56.5zM607 -16q-88 0 -137.5 54.5t-49.5 151.5v302h74v-294q0 -72 33 -110.5t94 -38.5q44 0 80 21t59 58.5t27 84.5l15 -21
q5 -59 -19.5 -106.5t-70 -74.5t-105.5 -27zM846 -128v162l34 -34q-46 0 -73 27.5t-29 76.5l-1 20v368h74v-368q0 -31 14.5 -46t46.5 -15h4v-191h-70z" />
    <glyph glyph-name="uni044A.loclBGR" horiz-adv-x="578" 
d="M339 -16q-97 0 -154.5 52.5t-57.5 142.5v262l12 -12h-109v63h171v-236l-5 3q17 36 60 59.5t93 23.5q60 0 104.5 -22t69.5 -62t25 -93q0 -52 -27.5 -92.5t-74.5 -64.5t-107 -24zM341 49q58 0 93.5 31.5t35.5 83.5q0 50 -36 81.5t-93 31.5q-60 0 -98 -31.5t-38 -81.5
q0 -52 37.5 -83.5t98.5 -31.5z" />
    <glyph glyph-name="uni044C.loclBGR" horiz-adv-x="514" 
d="M275 -16q-97 0 -154.5 52.5t-57.5 142.5v313h74v-257l-10 10q8 28 31.5 49.5t57 34.5t69.5 13q60 0 104.5 -22t69.5 -62t25 -93q0 -52 -27.5 -92.5t-74.5 -64.5t-107 -24zM277 49q58 0 93.5 31.5t35.5 83.5q0 50 -36 81.5t-93 31.5q-60 0 -98 -31.5t-38 -81.5
q0 -52 37.5 -83.5t98.5 -31.5z" />
    <glyph glyph-name="uni044E.loclBGR" horiz-adv-x="816" 
d="M516 -16q-74 0 -132 34t-90.5 93t-32.5 135t32.5 135t90.5 93t132 34q75 0 132 -34t89 -93t32 -135t-32 -135t-89 -93t-132 -34zM80 0v720h74v-720h-74zM116 227v63h205v-63h-205zM516 49q53 0 92.5 25t61 69.5t21.5 102.5t-21.5 102.5t-61 69.5t-92.5 25t-93 -25
t-62 -69.5t-22 -102.5t22 -102.5t62 -69.5t93 -25z" />
    <glyph glyph-name="uni0404" unicode="&#x404;" horiz-adv-x="739" 
d="M414 -16q-77 0 -142.5 28t-114 78.5t-75.5 118.5t-27 148t27 148t76 119t115 79t143 28q87 0 160.5 -35.5t121.5 -100.5l-56 -53q-39 58 -97 88.5t-129 30.5q-80 0 -144 -39.5t-100.5 -108.5t-36.5 -156q0 -86 36.5 -155t100.5 -108.5t144 -39.5q71 0 129 30.5t97 88.5
l56 -53q-48 -64 -122.5 -100t-161.5 -36zM102 337v69h458v-69h-458z" />
    <glyph glyph-name="uni0406" unicode="&#x406;" horiz-adv-x="267" 
d="M172 0h-77v715h77v-715z" />
    <glyph glyph-name="uni0408" unicode="&#x408;" horiz-adv-x="645" 
d="M569 715v-443q0 -137 -69 -212.5t-197 -75.5q-76 0 -132 27.5t-89 80t-42 127.5l76 9q10 -85 57.5 -129.5t129.5 -44.5q92 0 140.5 56t48.5 162v443h77z" />
    <glyph glyph-name="uni0405" unicode="&#x405;" horiz-adv-x="679" 
d="M38 116l57 54q31 -36 69 -62t82.5 -40t96.5 -14q58 0 103 18t71 50.5t26 76.5q0 56 -47 87.5t-160 48.5q-98 15 -156.5 39.5t-84.5 61.5t-26 89q0 61 34 107.5t94 72.5t138 26q89 0 157.5 -35t121.5 -97l-56 -53q-43 53 -94.5 84t-128.5 31q-82 0 -134 -36.5t-52 -98.5
q0 -32 19 -54.5t62 -37.5t114 -26q102 -15 163 -41.5t88.5 -67.5t27.5 -99q0 -64 -35.5 -112.5t-98.5 -76t-146 -27.5q-96 0 -171.5 35t-133.5 97z" />
    <glyph glyph-name="uni0409" unicode="&#x409;" horiz-adv-x="1102" 
d="M20 0v69h45q27 0 41 13t18 40l74 593h422v-671l-25 25h226q74 0 115.5 37t41.5 101q0 65 -41.5 101.5t-115.5 36.5h-237v69h237q72 0 125 -25.5t82 -72t29 -109.5q0 -62 -29.5 -108.5t-82.5 -72.5t-124 -26h-278v671l25 -25h-327l28 25l-71 -563q-4 -36 -19.5 -60
t-41.5 -36t-64 -12h-53z" />
    <glyph glyph-name="uni040A" unicode="&#x40a;" horiz-adv-x="1134" 
d="M565 0v715h77v-672l-25 25h236q74 0 115.5 36t41.5 99t-41.5 99t-115.5 36h-247v68h247q72 0 125 -25t82 -70.5t29 -107.5q0 -61 -29.5 -106.5t-82.5 -71t-124 -25.5h-288zM95 0v715h77v-715h-77zM162 337v69h423v-69h-423z" />
    <glyph glyph-name="uni040B" unicode="&#x40b;" horiz-adv-x="728" 
d="M596 0v220q0 71 -46.5 110t-130.5 39q-57 0 -112.5 -15t-91.5 -41l-31 54q47 35 108.5 53.5t135.5 18.5q118 0 181.5 -54.5t63.5 -156.5v-228h-77zM151 0v656h77v-656h-77zM10 646v69h481v-69h-481z" />
    <glyph glyph-name="uni0402" unicode="&#x402;" horiz-adv-x="723" 
d="M351 0v69h43q103 0 152.5 36.5t49.5 111.5q0 72 -46.5 112t-130.5 40q-58 0 -113 -15.5t-91 -41.5l-31 54q96 73 241 73q116 0 182 -58t66 -160q0 -109 -67 -165t-198 -56h-57zM151 0v656h77v-656h-77zM10 646v69h481v-69h-481z" />
    <glyph glyph-name="uni040F" unicode="&#x40f;" horiz-adv-x="757" 
d="M95 0v715h77v-646h413v646h77v-715h-567zM341 -174v213h75v-213h-75z" />
    <glyph glyph-name="uni0490" unicode="&#x490;" horiz-adv-x="558" 
d="M95 0v715h413l-45 -49v213h75v-233h-408l42 52v-698h-77z" />
    <glyph glyph-name="uni0462" unicode="&#x462;" horiz-adv-x="699" 
d="M130 0v715h77v-659l-12 13h223q74 0 115.5 37t41.5 101q0 65 -41.5 101.5t-115.5 36.5h-247v69h247q72 0 125 -25.5t82 -72t29 -109.5q0 -62 -29.5 -108.5t-82.5 -72.5t-124 -26h-288zM10 562v69h488v-69h-488z" />
    <glyph glyph-name="uni0472" unicode="&#x472;" horiz-adv-x="852" 
d="M426 -16q-80 0 -147.5 28t-118 78.5t-78 119t-27.5 148.5t27.5 148t78 118.5t118 78.5t147.5 28t147.5 -28t118 -78.5t78 -118.5t27.5 -148t-27.5 -148.5t-78 -119t-118 -78.5t-147.5 -28zM426 54q86 0 152 39t103.5 108t37.5 157t-37.5 156.5t-103.5 107.5t-152 39
q-85 0 -151.5 -39t-104 -107.5t-37.5 -156.5t37.5 -157t104 -108t151.5 -39zM97 337v69h658v-69h-658z" />
    <glyph glyph-name="uni0474" unicode="&#x474;" horiz-adv-x="745" 
d="M314 0l-278 715h83l254 -673h-32l214 584q12 34 27 53t35 27.5t47 8.5h66v-69h-51q-22 0 -34 -10t-23 -37l-225 -599h-83z" />
    <glyph glyph-name="uni0454" unicode="&#x454;" horiz-adv-x="553" 
d="M308 -16q-77 0 -136 33t-92 92.5t-33 136.5q0 80 33 138.5t92 91t135 32.5q68 0 120 -25.5t86 -69.5l-53 -49q-24 36 -62 57.5t-91 21.5q-83 0 -132.5 -52t-49.5 -144q0 -90 50 -144t134 -54q53 0 91.5 21.5t62.5 57.5l53 -49q-34 -44 -87.5 -69.5t-120.5 -25.5zM94 222
v63h318v-63h-318z" />
    <glyph glyph-name="uni0456" unicode="&#x456;" horiz-adv-x="234" 
d="M154 0h-74v492h74v-492zM117 624q-22 0 -38 15.5t-16 37.5q0 23 16 38.5t38 15.5q23 0 38.5 -15.5t15.5 -38.5q0 -22 -15.5 -37.5t-38.5 -15.5z" />
    <glyph glyph-name="uni0458" unicode="&#x458;" horiz-adv-x="214" 
d="M-24 -194v64h33q32 0 46.5 15t14.5 46v561h74v-567q0 -119 -119 -119h-49zM107 624q-22 0 -38 15.5t-16 37.5q0 23 16 38.5t38 15.5q23 0 38.5 -15.5t15.5 -38.5q0 -22 -15.5 -37.5t-38.5 -15.5z" />
    <glyph glyph-name="uni0455" unicode="&#x455;" horiz-adv-x="514" 
d="M28 76l52 50q35 -37 79 -58t99 -21q60 0 98.5 25.5t38.5 65.5q0 35 -32.5 54.5t-109.5 30.5q-112 16 -157.5 48.5t-45.5 87.5q0 45 26 78.5t72 52t105 18.5q66 0 118 -24t92 -68l-52 -50q-30 37 -69 58t-89 21q-55 0 -91 -23t-36 -61q0 -28 30.5 -44.5t103.5 -26.5
q116 -16 163.5 -51.5t47.5 -98.5q0 -46 -27.5 -81.5t-75.5 -55t-110 -19.5q-72 0 -128.5 24.5t-101.5 67.5z" />
    <glyph glyph-name="uni0459" unicode="&#x459;" horiz-adv-x="843" 
d="M20 0v64h40q27 0 41 14.5t17 53.5l31 360h340v-441l-12 12h158q50 0 77.5 24.5t27.5 67.5q0 42 -27.5 66t-77.5 24h-161v63h161q81 0 131.5 -42.5t50.5 -110.5q0 -44 -24 -79t-65 -55.5t-93 -20.5h-220v441l12 -12h-221l13 12l-30 -321q-6 -66 -34.5 -93t-84.5 -27h-50z
" />
    <glyph glyph-name="uni045A" unicode="&#x45a;" horiz-adv-x="858" 
d="M430 0v492h74v-441l-12 12h158q50 0 77.5 24t27.5 64q0 41 -27.5 64.5t-77.5 23.5h-161v63h161q81 0 131.5 -42t50.5 -109q0 -42 -24 -76t-65 -54.5t-93 -20.5h-220zM80 0v492h74v-492h-74zM139 239v63h306v-63h-306z" />
    <glyph glyph-name="uni045B" unicode="&#x45b;" horiz-adv-x="610" 
d="M96 0v720h74v-384h-13q12 61 41 97t69.5 52t85.5 16q90 0 142 -55.5t52 -160.5v-285h-74v277q0 79 -36 119t-97 40q-44 0 -83 -23t-63 -72t-24 -127v-214h-74zM15 573v63h355v-63h-355z" />
    <glyph glyph-name="uni0452" unicode="&#x452;" horiz-adv-x="610" 
d="M346 -210l-40 64q86 42 130 124.5t44 209.5q0 122 -34.5 185t-105.5 63q-78 0 -124 -60.5t-46 -161.5v-214h-74v720h74v-384h-13q15 80 66.5 122.5t131.5 42.5q101 0 150 -79t49 -231q0 -146 -52.5 -245t-155.5 -156zM15 573v63h355v-63h-355z" />
    <glyph glyph-name="uni045F" unicode="&#x45f;" horiz-adv-x="575" 
d="M70 0v492h74v-429h277v429h74v-492h-425zM247 -128v171h70v-171h-70z" />
    <glyph glyph-name="uni0491" unicode="&#x491;" horiz-adv-x="453" 
d="M80 0v492h315l-42 -42v162h70v-183h-311l42 52v-481h-74z" />
    </font>
</defs>
</svg>
